<?xml version="1.0" standalone="no"?> <!DOCTYPE svg PUBLIC "-//W3C//DTD SVG 1.0//EN" "http://www.w3.org/TR/2001/REC-SVG-20010904/DTD/svg10.dtd" > <svg xmlns="http://www.w3.org/2000/svg" width="100%" height="100%">
<defs >
<font horiz-adv-x="588" ><font-face
    font-family=""
    units-per-em="1000"
    panose-1="2 0 5 5 8 0 0 2 0 4"
    ascent="760"
    descent="-240"
    alphabetic="0" />
<missing-glyph horiz-adv-x="165" />
<glyph unicode=" " glyph-name="space" horiz-adv-x="165" />
<glyph unicode="!" glyph-name="exclam" horiz-adv-x="308" d="M243 695L182 210H124L65 695H243ZM153 -13Q137 -13 123 -7T97 11T80 36T73 66Q73 82 79 97T97 122T122 139T153 146Q186 146 209 123T233 66Q233 50 227 36T210 11T184 -6T153 -13Z" />
<glyph unicode="&quot;" glyph-name="quotedbl" horiz-adv-x="480" d="M51 785H206L153 474H102L51 785ZM275 785H430L377 474H326L275 785Z" />
<glyph unicode="#" glyph-name="numbersign" horiz-adv-x="600" d="M84 507H194L221 660H281L254 507H398L425 660H484L457 507H563V447H446L416 276H519V217H405L379 66H320L346 217H202L176 66H116L142 217H40V276H153L183 447H84V507ZM213 276H357L387 447H243L213
276Z" />
<glyph unicode="$" glyph-name="dollar" horiz-adv-x="600" d="M240 -14Q188 -9 145 6T69 38L51 241H100L173 86Q189 74 207 64T247 48L272 262L214 280Q140 303 106 349T71 467Q71 505 87 542T134 609T212 658T319 680L331 784H385L373 679Q409 676 444 667T517
643L524 452H479L414 597Q406 602 394 608T366 619L342 407L412 385Q453 371 480 353T524 313T548 267T555 217Q555 163 533 121T473 49T389 3T294 -16L282 -125H228L240 -14ZM409 148Q409 182 390 206T324 245L301 42Q349 44 379 73T409 148ZM207 523Q207 491
226 466T290 424L313 626Q265 624 236 596T207 523Z" />
<glyph unicode="%" glyph-name="percent" horiz-adv-x="900" d="M222 679Q261 679 294 665T350 627T387 569T400 495Q400 453 386 417T348 354T291 313T220 298Q176 298 143 313T87 353T52 412T40 484Q40 526 54 561T93 623T151 664T222 679ZM685 684H757L239
-50H168L685 684ZM206 628Q177 626 165 597T154 520Q154 498 159 469T173 412T198 367T235 349Q263 350 275 380T286 461Q285 498 279 528T261 581T236 616T206 628ZM682 361Q721 361 754 347T810 309T847 251T860 177Q860 135 846 99T808 36T751 -5T679 -20Q636
-20 603 -5T547 35T512 94T500 166Q500 208 514 243T553 305T611 346T682 361ZM666 310Q637 308 625 279T614 202Q614 180 619 151T633 94T658 49T695 31Q723 32 735 62T746 143Q745 180 739 210T721 263T696 298T666 310Z" />
<glyph unicode="&amp;" glyph-name="ampersand" horiz-adv-x="861" d="M743 424L605 200L597 187Q641 143 674 118T740 90Q756 89 769 94T791 106Q802 113 809 123L832 96Q813 65 787 40Q764 19 732 2T656 -16Q634 -16 615 -11T578 5T541 33T499 73Q454 33 398
7T272 -20Q221 -20 179 -8T107 26T61 81T44 156Q44 197 62 229T107 285T163 326T216 355Q188 382 170 401T142 438T127 472T122 513Q122 546 138 578T183 634T254 674T348 690Q399 690 434 679T492 649T525 606T536 554Q536 522 522 497T485 453T436 419T387 392L473
312Q496 289 516 269T556 229Q563 240 569 251T582 275L662 424L584 436V490H825V439L743 424ZM343 233Q315 261 292 283T248 325Q226 307 208 279T190 209Q190 153 229 116T336 79Q404 79 457 116Q434 140 406 169T343 233ZM254 555Q254 538 258 526T273 500T304
468T355 421Q388 449 403 476T418 539Q418 587 393 611T336 635Q302 635 278 614T254 555Z" />
<glyph unicode="&apos;" glyph-name="quotesingle" horiz-adv-x="257" d="M51 785H206L153 474H102L51 785Z" />
<glyph unicode="(" glyph-name="parenleft" horiz-adv-x="350" d="M282 -179Q189 -92 137 25T84 274Q84 341 98 405T138 527T201 638T283 733H372Q331 683 299 632T246 526T213 408T202 274Q202 206 212 145T244 29T296 -78T368 -179H282Z" />
<glyph unicode=")" glyph-name="parenright" horiz-adv-x="350" d="M75 733Q168 646 217 529T267 280Q267 213 253 149T213 27T151 -84T69 -179H-21Q20 -130 52 -79T105 28T138 146T149 280Q149 416 107 525T-17 733H75Z" />
<glyph unicode="*" glyph-name="asterisk" horiz-adv-x="409" d="M255 499L252 375L225 369L171 479L52 442L38 464L128 551L55 651L71 670L183 616L254 713L277 705L260 584L374 547L373 521L255 499Z" />
<glyph unicode="+" glyph-name="plus" horiz-adv-x="600" d="M335 274V70H265V274H63V340H265V544H335V340H537V274H335Z" />
<glyph unicode="," glyph-name="comma" horiz-adv-x="300" d="M25 -166Q89 -134 112 -97T135 -23Q135 11 119 34T64 75Q64 94 68 113T83 148T111 172T155 182Q198 182 227 150T257 54Q257 -34 204 -98T51 -207Q43 -196 38 -187Q33 -179 29 -173T25 -166Z" />
<glyph unicode="-" glyph-name="hyphen" horiz-adv-x="378" d="M57 335H321V224H57V335Z" />
<glyph unicode="." glyph-name="period" horiz-adv-x="300" d="M156 -13Q138 -13 123 -6T95 13T76 40T69 74Q69 92 76 108T95 135T122 154T156 161Q192 161 218 136T244 74Q244 56 237 41T218 13T190 -6T156 -13Z" />
<glyph unicode="/" glyph-name="slash" horiz-adv-x="528" d="M8 -179L411 746L470 719L67 -206L8 -179Z" />
<glyph unicode="0" glyph-name="zero" horiz-adv-x="600" d="M397 248Q397 321 389 388T365 506T328 588T281 619Q262 619 248 604T224 561T209 497T204 414Q204 378 207 337T216 254T233 175T255 108T284 61T319 43Q339 43 353 58T378 101T392 165T397 248ZM296
684Q356 684 405 656T490 579T545 466T564 329Q564 247 543 182T486 72T403 3T305 -21Q246 -21 197 7T112 83T58 196T38 335Q38 417 59 481T115 591T198 660T296 684Z" />
<glyph unicode="1" glyph-name="one" horiz-adv-x="600" d="M407 70L555 57V0H79V57L243 69V547L84 539L74 588L386 678H407V70Z" />
<glyph unicode="2" glyph-name="two" horiz-adv-x="600" d="M210 132H537V0H52V61L178 186Q230 238 263 278T315 349T340 406T347 456Q347 485 337 507T312 543T276 565T235 572Q201 572 171 554T103 500L65 532Q87 563 110 591T162 640T224 673T303 685Q352 685
392 672T460 634T503 577T518 505Q518 455 498 416T444 341T362 266T261 178L210 132Z" />
<glyph unicode="3" glyph-name="three" horiz-adv-x="600" d="M255 31Q306 31 338 61T370 142Q370 171 356 197T314 242T247 274T157 288V352Q198 366 232 384T292 422T332 464T346 509Q346 543 324 563T264 584Q244 584 226 580T190 566T151 543T107 511L76 550Q96
574 120 598T174 641T239 673T317 686Q362 686 395 676T450 646T482 602T493 548Q493 516 480 490T443 442T391 403T330 373V369Q421 358 474 314T528 194Q528 140 500 100T428 33T333 -7T236 -20Q143 -20 98 13T52 93Q52 120 75 144T145 168L202 45Q210 41 221
36T255 31Z" />
<glyph unicode="4" glyph-name="four" horiz-adv-x="600" d="M462 261H573V159H462V66L556 51V0H210V51L308 64V159H27V225L358 676L462 664V261ZM308 261V516L129 261H308Z" />
<glyph unicode="5" glyph-name="five" horiz-adv-x="600" d="M164 525L159 405Q189 415 220 420T290 426Q348 426 392 411T468 368T515 302T531 219Q531 160 503 116T432 41T340 -4T248 -20Q206 -20 171 -11T110 14T70 53T56 102Q56 115 60 127T75 150T102 166T143
172L206 45Q215 41 229 38T265 34Q287 34 308 41T345 64T371 101T381 152Q381 182 371 209T339 256T286 288T209 300Q168 300 138 290T102 277H87L104 664H491V525H164Z" />
<glyph unicode="6" glyph-name="six" horiz-adv-x="600" d="M539 665Q495 652 449 632T360 581T284 508T232 408Q260 427 292 438T364 449Q408 449 445 433T510 389T552 320T567 232Q567 172 544 125T484 46T400 -3T307 -20Q253 -20 206 -1T125 54T72 142T52 259Q52
336 74 398T133 509T219 593T321 653T428 692T532 712L539 665ZM277 378Q258 378 244 371T219 354Q217 339 216 324T215 293Q215 243 222 197T244 116T279 60T328 39Q350 39 364 51T388 81T400 122T404 166Q404 215 394 254T366 320T326 363T277 378Z" />
<glyph unicode="7" glyph-name="seven" horiz-adv-x="600" d="M129 0L431 517H76V664H563V637L245 0H129Z" />
<glyph unicode="8" glyph-name="eight" horiz-adv-x="600" d="M50 154Q50 190 65 217T103 264T152 296T201 317Q138 352 107 394T76 499Q76 531 91 564T137 624T214 668T323 686Q371 686 409 675T473 643T514 595T529 535Q529 502 516 477T483 433T438 400T391
377Q429 355 459 335T509 291T541 241T552 181Q552 133 530 96T471 32T388 -7T293 -21Q243 -21 199 -10T121 24T69 78T50 154ZM240 295Q220 275 207 246T194 172Q194 146 202 122T226 80T263 51T312 40Q358 40 382 66T406 133Q406 166 385 196T309 257L240 295ZM209
540Q209 505 231 481T290 436L352 400Q366 419 379 449T393 525Q393 573 366 600T299 628Q261 628 235 605T209 540Z" />
<glyph unicode="9" glyph-name="nine" horiz-adv-x="600" d="M71 3Q123 14 170 32T255 79T323 147T369 240Q343 225 313 218T254 211Q201 211 162 227T96 273T57 341T44 428Q44 494 66 542T124 621T207 668T303 684Q353 684 399 664T481 607T538 519T560 405Q560
322 537 257T476 143T387 60T284 3T177 -29T78 -40L71 3ZM330 277Q361 277 383 298Q389 337 389 383Q389 432 382 477T360 556T325 611T276 631Q254 630 240 617T218 583T206 536T203 482Q203 442 212 405T239 340T279 294T330 277Z" />
<glyph unicode=":" glyph-name="colon" horiz-adv-x="300" d="M156 -13Q138 -13 122 -6T95 13T76 40T69 74Q69 110 94 135T156 161Q192 161 218 136T244 74Q244 56 237 41T218 13T190 -6T156 -13ZM156 326Q138 326 123 333T95 352T76 380T69 414Q69 431 76 447T95
475T122 494T156 501Q174 501 190 494T218 475T237 447T244 414Q244 396 237 380T218 352T190 333T156 326Z" />
<glyph unicode=";" glyph-name="semicolon" horiz-adv-x="300" d="M163 326Q127 326 102 352T76 414Q76 431 83 447T101 475T129 494T163 501Q181 501 197 494T224 475T243 447T250 414Q250 378 225 352T163 326ZM27 -166Q91 -134 114 -97T137 -23Q137 43 66 75Q66
94 70 113T85 148T113 172T156 182Q200 182 229 150T259 54Q259 -34 206 -98T52 -207Q44 -196 39 -187Q34 -179 31 -173T27 -166Z" />
<glyph unicode="&lt;" glyph-name="less" horiz-adv-x="600" d="M144 305L536 128V56L64 276V335L536 555V484L144 305Z" />
<glyph unicode="=" glyph-name="equal" horiz-adv-x="600" d="M63 427H537V363H63V427ZM63 272H537V209H63V272Z" />
<glyph unicode="&gt;" glyph-name="greater" horiz-adv-x="600" d="M456 306L64 483V555L536 335V276L64 56V127L456 306Z" />
<glyph unicode="?" glyph-name="question" horiz-adv-x="406" d="M69 717L128 707Q185 697 233 674T317 618T373 542T393 453Q393 390 368 352T270 296L166 272V210H110L81 386L256 425Q303 436 318 449T333 478Q333 512 277 527T109 551L69 554V717ZM139 -13Q123
-13 109 -7T83 11T66 36T59 66Q59 82 65 97T83 122T108 139T139 146Q173 146 196 123T219 66Q219 34 196 11T139 -13Z" />
<glyph unicode="@" glyph-name="at" horiz-adv-x="973" d="M545 205H541L516 166Q500 141 483 114T445 63T399 25T343 10Q305 10 285 36T263 100Q261 145 277 189T320 272T381 345T451 403T519 440T575 454Q596 454 616 449L623 476H736L648 142Q636 97 641 78T671
58Q692 58 722 75T780 126T827 213T847 337Q847 397 825 448T764 537T672 596T558 618Q474 618 401 583T274 487T189 348T158 182Q158 103 182 44T249 -55T350 -115T477 -135Q507 -135 535 -131T585 -122T623 -111T644 -104L643 -142Q612 -153 578 -161Q549 -169
511 -174T431 -180Q343 -180 273 -155T155 -85T81 22T55 159Q55 226 75 289T130 408T215 510T324 589T449 641T586 660Q670 660 735 635T844 567T910 470T933 357Q933 276 903 212T826 102T727 34T628 10Q558 10 535 52T533 166L545 205ZM416 112Q429 112 452 137T499
199T545 281T578 364L585 388Q564 400 548 400Q527 400 501 375T452 311T414 228T398 145Q398 125 403 119T416 112Z" />
<glyph unicode="A" glyph-name="A" horiz-adv-x="772" d="M6 49L72 70L306 657L374 661L447 681L691 64L766 51V0H420V53L505 66L454 206H210L165 79L269 53V0H6V49ZM237 280H428L333 545H332L237 280Z" />
<glyph unicode="B" glyph-name="B" horiz-adv-x="699" d="M31 52L118 66V597L35 612V664L345 666Q488 667 556 630T625 514Q625 476 607 449T559 403T488 373T405 358V355Q457 355 504 346T586 316T641 263T662 185Q662 133 638 98T570 40T465 9T328 -1L31 0V52ZM288
329V106Q290 77 314 62T370 47Q418 47 452 77T487 168Q487 235 448 276T340 329H288ZM288 372Q378 380 419 408T460 488Q460 543 417 577T288 615V372Z" />
<glyph unicode="C" glyph-name="C" horiz-adv-x="725" d="M404 -19Q306 -19 237 8T124 81T59 183T38 301Q38 385 70 455T158 576T290 655T453 684Q518 684 569 668T662 630L668 450H617L552 592Q535 603 510 612T451 621Q406 621 366 604T296 552T247 469T229
355Q229 281 247 224T296 128T370 69T461 49Q493 49 518 56T560 73L643 227H695L670 40Q610 13 546 -3T404 -19Z" />
<glyph unicode="D" glyph-name="D" horiz-adv-x="808" d="M289 94Q300 47 382 49Q429 50 466 72T528 131T567 216T580 317Q580 404 556 462T492 555T400 603T289 612V94ZM31 52L118 66V597L35 612V664L386 669Q475 670 546 647T668 582T745 482T772 357Q772 269
739 201T648 87T510 18T337 -4L31 0V52Z" />
<glyph unicode="E" glyph-name="E" horiz-adv-x="693" d="M296 309V65H519L607 210H657L622 0H35V52L122 66V597L40 612V664H524L622 671V477H572L520 605H296V368H415L441 452H487V231H439L415 309H296Z" />
<glyph unicode="F" glyph-name="F" horiz-adv-x="639" d="M296 307V66L414 54V0H30V52L122 66V597L40 612V664H515L614 671V468H565L512 605H296V366H407L433 450H479V229H431L407 307H296Z" />
<glyph unicode="G" glyph-name="G" horiz-adv-x="772" d="M406 -19Q310 -19 241 8T126 80T60 182T38 301Q38 384 71 454T161 575T295 655T460 684Q526 684 579 669T675 630L681 451H630L567 592Q551 602 522 611T451 621Q406 621 366 603T296 550T247 466T229
355Q229 280 248 223T299 127T374 69T466 49Q488 49 505 52T535 59V253L449 266V316H739V265L690 251V44L653 29Q612 12 552 -3T406 -19Z" />
<glyph unicode="H" glyph-name="H" horiz-adv-x="851" d="M475 52L559 66V293H291V66L376 52V0H31V52L118 66V597L35 612V664H370V612L291 597V368H559V597L481 612V664H815V612L733 597V66L820 52V0H475V52Z" />
<glyph unicode="I" glyph-name="I" horiz-adv-x="408" d="M31 52L118 66V597L35 612V664H374V612L291 597V66L378 52V0H31V52Z" />
<glyph unicode="J" glyph-name="J" horiz-adv-x="424" d="M305 100Q305 31 287 -27T235 -128T149 -195T32 -220L19 -170Q59 -160 82 -137T116 -81T129 -8T132 78V597L47 612V664H389V612L305 597V100Z" />
<glyph unicode="K" glyph-name="K" horiz-adv-x="776" d="M31 52L118 66V597L35 612V664H371V612L291 597V66L361 52V0H31V52ZM300 357V366L364 385L565 592L490 614V664H746V615L660 592L469 399L707 66L784 52V0H543L300 357Z" />
<glyph unicode="L" glyph-name="L" horiz-adv-x="641" d="M475 65L571 235H621L581 0H31V52L118 66V597L35 612V664H379V612L291 597V65H475Z" />
<glyph unicode="M" glyph-name="M" horiz-adv-x="1011" d="M28 52L114 72L120 597L31 612V664H345L518 277L660 622L666 664H975V612L892 597L896 65L983 52V0H629V53L721 66L724 573L528 117L494 14H435L403 115L200 575L195 81L322 50V0H28V52Z" />
<glyph unicode="N" glyph-name="N" horiz-adv-x="823" d="M602 -2L194 485L199 79L333 49V0H33V52L119 71L120 582L30 613V664H269L640 220L637 583L503 615V664H798V612L716 590V83L719 -2H602Z" />
<glyph unicode="O" glyph-name="O" horiz-adv-x="788" d="M405 43Q441 43 469 62T518 117T550 203T561 314Q561 376 549 431T513 529T456 596T381 621Q345 621 317 602T268 547T238 463T227 352Q227 286 240 229T277 131T333 67T405 43ZM395 684Q474 684 539 660T651
590T723 482T749 342Q749 259 720 192T642 78T528 4T390 -22Q314 -22 250 2T139 70T66 178T39 321Q39 405 67 472T144 586T258 659T395 684Z" />
<glyph unicode="P" glyph-name="P" horiz-adv-x="658" d="M333 310Q394 317 433 355T472 458Q472 488 462 516T430 566T374 601T291 614V66L401 52V0H31V52L118 66V597L35 612V664L332 665Q405 665 462 654T560 618T622 559T644 478Q644 421 616 379T543 311T443
274T333 270V310Z" />
<glyph unicode="Q" glyph-name="Q" horiz-adv-x="789" d="M395 684Q474 684 539 660T651 592T724 485T750 346Q750 283 732 228T682 130T605 55T508 8Q551 -24 590 -51T669 -98T751 -129T840 -141Q888 -141 925 -131T1000 -100L1022 -129Q1010 -142 989 -160T935
-194T858 -222T752 -234Q677 -234 610 -213T482 -158T361 -78T243 18Q149 54 95 134T40 328Q40 407 68 473T145 585T258 658T395 684ZM382 621Q346 621 317 602T267 547T235 462T224 351Q224 291 236 236T271 138T329 70T407 45Q444 45 473 64T523 117T554 201T565
311Q565 368 554 423T519 523T461 594T382 621Z" />
<glyph unicode="R" glyph-name="R" horiz-adv-x="748" d="M31 52L118 66V598L35 612V664L334 666Q401 667 457 657T555 624T620 567T643 485Q643 424 605 384T503 318V316L677 63L756 50V0H535L410 184Q392 210 381 227T362 254Q354 265 351 272L291 270V66L361
52V0H31V52ZM291 323H340Q401 334 436 372T472 463Q472 494 462 521T429 570T373 602T291 614V323Z" />
<glyph unicode="S" glyph-name="S" horiz-adv-x="582" d="M33 240H83L161 78Q182 63 208 55T270 46Q319 46 349 71T380 142Q380 210 291 246L208 279Q130 311 92 354T53 472Q53 511 70 549T122 617T206 667T324 686Q376 686 420 674T510 640L516 453H466L405 594Q392
602 371 612T318 623Q269 623 241 597T212 530Q212 494 233 470T305 425L394 388Q439 369 468 349T515 307T540 259T547 206Q547 153 523 111T459 40T370 -5T272 -21Q198 -21 146 -4T48 42L33 240Z" />
<glyph unicode="T" glyph-name="T" horiz-adv-x="718" d="M586 664L682 671L688 468H638L579 605H445V67L548 52V0H170V52L272 66V605H139L80 468H30L36 671L130 664H586Z" />
<glyph unicode="U" glyph-name="U" horiz-adv-x="776" d="M395 -21Q240 -21 170 49T99 266V597L16 612V664H352V612L272 597V258Q272 169 310 117T429 64Q599 64 597 275L594 585L470 615V664H761V612L679 591V287Q679 218 662 161T610 64T522 1T395 -21Z" />
<glyph unicode="V" glyph-name="V" horiz-adv-x="746" d="M76 597L5 612V664H342V612L263 595L426 145L590 587L482 611V664H741V612L672 593L434 -11H313L76 597Z" />
<glyph unicode="W" glyph-name="W" horiz-adv-x="1107" d="M556 413L415 -10H293L81 597L5 612V664H343V612L266 597L407 163L521 512L491 598L416 612V664H751V611L675 596L820 164L945 584L858 611V664H1102V612L1027 590L828 -10H706L556 413Z" />
<glyph unicode="X" glyph-name="X" horiz-adv-x="736" d="M8 53L76 67L286 320L102 598L36 612V664H384V612L310 598L419 421H421L545 592L457 612V664H711V612L643 597L454 365L653 65L728 52V0H364V53L444 66L321 266H319L178 71L265 52V0H8V53Z" />
<glyph unicode="Y" glyph-name="Y" horiz-adv-x="695" d="M435 280V66L527 52V0H169V52L261 66V246L70 600L6 612V664H353V613L270 598L396 327L533 593L445 613V664H689V613L613 594L435 280Z" />
<glyph unicode="Z" glyph-name="Z" horiz-adv-x="640" d="M23 59L393 600H156L90 452H42L56 671L151 664H619V649L222 65H472L566 235H613L576 -7L474 0H23V59Z" />
<glyph unicode="[" glyph-name="bracketleft" horiz-adv-x="350" d="M118 -181V733H334V677H234V-125H334V-181H118Z" />
<glyph unicode="\" glyph-name="backslash" horiz-adv-x="528" d="M460 -206L57 719L117 746L520 -179L460 -206Z" />
<glyph unicode="]" glyph-name="bracketright" horiz-adv-x="350" d="M232 733V-181H16V-125H116V677H16V733H232Z" />
<glyph unicode="^" glyph-name="asciicircum" horiz-adv-x="499" d="M47 468L207 756H288L452 468H390L244 667L101 468H47Z" />
<glyph unicode="_" glyph-name="underscore" horiz-adv-x="408" d="M4 -146H404V-222H4V-146Z" />
<glyph unicode="`" glyph-name="grave" horiz-adv-x="400" d="M114 751V769H238L288 572H227L114 751Z" />
<glyph unicode="a" glyph-name="a" horiz-adv-x="568" d="M181 -13Q151 -13 125 -4T80 23T49 66T37 122Q37 153 48 176T81 216T131 244T197 264L321 293V329Q321 354 316 376T301 414T275 439T236 448Q223 448 208 445T186 438L185 330Q174 325 156 321T115 316Q88
316 72 329T55 369Q55 392 75 416T128 460T206 493T299 506Q399 506 440 462T481 329V102Q481 76 489 71T520 65H559V25Q537 14 513 6Q493 -2 469 -7T423 -13Q398 -13 381 -6T353 13T336 41T326 77H322Q309 60 296 44T267 16T230 -5T181 -13ZM263 80Q284 80 298
89T321 108V244L274 231Q227 217 210 199T193 154Q193 119 214 100T263 80Z" />
<glyph unicode="b" glyph-name="b" horiz-adv-x="611" d="M261 -15Q221 -15 176 -6T101 15L68 28V649L-1 666V715L228 746V433Q238 445 252 457T284 480T326 498T376 505Q415 505 452 492T519 452T566 380T584 274Q584 211 557 158T484 67T381 7T261 -15ZM293
411Q272 411 256 405T228 392V74Q238 65 250 58Q261 52 275 47T307 42Q356 42 391 89T426 230Q426 313 391 362T293 411Z" />
<glyph unicode="c" glyph-name="c" horiz-adv-x="500" d="M267 -15Q212 -15 168 3T94 54T47 131T30 227Q30 294 53 346T116 435T205 490T309 509Q347 509 377 499T427 471T458 432T469 387Q469 353 449 334T392 315Q382 315 374 315T360 317Q353 318 346 320L332
441Q331 441 319 445T290 449Q261 449 240 435T206 399T186 351T179 300Q179 250 192 213T227 150T279 113T342 101Q366 101 386 108T423 124Q441 135 456 148L479 121Q461 95 441 71T396 27T339 -3T267 -15Z" />
<glyph unicode="d" glyph-name="d" horiz-adv-x="635" d="M275 723L545 746V80L619 64V14L435 -11L399 65Q385 50 370 36T337 10T294 -8T239 -15Q195 -15 157 2T91 51T46 128T30 230Q30 296 54 347T119 434T211 488T317 507Q335 507 352 504T385 495V647L275 672V723ZM330
82Q347 82 361 86T385 96V387Q370 410 348 425T295 441Q253 441 224 404T195 288Q195 187 232 135T330 82Z" />
<glyph unicode="e" glyph-name="e" horiz-adv-x="547" d="M274 -15Q210 -15 164 6T88 62T44 140T30 227Q30 295 54 347T116 436T203 490T298 509Q353 509 392 490T457 437T495 358T509 261H175Q180 218 196 187T235 136T289 107T352 97Q382 97 407 105T450 124Q471
135 488 151L512 124Q498 106 479 82T432 37T366 0T274 -15ZM270 447Q233 447 206 414T173 320H351Q351 344 347 367T334 408T309 436T270 447Z" />
<glyph unicode="f" glyph-name="f" horiz-adv-x="399" d="M20 51L88 65V429H19V480L87 502V518Q87 563 106 605T157 680T229 732T312 752Q387 752 426 725T465 657Q465 639 458 626T438 605T411 593T381 589H366Q362 589 360 590L312 698Q278 697 257 667T239
574L243 490H372V423H247V65L337 51V0H20V51Z" />
<glyph unicode="g" glyph-name="g" horiz-adv-x="574" d="M442 426L440 423Q457 407 471 380T485 314Q485 279 469 247T424 191T353 153T262 139Q206 139 164 155Q157 147 151 135T144 112Q144 93 159 89T203 82L371 75Q416 73 448 62T502 34T532 -5T542 -51Q542
-94 516 -134T445 -205T341 -254T218 -273Q166 -273 128 -263T64 -235T25 -195T12 -147Q12 -126 22 -109T47 -77T80 -53T115 -37L122 -34V-31L41 45Q47 73 68 110T119 177Q81 201 60 237T39 320Q39 362 57 396T105 455T177 493T263 507Q300 507 333 499T400 477L561
497V414L442 426ZM276 194Q313 194 329 222T346 292Q346 327 338 356T317 407T286 441T250 453Q215 453 198 426T180 357Q180 322 188 293T209 241T240 207T276 194ZM161 -51Q156 -60 153 -70T150 -95Q150 -115 161 -132T191 -161T237 -180T295 -187Q332 -187 359
-180T403 -162T428 -137T437 -108Q437 -88 423 -76T384 -60L161 -51Z" />
<glyph unicode="h" glyph-name="h" horiz-adv-x="656" d="M360 52L414 65V300Q412 411 320 410Q298 409 279 403T249 389V65L305 51V0H22V51L89 65V650L19 668V717L249 746V429Q260 441 276 455T312 481T357 501T410 509Q491 509 532 469T573 341V65L642 51V0H360V52Z" />
<glyph unicode="i" glyph-name="i" horiz-adv-x="332" d="M20 52L87 65V396L21 411V463L247 509V65L310 52V0H20V52ZM167 577Q125 577 100 603T75 665Q75 701 100 726T167 752Q209 752 233 727T258 665Q258 629 233 603T167 577Z" />
<glyph unicode="j" glyph-name="j" horiz-adv-x="321" d="M-6 -196Q13 -186 29 -169T58 -123T77 -52T84 51V395L18 411V463L244 509V66Q244 -6 229 -57T191 -143Q167 -179 138 -199T82 -229T37 -241T14 -244L-6 -196ZM164 577Q122 577 97 603T72 665Q72 701 97
726T164 752Q206 752 230 727T255 665Q255 629 230 603T164 577Z" />
<glyph unicode="k" glyph-name="k" horiz-adv-x="629" d="M89 649L19 667V716L249 746V65L310 51V0H22V51L89 65V649ZM534 -19Q508 -19 490 -15T456 -1T428 24T402 59L259 277V286L318 302L428 421L338 442V490H610V443L534 423L408 304L627 22Q620 11 608 2Q597
-6 580 -12T534 -19Z" />
<glyph unicode="l" glyph-name="l" horiz-adv-x="337" d="M22 51L89 65V649L20 666V715L249 746V65L321 51V0H22V51Z" />
<glyph unicode="m" glyph-name="m" horiz-adv-x="979" d="M682 52L735 65V304Q734 353 715 382T649 410Q625 409 605 400T572 382V65L627 51V0H358V52L412 65V304Q411 353 392 382T324 410Q301 409 280 399T247 381V65L304 51V0H20V52L88 65V395L20 409V455L212
510H217L239 422H243Q252 435 267 450T302 478T350 499T411 508Q462 508 503 489T561 421H564Q573 434 587 449T623 478T672 500T736 509Q761 509 789 504T840 482T879 435T895 356V65L963 51V0H682V52Z" />
<glyph unicode="n" glyph-name="n" horiz-adv-x="655" d="M20 51L88 65V395L20 409V455L212 510H217L239 422H242Q252 434 268 449T305 477T352 500T409 509Q490 509 531 469T572 341V65L640 51V0H358V52L412 65V300Q411 355 389 383T318 410Q295 409 277 403T247
389V65L304 51V0H20V51Z" />
<glyph unicode="o" glyph-name="o" horiz-adv-x="592" d="M198 238Q202 196 212 161T237 99T271 58T313 43Q355 43 376 86T397 198Q397 253 388 298T362 376T325 427T279 445Q237 445 216 402T195 290Q195 265 198 238ZM296 -18Q229 -18 179 2T94 58T43 139T26
237Q26 294 46 343T103 429T188 486T296 507Q357 507 406 489T491 437T546 358T566 254Q566 197 546 147T489 61T404 3T296 -18Z" />
<glyph unicode="p" glyph-name="p" horiz-adv-x="626" d="M18 -189L85 -175V395L17 409V455L209 510H214L235 422H238Q248 435 262 449T295 476T339 497T395 505Q431 505 468 492T534 451T581 380T600 276Q600 213 577 160T515 67T421 7T305 -15Q288 -15 273 -13T245
-6V-174L360 -189V-240H18V-189ZM305 410Q286 410 271 405T245 393V82Q255 69 274 57T327 44Q350 44 370 55T407 89T432 145T441 223Q441 309 406 359T305 410Z" />
<glyph unicode="q" glyph-name="q" horiz-adv-x="624" d="M272 -190L385 -174V49Q360 23 327 4T240 -15Q196 -15 158 2T92 51T47 130T30 233Q30 298 55 349T121 435T213 488T317 507Q357 507 387 496T451 464L540 509H545V-174L615 -189V-240H272V-190ZM331 81Q348
81 361 85T385 95V390Q370 412 348 426T296 441Q253 441 225 403T196 287Q196 187 234 134T331 81Z" />
<glyph unicode="r" glyph-name="r" horiz-adv-x="449" d="M20 51L88 65V395L20 408V455L206 509H212L241 405H243L256 425Q265 440 276 455T301 482T332 501T369 509Q407 509 427 487T447 432Q447 413 439 396T421 366T403 346T393 337L275 393L247 376V65L341
51V0H20V51Z" />
<glyph unicode="s" glyph-name="s" horiz-adv-x="487" d="M230 -19Q203 -19 181 -17T137 -9T95 3T48 21L31 186H78L136 72Q153 57 173 48T224 38Q257 38 277 55T298 98Q298 123 279 142T216 181L155 208Q97 234 74 267T50 349Q50 382 65 411T109 462T175 496T258
509Q306 509 344 500T421 473L425 326H380L338 423Q327 431 309 440T263 450Q233 450 215 435T196 393Q196 373 209 357T266 322L326 297Q362 282 386 267T424 234T445 197T451 151Q451 116 435 85T389 31T319 -5T230 -19Z" />
<glyph unicode="t" glyph-name="t" horiz-adv-x="370" d="M191 -14Q122 -14 95 19T69 113L74 429H4V480L75 503L182 641H229V490H352V423H231V152Q231 128 238 114T256 92T280 82T308 79Q318 79 326 79T342 80Q350 81 356 82L367 32Q342 19 314 9Q290 0 258 -7T191 -14Z" />
<glyph unicode="u" glyph-name="u" horiz-adv-x="649" d="M412 74Q403 62 389 47T353 18T305 -5T243 -15Q215 -15 187 -7T135 19T97 68T82 145V416L14 430V478L242 504V190Q244 142 261 112T324 82Q354 82 373 92T403 111V416L328 429V478L563 503V83L633 68V18L456
-17L412 74Z" />
<glyph unicode="v" glyph-name="v" horiz-adv-x="576" d="M219 -10L54 426L3 437V490H294V436L223 426L318 148Q319 146 319 143T321 137Q322 133 322 131H324Q325 133 326 137Q327 139 327 142T329 148L430 417L363 436V490H572V436L518 426L345 -10H219Z" />
<glyph unicode="w" glyph-name="w" horiz-adv-x="867" d="M627 163Q629 158 629 154T631 145Q632 141 633 136H635Q635 141 637 145Q638 149 639 153T643 163L720 412L648 436V490H864V436L810 426L661 -9H542L447 250Q444 257 443 262T439 272Q437 276 437 281H435Q434
276 432 272Q430 267 428 262T424 250L321 -9H193L53 426L4 437V490H299V436L223 426L291 163Q293 157 293 151T296 140Q297 134 299 128H301Q303 134 305 140Q307 145 308 151T312 163L435 492H518L627 163Z" />
<glyph unicode="x" glyph-name="x" horiz-adv-x="593" d="M284 0V51L337 62L253 191H252L176 65L222 51V0H17V51L75 62L214 246L83 429L36 437V490H318V437L271 430L347 311H348L418 426L371 437V490H566V440L512 426L386 257L522 63L581 51V0H284Z" />
<glyph unicode="y" glyph-name="y" horiz-adv-x="559" d="M363 437V490H554V436L512 426L302 -102Q284 -148 269 -178T236 -227T200 -254T153 -262Q115 -262 87 -239T59 -177Q59 -140 81 -120T135 -100Q162 -100 179 -116T210 -155H214L253 -65L48 426L5 437V490H288V436L222
426L325 128H330L432 419L363 437Z" />
<glyph unicode="z" glyph-name="z" horiz-adv-x="539" d="M30 0V51L298 431H153L88 312H45L55 498L158 490H504V466L214 61H381L452 187H498L476 -4L381 0H30Z" />
<glyph unicode="{" glyph-name="braceleft" horiz-adv-x="350" d="M153 275Q201 267 227 239T256 160L261 -16Q262 -53 267 -75T282 -110T310 -127T356 -132V-181H341Q235 -181 189 -136T143 -6V168Q143 207 130 222T91 239L53 240V312L91 313Q117 314 130 329T143
384V558Q142 643 188 688T341 733H356V684Q328 684 311 680T283 663T267 628T261 568L256 392Q254 342 228 314T153 277V275Z" />
<glyph unicode="|" glyph-name="bar" horiz-adv-x="241" d="M87 -200V734H155V-200H87Z" />
<glyph unicode="}" glyph-name="braceright" horiz-adv-x="350" d="M198 277Q150 285 124 313T95 392L90 568Q88 605 84 627T69 662T41 679T-5 684V733H10Q116 733 162 688T208 558V384Q208 345 221 330T260 313L298 312V240L260 239Q234 238 221 223T208 168V-6Q209
-91 163 -136T10 -181H-5V-132Q23 -132 40 -128T68 -111T83 -76T90 -16L95 160Q97 210 123 238T198 275V277Z" />
<glyph unicode="~" glyph-name="asciitilde" horiz-adv-x="497" d="M30 212L36 226Q56 273 77 300T123 338T176 347T239 332L275 320Q311 308 335 302T376 299T404 315T426 356L468 335L462 319Q443 268 422 241T374 203T317 196T246 213L212 224Q178 235 156
240T119 243T93 228T73 192L30 212Z" />
<glyph unicode="&#xa1;" glyph-name="exclamdown" horiz-adv-x="308" d="M65 -130L126 355H184L243 -130H65ZM155 578Q171 578 185 572T211 554T228 529T235 499Q235 482 229 468T211 443T186 426T155 419Q122 419 99 442T75 499Q75 515 81 529T98 554T123 571T155 578Z" />
<glyph unicode="&#xa2;" glyph-name="cent" horiz-adv-x="600" d="M273 -11Q228 -4 192 17T131 69T92 140T78 227Q78 290 99 340T157 426T240 483T338 508L353 621H402L388 507Q420 504 445 493T489 465T516 430T526 391Q526 359 508 342T463 325Q454 325 447
325T434 327Q428 328 422 330L411 443Q406 445 399 448T381 453L335 87Q352 83 375 83Q403 83 427 92T470 113Q491 126 509 144L531 117Q513 91 493 68T448 26T392 -4T322 -15L308 -125H259L273 -11ZM218 274Q218 207 237 167T288 106L332 455Q308 451 288 436T252
397T227 342T218 274Z" />
<glyph unicode="&#xa3;" glyph-name="sterling" horiz-adv-x="600" d="M82 324H199L215 439Q227 524 260 582T335 676T422 727T503 743Q526 743 548 734T588 710T617 674T628 629Q628 600 606 584T533 562Q522 614 502 647T455 681Q432 681 416 648T389 537L359
324H546V261H348Q329 183 290 131T206 45Q232 31 255 17T295 -9L335 -36Q394 -75 428 -98T487 -122Q501 -122 508 -110T517 -78T520 -35T518 11Q563 12 591 -3T619 -47Q619 -70 603 -97T558 -146T491 -184T407 -199Q384 -199 359 -193T306 -170T247 -128T180 -64L122
-1Q96 -11 76 -15T41 -20Q7 -20 -10 -2T-28 40Q-28 73 -6 89T46 106Q65 106 91 98T146 75Q172 128 186 224L191 261H81L82 324Z" />
<glyph unicode="&#xa5;" glyph-name="yen" horiz-adv-x="600" d="M59 326H207L59 600L7 612V664H311V613L255 598L348 385H350L448 593L390 613V664H593V613L528 594L386 326H541V272H382V203H541V149H382V66L478 52V0H121V52L218 66V149H59V203H218V272H59V326Z" />
<glyph unicode="&#xa6;" glyph-name="brokenbar" horiz-adv-x="241" d="M87 313V734H155V313H87ZM87 -200V219H155V-200H87Z" />
<glyph unicode="&#xa7;" glyph-name="section" horiz-adv-x="602" d="M312 -109Q312 -86 308 -66T292 -24T261 23T214 82L139 168Q104 209 79 258T54 360Q54 404 73 444T125 518T197 579T281 625T365 655T439 666Q485 666 511 644T538 593Q538 569 522 550T478
531L373 591Q352 588 330 583T287 570V557Q287 537 291 517T307 474T337 425T385 366L461 280Q496 239 520 190T545 88Q545 44 526 5T475 -69T402 -130T319 -177T235 -207T160 -218Q114 -218 88 -196T62 -145Q62 -121 77 -102T122 -83L226 -142Q246 -139 268 -135T311
-122Q312 -117 312 -114T312 -109ZM152 400Q152 356 173 317T236 231L306 152Q341 111 362 75T384 0Q384 -28 376 -51T357 -95H367Q402 -72 424 -38T447 48Q447 93 427 132T364 218L294 296Q258 337 237 372T215 448Q215 475 223 498T243 543H231Q196 520 174 486T152
400Z" />
<glyph unicode="&#xa8;" glyph-name="dieresis" horiz-adv-x="400" d="M87 588Q56 588 35 610T13 663Q13 694 34 716T87 739Q119 739 140 717T162 663Q162 632 141 610T87 588ZM312 588Q280 588 259 610T237 663Q237 694 258 716T312 739Q343 739 365 717T387
663Q387 632 365 610T312 588Z" />
<glyph unicode="&#xa9;" glyph-name="copyright" horiz-adv-x="811" d="M60 327Q60 399 87 462T161 571T270 645T405 672Q477 672 540 645T650 572T724 462T751 327Q751 255 724 192T650 83T540 9T405 -18Q333 -18 271 9T161 82T87 192T60 327ZM101 327Q101 263
125 207T190 110T286 44T405 20Q468 20 523 44T620 109T685 207T709 327Q709 391 685 447T620 544T524 610T405 634Q342 634 287 610T190 545T125 447T101 327ZM433 133Q374 133 333 149T265 191T227 253T215 326Q215 366 232 402T281 465T353 508T442 524Q476
524 504 517T553 504L558 392H527L487 464Q475 472 462 476T431 481Q391 481 363 447T335 344Q335 308 343 277T367 224T405 190T455 177Q474 177 487 181L535 268H568L554 153Q519 144 490 139T433 133Z" />
<glyph unicode="&#xaa;" glyph-name="ordfeminine" horiz-adv-x="455" d="M147 245Q100 245 68 274T36 352Q36 377 45 395T70 426T108 447T158 463L255 486V513Q255 532 252 549T241 579T221 599T190 607Q180 607 168 605T151 600L152 516Q143 511 131 507T100
502Q78 502 65 513T52 548Q52 566 66 585T106 620T165 646T237 656Q278 656 305 647T349 620T373 575T380 512V337Q380 316 387 312T411 307H439V275Q423 266 405 260Q390 255 371 251T335 246Q296 246 281 265T259 316H255Q246 303 237 291T214 268T185 252T147
245ZM211 320Q227 320 238 326T255 339V448L222 440Q184 430 171 414T158 378Q158 350 174 335T211 320Z" />
<glyph unicode="&#xab;" glyph-name="guillemotleft" horiz-adv-x="698" d="M331 445L172 247L331 42L293 9L45 225V259L293 477L331 445ZM608 445L449 247L608 42L570 9L322 225V259L570 477L608 445Z" />
<glyph unicode="&#xac;" glyph-name="logicalnot" horiz-adv-x="558" d="M516 266V60H454V208H42V266H516Z" />
<glyph unicode="&#xae;" glyph-name="registered" horiz-adv-x="483" d="M14 534Q14 581 32 622T81 693T154 740T243 757Q290 757 331 740T403 693T451 622T469 534Q469 487 451 447T402 376T328 329T239 311Q192 311 151 328T80 375T32 446T14 534ZM53 534Q53
494 67 460T107 400T166 360T240 345Q280 345 315 359T375 399T415 459T430 534Q430 574 416 608T376 668T315 708T240 723Q200 723 166 709T107 669T68 609T53 534ZM118 449L147 455V626L121 631V657L235 659Q295 659 322 641T349 594Q349 580 343 569T328 551T309
538T292 530V528L351 455L376 449V425H289L258 468Q250 478 244 485T234 498Q229 504 226 509H216V453L237 449V425H118V449ZM216 536H251Q261 542 269 552T277 582Q277 602 263 616T216 632V536Z" />
<glyph unicode="&#xaf;" glyph-name="macron" horiz-adv-x="400" d="M55 694H345V614H55V694Z" />
<glyph unicode="&#xb0;" glyph-name="degree" horiz-adv-x="306" d="M4 603Q4 634 16 661T48 708T95 739T154 750Q185 750 211 739T258 708T289 661T301 603Q301 571 290 544T258 497T211 466T153 455Q122 455 95 466T48 497T16 544T4 603ZM64 603Q64 583 70 566T89
536T117 516T153 508Q172 508 188 515T217 535T236 565T243 603Q243 623 236 640T217 670T189 690T153 698Q134 698 118 691T89 671T71 641T64 603Z" />
<glyph unicode="&#xb1;" glyph-name="plusminus" horiz-adv-x="600" d="M336 419V216H266V419H64V486H266V690H336V486H538V419H336ZM64 0V67H538V0H64Z" />
<glyph unicode="&#xb4;" glyph-name="acute" horiz-adv-x="400" d="M286 769V751L173 572H112L161 769H286Z" />
<glyph unicode="&#xb6;" glyph-name="paragraph" horiz-adv-x="591" d="M254 -203Q216 -203 184 -192T128 -162T91 -117T77 -58Q77 -20 99 1T154 23Q183 23 202 3T221 -49L190 -116V-126Q198 -135 217 -143T263 -152Q321 -152 354 -112T387 10V607H303V191H261Q212
191 169 209T94 260T44 335T25 427Q25 476 43 519T94 594T169 645T261 664H564V612L482 597V37Q482 -31 462 -76T409 -150T335 -191T254 -203Z" />
<glyph unicode="&#xb7;" glyph-name="periodcentered" horiz-adv-x="307" d="M153 185Q135 185 120 192T92 211T73 238T66 271Q66 289 73 305T92 333T119 352T153 359Q171 359 187 352T215 333T234 305T241 271Q241 254 234 239T215 211T187 192T153 185Z" />
<glyph unicode="&#xb8;" glyph-name="cedilla" horiz-adv-x="400" d="M103 -229Q118 -224 134 -217T162 -201T183 -180T192 -151Q192 -128 179 -115T154 -93L217 4H268L238 -53Q267 -61 288 -81T310 -133Q310 -166 292 -189T245 -228T182 -253T114 -268L103 -229Z" />
<glyph unicode="&#xba;" glyph-name="ordmasculine" horiz-adv-x="472" d="M160 488Q160 469 164 436T177 370T204 313T249 289Q280 289 295 320T311 405Q311 448 305 485T286 549T258 591T222 606Q191 606 176 574T160 488ZM236 240Q184 240 145 256T80 300T40
364T27 442Q27 487 43 526T86 595T152 640T236 657Q284 657 322 642T388 601T430 537T445 455Q445 410 430 371T386 302T320 257T236 240Z" />
<glyph unicode="&#xbb;" glyph-name="guillemotright" horiz-adv-x="698" d="M90 42L248 239L90 444L128 477L377 261V227L128 9L90 42ZM367 42L525 239L367 444L405 477L654 261V227L405 9L367 42Z" />
<glyph unicode="&#xbc;" glyph-name="onequarter" horiz-adv-x="970" d="M523 323L614 314V268H286V314L387 324V568H285L281 614L516 670H523V323ZM541 136L783 409L864 393V157H949V84H864V0H739V84H541V136ZM739 157V287L622 157H739ZM205 -52L744 726L794
695L255 -83L205 -52Z" />
<glyph unicode="&#xbd;" glyph-name="onehalf" horiz-adv-x="984" d="M590 39L686 119Q717 145 738 165T772 202T791 232T797 257Q798 283 780 302T727 321Q698 321 675 306T628 267L598 299Q617 323 636 343T677 377T725 400T784 408Q847 408 886 378T925 291Q925
267 915 247T885 208T837 167T772 121L736 96H943V0H590V39ZM523 323L614 314V268H286V314L387 324V568H285L281 614L516 670H523V323ZM196 -52L735 726L785 695L246 -83L196 -52Z" />
<glyph unicode="&#xbe;" glyph-name="threequarters" horiz-adv-x="974" d="M169 250Q100 250 64 274T27 336Q27 356 43 373T96 394L137 313Q147 306 159 304T188 301Q217 301 239 317T261 365Q261 395 232 414T145 436V480L162 485Q205 498 222 515T240 556Q240
574 227 586T185 599Q168 599 154 596T128 587T104 571T77 548L45 578Q84 628 127 652T232 676Q296 676 333 653T371 587Q371 553 343 532T274 497V493Q333 485 366 461T400 396Q400 361 382 334T332 289T258 260T169 250ZM546 136L788 409L869 393V157H954V84H869V0H744V84H546V136ZM744
157V287L627 157H744ZM215 -52L754 726L804 695L265 -83L215 -52Z" />
<glyph unicode="&#xbf;" glyph-name="questiondown" horiz-adv-x="406" d="M337 -153L278 -143Q222 -134 174 -111T90 -54T34 22T13 111Q13 174 38 212T136 268L240 292V354H296L325 178L150 139Q103 128 88 115T73 86Q73 52 129 37T297 13L337 10V-153ZM267 577Q283
577 297 571T323 553T340 528T347 498Q347 482 341 468T323 442T298 425T267 418Q250 418 236 424T210 442T193 467T187 498Q187 530 210 553T267 577Z" />
<glyph unicode="&#xc0;" glyph-name="Agrave" horiz-adv-x="772" d="M358 875L428 736H349L222 853V875H358ZM6 49L72 70L306 657L374 661L447 681L691 64L766 51V0H420V53L505 66L454 206H210L165 79L269 53V0H6V49ZM237 280H428L333 545H332L237 280Z" />
<glyph unicode="&#xc1;" glyph-name="Aacute" horiz-adv-x="772" d="M6 49L72 70L306 657L374 661L447 681L691 64L766 51V0H420V53L505 66L454 206H210L165 79L269 53V0H6V49ZM237 280H428L333 545H332L237 280ZM545 875V853L418 736H339L409 875H545Z" />
<glyph unicode="&#xc2;" glyph-name="Acircumflex" horiz-adv-x="772" d="M229 736L333 874H438L545 736H473L384 797L296 736H229ZM6 49L72 70L306 657L374 661L447 681L691 64L766 51V0H420V53L505 66L454 206H210L165 79L269 53V0H6V49ZM237 280H428L333 545H332L237
280Z" />
<glyph unicode="&#xc3;" glyph-name="Atilde" horiz-adv-x="772" d="M358 764Q320 776 299 779T266 778T246 763T230 735L193 749L196 762Q208 808 225 832T265 865T315 871T375 859L406 850Q445 838 468 835T504 835T524 851T541 882L580 871L576 854Q564 808
546 783T505 748T452 741T387 755L358 764ZM6 49L72 70L306 657L374 661L447 681L691 64L766 51V0H420V53L505 66L454 206H210L165 79L269 53V0H6V49ZM237 280H428L333 545H332L237 280Z" />
<glyph unicode="&#xc4;" glyph-name="Adieresis" horiz-adv-x="772" d="M6 49L72 70L306 657L374 661L447 681L691 64L766 51V0H420V53L505 66L454 206H210L165 79L269 53V0H6V49ZM237 280H428L333 545H332L237 280ZM262 724Q231 724 209 746T187 799Q187 830
209 852T262 875Q292 875 314 853T337 799Q337 768 315 746T262 724ZM507 724Q477 724 455 746T432 799Q432 830 454 852T507 875Q538 875 560 853T583 799Q583 768 561 746T507 724Z" />
<glyph unicode="&#xc5;" glyph-name="Aring" horiz-adv-x="772" d="M6 49L72 70L306 657L374 661L447 681L691 64L766 51V0H420V53L505 66L454 206H210L165 79L269 53V0H6V49ZM237 280H428L333 545H332L237 280ZM265 828Q265 853 274 874T300 911T338 936T385
945Q410 945 432 936T470 912T496 875T505 828Q505 803 496 782T470 744T432 719T385 710Q359 710 338 719T300 743T274 780T265 828ZM322 828Q322 799 340 781T385 762Q411 762 429 780T448 828Q448 857 430 875T385 893Q359 893 341 875T322 828Z" />
<glyph unicode="&#xc6;" glyph-name="AE" horiz-adv-x="1051" d="M654 290V65H877L965 210H1015L980 0H399V52L485 66V290H283L174 80L278 53V0H6V49L73 71L371 589L260 612V664H881L979 671V477H930L878 605H654V348H772L799 433H844V211H796L772 290H654ZM463
605L314 348H485V605H463Z" />
<glyph unicode="&#xc7;" glyph-name="Ccedilla" horiz-adv-x="725" d="M262 -239Q277 -234 293 -227T321 -211T342 -190T351 -161Q351 -138 338 -125T313 -103L368 -18Q280 -13 218 16T115 89T57 189T38 301Q38 385 70 455T158 576T290 655T453 684Q518 684 569
668T662 630L668 450H617L552 592Q535 603 510 612T451 621Q406 621 366 604T296 552T247 469T229 355Q229 281 247 224T296 128T370 69T461 49Q493 49 518 56T560 73L643 227H695L670 40Q613 14 553 -1T420 -19L397 -63Q426 -71 448 -91T470 -143Q470 -176 452
-199T404 -238T341 -263T273 -278L262 -239Z" />
<glyph unicode="&#xc8;" glyph-name="Egrave" horiz-adv-x="693" d="M296 309V65H519L607 210H657L622 0H35V52L122 66V597L40 612V664H524L622 671V477H572L520 605H296V368H415L441 452H487V231H439L415 309H296ZM338 875L408 736H329L202 853V875H338Z" />
<glyph unicode="&#xc9;" glyph-name="Eacute" horiz-adv-x="693" d="M296 309V65H519L607 210H657L622 0H35V52L122 66V597L40 612V664H524L622 671V477H572L520 605H296V368H415L441 452H487V231H439L415 309H296ZM524 875V853L397 736H318L388 875H524Z" />
<glyph unicode="&#xca;" glyph-name="Ecircumflex" horiz-adv-x="693" d="M209 736L313 874H418L525 736H453L364 797L276 736H209ZM296 309V65H519L607 210H657L622 0H35V52L122 66V597L40 612V664H524L622 671V477H572L520 605H296V368H415L441 452H487V231H439L415
309H296Z" />
<glyph unicode="&#xcb;" glyph-name="Edieresis" horiz-adv-x="693" d="M237 724Q206 724 184 746T162 799Q162 830 184 852T237 875Q267 875 289 853T312 799Q312 768 290 746T237 724ZM482 724Q452 724 430 746T407 799Q407 830 429 852T482 875Q513 875 535
853T558 799Q558 768 536 746T482 724ZM296 309V65H519L607 210H657L622 0H35V52L122 66V597L40 612V664H524L622 671V477H572L520 605H296V368H415L441 452H487V231H439L415 309H296Z" />
<glyph unicode="&#xcc;" glyph-name="Igrave" horiz-adv-x="408" d="M433 875L503 736H424L297 853V875H433ZM31 52L118 66V597L35 612V664H374V612L291 597V66L378 52V0H31V52Z" />
<glyph unicode="&#xcd;" glyph-name="Iacute" horiz-adv-x="408" d="M364 875V853L237 736H158L228 875H364ZM31 52L118 66V597L35 612V664H374V612L291 597V66L378 52V0H31V52Z" />
<glyph unicode="&#xce;" glyph-name="Icircumflex" horiz-adv-x="408" d="M48 736L152 874H257L364 736H292L203 797L115 736H48ZM31 52L118 66V597L35 612V664H374V612L291 597V66L378 52V0H31V52Z" />
<glyph unicode="&#xcf;" glyph-name="Idieresis" horiz-adv-x="408" d="M31 52L118 66V597L35 612V664H374V612L291 597V66L378 52V0H31V52ZM81 724Q50 724 28 746T6 799Q6 830 28 852T81 875Q111 875 133 853T156 799Q156 768 134 746T81 724ZM326 724Q296 724
274 746T251 799Q251 830 273 852T326 875Q357 875 379 853T402 799Q402 768 380 746T326 724Z" />
<glyph unicode="&#xd0;" glyph-name="Eth" horiz-adv-x="808" d="M31 52L118 66V306H23V368H118V597L35 612V664L386 669Q475 670 546 647T668 582T745 482T772 357Q772 269 739 201T648 87T510 18T337 -4L31 0V52ZM289 306V94Q300 47 382 49Q429 50 466 72T528
131T567 216T580 317Q580 404 556 462T492 555T400 603T289 612V368H422V306H289Z" />
<glyph unicode="&#xd1;" glyph-name="Ntilde" horiz-adv-x="823" d="M602 -2L194 485L199 79L333 49V0H33V52L119 71L120 582L30 613V664H269L640 220L637 583L503 615V664H798V612L716 590V83L719 -2H602ZM389 764Q351 776 330 779T297 778T277 763T261 735L224
749L227 762Q239 808 256 832T296 865T346 871T406 859L437 850Q476 838 499 835T535 835T555 851T572 882L611 871L607 854Q595 808 577 783T536 748T483 741T418 755L389 764Z" />
<glyph unicode="&#xd2;" glyph-name="Ograve" horiz-adv-x="788" d="M405 43Q441 43 469 62T518 117T550 203T561 314Q561 376 549 431T513 529T456 596T381 621Q345 621 317 602T268 547T238 463T227 352Q227 286 240 229T277 131T333 67T405 43ZM395 684Q474
684 539 660T651 590T723 482T749 342Q749 259 720 192T642 78T528 4T390 -22Q314 -22 250 2T139 70T66 178T39 321Q39 405 67 472T144 586T258 659T395 684ZM367 875L437 736H358L231 853V875H367Z" />
<glyph unicode="&#xd3;" glyph-name="Oacute" horiz-adv-x="788" d="M553 875V853L426 736H347L417 875H553ZM405 43Q441 43 469 62T518 117T550 203T561 314Q561 376 549 431T513 529T456 596T381 621Q345 621 317 602T268 547T238 463T227 352Q227 286 240 229T277
131T333 67T405 43ZM395 684Q474 684 539 660T651 590T723 482T749 342Q749 259 720 192T642 78T528 4T390 -22Q314 -22 250 2T139 70T66 178T39 321Q39 405 67 472T144 586T258 659T395 684Z" />
<glyph unicode="&#xd4;" glyph-name="Ocircumflex" horiz-adv-x="788" d="M405 43Q441 43 469 62T518 117T550 203T561 314Q561 376 549 431T513 529T456 596T381 621Q345 621 317 602T268 547T238 463T227 352Q227 286 240 229T277 131T333 67T405 43ZM395 684Q474
684 539 660T651 590T723 482T749 342Q749 259 720 192T642 78T528 4T390 -22Q314 -22 250 2T139 70T66 178T39 321Q39 405 67 472T144 586T258 659T395 684ZM238 736L342 874H447L554 736H482L393 797L305 736H238Z" />
<glyph unicode="&#xd5;" glyph-name="Otilde" horiz-adv-x="788" d="M366 764Q328 776 307 779T274 778T254 763T238 735L201 749L204 762Q216 808 233 832T273 865T323 871T383 859L414 850Q453 838 476 835T512 835T532 851T549 882L588 871L584 854Q572 808
554 783T513 748T460 741T395 755L366 764ZM405 43Q441 43 469 62T518 117T550 203T561 314Q561 376 549 431T513 529T456 596T381 621Q345 621 317 602T268 547T238 463T227 352Q227 286 240 229T277 131T333 67T405 43ZM395 684Q474 684 539 660T651 590T723
482T749 342Q749 259 720 192T642 78T528 4T390 -22Q314 -22 250 2T139 70T66 178T39 321Q39 405 67 472T144 586T258 659T395 684Z" />
<glyph unicode="&#xd6;" glyph-name="Odieresis" horiz-adv-x="788" d="M405 43Q441 43 469 62T518 117T550 203T561 314Q561 376 549 431T513 529T456 596T381 621Q345 621 317 602T268 547T238 463T227 352Q227 286 240 229T277 131T333 67T405 43ZM395 684Q474
684 539 660T651 590T723 482T749 342Q749 259 720 192T642 78T528 4T390 -22Q314 -22 250 2T139 70T66 178T39 321Q39 405 67 472T144 586T258 659T395 684ZM271 724Q240 724 218 746T196 799Q196 830 218 852T271 875Q301 875 323 853T346 799Q346 768 324 746T271
724ZM516 724Q486 724 464 746T441 799Q441 830 463 852T516 875Q547 875 569 853T592 799Q592 768 570 746T516 724Z" />
<glyph unicode="&#xd7;" glyph-name="multiply" horiz-adv-x="600" d="M295 259L119 79L73 126L253 307L73 487L121 536L300 355L481 541L526 494L346 311L527 129L476 78L295 259Z" />
<glyph unicode="&#xd8;" glyph-name="Oslash" horiz-adv-x="788" d="M129 84Q87 128 64 187T40 321Q40 403 68 470T146 585T259 658T395 684Q458 684 512 667T612 618L677 690H747L652 584Q697 539 722 478T748 342Q748 257 720 190T642 75T528 3T390 -22Q327
-22 271 -4T168 49L95 -32H24L129 84ZM568 319Q568 361 563 398T547 468L258 149Q281 99 318 69T408 39Q448 39 478 59T528 117T558 206T568 319ZM384 622Q346 622 316 602T265 545T233 454T222 333Q222 263 238 205L525 522Q499 570 463 596T384 622Z" />
<glyph unicode="&#xd9;" glyph-name="Ugrave" horiz-adv-x="776" d="M388 875L458 736H379L252 853V875H388ZM395 -21Q240 -21 170 49T99 266V597L16 612V664H352V612L272 597V258Q272 169 310 117T429 64Q599 64 597 275L594 585L470 615V664H761V612L679 591V287Q679
218 662 161T610 64T522 1T395 -21Z" />
<glyph unicode="&#xda;" glyph-name="Uacute" horiz-adv-x="776" d="M395 -21Q240 -21 170 49T99 266V597L16 612V664H352V612L272 597V258Q272 169 310 117T429 64Q599 64 597 275L594 585L470 615V664H761V612L679 591V287Q679 218 662 161T610 64T522 1T395
-21ZM575 875V853L448 736H369L439 875H575Z" />
<glyph unicode="&#xdb;" glyph-name="Ucircumflex" horiz-adv-x="776" d="M259 736L363 874H468L575 736H503L414 797L326 736H259ZM395 -21Q240 -21 170 49T99 266V597L16 612V664H352V612L272 597V258Q272 169 310 117T429 64Q599 64 597 275L594 585L470 615V664H761V612L679
591V287Q679 218 662 161T610 64T522 1T395 -21Z" />
<glyph unicode="&#xdc;" glyph-name="Udieresis" horiz-adv-x="776" d="M292 724Q261 724 239 746T217 799Q217 830 239 852T292 875Q322 875 344 853T367 799Q367 768 345 746T292 724ZM537 724Q507 724 485 746T462 799Q462 830 484 852T537 875Q568 875 590
853T613 799Q613 768 591 746T537 724ZM395 -21Q240 -21 170 49T99 266V597L16 612V664H352V612L272 597V258Q272 169 310 117T429 64Q599 64 597 275L594 585L470 615V664H761V612L679 591V287Q679 218 662 161T610 64T522 1T395 -21Z" />
<glyph unicode="&#xdd;" glyph-name="Yacute" horiz-adv-x="695" d="M435 280V66L527 52V0H169V52L261 66V246L70 600L6 612V664H353V613L270 598L396 327L533 593L445 613V664H689V613L613 594L435 280ZM556 875V853L429 736H350L420 875H556Z" />
<glyph unicode="&#xde;" glyph-name="Thorn" horiz-adv-x="673" d="M31 52L118 66V597L35 612V664H374V612L291 597V521H313Q480 521 565 474T651 338Q651 285 622 247T546 186T443 153T333 148V187Q361 192 387 202T434 228T466 269T479 325Q479 354 466 380T429
426T370 458T291 470V66L378 52V0H31V52Z" />
<glyph unicode="&#xdf;" glyph-name="germandbls" horiz-adv-x="695" d="M20 51L88 65V429H19V480L89 502Q109 617 189 681T398 746Q440 746 477 736T541 706T585 660T601 601Q601 575 592 556T569 520T537 491T501 466Q472 446 463 436T454 411Q454 395 467 381T517
343L563 315Q614 284 638 252T662 172Q662 133 645 99T596 38T523 -3T431 -19Q393 -19 364 -10T305 14L303 167H347L381 55Q388 51 402 44T442 36Q481 36 500 57T520 108Q520 137 505 155T461 192L401 229Q364 252 345 276T326 336Q326 353 333 369T350 401T373
428T395 450Q431 482 452 511T474 584Q474 611 465 630T441 663T407 682T369 689Q315 689 282 650T248 532L247 0H20V51Z" />
<glyph unicode="&#xe0;" glyph-name="agrave" horiz-adv-x="568" d="M181 -13Q151 -13 125 -4T80 23T49 66T37 122Q37 153 48 176T81 216T131 244T197 264L321 293V329Q321 354 316 376T301 414T275 439T236 448Q223 448 208 445T186 438L185 330Q174 325 156
321T115 316Q88 316 72 329T55 369Q55 392 75 416T128 460T206 493T299 506Q399 506 440 462T481 329V102Q481 76 489 71T520 65H559V25Q537 14 513 6Q493 -2 469 -7T423 -13Q398 -13 381 -6T353 13T336 41T326 77H322Q309 60 296 44T267 16T230 -5T181 -13ZM263
80Q284 80 298 89T321 108V244L274 231Q227 217 210 199T193 154Q193 119 214 100T263 80ZM140 751V769H264L314 572H253L140 751Z" />
<glyph unicode="&#xe1;" glyph-name="aacute" horiz-adv-x="568" d="M181 -13Q151 -13 125 -4T80 23T49 66T37 122Q37 153 48 176T81 216T131 244T197 264L321 293V329Q321 354 316 376T301 414T275 439T236 448Q223 448 208 445T186 438L185 330Q174 325 156
321T115 316Q88 316 72 329T55 369Q55 392 75 416T128 460T206 493T299 506Q399 506 440 462T481 329V102Q481 76 489 71T520 65H559V25Q537 14 513 6Q493 -2 469 -7T423 -13Q398 -13 381 -6T353 13T336 41T326 77H322Q309 60 296 44T267 16T230 -5T181 -13ZM263
80Q284 80 298 89T321 108V244L274 231Q227 217 210 199T193 154Q193 119 214 100T263 80ZM421 769V751L308 572H247L296 769H421Z" />
<glyph unicode="&#xe2;" glyph-name="acircumflex" horiz-adv-x="568" d="M181 -13Q151 -13 125 -4T80 23T49 66T37 122Q37 153 48 176T81 216T131 244T197 264L321 293V329Q321 354 316 376T301 414T275 439T236 448Q223 448 208 445T186 438L185 330Q174 325
156 321T115 316Q88 316 72 329T55 369Q55 392 75 416T128 460T206 493T299 506Q399 506 440 462T481 329V102Q481 76 489 71T520 65H559V25Q537 14 513 6Q493 -2 469 -7T423 -13Q398 -13 381 -6T353 13T336 41T326 77H322Q309 60 296 44T267 16T230 -5T181 -13ZM263
80Q284 80 298 89T321 108V244L274 231Q227 217 210 199T193 154Q193 119 214 100T263 80ZM143 572L241 769H330L428 572H363L281 666L201 572H143Z" />
<glyph unicode="&#xe3;" glyph-name="atilde" horiz-adv-x="568" d="M181 -13Q151 -13 125 -4T80 23T49 66T37 122Q37 153 48 176T81 216T131 244T197 264L321 293V329Q321 354 316 376T301 414T275 439T236 448Q223 448 208 445T186 438L185 330Q174 325 156
321T115 316Q88 316 72 329T55 369Q55 392 75 416T128 460T206 493T299 506Q399 506 440 462T481 329V102Q481 76 489 71T520 65H559V25Q537 14 513 6Q493 -2 469 -7T423 -13Q398 -13 381 -6T353 13T336 41T326 77H322Q309 60 296 44T267 16T230 -5T181 -13ZM263
80Q284 80 298 89T321 108V244L274 231Q227 217 210 199T193 154Q193 119 214 100T263 80ZM254 608Q223 617 203 623T168 628T145 615T126 581L89 600L94 613Q111 657 129 681T168 716T214 724T271 711L302 701Q334 691 355 686T392 682T417 696T438 734L475 715L470
700Q454 653 436 627T395 592T345 585T283 599L254 608Z" />
<glyph unicode="&#xe4;" glyph-name="adieresis" horiz-adv-x="568" d="M181 -13Q151 -13 125 -4T80 23T49 66T37 122Q37 153 48 176T81 216T131 244T197 264L321 293V329Q321 354 316 376T301 414T275 439T236 448Q223 448 208 445T186 438L185 330Q174 325 156
321T115 316Q88 316 72 329T55 369Q55 392 75 416T128 460T206 493T299 506Q399 506 440 462T481 329V102Q481 76 489 71T520 65H559V25Q537 14 513 6Q493 -2 469 -7T423 -13Q398 -13 381 -6T353 13T336 41T326 77H322Q309 60 296 44T267 16T230 -5T181 -13ZM263
80Q284 80 298 89T321 108V244L274 231Q227 217 210 199T193 154Q193 119 214 100T263 80ZM169 588Q138 588 117 610T95 663Q95 694 116 716T169 739Q201 739 222 717T244 663Q244 632 223 610T169 588ZM394 588Q362 588 341 610T319 663Q319 694 340 716T394 739Q425
739 447 717T469 663Q469 632 447 610T394 588Z" />
<glyph unicode="&#xe5;" glyph-name="aring" horiz-adv-x="568" d="M181 -13Q151 -13 125 -4T80 23T49 66T37 122Q37 153 48 176T81 216T131 244T197 264L321 293V329Q321 354 316 376T301 414T275 439T236 448Q223 448 208 445T186 438L185 330Q174 325 156 321T115
316Q88 316 72 329T55 369Q55 392 75 416T128 460T206 493T299 506Q399 506 440 462T481 329V102Q481 76 489 71T520 65H559V25Q537 14 513 6Q493 -2 469 -7T423 -13Q398 -13 381 -6T353 13T336 41T326 77H322Q309 60 296 44T267 16T230 -5T181 -13ZM263 80Q284
80 298 89T321 108V244L274 231Q227 217 210 199T193 154Q193 119 214 100T263 80ZM162 674Q162 699 171 720T197 757T235 782T282 791Q307 791 329 783T367 758T393 721T402 674Q402 649 393 628T367 591T329 566T282 557Q256 557 235 565T197 590T171 627T162
674ZM219 674Q219 645 237 627T282 609Q308 609 326 627T345 674Q345 703 327 721T282 739Q256 739 238 721T219 674Z" />
<glyph unicode="&#xe6;" glyph-name="ae" horiz-adv-x="818" d="M182 -13Q149 -13 122 -3T77 26T48 69T37 121Q37 152 48 175T80 215T130 243T197 263L322 291V327Q322 387 299 416T236 446Q218 446 205 442T186 436L185 330Q174 325 157 321T118 316Q91 316 73
329T55 371Q55 395 75 419T128 462T202 494T285 506Q348 506 382 488T436 437Q462 469 498 489T584 509Q634 509 670 491T729 443T764 375T778 298Q774 297 755 295T709 289T648 283T581 276T517 269T466 263V240Q480 171 523 134T632 97Q661 97 684 105T725 124Q744
135 759 151L783 124Q771 106 753 82T709 37T644 0T553 -15Q476 -15 429 16T357 91Q340 73 321 55T281 21T235 -3T182 -13ZM264 81Q293 81 311 95T341 126Q330 152 326 179T322 229V244L280 233Q238 222 216 205T193 154Q193 119 214 100T264 81ZM554 447Q538 447
523 438T495 411T475 368T466 310L627 329Q626 383 608 415T554 447Z" />
<glyph unicode="&#xe7;" glyph-name="ccedilla" horiz-adv-x="500" d="M126 -237Q141 -232 157 -225T185 -209T206 -188T215 -159Q215 -136 202 -123T177 -101L234 -13Q186 -8 149 12T85 64T44 137T30 227Q30 294 53 346T116 435T205 490T309 509Q347 509 377
499T427 471T458 432T469 387Q469 353 449 334T392 315Q382 315 374 315T360 317Q353 318 346 320L332 441Q331 441 319 445T290 449Q261 449 240 435T206 399T186 351T179 300Q179 250 192 213T227 150T279 113T342 101Q366 101 386 108T423 124Q441 135 456 148L479
121Q462 97 444 74T402 32T350 1T285 -14L261 -61Q290 -69 311 -89T333 -141Q333 -174 315 -197T268 -236T205 -261T137 -276L126 -237Z" />
<glyph unicode="&#xe8;" glyph-name="egrave" horiz-adv-x="547" d="M274 -15Q210 -15 164 6T88 62T44 140T30 227Q30 295 54 347T116 436T203 490T298 509Q353 509 392 490T457 437T495 358T509 261H175Q180 218 196 187T235 136T289 107T352 97Q382 97 407 105T450
124Q471 135 488 151L512 124Q498 106 479 82T432 37T366 0T274 -15ZM270 447Q233 447 206 414T173 320H351Q351 344 347 367T334 408T309 436T270 447ZM145 751V769H269L319 572H258L145 751Z" />
<glyph unicode="&#xe9;" glyph-name="eacute" horiz-adv-x="547" d="M274 -15Q210 -15 164 6T88 62T44 140T30 227Q30 295 54 347T116 436T203 490T298 509Q353 509 392 490T457 437T495 358T509 261H175Q180 218 196 187T235 136T289 107T352 97Q382 97 407 105T450
124Q471 135 488 151L512 124Q498 106 479 82T432 37T366 0T274 -15ZM270 447Q233 447 206 414T173 320H351Q351 344 347 367T334 408T309 436T270 447ZM426 769V751L313 572H252L301 769H426Z" />
<glyph unicode="&#xea;" glyph-name="ecircumflex" horiz-adv-x="547" d="M274 -15Q210 -15 164 6T88 62T44 140T30 227Q30 295 54 347T116 436T203 490T298 509Q353 509 392 490T457 437T495 358T509 261H175Q180 218 196 187T235 136T289 107T352 97Q382 97
407 105T450 124Q471 135 488 151L512 124Q498 106 479 82T432 37T366 0T274 -15ZM270 447Q233 447 206 414T173 320H351Q351 344 347 367T334 408T309 436T270 447ZM147 572L245 769H334L432 572H367L285 666L205 572H147Z" />
<glyph unicode="&#xeb;" glyph-name="edieresis" horiz-adv-x="547" d="M274 -15Q210 -15 164 6T88 62T44 140T30 227Q30 295 54 347T116 436T203 490T298 509Q353 509 392 490T457 437T495 358T509 261H175Q180 218 196 187T235 136T289 107T352 97Q382 97 407
105T450 124Q471 135 488 151L512 124Q498 106 479 82T432 37T366 0T274 -15ZM270 447Q233 447 206 414T173 320H351Q351 344 347 367T334 408T309 436T270 447ZM175 588Q144 588 123 610T101 663Q101 694 122 716T175 739Q207 739 228 717T250 663Q250 632 229
610T175 588ZM400 588Q368 588 347 610T325 663Q325 694 346 716T400 739Q431 739 453 717T475 663Q475 632 453 610T400 588Z" />
<glyph unicode="&#xec;" glyph-name="igrave" horiz-adv-x="332" d="M277 764V782H401L451 585H390L277 764ZM20 52L87 65V396L21 411V463L247 509V65L310 52V0H20V52Z" />
<glyph unicode="&#xed;" glyph-name="iacute" horiz-adv-x="332" d="M20 52L87 65V396L21 411V463L247 509V65L310 52V0H20V52ZM303 782V764L190 585H129L178 782H303Z" />
<glyph unicode="&#xee;" glyph-name="icircumflex" horiz-adv-x="332" d="M20 52L87 65V396L21 411V463L247 509V65L310 52V0H20V52ZM280 585L378 782H467L565 585H500L418 679L338 585H280Z" />
<glyph unicode="&#xef;" glyph-name="idieresis" horiz-adv-x="332" d="M66 590Q35 590 14 611T-7 663Q-7 693 14 715T66 737Q96 737 118 715T140 663Q140 633 118 612T66 590ZM261 590Q231 590 209 611T187 663Q187 693 209 715T261 737Q292 737 313 715T335
663Q335 633 314 612T261 590ZM20 52L87 65V396L21 411V463L247 509V65L310 52V0H20V52Z" />
<glyph unicode="&#xf0;" glyph-name="eth" horiz-adv-x="602" d="M76 581L201 638Q174 661 144 683T81 727L102 761Q210 724 290 679L436 746L457 701L341 648Q461 570 515 474T569 272Q569 200 548 146T489 56T403 1T299 -18Q234 -18 184 1T99 55T47 136T29 237Q29
300 52 348T112 428T194 477T282 494Q311 494 338 483Q318 516 294 545T241 603L97 537L76 581ZM405 227Q405 275 398 317T378 398Q375 402 367 410T348 426T323 441T293 447Q275 447 258 440T228 415T206 369T198 296Q198 242 207 196T231 116T269 63T317 43Q344
43 361 58T387 98T401 157T405 227Z" />
<glyph unicode="&#xf1;" glyph-name="ntilde" horiz-adv-x="655" d="M20 51L88 65V395L20 409V455L212 510H217L239 422H242Q252 434 268 449T305 477T352 500T409 509Q490 509 531 469T572 341V65L640 51V0H358V52L412 65V300Q411 355 389 383T318 410Q295 409
277 403T247 389V65L304 51V0H20V51ZM296 608Q265 617 245 623T210 628T187 615T168 581L131 600L136 613Q153 657 171 681T210 716T256 724T313 711L344 701Q376 691 397 686T434 682T459 696T480 734L517 715L512 700Q496 653 478 627T437 592T387 585T325 599L296
608Z" />
<glyph unicode="&#xf2;" glyph-name="ograve" horiz-adv-x="592" d="M198 238Q202 196 212 161T237 99T271 58T313 43Q355 43 376 86T397 198Q397 253 388 298T362 376T325 427T279 445Q237 445 216 402T195 290Q195 265 198 238ZM296 -18Q229 -18 179 2T94 58T43
139T26 237Q26 294 46 343T103 429T188 486T296 507Q357 507 406 489T491 437T546 358T566 254Q566 197 546 147T489 61T404 3T296 -18ZM153 751V769H277L327 572H266L153 751Z" />
<glyph unicode="&#xf3;" glyph-name="oacute" horiz-adv-x="592" d="M435 769V751L322 572H261L310 769H435ZM198 238Q202 196 212 161T237 99T271 58T313 43Q355 43 376 86T397 198Q397 253 388 298T362 376T325 427T279 445Q237 445 216 402T195 290Q195 265
198 238ZM296 -18Q229 -18 179 2T94 58T43 139T26 237Q26 294 46 343T103 429T188 486T296 507Q357 507 406 489T491 437T546 358T566 254Q566 197 546 147T489 61T404 3T296 -18Z" />
<glyph unicode="&#xf4;" glyph-name="ocircumflex" horiz-adv-x="592" d="M156 572L254 769H343L441 572H376L294 666L214 572H156ZM198 238Q202 196 212 161T237 99T271 58T313 43Q355 43 376 86T397 198Q397 253 388 298T362 376T325 427T279 445Q237 445 216
402T195 290Q195 265 198 238ZM296 -18Q229 -18 179 2T94 58T43 139T26 237Q26 294 46 343T103 429T188 486T296 507Q357 507 406 489T491 437T546 358T566 254Q566 197 546 147T489 61T404 3T296 -18Z" />
<glyph unicode="&#xf5;" glyph-name="otilde" horiz-adv-x="592" d="M198 238Q202 196 212 161T237 99T271 58T313 43Q355 43 376 86T397 198Q397 253 388 298T362 376T325 427T279 445Q237 445 216 402T195 290Q195 265 198 238ZM296 -18Q229 -18 179 2T94 58T43
139T26 237Q26 294 46 343T103 429T188 486T296 507Q357 507 406 489T491 437T546 358T566 254Q566 197 546 147T489 61T404 3T296 -18ZM270 608Q239 617 219 623T184 628T161 615T142 581L105 600L110 613Q127 657 145 681T184 716T230 724T287 711L318 701Q350
691 371 686T408 682T433 696T454 734L491 715L486 700Q470 653 452 627T411 592T361 585T299 599L270 608Z" />
<glyph unicode="&#xf6;" glyph-name="odieresis" horiz-adv-x="592" d="M198 238Q202 196 212 161T237 99T271 58T313 43Q355 43 376 86T397 198Q397 253 388 298T362 376T325 427T279 445Q237 445 216 402T195 290Q195 265 198 238ZM296 -18Q229 -18 179 2T94
58T43 139T26 237Q26 294 46 343T103 429T188 486T296 507Q357 507 406 489T491 437T546 358T566 254Q566 197 546 147T489 61T404 3T296 -18ZM183 588Q152 588 131 610T109 663Q109 694 130 716T183 739Q215 739 236 717T258 663Q258 632 237 610T183 588ZM408
588Q376 588 355 610T333 663Q333 694 354 716T408 739Q439 739 461 717T483 663Q483 632 461 610T408 588Z" />
<glyph unicode="&#xf7;" glyph-name="divide" horiz-adv-x="600" d="M63 275V339H537V275H63ZM299 63Q266 63 242 87T218 145Q218 161 224 175T242 201T267 218T299 225Q315 225 330 219T356 201T374 176T381 145Q381 111 357 87T299 63ZM300 388Q267 388 243
412T219 470Q219 486 225 500T243 526T268 543T300 550Q316 550 331 544T357 526T375 501T382 470Q382 436 358 412T300 388Z" />
<glyph unicode="&#xf8;" glyph-name="oslash" horiz-adv-x="592" d="M20 -42L100 52Q63 87 45 135T26 237Q26 294 46 343T103 429T188 486T296 507Q342 507 382 496T454 465L510 530H573L492 436Q527 402 546 356T566 254Q566 197 546 147T489 61T404 3T296 -18Q248
-18 209 -8T138 23L83 -42H20ZM188 269Q188 214 199 167L375 372Q359 407 336 426T282 446Q238 446 213 400T188 269ZM310 43Q338 43 355 60T383 102T398 158T402 216Q402 245 400 270T392 319L217 114Q232 81 255 62T310 43Z" />
<glyph unicode="&#xf9;" glyph-name="ugrave" horiz-adv-x="649" d="M412 74Q403 62 389 47T353 18T305 -5T243 -15Q215 -15 187 -7T135 19T97 68T82 145V416L14 430V478L242 504V190Q244 142 261 112T324 82Q354 82 373 92T403 111V416L328 429V478L563 503V83L633
68V18L456 -17L412 74ZM186 751V769H310L360 572H299L186 751Z" />
<glyph unicode="&#xfa;" glyph-name="uacute" horiz-adv-x="649" d="M412 74Q403 62 389 47T353 18T305 -5T243 -15Q215 -15 187 -7T135 19T97 68T82 145V416L14 430V478L242 504V190Q244 142 261 112T324 82Q354 82 373 92T403 111V416L328 429V478L563 503V83L633
68V18L456 -17L412 74ZM465 769V751L352 572H291L340 769H465Z" />
<glyph unicode="&#xfb;" glyph-name="ucircumflex" horiz-adv-x="649" d="M412 74Q403 62 389 47T353 18T305 -5T243 -15Q215 -15 187 -7T135 19T97 68T82 145V416L14 430V478L242 504V190Q244 142 261 112T324 82Q354 82 373 92T403 111V416L328 429V478L563
503V83L633 68V18L456 -17L412 74ZM185 572L283 769H372L470 572H405L323 666L243 572H185Z" />
<glyph unicode="&#xfc;" glyph-name="udieresis" horiz-adv-x="649" d="M412 74Q403 62 389 47T353 18T305 -5T243 -15Q215 -15 187 -7T135 19T97 68T82 145V416L14 430V478L242 504V190Q244 142 261 112T324 82Q354 82 373 92T403 111V416L328 429V478L563 503V83L633
68V18L456 -17L412 74ZM212 588Q181 588 160 610T138 663Q138 694 159 716T212 739Q244 739 265 717T287 663Q287 632 266 610T212 588ZM437 588Q405 588 384 610T362 663Q362 694 383 716T437 739Q468 739 490 717T512 663Q512 632 490 610T437 588Z" />
<glyph unicode="&#xfd;" glyph-name="yacute" horiz-adv-x="559" d="M363 437V490H554V436L512 426L302 -102Q284 -148 269 -178T236 -227T200 -254T153 -262Q115 -262 87 -239T59 -177Q59 -140 81 -120T135 -100Q162 -100 179 -116T210 -155H214L253 -65L48 426L5
437V490H288V436L222 426L325 128H330L432 419L363 437ZM465 769V751L352 572H291L340 769H465Z" />
<glyph unicode="&#xfe;" glyph-name="thorn" horiz-adv-x="609" d="M67 649L-3 666V715L227 746V430Q238 442 253 455T287 480T328 498T377 505Q413 505 450 492T516 451T563 380T582 276Q582 213 559 160T497 67T403 7T287 -15Q270 -15 255 -13T227 -6V-174L342
-189V-240H0V-189L67 -175V649ZM287 410Q268 410 253 405T227 393V84Q237 70 255 57T309 44Q332 44 352 55T389 89T414 145T423 223Q423 309 388 359T287 410Z" />
<glyph unicode="&#xff;" glyph-name="ydieresis" horiz-adv-x="559" d="M363 437V490H554V436L512 426L302 -102Q284 -148 269 -178T236 -227T200 -254T153 -262Q115 -262 87 -239T59 -177Q59 -140 81 -120T135 -100Q162 -100 179 -116T210 -155H214L253 -65L48
426L5 437V490H288V436L222 426L325 128H330L432 419L363 437ZM214 588Q183 588 162 610T140 663Q140 694 161 716T214 739Q246 739 267 717T289 663Q289 632 268 610T214 588ZM439 588Q407 588 386 610T364 663Q364 694 385 716T439 739Q470 739 492 717T514 663Q514
632 492 610T439 588Z" />
<glyph unicode="&#x100;" glyph-name="Amacron" horiz-adv-x="772" d="M240 840H530V763H240V840ZM6 49L72 70L306 657L374 661L447 681L691 64L766 51V0H420V53L505 66L454 206H210L165 79L269 53V0H6V49ZM237 280H428L333 545H332L237 280Z" />
<glyph unicode="&#x101;" glyph-name="amacron" horiz-adv-x="568" d="M137 694H427V614H137V694ZM181 -13Q151 -13 125 -4T80 23T49 66T37 122Q37 153 48 176T81 216T131 244T197 264L321 293V329Q321 354 316 376T301 414T275 439T236 448Q223 448 208 445T186
438L185 330Q174 325 156 321T115 316Q88 316 72 329T55 369Q55 392 75 416T128 460T206 493T299 506Q399 506 440 462T481 329V102Q481 76 489 71T520 65H559V25Q537 14 513 6Q493 -2 469 -7T423 -13Q398 -13 381 -6T353 13T336 41T326 77H322Q309 60 296 44T267
16T230 -5T181 -13ZM263 80Q284 80 298 89T321 108V244L274 231Q227 217 210 199T193 154Q193 119 214 100T263 80Z" />
<glyph unicode="&#x102;" glyph-name="Abreve" horiz-adv-x="772" d="M6 49L72 70L306 657L374 661L447 681L691 64L766 51V0H420V53L505 66L454 206H210L165 79L269 53V0H6V49ZM237 280H428L333 545H332L237 280ZM381 725Q342 725 315 738T270 772T244 821T235
876H285Q296 850 319 832T387 813Q434 813 456 832T488 876H536Q535 848 526 821T499 773T451 738T381 725Z" />
<glyph unicode="&#x103;" glyph-name="abreve" horiz-adv-x="568" d="M181 -13Q151 -13 125 -4T80 23T49 66T37 122Q37 153 48 176T81 216T131 244T197 264L321 293V329Q321 354 316 376T301 414T275 439T236 448Q223 448 208 445T186 438L185 330Q174 325 156
321T115 316Q88 316 72 329T55 369Q55 392 75 416T128 460T206 493T299 506Q399 506 440 462T481 329V102Q481 76 489 71T520 65H559V25Q537 14 513 6Q493 -2 469 -7T423 -13Q398 -13 381 -6T353 13T336 41T326 77H322Q309 60 296 44T267 16T230 -5T181 -13ZM263
80Q284 80 298 89T321 108V244L274 231Q227 217 210 199T193 154Q193 119 214 100T263 80ZM278 566Q240 566 215 579T174 615T152 667T145 729H196Q204 692 225 671T284 649Q322 649 343 670T372 729H421Q421 696 413 667T388 615T343 579T278 566Z" />
<glyph unicode="&#x104;" glyph-name="Aogonek" horiz-adv-x="772" d="M6 49L72 70L306 657L374 661L447 681L691 64L766 51V0H567Q537 -15 518 -30T487 -60T472 -89T467 -116Q467 -143 484 -157T523 -171Q548 -171 566 -160T611 -125L635 -147Q622 -167 608 -188T575
-227T532 -256T476 -268Q424 -268 393 -239T361 -167Q361 -144 370 -124T398 -82T446 -32T516 33L454 206H210L165 79L269 53V0H6V49ZM237 280H428L333 545H332L237 280Z" />
<glyph unicode="&#x105;" glyph-name="aogonek" horiz-adv-x="568" d="M559 26Q504 1 470 -18T418 -53T393 -83T386 -110Q386 -133 399 -148T436 -163Q460 -163 480 -152T527 -116L551 -138Q538 -159 524 -180T491 -219T448 -248T391 -259Q339 -259 309 -230T278
-158Q278 -134 286 -115T311 -80T353 -47T410 -14V-10Q366 -6 349 17T326 77H322Q309 60 296 44T267 16T230 -5T181 -13Q151 -13 125 -4T80 23T49 66T37 122Q37 153 48 176T81 215T131 243T197 264L321 293V327Q321 352 316 374T301 412T275 437T236 446Q223 446
208 443T186 436L185 330Q174 325 156 321T115 316Q88 316 72 329T55 372Q55 394 75 417T128 460T204 493T295 506Q398 506 439 462T481 329V102Q481 76 489 71T520 65H559V26ZM263 80Q284 80 298 89T321 108V244L274 231Q227 217 210 199T193 154Q193 119 214
100T263 80Z" />
<glyph unicode="&#x106;" glyph-name="Cacute" horiz-adv-x="725" d="M594 875V853L467 736H388L458 875H594ZM404 -19Q306 -19 237 8T124 81T59 183T38 301Q38 385 70 455T158 576T290 655T453 684Q518 684 569 668T662 630L668 450H617L552 592Q535 603 510
612T451 621Q406 621 366 604T296 552T247 469T229 355Q229 281 247 224T296 128T370 69T461 49Q493 49 518 56T560 73L643 227H695L670 40Q610 13 546 -3T404 -19Z" />
<glyph unicode="&#x107;" glyph-name="cacute" horiz-adv-x="500" d="M267 -15Q212 -15 168 3T94 54T47 131T30 227Q30 294 53 346T116 435T205 490T309 509Q347 509 377 499T427 471T458 432T469 387Q469 353 449 334T392 315Q382 315 374 315T360 317Q353 318
346 320L332 441Q331 441 319 445T290 449Q261 449 240 435T206 399T186 351T179 300Q179 250 192 213T227 150T279 113T342 101Q366 101 386 108T423 124Q441 135 456 148L479 121Q461 95 441 71T396 27T339 -3T267 -15ZM421 769V751L308 572H247L296 769H421Z"
/>
<glyph unicode="&#x108;" glyph-name="Ccircumflex" horiz-adv-x="725" d="M278 736L382 874H487L594 736H522L433 797L345 736H278ZM404 -19Q306 -19 237 8T124 81T59 183T38 301Q38 385 70 455T158 576T290 655T453 684Q518 684 569 668T662 630L668 450H617L552
592Q535 603 510 612T451 621Q406 621 366 604T296 552T247 469T229 355Q229 281 247 224T296 128T370 69T461 49Q493 49 518 56T560 73L643 227H695L670 40Q610 13 546 -3T404 -19Z" />
<glyph unicode="&#x109;" glyph-name="ccircumflex" horiz-adv-x="500" d="M143 572L241 769H330L428 572H363L281 666L201 572H143ZM267 -15Q212 -15 168 3T94 54T47 131T30 227Q30 294 53 346T116 435T205 490T309 509Q347 509 377 499T427 471T458 432T469
387Q469 353 449 334T392 315Q382 315 374 315T360 317Q353 318 346 320L332 441Q331 441 319 445T290 449Q261 449 240 435T206 399T186 351T179 300Q179 250 192 213T227 150T279 113T342 101Q366 101 386 108T423 124Q441 135 456 148L479 121Q461 95 441 71T396
27T339 -3T267 -15Z" />
<glyph unicode="&#x10a;" glyph-name="Cdotaccent" horiz-adv-x="725" d="M434 738Q392 738 367 764T342 826Q342 862 367 887T434 913Q476 913 501 888T526 826Q526 790 501 764T434 738ZM404 -19Q306 -19 237 8T124 81T59 183T38 301Q38 385 70 455T158 576T290
655T453 684Q518 684 569 668T662 630L668 450H617L552 592Q535 603 510 612T451 621Q406 621 366 604T296 552T247 469T229 355Q229 281 247 224T296 128T370 69T461 49Q493 49 518 56T560 73L643 227H695L670 40Q610 13 546 -3T404 -19Z" />
<glyph unicode="&#x10b;" glyph-name="cdotaccent" horiz-adv-x="500" d="M282 572Q240 572 215 598T190 660Q190 696 215 721T282 747Q324 747 349 722T374 660Q374 624 349 598T282 572ZM267 -15Q212 -15 168 3T94 54T47 131T30 227Q30 294 53 346T116 435T205
490T309 509Q347 509 377 499T427 471T458 432T469 387Q469 353 449 334T392 315Q382 315 374 315T360 317Q353 318 346 320L332 441Q331 441 319 445T290 449Q261 449 240 435T206 399T186 351T179 300Q179 250 192 213T227 150T279 113T342 101Q366 101 386 108T423
124Q441 135 456 148L479 121Q461 95 441 71T396 27T339 -3T267 -15Z" />
<glyph unicode="&#x10c;" glyph-name="Ccaron" horiz-adv-x="725" d="M404 -19Q306 -19 237 8T124 81T59 183T38 301Q38 385 70 455T158 576T290 655T453 684Q518 684 569 668T662 630L668 450H617L552 592Q535 603 510 612T451 621Q406 621 366 604T296 552T247
469T229 355Q229 281 247 224T296 128T370 69T461 49Q493 49 518 56T560 73L643 227H695L670 40Q610 13 546 -3T404 -19ZM588 874L484 736H379L275 874H342L433 812L523 874H588Z" />
<glyph unicode="&#x10d;" glyph-name="ccaron" horiz-adv-x="500" d="M422 769L324 572H235L137 769H202L283 674L364 769H422ZM267 -15Q212 -15 168 3T94 54T47 131T30 227Q30 294 53 346T116 435T205 490T309 509Q347 509 377 499T427 471T458 432T469 387Q469
353 449 334T392 315Q382 315 374 315T360 317Q353 318 346 320L332 441Q331 441 319 445T290 449Q261 449 240 435T206 399T186 351T179 300Q179 250 192 213T227 150T279 113T342 101Q366 101 386 108T423 124Q441 135 456 148L479 121Q461 95 441 71T396 27T339
-3T267 -15Z" />
<glyph unicode="&#x10e;" glyph-name="Dcaron" horiz-adv-x="808" d="M541 874L437 736H332L228 874H295L386 812L476 874H541ZM289 94Q300 47 382 49Q429 50 466 72T528 131T567 216T580 317Q580 404 556 462T492 555T400 603T289 612V94ZM31 52L118 66V597L35
612V664L386 669Q475 670 546 647T668 582T745 482T772 357Q772 269 739 201T648 87T510 18T337 -4L31 0V52Z" />
<glyph unicode="&#x10f;" glyph-name="dcaron" horiz-adv-x="635" d="M275 723L545 746V80L619 64V14L435 -11L399 65Q385 50 370 36T337 10T294 -8T239 -15Q195 -15 157 2T91 51T46 128T30 230Q30 296 54 347T119 434T211 488T317 507Q335 507 352 504T385 495V647L275
672V723ZM330 82Q347 82 361 86T385 96V387Q370 410 348 425T295 441Q253 441 224 404T195 288Q195 187 232 135T330 82ZM603 536L626 747H738V719L643 536H603Z" />
<glyph unicode="&#x110;" glyph-name="Dcroat" horiz-adv-x="808" d="M31 52L118 66V306H23V368H118V597L35 612V664L386 669Q475 670 546 647T668 582T745 482T772 357Q772 269 739 201T648 87T510 18T337 -4L31 0V52ZM289 306V94Q300 47 382 49Q429 50 466 72T528
131T567 216T580 317Q580 404 556 462T492 555T400 603T289 612V368H422V306H289Z" />
<glyph unicode="&#x111;" glyph-name="dcroat" horiz-adv-x="635" d="M275 723L545 746V603H621V553H545V80L619 64V14L435 -11L399 65Q385 50 370 36T337 10T294 -8T239 -15Q195 -15 157 2T91 51T46 128T30 230Q30 296 54 347T119 433T211 486T317 505Q335 505
352 502T385 494V553H205V603H385V656L275 672V723ZM330 82Q347 82 361 86T385 96V387Q370 410 348 425T295 441Q253 441 224 404T195 288Q195 187 232 135T330 82Z" />
<glyph unicode="&#x112;" glyph-name="Emacron" horiz-adv-x="693" d="M296 309V65H519L607 210H657L622 0H35V52L122 66V597L40 612V664H524L622 671V477H572L520 605H296V368H415L441 452H487V231H439L415 309H296ZM220 840H510V763H220V840Z" />
<glyph unicode="&#x113;" glyph-name="emacron" horiz-adv-x="547" d="M143 694H433V614H143V694ZM274 -15Q210 -15 164 6T88 62T44 140T30 227Q30 295 54 347T116 436T203 490T298 509Q353 509 392 490T457 437T495 358T509 261H175Q180 218 196 187T235 136T289
107T352 97Q382 97 407 105T450 124Q471 135 488 151L512 124Q498 106 479 82T432 37T366 0T274 -15ZM270 447Q233 447 206 414T173 320H351Q351 344 347 367T334 408T309 436T270 447Z" />
<glyph unicode="&#x114;" glyph-name="Ebreve" horiz-adv-x="693" d="M360 725Q321 725 294 738T249 772T223 821T214 876H264Q275 850 298 832T366 813Q413 813 435 832T467 876H515Q514 848 505 821T478 773T430 738T360 725ZM296 309V65H519L607 210H657L622
0H35V52L122 66V597L40 612V664H524L622 671V477H572L520 605H296V368H415L441 452H487V231H439L415 309H296Z" />
<glyph unicode="&#x115;" glyph-name="ebreve" horiz-adv-x="547" d="M283 566Q245 566 220 579T179 615T157 667T150 729H201Q209 692 230 671T289 649Q327 649 348 670T377 729H426Q426 696 418 667T393 615T348 579T283 566ZM274 -15Q210 -15 164 6T88 62T44
140T30 227Q30 295 54 347T116 436T203 490T298 509Q353 509 392 490T457 437T495 358T509 261H175Q180 218 196 187T235 136T289 107T352 97Q382 97 407 105T450 124Q471 135 488 151L512 124Q498 106 479 82T432 37T366 0T274 -15ZM270 447Q233 447 206 414T173
320H351Q351 344 347 367T334 408T309 436T270 447Z" />
<glyph unicode="&#x116;" glyph-name="Edotaccent" horiz-adv-x="693" d="M364 738Q322 738 297 764T272 826Q272 862 297 887T364 913Q406 913 431 888T456 826Q456 790 431 764T364 738ZM296 309V65H519L607 210H657L622 0H35V52L122 66V597L40 612V664H524L622
671V477H572L520 605H296V368H415L441 452H487V231H439L415 309H296Z" />
<glyph unicode="&#x117;" glyph-name="edotaccent" horiz-adv-x="547" d="M288 572Q246 572 221 598T196 660Q196 696 221 721T288 747Q330 747 355 722T380 660Q380 624 355 598T288 572ZM274 -15Q210 -15 164 6T88 62T44 140T30 227Q30 295 54 347T116 436T203
490T298 509Q353 509 392 490T457 437T495 358T509 261H175Q180 218 196 187T235 136T289 107T352 97Q382 97 407 105T450 124Q471 135 488 151L512 124Q498 106 479 82T432 37T366 0T274 -15ZM270 447Q233 447 206 414T173 320H351Q351 344 347 367T334 408T309
436T270 447Z" />
<glyph unicode="&#x118;" glyph-name="Eogonek" horiz-adv-x="693" d="M296 309V65H519L607 210H657L622 0H507Q485 -22 471 -39T448 -70T436 -96T432 -120Q432 -145 447 -158T484 -172Q509 -172 528 -161T573 -125L597 -147Q584 -168 570 -189T537 -228T494 -257T437
-268Q385 -268 355 -239T324 -168Q324 -147 331 -128T353 -89T391 -48T448 0H35V52L122 66V597L40 612V664H524L622 671V477H572L520 605H296V368H415L441 452H487V231H439L415 309H296Z" />
<glyph unicode="&#x119;" glyph-name="eogonek" horiz-adv-x="547" d="M274 -15Q210 -15 164 6T88 62T44 140T30 227Q30 295 54 347T116 436T203 490T298 509Q353 509 392 490T457 437T495 358T509 261H175Q180 218 196 187T235 136T289 107T352 97Q382 97 407
105T450 124Q471 135 488 151L512 124Q501 109 486 89T447 48L443 45L436 39Q404 13 382 -7T345 -45T325 -77T319 -107Q319 -133 333 -148T371 -163Q396 -163 415 -151T460 -115L483 -138Q470 -159 456 -180T423 -219T380 -248T324 -259Q272 -259 242 -230T211
-159Q211 -122 235 -90T320 -11Q309 -13 298 -14T274 -15ZM270 447Q233 447 206 414T173 320H351Q351 344 347 367T334 408T309 436T270 447Z" />
<glyph unicode="&#x11a;" glyph-name="Ecaron" horiz-adv-x="693" d="M519 874L415 736H310L206 874H273L364 812L454 874H519ZM296 309V65H519L607 210H657L622 0H35V52L122 66V597L40 612V664H524L622 671V477H572L520 605H296V368H415L441 452H487V231H439L415
309H296Z" />
<glyph unicode="&#x11b;" glyph-name="ecaron" horiz-adv-x="547" d="M428 769L330 572H241L143 769H208L289 674L370 769H428ZM274 -15Q210 -15 164 6T88 62T44 140T30 227Q30 295 54 347T116 436T203 490T298 509Q353 509 392 490T457 437T495 358T509 261H175Q180
218 196 187T235 136T289 107T352 97Q382 97 407 105T450 124Q471 135 488 151L512 124Q498 106 479 82T432 37T366 0T274 -15ZM270 447Q233 447 206 414T173 320H351Q351 344 347 367T334 408T309 436T270 447Z" />
<glyph unicode="&#x11c;" glyph-name="Gcircumflex" horiz-adv-x="772" d="M287 736L391 874H496L603 736H531L442 797L354 736H287ZM406 -19Q310 -19 241 8T126 80T60 182T38 301Q38 384 71 454T161 575T295 655T460 684Q526 684 579 669T675 630L681 451H630L567
592Q551 602 522 611T451 621Q406 621 366 603T296 550T247 466T229 355Q229 280 248 223T299 127T374 69T466 49Q488 49 505 52T535 59V253L449 266V316H739V265L690 251V44L653 29Q612 12 552 -3T406 -19Z" />
<glyph unicode="&#x11d;" glyph-name="gcircumflex" horiz-adv-x="574" d="M130 572L228 769H317L415 572H350L268 666L188 572H130ZM442 426L440 423Q457 407 471 380T485 314Q485 279 469 247T424 191T353 153T262 139Q206 139 164 155Q157 147 151 135T144
112Q144 93 159 89T203 82L371 75Q416 73 448 62T502 34T532 -5T542 -51Q542 -94 516 -134T445 -205T341 -254T218 -273Q166 -273 128 -263T64 -235T25 -195T12 -147Q12 -126 22 -109T47 -77T80 -53T115 -37L122 -34V-31L41 45Q47 73 68 110T119 177Q81 201 60
237T39 320Q39 362 57 396T105 455T177 493T263 507Q300 507 333 499T400 477L561 497V414L442 426ZM276 194Q313 194 329 222T346 292Q346 327 338 356T317 407T286 441T250 453Q215 453 198 426T180 357Q180 322 188 293T209 241T240 207T276 194ZM161 -51Q156
-60 153 -70T150 -95Q150 -115 161 -132T191 -161T237 -180T295 -187Q332 -187 359 -180T403 -162T428 -137T437 -108Q437 -88 423 -76T384 -60L161 -51Z" />
<glyph unicode="&#x11e;" glyph-name="Gbreve" horiz-adv-x="772" d="M406 -19Q310 -19 241 8T126 80T60 182T38 301Q38 384 71 454T161 575T295 655T460 684Q526 684 579 669T675 630L681 451H630L567 592Q551 602 522 611T451 621Q406 621 366 603T296 550T247
466T229 355Q229 280 248 223T299 127T374 69T466 49Q488 49 505 52T535 59V253L449 266V316H739V265L690 251V44L653 29Q612 12 552 -3T406 -19ZM438 725Q399 725 372 738T327 772T301 821T292 876H342Q353 850 376 832T444 813Q491 813 513 832T545 876H593Q592
848 583 821T556 773T508 738T438 725Z" />
<glyph unicode="&#x11f;" glyph-name="gbreve" horiz-adv-x="574" d="M442 426L440 423Q457 407 471 380T485 314Q485 279 469 247T424 191T353 153T262 139Q206 139 164 155Q157 147 151 135T144 112Q144 93 159 89T203 82L371 75Q416 73 448 62T502 34T532 -5T542
-51Q542 -94 516 -134T445 -205T341 -254T218 -273Q166 -273 128 -263T64 -235T25 -195T12 -147Q12 -126 22 -109T47 -77T80 -53T115 -37L122 -34V-31L41 45Q47 73 68 110T119 177Q81 201 60 237T39 320Q39 362 57 396T105 455T177 493T263 507Q300 507 333 499T400
477L561 497V414L442 426ZM276 194Q313 194 329 222T346 292Q346 327 338 356T317 407T286 441T250 453Q215 453 198 426T180 357Q180 322 188 293T209 241T240 207T276 194ZM161 -51Q156 -60 153 -70T150 -95Q150 -115 161 -132T191 -161T237 -180T295 -187Q332
-187 359 -180T403 -162T428 -137T437 -108Q437 -88 423 -76T384 -60L161 -51ZM265 566Q227 566 202 579T161 615T139 667T132 729H183Q191 692 212 671T271 649Q309 649 330 670T359 729H408Q408 696 400 667T375 615T330 579T265 566Z" />
<glyph unicode="&#x120;" glyph-name="Gdotaccent" horiz-adv-x="772" d="M443 738Q401 738 376 764T351 826Q351 862 376 887T443 913Q485 913 510 888T535 826Q535 790 510 764T443 738ZM406 -19Q310 -19 241 8T126 80T60 182T38 301Q38 384 71 454T161 575T295
655T460 684Q526 684 579 669T675 630L681 451H630L567 592Q551 602 522 611T451 621Q406 621 366 603T296 550T247 466T229 355Q229 280 248 223T299 127T374 69T466 49Q488 49 505 52T535 59V253L449 266V316H739V265L690 251V44L653 29Q612 12 552 -3T406 -19Z"
/>
<glyph unicode="&#x121;" glyph-name="gdotaccent" horiz-adv-x="574" d="M269 572Q227 572 202 598T177 660Q177 696 202 721T269 747Q311 747 336 722T361 660Q361 624 336 598T269 572ZM442 426L440 423Q457 407 471 380T485 314Q485 279 469 247T424 191T353
153T262 139Q206 139 164 155Q157 147 151 135T144 112Q144 93 159 89T203 82L371 75Q416 73 448 62T502 34T532 -5T542 -51Q542 -94 516 -134T445 -205T341 -254T218 -273Q166 -273 128 -263T64 -235T25 -195T12 -147Q12 -126 22 -109T47 -77T80 -53T115 -37L122
-34V-31L41 45Q47 73 68 110T119 177Q81 201 60 237T39 320Q39 362 57 396T105 455T177 493T263 507Q300 507 333 499T400 477L561 497V414L442 426ZM276 194Q313 194 329 222T346 292Q346 327 338 356T317 407T286 441T250 453Q215 453 198 426T180 357Q180 322
188 293T209 241T240 207T276 194ZM161 -51Q156 -60 153 -70T150 -95Q150 -115 161 -132T191 -161T237 -180T295 -187Q332 -187 359 -180T403 -162T428 -137T437 -108Q437 -88 423 -76T384 -60L161 -51Z" />
<glyph unicode="&#x122;" glyph-name="Gcommaaccent" horiz-adv-x="772" d="M406 -19Q310 -19 241 8T126 80T60 182T38 301Q38 384 71 454T161 575T295 655T460 684Q526 684 579 669T675 630L681 451H630L567 592Q551 602 522 611T451 621Q406 621 366 603T296
550T247 466T229 355Q229 280 248 223T299 127T374 69T466 49Q488 49 505 52T535 59V253L449 266V316H739V265L690 251V44L653 29Q612 12 552 -3T406 -19ZM288 -248Q337 -231 356 -213T376 -172Q376 -149 356 -138T314 -126V-117Q321 -82 344 -69T396 -56Q437 -56
461 -78T485 -139Q485 -184 442 -222T301 -284L288 -248Z" />
<glyph unicode="&#x123;" glyph-name="gcommaaccent" horiz-adv-x="574" d="M368 773Q320 756 301 738T281 696Q281 673 300 663T343 651V641Q336 607 313 594T260 581Q219 581 196 603T172 663Q172 709 214 747T355 808L368 773ZM442 426L440 423Q457 407 471
380T485 314Q485 279 469 247T424 191T353 153T262 139Q206 139 164 155Q157 147 151 135T144 112Q144 93 159 89T203 82L371 75Q416 73 448 62T502 34T532 -5T542 -51Q542 -94 516 -134T445 -205T341 -254T218 -273Q166 -273 128 -263T64 -235T25 -195T12 -147Q12
-126 22 -109T47 -77T80 -53T115 -37L122 -34V-31L41 45Q47 73 68 110T119 177Q81 201 60 237T39 320Q39 362 57 396T105 455T177 493T263 507Q300 507 333 499T400 477L561 497V414L442 426ZM276 194Q313 194 329 222T346 292Q346 327 338 356T317 407T286 441T250
453Q215 453 198 426T180 357Q180 322 188 293T209 241T240 207T276 194ZM161 -51Q156 -60 153 -70T150 -95Q150 -115 161 -132T191 -161T237 -180T295 -187Q332 -187 359 -180T403 -162T428 -137T437 -108Q437 -88 423 -76T384 -60L161 -51Z" />
<glyph unicode="&#x124;" glyph-name="Hcircumflex" horiz-adv-x="851" d="M475 52L559 66V293H291V66L376 52V0H31V52L118 66V597L35 612V664H370V612L291 597V368H559V597L481 612V664H815V612L733 597V66L820 52V0H475V52ZM269 736L373 874H478L585 736H513L424
797L336 736H269Z" />
<glyph unicode="&#x125;" glyph-name="hcircumflex" horiz-adv-x="656" d="M360 52L414 65V300Q412 411 320 410Q298 409 279 403T249 389V65L305 51V0H22V51L89 65V650L19 668V717L249 746V429Q260 441 276 455T312 481T357 501T410 509Q491 509 532 469T573
341V65L642 51V0H360V52ZM175 786L279 924H384L491 786H419L330 847L242 786H175Z" />
<glyph unicode="&#x126;" glyph-name="Hbar" horiz-adv-x="851" d="M475 52L559 66V293H291V66L376 52V0H31V52L118 66V456H21V519H118V597L35 612V664H370V612L291 597V519H559V597L481 612V664H815V612L733 597V519H830V456H733V66L820 52V0H475V52ZM291 368H559V456H291V368Z"
/>
<glyph unicode="&#x127;" glyph-name="hbar" horiz-adv-x="656" d="M13 603H89V655L19 668V717L249 746V603H429V553H249V429Q260 441 276 455T312 481T357 501T410 509Q491 509 532 469T573 341V65L642 51V0H360V52L414 65V300Q412 411 320 410Q298 409 279 403T249
389V65L305 51V0H22V51L89 65V553H13V603Z" />
<glyph unicode="&#x128;" glyph-name="Itilde" horiz-adv-x="408" d="M182 760Q153 769 135 772T104 774T84 762T67 735L30 749L33 762Q45 808 62 832T100 866T146 873T199 862L230 853Q260 844 279 841T312 840T335 853T353 882L391 871L387 854Q375 808 357
783T317 747T268 739T211 751L182 760ZM31 52L118 66V597L35 612V664H374V612L291 597V66L378 52V0H31V52Z" />
<glyph unicode="&#x129;" glyph-name="itilde" horiz-adv-x="332" d="M140 607Q111 616 93 620T62 621T41 609T26 581L-11 600L-6 613Q8 650 23 672T59 704T104 715T164 707L177 704Q208 697 228 693T261 690T283 703T301 734L337 715L332 700Q306 623 266 601T152
603L140 607ZM20 52L87 65V396L21 411V463L247 509V65L310 52V0H20V52Z" />
<glyph unicode="&#x12a;" glyph-name="Imacron" horiz-adv-x="408" d="M59 840H349V763H59V840ZM31 52L118 66V597L35 612V664H374V612L291 597V66L378 52V0H31V52Z" />
<glyph unicode="&#x12b;" glyph-name="imacron" horiz-adv-x="332" d="M25 681H292V602H25V681ZM20 52L87 65V396L21 411V463L247 509V65L310 52V0H20V52Z" />
<glyph unicode="&#x12c;" glyph-name="Ibreve" horiz-adv-x="408" d="M200 725Q161 725 134 738T89 772T63 821T54 876H104Q115 850 138 832T206 813Q253 813 275 832T307 876H355Q354 848 345 821T318 773T270 738T200 725ZM31 52L118 66V597L35 612V664H374V612L291
597V66L378 52V0H31V52Z" />
<glyph unicode="&#x12d;" glyph-name="ibreve" horiz-adv-x="332" d="M20 52L87 65V396L21 411V463L247 509V65L310 52V0H20V52ZM416 579Q378 579 353 592T312 628T290 680T283 742H334Q342 705 363 684T422 662Q460 662 481 683T510 742H559Q559 709 551 680T526
628T481 592T416 579Z" />
<glyph unicode="&#x12e;" glyph-name="Iogonek" horiz-adv-x="408" d="M31 52L118 66V597L35 612V664H374V612L291 597V66L378 52V0H232Q196 -44 185 -70T174 -120Q174 -144 189 -157T226 -171Q250 -171 269 -160T314 -125L338 -147Q325 -167 311 -188T278 -227T235
-256T179 -268Q127 -268 97 -239T66 -167Q66 -127 89 -89T170 0H31V52Z" />
<glyph unicode="&#x12f;" glyph-name="iogonek" horiz-adv-x="332" d="M20 52L87 65V396L21 411V463L247 509V65L310 52V0H200Q164 -43 150 -69T136 -120Q136 -144 151 -157T188 -171Q213 -171 231 -160T276 -125L300 -147Q287 -167 273 -188T240 -227T197 -256T141
-268Q89 -268 59 -239T28 -167Q28 -125 56 -85T133 0H20V52ZM167 577Q125 577 100 603T75 665Q75 701 100 726T167 752Q209 752 233 727T258 665Q258 629 233 603T167 577Z" />
<glyph unicode="&#x130;" glyph-name="Idotaccent" horiz-adv-x="408" d="M31 52L118 66V597L35 612V664H374V612L291 597V66L378 52V0H31V52ZM204 738Q162 738 137 764T112 826Q112 862 137 887T204 913Q246 913 271 888T296 826Q296 790 271 764T204 738Z" />
<glyph unicode="&#x131;" glyph-name="dotlessi" horiz-adv-x="332" d="M20 52L87 65V396L21 411V463L247 509V65L310 52V0H20V52Z" />
<glyph unicode="&#x132;" glyph-name="IJ" horiz-adv-x="826" d="M31 52L118 66V597L35 612V664H374V612L291 597V66L378 52V0H31V52ZM698 100Q698 31 680 -27T628 -128T542 -195T425 -220L412 -170Q452 -160 475 -137T509 -81T522 -8T525 78V597L440 612V664H782V612L698
597V100Z" />
<glyph unicode="&#x133;" glyph-name="ij" horiz-adv-x="648" d="M20 52L87 65V396L21 411V463L247 509V65L310 52V0H20V52ZM167 577Q125 577 100 603T75 665Q75 701 100 726T167 752Q209 752 233 727T258 665Q258 629 233 603T167 577ZM321 -196Q340 -186 356
-169T385 -123T404 -52T411 51V395L345 411V463L571 509V66Q571 -6 556 -57T518 -143Q494 -179 465 -199T409 -229T364 -241T341 -244L321 -196ZM491 577Q449 577 424 603T399 665Q399 701 424 726T491 752Q533 752 557 727T582 665Q582 629 557 603T491 577Z"
/>
<glyph unicode="&#x134;" glyph-name="Jcircumflex" horiz-adv-x="424" d="M305 100Q305 31 287 -27T235 -128T149 -195T32 -220L19 -170Q59 -160 82 -137T116 -81T129 -8T132 78V597L47 612V664H389V612L305 597V100ZM65 736L169 874H274L381 736H309L220 797L132
736H65Z" />
<glyph unicode="&#x135;" glyph-name="jcircumflex" horiz-adv-x="321" d="M-6 -196Q13 -186 29 -169T58 -123T77 -52T84 51V395L18 411V463L244 509V66Q244 -6 229 -57T191 -143Q167 -179 138 -199T82 -229T37 -241T14 -244L-6 -196ZM278 585L376 782H465L563
585H498L416 679L336 585H278Z" />
<glyph unicode="&#x136;" glyph-name="Kcommaaccent" horiz-adv-x="776" d="M31 52L118 66V597L35 612V664H371V612L291 597V66L361 52V0H31V52ZM300 357V366L364 385L565 592L490 614V664H746V615L660 592L469 399L707 66L784 52V0H543L300 357ZM326 -248Q375
-231 394 -213T414 -172Q414 -149 394 -138T352 -126V-117Q359 -82 382 -69T434 -56Q475 -56 499 -78T523 -139Q523 -184 480 -222T339 -284L326 -248Z" />
<glyph unicode="&#x137;" glyph-name="kcommaaccent" horiz-adv-x="629" d="M89 649L19 667V716L249 746V65L310 51V0H22V51L89 65V649ZM534 -19Q508 -19 490 -15T456 -1T428 24T402 59L259 277V286L318 302L428 421L338 442V490H610V443L534 423L408 304L627
22Q620 11 608 2Q597 -6 580 -12T534 -19ZM240 -248Q289 -231 308 -213T328 -172Q328 -149 308 -138T266 -126V-117Q273 -82 296 -69T348 -56Q389 -56 413 -78T437 -139Q437 -184 394 -222T253 -284L240 -248Z" />
<glyph unicode="&#x138;" glyph-name="kgreenlandic" horiz-adv-x="629" d="M88 395L20 409V456L241 510H247V65L308 51V0H20V51L88 65V395ZM532 -19Q506 -19 487 -15T453 -1T426 23T400 58L257 275V284L316 299L425 421L336 442V490H607V443L532 423L405 301L625
22Q618 11 606 2Q595 -6 578 -12T532 -19Z" />
<glyph unicode="&#x139;" glyph-name="Lacute" horiz-adv-x="641" d="M475 65L571 235H621L581 0H31V52L118 66V597L35 612V664H379V612L291 597V65H475ZM376 875V853L249 736H170L240 875H376Z" />
<glyph unicode="&#x13a;" glyph-name="lacute" horiz-adv-x="337" d="M22 51L89 65V649L20 666V715L249 746V65L321 51V0H22V51ZM330 923V901L203 784H124L194 923H330Z" />
<glyph unicode="&#x13b;" glyph-name="Lcommaaccent" horiz-adv-x="641" d="M475 65L571 235H621L581 0H31V52L118 66V597L35 612V664H379V612L291 597V65H475ZM221 8Q270 25 289 43T309 84Q309 107 289 118T247 130V139Q254 174 277 187T329 200Q370 200 394
178T418 117Q418 72 375 34T234 -28L221 8Z" />
<glyph unicode="&#x13c;" glyph-name="lcommaaccent" horiz-adv-x="337" d="M22 51L89 65V649L20 666V715L249 746V65L321 51V0H22V51ZM318 8Q367 25 386 43T406 84Q406 107 386 118T344 130V139Q351 174 374 187T426 200Q467 200 491 178T515 117Q515 72 472
34T331 -28L318 8Z" />
<glyph unicode="&#x13d;" glyph-name="Lcaron" horiz-adv-x="641" d="M475 65L571 235H621L581 0H31V52L118 66V597L35 612V664H379V612L291 597V65H475ZM445 476L468 687H580V659L485 476H445Z" />
<glyph unicode="&#x13e;" glyph-name="lcaron" horiz-adv-x="337" d="M22 51L89 65V649L20 666V715L249 746V65L321 51V0H22V51ZM307 535L330 746H442V718L347 535H307Z" />
<glyph unicode="&#x13f;" glyph-name="Ldot" horiz-adv-x="641" d="M475 65L571 218H621L581 0H31V52L118 66V597L35 612V664H379V612L291 597V65H475ZM529 306Q496 306 472 330T447 387Q447 404 453 419T471 445T497 463T529 470Q563 470 587 446T612 387Q612
354 588 330T529 306Z" />
<glyph unicode="&#x140;" glyph-name="ldot" horiz-adv-x="451" d="M396 295Q379 295 365 301T339 319T321 345T314 376Q314 411 338 435T396 459Q431 459 455 435T479 376Q479 360 473 346T455 320T428 302T396 295ZM22 51L89 65V649L20 666V715L249 746V65L321
51V0H22V51Z" />
<glyph unicode="&#x141;" glyph-name="Lslash" horiz-adv-x="641" d="M32 310L118 331V597L35 612V664H379V612L291 597V375L487 424V366L291 317V65H475L571 235H621L581 0H31V52L118 66V273L32 252V310Z" />
<glyph unicode="&#x142;" glyph-name="lslash" horiz-adv-x="337" d="M7 336L89 373V649L20 666V715L249 746V445L342 487V418L249 375V65L321 51V0H22V51L89 65V303L7 266V336Z" />
<glyph unicode="&#x143;" glyph-name="Nacute" horiz-adv-x="823" d="M602 -2L194 485L199 79L333 49V0H33V52L119 71L120 582L30 613V664H269L640 220L637 583L503 615V664H798V612L716 590V83L719 -2H602ZM575 875V853L448 736H369L439 875H575Z" />
<glyph unicode="&#x144;" glyph-name="nacute" horiz-adv-x="655" d="M20 51L88 65V395L20 409V455L212 510H217L239 422H242Q252 434 268 449T305 477T352 500T409 509Q490 509 531 469T572 341V65L640 51V0H358V52L412 65V300Q411 355 389 383T318 410Q295 409
277 403T247 389V65L304 51V0H20V51ZM476 769V751L363 572H302L351 769H476Z" />
<glyph unicode="&#x145;" glyph-name="Ncommaaccent" horiz-adv-x="823" d="M602 -2L194 485L199 79L333 49V0H33V52L119 71L120 582L30 613V664H269L640 220L637 583L503 615V664H798V612L716 590V83L719 -2H602ZM310 -248Q359 -231 378 -213T398 -172Q398 -149
378 -138T336 -126V-117Q343 -82 366 -69T418 -56Q459 -56 483 -78T507 -139Q507 -184 464 -222T323 -284L310 -248Z" />
<glyph unicode="&#x146;" glyph-name="ncommaaccent" horiz-adv-x="655" d="M20 51L88 65V395L20 409V455L212 510H217L239 422H242Q252 434 268 449T305 477T352 500T409 509Q490 509 531 469T572 341V65L640 51V0H358V52L412 65V300Q411 355 389 383T318 410Q295
409 277 403T247 389V65L304 51V0H20V51ZM231 8Q280 25 299 43T319 84Q319 107 299 118T257 130V139Q264 174 287 187T339 200Q380 200 404 178T428 117Q428 72 385 34T244 -28L231 8Z" />
<glyph unicode="&#x147;" glyph-name="Ncaron" horiz-adv-x="823" d="M602 -2L194 485L199 79L333 49V0H33V52L119 71L120 582L30 613V664H269L640 220L637 583L503 615V664H798V612L716 590V83L719 -2H602ZM571 874L467 736H362L258 874H325L416 812L506 874H571Z" />
<glyph unicode="&#x148;" glyph-name="ncaron" horiz-adv-x="655" d="M477 769L379 572H290L192 769H257L338 674L419 769H477ZM20 51L88 65V395L20 409V455L212 510H217L239 422H242Q252 434 268 449T305 477T352 500T409 509Q490 509 531 469T572 341V65L640
51V0H358V52L412 65V300Q411 355 389 383T318 410Q295 409 277 403T247 389V65L304 51V0H20V51Z" />
<glyph unicode="&#x149;" glyph-name="napostrophe" horiz-adv-x="655" d="M-15 575Q34 592 53 610T73 651Q73 674 53 685T11 697V706Q18 741 41 754T93 767Q134 767 158 745T182 684Q182 639 139 601T-2 539L-15 575ZM20 51L88 65V395L20 409V455L212 510H217L239
422H242Q252 434 268 449T305 477T352 500T409 509Q490 509 531 469T572 341V65L640 51V0H358V52L412 65V300Q411 355 389 383T318 410Q295 409 277 403T247 389V65L304 51V0H20V51Z" />
<glyph unicode="&#x14a;" glyph-name="Eng" horiz-adv-x="822" d="M716 94Q716 25 700 -33T650 -134T566 -202T448 -229L434 -181Q476 -172 504 -157T550 -119T577 -71T591 -14L194 511L199 79L326 49V0H33V52L119 71L120 582L30 613V664H290L640 191L637 583L509
615V664H798V612L716 590V94Z" />
<glyph unicode="&#x14b;" glyph-name="eng" horiz-adv-x="638" d="M412 300Q412 411 318 410Q295 409 277 403T247 389V65L304 51V0H20V51L88 65V395L20 409V455L212 510H217L238 422H241Q251 434 267 449T304 477T352 500T409 509Q490 509 531 469T572 341V66Q572
-11 557 -59T519 -143Q495 -179 466 -199T410 -229T365 -241T342 -244L322 -196Q341 -186 357 -169T386 -123T405 -52T412 51V300Z" />
<glyph unicode="&#x14c;" glyph-name="Omacron" horiz-adv-x="788" d="M249 840H539V763H249V840ZM405 43Q441 43 469 62T518 117T550 203T561 314Q561 376 549 431T513 529T456 596T381 621Q345 621 317 602T268 547T238 463T227 352Q227 286 240 229T277 131T333
67T405 43ZM395 684Q474 684 539 660T651 590T723 482T749 342Q749 259 720 192T642 78T528 4T390 -22Q314 -22 250 2T139 70T66 178T39 321Q39 405 67 472T144 586T258 659T395 684Z" />
<glyph unicode="&#x14d;" glyph-name="omacron" horiz-adv-x="592" d="M151 694H441V614H151V694ZM198 238Q202 196 212 161T237 99T271 58T313 43Q355 43 376 86T397 198Q397 253 388 298T362 376T325 427T279 445Q237 445 216 402T195 290Q195 265 198 238ZM296
-18Q229 -18 179 2T94 58T43 139T26 237Q26 294 46 343T103 429T188 486T296 507Q357 507 406 489T491 437T546 358T566 254Q566 197 546 147T489 61T404 3T296 -18Z" />
<glyph unicode="&#x14e;" glyph-name="Obreve" horiz-adv-x="788" d="M390 725Q351 725 324 738T279 772T253 821T244 876H294Q305 850 328 832T396 813Q443 813 465 832T497 876H545Q544 848 535 821T508 773T460 738T390 725ZM405 43Q441 43 469 62T518 117T550
203T561 314Q561 376 549 431T513 529T456 596T381 621Q345 621 317 602T268 547T238 463T227 352Q227 286 240 229T277 131T333 67T405 43ZM395 684Q474 684 539 660T651 590T723 482T749 342Q749 259 720 192T642 78T528 4T390 -22Q314 -22 250 2T139 70T66 178T39
321Q39 405 67 472T144 586T258 659T395 684Z" />
<glyph unicode="&#x14f;" glyph-name="obreve" horiz-adv-x="592" d="M291 566Q253 566 228 579T187 615T165 667T158 729H209Q217 692 238 671T297 649Q335 649 356 670T385 729H434Q434 696 426 667T401 615T356 579T291 566ZM198 238Q202 196 212 161T237 99T271
58T313 43Q355 43 376 86T397 198Q397 253 388 298T362 376T325 427T279 445Q237 445 216 402T195 290Q195 265 198 238ZM296 -18Q229 -18 179 2T94 58T43 139T26 237Q26 294 46 343T103 429T188 486T296 507Q357 507 406 489T491 437T546 358T566 254Q566 197
546 147T489 61T404 3T296 -18Z" />
<glyph unicode="&#x150;" glyph-name="Ohungarumlaut" horiz-adv-x="788" d="M446 875V856L336 736H271L331 875H446ZM603 875V856L493 736H427L487 875H603ZM405 43Q441 43 469 62T518 117T550 203T561 314Q561 376 549 431T513 529T456 596T381 621Q345 621
317 602T268 547T238 463T227 352Q227 286 240 229T277 131T333 67T405 43ZM395 684Q474 684 539 660T651 590T723 482T749 342Q749 259 720 192T642 78T528 4T390 -22Q314 -22 250 2T139 70T66 178T39 321Q39 405 67 472T144 586T258 659T395 684Z" />
<glyph unicode="&#x151;" glyph-name="ohungarumlaut" horiz-adv-x="592" d="M340 769V751L233 572H181L232 769H340ZM505 769V751L398 572H346L397 769H505ZM198 238Q202 196 212 161T237 99T271 58T313 43Q355 43 376 86T397 198Q397 253 388 298T362 376T325
427T279 445Q237 445 216 402T195 290Q195 265 198 238ZM296 -18Q229 -18 179 2T94 58T43 139T26 237Q26 294 46 343T103 429T188 486T296 507Q357 507 406 489T491 437T546 358T566 254Q566 197 546 147T489 61T404 3T296 -18Z" />
<glyph unicode="&#x152;" glyph-name="OE" horiz-adv-x="1098" d="M766 0Q697 0 643 -1T545 -4T465 -7T398 -9Q320 -9 255 12T142 74T67 177T40 321Q40 400 70 465T151 576T268 648T405 673Q438 673 471 672T547 669T648 666T790 664H929L1027 671V477H977L925
605H701V368H820L846 452H892V231H844L820 309H701V65H925L1012 210H1062L1028 0H766ZM533 594Q523 598 509 602T480 609T448 613T419 615Q322 615 269 547T215 347Q215 285 227 231T265 137T330 74T424 51Q476 51 504 81T533 181V594Z" />
<glyph unicode="&#x153;" glyph-name="oe" horiz-adv-x="921" d="M647 -15Q584 -15 543 8T478 70Q447 28 402 5T296 -18Q229 -18 179 2T94 58T43 139T26 237Q26 294 46 343T103 429T188 486T296 507Q363 507 412 482T491 412Q525 460 573 484T672 509Q727 509
766 490T830 437T868 358T883 261H549Q554 218 570 187T609 136T663 107T726 97Q756 97 781 105T824 124Q845 135 862 151L886 124Q872 106 853 82T806 37T740 0T647 -15ZM313 43Q337 43 353 58T379 95T393 145T397 198Q397 252 388 297T362 375T325 426T278 445Q237
445 217 403T196 293Q196 242 204 197T228 118T265 63T313 43ZM643 447Q607 447 580 414T547 320H725Q725 344 721 367T708 408T683 436T643 447Z" />
<glyph unicode="&#x154;" glyph-name="Racute" horiz-adv-x="748" d="M31 52L118 66V598L35 612V664L334 666Q401 667 457 657T555 624T620 567T643 485Q643 424 605 384T503 318V316L677 63L756 50V0H535L410 184Q392 210 381 227T362 254Q354 265 351 272L291
270V66L361 52V0H31V52ZM291 323H340Q401 334 436 372T472 463Q472 494 462 521T429 570T373 602T291 614V323ZM524 875V853L397 736H318L388 875H524Z" />
<glyph unicode="&#x155;" glyph-name="racute" horiz-adv-x="449" d="M20 51L88 65V395L20 408V455L206 509H212L241 405H243L256 425Q265 440 276 455T301 482T332 501T369 509Q407 509 427 487T447 432Q447 413 439 396T421 366T403 346T393 337L275 393L247
376V65L341 51V0H20V51ZM404 769V751L291 572H230L279 769H404Z" />
<glyph unicode="&#x156;" glyph-name="Rcommaaccent" horiz-adv-x="748" d="M31 52L118 66V598L35 612V664L334 666Q401 667 457 657T555 624T620 567T643 485Q643 424 605 384T503 318V316L677 63L756 50V0H535L410 184Q392 210 381 227T362 254Q354 265 351
272L291 270V66L361 52V0H31V52ZM291 323H340Q401 334 436 372T472 463Q472 494 462 521T429 570T373 602T291 614V323ZM319 -248Q368 -231 387 -213T407 -172Q407 -149 387 -138T345 -126V-117Q352 -82 375 -69T427 -56Q468 -56 492 -78T516 -139Q516 -184 473
-222T332 -284L319 -248Z" />
<glyph unicode="&#x157;" glyph-name="rcommaaccent" horiz-adv-x="449" d="M20 51L88 65V395L20 408V455L206 509H212L241 405H243L256 425Q265 440 276 455T301 482T332 501T369 509Q407 509 427 487T447 432Q447 413 439 396T421 366T403 346T393 337L275 393L247
376V65L341 51V0H20V51ZM315 8Q364 25 383 43T403 84Q403 107 383 118T341 130V139Q348 174 371 187T423 200Q464 200 488 178T512 117Q512 72 469 34T328 -28L315 8Z" />
<glyph unicode="&#x158;" glyph-name="Rcaron" horiz-adv-x="748" d="M518 874L414 736H309L205 874H272L363 812L453 874H518ZM31 52L118 66V598L35 612V664L334 666Q401 667 457 657T555 624T620 567T643 485Q643 424 605 384T503 318V316L677 63L756 50V0H535L410
184Q392 210 381 227T362 254Q354 265 351 272L291 270V66L361 52V0H31V52ZM291 323H340Q401 334 436 372T472 463Q472 494 462 521T429 570T373 602T291 614V323Z" />
<glyph unicode="&#x159;" glyph-name="rcaron" horiz-adv-x="449" d="M405 769L307 572H218L120 769H185L266 674L347 769H405ZM20 51L88 65V395L20 408V455L206 509H212L241 405H243L256 425Q265 440 276 455T301 482T332 501T369 509Q407 509 427 487T447 432Q447
413 439 396T421 366T403 346T393 337L275 393L247 376V65L341 51V0H20V51Z" />
<glyph unicode="&#x15a;" glyph-name="Sacute" horiz-adv-x="582" d="M33 240H83L161 78Q182 63 208 55T270 46Q319 46 349 71T380 142Q380 210 291 246L208 279Q130 311 92 354T53 472Q53 511 70 549T122 617T206 667T324 686Q376 686 420 674T510 640L516 453H466L405
594Q392 602 371 612T318 623Q269 623 241 597T212 530Q212 494 233 470T305 425L394 388Q439 369 468 349T515 307T540 259T547 206Q547 153 523 111T459 40T370 -5T272 -21Q198 -21 146 -4T48 42L33 240ZM475 875V853L348 736H269L339 875H475Z" />
<glyph unicode="&#x15b;" glyph-name="sacute" horiz-adv-x="487" d="M384 769V751L271 572H210L259 769H384ZM230 -19Q203 -19 181 -17T137 -9T95 3T48 21L31 186H78L136 72Q153 57 173 48T224 38Q257 38 277 55T298 98Q298 123 279 142T216 181L155 208Q97 234
74 267T50 349Q50 382 65 411T109 462T175 496T258 509Q306 509 344 500T421 473L425 326H380L338 423Q327 431 309 440T263 450Q233 450 215 435T196 393Q196 373 209 357T266 322L326 297Q362 282 386 267T424 234T445 197T451 151Q451 116 435 85T389 31T319
-5T230 -19Z" />
<glyph unicode="&#x15c;" glyph-name="Scircumflex" horiz-adv-x="582" d="M164 736L268 874H373L480 736H408L319 797L231 736H164ZM33 240H83L161 78Q182 63 208 55T270 46Q319 46 349 71T380 142Q380 210 291 246L208 279Q130 311 92 354T53 472Q53 511 70
549T122 617T206 667T324 686Q376 686 420 674T510 640L516 453H466L405 594Q392 602 371 612T318 623Q269 623 241 597T212 530Q212 494 233 470T305 425L394 388Q439 369 468 349T515 307T540 259T547 206Q547 153 523 111T459 40T370 -5T272 -21Q198 -21 146
-4T48 42L33 240Z" />
<glyph unicode="&#x15d;" glyph-name="scircumflex" horiz-adv-x="487" d="M106 572L204 769H293L391 572H326L244 666L164 572H106ZM230 -19Q203 -19 181 -17T137 -9T95 3T48 21L31 186H78L136 72Q153 57 173 48T224 38Q257 38 277 55T298 98Q298 123 279 142T216
181L155 208Q97 234 74 267T50 349Q50 382 65 411T109 462T175 496T258 509Q306 509 344 500T421 473L425 326H380L338 423Q327 431 309 440T263 450Q233 450 215 435T196 393Q196 373 209 357T266 322L326 297Q362 282 386 267T424 234T445 197T451 151Q451 116
435 85T389 31T319 -5T230 -19Z" />
<glyph unicode="&#x15e;" glyph-name="Scedilla" horiz-adv-x="582" d="M150 -238Q165 -233 181 -226T209 -210T230 -189T239 -160Q239 -137 226 -124T201 -102L253 -21Q187 -19 139 -2T48 42L33 240H83L161 78Q182 63 208 55T270 46Q319 46 349 71T380 142Q380
210 291 246L208 279Q130 311 92 354T53 472Q53 511 70 549T122 617T206 667T324 686Q376 686 420 674T510 640L516 453H466L405 594Q392 602 371 612T318 623Q269 623 241 597T212 530Q212 494 233 470T305 425L394 388Q439 369 468 349T515 307T540 259T547 206Q547
158 527 119T472 51T395 4T307 -19L285 -62Q314 -70 335 -90T357 -142Q357 -175 339 -198T292 -237T229 -262T161 -277L150 -238Z" />
<glyph unicode="&#x15f;" glyph-name="scedilla" horiz-adv-x="487" d="M108 -237Q123 -232 139 -225T167 -209T188 -188T197 -159Q197 -136 184 -123T159 -101L212 -19Q189 -18 170 -15T131 -7T91 5T48 21L31 186H78L136 72Q153 57 173 48T224 38Q257 38 277
55T298 98Q298 123 279 142T216 181L155 208Q97 234 74 267T50 349Q50 382 65 411T109 462T175 496T258 509Q306 509 344 500T421 473L425 326H380L338 423Q327 431 309 440T263 450Q233 450 215 435T196 393Q196 373 209 357T266 322L326 297Q362 282 386 267T424
234T445 197T451 151Q451 119 438 91T399 40T340 3T266 -17L243 -61Q272 -69 293 -89T315 -141Q315 -174 297 -197T250 -236T187 -261T119 -276L108 -237Z" />
<glyph unicode="&#x160;" glyph-name="Scaron" horiz-adv-x="582" d="M33 240H83L161 78Q182 63 208 55T270 46Q319 46 349 71T380 142Q380 210 291 246L208 279Q130 311 92 354T53 472Q53 511 70 549T122 617T206 667T324 686Q376 686 420 674T510 640L516 453H466L405
594Q392 602 371 612T318 623Q269 623 241 597T212 530Q212 494 233 470T305 425L394 388Q439 369 468 349T515 307T540 259T547 206Q547 153 523 111T459 40T370 -5T272 -21Q198 -21 146 -4T48 42L33 240ZM474 874L370 736H265L161 874H228L319 812L409 874H474Z"
/>
<glyph unicode="&#x161;" glyph-name="scaron" horiz-adv-x="487" d="M230 -19Q203 -19 181 -17T137 -9T95 3T48 21L31 186H78L136 72Q153 57 173 48T224 38Q257 38 277 55T298 98Q298 123 279 142T216 181L155 208Q97 234 74 267T50 349Q50 382 65 411T109 462T175
496T258 509Q306 509 344 500T421 473L425 326H380L338 423Q327 431 309 440T263 450Q233 450 215 435T196 393Q196 373 209 357T266 322L326 297Q362 282 386 267T424 234T445 197T451 151Q451 116 435 85T389 31T319 -5T230 -19ZM385 769L287 572H198L100 769H165L246
674L327 769H385Z" />
<glyph unicode="&#x162;" glyph-name="Tcommaaccent" horiz-adv-x="718" d="M586 664L682 671L688 468H638L579 605H445V67L548 52V0H170V52L272 66V605H139L80 468H30L36 671L130 664H586ZM251 -248Q300 -231 319 -213T339 -172Q339 -149 319 -138T277 -126V-117Q284
-82 307 -69T359 -56Q400 -56 424 -78T448 -139Q448 -184 405 -222T264 -284L251 -248Z" />
<glyph unicode="&#x163;" glyph-name="tcommaaccent" horiz-adv-x="370" d="M191 -14Q122 -14 95 19T69 113L74 429H4V480L75 503L182 641H229V490H352V423H231V152Q231 128 238 114T256 92T280 82T308 79Q318 79 326 79T342 80Q350 81 356 82L367 32Q342 19 314
9Q290 0 258 -7T191 -14ZM336 8Q385 25 404 43T424 84Q424 107 404 118T362 130V139Q369 174 392 187T444 200Q485 200 509 178T533 117Q533 72 490 34T349 -28L336 8Z" />
<glyph unicode="&#x164;" glyph-name="Tcaron" horiz-adv-x="718" d="M586 664L682 671L688 468H638L579 605H445V67L548 52V0H170V52L272 66V605H139L80 468H30L36 671L130 664H586ZM513 874L409 736H304L200 874H267L358 812L448 874H513Z" />
<glyph unicode="&#x165;" glyph-name="tcaron" horiz-adv-x="370" d="M306 563L328 747H438V722L345 563H306ZM191 -14Q122 -14 95 19T69 113L74 429H4V480L75 503L182 641H229V490H352V423H231V152Q231 128 238 114T256 92T280 82T308 79Q318 79 326 79T342 80Q350
81 356 82L367 32Q342 19 314 9Q290 0 258 -7T191 -14Z" />
<glyph unicode="&#x166;" glyph-name="Tbar" horiz-adv-x="718" d="M134 388H272V605H139L80 468H30L36 671L130 664H586L682 671L688 468H638L579 605H445V388H582V329H445V67L548 52V0H170V52L272 66V329H134V388Z" />
<glyph unicode="&#x167;" glyph-name="tbar" horiz-adv-x="370" d="M4 349H72L74 429H4V480L75 503L182 641H229V490H352V423H231V349H352V284H231V152Q231 128 238 114T256 92T280 82T308 79Q318 79 326 79T342 80Q350 81 356 82L367 32Q342 19 314 9Q290 0 258
-7T191 -14Q122 -14 95 19T69 113L71 284H4V349Z" />
<glyph unicode="&#x168;" glyph-name="Utilde" horiz-adv-x="776" d="M395 -21Q240 -21 170 49T99 266V597L16 612V664H352V612L272 597V258Q272 169 310 117T429 64Q599 64 597 275L594 585L470 615V664H761V612L679 591V287Q679 218 662 161T610 64T522 1T395
-21ZM387 764Q349 776 328 779T295 778T275 763T259 735L222 749L225 762Q237 808 254 832T294 865T344 871T404 859L435 850Q474 838 497 835T533 835T553 851T570 882L609 871L605 854Q593 808 575 783T534 748T481 741T416 755L387 764Z" />
<glyph unicode="&#x169;" glyph-name="utilde" horiz-adv-x="649" d="M412 74Q403 62 389 47T353 18T305 -5T243 -15Q215 -15 187 -7T135 19T97 68T82 145V416L14 430V478L242 504V190Q244 142 261 112T324 82Q354 82 373 92T403 111V416L328 429V478L563 503V83L633
68V18L456 -17L412 74ZM298 608Q267 617 247 623T212 628T189 615T170 581L133 600L138 613Q155 657 173 681T212 716T258 724T315 711L346 701Q378 691 399 686T436 682T461 696T482 734L519 715L514 700Q498 653 480 627T439 592T389 585T327 599L298 608Z" />
<glyph unicode="&#x16a;" glyph-name="Umacron" horiz-adv-x="776" d="M395 -21Q240 -21 170 49T99 266V597L16 612V664H352V612L272 597V258Q272 169 310 117T429 64Q599 64 597 275L594 585L470 615V664H761V612L679 591V287Q679 218 662 161T610 64T522 1T395
-21ZM270 840H560V763H270V840Z" />
<glyph unicode="&#x16b;" glyph-name="umacron" horiz-adv-x="649" d="M181 694H471V614H181V694ZM412 74Q403 62 389 47T353 18T305 -5T243 -15Q215 -15 187 -7T135 19T97 68T82 145V416L14 430V478L242 504V190Q244 142 261 112T324 82Q354 82 373 92T403 111V416L328
429V478L563 503V83L633 68V18L456 -17L412 74Z" />
<glyph unicode="&#x16c;" glyph-name="Ubreve" horiz-adv-x="776" d="M411 725Q372 725 345 738T300 772T274 821T265 876H315Q326 850 349 832T417 813Q464 813 486 832T518 876H566Q565 848 556 821T529 773T481 738T411 725ZM395 -21Q240 -21 170 49T99 266V597L16
612V664H352V612L272 597V258Q272 169 310 117T429 64Q599 64 597 275L594 585L470 615V664H761V612L679 591V287Q679 218 662 161T610 64T522 1T395 -21Z" />
<glyph unicode="&#x16d;" glyph-name="ubreve" horiz-adv-x="649" d="M321 566Q283 566 258 579T217 615T195 667T188 729H239Q247 692 268 671T327 649Q365 649 386 670T415 729H464Q464 696 456 667T431 615T386 579T321 566ZM412 74Q403 62 389 47T353 18T305
-5T243 -15Q215 -15 187 -7T135 19T97 68T82 145V416L14 430V478L242 504V190Q244 142 261 112T324 82Q354 82 373 92T403 111V416L328 429V478L563 503V83L633 68V18L456 -17L412 74Z" />
<glyph unicode="&#x16e;" glyph-name="Uring" horiz-adv-x="776" d="M295 826Q295 851 304 872T330 909T368 934T415 943Q440 943 462 934T500 910T526 873T535 826Q535 801 526 780T500 742T462 717T415 708Q389 708 368 717T330 741T304 778T295 826ZM352 826Q352
797 370 779T415 760Q441 760 459 778T478 826Q478 855 460 873T415 891Q389 891 371 873T352 826ZM395 -21Q240 -21 170 49T99 266V597L16 612V664H352V612L272 597V258Q272 169 310 117T429 64Q599 64 597 275L594 585L470 615V664H761V612L679 591V287Q679 218
662 161T610 64T522 1T395 -21Z" />
<glyph unicode="&#x16f;" glyph-name="uring" horiz-adv-x="649" d="M206 674Q206 699 215 720T241 757T279 782T326 791Q351 791 373 783T411 758T437 721T446 674Q446 649 437 628T411 591T373 566T326 557Q300 557 279 565T241 590T215 627T206 674ZM263 674Q263
645 281 627T326 609Q352 609 370 627T389 674Q389 703 371 721T326 739Q300 739 282 721T263 674ZM412 74Q403 62 389 47T353 18T305 -5T243 -15Q215 -15 187 -7T135 19T97 68T82 145V416L14 430V478L242 504V190Q244 142 261 112T324 82Q354 82 373 92T403 111V416L328
429V478L563 503V83L633 68V18L456 -17L412 74Z" />
<glyph unicode="&#x170;" glyph-name="Uhungarumlaut" horiz-adv-x="776" d="M395 -21Q240 -21 170 49T99 266V597L16 612V664H352V612L272 597V258Q272 169 310 117T429 64Q599 64 597 275L594 585L470 615V664H761V612L679 591V287Q679 218 662 161T610 64T522
1T395 -21ZM468 875V856L358 736H293L353 875H468ZM625 875V856L515 736H449L509 875H625Z" />
<glyph unicode="&#x171;" glyph-name="uhungarumlaut" horiz-adv-x="649" d="M370 769V751L263 572H211L262 769H370ZM535 769V751L428 572H376L427 769H535ZM412 74Q403 62 389 47T353 18T305 -5T243 -15Q215 -15 187 -7T135 19T97 68T82 145V416L14 430V478L242
504V190Q244 142 261 112T324 82Q354 82 373 92T403 111V416L328 429V478L563 503V83L633 68V18L456 -17L412 74Z" />
<glyph unicode="&#x172;" glyph-name="Uogonek" horiz-adv-x="776" d="M285 -168Q285 -131 307 -98T382 -21Q233 -18 166 51T99 266V597L16 612V664H352V612L272 597V258Q272 169 310 117T429 64Q599 64 597 275L594 585L470 615V664H761V612L679 591V287Q679
225 666 173T624 81T552 16T451 -17Q417 -53 405 -76T393 -120Q393 -145 408 -158T445 -172Q470 -172 489 -161T534 -125L558 -147Q545 -168 531 -189T498 -228T455 -257T398 -268Q346 -268 316 -239T285 -168Z" />
<glyph unicode="&#x173;" glyph-name="uogonek" horiz-adv-x="649" d="M335 -168Q335 -128 362 -92T451 -6L412 74Q403 62 389 47T353 18T305 -5T243 -15Q215 -15 187 -7T135 19T97 68T82 145V416L14 430V478L242 504V190Q244 142 261 112T324 82Q354 82 373 92T403
111V416L328 429V478L563 503V83L633 68V18L512 -6Q471 -47 457 -72T443 -120Q443 -145 458 -158T495 -172Q520 -172 539 -161T584 -125L608 -147Q595 -168 581 -189T548 -228T505 -257T448 -268Q396 -268 366 -239T335 -168Z" />
<glyph unicode="&#x174;" glyph-name="Wcircumflex" horiz-adv-x="1107" d="M556 413L415 -10H293L81 597L5 612V664H343V612L266 597L407 163L521 512L491 598L416 612V664H751V611L675 596L820 164L945 584L858 611V664H1102V612L1027 590L828 -10H706L556 413ZM431
736L535 874H640L747 736H675L586 797L498 736H431Z" />
<glyph unicode="&#x175;" glyph-name="wcircumflex" horiz-adv-x="867" d="M337 572L435 769H524L622 572H557L475 666L395 572H337ZM627 163Q629 158 629 154T631 145Q632 141 633 136H635Q635 141 637 145Q638 149 639 153T643 163L720 412L648 436V490H864V436L810
426L661 -9H542L447 250Q444 257 443 262T439 272Q437 276 437 281H435Q434 276 432 272Q430 267 428 262T424 250L321 -9H193L53 426L4 437V490H299V436L223 426L291 163Q293 157 293 151T296 140Q297 134 299 128H301Q303 134 305 140Q307 145 308 151T312 163L435
492H518L627 163Z" />
<glyph unicode="&#x176;" glyph-name="Ycircumflex" horiz-adv-x="695" d="M240 736L344 874H449L556 736H484L395 797L307 736H240ZM435 280V66L527 52V0H169V52L261 66V246L70 600L6 612V664H353V613L270 598L396 327L533 593L445 613V664H689V613L613 594L435 280Z" />
<glyph unicode="&#x177;" glyph-name="ycircumflex" horiz-adv-x="559" d="M188 572L286 769H375L473 572H408L326 666L246 572H188ZM363 437V490H554V436L512 426L302 -102Q284 -148 269 -178T236 -227T200 -254T153 -262Q115 -262 87 -239T59 -177Q59 -140 81
-120T135 -100Q162 -100 179 -116T210 -155H214L253 -65L48 426L5 437V490H288V436L222 426L325 128H330L432 419L363 437Z" />
<glyph unicode="&#x178;" glyph-name="Ydieresis" horiz-adv-x="695" d="M273 724Q242 724 220 746T198 799Q198 830 220 852T273 875Q303 875 325 853T348 799Q348 768 326 746T273 724ZM518 724Q488 724 466 746T443 799Q443 830 465 852T518 875Q549 875 571
853T594 799Q594 768 572 746T518 724ZM435 280V66L527 52V0H169V52L261 66V246L70 600L6 612V664H353V613L270 598L396 327L533 593L445 613V664H689V613L613 594L435 280Z" />
<glyph unicode="&#x179;" glyph-name="Zacute" horiz-adv-x="640" d="M497 875V853L370 736H291L361 875H497ZM23 59L393 600H156L90 452H42L56 671L151 664H619V649L222 65H472L566 235H613L576 -7L474 0H23V59Z" />
<glyph unicode="&#x17a;" glyph-name="zacute" horiz-adv-x="539" d="M30 0V51L298 431H153L88 312H45L55 498L158 490H504V466L214 61H381L452 187H498L476 -4L381 0H30ZM413 769V751L300 572H239L288 769H413Z" />
<glyph unicode="&#x17b;" glyph-name="Zdotaccent" horiz-adv-x="640" d="M337 738Q295 738 270 764T245 826Q245 862 270 887T337 913Q379 913 404 888T429 826Q429 790 404 764T337 738ZM23 59L393 600H156L90 452H42L56 671L151 664H619V649L222 65H472L566
235H613L576 -7L474 0H23V59Z" />
<glyph unicode="&#x17c;" glyph-name="zdotaccent" horiz-adv-x="539" d="M275 572Q233 572 208 598T183 660Q183 696 208 721T275 747Q317 747 342 722T367 660Q367 624 342 598T275 572ZM30 0V51L298 431H153L88 312H45L55 498L158 490H504V466L214 61H381L452
187H498L476 -4L381 0H30Z" />
<glyph unicode="&#x17d;" glyph-name="Zcaron" horiz-adv-x="640" d="M23 59L393 600H156L90 452H42L56 671L151 664H619V649L222 65H472L566 235H613L576 -7L474 0H23V59ZM491 874L387 736H282L178 874H245L336 812L426 874H491Z" />
<glyph unicode="&#x17e;" glyph-name="zcaron" horiz-adv-x="539" d="M30 0V51L298 431H153L88 312H45L55 498L158 490H504V466L214 61H381L452 187H498L476 -4L381 0H30ZM415 769L317 572H228L130 769H195L276 674L357 769H415Z" />
<glyph unicode="&#x192;" glyph-name="florin" horiz-adv-x="600" d="M63 325H199L205 361Q217 443 256 504T344 605T439 666T514 686Q539 686 555 680T580 664T594 640T598 614Q598 598 592 583T574 555T548 533T519 518Q508 560 494 586T456 612Q441 612 428
601T403 565T382 496T363 388L354 325H522L511 263H346L330 144Q314 23 274 -55T185 -179T91 -242T17 -260Q-25 -260 -50 -237T-75 -181Q-75 -149 -51 -128T10 -99Q25 -141 38 -167T74 -194Q94 -194 112 -164T141 -61L190 263H53L63 325Z" />
<glyph unicode="&#x1fa;" glyph-name="Aringacute" horiz-adv-x="772" d="M6 49L72 70L306 657L374 661L447 681L691 64L766 51V0H420V53L505 66L454 206H210L165 79L269 53V0H6V49ZM237 280H428L333 545H332L237 280ZM265 826Q265 851 274 872T300 909T338 934T385
943Q410 943 432 934T470 910T496 873T505 826Q505 801 496 780T470 742T432 717T385 708Q359 708 338 717T300 741T274 778T265 826ZM322 826Q322 797 340 779T385 760Q411 760 429 778T448 826Q448 855 430 873T385 891Q359 891 341 873T322 826ZM551 1114V1092L424
975H345L415 1114H551Z" />
<glyph unicode="&#x1fb;" glyph-name="aringacute" horiz-adv-x="568" d="M181 -13Q151 -13 125 -4T80 23T49 66T37 122Q37 153 48 176T81 216T131 244T197 264L321 293V329Q321 354 316 376T301 414T275 439T236 448Q223 448 208 445T186 438L185 330Q174 325
156 321T115 316Q88 316 72 329T55 369Q55 392 75 416T128 460T206 493T299 506Q399 506 440 462T481 329V102Q481 76 489 71T520 65H559V25Q537 14 513 6Q493 -2 469 -7T423 -13Q398 -13 381 -6T353 13T336 41T326 77H322Q309 60 296 44T267 16T230 -5T181 -13ZM263
80Q284 80 298 89T321 108V244L274 231Q227 217 210 199T193 154Q193 119 214 100T263 80ZM162 922Q162 947 171 968T197 1005T235 1030T282 1039Q307 1039 329 1031T367 1006T393 969T402 922Q402 897 393 876T367 839T329 814T282 805Q256 805 235 813T197 838T171
875T162 922ZM219 922Q219 893 237 875T282 857Q308 857 326 875T345 922Q345 951 327 969T282 987Q256 987 238 969T219 922ZM448 963V941L321 824H242L312 963H448Z" />
<glyph unicode="&#x1fc;" glyph-name="AEacute" horiz-adv-x="1051" d="M654 290V65H877L965 210H1015L980 0H399V52L485 66V290H283L174 80L278 53V0H6V49L73 71L371 589L260 612V664H881L979 671V477H930L878 605H654V348H772L799 433H844V211H796L772 290H654ZM463
605L314 348H485V605H463ZM759 875V853L632 736H553L623 875H759Z" />
<glyph unicode="&#x1fd;" glyph-name="aeacute" horiz-adv-x="818" d="M182 -13Q149 -13 122 -3T77 26T48 69T37 121Q37 152 48 175T80 215T130 243T197 263L322 291V327Q322 387 299 416T236 446Q218 446 205 442T186 436L185 330Q174 325 157 321T118 316Q91
316 73 329T55 371Q55 395 75 419T128 462T202 494T285 506Q348 506 382 488T436 437Q462 469 498 489T584 509Q634 509 670 491T729 443T764 375T778 298Q774 297 755 295T709 289T648 283T581 276T517 269T466 263V240Q480 171 523 134T632 97Q661 97 684 105T725
124Q744 135 759 151L783 124Q771 106 753 82T709 37T644 0T553 -15Q476 -15 429 16T357 91Q340 73 321 55T281 21T235 -3T182 -13ZM264 81Q293 81 311 95T341 126Q330 152 326 179T322 229V244L280 233Q238 222 216 205T193 154Q193 119 214 100T264 81ZM554 447Q538
447 523 438T495 411T475 368T466 310L627 329Q626 383 608 415T554 447ZM575 769V751L462 572H401L450 769H575Z" />
<glyph unicode="&#x1fe;" glyph-name="Oslashacute" horiz-adv-x="788" d="M129 84Q87 128 64 187T40 321Q40 403 68 470T146 585T259 658T395 684Q458 684 512 667T612 618L677 690H747L652 584Q697 539 722 478T748 342Q748 257 720 190T642 75T528 3T390 -22Q327
-22 271 -4T168 49L95 -32H24L129 84ZM568 319Q568 361 563 398T547 468L258 149Q281 99 318 69T408 39Q448 39 478 59T528 117T558 206T568 319ZM384 622Q346 622 316 602T265 545T233 454T222 333Q222 263 238 205L525 522Q499 570 463 596T384 622ZM549 875V853L422
736H343L413 875H549Z" />
<glyph unicode="&#x1ff;" glyph-name="oslashacute" horiz-adv-x="592" d="M20 -42L100 52Q63 87 45 135T26 237Q26 294 46 343T103 429T188 486T296 507Q342 507 382 496T454 465L510 530H573L492 436Q527 402 546 356T566 254Q566 197 546 147T489 61T404 3T296
-18Q248 -18 209 -8T138 23L83 -42H20ZM188 269Q188 214 199 167L375 372Q359 407 336 426T282 446Q238 446 213 400T188 269ZM310 43Q338 43 355 60T383 102T398 158T402 216Q402 245 400 270T392 319L217 114Q232 81 255 62T310 43ZM434 769V751L321 572H260L309
769H434Z" />
<glyph unicode="&#x218;" glyph-name="Scommaaccent" horiz-adv-x="582" d="M33 240H83L161 78Q182 63 208 55T270 46Q319 46 349 71T380 142Q380 210 291 246L208 279Q130 311 92 354T53 472Q53 511 70 549T122 617T206 667T324 686Q376 686 420 674T510 640L516
453H466L405 594Q392 602 371 612T318 623Q269 623 241 597T212 530Q212 494 233 470T305 425L394 388Q439 369 468 349T515 307T540 259T547 206Q547 153 523 111T459 40T370 -5T272 -21Q198 -21 146 -4T48 42L33 240ZM180 8Q229 25 248 43T268 84Q268 107 248
118T206 130V139Q213 174 236 187T288 200Q329 200 353 178T377 117Q377 72 334 34T193 -28L180 8Z" />
<glyph unicode="&#x219;" glyph-name="scommaaccent" horiz-adv-x="487" d="M230 -19Q203 -19 181 -17T137 -9T95 3T48 21L31 186H78L136 72Q153 57 173 48T224 38Q257 38 277 55T298 98Q298 123 279 142T216 181L155 208Q97 234 74 267T50 349Q50 382 65 411T109
462T175 496T258 509Q306 509 344 500T421 473L425 326H380L338 423Q327 431 309 440T263 450Q233 450 215 435T196 393Q196 373 209 357T266 322L326 297Q362 282 386 267T424 234T445 197T451 151Q451 116 435 85T389 31T319 -5T230 -19ZM134 8Q183 25 202 43T222
84Q222 107 202 118T160 130V139Q167 174 190 187T242 200Q283 200 307 178T331 117Q331 72 288 34T147 -28L134 8Z" />
<glyph unicode="&#x21a;" glyph-name="uni021A" horiz-adv-x="718" d="M586 664L682 671L688 468H638L579 605H445V67L548 52V0H170V52L272 66V605H139L80 468H30L36 671L130 664H586ZM251 -248Q300 -231 319 -213T339 -172Q339 -149 319 -138T277 -126V-117Q284
-82 307 -69T359 -56Q400 -56 424 -78T448 -139Q448 -184 405 -222T264 -284L251 -248Z" />
<glyph unicode="&#x21b;" glyph-name="uni021B" horiz-adv-x="370" d="M191 -14Q122 -14 95 19T69 113L74 429H4V480L75 503L182 641H229V490H352V423H231V152Q231 128 238 114T256 92T280 82T308 79Q318 79 326 79T342 80Q350 81 356 82L367 32Q342 19 314 9Q290
0 258 -7T191 -14ZM336 8Q385 25 404 43T424 84Q424 107 404 118T362 130V139Q369 174 392 187T444 200Q485 200 509 178T533 117Q533 72 490 34T349 -28L336 8Z" />
<glyph unicode="&#x237;" glyph-name="uni0237" horiz-adv-x="321" d="M-6 -196Q13 -186 29 -169T58 -123T77 -52T84 51V395L18 411V463L244 509V66Q244 -6 229 -57T191 -143Q167 -179 138 -199T82 -229T37 -241T14 -244L-6 -196Z" />
<glyph unicode="&#x2c6;" glyph-name="circumflex" horiz-adv-x="400" d="M57 572L155 769H244L342 572H277L195 666L115 572H57Z" />
<glyph unicode="&#x2c7;" glyph-name="caron" horiz-adv-x="400" d="M342 769L244 572H155L57 769H122L203 674L284 769H342Z" />
<glyph unicode="&#x2d8;" glyph-name="breve" horiz-adv-x="400" d="M195 566Q157 566 132 579T91 615T69 667T62 729H113Q121 692 142 671T201 649Q239 649 260 670T289 729H338Q338 696 330 667T305 615T260 579T195 566Z" />
<glyph unicode="&#x2d9;" glyph-name="dotaccent" horiz-adv-x="400" d="M200 572Q158 572 133 598T108 660Q108 696 133 721T200 747Q242 747 267 722T292 660Q292 624 267 598T200 572Z" />
<glyph unicode="&#x2da;" glyph-name="ring" horiz-adv-x="400" d="M80 674Q80 699 89 720T115 757T153 782T200 791Q225 791 247 783T285 758T311 721T320 674Q320 649 311 628T285 591T247 566T200 557Q174 557 153 565T115 590T89 627T80 674ZM137 674Q137
645 155 627T200 609Q226 609 244 627T263 674Q263 703 245 721T200 739Q174 739 156 721T137 674Z" />
<glyph unicode="&#x2db;" glyph-name="ogonek" horiz-adv-x="400" d="M284 47Q250 15 228 -8T193 -50T175 -82T170 -111Q170 -136 185 -149T222 -163Q247 -163 266 -152T311 -116L335 -138Q322 -159 308 -180T275 -219T232 -248T175 -259Q123 -259 93 -230T62
-159Q62 -135 71 -113T102 -67T156 -16T237 47H284Z" />
<glyph unicode="&#x2dc;" glyph-name="tilde" horiz-adv-x="400" d="M172 608Q141 617 121 623T86 628T63 615T44 581L7 600L12 613Q29 657 47 681T86 716T132 724T189 711L220 701Q252 691 273 686T310 682T335 696T356 734L393 715L388 700Q372 653 354 627T313
592T263 585T201 599L172 608Z" />
<glyph unicode="&#x2dd;" glyph-name="hungarumlaut" horiz-adv-x="400" d="M199 769V751L92 572H40L91 769H199ZM364 769V751L257 572H205L256 769H364Z" />
</font>
</defs>
</svg>
