<?xml version="1.0" standalone="no"?> <!DOCTYPE svg PUBLIC "-//W3C//DTD SVG 1.0//EN" "http://www.w3.org/TR/2001/REC-SVG-20010904/DTD/svg10.dtd" > <svg xmlns="http://www.w3.org/2000/svg" width="100%" height="100%">
<defs >
<font horiz-adv-x="490" ><font-face
    font-family=""
    units-per-em="1000"
    panose-1="2 0 3 3 8 0 0 2 0 4"
    ascent="760"
    descent="-240"
    alphabetic="0" />
<missing-glyph horiz-adv-x="180" />
<glyph unicode=" " glyph-name="space" horiz-adv-x="180" />
<glyph unicode="!" glyph-name="exclam" horiz-adv-x="252" d="M168 690L140 173H113L85 690H168ZM125 -13Q100 -13 83 4T66 46Q66 71 83 88T125 105Q150 105 167 88T184 46Q184 21 167 4T125 -13Z" />
<glyph unicode="&quot;" glyph-name="quotedbl" horiz-adv-x="355" d="M50 727H138L96 493H77L50 727ZM217 727H305L263 493H244L217 727Z" />
<glyph unicode="#" glyph-name="numbersign" horiz-adv-x="580" d="M68 439H198L226 594H258L230 439H388L416 594H448L420 439H545V407H415L380 210H504V178H374L343 0H311L342 178H184L153 0H121L152 178H28V210H158L193 407H68V439ZM190 210H348L383 407H225L190 210Z" />
<glyph unicode="$" glyph-name="dollar" horiz-adv-x="496" d="M37 198H54L93 59Q122 40 154 27T235 11V283L191 297Q147 310 120 328T77 367T56 414T50 467Q50 499 62 528T97 581T155 619T235 638V760H262V640H265Q292 640 317 635T363 623T402 609T431 596V444H415L373
571Q357 582 329 597T262 614V365L312 350Q395 324 429 285T463 185Q463 143 445 109T399 48T334 6T262 -14V-119H235V-16Q175 -16 127 0T37 38V198ZM262 275V11Q287 13 309 22T349 49T377 90T388 147Q388 196 360 225T277 271L262 275ZM120 491Q120 448 142 422T219
379L235 374V613Q184 608 152 575T120 491Z" />
<glyph unicode="%" glyph-name="percent" horiz-adv-x="736" d="M568 630H604L164 -50H128L568 630ZM183 582Q163 582 148 571T123 542T108 500T103 451Q103 418 109 391T126 343T154 311T192 299Q211 299 226 309T250 338T265 380T270 430Q270 505 245 543T183
582ZM183 276Q153 276 126 287T79 320T47 370T35 434Q35 471 48 502T82 556T132 592T189 605Q224 605 252 592T299 556T328 506T338 447Q338 411 326 380T292 326T243 290T183 276ZM546 287Q526 287 511 276T486 247T471 205T466 156Q466 123 472 96T489 48T517
16T555 4Q574 4 589 14T613 43T628 85T633 135Q633 210 608 248T546 287ZM546 -19Q516 -19 489 -8T442 25T410 75T398 139Q398 176 411 207T445 261T495 297T552 310Q587 310 615 297T662 261T691 211T701 152Q701 116 689 85T655 31T606 -5T546 -19Z" />
<glyph unicode="&amp;" glyph-name="ampersand" horiz-adv-x="729" d="M630 425L521 222Q512 205 503 189T483 156Q526 101 560 69T625 37Q654 37 677 51T723 83L734 71Q720 57 703 42T668 15T629 -5T587 -12Q564 -11 546 -5T511 13T476 45T436 91Q396 43 345
12T227 -20Q176 -20 139 -4T78 39T42 96T30 158Q30 192 45 221T84 277T140 325T203 369Q178 394 159 414T128 454T109 494T103 537Q104 572 120 599T162 645T220 674T284 684Q317 684 345 676T394 654T426 619T438 575Q438 549 429 529T401 490T353 449T285 399Q306
376 330 348T383 285L466 177Q477 195 488 216T513 261L599 427L503 446V463H716V446L630 425ZM337 219Q302 263 273 295T218 354Q190 333 170 315T137 278T117 238T110 189Q110 160 120 132T149 83T197 48T264 34Q312 34 348 52T420 111Q403 134 383 161T337 219ZM176
567Q176 548 182 531T201 496T230 458T271 414Q298 437 316 456T347 493T364 528T369 567Q369 584 363 601T344 632T313 654T273 663Q232 663 204 639T176 567Z" />
<glyph unicode="&apos;" glyph-name="quotesingle" horiz-adv-x="188" d="M50 727H138L96 493H77L50 727Z" />
<glyph unicode="(" glyph-name="parenleft" horiz-adv-x="309" d="M272 -180Q186 -84 136 28T85 273Q85 407 138 522T278 732H304Q266 678 237 627T189 520T159 405T149 273Q149 205 158 146T187 33T234 -74T300 -180H272Z" />
<glyph unicode=")" glyph-name="parenright" horiz-adv-x="309" d="M37 732Q124 636 174 524T224 279Q224 145 172 30T32 -180H5Q43 -126 72 -75T121 32T151 147T161 279Q161 347 152 406T123 519T76 626T9 732H37Z" />
<glyph unicode="*" glyph-name="asterisk" horiz-adv-x="383" d="M234 511L245 377L234 375L183 501L59 446L53 456L153 541L69 643L77 652L190 581L259 696L270 692L239 562L368 533L367 521L234 511Z" />
<glyph unicode="+" glyph-name="plus" horiz-adv-x="580" d="M310 216V0H270V216H53V251H270V467H310V251H527V216H310Z" />
<glyph unicode="," glyph-name="comma" horiz-adv-x="229" d="M31 -132Q72 -112 95 -85T118 -25Q118 2 100 19T49 45Q47 56 49 67T57 88T76 104T105 110Q136 110 158 85T180 17Q180 -32 148 -74T39 -148L31 -132Z" />
<glyph unicode="-" glyph-name="hyphen" horiz-adv-x="353" d="M50 293H303V238H50V293Z" />
<glyph unicode="." glyph-name="period" horiz-adv-x="234" d="M120 -13Q95 -13 78 4T61 46Q61 71 78 88T120 105Q145 105 162 88T179 46Q179 21 162 4T120 -13Z" />
<glyph unicode="/" glyph-name="slash" horiz-adv-x="415" d="M-42 -192L374 745L401 733L-15 -204L-42 -192Z" />
<glyph unicode="0" glyph-name="zero" horiz-adv-x="586" d="M281 483Q246 483 218 466T169 419T137 349T125 263Q125 209 139 162T177 80T233 25T304 5Q339 5 368 22T417 70T449 140T461 225Q461 282 447 329T407 411T350 464T281 483ZM293 -20Q237 -20 190 -2T109
50T55 132T35 242Q35 296 56 344T112 428T194 486T292 508Q352 508 399 488T481 433T533 351T551 248Q551 193 530 145T474 60T392 2T293 -20Z" />
<glyph unicode="1" glyph-name="one" horiz-adv-x="330" d="M218 35L320 19V0H35V19L140 33V449H27V467L216 504H218V35Z" />
<glyph unicode="2" glyph-name="two" horiz-adv-x="412" d="M123 72H394V0H32V9L110 90Q183 166 221 226T259 339Q259 387 231 416T161 445Q123 445 97 423T51 370L36 377Q44 401 58 424T91 466T136 496T193 508Q224 508 250 498T296 469T325 427T336 374Q336
348 330 324T306 273T260 213T186 134L123 72Z" />
<glyph unicode="3" glyph-name="three" horiz-adv-x="389" d="M98 -200Q58 -200 37 -180T15 -139Q15 -122 26 -110T53 -96Q82 -135 121 -173Q156 -170 185 -157T236 -122T270 -73T282 -11Q282 25 268 53T229 99T169 128T93 138V179L116 185Q177 220 215 261T253
352Q253 392 225 418T156 445Q118 445 93 423T47 370L32 377Q40 401 54 424T89 466T135 496T192 508Q225 508 251 498T295 469T322 428T332 379Q332 351 322 329T296 287T260 253T217 223L178 198V195Q211 192 243 180T300 146T341 95T357 26Q357 -19 333 -59T270
-131T187 -181T98 -200Z" />
<glyph unicode="4" glyph-name="four" horiz-adv-x="533" d="M326 12H9V30L389 507H399V73H539V12H399V-196H326V12ZM326 73V392L72 73H326Z" />
<glyph unicode="5" glyph-name="five" horiz-adv-x="342" d="M195 76Q195 106 188 135T162 197T115 264T42 340L111 496H292V429H106L93 401Q141 353 175 314T230 238T262 168T273 95Q273 29 247 -21T181 -109T94 -174T3 -222L-5 -206Q15 -194 48 -172T114 -116T171
-35T195 76Z" />
<glyph unicode="6" glyph-name="six" horiz-adv-x="522" d="M515 666Q450 638 391 601T282 519T197 425T143 322Q174 357 214 379T303 401Q346 401 380 385T438 342T474 280T487 207Q487 167 472 127T427 54T356 1T260 -20Q216 -20 177 -5T107 41T58 115T40 216Q40
304 80 378T187 512T338 616T509 686L515 666ZM262 356Q229 356 194 338T134 288Q127 260 127 226Q127 171 139 130T171 61T219 20T277 6Q331 6 366 48T402 169Q402 215 391 250T362 308T318 344T262 356Z" />
<glyph unicode="7" glyph-name="seven" horiz-adv-x="435" d="M45 -155L365 419H25V496H425V491L138 -63L81 -173L45 -155Z" />
<glyph unicode="8" glyph-name="eight" horiz-adv-x="465" d="M20 139Q20 170 29 195T58 241T107 284T176 330L141 356Q93 391 71 428T48 511Q48 547 64 577T108 631T172 667T250 680Q290 680 322 669T378 640T413 596T426 541Q426 513 416 490T386 445T340 401T279
353L329 318Q379 281 409 243T440 156Q440 115 422 82T374 27T307 -8T231 -20Q183 -20 144 -8T78 26T35 77T20 139ZM195 317Q145 279 123 240T101 155Q101 120 113 92T144 45T189 15T240 5Q274 5 297 16T336 44T357 82T364 123Q364 168 331 205T236 287L195 317ZM122
543Q122 498 146 465T216 399L259 367Q304 409 326 445T348 530Q348 560 338 583T312 622T274 646T230 655Q211 655 192 648T158 627T132 592T122 543Z" />
<glyph unicode="9" glyph-name="nine" horiz-adv-x="518" d="M20 -183Q83 -155 141 -119T247 -40T330 53T382 161Q353 129 316 107T227 85Q184 85 149 100T90 142T52 204T39 277Q39 317 54 357T99 430T171 483T268 504Q311 504 350 489T419 444T465 371T483 272Q483
182 447 106T349 -30T204 -135T27 -204L20 -183ZM270 132Q299 132 332 149T390 197Q396 227 396 258Q396 313 385 354T355 423T309 464T251 478Q197 478 161 434T124 310Q124 266 135 233T165 178T212 144T270 132Z" />
<glyph unicode=":" glyph-name="colon" horiz-adv-x="234" d="M120 -13Q95 -13 78 4T61 46Q61 71 78 88T120 105Q145 105 162 88T179 46Q179 21 162 4T120 -13ZM120 345Q95 345 78 362T61 404Q61 429 78 446T120 463Q145 463 162 446T179 404Q179 379 162 362T120 345Z" />
<glyph unicode=";" glyph-name="semicolon" horiz-adv-x="249" d="M51 -132Q92 -112 115 -85T138 -25Q138 2 120 19T69 45Q67 56 69 67T77 88T96 104T125 110Q156 110 178 85T200 17Q200 -32 168 -74T59 -148L51 -132ZM127 345Q102 345 85 362T68 404Q68 429 85
446T127 463Q152 463 169 446T186 404Q186 379 169 362T127 345Z" />
<glyph unicode="&lt;" glyph-name="less" horiz-adv-x="580" d="M95 231L524 33V-5L52 214V249L524 467V430L95 231Z" />
<glyph unicode="=" glyph-name="equal" horiz-adv-x="580" d="M53 285V320H527V285H53ZM53 144V179H527V144H53Z" />
<glyph unicode="&gt;" glyph-name="greater" horiz-adv-x="580" d="M485 230L56 428V467L528 248V213L56 -5V31L485 230Z" />
<glyph unicode="?" glyph-name="question" horiz-adv-x="330" d="M64 687L79 684Q126 675 168 650T242 592T292 521T311 445Q311 365 231 333L128 291L137 173H113L74 348L204 397Q237 410 256 429T276 482Q276 500 268 516T241 547T187 574T100 596L64 602V687ZM123
-13Q98 -13 81 4T64 46Q64 71 81 88T123 105Q148 105 165 88T182 46Q182 21 165 4T123 -13Z" />
<glyph unicode="@" glyph-name="at" horiz-adv-x="921" d="M526 205H522Q514 193 504 177T476 138Q462 118 443 97T402 58T359 29T318 17Q279 17 261 42T242 105Q242 150 257 195T298 280T357 355T424 415T492 455T553 470Q574 470 591 461T623 441H624L639 482H683L583
148Q573 115 573 95T578 62T596 46T622 42Q646 42 680 57T747 107T802 196T825 330Q825 392 802 447T736 543T636 608T510 632Q437 632 366 602T240 517T150 385T115 213Q115 128 141 62T214 -49T324 -118T461 -142Q488 -142 513 -139T559 -131T596 -121T623 -111V-126Q613
-130 595 -137T553 -150T499 -162T436 -167Q361 -167 291 -147T168 -84T83 26T51 186Q51 252 70 312T124 425T204 521T303 594T413 641T526 658Q611 658 677 632T789 561T858 458T882 335Q882 264 854 206T784 105T691 40T598 17Q535 17 513 51T510 152L526 205ZM361
69Q376 69 395 82T436 118T478 168T517 228T550 289T573 345L589 396Q575 416 560 429T524 442Q492 442 457 413T392 339T343 237T323 125Q323 69 361 69Z" />
<glyph unicode="A" glyph-name="A" horiz-adv-x="632" d="M-24 19L53 36L281 669L310 675L346 683L580 32L656 17V0H409V19L489 32L417 238H163L95 38L213 19V0H-24V19ZM176 276H403L289 603H287L176 276Z" />
<glyph unicode="B" glyph-name="B" horiz-adv-x="577" d="M25 19L112 33V631L25 647V664L236 665Q311 665 361 655T442 625T486 580T499 523Q499 488 484 462T444 417T387 386T319 366V364Q361 360 402 349T475 318T528 265T549 186Q549 145 531 110T477 50T390
12T270 -2L25 0V19ZM198 346V50Q215 41 243 32T305 22Q377 22 415 62T454 173Q454 213 441 244T407 296T359 330T305 346H198ZM198 370Q248 370 287 377T355 401T397 445T412 512Q412 575 359 611T198 644V370Z" />
<glyph unicode="C" glyph-name="C" horiz-adv-x="702" d="M377 -22Q288 -22 225 8T120 86T60 192T40 308Q40 389 70 458T151 578T271 657T418 686Q447 686 476 682T534 670T586 652T630 631L639 467H620L563 602Q528 627 487 643T397 659Q341 659 293 634T209
565T153 463T133 337Q133 252 156 191T217 89T304 29T405 9Q455 9 497 28T568 67L646 222H665L637 44Q577 20 514 -1T377 -22Z" />
<glyph unicode="D" glyph-name="D" horiz-adv-x="737" d="M198 43Q229 31 260 28T320 25Q387 26 439 51T528 119T583 214T602 327Q602 415 570 477T482 578T353 631T198 642V43ZM25 19L112 33V631L25 646V664L308 666Q401 662 473 636T595 568T671 469T697 347Q697
268 668 203T583 92T443 20T253 -3L25 0V19Z" />
<glyph unicode="E" glyph-name="E" horiz-adv-x="588" d="M198 331V49Q206 40 216 35T243 27H440L531 193H550L507 0H25V19L112 33V631L25 647V664H449L515 669V480H497L450 637H198V362H344L375 469H392V230H375L344 331H198Z" />
<glyph unicode="F" glyph-name="F" horiz-adv-x="537" d="M198 326V32L303 18V0H25V19L112 33V631L25 647V664H460L511 672L518 475H501L449 637H198V357H344L378 470H395V219H378L344 326H198Z" />
<glyph unicode="G" glyph-name="G" horiz-adv-x="724" d="M398 -20Q303 -20 236 9T125 86T61 194T40 316Q40 392 71 459T154 576T276 656T424 686Q490 686 545 669T642 629V463H625L569 602Q539 625 495 641T404 657Q347 657 298 635T212 571T155 472T134 341Q134
257 157 195T221 92T313 31T424 11Q469 11 504 21T559 40V249L456 265V283H694V264L646 252V38L597 19Q565 8 513 -6T398 -20Z" />
<glyph unicode="H" glyph-name="H" horiz-adv-x="735" d="M450 19L537 33V332H198V33L286 19V0H25V19L112 33V631L25 647V664H286V647L198 631V361H537V631L450 647V664H710V647L623 631V33L710 19V0H450V19Z" />
<glyph unicode="I" glyph-name="I" horiz-adv-x="310" d="M25 20L112 34V630L25 646V664H285V646L198 630V34L285 20V0H25V20Z" />
<glyph unicode="J" glyph-name="J" horiz-adv-x="303" d="M198 43Q198 -10 189 -52T156 -126T90 -183T-19 -224L-25 -203Q12 -187 38 -167T80 -121T104 -61T112 17V631L25 647V664H285V647L198 631V43Z" />
<glyph unicode="K" glyph-name="K" horiz-adv-x="635" d="M25 19L112 33V631L25 647V664H286V647L198 631V33L286 19V0H25V19ZM210 344V347L489 627L397 647V664H606V647L535 629L285 379L572 33L646 19V0H492L210 344Z" />
<glyph unicode="L" glyph-name="L" horiz-adv-x="571" d="M198 50Q206 41 216 36T243 28H451L544 216H561L516 0H25V19L112 33V631L25 646V664H302V646L198 633V50Z" />
<glyph unicode="M" glyph-name="M" horiz-adv-x="854" d="M20 17L104 38L126 627L43 647V664H236L435 155L640 660L641 664H811V647L728 628L750 38L834 17V0H565V19L667 38L648 599L442 93L415 20H401L373 93L158 618L140 41L250 18V0H20V17Z" />
<glyph unicode="N" glyph-name="N" horiz-adv-x="710" d="M595 -6L145 577V40L257 21V0H25V20L112 42V602Q98 616 81 626T40 642L25 646V664H182L575 155V624L471 643V664H695V644L608 622V129L612 -6H595Z" />
<glyph unicode="O" glyph-name="O" horiz-adv-x="779" d="M399 4Q465 4 511 31T587 103T629 204T643 319Q643 388 623 449T568 557T483 631T375 659Q311 659 266 631T192 558T150 457T136 344Q136 278 155 217T209 108T292 33T399 4ZM388 685Q463 685 527 659T638
586T712 476T739 338Q739 255 709 189T630 75T518 3T390 -22Q321 -22 258 3T147 73T69 183T40 326Q40 408 70 474T150 588T261 660T388 685Z" />
<glyph unicode="P" glyph-name="P" horiz-adv-x="524" d="M244 292Q283 296 316 309T373 344T410 395T423 462Q423 496 412 527T374 583T304 624T198 645V33L293 17V0H25V19L112 33V631L25 646V664H246Q375 661 444 612T514 476Q514 433 492 396T433 332T347 289T244
273V292Z" />
<glyph unicode="Q" glyph-name="Q" horiz-adv-x="779" d="M388 685Q463 685 527 659T638 587T712 477T739 340Q739 267 715 207T652 102T560 28T451 -12Q497 -44 540 -74T625 -127T710 -165T796 -180Q824 -180 846 -176T890 -164T932 -142T978 -109L989 -121Q969
-140 949 -159T902 -195T840 -222T756 -233Q700 -233 649 -216T546 -169T439 -99T319 -11Q262 0 211 29T122 102T62 203T40 329Q40 411 70 477T150 589T261 660T388 685ZM406 8Q469 8 514 35T587 107T629 208T643 322Q643 391 623 452T567 559T481 632T371 659Q308
659 264 631T191 559T149 458T136 346Q136 279 155 218T210 111T295 36T406 8Z" />
<glyph unicode="R" glyph-name="R" horiz-adv-x="627" d="M25 19L112 33V631L25 647V664L234 667Q381 669 452 626T524 505Q524 473 513 448T480 404T430 370T367 343V340L561 38L637 19V0H480L323 252Q312 269 305 280T294 299Q290 307 287 311H198V33L282 17V0H25V19ZM198
340H283Q316 344 343 357T389 389T418 433T429 483Q429 566 366 606T198 646V340Z" />
<glyph unicode="S" glyph-name="S" horiz-adv-x="502" d="M40 203H57L116 41Q136 27 165 18T234 8Q303 8 346 45T389 148Q389 169 384 188T364 225T325 260T260 295L210 317Q129 352 92 393T54 500Q54 541 72 575T120 633T192 670T279 684Q325 684 364 671T432
645L441 480H427L369 625Q346 639 323 649T266 660Q237 660 214 650T173 622T147 582T137 535Q137 487 161 457T247 399L322 365Q401 330 437 290T474 186Q474 139 453 101T397 37T318 -4T228 -19Q167 -19 124 -5T47 23L40 203Z" />
<glyph unicode="T" glyph-name="T" horiz-adv-x="578" d="M503 664L553 672L560 475H542L492 636H332V32L419 18V0H159V18L246 32V636H86L36 475H18L25 671L72 664H503Z" />
<glyph unicode="U" glyph-name="U" horiz-adv-x="708" d="M351 -24Q280 -24 232 -4T153 54T110 142T97 255V630L15 647V664H270V647L184 630V277Q184 224 192 177T222 94T278 38T368 17Q421 17 458 33T521 78T559 149T576 241V625L478 646V664H693V646L612 625V257Q612
185 592 133T536 45T453 -7T351 -24Z" />
<glyph unicode="V" glyph-name="V" horiz-adv-x="581" d="M39 630L-27 646V664H204V646L130 630L317 103H318L499 627L425 646V664H608V646L541 627L306 -12H275L39 630Z" />
<glyph unicode="W" glyph-name="W" horiz-adv-x="874" d="M440 467L276 -6H241L40 630L-25 646V664H206V646L129 630L286 116L425 512L386 630L317 646V664H546V646L471 630L641 117L791 627L716 646V664H899V646L833 627L633 -6H597L440 467Z" />
<glyph unicode="X" glyph-name="X" horiz-adv-x="607" d="M65 34L266 335L86 632L16 647V664H257V647L182 632L322 395H324L476 631L397 647V664H589V647L519 631L340 365L542 33L622 18V0H363V18L443 33L285 302H282L107 34L193 18V0H-15V18L65 34Z" />
<glyph unicode="Y" glyph-name="Y" horiz-adv-x="573" d="M330 314V34L422 20V0H152V20L244 34V302L48 630L-17 646V664H220V646L146 630L313 339H314L486 626L407 646V664H590V646L525 627L330 314Z" />
<glyph unicode="Z" glyph-name="Z" horiz-adv-x="621" d="M26 12L445 636H116L63 469H47V671L111 664H560V660L135 28H492L585 216H603L558 0H26V12Z" />
<glyph unicode="[" glyph-name="bracketleft" horiz-adv-x="288" d="M104 -181V733H276V710H170V-158H276V-181H104Z" />
<glyph unicode="\" glyph-name="backslash" horiz-adv-x="415" d="M430 -204L14 733L41 745L457 -192L430 -204Z" />
<glyph unicode="]" glyph-name="bracketright" horiz-adv-x="288" d="M184 733V-181H12V-158H118V710H12V733H184Z" />
<glyph unicode="^" glyph-name="asciicircum" horiz-adv-x="406" d="M40 485L190 756H216L367 485H335L199 704L70 485H40Z" />
<glyph unicode="_" glyph-name="underscore" horiz-adv-x="408" d="M4 -165H404V-199H4V-165Z" />
<glyph unicode="`" glyph-name="grave" horiz-adv-x="225" d="M113 752L166 544H145L44 745V752H113Z" />
<glyph unicode="a" glyph-name="a" horiz-adv-x="450" d="M151 -14Q132 -14 112 -9T74 10T46 45T35 99Q35 128 46 149T77 187T126 216T193 238L298 267V314Q298 380 270 414T199 448Q176 448 159 441T131 424L126 330Q112 322 91 322Q71 322 59 332T47 361Q47
378 61 398T101 436T160 465T233 477Q309 477 340 442T372 340V59Q372 45 377 37T403 28H453V15Q438 7 422 1Q408 -4 393 -8T363 -12Q327 -12 312 6T297 67H295Q260 30 227 8T151 -14ZM197 38Q229 38 255 57T298 100V247L184 207Q142 193 128 171T114 121Q114 106
118 91T133 64T159 45T197 38Z" />
<glyph unicode="b" glyph-name="b" horiz-adv-x="512" d="M205 -14Q171 -14 143 -7T87 16L66 27V661L1 693V700L140 746V398Q151 409 166 423T201 449T244 469T294 477Q328 477 360 465T418 426T459 357T475 254Q475 200 453 152T393 67T306 8T205 -14ZM255 428Q234
428 216 422T184 406T158 386T140 369V58Q157 43 182 33T242 22Q273 22 301 34T352 74T387 142T400 242Q400 282 388 316T356 375T310 414T255 428Z" />
<glyph unicode="c" glyph-name="c" horiz-adv-x="453" d="M244 -14Q204 -14 166 0T99 44T51 119T33 225Q33 282 54 328T109 408T185 459T271 477Q302 477 331 469T382 447T417 415T431 377Q431 354 414 341T374 328Q363 328 360 329Q357 329 356 330L333 415Q316
429 296 439T252 449Q224 449 198 437T151 402T119 343T106 262Q106 209 120 170T159 103T213 63T277 49Q328 49 363 73T425 128L439 118Q432 107 418 85T380 41T323 3T244 -14Z" />
<glyph unicode="d" glyph-name="d" horiz-adv-x="531" d="M304 701L454 746V43L523 23V10L389 -9L382 59Q355 32 317 9T230 -14Q181 -14 144 4T83 54T46 125T33 211Q33 274 56 323T116 406T200 459T295 477Q322 477 343 472T380 458V664L304 694V701ZM274 35Q307
35 333 49T380 81V391Q357 417 328 431T258 446Q227 446 200 433T153 395T121 332T109 245Q109 214 117 178T145 110T196 57T274 35Z" />
<glyph unicode="e" glyph-name="e" horiz-adv-x="460" d="M237 -14Q185 -14 147 6T84 60T46 134T33 218Q33 271 51 318T99 400T170 456T254 477Q328 477 374 429T429 288H106Q105 281 105 274T105 260Q105 160 148 105T268 50Q296 50 319 58T362 78T396 104T422
130L436 120Q422 99 406 76T366 32T311 -1T237 -14ZM229 445Q183 445 152 409T109 313H341Q334 344 325 368T303 410T272 436T229 445Z" />
<glyph unicode="f" glyph-name="f" horiz-adv-x="290" d="M13 17L83 31V425H6V444L84 465V501Q84 551 101 595T146 673T211 725T289 744Q313 744 335 738T375 720T403 695T413 664Q413 637 394 629T350 620L326 693Q314 705 298 711T266 717Q247 717 228 709T192
679T166 624T156 538L157 463H289V425H157V31L238 17V0H13V17Z" />
<glyph unicode="g" glyph-name="g" horiz-adv-x="470" d="M346 418V416Q362 399 378 372T394 307Q394 268 378 237T335 184T276 151T209 139Q188 139 168 143T128 156Q103 134 103 109Q103 94 115 83T151 70L345 56Q402 51 432 24T463 -44Q463 -82 441 -117T380
-180T292 -225T187 -242Q110 -242 63 -213T16 -123Q16 -91 41 -61T101 -12L126 1V4Q111 5 97 9T70 21T51 43T44 74Q44 101 65 122T109 164V166Q78 186 59 219T39 302Q39 341 52 372T90 426T146 461T215 474Q247 474 272 467T325 448L466 463V418H346ZM146 -2Q126
-18 108 -42T89 -100Q89 -150 125 -178T235 -207Q278 -207 308 -195T358 -163T387 -122T396 -80Q396 -53 379 -37T338 -15L146 -2ZM118 335Q118 251 145 207T222 163Q260 163 287 196T314 289Q314 334 306 365T283 416T249 445T208 455Q164 455 141 422T118 335Z"
/>
<glyph unicode="h" glyph-name="h" horiz-adv-x="525" d="M317 17L378 31V314Q377 359 355 392T285 425Q263 425 243 419T206 403T174 383T149 364V31L216 17V0H15V17L75 31V662L10 694V701L149 746V384Q153 388 168 403T208 434T261 463T324 476Q355 476 379
468T419 440T443 390T452 314V31L515 17V0H317V17Z" />
<glyph unicode="i" glyph-name="i" horiz-adv-x="239" d="M15 17L85 31V390L18 420V427L159 477V31L229 17V0H15V17ZM118 592Q96 592 81 607T65 645Q65 667 80 682T118 698Q140 698 155 683T171 645Q171 623 156 608T118 592Z" />
<glyph unicode="j" glyph-name="j" horiz-adv-x="232" d="M-18 -225Q12 -204 30 -185T60 -142T77 -83T85 5V390L18 420V427L159 477V24Q159 -28 154 -70T128 -146Q108 -177 75 -196T-11 -239L-18 -225ZM118 592Q96 592 81 607T65 645Q65 667 80 682T118 698Q140
698 155 683T171 645Q171 623 156 608T118 592Z" />
<glyph unicode="k" glyph-name="k" horiz-adv-x="468" d="M75 662L10 694V701L149 746V31L225 17V0H15V17L75 31V662ZM420 -14Q393 -14 375 -1T333 39L155 249L364 427L289 444V463H464V444L405 427L223 275L465 4Q462 -1 456 -5Q451 -9 442 -11T420 -14Z" />
<glyph unicode="l" glyph-name="l" horiz-adv-x="222" d="M15 17L75 31V662L12 694V701L149 746V31L212 17V0H15V17Z" />
<glyph unicode="m" glyph-name="m" horiz-adv-x="838" d="M632 17L691 31V314Q691 336 685 356T668 392T640 417T598 427Q576 427 556 420T519 404T488 383T462 364V31L529 17V0H327V17L388 31V314Q387 359 364 392T295 425Q273 425 253 419T216 403T185 383T159
364V31L226 17V0H15V17L85 31V390L18 420V427L151 474H154L157 384H158Q162 388 177 402T217 433T271 463T334 476Q383 476 413 456T457 381H459Q484 407 513 428Q538 446 570 461T637 476Q668 476 691 468T731 440T756 390T765 314V31L828 17V0H632V17Z" />
<glyph unicode="n" glyph-name="n" horiz-adv-x="535" d="M15 17L85 31V390L18 420V427L151 474H154L157 384H158Q162 388 177 403T217 434T271 464T334 477Q397 477 429 441T462 314V31L525 17V0H327V17L388 31V314Q387 359 365 392T295 425Q273 425 253 419T216
403T184 383T159 364V31L226 17V0H15V17Z" />
<glyph unicode="o" glyph-name="o" horiz-adv-x="537" d="M255 451Q222 451 196 436T152 393T125 330T115 251Q115 200 127 157T162 81T215 31T280 12Q313 12 339 27T383 70T411 134T421 213Q421 264 409 307T374 383T321 433T255 451ZM267 -14Q219 -14 177 2T104
50T54 127T35 228Q35 287 55 333T109 411T185 460T270 477Q321 477 363 459T436 409T484 333T502 236Q502 177 482 131T428 52T352 3T267 -14Z" />
<glyph unicode="p" glyph-name="p" horiz-adv-x="523" d="M16 -221L77 -207V385L10 415V422L143 469H146L149 382H150Q162 400 177 416T212 446T255 468T305 476Q338 476 370 464T428 425T470 356T486 253Q486 194 462 145T399 61T313 7T219 -13Q199 -13 182 -10T151
-1V-209L251 -222V-240H16V-221ZM265 423Q242 423 224 416T192 399T168 376T151 354V53Q167 42 192 32T253 22Q285 22 314 35T364 75T398 143T411 240Q411 279 400 312T370 370T323 409T265 423Z" />
<glyph unicode="q" glyph-name="q" horiz-adv-x="526" d="M289 -222L380 -209V62Q368 50 353 37T318 12T277 -7T230 -15Q181 -15 144 4T83 54T46 127T33 212Q33 272 55 321T113 404T196 458T291 477Q333 477 361 466T404 445L451 477H454V-207L511 -221V-240H289V-222ZM275
35Q308 35 334 51T380 86V390Q363 410 333 428T258 446Q228 446 201 434T153 396T121 333T109 244Q109 215 117 179T144 110T195 57T275 35Z" />
<glyph unicode="r" glyph-name="r" horiz-adv-x="336" d="M15 17L85 31V390L18 420V427L151 474H154L156 339H159L170 361Q187 395 201 417T230 452T257 470T285 475Q304 475 317 464T330 433Q330 418 324 407T306 385L239 406Q216 393 194 363T159 295V31L238
17V0H15V17Z" />
<glyph unicode="s" glyph-name="s" horiz-adv-x="393" d="M176 -14Q135 -14 101 -3T49 19L42 165H59L107 39Q135 11 188 11Q234 11 261 38T288 103Q288 138 268 158T202 196L155 213Q104 231 79 261T53 342Q53 373 66 398T103 440T157 467T223 477Q253 477 282
468T337 445V320H320L280 425Q268 436 251 444T211 453Q190 453 174 446T146 427T128 400T122 368Q122 333 142 314T206 277L248 261Q311 237 337 207T363 138Q363 103 347 75T305 27T245 -3T176 -14Z" />
<glyph unicode="t" glyph-name="t" horiz-adv-x="308" d="M178 -9Q126 -9 101 14T75 94L77 425H-1V444L79 465L130 590H150V463H294V425H150V99Q152 66 171 50T224 34Q249 34 272 41T303 51L307 40Q299 33 287 25T258 9T222 -4T178 -9Z" />
<glyph unicode="u" glyph-name="u" horiz-adv-x="527" d="M371 76Q362 65 347 50T312 21T265 -4T207 -14Q169 -14 143 -2T101 32T78 82T70 142V413L5 432V445L144 471V165Q144 97 173 69T249 41Q270 41 288 46T321 60T349 77T370 94V413L293 432V445L444 471V43L513
23V10L379 -9L371 76Z" />
<glyph unicode="v" glyph-name="v" horiz-adv-x="453" d="M206 -14L47 430L-9 448V463H195V448L129 429L242 97L249 70H252L259 97L371 428L295 448V463H462V447L405 428L245 -14H206Z" />
<glyph unicode="w" glyph-name="w" horiz-adv-x="698" d="M502 119Q506 108 508 100T512 87Q514 81 515 77H517Q517 80 519 84Q520 88 522 94T527 112L618 428L542 448V463H707V447L648 427L511 -16H468L356 326Q353 334 352 340T348 353Q346 359 345 366H343Q342
360 340 353Q337 341 332 326L224 -16H183L48 430L-9 448V463H193V448L126 428L220 117Q222 109 223 103T227 91Q228 86 229 81H231Q231 86 233 91Q235 96 236 102T241 117L354 473H387L502 119Z" />
<glyph unicode="x" glyph-name="x" horiz-adv-x="450" d="M401 29L455 17V0H263V17L314 29L211 199H210L101 32L162 17V0H-1V17L64 32L196 223L63 434L9 448V463H203V448L150 434L244 278H246L342 432L283 448V463H426V448L377 432L258 255L401 29Z" />
<glyph unicode="y" glyph-name="y" horiz-adv-x="453" d="M296 448V463H462V447L405 428L186 -183Q175 -212 159 -233T110 -254Q87 -254 73 -240T58 -205Q58 -184 71 -171T106 -157Q123 -157 134 -167T153 -192H155L216 -29L47 430L-9 448V463H197V448L131 429L252
79H254L372 428L296 448Z" />
<glyph unicode="z" glyph-name="z" horiz-adv-x="436" d="M30 0V16L302 436H113L61 315H47V468L120 463H400V458L121 27H323L390 163H405L384 -6L327 0H30Z" />
<glyph unicode="{" glyph-name="braceleft" horiz-adv-x="322" d="M84 275Q114 272 136 265T174 246T197 213T205 164V-28Q205 -67 210 -93T228 -136T259 -159T307 -166V-181H292Q240 -180 208 -169T158 -136T137 -82T136 -8L151 165Q155 204 137 231T72 261L45
262V290L72 291Q118 293 136 320T151 387L136 560Q132 602 136 634T158 688T207 721T292 733H307V718Q279 718 260 711T228 688T211 645T205 579V389Q205 359 197 339T174 307T137 287T84 277V275Z" />
<glyph unicode="|" glyph-name="bar" horiz-adv-x="200" d="M85 -200V729H115V-200H85Z" />
<glyph unicode="}" glyph-name="braceright" horiz-adv-x="322" d="M238 277Q208 280 186 287T148 306T125 339T117 388V580Q117 658 94 688T15 718V733H30Q82 732 114 721T164 688T185 634T186 560L171 387Q167 348 185 321T250 291L277 290V262L250 261Q204
259 186 232T171 165L186 -8Q190 -50 186 -82T164 -136T115 -169T30 -181H15V-166Q70 -166 93 -136T117 -27V163Q117 193 125 212T148 245T185 265T238 275V277Z" />
<glyph unicode="~" glyph-name="asciitilde" horiz-adv-x="461" d="M18 198L22 208Q39 250 60 274T104 310T154 319T208 307L285 278Q316 266 338 265T376 271T403 294T426 331L443 325L439 315Q410 243 365 217T253 216L188 241Q126 266 92 253T35 192L18 198Z" />
<glyph unicode="&#xa0;" glyph-name="uni00A0" horiz-adv-x="180" />
<glyph unicode="&#xa1;" glyph-name="exclamdown" horiz-adv-x="252" d="M82 -134L110 383H137L165 -134H82ZM184 510Q184 485 167 468T125 451Q100 451 83 468T66 510Q66 535 83 552T125 569Q150 569 167 552T184 510Z" />
<glyph unicode="&#xa2;" glyph-name="cent" horiz-adv-x="468" d="M243 -13Q207 -12 170 1T103 43T54 114T35 218Q35 273 52 318T99 396T165 449T243 475V591H270V477Q302 477 331 469T382 446T418 413T431 377Q431 359 417 345T379 331Q371 331 369 332Q367 332
365 333L341 417Q315 445 270 449V47Q294 47 313 51T350 64T384 86T418 117L433 105Q404 61 367 28T270 -11V-119H243V-13ZM108 263Q108 172 147 118T243 50V449Q211 446 186 430T144 389T118 331T108 263Z" />
<glyph unicode="&#xa3;" glyph-name="sterling" horiz-adv-x="573" d="M115 292H237L264 399Q281 467 310 515T373 594T440 639T497 653Q514 653 530 648T559 633T580 611T588 583Q588 548 532 531Q526 562 517 580T499 607T480 620T463 623Q437 623 414 595T372
494L322 292H489L488 266H315L311 248Q289 162 248 108T162 23Q197 6 230 -15T293 -56L327 -79Q365 -106 390 -123T431 -150T459 -164T479 -168Q494 -168 503 -157T517 -128T520 -86T511 -38Q540 -33 560 -40T580 -77Q580 -91 571 -111T542 -150T496 -183T431 -197Q402
-197 371 -183T307 -147T244 -99T183 -47L126 2Q103 -9 84 -13T50 -18Q29 -18 17 -9T5 16Q5 33 19 43T56 54Q73 54 93 49T136 35Q159 55 178 93T212 189L231 266H115V292Z" />
<glyph unicode="&#xa5;" glyph-name="yen" horiz-adv-x="512" d="M53 291H209L35 602L-30 618V636H207V618L133 602L282 317H285L438 598L359 618V636H542V618L477 599L299 292V291H461V262H299V188H462V159H299V35L393 17V0H121V17L215 34V159H53V188H215V262H53V291Z" />
<glyph unicode="&#xa6;" glyph-name="brokenbar" horiz-adv-x="200" d="M85 313V729H115V313H85ZM85 -200V217H115V-200H85Z" />
<glyph unicode="&#xa7;" glyph-name="section" horiz-adv-x="419" d="M249 -96Q249 -84 246 -72T234 -41T208 8T164 86L93 212Q76 243 65 266T48 308T40 342T38 372Q38 412 52 449T91 519T146 579T209 625T273 655T328 666Q368 666 383 652T399 623Q399 607 390
597T367 579Q348 592 332 600T289 610Q268 610 240 604T185 581Q175 567 175 546Q175 534 178 522T191 491T216 443T260 365L331 238Q348 207 359 184T376 142T384 108T386 78Q386 38 372 1T333 -69T278 -129T215 -175T151 -205T96 -216Q56 -216 41 -202T25 -173Q25
-157 34 -147T57 -129Q76 -142 92 -150T135 -160Q155 -160 183 -154T239 -131Q249 -114 249 -96ZM97 418Q97 395 100 374T112 329T134 279T168 218L222 123Q243 86 256 60T276 14T286 -19T289 -47Q289 -64 285 -77T277 -97H282Q302 -74 314 -43T327 32Q327 55 324
76T312 121T290 171T256 232L202 327Q181 364 168 390T148 436T138 469T135 497Q135 514 139 527T147 547H142Q122 524 110 493T97 418Z" />
<glyph unicode="&#xa8;" glyph-name="dieresis" horiz-adv-x="390" d="M130 598Q110 598 97 611T84 645Q84 665 97 679T130 693Q150 693 164 679T178 645Q178 625 164 612T130 598ZM282 598Q262 598 249 611T235 645Q235 665 248 679T282 693Q302 693 315 679T329
645Q329 625 316 612T282 598Z" />
<glyph unicode="&#xa9;" glyph-name="copyright" horiz-adv-x="769" d="M40 324Q40 396 67 459T140 568T249 642T384 669Q455 669 518 642T628 569T702 459T729 324Q729 252 702 190T628 81T518 8T384 -19Q313 -19 250 7T141 80T67 189T40 324ZM65 324Q65 257
90 198T158 96T260 27T384 1Q450 1 508 26T609 95T678 198T703 324Q703 391 678 450T610 553T508 622T384 648Q318 648 260 623T159 554T90 451T65 324ZM389 133Q342 133 307 147T246 187T209 245T196 315Q196 360 211 398T254 463T320 505T402 520Q442 520 472
509T524 488L528 384H515L481 468Q463 483 443 492T396 501Q343 501 309 456T274 324Q274 247 309 202T404 156Q428 156 450 164T488 187L521 280H535L529 174Q497 157 465 145T389 133Z" />
<glyph unicode="&#xaa;" glyph-name="ordfeminine" horiz-adv-x="408" d="M132 493Q117 493 101 498T71 514T48 541T39 580Q39 628 73 652T170 693L254 714V752Q254 806 232 833T174 860Q154 860 142 854T124 842L114 764Q110 762 104 760T87 757Q48 757 48 793Q48
805 60 821T92 851T141 875T203 885Q265 885 293 857T321 776V550Q321 538 326 534T349 529H390V514Q375 508 361 504Q349 500 336 498T311 495Q278 495 268 513T256 558H254Q224 529 197 511T132 493ZM170 539Q202 539 222 553T254 580V697L174 672Q142 661 124
645T106 602Q106 572 125 556T170 539Z" />
<glyph unicode="&#xab;" glyph-name="guillemotleft" horiz-adv-x="415" d="M208 369L93 199L207 44L193 29L30 197V206L193 383L208 369ZM360 369L245 199L359 44L345 29L182 197V206L345 383L360 369Z" />
<glyph unicode="&#xac;" glyph-name="logicalnot" horiz-adv-x="580" d="M527 251V57H490V216H53V251H527Z" />
<glyph unicode="&#xae;" glyph-name="registered" horiz-adv-x="399" d="M5 566Q5 605 20 639T63 699T125 738T201 753Q241 753 276 739T337 699T379 640T394 566Q394 526 379 492T336 433T274 394T198 380Q158 380 123 394T62 433T20 492T5 566ZM29 566Q29 530
42 500T78 447T132 411T199 398Q235 398 266 410T321 445T357 499T370 566Q370 602 357 632T321 685T267 720T199 733Q163 733 132 721T78 686T42 633T29 566ZM104 482L132 487V655L104 660V669H193Q232 669 257 658T282 619Q282 607 277 598T265 583T248 574T230
567V565L281 488L311 481V473H245L216 516Q211 524 207 531T200 544Q196 551 193 557H172V487L198 481V473H104V482ZM172 569H198Q239 577 239 614Q239 635 222 647T172 659V569Z" />
<glyph unicode="&#xaf;" glyph-name="macron" horiz-adv-x="390" d="M57 665H333V617H57V665Z" />
<glyph unicode="&#xb0;" glyph-name="degree" horiz-adv-x="286" d="M11 603Q11 630 21 654T50 696T93 724T146 735Q174 735 198 725T239 696T266 654T276 603Q276 575 266 551T237 509T194 481T142 470Q113 470 89 480T48 509T21 551T11 603ZM42 603Q42 557 70
526T144 495Q189 495 217 526T245 603Q245 649 217 680T144 711Q99 711 71 680T42 603Z" />
<glyph unicode="&#xb1;" glyph-name="plusminus" horiz-adv-x="579" d="M310 329V113H270V329H53V364H270V580H310V364H527V329H310ZM53 35H527V0H53V35Z" />
<glyph unicode="&#xb4;" glyph-name="acute" horiz-adv-x="225" d="M180 752V745L79 544H58L111 752H180Z" />
<glyph unicode="&#xb6;" glyph-name="paragraph" horiz-adv-x="523" d="M498 647L411 631V7Q411 -48 396 -88T356 -155T296 -194T221 -207Q185 -207 155 -196T102 -165T68 -116T55 -52Q55 -19 66 7T95 53T139 82T192 92Q214 92 233 84T265 64T286 35T294 0Q294
-38 273 -58T226 -79Q202 -79 185 -63T169 -12Q195 -7 216 -2T253 17V24Q245 44 228 55T182 67Q165 67 148 60T117 39T94 4T85 -45Q85 -73 94 -97T122 -140T166 -168T225 -179Q291 -179 328 -132T365 -2V636H311V254H261Q218 254 181 270T115 314T71 379T55 459Q55
501 71 538T115 604T180 648T261 664H498V647Z" />
<glyph unicode="&#xb7;" glyph-name="periodcentered" horiz-adv-x="294" d="M147 211Q122 211 105 228T88 270Q88 295 105 312T147 329Q172 329 189 312T206 270Q206 245 189 228T147 211Z" />
<glyph unicode="&#xb8;" glyph-name="cedilla" horiz-adv-x="237" d="M43 -241Q89 -224 110 -204T131 -158Q131 -132 116 -117T76 -95L135 4H163L129 -54Q167 -64 183 -84T200 -132Q200 -162 185 -183T146 -219T97 -243T48 -256L43 -241Z" />
<glyph unicode="&#xba;" glyph-name="ordmasculine" horiz-adv-x="440" d="M211 864Q185 864 165 852T130 819T109 768T101 705Q101 664 111 630T138 570T179 530T230 515Q256 515 276 527T311 560T332 611T340 675Q340 715 330 750T303 810T262 849T211 864ZM218
493Q179 493 145 506T86 545T45 606T30 687Q30 734 47 771T91 833T152 872T222 886Q263 886 297 872T357 833T396 772T410 693Q410 645 393 608T349 546T288 507T218 493Z" />
<glyph unicode="&#xbb;" glyph-name="guillemotright" horiz-adv-x="415" d="M206 43L321 213L207 368L221 383L385 215V206L221 29L206 43ZM55 43L170 213L56 368L70 383L234 215V206L70 29L55 43Z" />
<glyph unicode="&#xbc;" glyph-name="onequarter" horiz-adv-x="679" d="M149 326L213 317V299H23V316L89 325V624L13 621V638L145 673H149V326ZM70 -62L609 721L631 705L92 -80L70 -62ZM594 136H672V97H594V28L651 18V1H482V18L539 27V97H382L381 96V97H368V116L579
372L594 364V136ZM539 136V291L413 136H539Z" />
<glyph unicode="&#xbd;" glyph-name="onehalf" horiz-adv-x="704" d="M70 -62L609 721L631 705L92 -80L70 -62ZM149 326L213 317V299H23V316L89 325V624L13 621V638L145 673H149V326ZM480 48H691V1H427V23L505 97Q519 110 537 127T571 164T599 207T610 254Q610
290 588 309T539 329Q507 329 486 317T442 273L430 281Q437 300 449 317T479 347T517 369T562 377Q584 377 603 369T637 347T660 315T668 277Q668 252 659 231T634 188T593 145T537 96L480 48Z" />
<glyph unicode="&#xbe;" glyph-name="threequarters" horiz-adv-x="683" d="M126 309Q167 309 192 329T217 388Q217 428 181 450T75 473V492Q109 498 132 508T169 530T189 555T195 580Q195 603 180 618T138 633Q112 633 89 621T41 580L24 591Q34 607 46 622T75
649T111 667T157 674Q185 674 204 667T235 649T251 625T256 599Q256 579 248 565T227 539T197 520T162 503V499Q213 496 245 472T277 407Q277 379 263 358T227 321T178 298T126 290Q70 290 42 306T14 343Q14 359 25 367T53 377L84 322Q87 318 99 314T126 309ZM74
-62L613 721L635 705L96 -80L74 -62ZM598 136H676V97H598V28L655 18V1H486V18L543 27V97H386L385 96V97H372V116L583 372L598 364V136ZM543 136V291L417 136H543Z" />
<glyph unicode="&#xbf;" glyph-name="questiondown" horiz-adv-x="330" d="M283 -131L268 -128Q221 -119 179 -94T105 -36T55 35T36 111Q36 191 116 223L219 265L210 383H234L273 208L143 159Q110 146 91 127T71 74Q71 56 79 40T106 9T160 -18T247 -40L283 -46V-131ZM224
569Q249 569 266 552T283 510Q283 485 266 468T224 451Q199 451 182 468T165 510Q165 535 182 552T224 569Z" />
<glyph unicode="&#xc0;" glyph-name="Agrave" horiz-adv-x="632" d="M-24 19L53 36L281 669L310 675L346 683L580 32L656 17V0H409V19L489 32L417 238H163L95 38L213 19V0H-24V19ZM176 276H403L289 603H287L176 276ZM261 865L341 728H314L183 859V865H261Z" />
<glyph unicode="&#xc1;" glyph-name="Aacute" horiz-adv-x="632" d="M-24 19L53 36L281 669L310 675L346 683L580 32L656 17V0H409V19L489 32L417 238H163L95 38L213 19V0H-24V19ZM176 276H403L289 603H287L176 276ZM455 865V859L324 728H297L377 865H455Z" />
<glyph unicode="&#xc2;" glyph-name="Acircumflex" horiz-adv-x="632" d="M-24 19L53 36L281 669L310 675L346 683L580 32L656 17V0H409V19L489 32L417 238H163L95 38L213 19V0H-24V19ZM176 276H403L289 603H287L176 276ZM180 728L294 853H348L452 728H420L318
807L209 728H180Z" />
<glyph unicode="&#xc3;" glyph-name="Atilde" horiz-adv-x="632" d="M-24 19L53 36L281 669L310 675L346 683L580 32L656 17V0H409V19L489 32L417 238H163L95 38L213 19V0H-24V19ZM176 276H403L289 603H287L176 276ZM308 758Q282 767 265 772T236 775T214 763T192
732L174 741L179 752Q195 785 210 803T243 827T281 831T327 819L360 808Q379 802 394 799T422 799T446 812T468 843L486 835L481 825Q464 788 447 769T413 743T376 738T337 748L308 758Z" />
<glyph unicode="&#xc4;" glyph-name="Adieresis" horiz-adv-x="632" d="M-24 19L53 36L281 669L310 675L346 683L580 32L656 17V0H409V19L489 32L417 238H163L95 38L213 19V0H-24V19ZM176 276H403L289 603H287L176 276ZM227 758Q207 758 194 771T181 805Q181 825
194 839T227 853Q247 853 261 839T275 805Q275 785 261 772T227 758ZM420 758Q400 758 387 771T373 805Q373 825 386 839T420 853Q440 853 453 839T467 805Q467 785 454 772T420 758Z" />
<glyph unicode="&#xc5;" glyph-name="Aring" horiz-adv-x="632" d="M-24 19L53 36L281 669L310 675L346 683L580 32L656 17V0H409V19L489 32L417 238H163L95 38L213 19V0H-24V19ZM176 276H403L289 603H287L176 276ZM222 832Q222 875 250 902T321 929Q364 929 392
903T421 832Q421 789 393 762T322 734Q279 734 251 761T222 832ZM253 832Q253 801 273 781T321 760Q350 760 370 780T391 832Q391 863 371 883T322 904Q293 904 273 884T253 832Z" />
<glyph unicode="&#xc6;" glyph-name="AE" horiz-adv-x="908" d="M518 320V50Q532 31 563 27H760L851 193H870L827 0H345V17L432 33V320H240L86 37L198 17V0H-25V17L41 37L384 630L292 647V664H770L835 669V480H817L770 637H518V350H664L695 457H712V219H695L664
320H518ZM421 637L257 350H432V637H421Z" />
<glyph unicode="&#xc7;" glyph-name="Ccedilla" horiz-adv-x="702" d="M290 -241Q336 -224 357 -204T378 -158Q378 -132 363 -117T323 -95L366 -21Q280 -19 219 11T117 89T59 194T40 308Q40 389 70 458T151 578T271 657T418 686Q447 686 476 682T534 670T586 652T630
631L639 467H620L563 602Q528 627 487 643T397 659Q341 659 293 634T209 565T153 463T133 337Q133 252 156 191T217 89T304 29T405 9Q455 9 497 28T568 67L646 222H665L637 44Q580 21 522 2T395 -21L376 -54Q414 -64 430 -84T447 -132Q447 -162 432 -183T393 -219T344
-243T295 -256L290 -241Z" />
<glyph unicode="&#xc8;" glyph-name="Egrave" horiz-adv-x="588" d="M258 865L338 728H311L180 859V865H258ZM198 331V49Q206 40 216 35T243 27H440L531 193H550L507 0H25V19L112 33V631L25 647V664H449L515 669V480H497L450 637H198V362H344L375 469H392V230H375L344
331H198Z" />
<glyph unicode="&#xc9;" glyph-name="Eacute" horiz-adv-x="588" d="M452 865V859L321 728H294L374 865H452ZM198 331V49Q206 40 216 35T243 27H440L531 193H550L507 0H25V19L112 33V631L25 647V664H449L515 669V480H497L450 637H198V362H344L375 469H392V230H375L344
331H198Z" />
<glyph unicode="&#xca;" glyph-name="Ecircumflex" horiz-adv-x="588" d="M174 728L288 853H342L446 728H414L312 807L203 728H174ZM198 331V49Q206 40 216 35T243 27H440L531 193H550L507 0H25V19L112 33V631L25 647V664H449L515 669V480H497L450 637H198V362H344L375
469H392V230H375L344 331H198Z" />
<glyph unicode="&#xcb;" glyph-name="Edieresis" horiz-adv-x="588" d="M198 331V49Q206 40 216 35T243 27H440L531 193H550L507 0H25V19L112 33V631L25 647V664H449L515 669V480H497L450 637H198V362H344L375 469H392V230H375L344 331H198ZM217 758Q197 758 184
771T171 805Q171 825 184 839T217 853Q237 853 251 839T265 805Q265 785 251 772T217 758ZM410 758Q390 758 377 771T363 805Q363 825 376 839T410 853Q430 853 443 839T457 805Q457 785 444 772T410 758Z" />
<glyph unicode="&#xcc;" glyph-name="Igrave" horiz-adv-x="310" d="M25 20L112 34V630L25 646V664H285V646L198 630V34L285 20V0H25V20ZM349 865L429 728H402L271 859V865H349Z" />
<glyph unicode="&#xcd;" glyph-name="Iacute" horiz-adv-x="310" d="M25 20L112 34V630L25 646V664H285V646L198 630V34L285 20V0H25V20ZM551 865V859L420 728H393L473 865H551Z" />
<glyph unicode="&#xce;" glyph-name="Icircumflex" horiz-adv-x="310" d="M25 20L112 34V630L25 646V664H285V646L198 630V34L285 20V0H25V20ZM28 728L126 853H190L277 728H246L155 819L60 728H28Z" />
<glyph unicode="&#xcf;" glyph-name="Idieresis" horiz-adv-x="310" d="M79 757Q59 757 46 770T33 804Q33 824 46 838T79 852Q99 852 113 838T127 804Q127 784 113 771T79 757ZM230 757Q210 757 197 770T183 804Q183 824 196 838T230 852Q250 852 263 838T277
804Q277 784 264 771T230 757ZM25 20L112 34V630L25 646V664H285V646L198 630V34L285 20V0H25V20Z" />
<glyph unicode="&#xd0;" glyph-name="Eth" horiz-adv-x="737" d="M25 19L112 33V319H27V343H112V631L25 646V664L308 666Q401 662 473 636T595 568T671 469T697 347Q697 268 668 203T583 92T443 20T253 -3L25 0V19ZM198 319V43Q229 31 260 28T320 25Q387 26 439
51T528 119T583 214T602 327Q602 415 570 477T482 578T353 631T198 642V343H379V319H198Z" />
<glyph unicode="&#xd1;" glyph-name="Ntilde" horiz-adv-x="710" d="M354 758Q328 767 311 772T282 775T260 763T238 732L220 741L225 752Q241 785 256 803T289 827T327 831T373 819L406 808Q425 802 440 799T468 799T492 812T514 843L532 835L527 825Q510 788
493 769T459 743T422 738T383 748L354 758ZM595 -6L145 577V40L257 21V0H25V20L112 42V602Q98 616 81 626T40 642L25 646V664H182L575 155V624L471 643V664H695V644L608 622V129L612 -6H595Z" />
<glyph unicode="&#xd2;" glyph-name="Ograve" horiz-adv-x="779" d="M335 865L415 728H388L257 859V865H335ZM399 4Q465 4 511 31T587 103T629 204T643 319Q643 388 623 449T568 557T483 631T375 659Q311 659 266 631T192 558T150 457T136 344Q136 278 155 217T209
108T292 33T399 4ZM388 685Q463 685 527 659T638 586T712 476T739 338Q739 255 709 189T630 75T518 3T390 -22Q321 -22 258 3T147 73T69 183T40 326Q40 408 70 474T150 588T261 660T388 685Z" />
<glyph unicode="&#xd3;" glyph-name="Oacute" horiz-adv-x="779" d="M531 865V859L400 728H373L453 865H531ZM399 4Q465 4 511 31T587 103T629 204T643 319Q643 388 623 449T568 557T483 631T375 659Q311 659 266 631T192 558T150 457T136 344Q136 278 155 217T209
108T292 33T399 4ZM388 685Q463 685 527 659T638 586T712 476T739 338Q739 255 709 189T630 75T518 3T390 -22Q321 -22 258 3T147 73T69 183T40 326Q40 408 70 474T150 588T261 660T388 685Z" />
<glyph unicode="&#xd4;" glyph-name="Ocircumflex" horiz-adv-x="779" d="M259 728L373 853H427L531 728H499L397 807L288 728H259ZM399 4Q465 4 511 31T587 103T629 204T643 319Q643 388 623 449T568 557T483 631T375 659Q311 659 266 631T192 558T150 457T136
344Q136 278 155 217T209 108T292 33T399 4ZM388 685Q463 685 527 659T638 586T712 476T739 338Q739 255 709 189T630 75T518 3T390 -22Q321 -22 258 3T147 73T69 183T40 326Q40 408 70 474T150 588T261 660T388 685Z" />
<glyph unicode="&#xd5;" glyph-name="Otilde" horiz-adv-x="779" d="M388 758Q362 767 345 772T316 775T294 763T272 732L254 741L259 752Q275 785 290 803T323 827T361 831T407 819L440 808Q459 802 474 799T502 799T526 812T548 843L566 835L561 825Q544 788
527 769T493 743T456 738T417 748L388 758ZM399 4Q465 4 511 31T587 103T629 204T643 319Q643 388 623 449T568 557T483 631T375 659Q311 659 266 631T192 558T150 457T136 344Q136 278 155 217T209 108T292 33T399 4ZM388 685Q463 685 527 659T638 586T712 476T739
338Q739 255 709 189T630 75T518 3T390 -22Q321 -22 258 3T147 73T69 183T40 326Q40 408 70 474T150 588T261 660T388 685Z" />
<glyph unicode="&#xd6;" glyph-name="Odieresis" horiz-adv-x="779" d="M302 758Q282 758 269 771T256 805Q256 825 269 839T302 853Q322 853 336 839T350 805Q350 785 336 772T302 758ZM495 758Q475 758 462 771T448 805Q448 825 461 839T495 853Q515 853 528
839T542 805Q542 785 529 772T495 758ZM399 4Q465 4 511 31T587 103T629 204T643 319Q643 388 623 449T568 557T483 631T375 659Q311 659 266 631T192 558T150 457T136 344Q136 278 155 217T209 108T292 33T399 4ZM388 685Q463 685 527 659T638 586T712 476T739
338Q739 255 709 189T630 75T518 3T390 -22Q321 -22 258 3T147 73T69 183T40 326Q40 408 70 474T150 588T261 660T388 685Z" />
<glyph unicode="&#xd7;" glyph-name="multiply" horiz-adv-x="580" d="M288 211L100 18L73 44L262 235L74 427L101 452L290 262L481 459L507 433L316 237L506 44L478 19L288 211Z" />
<glyph unicode="&#xd8;" glyph-name="Oslash" horiz-adv-x="779" d="M155 68Q103 114 72 179T40 326Q40 408 70 474T150 588T261 660T388 685Q445 685 496 669T590 623L657 709H692L612 607Q670 559 704 490T739 338Q739 255 709 189T630 75T518 3T390 -22Q333
-22 278 -4T176 50L109 -36H73L155 68ZM399 4Q465 4 511 31T587 103T629 204T643 319Q643 387 624 447T570 554L215 100Q250 55 296 30T399 4ZM136 344Q136 283 152 227T198 124L552 576Q517 614 473 636T375 659Q311 659 266 631T192 558T150 457T136 344Z" />
<glyph unicode="&#xd9;" glyph-name="Ugrave" horiz-adv-x="708" d="M324 865L404 728H377L246 859V865H324ZM351 -24Q280 -24 232 -4T153 54T110 142T97 255V630L15 647V664H270V647L184 630V277Q184 224 192 177T222 94T278 38T368 17Q421 17 458 33T521 78T559
149T576 241V625L478 646V664H693V646L612 625V257Q612 185 592 133T536 45T453 -7T351 -24Z" />
<glyph unicode="&#xda;" glyph-name="Uacute" horiz-adv-x="708" d="M506 865V859L375 728H348L428 865H506ZM351 -24Q280 -24 232 -4T153 54T110 142T97 255V630L15 647V664H270V647L184 630V277Q184 224 192 177T222 94T278 38T368 17Q421 17 458 33T521 78T559
149T576 241V625L478 646V664H693V646L612 625V257Q612 185 592 133T536 45T453 -7T351 -24Z" />
<glyph unicode="&#xdb;" glyph-name="Ucircumflex" horiz-adv-x="708" d="M241 728L355 853H409L513 728H481L379 807L270 728H241ZM351 -24Q280 -24 232 -4T153 54T110 142T97 255V630L15 647V664H270V647L184 630V277Q184 224 192 177T222 94T278 38T368 17Q421
17 458 33T521 78T559 149T576 241V625L478 646V664H693V646L612 625V257Q612 185 592 133T536 45T453 -7T351 -24Z" />
<glyph unicode="&#xdc;" glyph-name="Udieresis" horiz-adv-x="708" d="M351 -24Q280 -24 232 -4T153 54T110 142T97 255V630L15 647V664H270V647L184 630V277Q184 224 192 177T222 94T278 38T368 17Q421 17 458 33T521 78T559 149T576 241V625L478 646V664H693V646L612
625V257Q612 185 592 133T536 45T453 -7T351 -24ZM278 758Q258 758 245 771T232 805Q232 825 245 839T278 853Q298 853 312 839T326 805Q326 785 312 772T278 758ZM471 758Q451 758 438 771T424 805Q424 825 437 839T471 853Q491 853 504 839T518 805Q518 785 505
772T471 758Z" />
<glyph unicode="&#xdd;" glyph-name="Yacute" horiz-adv-x="573" d="M330 314V34L422 20V0H152V20L244 34V302L48 630L-17 646V664H220V646L146 630L313 339H314L486 626L407 646V664H590V646L525 627L330 314ZM453 865V859L322 728H295L375 865H453Z" />
<glyph unicode="&#xde;" glyph-name="Thorn" horiz-adv-x="560" d="M25 19L112 33V631L25 646V664H285V647L198 631V514H244Q385 511 457 469T529 351Q529 312 508 279T450 222T360 185T244 171V190Q286 193 322 204T385 234T427 279T442 340Q442 371 429 398T387
446T312 479T198 491V33L293 17V0H25V19Z" />
<glyph unicode="&#xdf;" glyph-name="germandbls" horiz-adv-x="563" d="M15 19L83 33V425H6V444L84 465Q84 522 97 572T138 661T206 722T302 744Q377 744 423 711T470 622Q470 599 463 580T441 541T406 503T361 462Q338 441 325 422T312 380Q312 357 326 341T375
304L442 265Q499 233 521 204T543 134Q543 101 527 74T485 27T426 -3T357 -14Q332 -14 298 -7T231 24L229 161H242L286 40Q300 27 319 19T367 11Q410 11 438 36T467 105Q467 138 447 161T378 212L315 247Q251 283 251 338Q251 357 259 375T279 409T306 440T334
471Q350 490 362 504T382 534T394 566T398 606Q398 625 391 645T371 682T337 709T291 720Q263 720 239 712T196 682T168 626T157 538V0H15V19Z" />
<glyph unicode="&#xe0;" glyph-name="agrave" horiz-adv-x="450" d="M151 -14Q132 -14 112 -9T74 10T46 45T35 99Q35 128 46 149T77 187T126 216T193 238L298 267V314Q298 380 270 414T199 448Q176 448 159 441T131 424L126 330Q112 322 91 322Q71 322 59 332T47
361Q47 378 61 398T101 436T160 465T233 477Q309 477 340 442T372 340V59Q372 45 377 37T403 28H453V15Q438 7 422 1Q408 -4 393 -8T363 -12Q327 -12 312 6T297 67H295Q260 30 227 8T151 -14ZM197 38Q229 38 255 57T298 100V247L184 207Q142 193 128 171T114 121Q114
106 118 91T133 64T159 45T197 38ZM180 752L233 544H212L111 745V752H180Z" />
<glyph unicode="&#xe1;" glyph-name="aacute" horiz-adv-x="450" d="M151 -14Q132 -14 112 -9T74 10T46 45T35 99Q35 128 46 149T77 187T126 216T193 238L298 267V314Q298 380 270 414T199 448Q176 448 159 441T131 424L126 330Q112 322 91 322Q71 322 59 332T47
361Q47 378 61 398T101 436T160 465T233 477Q309 477 340 442T372 340V59Q372 45 377 37T403 28H453V15Q438 7 422 1Q408 -4 393 -8T363 -12Q327 -12 312 6T297 67H295Q260 30 227 8T151 -14ZM197 38Q229 38 255 57T298 100V247L184 207Q142 193 128 171T114 121Q114
106 118 91T133 64T159 45T197 38ZM327 752V745L226 544H205L258 752H327Z" />
<glyph unicode="&#xe2;" glyph-name="acircumflex" horiz-adv-x="450" d="M151 -14Q132 -14 112 -9T74 10T46 45T35 99Q35 128 46 149T77 187T126 216T193 238L298 267V314Q298 380 270 414T199 448Q176 448 159 441T131 424L126 330Q112 322 91 322Q71 322 59
332T47 361Q47 378 61 398T101 436T160 465T233 477Q309 477 340 442T372 340V59Q372 45 377 37T403 28H453V15Q438 7 422 1Q408 -4 393 -8T363 -12Q327 -12 312 6T297 67H295Q260 30 227 8T151 -14ZM197 38Q229 38 255 57T298 100V247L184 207Q142 193 128 171T114
121Q114 106 118 91T133 64T159 45T197 38ZM99 544L200 752H240L342 544H316L218 693L122 544H99Z" />
<glyph unicode="&#xe3;" glyph-name="atilde" horiz-adv-x="450" d="M151 -14Q132 -14 112 -9T74 10T46 45T35 99Q35 128 46 149T77 187T126 216T193 238L298 267V314Q298 380 270 414T199 448Q176 448 159 441T131 424L126 330Q112 322 91 322Q71 322 59 332T47
361Q47 378 61 398T101 436T160 465T233 477Q309 477 340 442T372 340V59Q372 45 377 37T403 28H453V15Q438 7 422 1Q408 -4 393 -8T363 -12Q327 -12 312 6T297 67H295Q260 30 227 8T151 -14ZM197 38Q229 38 255 57T298 100V247L184 207Q142 193 128 171T114 121Q114
106 118 91T133 64T159 45T197 38ZM204 613Q178 622 161 627T132 630T110 618T88 587L70 596L75 607Q91 640 106 658T139 682T177 686T223 674L256 663Q275 657 290 654T318 654T342 667T364 698L382 690L377 680Q360 643 343 624T309 598T272 593T233 603L204
613Z" />
<glyph unicode="&#xe4;" glyph-name="adieresis" horiz-adv-x="450" d="M151 -14Q132 -14 112 -9T74 10T46 45T35 99Q35 128 46 149T77 187T126 216T193 238L298 267V314Q298 380 270 414T199 448Q176 448 159 441T131 424L126 330Q112 322 91 322Q71 322 59 332T47
361Q47 378 61 398T101 436T160 465T233 477Q309 477 340 442T372 340V59Q372 45 377 37T403 28H453V15Q438 7 422 1Q408 -4 393 -8T363 -12Q327 -12 312 6T297 67H295Q260 30 227 8T151 -14ZM197 38Q229 38 255 57T298 100V247L184 207Q142 193 128 171T114 121Q114
106 118 91T133 64T159 45T197 38ZM139 598Q119 598 106 611T93 645Q93 665 106 679T139 693Q159 693 173 679T187 645Q187 625 173 612T139 598ZM291 598Q271 598 258 611T244 645Q244 665 257 679T291 693Q311 693 324 679T338 645Q338 625 325 612T291 598Z"
/>
<glyph unicode="&#xe5;" glyph-name="aring" horiz-adv-x="450" d="M151 -14Q132 -14 112 -9T74 10T46 45T35 99Q35 128 46 149T77 187T126 216T193 238L298 267V314Q298 380 270 414T199 448Q176 448 159 441T131 424L126 330Q112 322 91 322Q71 322 59 332T47
361Q47 378 61 398T101 436T160 465T233 477Q309 477 340 442T372 340V59Q372 45 377 37T403 28H453V15Q438 7 422 1Q408 -4 393 -8T363 -12Q327 -12 312 6T297 67H295Q260 30 227 8T151 -14ZM197 38Q229 38 255 57T298 100V247L184 207Q142 193 128 171T114 121Q114
106 118 91T133 64T159 45T197 38ZM123 656Q123 699 151 726T222 753Q265 753 293 727T322 656Q322 613 294 586T223 558Q180 558 152 585T123 656ZM154 656Q154 625 174 605T222 584Q251 584 271 604T292 656Q292 687 272 707T223 728Q194 728 174 708T154 656Z"
/>
<glyph unicode="&#xe6;" glyph-name="ae" horiz-adv-x="709" d="M151 -14Q132 -14 112 -8T74 11T46 45T35 99Q35 131 50 152T91 189T153 215T230 237L299 255V350Q295 369 287 387T267 418T237 440T199 448Q176 448 159 441T131 424L126 329Q110 322 91 322Q71
322 59 333T47 361Q47 378 61 398T101 436T160 465T233 477Q284 477 313 458T359 399Q377 433 413 455T500 477Q539 477 568 465T619 431T652 382T671 321L372 248V179Q375 122 414 86T514 50Q542 50 565 58T608 78T642 104T668 130L682 120Q668 99 652 76T612
32T557 -1T483 -14Q425 -14 381 12T315 87Q290 62 271 43T234 12T196 -7T151 -14ZM299 233L221 211Q187 201 166 191T134 170T118 147T114 121Q114 106 118 91T133 64T159 45T197 38Q230 38 259 62T302 125Q299 144 299 165V233ZM372 271L585 325Q572 379 548 412T476
445Q453 445 435 436T404 412T383 377T372 335V271Z" />
<glyph unicode="&#xe7;" glyph-name="ccedilla" horiz-adv-x="453" d="M131 -235Q177 -218 198 -198T219 -152Q219 -126 204 -111T164 -89L210 -11Q175 -6 143 11T87 58T48 129T33 225Q33 282 54 328T109 408T185 459T271 477Q302 477 331 469T382 447T417 415T431
377Q431 354 414 341T374 328Q363 328 360 329Q357 329 356 330L333 415Q316 429 296 439T252 449Q224 449 198 437T151 402T119 343T106 262Q106 209 120 170T159 103T213 63T277 49Q328 49 363 73T425 128L439 118Q432 107 418 85T380 41T323 3T244 -14H237L217
-48Q255 -58 271 -78T288 -126Q288 -156 273 -177T234 -213T185 -237T136 -250L131 -235Z" />
<glyph unicode="&#xe8;" glyph-name="egrave" horiz-adv-x="460" d="M237 -14Q185 -14 147 6T84 60T46 134T33 218Q33 271 51 318T99 400T170 456T254 477Q328 477 374 429T429 288H106Q105 281 105 274T105 260Q105 160 148 105T268 50Q296 50 319 58T362 78T396
104T422 130L436 120Q422 99 406 76T366 32T311 -1T237 -14ZM229 445Q183 445 152 409T109 313H341Q334 344 325 368T303 410T272 436T229 445ZM214 752L267 544H246L145 745V752H214Z" />
<glyph unicode="&#xe9;" glyph-name="eacute" horiz-adv-x="460" d="M356 752V745L255 544H234L287 752H356ZM237 -14Q185 -14 147 6T84 60T46 134T33 218Q33 271 51 318T99 400T170 456T254 477Q328 477 374 429T429 288H106Q105 281 105 274T105 260Q105 160
148 105T268 50Q296 50 319 58T362 78T396 104T422 130L436 120Q422 99 406 76T366 32T311 -1T237 -14ZM229 445Q183 445 152 409T109 313H341Q334 344 325 368T303 410T272 436T229 445Z" />
<glyph unicode="&#xea;" glyph-name="ecircumflex" horiz-adv-x="460" d="M129 544L230 752H270L372 544H346L248 693L152 544H129ZM237 -14Q185 -14 147 6T84 60T46 134T33 218Q33 271 51 318T99 400T170 456T254 477Q328 477 374 429T429 288H106Q105 281 105
274T105 260Q105 160 148 105T268 50Q296 50 319 58T362 78T396 104T422 130L436 120Q422 99 406 76T366 32T311 -1T237 -14ZM229 445Q183 445 152 409T109 313H341Q334 344 325 368T303 410T272 436T229 445Z" />
<glyph unicode="&#xeb;" glyph-name="edieresis" horiz-adv-x="460" d="M168 598Q148 598 135 611T122 645Q122 665 135 679T168 693Q188 693 202 679T216 645Q216 625 202 612T168 598ZM320 598Q300 598 287 611T273 645Q273 665 286 679T320 693Q340 693 353
679T367 645Q367 625 354 612T320 598ZM237 -14Q185 -14 147 6T84 60T46 134T33 218Q33 271 51 318T99 400T170 456T254 477Q328 477 374 429T429 288H106Q105 281 105 274T105 260Q105 160 148 105T268 50Q296 50 319 58T362 78T396 104T422 130L436 120Q422 99
406 76T366 32T311 -1T237 -14ZM229 445Q183 445 152 409T109 313H341Q334 344 325 368T303 410T272 436T229 445Z" />
<glyph unicode="&#xec;" glyph-name="igrave" horiz-adv-x="239" d="M15 17L85 31V390L18 420V427L159 477V31L229 17V0H15V17ZM349 752L402 544H381L280 745V752H349Z" />
<glyph unicode="&#xed;" glyph-name="iacute" horiz-adv-x="239" d="M239 752V745L138 544H117L170 752H239ZM15 17L85 31V390L18 420V427L159 477V31L229 17V0H15V17Z" />
<glyph unicode="&#xee;" glyph-name="icircumflex" horiz-adv-x="239" d="M15 17L85 31V390L18 420V427L159 477V31L229 17V0H15V17ZM13 544L104 752H144L236 544H210L122 691L36 544H13Z" />
<glyph unicode="&#xef;" glyph-name="idieresis" horiz-adv-x="239" d="M55 598Q35 598 22 611T9 645Q9 665 22 679T55 693Q75 693 89 679T103 645Q103 625 89 612T55 598ZM198 598Q178 598 165 611T151 645Q151 665 164 679T198 693Q218 693 231 679T245 645Q245
625 232 612T198 598ZM15 17L85 31V390L18 420V427L159 477V31L229 17V0H15V17Z" />
<glyph unicode="&#xf0;" glyph-name="eth" horiz-adv-x="532" d="M89 563L214 637Q183 667 149 692T77 737L87 757Q180 717 255 662L368 729L383 708L277 645Q329 603 369 556T438 459T480 359T494 262Q494 199 476 148T426 61T352 6T261 -14Q214 -14 172 2T99
50T50 127T32 228Q32 287 52 333T106 411T180 460T262 477Q288 477 312 469T355 447Q309 542 233 618L104 541L89 563ZM413 218Q413 260 405 301T382 383Q353 424 317 437T249 451Q218 451 193 436T149 395T122 332T112 252Q112 201 124 157T159 81T211 31T276
12Q306 12 331 27T375 70T403 135T413 218Z" />
<glyph unicode="&#xf1;" glyph-name="ntilde" horiz-adv-x="535" d="M15 17L85 31V390L18 420V427L151 474H154L157 384H158Q162 388 177 403T217 434T271 464T334 477Q397 477 429 441T462 314V31L525 17V0H327V17L388 31V314Q387 359 365 392T295 425Q273 425
253 419T216 403T184 383T159 364V31L226 17V0H15V17ZM259 613Q233 622 216 627T187 630T165 618T143 587L125 596L130 607Q146 640 161 658T194 682T232 686T278 674L311 663Q330 657 345 654T373 654T397 667T419 698L437 690L432 680Q415 643 398 624T364 598T327
593T288 603L259 613Z" />
<glyph unicode="&#xf2;" glyph-name="ograve" horiz-adv-x="537" d="M255 451Q222 451 196 436T152 393T125 330T115 251Q115 200 127 157T162 81T215 31T280 12Q313 12 339 27T383 70T411 134T421 213Q421 264 409 307T374 383T321 433T255 451ZM267 -14Q219
-14 177 2T104 50T54 127T35 228Q35 287 55 333T109 411T185 460T270 477Q321 477 363 459T436 409T484 333T502 236Q502 177 482 131T428 52T352 3T267 -14ZM224 752L277 544H256L155 745V752H224Z" />
<glyph unicode="&#xf3;" glyph-name="oacute" horiz-adv-x="537" d="M370 752V745L269 544H248L301 752H370ZM255 451Q222 451 196 436T152 393T125 330T115 251Q115 200 127 157T162 81T215 31T280 12Q313 12 339 27T383 70T411 134T421 213Q421 264 409 307T374
383T321 433T255 451ZM267 -14Q219 -14 177 2T104 50T54 127T35 228Q35 287 55 333T109 411T185 460T270 477Q321 477 363 459T436 409T484 333T502 236Q502 177 482 131T428 52T352 3T267 -14Z" />
<glyph unicode="&#xf4;" glyph-name="ocircumflex" horiz-adv-x="537" d="M143 544L244 752H284L386 544H360L262 693L166 544H143ZM255 451Q222 451 196 436T152 393T125 330T115 251Q115 200 127 157T162 81T215 31T280 12Q313 12 339 27T383 70T411 134T421
213Q421 264 409 307T374 383T321 433T255 451ZM267 -14Q219 -14 177 2T104 50T54 127T35 228Q35 287 55 333T109 411T185 460T270 477Q321 477 363 459T436 409T484 333T502 236Q502 177 482 131T428 52T352 3T267 -14Z" />
<glyph unicode="&#xf5;" glyph-name="otilde" horiz-adv-x="537" d="M255 451Q222 451 196 436T152 393T125 330T115 251Q115 200 127 157T162 81T215 31T280 12Q313 12 339 27T383 70T411 134T421 213Q421 264 409 307T374 383T321 433T255 451ZM267 -14Q219
-14 177 2T104 50T54 127T35 228Q35 287 55 333T109 411T185 460T270 477Q321 477 363 459T436 409T484 333T502 236Q502 177 482 131T428 52T352 3T267 -14ZM248 613Q222 622 205 627T176 630T154 618T132 587L114 596L119 607Q135 640 150 658T183 682T221 686T267
674L300 663Q319 657 334 654T362 654T386 667T408 698L426 690L421 680Q404 643 387 624T353 598T316 593T277 603L248 613Z" />
<glyph unicode="&#xf6;" glyph-name="odieresis" horiz-adv-x="537" d="M182 598Q162 598 149 611T136 645Q136 665 149 679T182 693Q202 693 216 679T230 645Q230 625 216 612T182 598ZM334 598Q314 598 301 611T287 645Q287 665 300 679T334 693Q354 693 367
679T381 645Q381 625 368 612T334 598ZM255 451Q222 451 196 436T152 393T125 330T115 251Q115 200 127 157T162 81T215 31T280 12Q313 12 339 27T383 70T411 134T421 213Q421 264 409 307T374 383T321 433T255 451ZM267 -14Q219 -14 177 2T104 50T54 127T35 228Q35
287 55 333T109 411T185 460T270 477Q321 477 363 459T436 409T484 333T502 236Q502 177 482 131T428 52T352 3T267 -14Z" />
<glyph unicode="&#xf7;" glyph-name="divide" horiz-adv-x="580" d="M53 216V251H527V216H53ZM290 343Q270 343 257 356T243 390Q243 410 256 423T290 437Q310 437 323 424T337 390Q337 370 324 357T290 343ZM290 30Q270 30 257 43T243 77Q243 97 256 110T290
124Q310 124 323 111T337 77Q337 57 324 44T290 30Z" />
<glyph unicode="&#xf8;" glyph-name="oslash" horiz-adv-x="537" d="M41 -50L112 46Q77 78 56 124T35 228Q35 287 55 333T109 411T185 460T270 477Q307 477 340 467T400 437L464 523H499L422 420Q460 387 481 340T502 236Q502 177 482 131T428 52T352 3T267 -14Q192
-14 133 28L75 -50H41ZM421 218Q421 262 412 300T385 369L165 72Q187 43 216 28T280 12Q313 12 339 27T383 70T411 136T421 218ZM255 451Q222 451 196 436T152 393T125 329T115 247Q115 158 149 96L368 393Q346 420 318 435T255 451Z" />
<glyph unicode="&#xf9;" glyph-name="ugrave" horiz-adv-x="527" d="M371 76Q362 65 347 50T312 21T265 -4T207 -14Q169 -14 143 -2T101 32T78 82T70 142V413L5 432V445L144 471V165Q144 97 173 69T249 41Q270 41 288 46T321 60T349 77T370 94V413L293 432V445L444
471V43L513 23V10L379 -9L371 76ZM222 752L275 544H254L153 745V752H222Z" />
<glyph unicode="&#xfa;" glyph-name="uacute" horiz-adv-x="527" d="M369 752V745L268 544H247L300 752H369ZM371 76Q362 65 347 50T312 21T265 -4T207 -14Q169 -14 143 -2T101 32T78 82T70 142V413L5 432V445L144 471V165Q144 97 173 69T249 41Q270 41 288 46T321
60T349 77T370 94V413L293 432V445L444 471V43L513 23V10L379 -9L371 76Z" />
<glyph unicode="&#xfb;" glyph-name="ucircumflex" horiz-adv-x="527" d="M142 544L243 752H283L385 544H359L261 693L165 544H142ZM371 76Q362 65 347 50T312 21T265 -4T207 -14Q169 -14 143 -2T101 32T78 82T70 142V413L5 432V445L144 471V165Q144 97 173 69T249
41Q270 41 288 46T321 60T349 77T370 94V413L293 432V445L444 471V43L513 23V10L379 -9L371 76Z" />
<glyph unicode="&#xfc;" glyph-name="udieresis" horiz-adv-x="527" d="M181 598Q161 598 148 611T135 645Q135 665 148 679T181 693Q201 693 215 679T229 645Q229 625 215 612T181 598ZM333 598Q313 598 300 611T286 645Q286 665 299 679T333 693Q353 693 366
679T380 645Q380 625 367 612T333 598ZM371 76Q362 65 347 50T312 21T265 -4T207 -14Q169 -14 143 -2T101 32T78 82T70 142V413L5 432V445L144 471V165Q144 97 173 69T249 41Q270 41 288 46T321 60T349 77T370 94V413L293 432V445L444 471V43L513 23V10L379 -9L371
76Z" />
<glyph unicode="&#xfd;" glyph-name="yacute" horiz-adv-x="453" d="M296 448V463H462V447L405 428L186 -183Q175 -212 159 -233T110 -254Q87 -254 73 -240T58 -205Q58 -184 71 -171T106 -157Q123 -157 134 -167T153 -192H155L216 -29L47 430L-9 448V463H197V448L131
429L252 79H254L372 428L296 448ZM366 752V745L265 544H244L297 752H366Z" />
<glyph unicode="&#xfe;" glyph-name="thorn" horiz-adv-x="512" d="M207 -11Q188 -11 171 -9T140 -2V-209L240 -222V-240H5V-221L66 -207V661L1 693V700L140 746V385Q152 403 167 419T202 448T244 468T294 476Q327 476 359 464T417 425T459 356T475 253Q475 194
451 145T388 62T301 8T207 -11ZM254 423Q231 423 213 416T181 399T157 376T140 354V51Q156 39 180 30T235 21Q270 21 300 34T353 74T388 142T401 239Q401 277 390 310T359 369T312 408T254 423Z" />
<glyph unicode="&#xff;" glyph-name="ydieresis" horiz-adv-x="453" d="M296 448V463H462V447L405 428L186 -183Q175 -212 159 -233T110 -254Q87 -254 73 -240T58 -205Q58 -184 71 -171T106 -157Q123 -157 134 -167T153 -192H155L216 -29L47 430L-9 448V463H197V448L131
429L252 79H254L372 428L296 448ZM177 598Q157 598 144 611T131 645Q131 665 144 679T177 693Q197 693 211 679T225 645Q225 625 211 612T177 598ZM329 598Q309 598 296 611T282 645Q282 665 295 679T329 693Q349 693 362 679T376 645Q376 625 363 612T329 598Z"
/>
<glyph unicode="&#x100;" glyph-name="Amacron" horiz-adv-x="632" d="M-24 19L53 36L281 669L310 675L346 683L580 32L656 17V0H409V19L489 32L417 238H163L95 38L213 19V0H-24V19ZM176 276H403L289 603H287L176 276ZM181 808H457V760H181V808Z" />
<glyph unicode="&#x101;" glyph-name="amacron" horiz-adv-x="450" d="M151 -14Q132 -14 112 -9T74 10T46 45T35 99Q35 128 46 149T77 187T126 216T193 238L298 267V314Q298 380 270 414T199 448Q176 448 159 441T131 424L126 330Q112 322 91 322Q71 322 59 332T47
361Q47 378 61 398T101 436T160 465T233 477Q309 477 340 442T372 340V59Q372 45 377 37T403 28H453V15Q438 7 422 1Q408 -4 393 -8T363 -12Q327 -12 312 6T297 67H295Q260 30 227 8T151 -14ZM197 38Q229 38 255 57T298 100V247L184 207Q142 193 128 171T114 121Q114
106 118 91T133 64T159 45T197 38ZM80 665H356V617H80V665Z" />
<glyph unicode="&#x102;" glyph-name="Abreve" horiz-adv-x="632" d="M-24 19L53 36L281 669L310 675L346 683L580 32L656 17V0H409V19L489 32L417 238H163L95 38L213 19V0H-24V19ZM176 276H403L289 603H287L176 276ZM313 730Q281 730 260 741T227 771T209 812T202
858H219Q228 826 252 804T317 781Q364 781 386 803T418 858H435Q434 836 428 814T409 773T372 742T313 730Z" />
<glyph unicode="&#x103;" glyph-name="abreve" horiz-adv-x="450" d="M151 -14Q132 -14 112 -9T74 10T46 45T35 99Q35 128 46 149T77 187T126 216T193 238L298 267V314Q298 380 270 414T199 448Q176 448 159 441T131 424L126 330Q112 322 91 322Q71 322 59 332T47
361Q47 378 61 398T101 436T160 465T233 477Q309 477 340 442T372 340V59Q372 45 377 37T403 28H453V15Q438 7 422 1Q408 -4 393 -8T363 -12Q327 -12 312 6T297 67H295Q260 30 227 8T151 -14ZM197 38Q229 38 255 57T298 100V247L184 207Q142 193 128 171T114 121Q114
106 118 91T133 64T159 45T197 38ZM217 560Q165 560 135 600T101 718H120Q135 661 160 640T218 618Q250 618 275 640T316 718H335Q331 644 302 602T217 560Z" />
<glyph unicode="&#x104;" glyph-name="Aogonek" horiz-adv-x="632" d="M-24 19L53 36L281 669L310 675L346 683L580 32L656 17V0H515Q489 -26 471 -45T440 -81T423 -112T417 -144Q417 -167 431 -182T469 -198Q491 -198 510 -187T556 -145L569 -154Q559 -169 546
-186T517 -217T479 -242T433 -252Q395 -252 372 -229T349 -170Q349 -147 359 -128T387 -89T433 -46T497 7L417 238H163L95 38L213 19V0H-24V19ZM176 276H403L289 603H287L176 276Z" />
<glyph unicode="&#x105;" glyph-name="aogonek" horiz-adv-x="450" d="M369 -12Q331 -12 314 9T297 67H295Q260 30 227 8T151 -14Q132 -14 112 -9T74 10T46 45T35 99Q35 128 46 149T77 187T126 216T193 238L298 267V314Q298 380 270 414T199 448Q176 448 159 441T131
424L126 330Q112 322 91 322Q71 322 59 332T47 361Q47 378 61 398T101 436T160 465T233 477Q309 477 340 442T372 340V59Q372 45 377 37T403 28H453V16Q400 -16 369 -40T321 -83T299 -118T294 -145Q294 -166 307 -182T346 -198Q368 -198 387 -187T433 -145L446
-154Q436 -169 423 -186T394 -217T356 -242T310 -252Q268 -252 247 -228T225 -171Q225 -146 236 -126T268 -88T314 -53T369 -16V-12ZM197 38Q229 38 255 57T298 100V247L184 207Q142 193 128 171T114 121Q114 106 118 91T133 64T159 45T197 38Z" />
<glyph unicode="&#x106;" glyph-name="Cacute" horiz-adv-x="702" d="M377 -22Q288 -22 225 8T120 86T60 192T40 308Q40 389 70 458T151 578T271 657T418 686Q447 686 476 682T534 670T586 652T630 631L639 467H620L563 602Q528 627 487 643T397 659Q341 659 293
634T209 565T153 463T133 337Q133 252 156 191T217 89T304 29T405 9Q455 9 497 28T568 67L646 222H665L637 44Q577 20 514 -1T377 -22ZM542 865V859L411 728H384L464 865H542Z" />
<glyph unicode="&#x107;" glyph-name="cacute" horiz-adv-x="453" d="M369 752V745L268 544H247L300 752H369ZM244 -14Q204 -14 166 0T99 44T51 119T33 225Q33 282 54 328T109 408T185 459T271 477Q302 477 331 469T382 447T417 415T431 377Q431 354 414 341T374
328Q363 328 360 329Q357 329 356 330L333 415Q316 429 296 439T252 449Q224 449 198 437T151 402T119 343T106 262Q106 209 120 170T159 103T213 63T277 49Q328 49 363 73T425 128L439 118Q432 107 418 85T380 41T323 3T244 -14Z" />
<glyph unicode="&#x108;" glyph-name="Ccircumflex" horiz-adv-x="702" d="M265 728L379 853H433L537 728H505L403 807L294 728H265ZM377 -22Q288 -22 225 8T120 86T60 192T40 308Q40 389 70 458T151 578T271 657T418 686Q447 686 476 682T534 670T586 652T630
631L639 467H620L563 602Q528 627 487 643T397 659Q341 659 293 634T209 565T153 463T133 337Q133 252 156 191T217 89T304 29T405 9Q455 9 497 28T568 67L646 222H665L637 44Q577 20 514 -1T377 -22Z" />
<glyph unicode="&#x109;" glyph-name="ccircumflex" horiz-adv-x="453" d="M144 544L245 752H285L387 544H361L263 693L167 544H144ZM244 -14Q204 -14 166 0T99 44T51 119T33 225Q33 282 54 328T109 408T185 459T271 477Q302 477 331 469T382 447T417 415T431
377Q431 354 414 341T374 328Q363 328 360 329Q357 329 356 330L333 415Q316 429 296 439T252 449Q224 449 198 437T151 402T119 343T106 262Q106 209 120 170T159 103T213 63T277 49Q328 49 363 73T425 128L439 118Q432 107 418 85T380 41T323 3T244 -14Z" />
<glyph unicode="&#x10a;" glyph-name="Cdotaccent" horiz-adv-x="702" d="M377 -22Q288 -22 225 8T120 86T60 192T40 308Q40 389 70 458T151 578T271 657T418 686Q447 686 476 682T534 670T586 652T630 631L639 467H620L563 602Q528 627 487 643T397 659Q341 659
293 634T209 565T153 463T133 337Q133 252 156 191T217 89T304 29T405 9Q455 9 497 28T568 67L646 222H665L637 44Q577 20 514 -1T377 -22ZM410 752Q388 752 373 767T357 805Q357 827 372 842T410 858Q432 858 447 843T463 805Q463 783 448 768T410 752Z" />
<glyph unicode="&#x10b;" glyph-name="cdotaccent" horiz-adv-x="453" d="M244 -14Q204 -14 166 0T99 44T51 119T33 225Q33 282 54 328T109 408T185 459T271 477Q302 477 331 469T382 447T417 415T431 377Q431 354 414 341T374 328Q363 328 360 329Q357 329 356
330L333 415Q316 429 296 439T252 449Q224 449 198 437T151 402T119 343T106 262Q106 209 120 170T159 103T213 63T277 49Q328 49 363 73T425 128L439 118Q432 107 418 85T380 41T323 3T244 -14ZM265 592Q243 592 228 607T212 645Q212 667 227 682T265 698Q287
698 302 683T318 645Q318 623 303 608T265 592Z" />
<glyph unicode="&#x10c;" glyph-name="Ccaron" horiz-adv-x="702" d="M547 853L433 728H379L275 853H307L408 774L518 853H547ZM377 -22Q288 -22 225 8T120 86T60 192T40 308Q40 389 70 458T151 578T271 657T418 686Q447 686 476 682T534 670T586 652T630 631L639
467H620L563 602Q528 627 487 643T397 659Q341 659 293 634T209 565T153 463T133 337Q133 252 156 191T217 89T304 29T405 9Q455 9 497 28T568 67L646 222H665L637 44Q577 20 514 -1T377 -22Z" />
<glyph unicode="&#x10d;" glyph-name="ccaron" horiz-adv-x="453" d="M385 752L284 544H244L142 752H168L265 608L362 752H385ZM244 -14Q204 -14 166 0T99 44T51 119T33 225Q33 282 54 328T109 408T185 459T271 477Q302 477 331 469T382 447T417 415T431 377Q431
354 414 341T374 328Q363 328 360 329Q357 329 356 330L333 415Q316 429 296 439T252 449Q224 449 198 437T151 402T119 343T106 262Q106 209 120 170T159 103T213 63T277 49Q328 49 363 73T425 128L439 118Q432 107 418 85T380 41T323 3T244 -14Z" />
<glyph unicode="&#x10e;" glyph-name="Dcaron" horiz-adv-x="737" d="M481 853L367 728H313L209 853H241L342 774L452 853H481ZM198 43Q229 31 260 28T320 25Q387 26 439 51T528 119T583 214T602 327Q602 415 570 477T482 578T353 631T198 642V43ZM25 19L112 33V631L25
646V664L308 666Q401 662 473 636T595 568T671 469T697 347Q697 268 668 203T583 92T443 20T253 -3L25 0V19Z" />
<glyph unicode="&#x10f;" glyph-name="dcaron" horiz-adv-x="531" d="M506 532L522 733H594V726L522 532H506ZM304 701L454 746V43L523 23V10L389 -9L382 59Q355 32 317 9T230 -14Q181 -14 144 4T83 54T46 125T33 211Q33 274 56 323T116 406T200 459T295 477Q322
477 343 472T380 458V664L304 694V701ZM274 35Q307 35 333 49T380 81V391Q357 417 328 431T258 446Q227 446 200 433T153 395T121 332T109 245Q109 214 117 178T145 110T196 57T274 35Z" />
<glyph unicode="&#x110;" glyph-name="Dcroat" horiz-adv-x="737" d="M25 19L112 33V319H27V343H112V631L25 646V664L308 666Q401 662 473 636T595 568T671 469T697 347Q697 268 668 203T583 92T443 20T253 -3L25 0V19ZM198 319V43Q229 31 260 28T320 25Q387 26
439 51T528 119T583 214T602 327Q602 415 570 477T482 578T353 631T198 642V343H379V319H198Z" />
<glyph unicode="&#x111;" glyph-name="dcroat" horiz-adv-x="531" d="M304 700L454 745V579H526V555H454V43L523 23V10L389 -9L382 59Q355 32 317 9T230 -14Q181 -14 144 4T83 54T46 125T33 211Q33 274 56 323T116 406T200 459T295 477Q322 477 343 472T380 458V555H182V579H380V663L304
693V700ZM274 35Q307 35 333 49T380 81V391Q357 417 328 431T258 446Q227 446 200 433T153 395T121 332T109 245Q109 214 117 178T145 110T196 57T274 35Z" />
<glyph unicode="&#x112;" glyph-name="Emacron" horiz-adv-x="588" d="M198 331V49Q206 40 216 35T243 27H440L531 193H550L507 0H25V19L112 33V631L25 647V664H449L515 669V480H497L450 637H198V362H344L375 469H392V230H375L344 331H198ZM176 808H452V760H176V808Z" />
<glyph unicode="&#x113;" glyph-name="emacron" horiz-adv-x="460" d="M237 -14Q185 -14 147 6T84 60T46 134T33 218Q33 271 51 318T99 400T170 456T254 477Q328 477 374 429T429 288H106Q105 281 105 274T105 260Q105 160 148 105T268 50Q296 50 319 58T362 78T396
104T422 130L436 120Q422 99 406 76T366 32T311 -1T237 -14ZM229 445Q183 445 152 409T109 313H341Q334 344 325 368T303 410T272 436T229 445ZM114 665H390V617H114V665Z" />
<glyph unicode="&#x114;" glyph-name="Ebreve" horiz-adv-x="588" d="M198 331V49Q206 40 216 35T243 27H440L531 193H550L507 0H25V19L112 33V631L25 647V664H449L515 669V480H497L450 637H198V362H344L375 469H392V230H375L344 331H198ZM313 730Q281 730 260
741T227 771T209 812T202 858H219Q228 826 252 804T317 781Q364 781 386 803T418 858H435Q434 836 428 814T409 773T372 742T313 730Z" />
<glyph unicode="&#x115;" glyph-name="ebreve" horiz-adv-x="460" d="M237 -14Q185 -14 147 6T84 60T46 134T33 218Q33 271 51 318T99 400T170 456T254 477Q328 477 374 429T429 288H106Q105 281 105 274T105 260Q105 160 148 105T268 50Q296 50 319 58T362 78T396
104T422 130L436 120Q422 99 406 76T366 32T311 -1T237 -14ZM229 445Q183 445 152 409T109 313H341Q334 344 325 368T303 410T272 436T229 445ZM247 560Q195 560 165 600T131 718H150Q165 661 190 640T248 618Q280 618 305 640T346 718H365Q361 644 332 602T247
560Z" />
<glyph unicode="&#x116;" glyph-name="Edotaccent" horiz-adv-x="588" d="M315 752Q293 752 278 767T262 805Q262 827 277 842T315 858Q337 858 352 843T368 805Q368 783 353 768T315 752ZM198 331V49Q206 40 216 35T243 27H440L531 193H550L507 0H25V19L112 33V631L25
647V664H449L515 669V480H497L450 637H198V362H344L375 469H392V230H375L344 331H198Z" />
<glyph unicode="&#x117;" glyph-name="edotaccent" horiz-adv-x="460" d="M237 -14Q185 -14 147 6T84 60T46 134T33 218Q33 271 51 318T99 400T170 456T254 477Q328 477 374 429T429 288H106Q105 281 105 274T105 260Q105 160 148 105T268 50Q296 50 319 58T362
78T396 104T422 130L436 120Q422 99 406 76T366 32T311 -1T237 -14ZM229 445Q183 445 152 409T109 313H341Q334 344 325 368T303 410T272 436T229 445ZM254 592Q232 592 217 607T201 645Q201 667 216 682T254 698Q276 698 291 683T307 645Q307 623 292 608T254
592Z" />
<glyph unicode="&#x118;" glyph-name="Eogonek" horiz-adv-x="588" d="M198 331V49Q206 40 216 35T243 27H440L531 193H550L507 0H445Q394 -51 370 -83T345 -146Q345 -166 358 -182T397 -198Q419 -198 438 -187T484 -145L497 -154Q487 -169 474 -186T445 -217T407
-242T361 -252Q323 -252 300 -229T277 -170Q277 -146 287 -127T316 -88T362 -48T425 0H25V19L112 33V631L25 647V664H449L515 669V480H497L450 637H198V362H344L375 469H392V230H375L344 331H198Z" />
<glyph unicode="&#x119;" glyph-name="eogonek" horiz-adv-x="460" d="M237 -14Q185 -14 147 6T84 60T46 134T33 218Q33 271 51 318T99 400T170 456T254 477Q325 477 373 430T429 288H106Q105 281 105 274T105 260Q105 160 148 105T268 50Q296 50 319 58T362 78T396
104T422 130L436 120Q421 96 405 77T366 34Q345 13 321 -10T277 -57T244 -104T231 -146Q231 -166 244 -182T285 -198Q305 -198 324 -187T370 -145L383 -154Q373 -169 360 -186T331 -217T294 -242T247 -252Q209 -252 186 -229T163 -170Q163 -146 172 -127T200 -90T244
-52T303 -6V-2Q286 -8 269 -11T237 -14ZM229 445Q182 445 151 409T109 313H341Q327 378 302 411T229 445Z" />
<glyph unicode="&#x11a;" glyph-name="Ecaron" horiz-adv-x="588" d="M457 853L343 728H289L185 853H217L318 774L428 853H457ZM198 331V49Q206 40 216 35T243 27H440L531 193H550L507 0H25V19L112 33V631L25 647V664H449L515 669V480H497L450 637H198V362H344L375
469H392V230H375L344 331H198Z" />
<glyph unicode="&#x11b;" glyph-name="ecaron" horiz-adv-x="460" d="M370 752L269 544H229L127 752H153L250 608L347 752H370ZM237 -14Q185 -14 147 6T84 60T46 134T33 218Q33 271 51 318T99 400T170 456T254 477Q328 477 374 429T429 288H106Q105 281 105 274T105
260Q105 160 148 105T268 50Q296 50 319 58T362 78T396 104T422 130L436 120Q422 99 406 76T366 32T311 -1T237 -14ZM229 445Q183 445 152 409T109 313H341Q334 344 325 368T303 410T272 436T229 445Z" />
<glyph unicode="&#x11c;" glyph-name="Gcircumflex" horiz-adv-x="724" d="M275 728L389 853H443L547 728H515L413 807L304 728H275ZM398 -20Q303 -20 236 9T125 86T61 194T40 316Q40 392 71 459T154 576T276 656T424 686Q490 686 545 669T642 629V463H625L569
602Q539 625 495 641T404 657Q347 657 298 635T212 571T155 472T134 341Q134 257 157 195T221 92T313 31T424 11Q469 11 504 21T559 40V249L456 265V283H694V264L646 252V38L597 19Q565 8 513 -6T398 -20Z" />
<glyph unicode="&#x11d;" glyph-name="gcircumflex" horiz-adv-x="470" d="M96 544L197 752H237L339 544H313L215 693L119 544H96ZM346 418V416Q362 399 378 372T394 307Q394 268 378 237T335 184T276 151T209 139Q188 139 168 143T128 156Q103 134 103 109Q103
94 115 83T151 70L345 56Q402 51 432 24T463 -44Q463 -82 441 -117T380 -180T292 -225T187 -242Q110 -242 63 -213T16 -123Q16 -91 41 -61T101 -12L126 1V4Q111 5 97 9T70 21T51 43T44 74Q44 101 65 122T109 164V166Q78 186 59 219T39 302Q39 341 52 372T90 426T146
461T215 474Q247 474 272 467T325 448L466 463V418H346ZM146 -2Q126 -18 108 -42T89 -100Q89 -150 125 -178T235 -207Q278 -207 308 -195T358 -163T387 -122T396 -80Q396 -53 379 -37T338 -15L146 -2ZM118 335Q118 251 145 207T222 163Q260 163 287 196T314 289Q314
334 306 365T283 416T249 445T208 455Q164 455 141 422T118 335Z" />
<glyph unicode="&#x11e;" glyph-name="Gbreve" horiz-adv-x="724" d="M405 730Q373 730 352 741T319 771T301 812T294 858H311Q320 826 344 804T409 781Q456 781 478 803T510 858H527Q526 836 520 814T501 773T464 742T405 730ZM398 -20Q303 -20 236 9T125 86T61
194T40 316Q40 392 71 459T154 576T276 656T424 686Q490 686 545 669T642 629V463H625L569 602Q539 625 495 641T404 657Q347 657 298 635T212 571T155 472T134 341Q134 257 157 195T221 92T313 31T424 11Q469 11 504 21T559 40V249L456 265V283H694V264L646 252V38L597
19Q565 8 513 -6T398 -20Z" />
<glyph unicode="&#x11f;" glyph-name="gbreve" horiz-adv-x="470" d="M346 418V416Q362 399 378 372T394 307Q394 268 378 237T335 184T276 151T209 139Q188 139 168 143T128 156Q103 134 103 109Q103 94 115 83T151 70L345 56Q402 51 432 24T463 -44Q463 -82
441 -117T380 -180T292 -225T187 -242Q110 -242 63 -213T16 -123Q16 -91 41 -61T101 -12L126 1V4Q111 5 97 9T70 21T51 43T44 74Q44 101 65 122T109 164V166Q78 186 59 219T39 302Q39 341 52 372T90 426T146 461T215 474Q247 474 272 467T325 448L466 463V418H346ZM146
-2Q126 -18 108 -42T89 -100Q89 -150 125 -178T235 -207Q278 -207 308 -195T358 -163T387 -122T396 -80Q396 -53 379 -37T338 -15L146 -2ZM118 335Q118 251 145 207T222 163Q260 163 287 196T314 289Q314 334 306 365T283 416T249 445T208 455Q164 455 141 422T118
335ZM214 560Q162 560 132 600T98 718H117Q132 661 157 640T215 618Q247 618 272 640T313 718H332Q328 644 299 602T214 560Z" />
<glyph unicode="&#x120;" glyph-name="Gdotaccent" horiz-adv-x="724" d="M415 752Q393 752 378 767T362 805Q362 827 377 842T415 858Q437 858 452 843T468 805Q468 783 453 768T415 752ZM398 -20Q303 -20 236 9T125 86T61 194T40 316Q40 392 71 459T154 576T276
656T424 686Q490 686 545 669T642 629V463H625L569 602Q539 625 495 641T404 657Q347 657 298 635T212 571T155 472T134 341Q134 257 157 195T221 92T313 31T424 11Q469 11 504 21T559 40V249L456 265V283H694V264L646 252V38L597 19Q565 8 513 -6T398 -20Z" />
<glyph unicode="&#x121;" glyph-name="gdotaccent" horiz-adv-x="470" d="M346 418V416Q362 399 378 372T394 307Q394 268 378 237T335 184T276 151T209 139Q188 139 168 143T128 156Q103 134 103 109Q103 94 115 83T151 70L345 56Q402 51 432 24T463 -44Q463
-82 441 -117T380 -180T292 -225T187 -242Q110 -242 63 -213T16 -123Q16 -91 41 -61T101 -12L126 1V4Q111 5 97 9T70 21T51 43T44 74Q44 101 65 122T109 164V166Q78 186 59 219T39 302Q39 341 52 372T90 426T146 461T215 474Q247 474 272 467T325 448L466 463V418H346ZM146
-2Q126 -18 108 -42T89 -100Q89 -150 125 -178T235 -207Q278 -207 308 -195T358 -163T387 -122T396 -80Q396 -53 379 -37T338 -15L146 -2ZM118 335Q118 251 145 207T222 163Q260 163 287 196T314 289Q314 334 306 365T283 416T249 445T208 455Q164 455 141 422T118
335ZM215 592Q193 592 178 607T162 645Q162 667 177 682T215 698Q237 698 252 683T268 645Q268 623 253 608T215 592Z" />
<glyph unicode="&#x122;" glyph-name="Gcommaaccent" horiz-adv-x="724" d="M315 -238Q368 -226 387 -207T407 -166Q407 -144 390 -133T346 -119V-115Q349 -93 362 -79T402 -64Q430 -64 450 -84T471 -135Q471 -180 436 -212T318 -255L315 -238ZM398 -20Q303 -20
236 9T125 86T61 194T40 316Q40 392 71 459T154 576T276 656T424 686Q490 686 545 669T642 629V463H625L569 602Q539 625 495 641T404 657Q347 657 298 635T212 571T155 472T134 341Q134 257 157 195T221 92T313 31T424 11Q469 11 504 21T559 40V249L456 265V283H694V264L646
252V38L597 19Q565 8 513 -6T398 -20Z" />
<glyph unicode="&#x123;" glyph-name="gcommaaccent" horiz-adv-x="470" d="M303 761Q250 749 231 730T211 689Q211 667 228 656T272 642V638Q269 616 256 602T216 587Q188 587 168 606T147 661Q147 703 187 735T300 778L303 761ZM346 418V416Q362 399 378 372T394
307Q394 268 378 237T335 184T276 151T209 139Q188 139 168 143T128 156Q103 134 103 109Q103 94 115 83T151 70L345 56Q402 51 432 24T463 -44Q463 -82 441 -117T380 -180T292 -225T187 -242Q110 -242 63 -213T16 -123Q16 -91 41 -61T101 -12L126 1V4Q111 5 97
9T70 21T51 43T44 74Q44 101 65 122T109 164V166Q78 186 59 219T39 302Q39 341 52 372T90 426T146 461T215 474Q247 474 272 467T325 448L466 463V418H346ZM146 -2Q126 -18 108 -42T89 -100Q89 -150 125 -178T235 -207Q278 -207 308 -195T358 -163T387 -122T396
-80Q396 -53 379 -37T338 -15L146 -2ZM118 335Q118 251 145 207T222 163Q260 163 287 196T314 289Q314 334 306 365T283 416T249 445T208 455Q164 455 141 422T118 335Z" />
<glyph unicode="&#x124;" glyph-name="Hcircumflex" horiz-adv-x="735" d="M450 19L537 33V332H198V33L286 19V0H25V19L112 33V631L25 647V664H286V647L198 631V361H537V631L450 647V664H710V647L623 631V33L710 19V0H450V19ZM228 728L342 853H396L500 728H468L366
807L257 728H228Z" />
<glyph unicode="&#x125;" glyph-name="hcircumflex" horiz-adv-x="525" d="M317 17L378 31V314Q377 359 355 392T285 425Q263 425 243 419T206 403T174 383T149 364V31L216 17V0H15V17L75 31V662L10 694V701L149 746V384Q153 388 168 403T208 434T261 463T324
476Q355 476 379 468T419 440T443 390T452 314V31L515 17V0H317V17ZM134 766L248 891H302L406 766H374L272 845L163 766H134Z" />
<glyph unicode="&#x126;" glyph-name="Hbar" horiz-adv-x="735" d="M450 19L537 33V332H198V33L286 19V0H25V19L112 33V497H14V522H112V631L25 647V664H286V647L198 631V522H537V631L450 647V664H710V647L623 631V522H721V497H623V33L710 19V0H450V19ZM198 361H537V497H198V361Z"
/>
<glyph unicode="&#x127;" glyph-name="hbar" horiz-adv-x="525" d="M317 17L378 31V314Q377 359 355 392T285 425Q263 425 243 419T206 403T174 383T149 364V31L216 17V0H5V17L75 31V555H3V579H75V662L10 694V701L149 746V579H347V555H149V384Q153 388 168 403T208
434T261 463T324 476Q355 476 379 468T419 440T443 390T452 314V31L515 16V0H317V17Z" />
<glyph unicode="&#x128;" glyph-name="Itilde" horiz-adv-x="310" d="M25 20L112 34V630L25 646V664H285V646L198 630V34L285 20V0H25V20ZM401 758Q375 767 358 772T329 775T307 763T285 732L267 741L272 752Q288 785 303 803T336 827T374 831T420 819L453 808Q472
802 487 799T515 799T539 812T561 843L579 835L574 825Q557 788 540 769T506 743T469 738T430 748L401 758Z" />
<glyph unicode="&#x129;" glyph-name="itilde" horiz-adv-x="239" d="M84 622Q52 638 34 631T-4 587L-21 595L-16 606Q0 639 15 658T45 684T76 690T110 679L136 667Q152 659 164 654T188 650T211 663T236 698L253 691L248 681Q229 639 212 620T177 595T141 596T100
614L84 622ZM15 17L85 31V390L18 420V427L159 477V31L229 17V0H15V17Z" />
<glyph unicode="&#x12a;" glyph-name="Imacron" horiz-adv-x="310" d="M35 808H280V760H35V808ZM25 20L112 34V630L25 646V664H285V646L198 630V34L285 20V0H25V20Z" />
<glyph unicode="&#x12b;" glyph-name="imacron" horiz-adv-x="239" d="M18 665H234V617H18V665ZM15 17L85 31V390L18 420V427L159 477V31L229 17V0H15V17Z" />
<glyph unicode="&#x12c;" glyph-name="Ibreve" horiz-adv-x="310" d="M25 20L112 34V630L25 646V664H285V646L198 630V34L285 20V0H25V20ZM409 730Q377 730 356 741T323 771T305 812T298 858H315Q324 826 348 804T413 781Q460 781 482 803T514 858H531Q530 836
524 814T505 773T468 742T409 730Z" />
<glyph unicode="&#x12d;" glyph-name="ibreve" horiz-adv-x="239" d="M15 17L85 31V390L18 420V427L159 477V31L229 17V0H15V17ZM386 560Q334 560 304 600T270 718H289Q304 661 329 640T387 618Q419 618 444 640T485 718H504Q500 644 471 602T386 560Z" />
<glyph unicode="&#x12e;" glyph-name="Iogonek" horiz-adv-x="310" d="M25 20L112 34V630L25 646V664H285V646L198 630V34L285 20V0H161Q145 -31 136 -52T121 -88T114 -115T112 -139Q112 -165 125 -181T164 -198Q186 -198 205 -187T251 -145L264 -154Q254 -169
241 -186T212 -217T177 -242T135 -252Q92 -252 69 -228T45 -169Q45 -131 70 -92T135 0H25V20Z" />
<glyph unicode="&#x12f;" glyph-name="iogonek" horiz-adv-x="239" d="M15 17L85 31V390L18 420V427L159 477V31L229 17V0H133Q117 -31 108 -52T93 -88T86 -115T84 -139Q84 -165 97 -181T136 -198Q158 -198 177 -187T223 -145L236 -154Q226 -169 213 -186T184
-217T149 -242T107 -252Q64 -252 41 -228T17 -169Q17 -131 42 -92T107 0H15V17ZM118 592Q96 592 81 607T65 645Q65 667 80 682T118 698Q140 698 155 683T171 645Q171 623 156 608T118 592Z" />
<glyph unicode="&#x130;" glyph-name="Idotaccent" horiz-adv-x="310" d="M25 20L112 34V630L25 646V664H285V646L198 630V34L285 20V0H25V20ZM414 752Q392 752 377 767T361 805Q361 827 376 842T414 858Q436 858 451 843T467 805Q467 783 452 768T414 752Z" />
<glyph unicode="&#x131;" glyph-name="dotlessi" horiz-adv-x="239" d="M15 17L85 31V390L18 420V427L159 477V31L229 17V0H15V17Z" />
<glyph unicode="&#x132;" glyph-name="IJ" horiz-adv-x="602" d="M25 20L112 34V630L25 646V664H285V646L198 630V34L285 20V0H25V20ZM497 43Q497 -10 488 -52T455 -126T389 -183T280 -224L274 -203Q311 -187 337 -167T379 -121T403 -61T411 17V631L324 647V664H584V647L497
631V43Z" />
<glyph unicode="&#x133;" glyph-name="ij" horiz-adv-x="468" d="M15 17L85 31V390L18 420V427L159 477V31L229 17V0H15V17ZM118 592Q96 592 81 607T65 645Q65 667 80 682T118 698Q140 698 155 683T171 645Q171 623 156 608T118 592ZM219 -225Q249 -204 267 -185T297
-142T314 -83T322 5V390L255 420V427L396 477V24Q396 -28 391 -70T365 -146Q345 -177 312 -196T226 -239L219 -225ZM355 592Q333 592 318 607T302 645Q302 667 317 682T355 698Q377 698 392 683T408 645Q408 623 393 608T355 592Z" />
<glyph unicode="&#x134;" glyph-name="Jcircumflex" horiz-adv-x="303" d="M275 728L389 853H443L547 728H515L413 807L304 728H275ZM198 43Q198 -10 189 -52T156 -126T90 -183T-19 -224L-25 -203Q12 -187 38 -167T80 -121T104 -61T112 17V631L25 647V664H285V647L198
631V43Z" />
<glyph unicode="&#x135;" glyph-name="jcircumflex" horiz-adv-x="232" d="M-18 -225Q12 -204 30 -185T60 -142T77 -83T85 5V390L18 420V427L159 477V24Q159 -28 154 -70T128 -146Q108 -177 75 -196T-11 -239L-18 -225ZM12 544L103 752H143L235 544H209L121 691L35
544H12Z" />
<glyph unicode="&#x136;" glyph-name="Kcommaaccent" horiz-adv-x="635" d="M268 -238Q321 -226 340 -207T360 -166Q360 -144 343 -133T299 -119V-115Q302 -93 315 -79T355 -64Q383 -64 403 -84T424 -135Q424 -180 389 -212T271 -255L268 -238ZM25 19L112 33V631L25
647V664H286V647L198 631V33L286 19V0H25V19ZM210 344V347L489 627L397 647V664H606V647L535 629L285 379L572 33L646 19V0H492L210 344Z" />
<glyph unicode="&#x137;" glyph-name="kcommaaccent" horiz-adv-x="468" d="M171 -238Q224 -226 243 -207T263 -166Q263 -144 246 -133T202 -119V-115Q205 -93 218 -79T258 -64Q286 -64 306 -84T327 -135Q327 -180 292 -212T174 -255L171 -238ZM75 662L10 694V701L149
746V31L225 17V0H15V17L75 31V662ZM420 -14Q393 -14 375 -1T333 39L155 249L364 427L289 444V463H464V444L405 427L223 275L465 4Q462 -1 456 -5Q451 -9 442 -11T420 -14Z" />
<glyph unicode="&#x138;" glyph-name="kgreenlandic" horiz-adv-x="478" d="M15 17L85 31V390L18 420V427L159 474V31L226 17V0H15V17ZM430 -14Q403 -14 385 -1T343 39L165 249L374 427L299 444V463H474V444L415 427L233 275L475 4Q472 -1 466 -5Q461 -9 452 -11T430
-14Z" />
<glyph unicode="&#x139;" glyph-name="Lacute" horiz-adv-x="571" d="M303 865V859L172 728H145L225 865H303ZM198 50Q206 41 216 36T243 28H451L544 216H561L516 0H25V19L112 33V631L25 646V664H302V646L198 633V50Z" />
<glyph unicode="&#x13a;" glyph-name="lacute" horiz-adv-x="222" d="M518 905V899L387 768H360L440 905H518ZM15 17L75 31V662L12 694V701L149 746V31L212 17V0H15V17Z" />
<glyph unicode="&#x13b;" glyph-name="Lcommaaccent" horiz-adv-x="571" d="M207 -238Q260 -226 279 -207T299 -166Q299 -144 282 -133T238 -119V-115Q241 -93 254 -79T294 -64Q322 -64 342 -84T363 -135Q363 -180 328 -212T210 -255L207 -238ZM198 50Q206 41
216 36T243 28H451L544 216H561L516 0H25V19L112 33V631L25 646V664H302V646L198 633V50Z" />
<glyph unicode="&#x13c;" glyph-name="lcommaaccent" horiz-adv-x="222" d="M296 -238Q349 -226 368 -207T388 -166Q388 -144 371 -133T327 -119V-115Q330 -93 343 -79T383 -64Q411 -64 431 -84T452 -135Q452 -180 417 -212T299 -255L296 -238ZM15 17L75 31V662L12
694V701L149 746V31L212 17V0H15V17Z" />
<glyph unicode="&#x13d;" glyph-name="Lcaron" horiz-adv-x="571" d="M394 532L410 733H482V726L410 532H394ZM198 50Q206 41 216 36T243 28H451L544 216H561L516 0H25V19L112 33V631L25 646V664H302V646L198 633V50Z" />
<glyph unicode="&#x13e;" glyph-name="lcaron" horiz-adv-x="222" d="M201 532L217 733H289V726L217 532H201ZM15 17L75 31V662L12 694V701L149 746V31L212 17V0H15V17Z" />
<glyph unicode="&#x13f;" glyph-name="Ldot" horiz-adv-x="571" d="M483 313Q460 313 444 329T428 368Q428 391 444 407T483 423Q506 423 522 407T538 368Q538 345 522 329T483 313ZM198 51Q206 42 216 36T243 28H454L539 200H558L516 0H25V19L112 33V631L25 646V664H302V646L198
633V51Z" />
<glyph unicode="&#x140;" glyph-name="ldot" horiz-adv-x="284" d="M254 318Q233 318 219 332T204 368Q204 389 218 403T254 418Q275 418 289 404T304 368Q304 347 290 333T254 318ZM15 17L75 31V662L12 694V701L149 746V31L212 17V0H15V17Z" />
<glyph unicode="&#x141;" glyph-name="Lslash" horiz-adv-x="571" d="M26 297L112 320V631L25 646V664H302V646L198 633V343L422 403V377L198 316V50Q206 41 216 36T243 28H451L544 216H561L516 0H25V17L112 33V293L26 270V297Z" />
<glyph unicode="&#x142;" glyph-name="lslash" horiz-adv-x="222" d="M-5 318L75 366V662L10 694V701L149 746V410L236 463V433L149 380V31L212 17V0H15V17L75 31V336L-5 288V318Z" />
<glyph unicode="&#x143;" glyph-name="Nacute" horiz-adv-x="710" d="M507 865V859L376 728H349L429 865H507ZM595 -6L145 577V40L257 21V0H25V20L112 42V602Q98 616 81 626T40 642L25 646V664H182L575 155V624L471 643V664H695V644L608 622V129L612 -6H595Z" />
<glyph unicode="&#x144;" glyph-name="nacute" horiz-adv-x="535" d="M377 752V745L276 544H255L308 752H377ZM15 17L85 31V390L18 420V427L151 474H154L157 384H158Q162 388 177 403T217 434T271 464T334 477Q397 477 429 441T462 314V31L525 17V0H327V17L388
31V314Q387 359 365 392T295 425Q273 425 253 419T216 403T184 383T159 364V31L226 17V0H15V17Z" />
<glyph unicode="&#x145;" glyph-name="Ncommaaccent" horiz-adv-x="710" d="M284 -238Q337 -226 356 -207T376 -166Q376 -144 359 -133T315 -119V-115Q318 -93 331 -79T371 -64Q399 -64 419 -84T440 -135Q440 -180 405 -212T287 -255L284 -238ZM595 -6L145 577V40L257
21V0H25V20L112 42V602Q98 616 81 626T40 642L25 646V664H182L575 155V624L471 643V664H695V644L608 622V129L612 -6H595Z" />
<glyph unicode="&#x146;" glyph-name="ncommaaccent" horiz-adv-x="535" d="M178 -238Q231 -226 250 -207T270 -166Q270 -144 253 -133T209 -119V-115Q212 -93 225 -79T265 -64Q293 -64 313 -84T334 -135Q334 -180 299 -212T181 -255L178 -238ZM15 17L85 31V390L18
420V427L151 474H154L157 384H158Q162 388 177 403T217 434T271 464T334 477Q397 477 429 441T462 314V31L525 17V0H327V17L388 31V314Q387 359 365 392T295 425Q273 425 253 419T216 403T184 383T159 364V31L226 17V0H15V17Z" />
<glyph unicode="&#x147;" glyph-name="Ncaron" horiz-adv-x="710" d="M512 853L398 728H344L240 853H272L373 774L483 853H512ZM595 -6L145 577V40L257 21V0H25V20L112 42V602Q98 616 81 626T40 642L25 646V664H182L575 155V624L471 643V664H695V644L608 622V129L612
-6H595Z" />
<glyph unicode="&#x148;" glyph-name="ncaron" horiz-adv-x="535" d="M391 752L290 544H250L148 752H174L271 608L368 752H391ZM15 17L85 31V390L18 420V427L151 474H154L157 384H158Q162 388 177 403T217 434T271 464T334 477Q397 477 429 441T462 314V31L525
17V0H327V17L388 31V314Q387 359 365 392T295 425Q273 425 253 419T216 403T184 383T159 364V31L226 17V0H15V17Z" />
<glyph unicode="&#x149;" glyph-name="napostrophe" horiz-adv-x="535" d="M-41 566Q12 578 31 597T51 638Q51 660 34 671T-10 685V689Q-7 711 6 725T46 740Q74 740 94 720T115 669Q115 624 80 592T-38 549L-41 566ZM15 17L85 31V390L18 420V427L151 474H154L157
384H158Q162 388 177 403T217 434T271 464T334 477Q397 477 429 441T462 314V31L525 17V0H327V17L388 31V314Q387 359 365 392T295 425Q273 425 253 419T216 403T184 383T159 364V31L226 17V0H15V17Z" />
<glyph unicode="&#x14a;" glyph-name="Eng" horiz-adv-x="713" d="M608 622V43Q608 -14 599 -57T565 -131T498 -185T391 -224L386 -203Q486 -170 527 -115T568 17V29L145 577V40L257 21V0H25V20L112 42V602Q95 620 76 629T41 642L25 646V664H182L575 155V624L471
643V664H695V644L608 622Z" />
<glyph unicode="&#x14b;" glyph-name="eng" horiz-adv-x="534" d="M388 314Q387 359 365 392T295 425Q273 425 253 419T216 403T184 383T159 364V31L226 17V0H15V17L85 31V390L18 420V427L151 474H154L157 384H158Q162 388 177 403T217 434T271 464T334 477Q397
477 429 441T462 314V24Q462 -28 454 -71T426 -145Q406 -177 375 -197T292 -239L285 -225Q315 -205 334 -185T366 -139T383 -78T388 5V314Z" />
<glyph unicode="&#x14c;" glyph-name="Omacron" horiz-adv-x="779" d="M258 808H534V760H258V808ZM399 4Q465 4 511 31T587 103T629 204T643 319Q643 388 623 449T568 557T483 631T375 659Q311 659 266 631T192 558T150 457T136 344Q136 278 155 217T209 108T292
33T399 4ZM388 685Q463 685 527 659T638 586T712 476T739 338Q739 255 709 189T630 75T518 3T390 -22Q321 -22 258 3T147 73T69 183T40 326Q40 408 70 474T150 588T261 660T388 685Z" />
<glyph unicode="&#x14d;" glyph-name="omacron" horiz-adv-x="537" d="M124 665H400V617H124V665ZM255 451Q222 451 196 436T152 393T125 330T115 251Q115 200 127 157T162 81T215 31T280 12Q313 12 339 27T383 70T411 134T421 213Q421 264 409 307T374 383T321
433T255 451ZM267 -14Q219 -14 177 2T104 50T54 127T35 228Q35 287 55 333T109 411T185 460T270 477Q321 477 363 459T436 409T484 333T502 236Q502 177 482 131T428 52T352 3T267 -14Z" />
<glyph unicode="&#x14e;" glyph-name="Obreve" horiz-adv-x="779" d="M395 730Q363 730 342 741T309 771T291 812T284 858H301Q310 826 334 804T399 781Q446 781 468 803T500 858H517Q516 836 510 814T491 773T454 742T395 730ZM399 4Q465 4 511 31T587 103T629
204T643 319Q643 388 623 449T568 557T483 631T375 659Q311 659 266 631T192 558T150 457T136 344Q136 278 155 217T209 108T292 33T399 4ZM388 685Q463 685 527 659T638 586T712 476T739 338Q739 255 709 189T630 75T518 3T390 -22Q321 -22 258 3T147 73T69 183T40
326Q40 408 70 474T150 588T261 660T388 685Z" />
<glyph unicode="&#x14f;" glyph-name="obreve" horiz-adv-x="537" d="M255 451Q222 451 196 436T152 393T125 330T115 251Q115 200 127 157T162 81T215 31T280 12Q313 12 339 27T383 70T411 134T421 213Q421 264 409 307T374 383T321 433T255 451ZM267 -14Q219
-14 177 2T104 50T54 127T35 228Q35 287 55 333T109 411T185 460T270 477Q321 477 363 459T436 409T484 333T502 236Q502 177 482 131T428 52T352 3T267 -14ZM261 560Q209 560 179 600T145 718H164Q179 661 204 640T262 618Q294 618 319 640T360 718H379Q375 644
346 602T261 560Z" />
<glyph unicode="&#x150;" glyph-name="Ohungarumlaut" horiz-adv-x="779" d="M446 865V858L341 728H314L380 865H446ZM585 865V858L480 728H452L518 865H585ZM399 4Q465 4 511 31T587 103T629 204T643 319Q643 388 623 449T568 557T483 631T375 659Q311 659 266
631T192 558T150 457T136 344Q136 278 155 217T209 108T292 33T399 4ZM388 685Q463 685 527 659T638 586T712 476T739 338Q739 255 709 189T630 75T518 3T390 -22Q321 -22 258 3T147 73T69 183T40 326Q40 408 70 474T150 588T261 660T388 685Z" />
<glyph unicode="&#x151;" glyph-name="ohungarumlaut" horiz-adv-x="537" d="M300 752V745L206 544H185L236 752H300ZM428 752V745L334 544H313L364 752H428ZM255 451Q222 451 196 436T152 393T125 330T115 251Q115 200 127 157T162 81T215 31T280 12Q313 12 339
27T383 70T411 134T421 213Q421 264 409 307T374 383T321 433T255 451ZM267 -14Q219 -14 177 2T104 50T54 127T35 228Q35 287 55 333T109 411T185 460T270 477Q321 477 363 459T436 409T484 333T502 236Q502 177 482 131T428 52T352 3T267 -14Z" />
<glyph unicode="&#x152;" glyph-name="OE" horiz-adv-x="995" d="M856 664L922 669V480H904L857 637H605V362H751L782 469H799V230H782L751 331H605V49Q619 30 650 27H847L938 193H957L914 0H610Q576 0 553 -1T507 -3T458 -6T393 -7Q309 -7 244 18T133 87T64 193T40
327Q40 408 68 471T145 579T264 646T416 670Q446 670 469 669T521 667T590 665T695 664H856ZM393 18Q428 18 452 23T492 41T514 77T521 136V628Q500 633 474 638T403 643Q345 643 297 623T213 564T157 471T137 345Q137 290 151 232T196 127T275 49T393 18Z" />
<glyph unicode="&#x153;" glyph-name="oe" horiz-adv-x="854" d="M628 -14Q562 -14 520 18T457 99Q425 44 373 15T267 -14Q219 -14 177 2T104 50T54 127T35 228Q35 287 55 333T109 411T185 460T270 477Q336 477 387 445T466 356Q495 410 541 443T645 477Q719 477
765 430T820 288H497Q496 281 496 274T496 260Q496 160 539 105T659 50Q687 50 710 58T753 78T787 104T813 130L827 120Q813 99 797 76T757 32T702 -1T628 -14ZM255 451Q222 451 196 436T152 393T125 330T115 251Q115 200 127 157T162 81T215 31T280 12Q313 12
339 27T383 70T411 134T421 213Q421 264 409 307T374 383T321 433T255 451ZM618 445Q573 445 542 409T500 313H732Q725 344 717 368T695 410T663 436T618 445Z" />
<glyph unicode="&#x154;" glyph-name="Racute" horiz-adv-x="627" d="M435 865V859L304 728H277L357 865H435ZM25 19L112 33V631L25 647V664L234 667Q381 669 452 626T524 505Q524 473 513 448T480 404T430 370T367 343V340L561 38L637 19V0H480L323 252Q312 269
305 280T294 299Q290 307 287 311H198V33L282 17V0H25V19ZM198 340H283Q316 344 343 357T389 389T418 433T429 483Q429 566 366 606T198 646V340Z" />
<glyph unicode="&#x155;" glyph-name="racute" horiz-adv-x="336" d="M289 752V745L188 544H167L220 752H289ZM15 17L85 31V390L18 420V427L151 474H154L156 339H159L170 361Q187 395 201 417T230 452T257 470T285 475Q304 475 317 464T330 433Q330 418 324 407T306
385L239 406Q216 393 194 363T159 295V31L238 17V0H15V17Z" />
<glyph unicode="&#x156;" glyph-name="Rcommaaccent" horiz-adv-x="627" d="M248 -238Q301 -226 320 -207T340 -166Q340 -144 323 -133T279 -119V-115Q282 -93 295 -79T335 -64Q363 -64 383 -84T404 -135Q404 -180 369 -212T251 -255L248 -238ZM25 19L112 33V631L25
647V664L234 667Q381 669 452 626T524 505Q524 473 513 448T480 404T430 370T367 343V340L561 38L637 19V0H480L323 252Q312 269 305 280T294 299Q290 307 287 311H198V33L282 17V0H25V19ZM198 340H283Q316 344 343 357T389 389T418 433T429 483Q429 566 366 606T198
646V340Z" />
<glyph unicode="&#x157;" glyph-name="rcommaaccent" horiz-adv-x="336" d="M290 -238Q343 -226 362 -207T382 -166Q382 -144 365 -133T321 -119V-115Q324 -93 337 -79T377 -64Q405 -64 425 -84T446 -135Q446 -180 411 -212T293 -255L290 -238ZM15 17L85 31V390L18
420V427L151 474H154L156 339H159L170 361Q187 395 201 417T230 452T257 470T285 475Q304 475 317 464T330 433Q330 418 324 407T306 385L239 406Q216 393 194 363T159 295V31L238 17V0H15V17Z" />
<glyph unicode="&#x158;" glyph-name="Rcaron" horiz-adv-x="627" d="M440 853L326 728H272L168 853H200L301 774L411 853H440ZM25 19L112 33V631L25 647V664L234 667Q381 669 452 626T524 505Q524 473 513 448T480 404T430 370T367 343V340L561 38L637 19V0H480L323
252Q312 269 305 280T294 299Q290 307 287 311H198V33L282 17V0H25V19ZM198 340H283Q316 344 343 357T389 389T418 433T429 483Q429 566 366 606T198 646V340Z" />
<glyph unicode="&#x159;" glyph-name="rcaron" horiz-adv-x="336" d="M310 752L209 544H169L67 752H93L190 608L287 752H310ZM15 17L85 31V390L18 420V427L151 474H154L156 339H159L170 361Q187 395 201 417T230 452T257 470T285 475Q304 475 317 464T330 433Q330
418 324 407T306 385L239 406Q216 393 194 363T159 295V31L238 17V0H15V17Z" />
<glyph unicode="&#x15a;" glyph-name="Sacute" horiz-adv-x="502" d="M40 203H57L116 41Q136 27 165 18T234 8Q303 8 346 45T389 148Q389 169 384 188T364 225T325 260T260 295L210 317Q129 352 92 393T54 500Q54 541 72 575T120 633T192 670T279 684Q325 684
364 671T432 645L441 480H427L369 625Q346 639 323 649T266 660Q237 660 214 650T173 622T147 582T137 535Q137 487 161 457T247 399L322 365Q401 330 437 290T474 186Q474 139 453 101T397 37T318 -4T228 -19Q167 -19 124 -5T47 23L40 203ZM390 865V859L259 728H232L312
865H390Z" />
<glyph unicode="&#x15b;" glyph-name="sacute" horiz-adv-x="393" d="M320 752V745L219 544H198L251 752H320ZM176 -14Q135 -14 101 -3T49 19L42 165H59L107 39Q135 11 188 11Q234 11 261 38T288 103Q288 138 268 158T202 196L155 213Q104 231 79 261T53 342Q53
373 66 398T103 440T157 467T223 477Q253 477 282 468T337 445V320H320L280 425Q268 436 251 444T211 453Q190 453 174 446T146 427T128 400T122 368Q122 333 142 314T206 277L248 261Q311 237 337 207T363 138Q363 103 347 75T305 27T245 -3T176 -14Z" />
<glyph unicode="&#x15c;" glyph-name="Scircumflex" horiz-adv-x="502" d="M135 728L249 853H303L407 728H375L273 807L164 728H135ZM40 203H57L116 41Q136 27 165 18T234 8Q303 8 346 45T389 148Q389 169 384 188T364 225T325 260T260 295L210 317Q129 352 92
393T54 500Q54 541 72 575T120 633T192 670T279 684Q325 684 364 671T432 645L441 480H427L369 625Q346 639 323 649T266 660Q237 660 214 650T173 622T147 582T137 535Q137 487 161 457T247 399L322 365Q401 330 437 290T474 186Q474 139 453 101T397 37T318 -4T228
-19Q167 -19 124 -5T47 23L40 203Z" />
<glyph unicode="&#x15d;" glyph-name="scircumflex" horiz-adv-x="393" d="M87 544L188 752H228L330 544H304L206 693L110 544H87ZM176 -14Q135 -14 101 -3T49 19L42 165H59L107 39Q135 11 188 11Q234 11 261 38T288 103Q288 138 268 158T202 196L155 213Q104
231 79 261T53 342Q53 373 66 398T103 440T157 467T223 477Q253 477 282 468T337 445V320H320L280 425Q268 436 251 444T211 453Q190 453 174 446T146 427T128 400T122 368Q122 333 142 314T206 277L248 261Q311 237 337 207T363 138Q363 103 347 75T305 27T245
-3T176 -14Z" />
<glyph unicode="&#x15e;" glyph-name="Scedilla" horiz-adv-x="502" d="M145 -241Q191 -224 212 -204T233 -158Q233 -132 218 -117T178 -95L223 -19Q164 -18 122 -5T47 23L40 203H57L116 41Q136 27 165 18T234 8Q303 8 346 45T389 148Q389 169 384 188T364 225T325
260T260 295L210 317Q129 352 92 393T54 500Q54 541 72 575T120 633T192 670T279 684Q325 684 364 671T432 645L441 480H427L369 625Q346 639 323 649T266 660Q237 660 214 650T173 622T147 582T137 535Q137 487 161 457T247 399L322 365Q401 330 437 290T474 186Q474
142 455 106T405 44T334 2T252 -18L231 -54Q269 -64 285 -84T302 -132Q302 -162 287 -183T248 -219T199 -243T150 -256L145 -241Z" />
<glyph unicode="&#x15f;" glyph-name="scedilla" horiz-adv-x="393" d="M96 -235Q142 -218 163 -198T184 -152Q184 -126 169 -111T129 -89L173 -14Q133 -13 100 -3T49 19L42 165H59L107 39Q135 11 188 11Q234 11 261 38T288 103Q288 138 268 158T202 196L155 213Q104
231 79 261T53 342Q53 373 66 398T103 440T157 467T223 477Q253 477 282 468T337 445V320H320L280 425Q268 436 251 444T211 453Q190 453 174 446T146 427T128 400T122 368Q122 333 142 314T206 277L248 261Q311 237 337 207T363 138Q363 106 350 81T314 36T263
4T203 -12L182 -48Q220 -58 236 -78T253 -126Q253 -156 238 -177T199 -213T150 -237T101 -250L96 -235Z" />
<glyph unicode="&#x160;" glyph-name="Scaron" horiz-adv-x="502" d="M414 853L300 728H246L142 853H174L275 774L385 853H414ZM40 203H57L116 41Q136 27 165 18T234 8Q303 8 346 45T389 148Q389 169 384 188T364 225T325 260T260 295L210 317Q129 352 92 393T54
500Q54 541 72 575T120 633T192 670T279 684Q325 684 364 671T432 645L441 480H427L369 625Q346 639 323 649T266 660Q237 660 214 650T173 622T147 582T137 535Q137 487 161 457T247 399L322 365Q401 330 437 290T474 186Q474 139 453 101T397 37T318 -4T228 -19Q167
-19 124 -5T47 23L40 203Z" />
<glyph unicode="&#x161;" glyph-name="scaron" horiz-adv-x="393" d="M333 752L232 544H192L90 752H116L213 608L310 752H333ZM176 -14Q135 -14 101 -3T49 19L42 165H59L107 39Q135 11 188 11Q234 11 261 38T288 103Q288 138 268 158T202 196L155 213Q104 231
79 261T53 342Q53 373 66 398T103 440T157 467T223 477Q253 477 282 468T337 445V320H320L280 425Q268 436 251 444T211 453Q190 453 174 446T146 427T128 400T122 368Q122 333 142 314T206 277L248 261Q311 237 337 207T363 138Q363 103 347 75T305 27T245 -3T176
-14Z" />
<glyph unicode="&#x162;" glyph-name="Tcommaaccent" horiz-adv-x="578" d="M201 -238Q254 -226 273 -207T293 -166Q293 -144 276 -133T232 -119V-115Q235 -93 248 -79T288 -64Q316 -64 336 -84T357 -135Q357 -180 322 -212T204 -255L201 -238ZM503 664L553 672L560
475H542L492 636H332V32L419 18V0H159V18L246 32V636H86L36 475H18L25 671L72 664H503Z" />
<glyph unicode="&#x163;" glyph-name="tcommaaccent" horiz-adv-x="308" d="M341 -238Q394 -226 413 -207T433 -166Q433 -144 416 -133T372 -119V-115Q375 -93 388 -79T428 -64Q456 -64 476 -84T497 -135Q497 -180 462 -212T344 -255L341 -238ZM178 -9Q126 -9
101 14T75 94L77 425H-1V444L79 465L130 590H150V463H294V425H150V99Q152 66 171 50T224 34Q249 34 272 41T303 51L307 40Q299 33 287 25T258 9T222 -4T178 -9Z" />
<glyph unicode="&#x164;" glyph-name="Tcaron" horiz-adv-x="578" d="M433 853L319 728H265L161 853H193L294 774L404 853H433ZM503 664L553 672L560 475H542L492 636H332V32L419 18V0H159V18L246 32V636H86L36 475H18L25 671L72 664H503Z" />
<glyph unicode="&#x165;" glyph-name="tcaron" horiz-adv-x="308" d="M227 532L243 733H315V726L243 532H227ZM178 -9Q126 -9 101 14T75 94L77 425H-1V444L79 465L130 590H150V463H294V425H150V99Q152 66 171 50T224 34Q249 34 272 41T303 51L307 40Q299 33 287
25T258 9T222 -4T178 -9Z" />
<glyph unicode="&#x166;" glyph-name="Tbar" horiz-adv-x="578" d="M68 372H246V636H86L36 475H18L25 671L72 664H503L553 672L560 475H542L492 636H332V372H510V348H332V32L419 18V0H159V18L246 32V348H68V372Z" />
<glyph unicode="&#x167;" glyph-name="tbar" horiz-adv-x="308" d="M7 311H76L77 425H-1V444L79 465L130 590H150V463H294V425H150V311H294V276H150V99Q152 66 171 50T224 34Q249 34 272 41T303 51L307 40Q299 33 287 25T258 9T222 -4T178 -9Q126 -9 101 14T75
94L76 276H7V311Z" />
<glyph unicode="&#x168;" glyph-name="Utilde" horiz-adv-x="708" d="M351 -24Q280 -24 232 -4T153 54T110 142T97 255V630L15 647V664H270V647L184 630V277Q184 224 192 177T222 94T278 38T368 17Q421 17 458 33T521 78T559 149T576 241V625L478 646V664H693V646L612
625V257Q612 185 592 133T536 45T453 -7T351 -24ZM361 758Q335 767 318 772T289 775T267 763T245 732L227 741L232 752Q248 785 263 803T296 827T334 831T380 819L413 808Q432 802 447 799T475 799T499 812T521 843L539 835L534 825Q517 788 500 769T466 743T429
738T390 748L361 758Z" />
<glyph unicode="&#x169;" glyph-name="utilde" horiz-adv-x="527" d="M371 76Q362 65 347 50T312 21T265 -4T207 -14Q169 -14 143 -2T101 32T78 82T70 142V413L5 432V445L144 471V165Q144 97 173 69T249 41Q270 41 288 46T321 60T349 77T370 94V413L293 432V445L444
471V43L513 23V10L379 -9L371 76ZM247 613Q221 622 204 627T175 630T153 618T131 587L113 596L118 607Q134 640 149 658T182 682T220 686T266 674L299 663Q318 657 333 654T361 654T385 667T407 698L425 690L420 680Q403 643 386 624T352 598T315 593T276 603L247
613Z" />
<glyph unicode="&#x16a;" glyph-name="Umacron" horiz-adv-x="708" d="M351 -24Q280 -24 232 -4T153 54T110 142T97 255V630L15 647V664H270V647L184 630V277Q184 224 192 177T222 94T278 38T368 17Q421 17 458 33T521 78T559 149T576 241V625L478 646V664H693V646L612
625V257Q612 185 592 133T536 45T453 -7T351 -24ZM228 808H504V760H228V808Z" />
<glyph unicode="&#x16b;" glyph-name="umacron" horiz-adv-x="527" d="M371 76Q362 65 347 50T312 21T265 -4T207 -14Q169 -14 143 -2T101 32T78 82T70 142V413L5 432V445L144 471V165Q144 97 173 69T249 41Q270 41 288 46T321 60T349 77T370 94V413L293 432V445L444
471V43L513 23V10L379 -9L371 76ZM123 665H399V617H123V665Z" />
<glyph unicode="&#x16c;" glyph-name="Ubreve" horiz-adv-x="708" d="M351 -24Q280 -24 232 -4T153 54T110 142T97 255V630L15 647V664H270V647L184 630V277Q184 224 192 177T222 94T278 38T368 17Q421 17 458 33T521 78T559 149T576 241V625L478 646V664H693V646L612
625V257Q612 185 592 133T536 45T453 -7T351 -24ZM367 730Q335 730 314 741T281 771T263 812T256 858H273Q282 826 306 804T371 781Q418 781 440 803T472 858H489Q488 836 482 814T463 773T426 742T367 730Z" />
<glyph unicode="&#x16d;" glyph-name="ubreve" horiz-adv-x="527" d="M371 76Q362 65 347 50T312 21T265 -4T207 -14Q169 -14 143 -2T101 32T78 82T70 142V413L5 432V445L144 471V165Q144 97 173 69T249 41Q270 41 288 46T321 60T349 77T370 94V413L293 432V445L444
471V43L513 23V10L379 -9L371 76ZM260 560Q208 560 178 600T144 718H163Q178 661 203 640T261 618Q293 618 318 640T359 718H378Q374 644 345 602T260 560Z" />
<glyph unicode="&#x16e;" glyph-name="Uring" horiz-adv-x="708" d="M351 -24Q280 -24 232 -4T153 54T110 142T97 255V630L15 647V664H270V647L184 630V277Q184 224 192 177T222 94T278 38T368 17Q421 17 458 33T521 78T559 149T576 241V625L478 646V664H693V646L612
625V257Q612 185 592 133T536 45T453 -7T351 -24ZM274 813Q274 856 302 883T373 910Q416 910 444 884T473 813Q473 770 445 743T374 715Q331 715 303 742T274 813ZM305 813Q305 782 325 762T373 741Q402 741 422 761T443 813Q443 844 423 864T374 885Q345 885 325
865T305 813Z" />
<glyph unicode="&#x16f;" glyph-name="uring" horiz-adv-x="527" d="M160 656Q160 699 188 726T259 753Q302 753 330 727T359 656Q359 613 331 586T260 558Q217 558 189 585T160 656ZM191 656Q191 625 211 605T259 584Q288 584 308 604T329 656Q329 687 309 707T260
728Q231 728 211 708T191 656ZM371 76Q362 65 347 50T312 21T265 -4T207 -14Q169 -14 143 -2T101 32T78 82T70 142V413L5 432V445L144 471V165Q144 97 173 69T249 41Q270 41 288 46T321 60T349 77T370 94V413L293 432V445L444 471V43L513 23V10L379 -9L371 76Z"
/>
<glyph unicode="&#x170;" glyph-name="Uhungarumlaut" horiz-adv-x="708" d="M411 865V858L306 728H279L345 865H411ZM550 865V858L445 728H417L483 865H550ZM351 -24Q280 -24 232 -4T153 54T110 142T97 255V630L15 647V664H270V647L184 630V277Q184 224 192 177T222
94T278 38T368 17Q421 17 458 33T521 78T559 149T576 241V625L478 646V664H693V646L612 625V257Q612 185 592 133T536 45T453 -7T351 -24Z" />
<glyph unicode="&#x171;" glyph-name="uhungarumlaut" horiz-adv-x="527" d="M371 76Q362 65 347 50T312 21T265 -4T207 -14Q169 -14 143 -2T101 32T78 82T70 142V413L5 432V445L144 471V165Q144 97 173 69T249 41Q270 41 288 46T321 60T349 77T370 94V413L293
432V445L444 471V43L513 23V10L379 -9L371 76ZM296 752V745L202 544H181L232 752H296ZM424 752V745L330 544H309L360 752H424Z" />
<glyph unicode="&#x172;" glyph-name="Uogonek" horiz-adv-x="708" d="M351 -24Q280 -24 232 -4T153 54T110 142T97 255V630L15 647V664H270V647L184 630V277Q184 224 192 177T222 94T278 38T368 17Q421 17 458 33T521 78T559 149T576 241V625L478 646V664H693V646L612
625V257Q612 194 596 146T552 63T485 8T401 -20Q360 -62 341 -90T321 -146Q321 -166 334 -182T373 -198Q395 -198 414 -187T460 -145L473 -154Q463 -169 450 -186T421 -217T383 -242T337 -252Q299 -252 276 -229T253 -170Q253 -149 260 -132T283 -97T320 -63T370
-23Q365 -24 361 -24T351 -24Z" />
<glyph unicode="&#x173;" glyph-name="uogonek" horiz-adv-x="527" d="M207 -14Q169 -14 143 -2T101 32T78 82T70 142V413L5 432V445L144 471V165Q144 97 173 69T249 41Q270 41 288 46T321 60T349 77T370 94V413L293 432V445L444 471V43L513 23V10L408 -5Q360
-54 337 -85T313 -146Q313 -166 326 -182T365 -198Q387 -198 406 -187T452 -145L465 -154Q455 -169 442 -186T413 -217T375 -242T329 -252Q291 -252 268 -229T245 -170Q245 -147 254 -128T280 -91T323 -53T382 -8L379 -9L371 76Q362 65 347 50T312 21T265 -4T207
-14Z" />
<glyph unicode="&#x174;" glyph-name="Wcircumflex" horiz-adv-x="874" d="M302 728L416 853H470L574 728H542L440 807L331 728H302ZM440 467L276 -6H241L40 630L-25 646V664H206V646L129 630L286 116L425 512L386 630L317 646V664H546V646L471 630L641 117L791
627L716 646V664H899V646L833 627L633 -6H597L440 467Z" />
<glyph unicode="&#x175;" glyph-name="wcircumflex" horiz-adv-x="698" d="M250 544L351 752H391L493 544H467L369 693L273 544H250ZM502 119Q506 108 508 100T512 87Q514 81 515 77H517Q517 80 519 84Q520 88 522 94T527 112L618 428L542 448V463H707V447L648
427L511 -16H468L356 326Q353 334 352 340T348 353Q346 359 345 366H343Q342 360 340 353Q337 341 332 326L224 -16H183L48 430L-9 448V463H193V448L126 428L220 117Q222 109 223 103T227 91Q228 86 229 81H231Q231 86 233 91Q235 96 236 102T241 117L354 473H387L502
119Z" />
<glyph unicode="&#x176;" glyph-name="Ycircumflex" horiz-adv-x="573" d="M330 314V34L422 20V0H152V20L244 34V302L48 630L-17 646V664H220V646L146 630L313 339H314L486 626L407 646V664H590V646L525 627L330 314ZM169 728L283 853H337L441 728H409L307 807L198
728H169Z" />
<glyph unicode="&#x177;" glyph-name="ycircumflex" horiz-adv-x="453" d="M296 448V463H462V447L405 428L186 -183Q175 -212 159 -233T110 -254Q87 -254 73 -240T58 -205Q58 -184 71 -171T106 -157Q123 -157 134 -167T153 -192H155L216 -29L47 430L-9 448V463H197V448L131
429L252 79H254L372 428L296 448ZM133 544L234 752H274L376 544H350L252 693L156 544H133Z" />
<glyph unicode="&#x178;" glyph-name="Ydieresis" horiz-adv-x="573" d="M330 314V34L422 20V0H152V20L244 34V302L48 630L-17 646V664H220V646L146 630L313 339H314L486 626L407 646V664H590V646L525 627L330 314ZM210 758Q190 758 177 771T164 805Q164 825 177
839T210 853Q230 853 244 839T258 805Q258 785 244 772T210 758ZM403 758Q383 758 370 771T356 805Q356 825 369 839T403 853Q423 853 436 839T450 805Q450 785 437 772T403 758Z" />
<glyph unicode="&#x179;" glyph-name="Zacute" horiz-adv-x="621" d="M434 865V859L303 728H276L356 865H434ZM26 12L445 636H116L63 469H47V671L111 664H560V660L135 28H492L585 216H603L558 0H26V12Z" />
<glyph unicode="&#x17a;" glyph-name="zacute" horiz-adv-x="436" d="M334 752V745L233 544H212L265 752H334ZM30 0V16L302 436H113L61 315H47V468L120 463H400V458L121 27H323L390 163H405L384 -6L327 0H30Z" />
<glyph unicode="&#x17b;" glyph-name="Zdotaccent" horiz-adv-x="621" d="M26 12L445 636H116L63 469H47V671L111 664H560V660L135 28H492L585 216H603L558 0H26V12ZM312 752Q290 752 275 767T259 805Q259 827 274 842T312 858Q334 858 349 843T365 805Q365 783
350 768T312 752Z" />
<glyph unicode="&#x17c;" glyph-name="zdotaccent" horiz-adv-x="436" d="M30 0V16L302 436H113L61 315H47V468L120 463H400V458L121 27H323L390 163H405L384 -6L327 0H30ZM225 592Q203 592 188 607T172 645Q172 667 187 682T225 698Q247 698 262 683T278 645Q278
623 263 608T225 592Z" />
<glyph unicode="&#x17d;" glyph-name="Zcaron" horiz-adv-x="621" d="M448 853L334 728H280L176 853H208L309 774L419 853H448ZM26 12L445 636H116L63 469H47V671L111 664H560V660L135 28H492L585 216H603L558 0H26V12Z" />
<glyph unicode="&#x17e;" glyph-name="zcaron" horiz-adv-x="436" d="M352 752L251 544H211L109 752H135L232 608L329 752H352ZM30 0V16L302 436H113L61 315H47V468L120 463H400V458L121 27H323L390 163H405L384 -6L327 0H30Z" />
<glyph unicode="&#x192;" glyph-name="florin" horiz-adv-x="433" d="M48 308H139Q155 370 181 423T242 516T316 578T400 601Q432 601 448 584T464 551Q464 537 456 521T434 493Q411 522 390 541T346 560Q330 560 315 553T284 521T253 451T221 328L217 308H351L344
278H210L155 8Q144 -43 126 -92T80 -180T19 -242T-55 -266Q-65 -266 -77 -263T-101 -253T-119 -236T-127 -210Q-127 -192 -116 -179T-97 -159Q-77 -192 -57 -212T-16 -232Q11 -232 28 -190T63 -64L133 278H42L48 308Z" />
<glyph unicode="&#x1fa;" glyph-name="Aringacute" horiz-adv-x="632" d="M-24 19L53 36L281 669L310 675L346 683L580 32L656 17V0H409V19L489 32L417 238H163L95 38L213 19V0H-24V19ZM176 276H403L289 603H287L176 276ZM468 1056V1050L337 919H310L390 1056H468ZM220
1055Q220 1098 248 1125T319 1152Q362 1152 390 1126T419 1055Q419 1012 391 985T320 957Q277 957 249 984T220 1055ZM251 1055Q251 1024 271 1004T319 983Q348 983 368 1003T389 1055Q389 1086 369 1106T320 1127Q291 1127 271 1107T251 1055Z" />
<glyph unicode="&#x1fb;" glyph-name="aringacute" horiz-adv-x="450" d="M151 -14Q132 -14 112 -9T74 10T46 45T35 99Q35 128 46 149T77 187T126 216T193 238L298 267V314Q298 380 270 414T199 448Q176 448 159 441T131 424L126 330Q112 322 91 322Q71 322 59
332T47 361Q47 378 61 398T101 436T160 465T233 477Q309 477 340 442T372 340V59Q372 45 377 37T403 28H453V15Q438 7 422 1Q408 -4 393 -8T363 -12Q327 -12 312 6T297 67H295Q260 30 227 8T151 -14ZM197 38Q229 38 255 57T298 100V247L184 207Q142 193 128 171T114
121Q114 106 118 91T133 64T159 45T197 38ZM123 898Q123 941 151 968T222 995Q265 995 293 969T322 898Q322 855 294 828T223 800Q180 800 152 827T123 898ZM154 898Q154 867 174 847T222 826Q251 826 271 846T292 898Q292 929 272 949T223 970Q194 970 174 950T154
898ZM371 931V925L240 794H213L293 931H371Z" />
<glyph unicode="&#x1fc;" glyph-name="AEacute" horiz-adv-x="908" d="M663 865V859L532 728H505L585 865H663ZM518 320V50Q532 31 563 27H760L851 193H870L827 0H345V17L432 33V320H240L86 37L198 17V0H-25V17L41 37L384 630L292 647V664H770L835 669V480H817L770
637H518V350H664L695 457H712V219H695L664 320H518ZM421 637L257 350H432V637H421Z" />
<glyph unicode="&#x1fd;" glyph-name="aeacute" horiz-adv-x="709" d="M477 752V745L376 544H355L408 752H477ZM151 -14Q132 -14 112 -8T74 11T46 45T35 99Q35 131 50 152T91 189T153 215T230 237L299 255V350Q295 369 287 387T267 418T237 440T199 448Q176 448
159 441T131 424L126 329Q110 322 91 322Q71 322 59 333T47 361Q47 378 61 398T101 436T160 465T233 477Q284 477 313 458T359 399Q377 433 413 455T500 477Q539 477 568 465T619 431T652 382T671 321L372 248V179Q375 122 414 86T514 50Q542 50 565 58T608 78T642
104T668 130L682 120Q668 99 652 76T612 32T557 -1T483 -14Q425 -14 381 12T315 87Q290 62 271 43T234 12T196 -7T151 -14ZM299 233L221 211Q187 201 166 191T134 170T118 147T114 121Q114 106 118 91T133 64T159 45T197 38Q230 38 259 62T302 125Q299 144 299
165V233ZM372 271L585 325Q572 379 548 412T476 445Q453 445 435 436T404 412T383 377T372 335V271Z" />
<glyph unicode="&#x1fe;" glyph-name="Oslashacute" horiz-adv-x="779" d="M155 68Q103 114 72 179T40 326Q40 408 70 474T150 588T261 660T388 685Q445 685 496 669T590 623L657 709H692L612 607Q670 559 704 490T739 338Q739 255 709 189T630 75T518 3T390 -22Q333
-22 278 -4T176 50L109 -36H73L155 68ZM399 4Q465 4 511 31T587 103T629 204T643 319Q643 387 624 447T570 554L215 100Q250 55 296 30T399 4ZM136 344Q136 283 152 227T198 124L552 576Q517 614 473 636T375 659Q311 659 266 631T192 558T150 457T136 344ZM531
865V859L400 728H373L453 865H531Z" />
<glyph unicode="&#x1ff;" glyph-name="oslashacute" horiz-adv-x="537" d="M41 -50L112 46Q77 78 56 124T35 228Q35 287 55 333T109 411T185 460T270 477Q307 477 340 467T400 437L464 523H499L422 420Q460 387 481 340T502 236Q502 177 482 131T428 52T352 3T267
-14Q192 -14 133 28L75 -50H41ZM421 218Q421 262 412 300T385 369L165 72Q187 43 216 28T280 12Q313 12 339 27T383 70T411 136T421 218ZM255 451Q222 451 196 436T152 393T125 329T115 247Q115 158 149 96L368 393Q346 420 318 435T255 451ZM370 752V745L269 544H248L301
752H370Z" />
<glyph unicode="&#x218;" glyph-name="Scommaaccent" horiz-adv-x="502" d="M149 -238Q202 -226 221 -207T241 -166Q241 -144 224 -133T180 -119V-115Q183 -93 196 -79T236 -64Q264 -64 284 -84T305 -135Q305 -180 270 -212T152 -255L149 -238ZM40 203H57L116
41Q136 27 165 18T234 8Q303 8 346 45T389 148Q389 169 384 188T364 225T325 260T260 295L210 317Q129 352 92 393T54 500Q54 541 72 575T120 633T192 670T279 684Q325 684 364 671T432 645L441 480H427L369 625Q346 639 323 649T266 660Q237 660 214 650T173 622T147
582T137 535Q137 487 161 457T247 399L322 365Q401 330 437 290T474 186Q474 139 453 101T397 37T318 -4T228 -19Q167 -19 124 -5T47 23L40 203Z" />
<glyph unicode="&#x219;" glyph-name="scommaaccent" horiz-adv-x="393" d="M358 -238Q411 -226 430 -207T450 -166Q450 -144 433 -133T389 -119V-115Q392 -93 405 -79T445 -64Q473 -64 493 -84T514 -135Q514 -180 479 -212T361 -255L358 -238ZM176 -14Q135 -14
101 -3T49 19L42 165H59L107 39Q135 11 188 11Q234 11 261 38T288 103Q288 138 268 158T202 196L155 213Q104 231 79 261T53 342Q53 373 66 398T103 440T157 467T223 477Q253 477 282 468T337 445V320H320L280 425Q268 436 251 444T211 453Q190 453 174 446T146
427T128 400T122 368Q122 333 142 314T206 277L248 261Q311 237 337 207T363 138Q363 103 347 75T305 27T245 -3T176 -14Z" />
<glyph unicode="&#x21a;" glyph-name="uni021A" horiz-adv-x="578" d="M201 -238Q254 -226 273 -207T293 -166Q293 -144 276 -133T232 -119V-115Q235 -93 248 -79T288 -64Q316 -64 336 -84T357 -135Q357 -180 322 -212T204 -255L201 -238ZM503 664L553 672L560
475H542L492 636H332V32L419 18V0H159V18L246 32V636H86L36 475H18L25 671L72 664H503Z" />
<glyph unicode="&#x21b;" glyph-name="uni021B" horiz-adv-x="308" d="M341 -238Q394 -226 413 -207T433 -166Q433 -144 416 -133T372 -119V-115Q375 -93 388 -79T428 -64Q456 -64 476 -84T497 -135Q497 -180 462 -212T344 -255L341 -238ZM178 -9Q126 -9 101 14T75
94L77 425H-1V444L79 465L130 590H150V463H294V425H150V99Q152 66 171 50T224 34Q249 34 272 41T303 51L307 40Q299 33 287 25T258 9T222 -4T178 -9Z" />
<glyph unicode="&#x237;" glyph-name="uni0237" horiz-adv-x="232" d="M-18 -225Q12 -204 30 -185T60 -142T77 -83T85 5V390L18 420V427L159 477V24Q159 -28 154 -70T128 -146Q108 -177 75 -196T-11 -239L-18 -225Z" />
<glyph unicode="&#x2c6;" glyph-name="circumflex" horiz-adv-x="225" d="M-8 544L93 752H133L235 544H209L111 693L15 544H-8Z" />
<glyph unicode="&#x2c7;" glyph-name="caron" horiz-adv-x="225" d="M235 752L134 544H94L-8 752H18L115 608L212 752H235Z" />
<glyph unicode="&#x2d8;" glyph-name="breve" horiz-adv-x="390" d="M193 560Q141 560 111 600T77 718H96Q111 661 136 640T194 618Q226 618 251 640T292 718H311Q307 644 278 602T193 560Z" />
<glyph unicode="&#x2d9;" glyph-name="dotaccent" horiz-adv-x="225" d="M114 592Q92 592 77 607T61 645Q61 667 76 682T114 698Q136 698 151 683T167 645Q167 623 152 608T114 592Z" />
<glyph unicode="&#x2da;" glyph-name="ring" horiz-adv-x="225" d="M12 656Q12 699 40 726T111 753Q154 753 182 727T211 656Q211 613 183 586T112 558Q69 558 41 585T12 656ZM43 656Q43 625 63 605T111 584Q140 584 160 604T181 656Q181 687 161 707T112 728Q83
728 63 708T43 656Z" />
<glyph unicode="&#x2db;" glyph-name="ogonek" horiz-adv-x="390" d="M254 0Q203 -51 179 -83T154 -146Q154 -166 167 -182T206 -198Q228 -198 247 -187T293 -145L306 -154Q296 -169 283 -186T254 -217T216 -242T170 -252Q132 -252 109 -229T86 -170Q86 -146 96
-127T125 -88T171 -48T234 0H254Z" />
<glyph unicode="&#x2dc;" glyph-name="tilde" horiz-adv-x="225" d="M91 613Q65 622 48 627T19 630T-3 618T-25 587L-43 596L-38 607Q-22 640 -7 658T26 682T64 686T110 674L143 663Q162 657 177 654T205 654T229 667T251 698L269 690L264 680Q247 643 230 624T196
598T159 593T120 603L91 613Z" />
<glyph unicode="&#x2dd;" glyph-name="hungarumlaut" horiz-adv-x="390" d="M187 752V745L93 544H72L123 752H187ZM315 752V745L221 544H200L251 752H315Z" />
</font>
</defs>
</svg>
