<?xml version="1.0" standalone="no"?> <!DOCTYPE svg PUBLIC "-//W3C//DTD SVG 1.0//EN" "http://www.w3.org/TR/2001/REC-SVG-20010904/DTD/svg10.dtd" > <svg xmlns="http://www.w3.org/2000/svg" width="100%" height="100%">
<defs >
<font horiz-adv-x="570" ><font-face
    font-family=""
    units-per-em="1000"
    panose-1="2 0 10 3 8 0 0 2 0 4"
    ascent="760"
    descent="-240"
    alphabetic="0" />
<missing-glyph horiz-adv-x="175" />
<glyph unicode=" " glyph-name="space" horiz-adv-x="175" />
<glyph unicode="!" glyph-name="exclam" horiz-adv-x="311" d="M273 715L171 205H140L38 715H273ZM154 -17Q136 -17 119 -10T90 10T70 39T62 74Q62 93 69 109T89 138T119 158T154 166Q173 166 190 159T219 139T239 110T246 74Q246 56 239 40T220 11T190 -9T154 -17Z" />
<glyph unicode="&quot;" glyph-name="quotedbl" horiz-adv-x="480" d="M57 716H211L146 434H122L57 716ZM268 716H422L357 434H333L268 716Z" />
<glyph unicode="#" glyph-name="numbersign" horiz-adv-x="573" d="M67 436H188L216 594H259L231 436H388L416 594H459L431 436H546V390H423L390 205H502V159H382L354 0H311L339 159H182L154 0H111L139 159H23V205H147L180 390H67V436ZM190 205H347L380 390H223L190 205Z" />
<glyph unicode="$" glyph-name="dollar" horiz-adv-x="621" d="M60 241H93L176 73Q190 61 206 53T246 40L277 227L238 239Q153 265 113 316T73 437Q73 477 90 516T141 585T228 635T349 655L365 752H404L387 653Q423 649 461 640T532 618V428H499L441 573Q432 582
417 590T379 604L348 413L422 390Q503 364 536 321T569 227Q569 168 543 123T476 48T382 1T276 -15L257 -131H218L237 -14Q191 -10 154 0T81 24L60 241ZM392 129Q392 161 373 182T315 216L285 39Q305 41 324 47T359 65T383 92T392 129ZM238 518Q238 485 254 465T311
427L341 608Q297 606 268 581T238 518Z" />
<glyph unicode="%" glyph-name="percent" horiz-adv-x="922" d="M664 629H714L244 -50H198L664 629ZM214 574Q179 574 179 492Q179 461 185 427T201 363T226 314T258 294Q292 294 292 376Q292 408 286 443T270 507T245 555T214 574ZM235 257Q190 257 155 271T96
309T58 364T45 430Q45 470 60 503T102 560T162 597T235 611Q275 611 310 598T370 562T411 508T426 439Q426 399 411 366T370 308T309 271T235 257ZM665 304Q630 304 630 222Q630 191 636 157T652 93T677 44T709 24Q743 24 743 106Q743 138 737 173T721 237T696
285T665 304ZM686 -13Q641 -13 606 1T547 39T509 94T496 160Q496 200 511 233T553 290T613 327T686 341Q726 341 761 328T821 292T862 238T877 169Q877 129 862 96T821 38T760 1T686 -13Z" />
<glyph unicode="&amp;" glyph-name="ampersand" horiz-adv-x="872" d="M778 438L607 222Q635 189 655 165T692 126T726 102T766 94Q787 94 804 97T843 110L857 88Q812 38 762 11T649 -17Q623 -17 604 -13T568 3T531 35T484 86Q432 39 373 10T244 -20Q195 -20 156
-6T88 34T45 95T30 174Q30 209 43 238T78 292T132 336T202 369Q161 407 142 442T122 520Q121 557 140 588T192 641T270 677T368 690Q420 690 460 680T527 652T568 610T582 559Q582 500 537 466T417 415Q440 394 466 369T525 311Q540 295 553 282T579 254Q584 262
589 269T600 284L703 435L599 465V505H873V466L778 438ZM357 223Q317 263 286 291T232 343Q216 323 210 300T203 252Q203 217 216 191T250 147T299 122T355 113Q376 113 397 117T442 132L357 223ZM286 584Q286 566 291 552T307 523T338 488T387 442Q411 466 423
496T436 559Q436 601 414 626T355 651Q323 651 305 632T286 584Z" />
<glyph unicode="&apos;" glyph-name="quotesingle" horiz-adv-x="268" d="M57 716H211L146 434H122L57 716Z" />
<glyph unicode="(" glyph-name="parenleft" horiz-adv-x="349" d="M309 -180Q256 -138 214 -87T141 22T95 144T78 273Q78 340 95 404T142 528T215 638T308 732H361Q280 636 235 526T190 273Q190 136 233 27T357 -180H309Z" />
<glyph unicode=")" glyph-name="parenright" horiz-adv-x="349" d="M39 731Q92 689 134 638T207 529T253 407T270 278Q270 211 253 147T206 23T133 -87T40 -181H-13Q68 -85 113 25T158 278Q158 415 115 524T-9 731H39Z" />
<glyph unicode="*" glyph-name="asterisk" horiz-adv-x="394" d="M258 493L256 369L234 365L178 472L59 437L49 454L139 541L65 641L78 655L191 603L261 699L280 693L262 572L376 534L375 515L258 493Z" />
<glyph unicode="+" glyph-name="plus" horiz-adv-x="568" d="M311 227V17H257V227H47V277H257V487H311V277H521V227H311Z" />
<glyph unicode="," glyph-name="comma" horiz-adv-x="308" d="M21 -149Q80 -111 105 -78T131 -10Q131 25 113 47T65 78Q60 120 82 149T150 178Q177 178 196 168T228 141T247 103T253 59Q253 -15 204 -72T42 -185L21 -149Z" />
<glyph unicode="-" glyph-name="hyphen" horiz-adv-x="370" d="M60 342H310V238H60V342Z" />
<glyph unicode="." glyph-name="period" horiz-adv-x="269" d="M137 -17Q119 -17 102 -10T73 10T53 39T45 74Q45 93 52 109T72 138T102 158T137 166Q156 166 173 159T202 139T222 110T229 74Q229 56 222 40T203 11T173 -9T137 -17Z" />
<glyph unicode="/" glyph-name="slash" horiz-adv-x="414" d="M-21 -202L339 755L384 737L22 -219L-21 -202Z" />
<glyph unicode="0" glyph-name="zero" horiz-adv-x="658" d="M292 501Q276 501 266 491T249 463T241 423T239 376Q239 318 249 256T276 143T317 58T366 25Q393 25 404 58T416 163Q416 218 406 277T380 386T340 468T292 501ZM329 -15Q261 -15 207 7T116 67T59 154T39
257Q39 319 62 371T125 461T217 520T329 541Q390 541 443 521T535 464T596 379T619 271Q619 208 596 156T534 65T442 6T329 -15Z" />
<glyph unicode="1" glyph-name="one" horiz-adv-x="469" d="M349 58L459 41V0H31V41L152 58V425H20V467L345 543H349V58Z" />
<glyph unicode="2" glyph-name="two" horiz-adv-x="511" d="M199 137H494V0H25V54L121 131Q167 168 196 196T242 246T265 288T271 326Q271 366 245 390T183 415Q154 415 125 398T66 337L32 349Q58 447 116 496T255 545Q292 545 325 534T384 502T423 451T438 384Q438
351 426 323T391 270T331 219T247 165L199 137Z" />
<glyph unicode="3" glyph-name="three" horiz-adv-x="512" d="M185 -216Q150 -216 116 -209T56 -187T13 -152T-4 -104Q-4 -70 21 -49T92 -31L193 -176Q217 -174 238 -165T276 -138T303 -96T313 -38Q313 -11 301 16T264 65T200 101T106 117V182L145 187Q188 203
216 219T260 253T284 290T291 329Q291 375 264 398T198 422Q157 422 127 402T71 340L33 353Q45 396 64 431T111 491T174 531T254 545Q298 545 334 533T395 500T435 449T449 383Q449 350 437 325T406 279T360 244T306 217L282 207V202Q329 202 368 190T434 155T477
100T493 25Q493 -32 466 -77T394 -152T294 -199T185 -216Z" />
<glyph unicode="4" glyph-name="four" horiz-adv-x="662" d="M328 13H32V94L446 540L504 531V141H628V13H504V-190H328V13ZM328 141V353L132 141H328Z" />
<glyph unicode="5" glyph-name="five" horiz-adv-x="449" d="M203 22Q203 54 193 80T164 128T118 169T56 208L145 523H394V369H141L137 355Q264 308 324 245T385 91Q385 26 353 -26T269 -120T151 -191T15 -240L3 -213Q45 -195 81 -171T145 -118T187 -54T203 22Z" />
<glyph unicode="6" glyph-name="six" horiz-adv-x="668" d="M593 710Q560 694 520 672T439 619T361 549T296 461Q319 472 344 478T399 484Q443 484 485 469T559 424T612 352T632 254Q632 179 602 127T528 43T432 -4T337 -19Q275 -19 222 2T129 62T67 157T44 283Q44
369 91 445T214 582T387 685T582 746L593 710ZM280 428Q266 395 258 359T250 280Q250 221 261 174T289 93T328 42T372 24Q393 24 406 36T427 67T438 111T441 161Q441 203 432 250T404 336T357 402T290 428H280Z" />
<glyph unicode="7" glyph-name="seven" horiz-adv-x="542" d="M54 -184L389 343H35V523H534V519L192 -74L118 -210L54 -184Z" />
<glyph unicode="8" glyph-name="eight" horiz-adv-x="620" d="M34 147Q34 180 49 205T89 250T141 283T195 305Q163 323 138 340T96 378T71 424T62 481Q62 517 79 554T130 620T214 667T329 686Q386 686 429 673T500 638T543 589T558 535Q558 503 544 480T508 440T461
413T414 396L446 380Q512 345 549 302T586 199Q586 149 564 109T504 40T413 -4T300 -20Q239 -20 190 -9T106 25T53 78T34 147ZM234 284Q223 265 217 239T210 180Q210 146 219 117T244 67T281 33T329 20Q360 20 381 44T403 108Q403 159 372 194T274 264L234 284ZM222
569Q222 526 245 500T307 453L376 416Q387 435 393 459T400 514Q400 548 391 573T366 615T331 640T293 649Q262 649 242 627T222 569Z" />
<glyph unicode="9" glyph-name="nine" horiz-adv-x="660" d="M75 -184Q141 -151 192 -119T280 -55T344 11T386 81Q360 67 331 60T269 52Q225 52 183 67T108 112T55 185T35 286Q35 353 62 401T132 482T224 529T320 545Q383 545 438 523T535 462T601 367T625 244Q625
172 600 113T532 5T434 -81T319 -145T199 -191T86 -220L75 -184ZM396 108Q407 140 411 174T416 247Q416 298 406 344T380 425T341 481T295 502Q263 502 245 470T227 369Q227 325 237 279T266 195T314 133T381 108H396Z" />
<glyph unicode=":" glyph-name="colon" horiz-adv-x="308" d="M158 -17Q140 -17 124 -10T95 10T75 39T67 74Q67 93 74 109T94 138T123 158T158 166Q177 166 194 159T223 139T243 110T250 74Q250 56 243 40T224 11T194 -9T158 -17ZM155 324Q137 324 121 331T92
351T72 380T65 416Q65 434 72 451T91 480T120 500T155 508Q174 508 191 501T220 481T240 451T248 416Q248 397 241 381T221 352T191 332T155 324Z" />
<glyph unicode=";" glyph-name="semicolon" horiz-adv-x="311" d="M26 -149Q85 -111 110 -78T136 -10Q136 25 118 47T70 78Q65 120 87 149T155 178Q182 178 201 168T233 141T252 103T258 59Q258 -15 209 -72T47 -185L26 -149ZM160 324Q142 324 126 331T97 351T77
380T70 416Q70 434 77 451T96 480T125 500T160 508Q179 508 196 501T225 481T245 451T253 416Q253 397 246 381T226 352T196 332T160 324Z" />
<glyph unicode="&lt;" glyph-name="less" horiz-adv-x="588" d="M137 252L531 69V12L57 236V269L531 492V435L137 252Z" />
<glyph unicode="=" glyph-name="equal" horiz-adv-x="568" d="M47 296V345H521V296H47ZM47 156V205H521V156H47Z" />
<glyph unicode="&gt;" glyph-name="greater" horiz-adv-x="588" d="M451 252L57 435V492L531 268V235L57 12V69L451 252Z" />
<glyph unicode="?" glyph-name="question" horiz-adv-x="464" d="M76 728L135 714Q198 700 250 675T341 617T401 543T422 456Q422 421 415 393T389 344T342 307T269 282L168 259V205H127L94 400L293 439Q345 449 362 458T379 482Q379 495 369 504T332 519T258
529T135 538L76 541V728ZM151 -17Q133 -17 116 -10T87 10T67 39T59 74Q59 93 66 109T86 138T116 158T151 166Q170 166 187 159T216 139T236 110T243 74Q243 56 236 40T217 11T187 -9T151 -17Z" />
<glyph unicode="@" glyph-name="at" horiz-adv-x="964" d="M498 178H493L472 145Q437 89 400 59T322 29Q284 29 261 55T238 125Q238 176 261 233T323 339T413 420T520 452Q534 452 548 450T577 443L593 475H716L649 202Q641 168 641 146T646 110T665 91T695 85Q720
85 746 100T793 144T828 217T843 319Q844 386 822 442T758 539T661 602T537 625Q464 625 394 596T269 513T179 380T144 201Q144 118 170 55T241 -51T348 -116T480 -138Q543 -138 589 -127T655 -107V-128Q640 -137 616 -146T563 -163T503 -174T443 -179Q362 -179
288 -158T158 -92T68 21T36 183Q37 287 83 375T205 528T375 628T568 664Q646 664 712 640T827 572T901 469T927 342Q926 285 911 240T870 159T811 98T741 56T667 31T597 23Q565 23 542 32T506 59T489 99T491 149L498 178ZM417 139Q425 139 439 153T468 192T500
250T529 323L554 403Q536 422 522 422Q499 422 478 395T439 329T412 246T403 165Q403 149 407 144T417 139Z" />
<glyph unicode="A" glyph-name="A" horiz-adv-x="716" d="M-1 41L60 58L310 670L354 679L409 690L659 53L717 41V0H348V41L426 55L370 215H178L120 62L228 41V0H-1V41ZM198 268H351L278 478L198 268Z" />
<glyph unicode="B" glyph-name="B" horiz-adv-x="687" d="M18 41L95 59V605L18 623V664L343 667Q431 668 487 656T576 622T621 574T634 517Q634 482 618 455T573 409T506 376T423 355V352Q540 350 608 309T677 185Q677 84 592 41T348 -2L18 0V41ZM297 329V116Q297
82 320 62T372 42Q418 42 443 72T469 160Q469 194 459 222T429 273T384 309T326 329H297ZM297 367Q340 373 367 385T410 414T432 449T438 490Q438 520 426 544T395 585T350 611T297 623V367Z" />
<glyph unicode="C" glyph-name="C" horiz-adv-x="726" d="M441 -11Q336 -11 259 17T131 92T57 200T32 328Q32 403 65 468T155 581T289 656T455 684Q514 684 568 671T673 634V428H640L554 589Q525 618 497 631T436 644Q401 644 371 627T318 575T284 491T271 375Q271
295 285 232T326 125T389 58T467 34Q509 34 539 52L672 241H706L660 29Q598 8 549 -1T441 -11Z" />
<glyph unicode="D" glyph-name="D" horiz-adv-x="794" d="M297 71Q309 60 330 51T381 41Q412 41 441 59T494 111T532 195T547 308Q547 383 529 441T477 541T398 605T297 632V71ZM18 41L95 59V605L18 623V664H372Q464 664 537 641T662 575T741 474T769 345Q769
283 745 222T667 111T529 31T326 0H18V41Z" />
<glyph unicode="E" glyph-name="E" horiz-adv-x="651" d="M300 316V71Q328 41 379 41H475L591 246H629L592 0H18V41L95 59V605L18 623V664H608V455H570L498 622H300V366H390L424 484H463V204H424L390 316H300Z" />
<glyph unicode="F" glyph-name="F" horiz-adv-x="618" d="M300 303V59L404 43V0H18V41L95 59V605L18 623V664H588V458H550L477 621H300V351H410L444 470H483V189H444L410 303H300Z" />
<glyph unicode="G" glyph-name="G" horiz-adv-x="804" d="M444 -12Q331 -12 253 18T125 95T54 202T32 321Q32 405 67 472T163 587T302 659T468 684Q540 684 601 670T704 644L717 428H685L569 600Q534 626 507 634T453 643Q409 643 375 622T316 563T279 473T266
360Q266 279 282 218T326 117T391 56T471 35Q507 35 536 49V268L425 284V334H794V287L732 271V37L692 27Q670 21 641 15T580 2T512 -8T444 -12Z" />
<glyph unicode="H" glyph-name="H" horiz-adv-x="853" d="M474 41L553 59V311H300V59L377 41V0H18V41L95 59V605L18 623V664H377V623L300 605V367H553V605L476 623V664H835V623L758 605V59L835 41V0H474V41Z" />
<glyph unicode="I" glyph-name="I" horiz-adv-x="395" d="M18 41L95 59V605L18 623V664H377V623L300 605V59L377 41V0H18V41Z" />
<glyph unicode="J" glyph-name="J" horiz-adv-x="389" d="M300 99Q300 -51 217 -121T-34 -202L-39 -177Q3 -151 29 -129T70 -83T90 -29T95 43V605L8 623V664H377V623L300 605V99Z" />
<glyph unicode="K" glyph-name="K" horiz-adv-x="782" d="M18 41L95 59V605L18 623V664H377V623L300 605V59L377 41V0H18V41ZM319 303V308L576 604L481 623V664H735V623L644 602L480 419L724 54L788 41V0H523L319 303Z" />
<glyph unicode="L" glyph-name="L" horiz-adv-x="632" d="M300 71Q328 42 380 42H451L580 275H617L567 0H18V41L95 59V605L18 623V664H377V623L300 605V71Z" />
<glyph unicode="M" glyph-name="M" horiz-adv-x="948" d="M8 41L88 59L125 606L40 623V664H332L486 304L615 623L626 664H908V623L833 606L863 59L940 41V0H587V41L657 59L634 555L468 143L419 19H393L345 141L169 541L146 62L257 42V0H8V41Z" />
<glyph unicode="N" glyph-name="N" horiz-adv-x="738" d="M570 -13L155 479L162 61L273 41V0H22V41L99 58V553Q82 574 64 592T20 618L1 624V664H264L601 266L595 596L487 624V664H734V624L657 603V67L659 3L570 -13Z" />
<glyph unicode="O" glyph-name="O" horiz-adv-x="809" d="M419 33Q448 33 472 49T515 98T543 184T554 311Q554 376 543 435T511 540T458 612T387 639Q360 639 336 623T294 573T266 486T255 359Q255 284 268 224T304 121T357 56T419 33ZM406 684Q478 684 546 663T666
598T751 491T783 341Q783 261 751 196T664 85T541 14T400 -12Q325 -12 257 11T138 78T56 186T26 331Q26 407 58 471T142 583T263 657T406 684Z" />
<glyph unicode="P" glyph-name="P" horiz-adv-x="648" d="M334 337Q381 344 412 380T444 476Q444 504 436 530T410 578T365 612T300 627V59L381 41V0H18V41L95 59V605L18 623V664L334 665Q400 665 454 654T549 621T611 568T633 496Q633 446 606 409T535 347T439
310T334 300V337Z" />
<glyph unicode="Q" glyph-name="Q" horiz-adv-x="809" d="M250 17Q201 34 160 62T89 131T43 221T26 331Q26 407 58 471T142 583T263 657T406 684Q478 684 546 663T666 598T751 491T783 341Q783 281 764 229T710 136T631 64T534 15Q571 -15 607 -42T680 -91T755
-124T835 -136Q880 -136 912 -126T974 -99L986 -116Q975 -127 956 -144T905 -178T830 -205T727 -217Q653 -217 591 -198T471 -147T360 -72T250 17ZM419 28Q448 28 473 43T516 92T544 179T554 310Q554 376 543 435T511 540T458 613T387 640Q359 640 335 624T293
573T265 485T255 356Q255 276 268 215T304 112T356 49T419 28Z" />
<glyph unicode="R" glyph-name="R" horiz-adv-x="735" d="M18 41L95 59V605L18 623V664H322Q415 664 478 651T581 614T638 560T655 495Q655 444 622 401T513 328V323L671 54L735 41V0H483L314 288H297V59L368 41V0H18V41ZM297 334H368Q411 347 437 384T464 467Q464
502 451 530T415 577T362 608T297 623V334Z" />
<glyph unicode="S" glyph-name="S" horiz-adv-x="582" d="M35 252H67L164 67Q183 52 207 42T267 31Q312 31 340 59T369 128Q369 171 346 193T277 232L219 254Q131 286 93 337T55 459Q55 496 71 536T123 608T211 662T339 683Q383 683 429 672T517 644V451H484L408
619Q397 629 379 636T335 643Q286 643 257 616T227 548Q227 503 255 479T341 434L409 410Q484 383 517 340T550 239Q550 177 526 130T460 52T366 4T256 -13Q200 -13 151 -1T57 27L35 252Z" />
<glyph unicode="T" glyph-name="T" horiz-adv-x="657" d="M642 442H611L540 613H431V59L529 41V0H127V41L226 59V613H117L46 442H15V664H642V442Z" />
<glyph unicode="U" glyph-name="U" horiz-adv-x="739" d="M370 -15Q310 -15 258 -1T166 44T105 126T82 250V605L5 623V664H387V623L289 605V252Q289 204 301 170T335 115T383 83T440 73Q471 73 499 83T548 114T582 169T595 250L593 603L494 623V664H734V623L658
603V277Q658 210 641 156T589 64T499 6T370 -15Z" />
<glyph unicode="V" glyph-name="V" horiz-adv-x="696" d="M56 606L-1 623V664H369V623L279 603L427 180L580 603L483 623V664H697V623L635 603L398 -11H297L56 606Z" />
<glyph unicode="W" glyph-name="W" horiz-adv-x="1038" d="M520 401L369 -12H271L58 606L-1 622V664H333V623L274 606L399 182L497 468L450 606L407 623V664H744V623L662 606L788 197L921 600L833 623V664H1039V623L976 603L763 -12H664L520 401Z" />
<glyph unicode="X" glyph-name="X" horiz-adv-x="728" d="M85 59L270 303L83 606L13 623V664H396V623L320 606L428 420H430L557 603L473 623V664H701V623L625 602L457 373L652 59L728 41V0H338V42L414 59L299 257H297L159 61L242 41V0H5V41L85 59Z" />
<glyph unicode="Y" glyph-name="Y" horiz-adv-x="686" d="M451 280V59L530 40V0H168V40L247 59V258L61 605L-1 623V664H378V623L280 605L421 317L564 603L461 623V664H687V623L622 603L451 280Z" />
<glyph unicode="Z" glyph-name="Z" horiz-adv-x="662" d="M25 42L361 614H150L65 439H32L39 664H615V652L247 49H508L623 241H657L613 0H25V42Z" />
<glyph unicode="[" glyph-name="bracketleft" horiz-adv-x="320" d="M81 -181V733H305V685H205V-133H305V-181H81Z" />
<glyph unicode="\" glyph-name="backslash" horiz-adv-x="414" d="M396 -219L34 737L79 755L439 -202L396 -219Z" />
<glyph unicode="]" glyph-name="bracketright" horiz-adv-x="320" d="M239 733V-181H15V-133H115V685H15V733H239Z" />
<glyph unicode="^" glyph-name="asciicircum" horiz-adv-x="500" d="M45 485L224 756H276L454 485H393L246 670L94 485H45Z" />
<glyph unicode="_" glyph-name="underscore" horiz-adv-x="408" d="M4 -180H404V-230H4V-180Z" />
<glyph unicode="`" glyph-name="grave" horiz-adv-x="400" d="M243 775L296 582H255L104 768V775H243Z" />
<glyph unicode="a" glyph-name="a" horiz-adv-x="556" d="M161 -15Q129 -15 104 -5T60 24T33 66T23 116Q23 147 33 170T65 210T121 241T204 266L298 288V376Q296 393 292 409T278 437T256 457T224 465Q208 465 198 460L196 332Q183 326 161 322T114 318Q80 318
60 333T39 382Q39 407 60 432T118 477T203 509T303 521Q345 521 379 513T437 484T475 432T488 354V107Q488 77 498 71T529 65H559V36Q533 22 507 11Q484 2 457 -5T404 -13Q362 -13 336 4T305 69H301Q292 55 280 40T250 13T211 -7T161 -15ZM264 82Q283 82 298 93V249H297Q245
234 223 208T201 152Q201 118 219 100T264 82Z" />
<glyph unicode="b" glyph-name="b" horiz-adv-x="630" d="M264 -15Q223 -15 177 -6T90 21L55 37V609L-5 651V672L250 746V443Q277 474 315 495T405 516Q441 516 477 502T542 460T589 389T607 289Q607 217 575 161T494 65T383 6T264 -15ZM276 422Q262 422 250 417V86Q260
62 277 47T322 31Q343 31 359 43T386 78T402 131T408 198Q408 250 397 291T367 362T325 406T276 422Z" />
<glyph unicode="c" glyph-name="c" horiz-adv-x="521" d="M277 -13Q217 -13 170 7T90 63T40 147T23 249Q23 312 46 362T107 447T196 502T302 521Q344 521 378 510T438 481T477 439T491 388Q491 350 465 332T399 313Q382 313 368 316T346 323L317 464Q300 482 274
482Q239 482 219 445T198 351Q198 290 213 246T253 172T311 129T382 115Q404 115 424 119T460 129Q478 135 494 144L506 123Q482 85 454 60T397 18T337 -6T277 -13Z" />
<glyph unicode="d" glyph-name="d" horiz-adv-x="636" d="M291 687L568 749V70L621 56V23L394 -12L379 52Q354 23 318 4T228 -15Q185 -15 148 2T83 51T39 128T23 231Q23 294 48 345T116 433T217 489T343 509H373V627L291 668V687ZM345 78Q361 78 373 84V412Q353
447 336 460T298 474Q283 474 269 465T243 437T224 386T217 308Q217 252 228 210T258 138T299 93T345 78Z" />
<glyph unicode="e" glyph-name="e" horiz-adv-x="543" d="M272 -13Q217 -13 171 7T92 62T41 146T23 252Q23 310 46 359T107 445T192 501T287 521Q341 521 380 505T445 460T486 388T508 294H190Q194 248 212 214T257 158T316 124T381 113Q417 113 444 121T499 143L514
121Q493 93 467 69T411 26T346 -2T272 -13ZM252 476Q228 476 210 444T189 334H322Q319 394 301 435T252 476Z" />
<glyph unicode="f" glyph-name="f" horiz-adv-x="392" d="M12 39L74 52V443H1V482L75 507L81 532Q93 583 121 624T187 694T272 740T367 756Q398 756 428 749T481 729T519 698T534 655Q534 627 521 611T489 586T446 577T402 581L370 688Q360 702 348 707T324 713Q298
713 281 686T266 593L268 505H399V443H269V52L350 39V0H12V39Z" />
<glyph unicode="g" glyph-name="g" horiz-adv-x="582" d="M464 447L461 442Q507 402 507 348Q507 315 492 286T448 234T377 198T279 185Q220 185 174 200Q162 188 162 174Q162 159 173 149T212 138L430 132Q499 130 532 96T566 6Q566 -45 538 -89T461 -167T351
-219T220 -238Q113 -238 63 -204T12 -120Q12 -82 35 -60T98 -22V-17Q63 -3 46 24T29 80Q29 116 52 146T133 215V218Q90 241 68 275T45 350Q45 389 63 420T114 474T187 508T276 520Q294 520 309 519T341 514T377 507T423 496L582 511V440L464 447ZM153 -36Q148 -44
145 -54T141 -77Q141 -102 153 -120T185 -151T233 -170T293 -176Q334 -176 363 -168T411 -147T438 -120T447 -93Q447 -76 437 -64T407 -47L153 -36ZM211 387Q212 355 218 326T236 274T262 239T294 226Q316 226 329 251T342 323Q342 356 335 385T317 435T290 468T258
481Q236 481 223 457T211 387Z" />
<glyph unicode="h" glyph-name="h" horiz-adv-x="660" d="M346 40L395 52V320Q395 362 374 387T316 411Q287 410 269 399V52L316 39V0H12V39L74 52V616L14 656V677L269 749V439Q283 452 301 466T341 493T388 513T440 521Q508 521 549 483T590 371V52L652 39V0H346V40Z" />
<glyph unicode="i" glyph-name="i" horiz-adv-x="345" d="M13 39L77 52V399L14 450V470L273 521V52L336 39V0H13V39ZM180 567Q142 567 116 593T89 659Q89 678 96 695T115 724T144 744T180 752Q199 752 216 745T246 725T266 695T274 659Q274 620 247 594T180 567Z" />
<glyph unicode="j" glyph-name="j" horiz-adv-x="341" d="M-30 -198Q-6 -179 13 -162T47 -123T69 -68T77 14V399L14 450V470L273 521V103Q273 59 272 23T263 -43T240 -98T196 -145Q167 -168 133 -182T68 -205T13 -216T-24 -219L-30 -198ZM179 567Q141 567 115
593T88 659Q88 678 95 695T114 724T143 744T179 752Q198 752 215 745T245 725T265 695T273 659Q273 620 246 594T179 567Z" />
<glyph unicode="k" glyph-name="k" horiz-adv-x="650" d="M74 616L14 656V677L269 749V52L326 39V0H12V39L74 52V616ZM535 -14Q476 -14 438 8T369 88L277 259L452 438L360 467V505H634V467L549 446L437 350L650 16Q636 7 618 1Q603 -5 582 -9T535 -14Z" />
<glyph unicode="l" glyph-name="l" horiz-adv-x="337" d="M12 39L74 52V616L14 656V677L269 749V52L329 39V0H12V39Z" />
<glyph unicode="m" glyph-name="m" horiz-adv-x="981" d="M667 40L716 52V319Q716 362 695 386T637 411Q622 411 611 408T590 399V52L637 39V0H346V40L395 52V320Q395 363 374 387T316 411Q301 411 290 408T269 398V52L316 39V0H12V39L74 52V399L14 443V464L240
523H245L256 429H258Q271 442 290 458T332 488T382 511T440 521Q500 521 532 496T577 429H579Q592 442 610 458T652 488T703 511T761 521Q829 521 870 483T911 371V52L973 39V0H667V40Z" />
<glyph unicode="n" glyph-name="n" horiz-adv-x="660" d="M12 39L74 52V399L14 443V464L240 523H245L256 429H258Q271 442 290 458T332 488T382 511T440 521Q508 521 549 483T590 371V52L652 39V0H346V40L395 52V320Q395 362 374 387T316 411Q287 410 269 399V52L316
39V0H12V39Z" />
<glyph unicode="o" glyph-name="o" horiz-adv-x="630" d="M296 481Q275 481 262 465T241 423T232 370T229 316Q229 257 237 205T258 112T291 48T333 24Q367 24 383 68T399 197Q399 252 392 303T372 394T339 457T296 481ZM315 -15Q244 -15 190 6T100 64T44 147T25
247Q25 307 47 357T109 443T201 500T315 520Q378 520 431 501T523 447T583 364T605 260Q605 199 583 149T522 62T430 5T315 -15Z" />
<glyph unicode="p" glyph-name="p" horiz-adv-x="649" d="M0 -171L74 -158V399L14 443V464L240 523H245L255 429H257Q270 445 285 460T321 488T366 507T422 515Q459 515 495 501T561 459T608 389T626 290Q626 222 599 167T528 73T426 13T309 -9H269V-154L380 -172V-210H0V-171ZM293
422Q281 422 269 417V85Q277 65 294 48T338 31Q377 31 402 76T427 202Q427 256 416 297T385 365T342 407T293 422Z" />
<glyph unicode="q" glyph-name="q" horiz-adv-x="637" d="M262 -172L373 -154V48Q349 22 314 4T228 -15Q188 -15 151 1T86 49T40 126T23 231Q23 297 49 348T115 435T206 490T307 509Q335 509 358 504T402 488L565 520H568V-158L642 -171V-210H262V-172ZM348 79Q364
79 373 83V417Q356 448 339 461T299 474Q286 474 272 467T246 440T227 389T219 308Q219 252 230 210T261 138T302 94T348 79Z" />
<glyph unicode="r" glyph-name="r" horiz-adv-x="475" d="M12 39L74 52V399L14 443V464L244 523H250L257 389H262L278 424Q299 471 326 495T399 520Q416 520 432 514T461 497T482 469T490 429Q490 381 458 354T360 328L309 384Q298 379 285 366T269 334V52L363
39V0H12V39Z" />
<glyph unicode="s" glyph-name="s" horiz-adv-x="485" d="M199 -15Q154 -15 118 -7T39 16L32 184H65L135 55Q143 47 161 37T202 27Q238 27 259 45T281 93Q281 116 268 134T223 163L150 190Q86 213 62 254T38 346Q38 384 54 416T101 472T177 509T279 523Q315 523
355 515T429 493V337H399L336 455Q323 466 307 473T271 480Q242 480 222 463T202 419Q202 390 219 375T264 348L336 321Q392 301 422 266T453 178Q453 135 434 100T380 39T300 -1T199 -15Z" />
<glyph unicode="t" glyph-name="t" horiz-adv-x="402" d="M210 -15Q135 -15 99 24T64 138L67 443H-6V480L68 508L243 627H259V505H406V443H259V135Q264 115 274 103T298 83T326 72T356 69Q371 69 382 70T401 74L407 41Q367 19 320 2T210 -15Z" />
<glyph unicode="u" glyph-name="u" horiz-adv-x="650" d="M386 66Q370 51 352 37T312 11T267 -8T214 -15Q188 -15 162 -9T114 14T79 60T65 136V411L5 444V468L260 515V175Q260 157 263 142T273 116T295 98T332 91Q347 91 359 94T383 103V417L324 449V474L578 519V69L640
57V24L398 -11L386 66Z" />
<glyph unicode="v" glyph-name="v" horiz-adv-x="531" d="M227 -13L31 457L-12 467V505H305V467L240 458L328 202L333 181H334L340 202L435 455L376 467V505H544V467L495 457L299 -13H227Z" />
<glyph unicode="w" glyph-name="w" horiz-adv-x="830" d="M645 224L653 201H654L660 225L725 455L646 467V505H840V467L785 457L626 -13H546L431 242L421 268H420L411 243L306 -13H224L46 457L-10 467V505H331V467L260 457L335 230L344 197H345L356 230L462 505H521L645
224Z" />
<glyph unicode="x" glyph-name="x" horiz-adv-x="596" d="M540 52L587 39V0H276V40L321 52L241 178L152 54L200 38V0H13V38L76 54L212 223L59 458L18 468V505H325V467L280 458L351 344L434 455L383 468V505H563V467L506 455L379 300L540 52Z" />
<glyph unicode="y" glyph-name="y" horiz-adv-x="537" d="M385 467V505H542V467L499 457L259 -123Q238 -174 209 -203T134 -232Q97 -232 69 -206T40 -137Q40 -116 47 -99T68 -69T98 -50T134 -43Q164 -43 186 -57T219 -104H221L243 -50L33 458L-5 467V505H303V467L242
459L336 179L439 455L385 467Z" />
<glyph unicode="z" glyph-name="z" horiz-adv-x="525" d="M18 24L271 455H138L67 301H34V517L124 505H503V499L240 50H377L472 217H507L484 0H18V24Z" />
<glyph unicode="{" glyph-name="braceleft" horiz-adv-x="328" d="M95 273Q135 270 161 263T203 241T225 203T230 144L226 -39Q225 -69 230 -88T246 -120T276 -137T323 -142V-181L306 -182Q247 -185 206 -174T140 -140T105 -83T98 -6L113 180Q116 219 106 235T65
252L25 253V299L65 300Q95 301 105 317T113 372L98 558Q95 600 105 634T140 691T206 726T306 734L323 733V695Q295 695 276 690T246 673T230 641T226 591L230 405Q231 371 225 348T204 311T162 289T95 278V273Z" />
<glyph unicode="|" glyph-name="bar" horiz-adv-x="230" d="M92 -210V749H138V-210H92Z" />
<glyph unicode="}" glyph-name="braceright" horiz-adv-x="328" d="M233 279Q192 282 166 289T125 311T103 349T98 408L102 591Q103 621 98 640T82 672T52 689T5 694V733L22 734Q81 737 122 726T188 692T223 634T230 558L215 372Q212 333 222 317T263 300L303
299V253L263 252Q233 251 223 235T215 180L230 -6Q233 -48 223 -82T188 -140T122 -174T22 -182L5 -181V-143Q33 -143 52 -138T82 -121T98 -89T102 -39L98 147Q97 181 103 204T124 241T166 263T233 274V279Z" />
<glyph unicode="~" glyph-name="asciitilde" horiz-adv-x="542" d="M11 194L22 225Q41 279 66 311T121 357T185 371T256 357L327 333Q363 320 387 314T429 312T464 331T502 375L529 362L518 330Q481 231 424 194T275 189L223 207Q180 222 153 230T107 236T73 221T39
181L11 194Z" />
<glyph unicode="&#xa0;" glyph-name="uni00A0" horiz-adv-x="175" />
<glyph unicode="&#xa1;" glyph-name="exclamdown" horiz-adv-x="311" d="M38 -118L140 392H171L273 -118H38ZM157 614Q175 614 192 607T221 587T241 558T249 523Q249 504 242 488T222 459T192 439T157 431Q138 431 121 438T92 458T72 487T65 523Q65 541 72 557T91
586T121 606T157 614Z" />
<glyph unicode="&#xa2;" glyph-name="cent" horiz-adv-x="549" d="M236 -8Q189 1 152 24T90 81T52 158T39 249Q39 312 62 362T123 447T211 502T312 521H324L342 625H381L363 516Q397 510 424 497T470 467T500 430T511 388Q511 354 490 337T433 319Q418 319 405
321T385 328L372 447Q367 452 363 457T354 466L298 132Q334 108 385 108Q412 108 434 113T473 126Q491 134 507 144L519 123Q471 48 411 18T291 -13Q286 -13 283 -13T274 -12L255 -130H216L236 -8ZM215 312Q215 218 264 161L318 482H313Q296 482 279 474T247 446T224
393T215 312Z" />
<glyph unicode="&#xa3;" glyph-name="sterling" horiz-adv-x="754" d="M152 314H286L293 348Q308 421 349 478T442 573T547 632T640 652Q667 652 689 644T728 622T753 592T762 561Q762 543 752 528T726 502T688 484T644 474Q620 599 575 599Q549 599 534 572T508
483L480 332L476 314H638L637 258H458Q442 219 419 187T370 127T314 79T254 41Q273 30 290 20T322 1L370 -27Q419 -56 451 -76T506 -108T543 -125T569 -131Q601 -131 613 -95T607 27Q667 35 698 20T729 -28Q729 -58 704 -90T639 -148T553 -192T461 -209Q391 -209
331 -166T205 -42L168 4Q138 -6 114 -10T75 -15Q43 -15 22 0T0 45Q0 76 23 92T84 109Q109 109 140 98T203 70Q222 93 238 128T267 222L274 258H152V314Z" />
<glyph unicode="&#xa5;" glyph-name="yen" horiz-adv-x="652" d="M50 296H210L62 578L0 596V637H347V596L275 578L391 319H393L522 577L436 596V637H652V596L586 576L431 296H599V257H420V179H599V139H420V60L512 40V0H137V40L229 59V139H50V179H229V257H50V296Z" />
<glyph unicode="&#xa6;" glyph-name="brokenbar" horiz-adv-x="229" d="M92 313V749H137V313H92ZM92 -210V226H137V-210H92Z" />
<glyph unicode="&#xa7;" glyph-name="section" horiz-adv-x="549" d="M293 -126Q293 -111 287 -95T268 -56T234 -5T185 66L153 112Q123 155 103 188T71 249T54 304T49 359Q49 407 69 449T121 525T195 585T279 629T363 656T436 666Q487 666 515 644T544 588Q544
560 525 538T476 507Q457 520 434 534Q414 546 389 561T337 591Q301 591 271 582V568Q271 554 277 538T297 501T330 450T379 380L411 334Q441 291 461 258T493 196T510 141T515 87Q515 39 495 -3T443 -79T369 -139T285 -183T201 -210T129 -220Q75 -220 48 -197T20
-138Q20 -112 38 -91T87 -60Q107 -74 130 -88Q150 -100 175 -115T228 -145Q263 -145 292 -136Q293 -133 293 -126ZM164 424Q164 402 167 383T179 343T198 301T227 252L283 161Q318 104 340 57T362 -37Q362 -54 358 -69T348 -100H355Q400 -55 400 22Q400 65 385
103T337 194L281 285Q246 342 224 388T202 483Q202 496 206 514T216 546H209Q164 501 164 424Z" />
<glyph unicode="&#xa8;" glyph-name="dieresis" horiz-adv-x="400" d="M90 576Q55 576 31 600T6 659Q6 693 30 718T90 743Q124 743 149 718T174 659Q174 624 149 600T90 576ZM309 576Q275 576 251 600T227 659Q227 693 251 718T309 743Q326 743 341 736T368 718T387
691T394 659Q394 624 369 600T309 576Z" />
<glyph unicode="&#xa9;" glyph-name="copyright" horiz-adv-x="793" d="M43 338Q43 412 70 476T146 587T258 662T397 690Q470 690 534 663T647 588T722 476T750 338Q750 264 722 200T646 88T534 13T396 -15Q322 -15 258 12T146 86T71 198T43 338ZM78 338Q78 272
103 214T172 112T274 43T398 17Q463 17 520 42T621 110T690 212T716 338Q716 405 691 463T622 564T520 633T398 658Q332 658 274 633T173 565T104 463T78 338ZM420 135Q361 135 319 151T248 196T206 260T192 336Q192 378 211 415T264 479T343 523T441 539Q472 539
500 531T556 509V390H528L484 483Q470 497 455 502T426 507Q391 507 367 467T342 359Q342 264 372 217T443 170Q451 170 459 171T474 177L545 282H574L544 160Q483 135 420 135Z" />
<glyph unicode="&#xaa;" glyph-name="ordfeminine" horiz-adv-x="458" d="M137 250Q94 250 62 277T30 352Q30 398 61 424T161 466L244 484V559Q242 582 229 603T186 624Q174 624 164 620L154 523Q143 515 129 511T100 507Q73 507 58 518T43 553Q43 575 60 595T105
632T168 657T239 667Q325 667 359 634T393 533V348Q393 326 399 320T425 313H448V284Q429 274 409 267Q392 260 370 255T326 250Q289 250 271 267T251 313H246Q230 290 205 270T137 250ZM213 328Q224 328 231 331T244 337V450Q202 437 185 421T167 378Q167 358
178 343T213 328Z" />
<glyph unicode="&#xab;" glyph-name="guillemotleft" horiz-adv-x="509" d="M248 385L149 224L248 45L225 29L45 204V231L225 404L248 385ZM444 385L345 224L444 45L421 29L241 204V231L421 404L444 385Z" />
<glyph unicode="&#xac;" glyph-name="logicalnot" horiz-adv-x="568" d="M521 277V71H467V227H47V277H521Z" />
<glyph unicode="&#xae;" glyph-name="registered" horiz-adv-x="526" d="M35 535Q35 582 53 623T102 694T176 741T265 759Q312 759 353 742T425 694T473 623T491 535Q491 488 473 448T424 377T350 330T261 312Q214 312 173 329T101 376T53 447T35 535ZM71 535Q71
494 86 459T126 398T187 357T262 342Q303 342 338 357T400 398T441 459T456 535Q456 576 441 611T400 672T339 713T262 728Q221 728 187 713T126 672T86 611T71 535ZM132 449L160 454V632L132 636V658H259Q375 658 375 594Q375 580 369 570T355 553T337 541T319
533V532L381 454L404 449V427H307L278 466Q267 480 261 488T251 502Q247 508 244 511H238V452L257 448V427H132V449ZM238 534H260Q276 541 285 552T295 583Q295 603 280 620T238 639V534Z" />
<glyph unicode="&#xaf;" glyph-name="macron" horiz-adv-x="400" d="M47 700H353V620H47V700Z" />
<glyph unicode="&#xb0;" glyph-name="degree" horiz-adv-x="305" d="M20 603Q20 630 30 654T59 696T102 724T155 735Q183 735 207 725T248 696T275 654T285 603Q285 575 275 551T246 509T203 481T151 470Q122 470 98 480T57 509T30 551T20 603ZM61 603Q61 561
87 533T153 505Q193 505 219 533T245 603Q245 645 219 673T153 701Q113 701 87 673T61 603Z" />
<glyph unicode="&#xb1;" glyph-name="plusminus" horiz-adv-x="568" d="M311 322V112H257V322H47V372H257V582H311V372H521V322H311ZM47 50H521V0H47V50Z" />
<glyph unicode="&#xb4;" glyph-name="acute" horiz-adv-x="400" d="M296 775V768L145 582H104L157 775H296Z" />
<glyph unicode="&#xb6;" glyph-name="paragraph" horiz-adv-x="563" d="M533 623L456 605V67Q456 -8 438 -60T388 -146T314 -194T224 -209Q182 -209 149 -197T93 -162T58 -109T46 -42Q46 -7 58 21T90 70T137 100T191 111Q219 111 240 103T275 81T297 50T304 13Q304
-10 297 -27T278 -55T252 -71T223 -76Q197 -76 180 -58T162 -14L238 41V46Q229 60 216 66T181 73Q166 73 150 67T122 47T101 13T92 -36Q92 -61 100 -84T126 -126T169 -156T230 -167Q258 -167 285 -158T332 -126T364 -66T377 27V618H324V233H271Q226 233 187 250T119
296T72 364T55 448Q55 493 72 532T118 600T187 647T271 664H533V623Z" />
<glyph unicode="&#xb7;" glyph-name="periodcentered" horiz-adv-x="274" d="M137 190Q119 190 102 197T73 217T53 246T45 281Q45 300 52 316T72 345T102 365T137 373Q156 373 173 366T202 346T222 317T229 281Q229 263 222 247T203 218T173 198T137 190Z" />
<glyph unicode="&#xb8;" glyph-name="cedilla" horiz-adv-x="285" d="M55 -219Q102 -203 129 -184T156 -138Q156 -119 143 -107T108 -88L173 4H210L178 -40Q220 -44 251 -62T283 -118Q283 -163 229 -196T63 -247L55 -219Z" />
<glyph unicode="&#xba;" glyph-name="ordmasculine" horiz-adv-x="491" d="M232 631Q217 631 208 619T195 587T189 545T188 502Q188 461 193 421T208 349T231 298T261 278Q284 278 294 312T304 411Q304 450 299 489T285 560T263 611T232 631ZM246 242Q192 242
151 259T82 304T40 371T25 450Q25 498 42 538T89 606T159 651T246 667Q294 667 334 652T403 609T449 543T466 460Q466 412 449 372T403 303T333 258T246 242Z" />
<glyph unicode="&#xbb;" glyph-name="guillemotright" horiz-adv-x="509" d="M65 48L164 209L65 388L88 404L268 229V202L88 29L65 48ZM261 48L360 209L261 388L284 404L464 229V202L284 29L261 48Z" />
<glyph unicode="&#xbc;" glyph-name="onequarter" horiz-adv-x="777" d="M230 321L290 311V279H16V311L85 321V576H11V602L213 668H230V321ZM113 -56L651 721L684 699L146 -78L113 -56ZM710 163H763V87H710V37L754 27V0H540V27L590 36V87H410V138L648 395L710
386V163ZM590 163V284L475 163H590Z" />
<glyph unicode="&#xbd;" glyph-name="onehalf" horiz-adv-x="802" d="M113 -56L651 721L684 699L146 -78L113 -56ZM230 321L290 311V279H16V311L85 321V576H11V602L213 668H230V321ZM597 104H788V0H483V32L529 79Q560 112 583 135T621 178T643 213T650 250Q650
276 634 293T586 311Q561 311 543 296T507 261L482 278Q514 338 555 369T650 401Q705 401 739 370T773 288Q773 243 748 214T675 154L597 104Z" />
<glyph unicode="&#xbe;" glyph-name="threequarters" horiz-adv-x="781" d="M156 296Q172 296 189 309T206 356Q206 370 201 386T181 417T141 441T77 451V478Q143 490 170 510T198 559Q198 578 185 592T142 607Q112 607 88 591T48 554L24 567Q33 590 47 610T83
646T131 671T194 680Q245 680 279 655T313 592Q313 573 305 558T283 530T252 510T218 499V495Q276 489 304 464T332 401Q332 372 319 348T282 307T224 279T147 269Q122 269 99 275T57 291T29 316T18 348Q18 368 33 382T76 396L121 309Q129 301 138 299T156 296ZM117
-56L655 721L688 699L150 -78L117 -56ZM714 163H767V87H714V37L758 27V0H544V27L594 36V87H414V138L652 395L714 386V163ZM594 163V284L479 163H594Z" />
<glyph unicode="&#xbf;" glyph-name="questiondown" horiz-adv-x="464" d="M409 -131L350 -117Q287 -103 235 -78T144 -20T84 54T63 141Q63 211 96 253T216 315L317 338V392H358L391 197L192 158Q140 148 123 139T106 115Q106 102 116 93T153 78T227 68T350 59L409
56V-131ZM334 614Q352 614 369 607T398 587T418 558T426 523Q426 504 419 488T399 459T369 439T334 431Q315 431 298 438T269 458T249 487T242 523Q242 541 249 557T268 586T298 606T334 614Z" />
<glyph unicode="&#xc0;" glyph-name="Agrave" horiz-adv-x="716" d="M-1 41L60 58L310 670L354 679L409 690L659 53L717 41V0H348V41L426 55L370 215H178L120 62L228 41V0H-1V41ZM198 268H351L278 478L198 268ZM312 865L391 716H334L164 851V865H312Z" />
<glyph unicode="&#xc1;" glyph-name="Aacute" horiz-adv-x="716" d="M-1 41L60 58L310 670L354 679L409 690L659 53L717 41V0H348V41L426 55L370 215H178L120 62L228 41V0H-1V41ZM198 268H351L278 478L198 268ZM552 865V851L382 716H325L404 865H552Z" />
<glyph unicode="&#xc2;" glyph-name="Acircumflex" horiz-adv-x="716" d="M-1 41L60 58L310 670L354 679L409 690L659 53L717 41V0H348V41L426 55L370 215H178L120 62L228 41V0H-1V41ZM198 268H351L278 478L198 268ZM212 716L305 865H412L510 716H455L357 788L261
716H212Z" />
<glyph unicode="&#xc3;" glyph-name="Atilde" horiz-adv-x="716" d="M-1 41L60 58L310 670L354 679L409 690L659 53L717 41V0H348V41L426 55L370 215H178L120 62L228 41V0H-1V41ZM198 268H351L278 478L198 268ZM331 772Q300 779 279 782T243 782T216 769T194 740L170
750L176 767Q191 810 207 837T245 878T294 891T361 882L406 870Q430 864 449 862T486 864T518 879T547 911L571 901L562 878Q544 831 527 803T490 762T442 749T377 760L331 772Z" />
<glyph unicode="&#xc4;" glyph-name="Adieresis" horiz-adv-x="716" d="M-1 41L60 58L310 670L354 679L409 690L659 53L717 41V0H348V41L426 55L370 215H178L120 62L228 41V0H-1V41ZM198 268H351L278 478L198 268ZM230 713Q195 713 171 737T146 796Q146 830 170
855T230 880Q264 880 289 855T314 796Q314 761 289 737T230 713ZM486 713Q452 713 428 737T404 796Q404 830 428 855T486 880Q503 880 518 873T545 855T564 828T571 796Q571 761 546 737T486 713Z" />
<glyph unicode="&#xc5;" glyph-name="Aring" horiz-adv-x="716" d="M-1 41L60 58L310 670L354 679L409 690L659 53L717 41V0H348V41L426 55L370 215H178L120 62L228 41V0H-1V41ZM198 268H351L278 478L198 268ZM246 829Q246 851 254 870T278 904T313 927T359 936Q410
936 440 906T470 831Q470 787 439 756T357 724Q306 724 276 754T246 829ZM293 831Q293 801 312 781T359 761Q386 761 404 780T423 829Q423 859 404 879T357 899Q330 899 312 880T293 831Z" />
<glyph unicode="&#xc6;" glyph-name="AE" horiz-adv-x="975" d="M630 298V73Q658 43 709 43H798L915 246H953L916 0H350V41L427 59V301H253L126 62L232 41V0H-1V41L58 58L363 605L268 623V664H932V455H894L821 620H630V345H714L748 464H787V184H748L714 298H630ZM418
614L276 345H427V614H418Z" />
<glyph unicode="&#xc7;" glyph-name="Ccedilla" horiz-adv-x="726" d="M283 -219Q330 -203 357 -184T384 -138Q384 -119 371 -107T336 -88L391 -9Q299 -3 231 27T119 104T54 208T32 328Q32 403 65 468T155 581T289 656T455 684Q514 684 568 671T673 634V428H640L554
589Q525 618 497 631T436 644Q401 644 371 627T318 575T284 491T271 375Q271 295 285 232T326 125T389 58T467 34Q509 34 539 52L672 241H706L660 29Q598 8 549 -1T441 -11Q437 -11 434 -11T427 -10L406 -40Q448 -44 479 -62T511 -118Q511 -163 457 -196T291 -247L283
-219Z" />
<glyph unicode="&#xc8;" glyph-name="Egrave" horiz-adv-x="651" d="M303 865L382 716H325L155 851V865H303ZM300 316V71Q328 41 379 41H475L591 246H629L592 0H18V41L95 59V605L18 623V664H608V455H570L498 622H300V366H390L424 484H463V204H424L390 316H300Z" />
<glyph unicode="&#xc9;" glyph-name="Eacute" horiz-adv-x="651" d="M543 865V851L373 716H316L395 865H543ZM300 316V71Q328 41 379 41H475L591 246H629L592 0H18V41L95 59V605L18 623V664H608V455H570L498 622H300V366H390L424 484H463V204H424L390 316H300Z" />
<glyph unicode="&#xca;" glyph-name="Ecircumflex" horiz-adv-x="651" d="M191 716L284 865H391L489 716H434L336 788L240 716H191ZM300 316V71Q328 41 379 41H475L591 246H629L592 0H18V41L95 59V605L18 623V664H608V455H570L498 622H300V366H390L424 484H463V204H424L390
316H300Z" />
<glyph unicode="&#xcb;" glyph-name="Edieresis" horiz-adv-x="651" d="M300 316V71Q328 41 379 41H475L591 246H629L592 0H18V41L95 59V605L18 623V664H608V455H570L498 622H300V366H390L424 484H463V204H424L390 316H300ZM204 713Q169 713 145 737T120 796Q120
830 144 855T204 880Q238 880 263 855T288 796Q288 761 263 737T204 713ZM460 713Q426 713 402 737T378 796Q378 830 402 855T460 880Q477 880 492 873T519 855T538 828T545 796Q545 761 520 737T460 713Z" />
<glyph unicode="&#xcc;" glyph-name="Igrave" horiz-adv-x="395" d="M18 41L95 59V605L18 623V664H377V623L300 605V59L377 41V0H18V41ZM408 865L487 716H430L260 851V865H408Z" />
<glyph unicode="&#xcd;" glyph-name="Iacute" horiz-adv-x="395" d="M18 41L95 59V605L18 623V664H377V623L300 605V59L377 41V0H18V41ZM391 865V851L221 716H164L243 865H391Z" />
<glyph unicode="&#xce;" glyph-name="Icircumflex" horiz-adv-x="395" d="M18 41L95 59V605L18 623V664H377V623L300 605V59L377 41V0H18V41ZM51 716L144 865H251L349 716H294L196 792L100 716H51Z" />
<glyph unicode="&#xcf;" glyph-name="Idieresis" horiz-adv-x="395" d="M84 708Q49 708 25 732T0 791Q0 825 24 850T84 875Q118 875 143 850T168 791Q168 756 143 732T84 708ZM310 708Q276 708 252 732T228 791Q228 825 252 850T310 875Q327 875 342 868T369 850T388
823T395 791Q395 756 370 732T310 708ZM18 41L95 59V605L18 623V664H377V623L300 605V59L377 41V0H18V41Z" />
<glyph unicode="&#xd0;" glyph-name="Eth" horiz-adv-x="794" d="M18 41L95 59V318H20V368H95V605L18 623V664H372Q464 664 537 641T662 575T741 474T769 345Q769 283 745 222T667 111T529 31T326 0H18V41ZM297 318V71Q309 60 330 51T381 41Q412 41 441 59T494
111T532 195T547 308Q547 383 529 441T477 541T398 605T297 632V368H418V318H297Z" />
<glyph unicode="&#xd1;" glyph-name="Ntilde" horiz-adv-x="738" d="M366 772Q335 779 314 782T278 782T251 769T229 740L205 750L211 767Q226 810 242 837T280 878T329 891T396 882L441 870Q465 864 484 862T521 864T553 879T582 911L606 901L597 878Q579 831
562 803T525 762T477 749T412 760L366 772ZM570 -13L155 479L162 61L273 41V0H22V41L99 58V553Q82 574 64 592T20 618L1 624V664H264L601 266L595 596L487 624V664H734V624L657 603V67L659 3L570 -13Z" />
<glyph unicode="&#xd2;" glyph-name="Ograve" horiz-adv-x="809" d="M358 865L437 716H380L210 851V865H358ZM419 33Q448 33 472 49T515 98T543 184T554 311Q554 376 543 435T511 540T458 612T387 639Q360 639 336 623T294 573T266 486T255 359Q255 284 268 224T304
121T357 56T419 33ZM406 684Q478 684 546 663T666 598T751 491T783 341Q783 261 751 196T664 85T541 14T400 -12Q325 -12 257 11T138 78T56 186T26 331Q26 407 58 471T142 583T263 657T406 684Z" />
<glyph unicode="&#xd3;" glyph-name="Oacute" horiz-adv-x="809" d="M598 865V851L428 716H371L450 865H598ZM419 33Q448 33 472 49T515 98T543 184T554 311Q554 376 543 435T511 540T458 612T387 639Q360 639 336 623T294 573T266 486T255 359Q255 284 268 224T304
121T357 56T419 33ZM406 684Q478 684 546 663T666 598T751 491T783 341Q783 261 751 196T664 85T541 14T400 -12Q325 -12 257 11T138 78T56 186T26 331Q26 407 58 471T142 583T263 657T406 684Z" />
<glyph unicode="&#xd4;" glyph-name="Ocircumflex" horiz-adv-x="809" d="M258 716L351 865H458L556 716H501L403 788L307 716H258ZM419 33Q448 33 472 49T515 98T543 184T554 311Q554 376 543 435T511 540T458 612T387 639Q360 639 336 623T294 573T266 486T255
359Q255 284 268 224T304 121T357 56T419 33ZM406 684Q478 684 546 663T666 598T751 491T783 341Q783 261 751 196T664 85T541 14T400 -12Q325 -12 257 11T138 78T56 186T26 331Q26 407 58 471T142 583T263 657T406 684Z" />
<glyph unicode="&#xd5;" glyph-name="Otilde" horiz-adv-x="809" d="M377 772Q346 779 325 782T289 782T262 769T240 740L216 750L222 767Q237 810 253 837T291 878T340 891T407 882L452 870Q476 864 495 862T532 864T564 879T593 911L617 901L608 878Q590 831
573 803T536 762T488 749T423 760L377 772ZM419 33Q448 33 472 49T515 98T543 184T554 311Q554 376 543 435T511 540T458 612T387 639Q360 639 336 623T294 573T266 486T255 359Q255 284 268 224T304 121T357 56T419 33ZM406 684Q478 684 546 663T666 598T751 491T783
341Q783 261 751 196T664 85T541 14T400 -12Q325 -12 257 11T138 78T56 186T26 331Q26 407 58 471T142 583T263 657T406 684Z" />
<glyph unicode="&#xd6;" glyph-name="Odieresis" horiz-adv-x="809" d="M276 713Q241 713 217 737T192 796Q192 830 216 855T276 880Q310 880 335 855T360 796Q360 761 335 737T276 713ZM532 713Q498 713 474 737T450 796Q450 830 474 855T532 880Q549 880 564
873T591 855T610 828T617 796Q617 761 592 737T532 713ZM419 33Q448 33 472 49T515 98T543 184T554 311Q554 376 543 435T511 540T458 612T387 639Q360 639 336 623T294 573T266 486T255 359Q255 284 268 224T304 121T357 56T419 33ZM406 684Q478 684 546 663T666
598T751 491T783 341Q783 261 751 196T664 85T541 14T400 -12Q325 -12 257 11T138 78T56 186T26 331Q26 407 58 471T142 583T263 657T406 684Z" />
<glyph unicode="&#xd7;" glyph-name="multiply" horiz-adv-x="568" d="M283 212L97 24L59 61L247 249L63 432L104 473L287 289L468 475L504 437L323 253L509 66L469 24L283 212Z" />
<glyph unicode="&#xd8;" glyph-name="Oslash" horiz-adv-x="809" d="M132 83Q83 127 55 189T26 331Q26 407 58 471T142 583T263 657T406 684Q470 684 530 667T642 616L706 683H762L674 591Q724 547 753 485T783 341Q783 261 751 196T664 85T541 14T400 -12Q334
-12 274 5T165 57L81 -31H24L132 83ZM419 33Q447 33 471 49T514 98T542 184T552 311Q552 383 538 448L282 180Q304 110 340 72T419 33ZM257 359Q257 322 260 289T270 226L526 495Q506 559 471 599T387 639Q360 639 337 623T295 573T267 486T257 359Z" />
<glyph unicode="&#xd9;" glyph-name="Ugrave" horiz-adv-x="739" d="M374 865L453 716H396L226 851V865H374ZM370 -15Q310 -15 258 -1T166 44T105 126T82 250V605L5 623V664H387V623L289 605V252Q289 204 301 170T335 115T383 83T440 73Q471 73 499 83T548 114T582
169T595 250L593 603L494 623V664H734V623L658 603V277Q658 210 641 156T589 64T499 6T370 -15Z" />
<glyph unicode="&#xda;" glyph-name="Uacute" horiz-adv-x="739" d="M614 865V851L444 716H387L466 865H614ZM370 -15Q310 -15 258 -1T166 44T105 126T82 250V605L5 623V664H387V623L289 605V252Q289 204 301 170T335 115T383 83T440 73Q471 73 499 83T548 114T582
169T595 250L593 603L494 623V664H734V623L658 603V277Q658 210 641 156T589 64T499 6T370 -15Z" />
<glyph unicode="&#xdb;" glyph-name="Ucircumflex" horiz-adv-x="739" d="M274 716L367 865H474L572 716H517L419 788L323 716H274ZM370 -15Q310 -15 258 -1T166 44T105 126T82 250V605L5 623V664H387V623L289 605V252Q289 204 301 170T335 115T383 83T440 73Q471
73 499 83T548 114T582 169T595 250L593 603L494 623V664H734V623L658 603V277Q658 210 641 156T589 64T499 6T370 -15Z" />
<glyph unicode="&#xdc;" glyph-name="Udieresis" horiz-adv-x="739" d="M370 -15Q310 -15 258 -1T166 44T105 126T82 250V605L5 623V664H387V623L289 605V252Q289 204 301 170T335 115T383 83T440 73Q471 73 499 83T548 114T582 169T595 250L593 603L494 623V664H734V623L658
603V277Q658 210 641 156T589 64T499 6T370 -15ZM292 713Q257 713 233 737T208 796Q208 830 232 855T292 880Q326 880 351 855T376 796Q376 761 351 737T292 713ZM548 713Q514 713 490 737T466 796Q466 830 490 855T548 880Q565 880 580 873T607 855T626 828T633
796Q633 761 608 737T548 713Z" />
<glyph unicode="&#xdd;" glyph-name="Yacute" horiz-adv-x="686" d="M451 280V59L530 40V0H168V40L247 59V258L61 605L-1 623V664H378V623L280 605L421 317L564 603L461 623V664H687V623L622 603L451 280ZM605 865V851L435 716H378L457 865H605Z" />
<glyph unicode="&#xde;" glyph-name="Thorn" horiz-adv-x="671" d="M18 41L95 59V605L18 623V664H377V623L300 605V516H365Q440 516 494 503T583 466T634 412T651 346Q651 294 623 258T549 198T449 164T340 155V185Q362 192 383 205T419 235T444 276T454 327Q454
355 444 381T413 427T365 460T300 476V59L377 41V0H18V41Z" />
<glyph unicode="&#xdf;" glyph-name="germandbls" horiz-adv-x="728" d="M12 39L74 52V443H1V482L75 507Q84 558 113 603T187 681T290 735T414 755Q517 755 577 718T638 614Q638 587 628 567T602 530T566 499T524 473Q489 453 475 442T461 416Q461 400 472 392T516
370L587 340Q651 313 678 277T706 190Q706 146 687 109T635 44T554 2T451 -14Q409 -14 377 -6T319 15L318 168H347L396 58Q404 50 419 41T458 31Q478 31 492 37T516 54T530 78T535 105Q535 135 518 155T462 193L414 214Q334 249 334 322Q334 344 341 362T361 396T388
429T417 464Q439 492 457 525T476 604Q477 649 452 678T385 708Q361 708 340 699T303 668T277 612T267 527V0H12V39Z" />
<glyph unicode="&#xe0;" glyph-name="agrave" horiz-adv-x="556" d="M161 -15Q129 -15 104 -5T60 24T33 66T23 116Q23 147 33 170T65 210T121 241T204 266L298 288V376Q296 393 292 409T278 437T256 457T224 465Q208 465 198 460L196 332Q183 326 161 322T114
318Q80 318 60 333T39 382Q39 407 60 432T118 477T203 509T303 521Q345 521 379 513T437 484T475 432T488 354V107Q488 77 498 71T529 65H559V36Q533 22 507 11Q484 2 457 -5T404 -13Q362 -13 336 4T305 69H301Q292 55 280 40T250 13T211 -7T161 -15ZM264 82Q283
82 298 93V249H297Q245 234 223 208T201 152Q201 118 219 100T264 82ZM246 775L299 582H258L107 768V775H246Z" />
<glyph unicode="&#xe1;" glyph-name="aacute" horiz-adv-x="556" d="M161 -15Q129 -15 104 -5T60 24T33 66T23 116Q23 147 33 170T65 210T121 241T204 266L298 288V376Q296 393 292 409T278 437T256 457T224 465Q208 465 198 460L196 332Q183 326 161 322T114
318Q80 318 60 333T39 382Q39 407 60 432T118 477T203 509T303 521Q345 521 379 513T437 484T475 432T488 354V107Q488 77 498 71T529 65H559V36Q533 22 507 11Q484 2 457 -5T404 -13Q362 -13 336 4T305 69H301Q292 55 280 40T250 13T211 -7T161 -15ZM264 82Q283
82 298 93V249H297Q245 234 223 208T201 152Q201 118 219 100T264 82ZM448 775V768L297 582H256L309 775H448Z" />
<glyph unicode="&#xe2;" glyph-name="acircumflex" horiz-adv-x="556" d="M161 -15Q129 -15 104 -5T60 24T33 66T23 116Q23 147 33 170T65 210T121 241T204 266L298 288V376Q296 393 292 409T278 437T256 457T224 465Q208 465 198 460L196 332Q183 326 161 322T114
318Q80 318 60 333T39 382Q39 407 60 432T118 477T203 509T303 521Q345 521 379 513T437 484T475 432T488 354V107Q488 77 498 71T529 65H559V36Q533 22 507 11Q484 2 457 -5T404 -13Q362 -13 336 4T305 69H301Q292 55 280 40T250 13T211 -7T161 -15ZM264 82Q283
82 298 93V249H297Q245 234 223 208T201 152Q201 118 219 100T264 82ZM144 582L239 775H326L420 582H375L279 683L189 582H144Z" />
<glyph unicode="&#xe3;" glyph-name="atilde" horiz-adv-x="556" d="M161 -15Q129 -15 104 -5T60 24T33 66T23 116Q23 147 33 170T65 210T121 241T204 266L298 288V376Q296 393 292 409T278 437T256 457T224 465Q208 465 198 460L196 332Q183 326 161 322T114
318Q80 318 60 333T39 382Q39 407 60 432T118 477T203 509T303 521Q345 521 379 513T437 484T475 432T488 354V107Q488 77 498 71T529 65H559V36Q533 22 507 11Q484 2 457 -5T404 -13Q362 -13 336 4T305 69H301Q292 55 280 40T250 13T211 -7T161 -15ZM264 82Q283
82 298 93V249H297Q245 234 223 208T201 152Q201 118 219 100T264 82ZM246 612Q216 622 196 624T160 623T134 607T113 577L89 587L95 604Q110 647 127 675T167 718T218 732T285 719L329 704Q375 689 406 697T466 748L490 738L481 715Q463 668 445 639T405 596T356
583T291 597L246 612Z" />
<glyph unicode="&#xe4;" glyph-name="adieresis" horiz-adv-x="556" d="M161 -15Q129 -15 104 -5T60 24T33 66T23 116Q23 147 33 170T65 210T121 241T204 266L298 288V376Q296 393 292 409T278 437T256 457T224 465Q208 465 198 460L196 332Q183 326 161 322T114
318Q80 318 60 333T39 382Q39 407 60 432T118 477T203 509T303 521Q345 521 379 513T437 484T475 432T488 354V107Q488 77 498 71T529 65H559V36Q533 22 507 11Q484 2 457 -5T404 -13Q362 -13 336 4T305 69H301Q292 55 280 40T250 13T211 -7T161 -15ZM264 82Q283
82 298 93V249H297Q245 234 223 208T201 152Q201 118 219 100T264 82ZM169 576Q134 576 110 600T85 659Q85 693 109 718T169 743Q203 743 228 718T253 659Q253 624 228 600T169 576ZM388 576Q354 576 330 600T306 659Q306 693 330 718T388 743Q405 743 420 736T447
718T466 691T473 659Q473 624 448 600T388 576Z" />
<glyph unicode="&#xe5;" glyph-name="aring" horiz-adv-x="556" d="M161 -15Q129 -15 104 -5T60 24T33 66T23 116Q23 147 33 170T65 210T121 241T204 266L298 288V376Q296 393 292 409T278 437T256 457T224 465Q208 465 198 460L196 332Q183 326 161 322T114 318Q80
318 60 333T39 382Q39 407 60 432T118 477T203 509T303 521Q345 521 379 513T437 484T475 432T488 354V107Q488 77 498 71T529 65H559V36Q533 22 507 11Q484 2 457 -5T404 -13Q362 -13 336 4T305 69H301Q292 55 280 40T250 13T211 -7T161 -15ZM264 82Q283 82 298
93V249H297Q245 234 223 208T201 152Q201 118 219 100T264 82ZM167 669Q167 691 175 710T199 744T234 767T280 776Q331 776 361 746T391 671Q391 627 360 596T278 564Q227 564 197 594T167 669ZM214 671Q214 641 233 621T280 601Q307 601 325 620T344 669Q344 699
325 719T278 739Q251 739 233 720T214 671Z" />
<glyph unicode="&#xe6;" glyph-name="ae" horiz-adv-x="810" d="M161 -15Q129 -15 104 -5T60 24T33 66T23 116Q23 147 33 171T69 213T136 247T242 274L299 285V358Q299 403 281 434T222 465Q207 465 199 460L196 332Q181 326 159 322T113 318Q79 318 59 334T39
382Q39 406 60 431T117 476T200 508T299 521Q351 521 381 506T428 469Q451 488 486 504T561 521Q657 521 709 463T774 301L472 271V252Q480 219 498 193T540 150T593 123T652 113Q688 113 713 121T766 143L781 121Q760 93 735 69T679 26T615 -2T541 -13Q481 -13
433 11T351 81Q330 64 310 47T266 16T218 -6T161 -15ZM472 312L590 324Q588 355 583 383T568 431T547 464T520 476Q509 476 500 470T485 448T476 403T472 328V312ZM263 82Q280 82 296 92T324 129Q299 184 299 248Q248 237 225 209T201 152Q201 118 219 100T263
82Z" />
<glyph unicode="&#xe7;" glyph-name="ccedilla" horiz-adv-x="521" d="M130 -219Q177 -203 204 -184T231 -138Q231 -119 218 -107T183 -88L238 -10Q187 -4 147 18T80 75T38 154T23 249Q23 312 46 362T107 447T196 502T302 521Q344 521 378 510T438 481T477 439T491
388Q491 350 465 332T399 313Q382 313 368 316T346 323L317 464Q300 482 274 482Q239 482 219 445T198 351Q198 290 213 246T253 172T311 129T382 115Q404 115 424 119T460 129Q478 135 494 144L506 123Q482 85 454 60T397 18T337 -6T277 -13H272L253 -40Q295 -44
326 -62T358 -118Q358 -163 304 -196T138 -247L130 -219Z" />
<glyph unicode="&#xe8;" glyph-name="egrave" horiz-adv-x="543" d="M272 -13Q217 -13 171 7T92 62T41 146T23 252Q23 310 46 359T107 445T192 501T287 521Q341 521 380 505T445 460T486 388T508 294H190Q194 248 212 214T257 158T316 124T381 113Q417 113 444
121T499 143L514 121Q493 93 467 69T411 26T346 -2T272 -13ZM252 476Q228 476 210 444T189 334H322Q319 394 301 435T252 476ZM252 775L305 582H264L113 768V775H252Z" />
<glyph unicode="&#xe9;" glyph-name="eacute" horiz-adv-x="543" d="M439 775V768L288 582H247L300 775H439ZM272 -13Q217 -13 171 7T92 62T41 146T23 252Q23 310 46 359T107 445T192 501T287 521Q341 521 380 505T445 460T486 388T508 294H190Q194 248 212 214T257
158T316 124T381 113Q417 113 444 121T499 143L514 121Q493 93 467 69T411 26T346 -2T272 -13ZM252 476Q228 476 210 444T189 334H322Q319 394 301 435T252 476Z" />
<glyph unicode="&#xea;" glyph-name="ecircumflex" horiz-adv-x="543" d="M140 582L235 775H322L416 582H371L275 683L185 582H140ZM272 -13Q217 -13 171 7T92 62T41 146T23 252Q23 310 46 359T107 445T192 501T287 521Q341 521 380 505T445 460T486 388T508 294H190Q194
248 212 214T257 158T316 124T381 113Q417 113 444 121T499 143L514 121Q493 93 467 69T411 26T346 -2T272 -13ZM252 476Q228 476 210 444T189 334H322Q319 394 301 435T252 476Z" />
<glyph unicode="&#xeb;" glyph-name="edieresis" horiz-adv-x="543" d="M173 576Q138 576 114 600T89 659Q89 693 113 718T173 743Q207 743 232 718T257 659Q257 624 232 600T173 576ZM392 576Q358 576 334 600T310 659Q310 693 334 718T392 743Q409 743 424 736T451
718T470 691T477 659Q477 624 452 600T392 576ZM272 -13Q217 -13 171 7T92 62T41 146T23 252Q23 310 46 359T107 445T192 501T287 521Q341 521 380 505T445 460T486 388T508 294H190Q194 248 212 214T257 158T316 124T381 113Q417 113 444 121T499 143L514 121Q493
93 467 69T411 26T346 -2T272 -13ZM252 476Q228 476 210 444T189 334H322Q319 394 301 435T252 476Z" />
<glyph unicode="&#xec;" glyph-name="igrave" horiz-adv-x="345" d="M13 39L77 52V399L14 450V470L273 521V52L336 39V0H13V39ZM396 775L449 582H408L257 768V775H396Z" />
<glyph unicode="&#xed;" glyph-name="iacute" horiz-adv-x="345" d="M341 775V768L190 582H149L202 775H341ZM13 39L77 52V399L14 450V470L273 521V52L336 39V0H13V39Z" />
<glyph unicode="&#xee;" glyph-name="icircumflex" horiz-adv-x="345" d="M13 39L77 52V399L14 450V470L273 521V52L336 39V0H13V39ZM37 582L132 775H219L313 582H268L172 683L82 582H37Z" />
<glyph unicode="&#xef;" glyph-name="idieresis" horiz-adv-x="345" d="M67 576Q32 576 8 600T-17 659Q-17 693 7 718T67 743Q101 743 126 718T151 659Q151 624 126 600T67 576ZM276 576Q242 576 218 600T194 659Q194 693 218 718T276 743Q293 743 308 736T335
718T354 691T361 659Q361 624 336 600T276 576ZM13 39L77 52V399L14 450V470L273 521V52L336 39V0H13V39Z" />
<glyph unicode="&#xf0;" glyph-name="eth" horiz-adv-x="634" d="M59 575L206 636Q153 682 82 727L98 756Q161 741 214 722T312 680L464 743L479 706L357 655Q424 615 471 568T549 472T593 372T607 276Q607 204 585 149T523 57T430 1T314 -18Q245 -18 192 3T102
61T46 144T27 243Q27 304 52 352T118 433T206 484T299 502H321Q287 557 237 606L75 539L59 575ZM398 189Q398 238 394 281T378 366Q364 407 345 435T297 463Q277 463 265 449T246 413T237 365T234 317Q234 261 241 208T262 113T293 46T335 21Q398 21 398 189Z"
/>
<glyph unicode="&#xf1;" glyph-name="ntilde" horiz-adv-x="660" d="M12 39L74 52V399L14 443V464L240 523H245L256 429H258Q271 442 290 458T332 488T382 511T440 521Q508 521 549 483T590 371V52L652 39V0H346V40L395 52V320Q395 362 374 387T316 411Q287 410
269 399V52L316 39V0H12V39ZM295 612Q265 622 245 624T209 623T183 607T162 577L138 587L144 604Q159 647 176 675T216 718T267 732T334 719L378 704Q424 689 455 697T515 748L539 738L530 715Q512 668 494 639T454 596T405 583T340 597L295 612Z" />
<glyph unicode="&#xf2;" glyph-name="ograve" horiz-adv-x="630" d="M296 481Q275 481 262 465T241 423T232 370T229 316Q229 257 237 205T258 112T291 48T333 24Q367 24 383 68T399 197Q399 252 392 303T372 394T339 457T296 481ZM315 -15Q244 -15 190 6T100
64T44 147T25 247Q25 307 47 357T109 443T201 500T315 520Q378 520 431 501T523 447T583 364T605 260Q605 199 583 149T522 62T430 5T315 -15ZM282 775L335 582H294L143 768V775H282Z" />
<glyph unicode="&#xf3;" glyph-name="oacute" horiz-adv-x="630" d="M484 775V768L333 582H292L345 775H484ZM296 481Q275 481 262 465T241 423T232 370T229 316Q229 257 237 205T258 112T291 48T333 24Q367 24 383 68T399 197Q399 252 392 303T372 394T339 457T296
481ZM315 -15Q244 -15 190 6T100 64T44 147T25 247Q25 307 47 357T109 443T201 500T315 520Q378 520 431 501T523 447T583 364T605 260Q605 199 583 149T522 62T430 5T315 -15Z" />
<glyph unicode="&#xf4;" glyph-name="ocircumflex" horiz-adv-x="630" d="M180 582L275 775H362L456 582H411L315 683L225 582H180ZM296 481Q275 481 262 465T241 423T232 370T229 316Q229 257 237 205T258 112T291 48T333 24Q367 24 383 68T399 197Q399 252 392
303T372 394T339 457T296 481ZM315 -15Q244 -15 190 6T100 64T44 147T25 247Q25 307 47 357T109 443T201 500T315 520Q378 520 431 501T523 447T583 364T605 260Q605 199 583 149T522 62T430 5T315 -15Z" />
<glyph unicode="&#xf5;" glyph-name="otilde" horiz-adv-x="630" d="M296 481Q275 481 262 465T241 423T232 370T229 316Q229 257 237 205T258 112T291 48T333 24Q367 24 383 68T399 197Q399 252 392 303T372 394T339 457T296 481ZM315 -15Q244 -15 190 6T100
64T44 147T25 247Q25 307 47 357T109 443T201 500T315 520Q378 520 431 501T523 447T583 364T605 260Q605 199 583 149T522 62T430 5T315 -15ZM282 612Q252 622 232 624T196 623T170 607T149 577L125 587L131 604Q146 647 163 675T203 718T254 732T321 719L365
704Q411 689 442 697T502 748L526 738L517 715Q499 668 481 639T441 596T392 583T327 597L282 612Z" />
<glyph unicode="&#xf6;" glyph-name="odieresis" horiz-adv-x="630" d="M205 576Q170 576 146 600T121 659Q121 693 145 718T205 743Q239 743 264 718T289 659Q289 624 264 600T205 576ZM424 576Q390 576 366 600T342 659Q342 693 366 718T424 743Q441 743 456
736T483 718T502 691T509 659Q509 624 484 600T424 576ZM296 481Q275 481 262 465T241 423T232 370T229 316Q229 257 237 205T258 112T291 48T333 24Q367 24 383 68T399 197Q399 252 392 303T372 394T339 457T296 481ZM315 -15Q244 -15 190 6T100 64T44 147T25
247Q25 307 47 357T109 443T201 500T315 520Q378 520 431 501T523 447T583 364T605 260Q605 199 583 149T522 62T430 5T315 -15Z" />
<glyph unicode="&#xf7;" glyph-name="divide" horiz-adv-x="568" d="M47 227V277H521V227H47ZM284 327Q254 327 233 349T211 402Q211 431 232 453T284 475Q299 475 312 469T336 453T353 430T359 402Q359 371 337 349T284 327ZM284 28Q254 28 233 50T211 103Q211
132 232 154T284 176Q299 176 312 170T336 154T353 131T359 103Q359 72 337 50T284 28Z" />
<glyph unicode="&#xf8;" glyph-name="oslash" horiz-adv-x="630" d="M30 -48L116 49Q71 86 48 137T25 247Q25 307 47 357T109 443T201 500T315 520Q366 520 410 508T490 472L551 541H601L520 449Q560 414 582 366T605 260Q605 199 583 149T522 62T430 5T315 -15Q264
-15 222 -4T147 27L80 -48H30ZM295 481Q274 481 261 464T240 423T230 370T227 318Q227 283 229 250T238 187L384 352Q370 409 348 445T295 481ZM401 194Q401 223 399 251T393 306L248 142Q262 89 284 57T334 24Q367 24 384 68T401 194Z" />
<glyph unicode="&#xf9;" glyph-name="ugrave" horiz-adv-x="650" d="M386 66Q370 51 352 37T312 11T267 -8T214 -15Q188 -15 162 -9T114 14T79 60T65 136V411L5 444V468L260 515V175Q260 157 263 142T273 116T295 98T332 91Q347 91 359 94T383 103V417L324 449V474L578
519V69L640 57V24L398 -11L386 66ZM293 775L346 582H305L154 768V775H293Z" />
<glyph unicode="&#xfa;" glyph-name="uacute" horiz-adv-x="650" d="M495 775V768L344 582H303L356 775H495ZM386 66Q370 51 352 37T312 11T267 -8T214 -15Q188 -15 162 -9T114 14T79 60T65 136V411L5 444V468L260 515V175Q260 157 263 142T273 116T295 98T332
91Q347 91 359 94T383 103V417L324 449V474L578 519V69L640 57V24L398 -11L386 66Z" />
<glyph unicode="&#xfb;" glyph-name="ucircumflex" horiz-adv-x="650" d="M191 582L286 775H373L467 582H422L326 683L236 582H191ZM386 66Q370 51 352 37T312 11T267 -8T214 -15Q188 -15 162 -9T114 14T79 60T65 136V411L5 444V468L260 515V175Q260 157 263 142T273
116T295 98T332 91Q347 91 359 94T383 103V417L324 449V474L578 519V69L640 57V24L398 -11L386 66Z" />
<glyph unicode="&#xfc;" glyph-name="udieresis" horiz-adv-x="650" d="M216 576Q181 576 157 600T132 659Q132 693 156 718T216 743Q250 743 275 718T300 659Q300 624 275 600T216 576ZM435 576Q401 576 377 600T353 659Q353 693 377 718T435 743Q452 743 467
736T494 718T513 691T520 659Q520 624 495 600T435 576ZM386 66Q370 51 352 37T312 11T267 -8T214 -15Q188 -15 162 -9T114 14T79 60T65 136V411L5 444V468L260 515V175Q260 157 263 142T273 116T295 98T332 91Q347 91 359 94T383 103V417L324 449V474L578 519V69L640
57V24L398 -11L386 66Z" />
<glyph unicode="&#xfd;" glyph-name="yacute" horiz-adv-x="537" d="M385 467V505H542V467L499 457L259 -123Q238 -174 209 -203T134 -232Q97 -232 69 -206T40 -137Q40 -116 47 -99T68 -69T98 -50T134 -43Q164 -43 186 -57T219 -104H221L243 -50L33 458L-5 467V505H303V467L242
459L336 179L439 455L385 467ZM501 775V768L350 582H309L362 775H501Z" />
<glyph unicode="&#xfe;" glyph-name="thorn" horiz-adv-x="639" d="M305 -9Q279 -9 260 -1V-154L371 -172V-210H-9V-171L65 -158V609L5 651V672L260 746V443Q287 472 324 493T412 515Q449 515 485 501T551 459T598 389T616 290Q616 222 589 167T518 73T418 13T305
-9ZM289 422Q272 422 260 416V83Q269 63 285 47T328 31Q367 31 392 76T418 202Q418 256 407 297T376 365T334 407T289 422Z" />
<glyph unicode="&#xff;" glyph-name="ydieresis" horiz-adv-x="537" d="M385 467V505H542V467L499 457L259 -123Q238 -174 209 -203T134 -232Q97 -232 69 -206T40 -137Q40 -116 47 -99T68 -69T98 -50T134 -43Q164 -43 186 -57T219 -104H221L243 -50L33 458L-5
467V505H303V467L242 459L336 179L439 455L385 467ZM192 576Q157 576 133 600T108 659Q108 693 132 718T192 743Q226 743 251 718T276 659Q276 624 251 600T192 576ZM411 576Q377 576 353 600T329 659Q329 693 353 718T411 743Q428 743 443 736T470 718T489 691T496
659Q496 624 471 600T411 576Z" />
<glyph unicode="&#x100;" glyph-name="Amacron" horiz-adv-x="716" d="M-1 41L60 58L310 670L354 679L409 690L659 53L717 41V0H348V41L426 55L370 215H178L120 62L228 41V0H-1V41ZM198 268H351L278 478L198 268ZM205 830H511V750H205V830Z" />
<glyph unicode="&#x101;" glyph-name="amacron" horiz-adv-x="556" d="M161 -15Q129 -15 104 -5T60 24T33 66T23 116Q23 147 33 170T65 210T121 241T204 266L298 288V376Q296 393 292 409T278 437T256 457T224 465Q208 465 198 460L196 332Q183 326 161 322T114
318Q80 318 60 333T39 382Q39 407 60 432T118 477T203 509T303 521Q345 521 379 513T437 484T475 432T488 354V107Q488 77 498 71T529 65H559V36Q533 22 507 11Q484 2 457 -5T404 -13Q362 -13 336 4T305 69H301Q292 55 280 40T250 13T211 -7T161 -15ZM264 82Q283
82 298 93V249H297Q245 234 223 208T201 152Q201 118 219 100T264 82ZM126 700H432V620H126V700Z" />
<glyph unicode="&#x102;" glyph-name="Abreve" horiz-adv-x="716" d="M-1 41L60 58L310 670L354 679L409 690L659 53L717 41V0H348V41L426 55L370 215H178L120 62L228 41V0H-1V41ZM198 268H351L278 478L198 268ZM352 710Q317 710 292 723T249 757T222 807T213
865H259Q273 839 295 820T359 801Q403 801 424 820T460 865H503Q502 835 492 807T463 758T416 723T352 710Z" />
<glyph unicode="&#x103;" glyph-name="abreve" horiz-adv-x="556" d="M161 -15Q129 -15 104 -5T60 24T33 66T23 116Q23 147 33 170T65 210T121 241T204 266L298 288V376Q296 393 292 409T278 437T256 457T224 465Q208 465 198 460L196 332Q183 326 161 322T114
318Q80 318 60 333T39 382Q39 407 60 432T118 477T203 509T303 521Q345 521 379 513T437 484T475 432T488 354V107Q488 77 498 71T529 65H559V36Q533 22 507 11Q484 2 457 -5T404 -13Q362 -13 336 4T305 69H301Q292 55 280 40T250 13T211 -7T161 -15ZM264 82Q283
82 298 93V249H297Q245 234 223 208T201 152Q201 118 219 100T264 82ZM279 582Q247 582 221 592T176 626T147 685T136 775H170Q180 724 207 698T279 671Q327 671 353 697T391 775H423Q423 681 383 632T279 582Z" />
<glyph unicode="&#x104;" glyph-name="Aogonek" horiz-adv-x="716" d="M-1 41L60 58L310 670L354 679L409 690L659 53L717 41V0H491Q470 -10 457 -22T436 -45T425 -68T422 -87Q422 -111 435 -124T468 -138Q495 -138 523 -110L545 -126Q533 -149 520 -169T491 -205T452
-229T401 -238Q357 -238 330 -214T302 -147Q302 -131 307 -115T328 -80T371 -40T440 10L369 215H178L120 62L228 41V0H-1V41ZM198 268H350L278 478L198 268Z" />
<glyph unicode="&#x105;" glyph-name="aogonek" horiz-adv-x="556" d="M437 -11Q369 -16 341 3T306 70H301Q292 56 280 41T250 14T211 -7T161 -15Q129 -15 104 -5T60 24T33 66T23 116Q23 147 33 170T66 210T123 241T206 266L298 288V376Q296 393 292 409T278 437T256
457T224 465Q208 465 198 460L197 332Q183 326 161 322T114 318Q80 318 60 333T39 381Q39 406 60 431T118 476T203 508T303 521Q345 521 379 513T437 484T475 432T488 354V107Q488 77 498 71T529 65H559V39Q521 15 497 -3T459 -36T440 -64T434 -90Q434 -112 447
-125T480 -138Q507 -138 535 -110L557 -126Q545 -149 532 -169T503 -205T464 -229T413 -238Q369 -238 342 -213T314 -146Q314 -111 341 -80T437 -15V-11ZM264 82Q283 82 298 93V249H297Q245 233 223 207T201 152Q201 118 219 100T264 82Z" />
<glyph unicode="&#x106;" glyph-name="Cacute" horiz-adv-x="726" d="M441 -11Q336 -11 259 17T131 92T57 200T32 328Q32 403 65 468T155 581T289 656T455 684Q514 684 568 671T673 634V428H640L554 589Q525 618 497 631T436 644Q401 644 371 627T318 575T284
491T271 375Q271 295 285 232T326 125T389 58T467 34Q509 34 539 52L672 241H706L660 29Q598 8 549 -1T441 -11ZM631 865V851L461 716H404L483 865H631Z" />
<glyph unicode="&#x107;" glyph-name="cacute" horiz-adv-x="521" d="M454 775V768L303 582H262L315 775H454ZM277 -13Q217 -13 170 7T90 63T40 147T23 249Q23 312 46 362T107 447T196 502T302 521Q344 521 378 510T438 481T477 439T491 388Q491 350 465 332T399
313Q382 313 368 316T346 323L317 464Q300 482 274 482Q239 482 219 445T198 351Q198 290 213 246T253 172T311 129T382 115Q404 115 424 119T460 129Q478 135 494 144L506 123Q482 85 454 60T397 18T337 -6T277 -13Z" />
<glyph unicode="&#x108;" glyph-name="Ccircumflex" horiz-adv-x="726" d="M291 716L384 865H491L589 716H534L436 788L340 716H291ZM441 -11Q336 -11 259 17T131 92T57 200T32 328Q32 403 65 468T155 581T289 656T455 684Q514 684 568 671T673 634V428H640L554
589Q525 618 497 631T436 644Q401 644 371 627T318 575T284 491T271 375Q271 295 285 232T326 125T389 58T467 34Q509 34 539 52L672 241H706L660 29Q598 8 549 -1T441 -11Z" />
<glyph unicode="&#x109;" glyph-name="ccircumflex" horiz-adv-x="521" d="M150 582L245 775H332L426 582H381L285 683L195 582H150ZM277 -13Q217 -13 170 7T90 63T40 147T23 249Q23 312 46 362T107 447T196 502T302 521Q344 521 378 510T438 481T477 439T491
388Q491 350 465 332T399 313Q382 313 368 316T346 323L317 464Q300 482 274 482Q239 482 219 445T198 351Q198 290 213 246T253 172T311 129T382 115Q404 115 424 119T460 129Q478 135 494 144L506 123Q482 85 454 60T397 18T337 -6T277 -13Z" />
<glyph unicode="&#x10a;" glyph-name="Cdotaccent" horiz-adv-x="726" d="M441 -11Q336 -11 259 17T131 92T57 200T32 328Q32 403 65 468T155 581T289 656T455 684Q514 684 568 671T673 634V428H640L554 589Q525 618 497 631T436 644Q401 644 371 627T318 575T284
491T271 375Q271 295 285 232T326 125T389 58T467 34Q509 34 539 52L672 241H706L660 29Q598 8 549 -1T441 -11ZM436 713Q398 713 372 739T345 805Q345 824 352 841T371 870T400 890T436 898Q455 898 472 891T502 871T522 841T530 805Q530 766 503 740T436 713Z"
/>
<glyph unicode="&#x10b;" glyph-name="cdotaccent" horiz-adv-x="521" d="M277 -13Q217 -13 170 7T90 63T40 147T23 249Q23 312 46 362T107 447T196 502T302 521Q344 521 378 510T438 481T477 439T491 388Q491 350 465 332T399 313Q382 313 368 316T346 323L317
464Q300 482 274 482Q239 482 219 445T198 351Q198 290 213 246T253 172T311 129T382 115Q404 115 424 119T460 129Q478 135 494 144L506 123Q482 85 454 60T397 18T337 -6T277 -13ZM285 567Q247 567 221 593T194 659Q194 678 201 695T220 724T249 744T285 752Q304
752 321 745T351 725T371 695T379 659Q379 620 352 594T285 567Z" />
<glyph unicode="&#x10c;" glyph-name="Ccaron" horiz-adv-x="726" d="M580 865L487 716H380L282 865H337L435 790L531 865H580ZM441 -11Q336 -11 259 17T131 92T57 200T32 328Q32 403 65 468T155 581T289 656T455 684Q514 684 568 671T673 634V428H640L554 589Q525
618 497 631T436 644Q401 644 371 627T318 575T284 491T271 375Q271 295 285 232T326 125T389 58T467 34Q509 34 539 52L672 241H706L660 29Q598 8 549 -1T441 -11Z" />
<glyph unicode="&#x10d;" glyph-name="ccaron" horiz-adv-x="521" d="M423 775L328 582H241L147 775H192L288 674L378 775H423ZM277 -13Q217 -13 170 7T90 63T40 147T23 249Q23 312 46 362T107 447T196 502T302 521Q344 521 378 510T438 481T477 439T491 388Q491
350 465 332T399 313Q382 313 368 316T346 323L317 464Q300 482 274 482Q239 482 219 445T198 351Q198 290 213 246T253 172T311 129T382 115Q404 115 424 119T460 129Q478 135 494 144L506 123Q482 85 454 60T397 18T337 -6T277 -13Z" />
<glyph unicode="&#x10e;" glyph-name="Dcaron" horiz-adv-x="794" d="M514 865L421 716H314L216 865H271L369 790L465 865H514ZM297 71Q309 60 330 51T381 41Q412 41 441 59T494 111T532 195T547 308Q547 383 529 441T477 541T398 605T297 632V71ZM18 41L95 59V605L18
623V664H372Q464 664 537 641T662 575T741 474T769 345Q769 283 745 222T667 111T529 31T326 0H18V41Z" />
<glyph unicode="&#x10f;" glyph-name="dcaron" horiz-adv-x="636" d="M607 519L630 730H762V722L639 519H607ZM291 687L568 749V70L621 56V23L394 -12L379 52Q354 23 318 4T228 -15Q185 -15 148 2T83 51T39 128T23 231Q23 294 48 345T116 433T217 489T343 509H373V627L291
668V687ZM345 78Q361 78 373 84V412Q353 447 336 460T298 474Q283 474 269 465T243 437T224 386T217 308Q217 252 228 210T258 138T299 93T345 78Z" />
<glyph unicode="&#x110;" glyph-name="Dcroat" horiz-adv-x="794" d="M18 41L95 59V318H20V368H95V605L18 623V664H372Q464 664 537 641T662 575T741 474T769 345Q769 283 745 222T667 111T529 31T326 0H18V41ZM297 318V71Q309 60 330 51T381 41Q412 41 441 59T494
111T532 195T547 308Q547 383 529 441T477 541T398 605T297 632V368H418V318H297Z" />
<glyph unicode="&#x111;" glyph-name="dcroat" horiz-adv-x="636" d="M291 687L568 749V609H623V568H568V70L621 56V23L394 -12L379 51Q354 22 318 4T228 -15Q185 -15 148 2T83 51T39 128T23 231Q23 294 46 345T111 433T212 489T343 509H373V568H219V609H373V641L291
668V687ZM343 79Q357 79 373 86V421Q356 451 340 462T303 474Q288 474 273 466T246 438T227 389T219 317Q219 260 230 216T260 141T300 95T343 79Z" />
<glyph unicode="&#x112;" glyph-name="Emacron" horiz-adv-x="651" d="M300 316V71Q328 41 379 41H475L591 246H629L592 0H18V41L95 59V605L18 623V664H608V455H570L498 622H300V366H390L424 484H463V204H424L390 316H300ZM177 830H483V750H177V830Z" />
<glyph unicode="&#x113;" glyph-name="emacron" horiz-adv-x="543" d="M272 -13Q217 -13 171 7T92 62T41 146T23 252Q23 310 46 359T107 445T192 501T287 521Q341 521 380 505T445 460T486 388T508 294H190Q194 248 212 214T257 158T316 124T381 113Q417 113 444
121T499 143L514 121Q493 93 467 69T411 26T346 -2T272 -13ZM252 476Q228 476 210 444T189 334H322Q319 394 301 435T252 476ZM117 700H423V620H117V700Z" />
<glyph unicode="&#x114;" glyph-name="Ebreve" horiz-adv-x="651" d="M300 316V71Q328 41 379 41H475L591 246H629L592 0H18V41L95 59V605L18 623V664H608V455H570L498 622H300V366H390L424 484H463V204H424L390 316H300ZM343 710Q308 710 283 723T240 757T213
807T204 865H250Q264 839 286 820T350 801Q394 801 415 820T451 865H494Q493 835 483 807T454 758T407 723T343 710Z" />
<glyph unicode="&#x115;" glyph-name="ebreve" horiz-adv-x="543" d="M272 -13Q217 -13 171 7T92 62T41 146T23 252Q23 310 46 359T107 445T192 501T287 521Q341 521 380 505T445 460T486 388T508 294H190Q194 248 212 214T257 158T316 124T381 113Q417 113 444
121T499 143L514 121Q493 93 467 69T411 26T346 -2T272 -13ZM252 476Q228 476 210 444T189 334H322Q319 394 301 435T252 476ZM286 582Q254 582 228 592T183 626T154 685T143 775H177Q187 724 214 698T286 671Q334 671 360 697T398 775H430Q430 681 390 632T286
582Z" />
<glyph unicode="&#x116;" glyph-name="Edotaccent" horiz-adv-x="651" d="M348 713Q310 713 284 739T257 805Q257 824 264 841T283 870T312 890T348 898Q367 898 384 891T414 871T434 841T442 805Q442 766 415 740T348 713ZM300 316V71Q328 41 379 41H475L591
246H629L592 0H18V41L95 59V605L18 623V664H608V455H570L498 622H300V366H390L424 484H463V204H424L390 316H300Z" />
<glyph unicode="&#x117;" glyph-name="edotaccent" horiz-adv-x="543" d="M272 -13Q217 -13 171 7T92 62T41 146T23 252Q23 310 46 359T107 445T192 501T287 521Q341 521 380 505T445 460T486 388T508 294H190Q194 248 212 214T257 158T316 124T381 113Q417 113
444 121T499 143L514 121Q493 93 467 69T411 26T346 -2T272 -13ZM252 476Q228 476 210 444T189 334H322Q319 394 301 435T252 476ZM285 567Q247 567 221 593T194 659Q194 678 201 695T220 724T249 744T285 752Q304 752 321 745T351 725T371 695T379 659Q379 620
352 594T285 567Z" />
<glyph unicode="&#x118;" glyph-name="Eogonek" horiz-adv-x="651" d="M300 316V71Q328 41 379 41H475L591 246H629L592 0H488Q474 -20 466 -35T454 -60T449 -78T448 -90Q448 -112 461 -125T494 -138Q521 -138 549 -110L571 -126Q559 -149 546 -169T517 -205T478
-229T427 -238Q383 -238 356 -214T328 -147Q328 -131 333 -115T353 -82T391 -44T454 0H18V41L95 59V605L18 623V664H608V455H570L498 622H300V366H390L424 484H463V204H424L390 316H300Z" />
<glyph unicode="&#x119;" glyph-name="eogonek" horiz-adv-x="543" d="M272 -13Q217 -13 171 7T92 62T41 146T23 252Q23 310 46 359T107 445T192 501T287 521Q341 521 380 505T445 460T486 388T508 294H190Q194 248 212 214T257 158T316 124T381 113Q417 113 444
121T499 143L514 121Q487 85 452 56Q448 52 446 51Q416 26 398 4T370 -36T356 -67T352 -89Q352 -112 365 -125T398 -138Q425 -138 453 -110L475 -126Q463 -149 450 -169T421 -205T382 -229T331 -238Q287 -238 260 -214T232 -147Q232 -131 237 -115T257 -82T297
-44T363 1V3Q342 -5 319 -9T272 -13ZM252 476Q228 476 210 444T189 334H322Q319 394 301 435T252 476Z" />
<glyph unicode="&#x11a;" glyph-name="Ecaron" horiz-adv-x="651" d="M492 865L399 716H292L194 865H249L347 790L443 865H492ZM300 316V71Q328 41 379 41H475L591 246H629L592 0H18V41L95 59V605L18 623V664H608V455H570L498 622H300V366H390L424 484H463V204H424L390
316H300Z" />
<glyph unicode="&#x11b;" glyph-name="ecaron" horiz-adv-x="543" d="M420 775L325 582H238L144 775H189L285 674L375 775H420ZM272 -13Q217 -13 171 7T92 62T41 146T23 252Q23 310 46 359T107 445T192 501T287 521Q341 521 380 505T445 460T486 388T508 294H190Q194
248 212 214T257 158T316 124T381 113Q417 113 444 121T499 143L514 121Q493 93 467 69T411 26T346 -2T272 -13ZM252 476Q228 476 210 444T189 334H322Q319 394 301 435T252 476Z" />
<glyph unicode="&#x11c;" glyph-name="Gcircumflex" horiz-adv-x="804" d="M302 716L395 865H502L600 716H545L447 788L351 716H302ZM444 -12Q331 -12 253 18T125 95T54 202T32 321Q32 405 67 472T163 587T302 659T468 684Q540 684 601 670T704 644L717 428H685L569
600Q534 626 507 634T453 643Q409 643 375 622T316 563T279 473T266 360Q266 279 282 218T326 117T391 56T471 35Q507 35 536 49V268L425 284V334H794V287L732 271V37L692 27Q670 21 641 15T580 2T512 -8T444 -12Z" />
<glyph unicode="&#x11d;" glyph-name="gcircumflex" horiz-adv-x="582" d="M140 582L235 775H322L416 582H371L275 683L185 582H140ZM464 447L461 442Q507 402 507 348Q507 315 492 286T448 234T377 198T279 185Q220 185 174 200Q162 188 162 174Q162 159 173
149T212 138L430 132Q499 130 532 96T566 6Q566 -45 538 -89T461 -167T351 -219T220 -238Q113 -238 63 -204T12 -120Q12 -82 35 -60T98 -22V-17Q63 -3 46 24T29 80Q29 116 52 146T133 215V218Q90 241 68 275T45 350Q45 389 63 420T114 474T187 508T276 520Q294
520 309 519T341 514T377 507T423 496L582 511V440L464 447ZM153 -36Q148 -44 145 -54T141 -77Q141 -102 153 -120T185 -151T233 -170T293 -176Q334 -176 363 -168T411 -147T438 -120T447 -93Q447 -76 437 -64T407 -47L153 -36ZM211 387Q212 355 218 326T236 274T262
239T294 226Q316 226 329 251T342 323Q342 356 335 385T317 435T290 468T258 481Q236 481 223 457T211 387Z" />
<glyph unicode="&#x11e;" glyph-name="Gbreve" horiz-adv-x="804" d="M449 710Q414 710 389 723T346 757T319 807T310 865H356Q370 839 392 820T456 801Q500 801 521 820T557 865H600Q599 835 589 807T560 758T513 723T449 710ZM444 -12Q331 -12 253 18T125 95T54
202T32 321Q32 405 67 472T163 587T302 659T468 684Q540 684 601 670T704 644L717 428H685L569 600Q534 626 507 634T453 643Q409 643 375 622T316 563T279 473T266 360Q266 279 282 218T326 117T391 56T471 35Q507 35 536 49V268L425 284V334H794V287L732 271V37L692
27Q670 21 641 15T580 2T512 -8T444 -12Z" />
<glyph unicode="&#x11f;" glyph-name="gbreve" horiz-adv-x="582" d="M464 447L461 442Q507 402 507 348Q507 315 492 286T448 234T377 198T279 185Q220 185 174 200Q162 188 162 174Q162 159 173 149T212 138L430 132Q499 130 532 96T566 6Q566 -45 538 -89T461
-167T351 -219T220 -238Q113 -238 63 -204T12 -120Q12 -82 35 -60T98 -22V-17Q63 -3 46 24T29 80Q29 116 52 146T133 215V218Q90 241 68 275T45 350Q45 389 63 420T114 474T187 508T276 520Q294 520 309 519T341 514T377 507T423 496L582 511V440L464 447ZM153
-36Q148 -44 145 -54T141 -77Q141 -102 153 -120T185 -151T233 -170T293 -176Q334 -176 363 -168T411 -147T438 -120T447 -93Q447 -76 437 -64T407 -47L153 -36ZM211 387Q212 355 218 326T236 274T262 239T294 226Q316 226 329 251T342 323Q342 356 335 385T317
435T290 468T258 481Q236 481 223 457T211 387ZM275 582Q243 582 217 592T172 626T143 685T132 775H166Q176 724 203 698T275 671Q323 671 349 697T387 775H419Q419 681 379 632T275 582Z" />
<glyph unicode="&#x120;" glyph-name="Gdotaccent" horiz-adv-x="804" d="M451 713Q413 713 387 739T360 805Q360 824 367 841T386 870T415 890T451 898Q470 898 487 891T517 871T537 841T545 805Q545 766 518 740T451 713ZM444 -12Q331 -12 253 18T125 95T54
202T32 321Q32 405 67 472T163 587T302 659T468 684Q540 684 601 670T704 644L717 428H685L569 600Q534 626 507 634T453 643Q409 643 375 622T316 563T279 473T266 360Q266 279 282 218T326 117T391 56T471 35Q507 35 536 49V268L425 284V334H794V287L732 271V37L692
27Q670 21 641 15T580 2T512 -8T444 -12Z" />
<glyph unicode="&#x121;" glyph-name="gdotaccent" horiz-adv-x="582" d="M464 447L461 442Q507 402 507 348Q507 315 492 286T448 234T377 198T279 185Q220 185 174 200Q162 188 162 174Q162 159 173 149T212 138L430 132Q499 130 532 96T566 6Q566 -45 538 -89T461
-167T351 -219T220 -238Q113 -238 63 -204T12 -120Q12 -82 35 -60T98 -22V-17Q63 -3 46 24T29 80Q29 116 52 146T133 215V218Q90 241 68 275T45 350Q45 389 63 420T114 474T187 508T276 520Q294 520 309 519T341 514T377 507T423 496L582 511V440L464 447ZM153
-36Q148 -44 145 -54T141 -77Q141 -102 153 -120T185 -151T233 -170T293 -176Q334 -176 363 -168T411 -147T438 -120T447 -93Q447 -76 437 -64T407 -47L153 -36ZM211 387Q212 355 218 326T236 274T262 239T294 226Q316 226 329 251T342 323Q342 356 335 385T317
435T290 468T258 481Q236 481 223 457T211 387ZM275 567Q237 567 211 593T184 659Q184 678 191 695T210 724T239 744T275 752Q294 752 311 745T341 725T361 695T369 659Q369 620 342 594T275 567Z" />
<glyph unicode="&#x122;" glyph-name="Gcommaaccent" horiz-adv-x="804" d="M306 -219Q360 -200 383 -181T407 -137Q407 -116 391 -103T352 -88V-81Q366 -55 389 -43T442 -31Q480 -31 507 -53T534 -113Q534 -160 481 -195T314 -247L306 -219ZM444 -12Q331 -12
253 18T125 95T54 202T32 321Q32 405 67 472T163 587T302 659T468 684Q540 684 601 670T704 644L717 428H685L569 600Q534 626 507 634T453 643Q409 643 375 622T316 563T279 473T266 360Q266 279 282 218T326 117T391 56T471 35Q507 35 536 49V268L425 284V334H794V287L732
271V37L692 27Q670 21 641 15T580 2T512 -8T444 -12Z" />
<glyph unicode="&#x123;" glyph-name="gcommaaccent" horiz-adv-x="582" d="M410 765Q356 746 333 727T309 683Q309 662 325 649T364 634V627Q350 601 327 589T274 577Q236 577 209 599T182 659Q182 706 235 741T402 793L410 765ZM464 447L461 442Q507 402 507
348Q507 315 492 286T448 234T377 198T279 185Q220 185 174 200Q162 188 162 174Q162 159 173 149T212 138L430 132Q499 130 532 96T566 6Q566 -45 538 -89T461 -167T351 -219T220 -238Q113 -238 63 -204T12 -120Q12 -82 35 -60T98 -22V-17Q63 -3 46 24T29 80Q29
116 52 146T133 215V218Q90 241 68 275T45 350Q45 389 63 420T114 474T187 508T276 520Q294 520 309 519T341 514T377 507T423 496L582 511V440L464 447ZM153 -36Q148 -44 145 -54T141 -77Q141 -102 153 -120T185 -151T233 -170T293 -176Q334 -176 363 -168T411
-147T438 -120T447 -93Q447 -76 437 -64T407 -47L153 -36ZM211 387Q212 355 218 326T236 274T262 239T294 226Q316 226 329 251T342 323Q342 356 335 385T317 435T290 468T258 481Q236 481 223 457T211 387Z" />
<glyph unicode="&#x124;" glyph-name="Hcircumflex" horiz-adv-x="853" d="M474 41L553 59V311H300V59L377 41V0H18V41L95 59V605L18 623V664H377V623L300 605V367H553V605L476 623V664H835V623L758 605V59L835 41V0H474V41ZM280 716L373 865H480L578 716H523L425
788L329 716H280Z" />
<glyph unicode="&#x125;" glyph-name="hcircumflex" horiz-adv-x="660" d="M346 40L395 52V320Q395 362 374 387T316 411Q287 410 269 399V52L316 39V0H12V39L74 52V616L14 656V677L269 749V439Q283 452 301 466T341 493T388 513T440 521Q508 521 549 483T590
371V52L652 39V0H346V40ZM186 756L279 905H386L484 756H429L331 828L235 756H186Z" />
<glyph unicode="&#x126;" glyph-name="Hbar" horiz-adv-x="853" d="M474 41L553 59V311H300V59L377 41V0H18V41L95 59V467H4V523H95V605L18 623V664H377V623L300 605V523H553V605L476 623V664H835V623L758 605V523H850V467H758V59L835 41V0H474V41ZM300 367H553V467H300V367Z"
/>
<glyph unicode="&#x127;" glyph-name="hbar" horiz-adv-x="660" d="M346 40L395 52V320Q395 362 374 387T316 411Q287 410 269 399V52L316 39V0H12V39L74 52V568H9V609H74V632L14 656V677L269 749V609H423V568H269V439Q283 452 301 466T341 493T388 513T440 521Q508
521 549 483T590 371V52L652 39V0H346V40Z" />
<glyph unicode="&#x128;" glyph-name="Itilde" horiz-adv-x="395" d="M18 41L95 59V605L18 623V664H377V623L300 605V59L377 41V0H18V41ZM170 772Q139 779 118 782T82 782T55 769T33 740L9 750L15 767Q30 810 46 837T84 878T133 891T200 882L245 870Q269 864 288
862T325 864T357 879T386 911L410 901L401 878Q383 831 366 803T329 762T281 749T216 760L170 772Z" />
<glyph unicode="&#x129;" glyph-name="itilde" horiz-adv-x="345" d="M143 612Q113 622 93 624T57 623T31 607T10 577L-14 587L-8 604Q7 647 24 675T64 718T115 732T182 719L203 712Q249 697 280 705T340 756L364 746L355 723Q337 676 319 647T279 604T230 591T165
605L143 612ZM13 39L77 52V399L14 450V470L273 521V52L336 39V0H13V39Z" />
<glyph unicode="&#x12a;" glyph-name="Imacron" horiz-adv-x="395" d="M18 41L95 59V605L18 623V664H377V623L300 605V59L377 41V0H18V41ZM301 830H607V750H301V830Z" />
<glyph unicode="&#x12b;" glyph-name="imacron" horiz-adv-x="345" d="M13 39L77 52V399L14 450V470L273 521V52L336 39V0H13V39ZM277 700H583V620H277V700Z" />
<glyph unicode="&#x12c;" glyph-name="Ibreve" horiz-adv-x="395" d="M18 41L95 59V605L18 623V664H377V623L300 605V59L377 41V0H18V41ZM448 710Q413 710 388 723T345 757T318 807T309 865H355Q369 839 391 820T455 801Q499 801 520 820T556 865H599Q598 835
588 807T559 758T512 723T448 710Z" />
<glyph unicode="&#x12d;" glyph-name="ibreve" horiz-adv-x="345" d="M13 39L77 52V399L14 450V470L273 521V52L336 39V0H13V39ZM429 582Q397 582 371 592T326 626T297 685T286 775H320Q330 724 357 698T429 671Q477 671 503 697T541 775H573Q573 681 533 632T429 582Z" />
<glyph unicode="&#x12e;" glyph-name="Iogonek" horiz-adv-x="395" d="M18 41L95 59V605L18 623V664H377V623L300 605V59L377 41V0H222Q203 -38 199 -56T194 -88Q194 -111 207 -124T240 -138Q267 -138 295 -110L317 -126Q305 -149 292 -169T263 -205T224 -229T173
-238Q129 -238 102 -214T74 -147Q74 -131 79 -115T98 -82T133 -44T189 0H18V41Z" />
<glyph unicode="&#x12f;" glyph-name="iogonek" horiz-adv-x="345" d="M13 39L77 52V399L14 450V470L273 521V52L336 39V0H200Q181 -38 177 -56T172 -88Q172 -111 185 -124T218 -138Q245 -138 273 -110L295 -126Q283 -149 270 -169T241 -205T202 -229T151 -238Q107
-238 80 -214T52 -147Q52 -131 57 -115T76 -82T111 -44T167 0H13V39ZM180 567Q142 567 116 593T89 659Q89 678 96 695T115 724T144 744T180 752Q199 752 216 745T246 725T266 695T274 659Q274 620 247 594T180 567Z" />
<glyph unicode="&#x130;" glyph-name="Idotaccent" horiz-adv-x="395" d="M18 41L95 59V605L18 623V664H377V623L300 605V59L377 41V0H18V41ZM453 713Q415 713 389 739T362 805Q362 824 369 841T388 870T417 890T453 898Q472 898 489 891T519 871T539 841T547
805Q547 766 520 740T453 713Z" />
<glyph unicode="&#x131;" glyph-name="dotlessi" horiz-adv-x="345" d="M13 39L77 52V399L14 450V470L273 521V52L336 39V0H13V39Z" />
<glyph unicode="&#x132;" glyph-name="IJ" horiz-adv-x="779" d="M18 41L95 59V605L18 623V664H377V623L300 605V59L377 41V0H18V41ZM690 99Q690 -51 607 -121T356 -202L351 -177Q393 -151 419 -129T460 -83T480 -29T485 43V605L398 623V664H767V623L690 605V99Z" />
<glyph unicode="&#x133;" glyph-name="ij" horiz-adv-x="673" d="M13 39L77 52V399L14 450V470L273 521V52L336 39V0H13V39ZM180 567Q142 567 116 593T89 659Q89 678 96 695T115 724T144 744T180 752Q199 752 216 745T246 725T266 695T274 659Q274 620 247 594T180
567ZM301 -198Q325 -179 344 -162T378 -123T400 -68T408 14V399L345 450V470L604 521V103Q604 59 603 23T594 -43T571 -98T527 -145Q498 -168 464 -182T399 -205T344 -216T307 -219L301 -198ZM510 567Q472 567 446 593T419 659Q419 678 426 695T445 724T474 744T510
752Q529 752 546 745T576 725T596 695T604 659Q604 620 577 594T510 567Z" />
<glyph unicode="&#x134;" glyph-name="Jcircumflex" horiz-adv-x="389" d="M306 716L399 865H506L604 716H549L451 788L355 716H306ZM300 99Q300 -51 217 -121T-34 -202L-39 -177Q3 -151 29 -129T70 -83T90 -29T95 43V605L8 623V664H377V623L300 605V99Z" />
<glyph unicode="&#x135;" glyph-name="jcircumflex" horiz-adv-x="341" d="M-30 -198Q-6 -179 13 -162T47 -123T69 -68T77 14V399L14 450V470L273 521V103Q273 59 272 23T263 -43T240 -98T196 -145Q167 -168 133 -182T68 -205T13 -216T-24 -219L-30 -198ZM36 582L131
775H218L312 582H267L171 683L81 582H36Z" />
<glyph unicode="&#x136;" glyph-name="Kcommaaccent" horiz-adv-x="782" d="M296 -219Q350 -200 373 -181T397 -137Q397 -116 381 -103T342 -88V-81Q356 -55 379 -43T432 -31Q470 -31 497 -53T524 -113Q524 -160 471 -195T304 -247L296 -219ZM18 41L95 59V605L18
623V664H377V623L300 605V59L377 41V0H18V41ZM319 303V308L576 604L481 623V664H735V623L644 602L480 419L724 54L788 41V0H523L319 303Z" />
<glyph unicode="&#x137;" glyph-name="kcommaaccent" horiz-adv-x="650" d="M208 -219Q262 -200 285 -181T309 -137Q309 -116 293 -103T254 -88V-81Q268 -55 291 -43T344 -31Q382 -31 409 -53T436 -113Q436 -160 383 -195T216 -247L208 -219ZM74 616L14 656V677L269
749V52L326 39V0H12V39L74 52V616ZM535 -14Q476 -14 438 8T369 88L277 259L452 438L360 467V505H634V467L549 446L437 350L650 16Q636 7 618 1Q603 -5 582 -9T535 -14Z" />
<glyph unicode="&#x138;" glyph-name="kgreenlandic" horiz-adv-x="650" d="M12 39L74 52V399L14 443V464L269 523V52L326 39V0H12V39ZM535 -14Q476 -14 438 8T369 88L277 259L452 438L360 467V505H634V467L549 446L437 350L650 16Q636 7 618 1Q603 -5 582 -9T535 -14Z" />
<glyph unicode="&#x139;" glyph-name="Lacute" horiz-adv-x="632" d="M400 865V851L230 716H173L252 865H400ZM300 71Q328 42 380 42H451L580 275H617L567 0H18V41L95 59V605L18 623V664H377V623L300 605V71Z" />
<glyph unicode="&#x13a;" glyph-name="lacute" horiz-adv-x="337" d="M366 905V891L196 756H139L218 905H366ZM12 39L74 52V616L14 656V677L269 749V52L329 39V0H12V39Z" />
<glyph unicode="&#x13b;" glyph-name="Lcommaaccent" horiz-adv-x="632" d="M176 -219Q230 -200 253 -181T277 -137Q277 -116 261 -103T222 -88V-81Q236 -55 259 -43T312 -31Q350 -31 377 -53T404 -113Q404 -160 351 -195T184 -247L176 -219ZM300 71Q328 42 380
42H451L580 275H617L567 0H18V41L95 59V605L18 623V664H377V623L300 605V71Z" />
<glyph unicode="&#x13c;" glyph-name="lcommaaccent" horiz-adv-x="337" d="M286 -219Q340 -200 363 -181T387 -137Q387 -116 371 -103T332 -88V-81Q346 -55 369 -43T422 -31Q460 -31 487 -53T514 -113Q514 -160 461 -195T294 -247L286 -219ZM12 39L74 52V616L14
656V677L269 749V52L329 39V0H12V39Z" />
<glyph unicode="&#x13d;" glyph-name="Lcaron" horiz-adv-x="632" d="M462 519L485 730H617V722L494 519H462ZM300 71Q328 42 380 42H451L580 275H617L567 0H18V41L95 59V605L18 623V664H377V623L300 605V71Z" />
<glyph unicode="&#x13e;" glyph-name="lcaron" horiz-adv-x="337" d="M308 519L331 730H463V722L340 519H308ZM12 39L74 52V616L14 656V677L269 749V52L329 39V0H12V39Z" />
<glyph unicode="&#x13f;" glyph-name="Ldot" horiz-adv-x="632" d="M531 282Q513 282 497 289T468 309T449 337T441 371Q441 390 448 406T468 435T496 455T531 462Q569 462 595 436T622 371Q622 353 615 337T596 309T567 290T531 282ZM300 71Q328 42 380 42H451L573
236H610L567 0H18V41L95 59V605L18 623V664H377V623L300 605V71Z" />
<glyph unicode="&#x140;" glyph-name="ldot" horiz-adv-x="460" d="M399 282Q381 282 365 289T336 309T317 337T309 371Q309 390 316 406T336 435T364 455T399 462Q437 462 463 436T490 371Q490 353 483 337T464 309T435 290T399 282ZM12 39L74 52V616L14 656V677L269
749V52L329 39V0H12V39Z" />
<glyph unicode="&#x141;" glyph-name="Lslash" horiz-adv-x="632" d="M24 283L95 305V605L18 623V664H377V623L300 605V369L480 426V379L300 322V74Q328 45 380 45H451L580 275H617L567 0H18V41L95 59V258L24 236V283Z" />
<glyph unicode="&#x142;" glyph-name="lslash" horiz-adv-x="337" d="M12 335L74 361V616L14 656V677L269 749V442L343 473V422L269 391V52L329 39V0H12V39L74 52V309L12 283V335Z" />
<glyph unicode="&#x143;" glyph-name="Nacute" horiz-adv-x="738" d="M587 865V851L417 716H360L439 865H587ZM570 -13L155 479L162 61L273 41V0H22V41L99 58V553Q82 574 64 592T20 618L1 624V664H264L601 266L595 596L487 624V664H734V624L657 603V67L659 3L570 -13Z" />
<glyph unicode="&#x144;" glyph-name="nacute" horiz-adv-x="660" d="M497 775V768L346 582H305L358 775H497ZM12 39L74 52V399L14 443V464L240 523H245L256 429H258Q271 442 290 458T332 488T382 511T440 521Q508 521 549 483T590 371V52L652 39V0H346V40L395
52V320Q395 362 374 387T316 411Q287 410 269 399V52L316 39V0H12V39Z" />
<glyph unicode="&#x145;" glyph-name="Ncommaaccent" horiz-adv-x="738" d="M252 -219Q306 -200 329 -181T353 -137Q353 -116 337 -103T298 -88V-81Q312 -55 335 -43T388 -31Q426 -31 453 -53T480 -113Q480 -160 427 -195T260 -247L252 -219ZM570 -13L155 479L162
61L273 41V0H22V41L99 58V553Q82 574 64 592T20 618L1 624V664H264L601 266L595 596L487 624V664H734V624L657 603V67L659 3L570 -13Z" />
<glyph unicode="&#x146;" glyph-name="ncommaaccent" horiz-adv-x="660" d="M187 -219Q241 -200 264 -181T288 -137Q288 -116 272 -103T233 -88V-81Q247 -55 270 -43T323 -31Q361 -31 388 -53T415 -113Q415 -160 362 -195T195 -247L187 -219ZM12 39L74 52V399L14
443V464L240 523H245L256 429H258Q271 442 290 458T332 488T382 511T440 521Q508 521 549 483T590 371V52L652 39V0H346V40L395 52V320Q395 362 374 387T316 411Q287 410 269 399V52L316 39V0H12V39Z" />
<glyph unicode="&#x147;" glyph-name="Ncaron" horiz-adv-x="738" d="M536 865L443 716H336L238 865H293L391 790L487 865H536ZM570 -13L155 479L162 61L273 41V0H22V41L99 58V553Q82 574 64 592T20 618L1 624V664H264L601 266L595 596L487 624V664H734V624L657
603V67L659 3L570 -13Z" />
<glyph unicode="&#x148;" glyph-name="ncaron" horiz-adv-x="660" d="M466 775L371 582H284L190 775H235L331 674L421 775H466ZM12 39L74 52V399L14 443V464L240 523H245L256 429H258Q271 442 290 458T332 488T382 511T440 521Q508 521 549 483T590 371V52L652
39V0H346V40L395 52V320Q395 362 374 387T316 411Q287 410 269 399V52L316 39V0H12V39Z" />
<glyph unicode="&#x149;" glyph-name="napostrophe" horiz-adv-x="660" d="M-28 575Q26 594 49 613T73 657Q73 678 57 691T18 706V713Q32 739 55 751T108 763Q146 763 173 741T200 681Q200 634 147 599T-20 547L-28 575ZM12 39L74 52V399L14 443V464L240 523H245L256
429H258Q271 442 290 458T332 488T382 511T440 521Q508 521 549 483T590 371V52L652 39V0H346V40L395 52V320Q395 362 374 387T316 411Q287 410 269 399V52L316 39V0H12V39Z" />
<glyph unicode="&#x14a;" glyph-name="Eng" horiz-adv-x="746" d="M657 603V100Q657 -44 582 -115T350 -199L345 -174Q384 -161 418 -145T480 -108T527 -60T557 2L160 473L168 61L279 41V0H22V41L99 58V553Q82 574 64 592T20 618L1 624V664H264L601 266L595 596L487
624V664H734V624L657 603Z" />
<glyph unicode="&#x14b;" glyph-name="eng" horiz-adv-x="658" d="M395 320Q395 362 374 387T316 411Q287 410 269 399V52L316 39V0H12V39L74 52V399L14 443V464L240 523H245L256 429H258Q271 442 290 458T332 488T382 511T440 521Q508 521 549 483T590 371V103Q590
59 589 23T580 -43T558 -98T514 -145Q485 -168 451 -182T386 -205T331 -216T294 -219L288 -198Q312 -179 331 -162T365 -123T387 -68T395 14V320Z" />
<glyph unicode="&#x14c;" glyph-name="Omacron" horiz-adv-x="809" d="M251 830H557V750H251V830ZM419 33Q448 33 472 49T515 98T543 184T554 311Q554 376 543 435T511 540T458 612T387 639Q360 639 336 623T294 573T266 486T255 359Q255 284 268 224T304 121T357
56T419 33ZM406 684Q478 684 546 663T666 598T751 491T783 341Q783 261 751 196T664 85T541 14T400 -12Q325 -12 257 11T138 78T56 186T26 331Q26 407 58 471T142 583T263 657T406 684Z" />
<glyph unicode="&#x14d;" glyph-name="omacron" horiz-adv-x="630" d="M162 700H468V620H162V700ZM296 481Q275 481 262 465T241 423T232 370T229 316Q229 257 237 205T258 112T291 48T333 24Q367 24 383 68T399 197Q399 252 392 303T372 394T339 457T296 481ZM315
-15Q244 -15 190 6T100 64T44 147T25 247Q25 307 47 357T109 443T201 500T315 520Q378 520 431 501T523 447T583 364T605 260Q605 199 583 149T522 62T430 5T315 -15Z" />
<glyph unicode="&#x14e;" glyph-name="Obreve" horiz-adv-x="809" d="M398 710Q363 710 338 723T295 757T268 807T259 865H305Q319 839 341 820T405 801Q449 801 470 820T506 865H549Q548 835 538 807T509 758T462 723T398 710ZM419 33Q448 33 472 49T515 98T543
184T554 311Q554 376 543 435T511 540T458 612T387 639Q360 639 336 623T294 573T266 486T255 359Q255 284 268 224T304 121T357 56T419 33ZM406 684Q478 684 546 663T666 598T751 491T783 341Q783 261 751 196T664 85T541 14T400 -12Q325 -12 257 11T138 78T56
186T26 331Q26 407 58 471T142 583T263 657T406 684Z" />
<glyph unicode="&#x14f;" glyph-name="obreve" horiz-adv-x="630" d="M296 481Q275 481 262 465T241 423T232 370T229 316Q229 257 237 205T258 112T291 48T333 24Q367 24 383 68T399 197Q399 252 392 303T372 394T339 457T296 481ZM315 -15Q244 -15 190 6T100
64T44 147T25 247Q25 307 47 357T109 443T201 500T315 520Q378 520 431 501T523 447T583 364T605 260Q605 199 583 149T522 62T430 5T315 -15ZM315 582Q283 582 257 592T212 626T183 685T172 775H206Q216 724 243 698T315 671Q363 671 389 697T427 775H459Q459
681 419 632T315 582Z" />
<glyph unicode="&#x150;" glyph-name="Ohungarumlaut" horiz-adv-x="809" d="M444 865V854L328 716H275L316 865H444ZM628 865V854L511 716H458L499 865H628ZM419 33Q448 33 472 49T515 98T543 184T554 311Q554 376 543 435T511 540T458 612T387 639Q360 639 336
623T294 573T266 486T255 359Q255 284 268 224T304 121T357 56T419 33ZM406 684Q478 684 546 663T666 598T751 491T783 341Q783 261 751 196T664 85T541 14T400 -12Q325 -12 257 11T138 78T56 186T26 331Q26 407 58 471T142 583T263 657T406 684Z" />
<glyph unicode="&#x151;" glyph-name="ohungarumlaut" horiz-adv-x="630" d="M356 775V766L236 582H196L232 775H356ZM523 775V766L403 582H361L398 775H523ZM296 481Q275 481 262 465T241 423T232 370T229 316Q229 257 237 205T258 112T291 48T333 24Q367 24
383 68T399 197Q399 252 392 303T372 394T339 457T296 481ZM315 -15Q244 -15 190 6T100 64T44 147T25 247Q25 307 47 357T109 443T201 500T315 520Q378 520 431 501T523 447T583 364T605 260Q605 199 583 149T522 62T430 5T315 -15Z" />
<glyph unicode="&#x152;" glyph-name="OE" horiz-adv-x="1078" d="M1035 664V455H997L924 620H733V366H817L851 484H890V204H851L817 316H733V73Q761 43 812 43H901L1018 246H1056L1019 0H821Q779 0 726 -1T616 -3T503 -6T400 -7Q325 -7 257 14T138 78T56 183T26
326Q26 402 58 465T142 574T263 645T406 671Q434 671 456 671T501 669T550 668T613 666T700 665T821 664H1035ZM424 31Q452 31 472 43T505 75T523 122T529 180V561Q508 596 478 615T414 634Q382 634 354 618T304 568T270 480T257 353Q257 278 271 219T308 117T362
53T424 31Z" />
<glyph unicode="&#x153;" glyph-name="oe" horiz-adv-x="969" d="M698 -13Q647 -13 599 14T515 88Q482 40 430 11T310 -19Q241 -19 188 2T98 60T42 144T23 244Q23 304 45 354T108 441T201 498T317 518Q385 518 435 490T518 417Q555 465 607 493T713 521Q767 521
806 505T871 460T912 388T934 294H616Q620 248 638 214T683 158T742 124T807 113Q843 113 870 121T925 143L940 121Q919 93 893 69T837 26T772 -2T698 -13ZM297 478Q276 478 264 462T246 420T239 366T237 311Q237 258 244 206T264 113T295 47T337 21Q368 21 381
65T395 193Q395 244 389 295T369 386T338 452T297 478ZM678 476Q654 476 636 444T615 334H748Q745 394 727 435T678 476Z" />
<glyph unicode="&#x154;" glyph-name="Racute" horiz-adv-x="735" d="M546 865V851L376 716H319L398 865H546ZM18 41L95 59V605L18 623V664H322Q415 664 478 651T581 614T638 560T655 495Q655 444 622 401T513 328V323L671 54L735 41V0H483L314 288H297V59L368
41V0H18V41ZM297 334H368Q411 347 437 384T464 467Q464 502 451 530T415 577T362 608T297 623V334Z" />
<glyph unicode="&#x155;" glyph-name="racute" horiz-adv-x="475" d="M440 775V768L289 582H248L301 775H440ZM12 39L74 52V399L14 443V464L244 523H250L257 389H262L278 424Q299 471 326 495T399 520Q416 520 432 514T461 497T482 469T490 429Q490 381 458 354T360
328L309 384Q298 379 285 366T269 334V52L363 39V0H12V39Z" />
<glyph unicode="&#x156;" glyph-name="Rcommaaccent" horiz-adv-x="735" d="M267 -219Q321 -200 344 -181T368 -137Q368 -116 352 -103T313 -88V-81Q327 -55 350 -43T403 -31Q441 -31 468 -53T495 -113Q495 -160 442 -195T275 -247L267 -219ZM18 41L95 59V605L18
623V664H322Q415 664 478 651T581 614T638 560T655 495Q655 444 622 401T513 328V323L671 54L735 41V0H483L314 288H297V59L368 41V0H18V41ZM297 334H368Q411 347 437 384T464 467Q464 502 451 530T415 577T362 608T297 623V334Z" />
<glyph unicode="&#x157;" glyph-name="rcommaaccent" horiz-adv-x="475" d="M293 -219Q347 -200 370 -181T394 -137Q394 -116 378 -103T339 -88V-81Q353 -55 376 -43T429 -31Q467 -31 494 -53T521 -113Q521 -160 468 -195T301 -247L293 -219ZM12 39L74 52V399L14
443V464L244 523H250L257 389H262L278 424Q299 471 326 495T399 520Q416 520 432 514T461 497T482 469T490 429Q490 381 458 354T360 328L309 384Q298 379 285 366T269 334V52L363 39V0H12V39Z" />
<glyph unicode="&#x158;" glyph-name="Rcaron" horiz-adv-x="735" d="M495 865L402 716H295L197 865H252L350 790L446 865H495ZM18 41L95 59V605L18 623V664H322Q415 664 478 651T581 614T638 560T655 495Q655 444 622 401T513 328V323L671 54L735 41V0H483L314
288H297V59L368 41V0H18V41ZM297 334H368Q411 347 437 384T464 467Q464 502 451 530T415 577T362 608T297 623V334Z" />
<glyph unicode="&#x159;" glyph-name="rcaron" horiz-adv-x="475" d="M409 775L314 582H227L133 775H178L274 674L364 775H409ZM12 39L74 52V399L14 443V464L244 523H250L257 389H262L278 424Q299 471 326 495T399 520Q416 520 432 514T461 497T482 469T490 429Q490
381 458 354T360 328L309 384Q298 379 285 366T269 334V52L363 39V0H12V39Z" />
<glyph unicode="&#x15a;" glyph-name="Sacute" horiz-adv-x="582" d="M35 252H67L164 67Q183 52 207 42T267 31Q312 31 340 59T369 128Q369 171 346 193T277 232L219 254Q131 286 93 337T55 459Q55 496 71 536T123 608T211 662T339 683Q383 683 429 672T517 644V451H484L408
619Q397 629 379 636T335 643Q286 643 257 616T227 548Q227 503 255 479T341 434L409 410Q484 383 517 340T550 239Q550 177 526 130T460 52T366 4T256 -13Q200 -13 151 -1T57 27L35 252ZM512 865V851L342 716H285L364 865H512Z" />
<glyph unicode="&#x15b;" glyph-name="sacute" horiz-adv-x="485" d="M437 775V768L286 582H245L298 775H437ZM199 -15Q154 -15 118 -7T39 16L32 184H65L135 55Q143 47 161 37T202 27Q238 27 259 45T281 93Q281 116 268 134T223 163L150 190Q86 213 62 254T38
346Q38 384 54 416T101 472T177 509T279 523Q315 523 355 515T429 493V337H399L336 455Q323 466 307 473T271 480Q242 480 222 463T202 419Q202 390 219 375T264 348L336 321Q392 301 422 266T453 178Q453 135 434 100T380 39T300 -1T199 -15Z" />
<glyph unicode="&#x15c;" glyph-name="Scircumflex" horiz-adv-x="582" d="M172 716L265 865H372L470 716H415L317 788L221 716H172ZM35 252H67L164 67Q183 52 207 42T267 31Q312 31 340 59T369 128Q369 171 346 193T277 232L219 254Q131 286 93 337T55 459Q55
496 71 536T123 608T211 662T339 683Q383 683 429 672T517 644V451H484L408 619Q397 629 379 636T335 643Q286 643 257 616T227 548Q227 503 255 479T341 434L409 410Q484 383 517 340T550 239Q550 177 526 130T460 52T366 4T256 -13Q200 -13 151 -1T57 27L35 252Z"
/>
<glyph unicode="&#x15d;" glyph-name="scircumflex" horiz-adv-x="485" d="M123 582L218 775H305L399 582H354L258 683L168 582H123ZM199 -15Q154 -15 118 -7T39 16L32 184H65L135 55Q143 47 161 37T202 27Q238 27 259 45T281 93Q281 116 268 134T223 163L150
190Q86 213 62 254T38 346Q38 384 54 416T101 472T177 509T279 523Q315 523 355 515T429 493V337H399L336 455Q323 466 307 473T271 480Q242 480 222 463T202 419Q202 390 219 375T264 348L336 321Q392 301 422 266T453 178Q453 135 434 100T380 39T300 -1T199
-15Z" />
<glyph unicode="&#x15e;" glyph-name="Scedilla" horiz-adv-x="582" d="M148 -219Q195 -203 222 -184T249 -138Q249 -119 236 -107T201 -88L254 -13Q199 -12 150 -1T57 27L35 252H67L164 67Q183 52 207 42T267 31Q312 31 340 59T369 130Q369 172 347 193T282 231L219
254Q131 286 93 337T55 459Q55 496 71 536T123 608T211 662T339 683Q383 683 429 672T517 644V451H484L408 619Q397 629 379 636T335 643Q286 643 257 616T227 548Q227 503 255 479T341 434L409 410Q484 383 517 340T550 239Q550 182 529 138T473 62T390 12T292
-11L271 -40Q313 -44 344 -62T376 -118Q376 -163 322 -196T156 -247L148 -219Z" />
<glyph unicode="&#x15f;" glyph-name="scedilla" horiz-adv-x="485" d="M201 -15Q155 -15 119 -7T39 16L32 184H65L135 55Q143 47 161 37T202 27Q238 27 259 45T281 93Q281 119 267 135T223 163L150 190Q86 213 62 254T38 346Q38 384 54 416T101 472T177 509T279
523Q315 523 355 515T429 493V337H399L336 455Q323 466 307 473T271 480Q242 480 222 463T202 419Q202 390 219 375T264 348L336 321Q392 301 422 266T453 178Q453 139 437 107T393 49T325 8T239 -13L220 -40Q262 -44 293 -62T325 -118Q325 -163 271 -196T105 -247L97
-219Q144 -203 171 -184T198 -138Q198 -119 185 -107T150 -88L201 -15Z" />
<glyph unicode="&#x160;" glyph-name="Scaron" horiz-adv-x="582" d="M461 865L368 716H261L163 865H218L316 790L412 865H461ZM35 252H67L164 67Q183 52 207 42T267 31Q312 31 340 59T369 128Q369 171 346 193T277 232L219 254Q131 286 93 337T55 459Q55 496
71 536T123 608T211 662T339 683Q383 683 429 672T517 644V451H484L408 619Q397 629 379 636T335 643Q286 643 257 616T227 548Q227 503 255 479T341 434L409 410Q484 383 517 340T550 239Q550 177 526 130T460 52T366 4T256 -13Q200 -13 151 -1T57 27L35 252Z"
/>
<glyph unicode="&#x161;" glyph-name="scaron" horiz-adv-x="485" d="M399 775L304 582H217L123 775H168L264 674L354 775H399ZM199 -15Q154 -15 118 -7T39 16L32 184H65L135 55Q143 47 161 37T202 27Q238 27 259 45T281 93Q281 116 268 134T223 163L150 190Q86
213 62 254T38 346Q38 384 54 416T101 472T177 509T279 523Q315 523 355 515T429 493V337H399L336 455Q323 466 307 473T271 480Q242 480 222 463T202 419Q202 390 219 375T264 348L336 321Q392 301 422 266T453 178Q453 135 434 100T380 39T300 -1T199 -15Z" />
<glyph unicode="&#x162;" glyph-name="Tcommaaccent" horiz-adv-x="657" d="M191 -219Q245 -200 268 -181T292 -137Q292 -116 276 -103T237 -88V-81Q251 -55 274 -43T327 -31Q365 -31 392 -53T419 -113Q419 -160 366 -195T199 -247L191 -219ZM642 442H611L540
613H431V59L529 41V0H127V41L226 59V613H117L46 442H15V664H642V442Z" />
<glyph unicode="&#x163;" glyph-name="tcommaaccent" horiz-adv-x="402" d="M73 -219Q127 -200 150 -181T174 -137Q174 -116 158 -103T119 -88V-81Q133 -55 156 -43T209 -31Q247 -31 274 -53T301 -113Q301 -160 248 -195T81 -247L73 -219ZM210 -15Q135 -15 99
24T64 138L67 443H-6V480L68 508L243 627H259V505H406V443H259V135Q264 115 274 103T298 83T326 72T356 69Q371 69 382 70T401 74L407 41Q367 19 320 2T210 -15Z" />
<glyph unicode="&#x164;" glyph-name="Tcaron" horiz-adv-x="657" d="M475 865L382 716H275L177 865H232L330 790L426 865H475ZM642 442H611L540 613H431V59L529 41V0H127V41L226 59V613H117L46 442H15V664H642V442Z" />
<glyph unicode="&#x165;" glyph-name="tcaron" horiz-adv-x="402" d="M315 564L338 775H470V767L347 564H315ZM210 -15Q135 -15 99 24T64 138L67 443H-6V480L68 508L243 627H259V505H406V443H259V135Q264 115 274 103T298 83T326 72T356 69Q371 69 382 70T401
74L407 41Q367 19 320 2T210 -15Z" />
<glyph unicode="&#x166;" glyph-name="Tbar" horiz-adv-x="657" d="M78 388H226V609H117L46 442H15V664H642V442H611L540 609H431V388H577V332H431V59L529 41V0H127V41L226 59V332H78V388Z" />
<glyph unicode="&#x167;" glyph-name="tbar" horiz-adv-x="402" d="M-6 349H66L67 443H-6V480L68 508L243 627H259V505H406V443H259V349H406V300H259V135Q264 115 274 103T298 83T326 72T356 69Q371 69 382 70T401 74L407 41Q367 19 320 2T210 -15Q135 -15 99
24T64 138L65 300H-6V349Z" />
<glyph unicode="&#x168;" glyph-name="Utilde" horiz-adv-x="739" d="M370 -15Q310 -15 258 -1T166 44T105 126T82 250V605L5 623V664H387V623L289 605V252Q289 204 301 170T335 115T383 83T440 73Q471 73 499 83T548 114T582 169T595 250L593 603L494 623V664H734V623L658
603V277Q658 210 641 156T589 64T499 6T370 -15ZM393 772Q362 779 341 782T305 782T278 769T256 740L232 750L238 767Q253 810 269 837T307 878T356 891T423 882L468 870Q492 864 511 862T548 864T580 879T609 911L633 901L624 878Q606 831 589 803T552 762T504
749T439 760L393 772Z" />
<glyph unicode="&#x169;" glyph-name="utilde" horiz-adv-x="650" d="M386 66Q370 51 352 37T312 11T267 -8T214 -15Q188 -15 162 -9T114 14T79 60T65 136V411L5 444V468L260 515V175Q260 157 263 142T273 116T295 98T332 91Q347 91 359 94T383 103V417L324 449V474L578
519V69L640 57V24L398 -11L386 66ZM293 612Q263 622 243 624T207 623T181 607T160 577L136 587L142 604Q157 647 174 675T214 718T265 732T332 719L376 704Q422 689 453 697T513 748L537 738L528 715Q510 668 492 639T452 596T403 583T338 597L293 612Z" />
<glyph unicode="&#x16a;" glyph-name="Umacron" horiz-adv-x="739" d="M370 -15Q310 -15 258 -1T166 44T105 126T82 250V605L5 623V664H387V623L289 605V252Q289 204 301 170T335 115T383 83T440 73Q471 73 499 83T548 114T582 169T595 250L593 603L494 623V664H734V623L658
603V277Q658 210 641 156T589 64T499 6T370 -15ZM267 830H573V750H267V830Z" />
<glyph unicode="&#x16b;" glyph-name="umacron" horiz-adv-x="650" d="M386 66Q370 51 352 37T312 11T267 -8T214 -15Q188 -15 162 -9T114 14T79 60T65 136V411L5 444V468L260 515V175Q260 157 263 142T273 116T295 98T332 91Q347 91 359 94T383 103V417L324 449V474L578
519V69L640 57V24L398 -11L386 66ZM173 700H479V620H173V700Z" />
<glyph unicode="&#x16c;" glyph-name="Ubreve" horiz-adv-x="739" d="M370 -15Q310 -15 258 -1T166 44T105 126T82 250V605L5 623V664H387V623L289 605V252Q289 204 301 170T335 115T383 83T440 73Q471 73 499 83T548 114T582 169T595 250L593 603L494 623V664H734V623L658
603V277Q658 210 641 156T589 64T499 6T370 -15ZM414 710Q379 710 354 723T311 757T284 807T275 865H321Q335 839 357 820T421 801Q465 801 486 820T522 865H565Q564 835 554 807T525 758T478 723T414 710Z" />
<glyph unicode="&#x16d;" glyph-name="ubreve" horiz-adv-x="650" d="M386 66Q370 51 352 37T312 11T267 -8T214 -15Q188 -15 162 -9T114 14T79 60T65 136V411L5 444V468L260 515V175Q260 157 263 142T273 116T295 98T332 91Q347 91 359 94T383 103V417L324 449V474L578
519V69L640 57V24L398 -11L386 66ZM326 582Q294 582 268 592T223 626T194 685T183 775H217Q227 724 254 698T326 671Q374 671 400 697T438 775H470Q470 681 430 632T326 582Z" />
<glyph unicode="&#x16e;" glyph-name="Uring" horiz-adv-x="739" d="M370 -15Q310 -15 258 -1T166 44T105 126T82 250V605L5 623V664H387V623L289 605V252Q289 204 301 170T335 115T383 83T440 73Q471 73 499 83T548 114T582 169T595 250L593 603L494 623V664H734V623L658
603V277Q658 210 641 156T589 64T499 6T370 -15ZM308 829Q308 851 316 870T340 904T375 927T421 936Q472 936 502 906T532 831Q532 787 501 756T419 724Q368 724 338 754T308 829ZM355 831Q355 801 374 781T421 761Q448 761 466 780T485 829Q485 859 466 879T419
899Q392 899 374 880T355 831Z" />
<glyph unicode="&#x16f;" glyph-name="uring" horiz-adv-x="650" d="M214 669Q214 691 222 710T246 744T281 767T327 776Q378 776 408 746T438 671Q438 627 407 596T325 564Q274 564 244 594T214 669ZM261 671Q261 641 280 621T327 601Q354 601 372 620T391 669Q391
699 372 719T325 739Q298 739 280 720T261 671ZM386 66Q370 51 352 37T312 11T267 -8T214 -15Q188 -15 162 -9T114 14T79 60T65 136V411L5 444V468L260 515V175Q260 157 263 142T273 116T295 98T332 91Q347 91 359 94T383 103V417L324 449V474L578 519V69L640 57V24L398
-11L386 66Z" />
<glyph unicode="&#x170;" glyph-name="Uhungarumlaut" horiz-adv-x="739" d="M460 865V854L344 716H291L332 865H460ZM644 865V854L527 716H474L515 865H644ZM370 -15Q310 -15 258 -1T166 44T105 126T82 250V605L5 623V664H387V623L289 605V252Q289 204 301 170T335
115T383 83T440 73Q471 73 499 83T548 114T582 169T595 250L593 603L494 623V664H734V623L658 603V277Q658 210 641 156T589 64T499 6T370 -15Z" />
<glyph unicode="&#x171;" glyph-name="uhungarumlaut" horiz-adv-x="650" d="M386 66Q370 51 352 37T312 11T267 -8T214 -15Q188 -15 162 -9T114 14T79 60T65 136V411L5 444V468L260 515V175Q260 157 263 142T273 116T295 98T332 91Q347 91 359 94T383 103V417L324
449V474L578 519V69L640 57V24L398 -11L386 66ZM372 775V766L252 582H212L248 775H372ZM539 775V766L419 582H377L414 775H539Z" />
<glyph unicode="&#x172;" glyph-name="Uogonek" horiz-adv-x="739" d="M370 -15Q310 -15 258 -1T166 44T105 126T82 250V605L5 623V664H387V623L289 605V252Q289 204 301 170T335 115T383 83T440 73Q471 73 499 83T548 114T582 169T595 250L593 603L494 623V664H734V623L658
603V277Q658 163 608 88T452 -7Q427 -44 422 -62T417 -90Q417 -112 430 -125T463 -138Q490 -138 518 -110L540 -126Q528 -149 515 -169T486 -205T447 -229T396 -238Q352 -238 325 -214T297 -147Q297 -132 301 -118T318 -87T350 -53T402 -14Q394 -14 386 -14T370
-15Z" />
<glyph unicode="&#x173;" glyph-name="uogonek" horiz-adv-x="650" d="M214 -15Q188 -15 162 -9T114 14T79 60T65 136V411L5 444V468L260 515V175Q260 157 263 142T273 116T295 98T332 91Q347 91 359 94T383 103V417L324 449V474L578 519V69L640 57V24L445 -4Q419
-42 414 -61T408 -90Q408 -112 421 -125T454 -138Q481 -138 509 -110L531 -126Q519 -149 506 -169T477 -205T438 -229T387 -238Q343 -238 316 -214T288 -147Q288 -132 293 -117T310 -86T343 -51T398 -11L386 66Q370 51 352 37T312 11T267 -8T214 -15Z" />
<glyph unicode="&#x174;" glyph-name="Wcircumflex" horiz-adv-x="1038" d="M421 716L514 865H621L719 716H664L566 788L470 716H421ZM520 401L369 -12H271L58 606L-1 622V664H333V623L274 606L399 182L497 468L450 606L407 623V664H744V623L662 606L788 197L921
600L833 623V664H1039V623L976 603L763 -12H664L520 401Z" />
<glyph unicode="&#x175;" glyph-name="wcircumflex" horiz-adv-x="830" d="M358 582L453 775H540L634 582H589L493 683L403 582H358ZM645 224L653 201H654L660 225L725 455L646 467V505H840V467L785 457L626 -13H546L431 242L421 268H420L411 243L306 -13H224L46
457L-10 467V505H331V467L260 457L335 230L344 197H345L356 230L462 505H521L645 224Z" />
<glyph unicode="&#x176;" glyph-name="Ycircumflex" horiz-adv-x="686" d="M451 280V59L530 40V0H168V40L247 59V258L61 605L-1 623V664H378V623L280 605L421 317L564 603L461 623V664H687V623L622 603L451 280ZM265 716L358 865H465L563 716H508L410 788L314 716H265Z" />
<glyph unicode="&#x177;" glyph-name="ycircumflex" horiz-adv-x="537" d="M385 467V505H542V467L499 457L259 -123Q238 -174 209 -203T134 -232Q97 -232 69 -206T40 -137Q40 -116 47 -99T68 -69T98 -50T134 -43Q164 -43 186 -57T219 -104H221L243 -50L33 458L-5
467V505H303V467L242 459L336 179L439 455L385 467ZM197 582L292 775H379L473 582H428L332 683L242 582H197Z" />
<glyph unicode="&#x178;" glyph-name="Ydieresis" horiz-adv-x="686" d="M451 280V59L530 40V0H168V40L247 59V258L61 605L-1 623V664H378V623L280 605L421 317L564 603L461 623V664H687V623L622 603L451 280ZM263 713Q228 713 204 737T179 796Q179 830 203 855T263
880Q297 880 322 855T347 796Q347 761 322 737T263 713ZM519 713Q485 713 461 737T437 796Q437 830 461 855T519 880Q536 880 551 873T578 855T597 828T604 796Q604 761 579 737T519 713Z" />
<glyph unicode="&#x179;" glyph-name="Zacute" horiz-adv-x="662" d="M515 865V851L345 716H288L367 865H515ZM25 42L361 614H150L65 439H32L39 664H615V652L247 49H508L623 241H657L613 0H25V42Z" />
<glyph unicode="&#x17a;" glyph-name="zacute" horiz-adv-x="525" d="M441 775V768L290 582H249L302 775H441ZM18 24L271 455H138L67 301H34V517L124 505H503V499L240 50H377L472 217H507L484 0H18V24Z" />
<glyph unicode="&#x17b;" glyph-name="Zdotaccent" horiz-adv-x="662" d="M25 42L361 614H150L65 439H32L39 664H615V652L247 49H508L623 241H657L613 0H25V42ZM320 713Q282 713 256 739T229 805Q229 824 236 841T255 870T284 890T320 898Q339 898 356 891T386
871T406 841T414 805Q414 766 387 740T320 713Z" />
<glyph unicode="&#x17c;" glyph-name="zdotaccent" horiz-adv-x="525" d="M18 24L271 455H138L67 301H34V517L124 505H503V499L240 50H377L472 217H507L484 0H18V24ZM272 567Q234 567 208 593T181 659Q181 678 188 695T207 724T236 744T272 752Q291 752 308 745T338
725T358 695T366 659Q366 620 339 594T272 567Z" />
<glyph unicode="&#x17d;" glyph-name="Zcaron" horiz-adv-x="662" d="M464 865L371 716H264L166 865H221L319 790L415 865H464ZM25 42L361 614H150L65 439H32L39 664H615V652L247 49H508L623 241H657L613 0H25V42Z" />
<glyph unicode="&#x17e;" glyph-name="zcaron" horiz-adv-x="525" d="M410 775L315 582H228L134 775H179L275 674L365 775H410ZM18 24L271 455H138L67 301H34V517L124 505H503V499L240 50H377L472 217H507L484 0H18V24Z" />
<glyph unicode="&#x192;" glyph-name="florin" horiz-adv-x="582" d="M65 351H191Q209 408 247 455T331 536T422 588T503 607Q518 607 534 602T564 588T587 563T596 528Q596 505 587 488T564 459T530 440T489 430Q479 482 465 513T431 544Q396 544 383 427L374
351H525L516 295H368L354 171Q340 53 299 -25T206 -150T103 -216T20 -236Q0 -236 -17 -229T-47 -211T-67 -186T-74 -158Q-74 -122 -48 -100T27 -64Q44 -121 64 -147T99 -174Q105 -174 110 -171T121 -159T130 -134T137 -92L179 295H55L65 351Z" />
<glyph unicode="&#x1fa;" glyph-name="Aringacute" horiz-adv-x="716" d="M-1 41L60 58L310 670L354 679L409 690L659 53L717 41V0H348V41L426 55L370 215H178L120 62L228 41V0H-1V41ZM198 268H351L278 478L198 268ZM568 1088V1074L398 939H341L420 1088H568ZM252
812Q252 834 260 853T284 887T319 910T365 919Q416 919 446 889T476 814Q476 770 445 739T363 707Q312 707 282 737T252 812ZM299 814Q299 784 318 764T365 744Q392 744 410 763T429 812Q429 842 410 862T363 882Q336 882 318 863T299 814Z" />
<glyph unicode="&#x1fb;" glyph-name="aringacute" horiz-adv-x="556" d="M161 -15Q129 -15 104 -5T60 24T33 66T23 116Q23 147 33 170T65 210T121 241T204 266L298 288V376Q296 393 292 409T278 437T256 457T224 465Q208 465 198 460L196 332Q183 326 161 322T114
318Q80 318 60 333T39 382Q39 407 60 432T118 477T203 509T303 521Q345 521 379 513T437 484T475 432T488 354V107Q488 77 498 71T529 65H559V36Q533 22 507 11Q484 2 457 -5T404 -13Q362 -13 336 4T305 69H301Q292 55 280 40T250 13T211 -7T161 -15ZM264 82Q283
82 298 93V249H297Q245 234 223 208T201 152Q201 118 219 100T264 82ZM167 916Q167 938 175 957T199 991T234 1014T280 1023Q331 1023 361 993T391 918Q391 874 360 843T278 811Q227 811 197 841T167 916ZM214 918Q214 888 233 868T280 848Q307 848 325 867T344
916Q344 946 325 966T278 986Q251 986 233 967T214 918ZM473 945V931L303 796H246L325 945H473Z" />
<glyph unicode="&#x1fc;" glyph-name="AEacute" horiz-adv-x="975" d="M747 865V851L577 716H520L599 865H747ZM630 298V73Q658 43 709 43H798L915 246H953L916 0H350V41L427 59V301H253L126 62L232 41V0H-1V41L58 58L363 605L268 623V664H932V455H894L821 620H630V345H714L748
464H787V184H748L714 298H630ZM418 614L276 345H427V614H418Z" />
<glyph unicode="&#x1fd;" glyph-name="aeacute" horiz-adv-x="810" d="M619 775V768L468 582H427L480 775H619ZM161 -15Q129 -15 104 -5T60 24T33 66T23 116Q23 147 33 171T69 213T136 247T242 274L299 285V358Q299 403 281 434T222 465Q207 465 199 460L196 332Q181
326 159 322T113 318Q79 318 59 334T39 382Q39 406 60 431T117 476T200 508T299 521Q351 521 381 506T428 469Q451 488 486 504T561 521Q657 521 709 463T774 301L472 271V252Q480 219 498 193T540 150T593 123T652 113Q688 113 713 121T766 143L781 121Q760 93
735 69T679 26T615 -2T541 -13Q481 -13 433 11T351 81Q330 64 310 47T266 16T218 -6T161 -15ZM472 312L590 324Q588 355 583 383T568 431T547 464T520 476Q509 476 500 470T485 448T476 403T472 328V312ZM263 82Q280 82 296 92T324 129Q299 184 299 248Q248 237
225 209T201 152Q201 118 219 100T263 82Z" />
<glyph unicode="&#x1fe;" glyph-name="Oslashacute" horiz-adv-x="809" d="M132 83Q83 127 55 189T26 331Q26 407 58 471T142 583T263 657T406 684Q470 684 530 667T642 616L706 683H762L674 591Q724 547 753 485T783 341Q783 261 751 196T664 85T541 14T400 -12Q334
-12 274 5T165 57L81 -31H24L132 83ZM419 33Q447 33 471 49T514 98T542 184T552 311Q552 383 538 448L282 180Q304 110 340 72T419 33ZM257 359Q257 322 260 289T270 226L526 495Q506 559 471 599T387 639Q360 639 337 623T295 573T267 486T257 359ZM598 865V851L428
716H371L450 865H598Z" />
<glyph unicode="&#x1ff;" glyph-name="oslashacute" horiz-adv-x="630" d="M30 -48L116 49Q71 86 48 137T25 247Q25 307 47 357T109 443T201 500T315 520Q366 520 410 508T490 472L551 541H601L520 449Q560 414 582 366T605 260Q605 199 583 149T522 62T430 5T315
-15Q264 -15 222 -4T147 27L80 -48H30ZM295 481Q274 481 261 464T240 423T230 370T227 318Q227 283 229 250T238 187L384 352Q370 409 348 445T295 481ZM401 194Q401 223 399 251T393 306L248 142Q262 89 284 57T334 24Q367 24 384 68T401 194ZM484 775V768L333
582H292L345 775H484Z" />
<glyph unicode="&#x218;" glyph-name="Scommaaccent" horiz-adv-x="582" d="M143 -219Q197 -200 220 -181T244 -137Q244 -116 228 -103T189 -88V-81Q203 -55 226 -43T279 -31Q317 -31 344 -53T371 -113Q371 -160 318 -195T151 -247L143 -219ZM35 252H67L164 67Q183
52 207 42T267 31Q312 31 340 59T369 128Q369 171 346 193T277 232L219 254Q131 286 93 337T55 459Q55 496 71 536T123 608T211 662T339 683Q383 683 429 672T517 644V451H484L408 619Q397 629 379 636T335 643Q286 643 257 616T227 548Q227 503 255 479T341 434L409
410Q484 383 517 340T550 239Q550 177 526 130T460 52T366 4T256 -13Q200 -13 151 -1T57 27L35 252Z" />
<glyph unicode="&#x219;" glyph-name="scommaaccent" horiz-adv-x="485" d="M98 -219Q152 -200 175 -181T199 -137Q199 -116 183 -103T144 -88V-81Q158 -55 181 -43T234 -31Q272 -31 299 -53T326 -113Q326 -160 273 -195T106 -247L98 -219ZM199 -15Q154 -15 118
-7T39 16L32 184H65L135 55Q143 47 161 37T202 27Q238 27 259 45T281 93Q281 116 268 134T223 163L150 190Q86 213 62 254T38 346Q38 384 54 416T101 472T177 509T279 523Q315 523 355 515T429 493V337H399L336 455Q323 466 307 473T271 480Q242 480 222 463T202
419Q202 390 219 375T264 348L336 321Q392 301 422 266T453 178Q453 135 434 100T380 39T300 -1T199 -15Z" />
<glyph unicode="&#x21a;" glyph-name="uni021A" horiz-adv-x="657" d="M191 -219Q245 -200 268 -181T292 -137Q292 -116 276 -103T237 -88V-81Q251 -55 274 -43T327 -31Q365 -31 392 -53T419 -113Q419 -160 366 -195T199 -247L191 -219ZM642 442H611L540 613H431V59L529
41V0H127V41L226 59V613H117L46 442H15V664H642V442Z" />
<glyph unicode="&#x21b;" glyph-name="uni021B" horiz-adv-x="402" d="M73 -219Q127 -200 150 -181T174 -137Q174 -116 158 -103T119 -88V-81Q133 -55 156 -43T209 -31Q247 -31 274 -53T301 -113Q301 -160 248 -195T81 -247L73 -219ZM210 -15Q135 -15 99 24T64
138L67 443H-6V480L68 508L243 627H259V505H406V443H259V135Q264 115 274 103T298 83T326 72T356 69Q371 69 382 70T401 74L407 41Q367 19 320 2T210 -15Z" />
<glyph unicode="&#x237;" glyph-name="uni0237" horiz-adv-x="341" d="M-30 -198Q-6 -179 13 -162T47 -123T69 -68T77 14V399L14 450V470L273 521V103Q273 59 272 23T263 -43T240 -98T196 -145Q167 -168 133 -182T68 -205T13 -216T-24 -219L-30 -198Z" />
<glyph unicode="&#x2c6;" glyph-name="circumflex" horiz-adv-x="400" d="M62 582L157 775H244L338 582H293L197 683L107 582H62Z" />
<glyph unicode="&#x2c7;" glyph-name="caron" horiz-adv-x="400" d="M338 775L243 582H156L62 775H107L203 674L293 775H338Z" />
<glyph unicode="&#x2d8;" glyph-name="breve" horiz-adv-x="400" d="M200 582Q168 582 142 592T97 626T68 685T57 775H91Q101 724 128 698T200 671Q248 671 274 697T312 775H344Q344 681 304 632T200 582Z" />
<glyph unicode="&#x2d9;" glyph-name="dotaccent" horiz-adv-x="400" d="M200 567Q162 567 136 593T109 659Q109 678 116 695T135 724T164 744T200 752Q219 752 236 745T266 725T286 695T294 659Q294 620 267 594T200 567Z" />
<glyph unicode="&#x2da;" glyph-name="ring" horiz-adv-x="400" d="M88 669Q88 691 96 710T120 744T155 767T201 776Q252 776 282 746T312 671Q312 627 281 596T199 564Q148 564 118 594T88 669ZM135 671Q135 641 154 621T201 601Q228 601 246 620T265 669Q265
699 246 719T199 739Q172 739 154 720T135 671Z" />
<glyph unicode="&#x2db;" glyph-name="ogonek" horiz-adv-x="400" d="M237 13Q220 -11 210 -28T195 -58T189 -77T188 -90Q188 -112 201 -125T234 -138Q261 -138 289 -110L311 -126Q299 -149 286 -169T257 -205T218 -229T167 -238Q123 -238 96 -214T68 -147Q68
-130 74 -113T96 -77T142 -36T216 13H237Z" />
<glyph unicode="&#x2dc;" glyph-name="tilde" horiz-adv-x="400" d="M157 612Q127 622 107 624T71 623T45 607T24 577L0 587L6 604Q21 647 38 675T78 718T129 732T196 719L240 704Q286 689 317 697T377 748L401 738L392 715Q374 668 356 639T316 596T267 583T202
597L157 612Z" />
<glyph unicode="&#x2dd;" glyph-name="hungarumlaut" horiz-adv-x="400" d="M202 775V766L82 582H42L78 775H202ZM369 775V766L249 582H207L244 775H369Z" />
</font>
</defs>
</svg>
