<?xml version="1.0" standalone="no"?> <!DOCTYPE svg PUBLIC "-//W3C//DTD SVG 1.0//EN" "http://www.w3.org/TR/2001/REC-SVG-20010904/DTD/svg10.dtd" > <svg xmlns="http://www.w3.org/2000/svg" width="100%" height="100%">
<defs >
<font horiz-adv-x="513" ><font-face
    font-family=""
    units-per-em="1000"
    panose-1="2 0 6 3 8 0 0 2 0 4"
    ascent="760"
    descent="-240"
    alphabetic="0" />
<missing-glyph horiz-adv-x="161" />
<glyph unicode=" " glyph-name="space" horiz-adv-x="161" />
<glyph unicode="!" glyph-name="exclam" horiz-adv-x="270" d="M188 697L148 194H122L82 697H188ZM135 -9Q108 -9 88 11T68 58Q68 85 88 105T135 125Q162 125 182 105T202 58Q202 31 182 11T135 -9Z" />
<glyph unicode="&quot;" glyph-name="quotedbl" horiz-adv-x="426" d="M69 724H174L125 478H105L69 724ZM252 724H357L308 478H288L252 724Z" />
<glyph unicode="#" glyph-name="numbersign" horiz-adv-x="591" d="M85 441H211L238 594H275L248 441H405L432 594H468L441 441H564V402H434L400 209H520V170H393L363 0H327L357 170H200L170 0H133L163 170H41V209H170L204 402H85V441ZM207 209H364L398 402H241L207 209Z" />
<glyph unicode="$" glyph-name="dollar" horiz-adv-x="542" d="M55 201H80L134 53Q149 42 175 31T239 15L253 273L209 287Q130 310 100 352T69 455Q69 489 82 521T122 578T186 620T274 639L280 750H314L308 640Q332 639 355 634T398 623T434 610T463 598V440H439L389
577Q378 584 357 594T306 608L292 367L348 350Q426 325 461 288T496 192Q496 144 476 106T424 41T351 -2T270 -20L264 -123H231L237 -19Q183 -17 140 -3T60 30L55 201ZM286 263L272 14Q297 14 321 23T364 49T394 89T405 143Q405 185 381 213T303 258L286 263ZM155
494Q155 452 176 424T259 377L272 608Q220 604 188 573T155 494Z" />
<glyph unicode="%" glyph-name="percent" horiz-adv-x="787" d="M587 630H625L182 -50H145L587 630ZM195 577Q176 577 162 566T139 537T126 497T121 454Q121 425 127 398T144 350T171 316T208 303Q226 303 240 314T263 343T276 383T281 427Q281 459 274 486T256
534T229 565T195 577ZM198 275Q167 275 140 286T93 319T62 369T50 434Q50 471 63 502T97 556T146 592T204 605Q239 605 267 591T314 555T343 504T353 445Q353 408 341 377T307 324T258 288T198 275ZM565 284Q546 284 532 273T509 244T496 204T491 161Q491 132 497
105T514 57T541 23T578 10Q596 10 610 21T633 50T646 90T651 134Q651 166 644 193T626 241T599 272T565 284ZM568 -19Q537 -19 510 -7T463 26T432 76T420 141Q420 178 433 209T467 264T516 300T574 313Q609 313 637 299T684 262T713 210T723 151Q723 115 711 84T677
30T628 -6T568 -19Z" />
<glyph unicode="&amp;" glyph-name="ampersand" horiz-adv-x="767" d="M661 428L547 219Q539 205 531 191T511 161Q553 110 584 82T647 54Q670 54 690 63T734 86L748 70Q733 53 716 38T681 11T642 -7T598 -13Q575 -12 558 -7T524 10T490 40T451 86Q408 41 357
11T247 -20Q191 -20 150 -4T83 38T45 99T32 169Q32 201 46 229T85 283T140 329T204 371Q181 393 164 411T135 448T118 484T112 526Q112 564 129 593T175 642T238 672T309 682Q381 682 425 651T469 566Q469 539 459 518T428 477T379 438T313 397Q333 377 356 351T408
292Q432 263 452 236T492 186Q514 223 536 266L616 429L535 450V473H745V450L661 428ZM343 220Q308 263 278 294T224 350Q174 314 151 283T127 205Q127 177 137 150T168 101T219 66T289 52Q329 52 363 65T431 110L343 220ZM200 555Q200 536 206 521T223 490T252
457T292 418Q318 439 335 456T363 490T378 524T383 564Q383 581 376 597T357 625T328 645T292 653Q256 653 228 628T200 555Z" />
<glyph unicode="&apos;" glyph-name="quotesingle" horiz-adv-x="243" d="M69 724H174L125 478H105L69 724Z" />
<glyph unicode="(" glyph-name="parenleft" horiz-adv-x="343" d="M293 -180Q203 -87 151 27T99 273Q99 340 113 403T154 523T216 633T298 732H335Q297 679 268 628T218 522T188 406T177 273Q177 205 187 145T216 31T264 -76T331 -180H293Z" />
<glyph unicode=")" glyph-name="parenright" horiz-adv-x="343" d="M49 732Q139 639 191 525T243 279Q243 144 189 29T45 -180H7Q46 -128 75 -77T125 30T155 146T165 279Q165 347 156 406T127 521T78 627T11 732H49Z" />
<glyph unicode="*" glyph-name="asterisk" horiz-adv-x="393" d="M240 509L254 375L235 371L187 497L65 442L55 458L160 542L71 640L83 654L195 583L261 697L278 691L244 563L373 536L372 518L240 509Z" />
<glyph unicode="+" glyph-name="plus" horiz-adv-x="586" d="M315 219V1H272V219H56V258H272V475H315V258H530V219H315Z" />
<glyph unicode="," glyph-name="comma" horiz-adv-x="250" d="M39 -145Q81 -115 103 -84T126 -20Q126 7 110 27T63 56Q61 68 63 80T73 103T93 120T122 127Q134 127 147 121T172 102T191 71T199 28Q199 -32 161 -77T56 -166L39 -145Z" />
<glyph unicode="-" glyph-name="hyphen" horiz-adv-x="373" d="M54 302H318V238H54V302Z" />
<glyph unicode="." glyph-name="period" horiz-adv-x="244" d="M123 -9Q97 -9 77 11T57 58Q57 85 77 105T123 125Q151 125 170 105T190 58Q190 31 171 11T123 -9Z" />
<glyph unicode="/" glyph-name="slash" horiz-adv-x="423" d="M-39 -194L368 749L402 733L-6 -209L-39 -194Z" />
<glyph unicode="0" glyph-name="zero" horiz-adv-x="606" d="M289 481Q259 481 234 467T189 427T159 364T148 278Q148 235 157 189T187 104T241 41T322 16Q384 16 421 70T458 223Q458 277 446 324T411 406T357 461T289 481ZM307 -19Q249 -19 200 0T116 54T60 138T40
248Q40 301 61 349T119 435T202 494T302 516Q362 516 411 496T494 439T548 355T567 249Q567 195 546 147T490 62T407 3T307 -19Z" />
<glyph unicode="1" glyph-name="one" horiz-adv-x="372" d="M251 44L353 28V0H47V28L155 43V437H38V464L247 506H251V44Z" />
<glyph unicode="2" glyph-name="two" horiz-adv-x="445" d="M134 77H417V0H38V23L78 65Q122 113 157 152T217 224T255 286T269 344Q269 389 244 417T176 445Q140 445 117 427T72 379L51 392Q74 445 116 481T219 517Q288 517 325 479T363 386Q363 354 350 325T315
267T265 209T205 148L134 77Z" />
<glyph unicode="3" glyph-name="three" horiz-adv-x="417" d="M99 -203Q64 -203 37 -185T10 -135Q10 -115 23 -100T56 -81Q62 -89 71 -100T90 -124T112 -149T132 -169Q205 -166 244 -124T283 -16Q283 53 232 94T91 134V177L125 186Q193 217 227 259T262 347Q262
393 235 419T166 445Q131 445 107 427T64 380L41 392Q51 417 67 440T105 480T153 507T210 517Q244 517 271 507T317 479T345 437T355 384Q355 354 345 330T317 285T278 248T233 218L203 199V197Q234 194 265 182T320 148T359 96T374 27Q374 -23 348 -65T282 -138T194
-186T99 -203Z" />
<glyph unicode="4" glyph-name="four" horiz-adv-x="563" d="M328 19H17V54L394 511L420 510V85H558V19H420V-195H328V19ZM328 85V383L85 85H328Z" />
<glyph unicode="5" glyph-name="five" horiz-adv-x="377" d="M207 62Q207 92 199 120T173 178T125 238T54 306L127 503H327V414H124L113 385Q162 343 197 307T256 237T290 168T301 94Q301 26 274 -24T205 -113T113 -179T15 -226L5 -204Q28 -191 62 -169T129 -115T184
-39T207 62Z" />
<glyph unicode="6" glyph-name="six" horiz-adv-x="564" d="M549 678Q493 654 436 621T328 547T237 458T175 354Q205 383 243 399T316 415Q361 415 397 400T459 358T499 294T513 213Q513 169 496 128T448 53T374 0T279 -20Q232 -20 191 -4T117 42T67 118T48 222Q48
313 91 390T204 529T362 634T541 704L549 678ZM267 364Q241 364 213 353T165 322Q153 281 153 240Q153 181 165 138T197 67T243 26T298 12Q348 12 379 52T411 172Q411 216 400 251T370 312T324 350T267 364Z" />
<glyph unicode="7" glyph-name="seven" horiz-adv-x="492" d="M41 -177L393 412H40V503H473V494L171 -56L95 -205L41 -177Z" />
<glyph unicode="8" glyph-name="eight" horiz-adv-x="509" d="M40 146Q40 180 53 206T88 254T137 293T192 328L154 355Q118 381 94 416T69 503Q69 538 85 570T129 627T196 666T279 681Q317 681 349 669T404 637T441 591T455 534Q455 503 443 478T412 432T367 393T316
357L343 339Q401 300 435 259T469 160Q469 119 450 86T401 29T333 -7T255 -20Q210 -20 171 -8T102 26T57 78T40 146ZM211 314Q166 277 149 240T132 161Q132 132 141 105T167 56T209 23T265 10Q295 10 317 19T354 44T375 78T382 117Q382 141 372 163T344 206T303
246T254 284L211 314ZM153 543Q153 499 176 468T245 407L295 372Q332 408 349 442T367 517Q367 552 358 577T333 619T298 644T258 652Q237 652 218 645T185 625T162 591T153 543Z" />
<glyph unicode="9" glyph-name="nine" horiz-adv-x="558" d="M23 -183Q84 -158 140 -125T243 -52T326 34T382 133Q352 107 317 92T249 77Q204 77 167 92T104 135T63 199T48 281Q48 324 65 366T113 441T187 494T282 515Q327 515 368 499T441 450T492 372T511 268Q511
175 471 98T364 -39T211 -142T32 -209L23 -183ZM298 127Q324 127 348 137T393 167Q398 188 401 210T405 255Q405 315 394 358T364 428T320 469T268 483Q216 483 184 441T151 320Q151 276 162 240T194 179T240 141T298 127Z" />
<glyph unicode=":" glyph-name="colon" horiz-adv-x="247" d="M125 -9Q99 -9 79 11T59 58Q59 85 79 105T125 125Q152 125 172 105T192 58Q192 31 172 11T125 -9ZM125 340Q98 340 79 360T59 407Q59 433 78 453T125 473Q152 473 172 453T192 407Q192 380 172 360T125 340Z" />
<glyph unicode=";" glyph-name="semicolon" horiz-adv-x="250" d="M40 -145Q82 -115 104 -84T127 -20Q127 7 110 27T64 56Q61 68 63 80T73 103T93 120T122 127Q134 127 147 121T172 102T191 71T199 28Q199 -32 161 -77T56 -166L40 -145ZM130 340Q103 340 84 360T64
407Q64 433 83 453T130 473Q157 473 177 453T197 407Q197 380 177 360T130 340Z" />
<glyph unicode="&lt;" glyph-name="less" horiz-adv-x="588" d="M106 236L529 42V-1L57 219V254L529 474V431L106 236Z" />
<glyph unicode="=" glyph-name="equal" horiz-adv-x="586" d="M56 299V338H530V299H56ZM56 158V197H530V158H56Z" />
<glyph unicode="&gt;" glyph-name="greater" horiz-adv-x="588" d="M481 236L58 430V474L530 253V218L58 -1V41L481 236Z" />
<glyph unicode="?" glyph-name="question" horiz-adv-x="360" d="M70 698L102 691Q137 683 177 663T253 611T311 538T334 448Q334 354 229 317L146 287L150 194H114L90 360L213 400Q257 415 278 432T299 473Q299 491 286 509T248 543T188 570T110 587L70 592V698ZM132
-9Q105 -9 85 11T65 58Q65 85 85 105T132 125Q159 125 179 105T199 58Q199 31 179 11T132 -9Z" />
<glyph unicode="@" glyph-name="at" horiz-adv-x="936" d="M520 198H518L476 139Q460 118 442 96T403 57T362 29T319 18Q280 18 261 45T242 110Q242 154 257 198T297 282T354 356T421 415T489 455T552 469Q569 469 586 462T616 445L627 481H691L592 152Q575 93
586 70T630 47Q654 47 687 62T751 111T803 197T825 322Q825 386 802 442T738 540T639 606T514 630Q442 630 372 600T248 515T160 384T126 215Q126 126 153 59T227 -53T339 -120T476 -143Q528 -143 565 -133T620 -115V-132Q619 -133 605 -139T566 -152T508 -164T437
-170Q365 -170 296 -151T173 -89T85 20T52 183Q52 249 71 310T125 424T205 520T304 593T416 641T534 658Q618 658 684 632T795 562T863 460T887 336Q887 262 858 203T786 102T692 39T599 17Q570 17 548 25T514 51T499 95T508 158L520 198ZM372 86Q393 86 421 112T478
178T529 260T564 339L583 399Q571 414 556 425T524 437Q493 437 460 409T400 336T356 239T338 135Q338 86 372 86Z" />
<glyph unicode="A" glyph-name="A" horiz-adv-x="669" d="M-8 23L66 42L297 669L329 676L368 684L604 41L677 23V0H412V23L491 41L423 229H177L112 46L228 23V0H-8V23ZM194 278H406L300 574H299L194 278Z" />
<glyph unicode="B" glyph-name="B" horiz-adv-x="610" d="M36 23L113 42V621L36 641V664H268Q341 664 390 654T470 626T512 581T525 521Q525 486 511 460T471 414T413 383T344 364V362Q389 360 430 349T504 315T555 261T574 184Q574 95 500 47T285 -1L36 0V23ZM219
343V65Q233 51 260 39T320 27Q387 27 424 63T461 170Q461 207 448 237T414 290T367 326T312 343H219ZM219 369Q317 371 368 403T420 508Q420 574 369 607T219 639V369Z" />
<glyph unicode="C" glyph-name="C" horiz-adv-x="717" d="M393 -24Q304 -24 239 5T132 83T69 190T48 310Q48 389 78 457T161 575T283 653T430 681Q500 681 550 666T640 628L645 457H618L566 591Q536 614 498 630T404 647Q353 647 310 625T236 562T186 467T168
347Q168 262 189 199T245 93T328 31T426 10Q453 10 475 15T514 29T545 47T569 65L645 213H673L645 42Q584 11 525 -6T393 -24Z" />
<glyph unicode="D" glyph-name="D" horiz-adv-x="757" d="M219 65Q238 45 273 37T344 29Q404 30 451 54T530 118T580 213T598 328Q598 410 568 471T485 571T364 627T219 639V65ZM36 24L113 42V620L36 641V664L333 668Q414 664 483 642T602 579T681 480T710 347Q710
263 677 198T585 87T444 19T264 -3L36 0V24Z" />
<glyph unicode="E" glyph-name="E" horiz-adv-x="603" d="M219 326V60Q237 38 269 35H446L547 200H574L523 0H36V23L113 42V619L36 641V664H461L534 668V488H507L454 630H219V361H352L384 456H408V237H381L352 326H219Z" />
<glyph unicode="F" glyph-name="F" horiz-adv-x="563" d="M219 323V42L321 28V0H36V24L113 42V619L36 641V664H456L533 668V488H506L453 630H219V358H352L386 454H409V233H385L352 323H219Z" />
<glyph unicode="G" glyph-name="G" horiz-adv-x="735" d="M407 -24Q315 -24 248 5T137 81T72 189T51 314Q51 388 83 454T170 571T297 651T449 681Q513 681 562 666T652 628L653 462H629L570 599Q539 621 508 632T437 643Q378 643 330 621T247 557T194 459T175
332Q175 249 197 190T257 92T342 35T442 17Q483 17 511 23T556 38V236L443 252V280H706V255L660 243V48L628 32Q613 24 591 14T540 -4T478 -18T407 -24Z" />
<glyph unicode="H" glyph-name="H" horiz-adv-x="763" d="M462 23L544 42V328H219V42L301 23V0H36V23L113 42V620L36 641V664H301V641L219 620V361H544V620L462 641V664H726V641L649 620V42L726 23V0H462V23Z" />
<glyph unicode="I" glyph-name="I" horiz-adv-x="332" d="M36 24L113 42V620L36 641V664H296V641L219 620V42L296 23V0H36V24Z" />
<glyph unicode="J" glyph-name="J" horiz-adv-x="341" d="M228 55Q228 0 219 -46T184 -128T116 -188T5 -223L-1 -200Q38 -185 62 -164T99 -115T118 -50T123 29V620L36 641V664H305V641L228 620V55Z" />
<glyph unicode="K" glyph-name="K" horiz-adv-x="667" d="M36 23L113 42V620L36 641V664H301V641L219 620V42L301 23V0H36V23ZM232 336V340L502 620L411 641V664H627V641L552 620L319 387L604 38L666 23V0H501L232 336Z" />
<glyph unicode="L" glyph-name="L" horiz-adv-x="590" d="M219 60Q228 49 240 43T270 36H446L546 231H575L527 0H36V24L113 42V619L36 641V664H310V641L219 620V60Z" />
<glyph unicode="M" glyph-name="M" horiz-adv-x="886" d="M31 23L108 42L132 616L56 641V664H253L455 186L638 651L643 664H832V641L754 621L777 42L855 23V0H575V23L672 42L655 598L462 105L433 30H414L385 105L171 596L152 45L262 24V0H31V23Z" />
<glyph unicode="N" glyph-name="N" horiz-adv-x="723" d="M594 -11L155 555L156 47L245 24V0H41V24L114 45V596Q101 610 83 620T47 636L30 642V664H203L579 177L578 618L490 640V664H693V640L620 619V113L622 -10L594 -11Z" />
<glyph unicode="O" glyph-name="O" horiz-adv-x="781" d="M405 7Q461 7 501 33T568 102T606 199T619 311Q619 375 601 436T550 545T473 621T376 650Q320 650 280 625T213 559T173 464T160 352Q160 295 176 234T222 122T299 40T405 7ZM389 681Q471 681 535 652T643
575T710 468T733 346Q733 258 705 189T629 73T520 1T390 -24Q322 -24 260 1T150 72T75 183T47 328Q47 409 75 474T151 585T260 656T389 681Z" />
<glyph unicode="P" glyph-name="P" horiz-adv-x="552" d="M266 306Q302 310 333 322T386 354T421 402T434 464Q434 496 423 525T386 578T319 618T219 638V42L321 24V0H36V24L113 42V620L36 641V664H248Q388 664 462 615T537 479Q537 435 515 399T456 336T369 295T266
278V306Z" />
<glyph unicode="Q" glyph-name="Q" horiz-adv-x="781" d="M389 681Q471 681 535 652T643 575T710 469T733 350Q733 279 712 220T655 114T571 38T467 -5Q511 -37 552 -66T633 -118T713 -154T797 -168Q904 -168 981 -105L996 -122Q982 -136 963 -154T915 -189T846
-216T751 -227Q689 -227 636 -210T532 -163T427 -92T310 -4Q256 9 209 38T125 110T68 210T47 333Q47 412 75 476T151 586T260 656T389 681ZM405 16Q461 16 501 41T568 109T606 205T619 316Q619 380 601 440T550 547T473 622T376 650Q320 650 280 626T213 562T173
468T160 356Q160 298 175 238T220 129T297 48T405 16Z" />
<glyph unicode="R" glyph-name="R" horiz-adv-x="654" d="M36 23L113 42V621L36 641V664L265 667Q411 668 480 624T550 504Q550 472 539 446T507 400T459 364T397 338V336L590 42L657 23V0H493L335 245Q326 259 319 270T307 289Q301 299 296 306H219V42L296 23V0H36V23ZM219
339H301Q364 346 403 385T443 482Q443 518 428 548T383 599T313 631T219 642V339Z" />
<glyph unicode="S" glyph-name="S" horiz-adv-x="521" d="M47 204H72L133 52Q151 38 180 26T252 14Q313 14 350 49T388 144Q388 164 383 182T365 217T328 252T268 286L219 309Q176 329 147 348T99 388T72 435T64 494Q64 534 81 569T129 629T202 669T294 684Q319
684 342 679T386 667T421 652T448 638L454 485H430L373 616Q356 631 335 641T283 652Q226 652 194 619T162 540Q162 515 168 497T187 463T223 434T278 404L326 381Q376 357 408 335T458 291T484 244T491 192Q491 144 469 105T412 39T332 -4T242 -19Q179 -19 133
-2T56 33L47 204Z" />
<glyph unicode="T" glyph-name="T" horiz-adv-x="626" d="M531 664L595 671L597 482H571L517 629H366V42L457 23V0H167V23L260 42V629H109L55 482H29L31 671L95 664H531Z" />
<glyph unicode="U" glyph-name="U" horiz-adv-x="735" d="M365 -23Q293 -23 243 -3T162 53T117 141T103 254V619L25 641V664H298V641L212 619V273Q212 222 220 178T249 101T303 49T388 30Q487 30 533 87T585 247L584 610L469 641V664H710V641L632 616V259Q632
188 612 135T555 47T471 -5T365 -23Z" />
<glyph unicode="V" glyph-name="V" horiz-adv-x="625" d="M44 621L-5 641V664H237V641L159 621L347 111L530 612L426 639V664H630V641L577 616L335 -12H289L44 621Z" />
<glyph unicode="W" glyph-name="W" horiz-adv-x="886" d="M447 420L293 -7H236L44 621L-5 640V664H232V641L154 621L302 126L427 481L382 621L315 641V664H568V639L491 621L647 135L790 612L685 639V664H891V641L839 617L643 -7H585L447 420Z" />
<glyph unicode="X" glyph-name="X" horiz-adv-x="655" d="M69 41L282 331L93 620L24 641V664H294V641L215 620L355 399H357L511 611L415 639V664H637V641L568 620L380 361L590 42L655 24V0H390V24L467 42L306 296H304L131 44L211 24V0H0V24L69 41Z" />
<glyph unicode="Y" glyph-name="Y" horiz-adv-x="615" d="M360 298V42L439 24V0H174V24L254 42V275L54 626L2 641V664H256V641L176 621L334 326L506 616L410 641V664H613V641L557 620L360 298Z" />
<glyph unicode="Z" glyph-name="Z" horiz-adv-x="632" d="M30 20L430 628H132L71 476H45L50 670L127 664H567V660L158 38H492L587 218H617L574 0H30V20Z" />
<glyph unicode="[" glyph-name="bracketleft" horiz-adv-x="302" d="M108 -181V733H293V703H193V-151H293V-181H108Z" />
<glyph unicode="\" glyph-name="backslash" horiz-adv-x="423" d="M427 -209L20 733L53 749L460 -194L427 -209Z" />
<glyph unicode="]" glyph-name="bracketright" horiz-adv-x="302" d="M194 733V-181H9V-151H109V703H9V733H194Z" />
<glyph unicode="^" glyph-name="asciicircum" horiz-adv-x="430" d="M45 485L197 756H234L385 485H344L211 688L82 485H45Z" />
<glyph unicode="_" glyph-name="underscore" horiz-adv-x="408" d="M4 -169H404V-207H4V-169Z" />
<glyph unicode="`" glyph-name="grave" horiz-adv-x="262" d="M140 757L194 554H165L57 749V757H140Z" />
<glyph unicode="a" glyph-name="a" horiz-adv-x="470" d="M156 -15Q134 -15 113 -8T74 13T46 50T35 103Q35 163 77 195T198 247L297 272V329Q297 386 272 418T205 450Q184 450 168 444T141 430L136 328Q118 323 95 323Q73 323 60 334T46 365Q46 383 62 404T105
444T168 474T246 486Q324 486 357 450T391 341V66Q391 49 397 43T422 37H472V21Q456 11 438 4Q423 -2 406 -7T374 -12Q334 -12 318 9T299 67H295Q281 50 267 36T236 10T200 -8T156 -15ZM207 49Q238 49 260 66T297 102V246L199 213Q162 201 147 181T131 132Q131
100 149 75T207 49Z" />
<glyph unicode="b" glyph-name="b" horiz-adv-x="530" d="M213 -16Q179 -16 150 -10T100 5L63 20V660L1 687V699L157 746V407Q167 419 182 433T218 459T261 478T312 486Q346 486 379 474T438 434T480 365T496 262Q496 206 472 156T407 67T316 7T213 -16ZM256 428Q222
428 198 415T157 385V67Q171 48 199 37T255 25Q285 25 311 37T358 74T389 137T401 230Q401 273 390 309T358 371T312 413T256 428Z" />
<glyph unicode="c" glyph-name="c" horiz-adv-x="469" d="M249 -14Q206 -14 167 1T99 47T52 124T34 231Q34 288 55 335T110 417T189 469T278 488Q309 488 338 480T391 458T428 424T442 383Q442 359 425 345T380 330Q371 330 365 331T358 332L329 425Q316 436 300
445T256 454Q227 454 203 441T162 405T134 350T124 277Q124 229 137 190T174 122T227 79T292 63Q317 63 338 70T378 87T410 110T434 133L451 121Q445 111 430 89T391 44T331 4T249 -14Z" />
<glyph unicode="d" glyph-name="d" horiz-adv-x="554" d="M300 703L468 746V52L535 34V16L387 -14L377 53Q366 41 351 29T318 7T280 -9T236 -16Q187 -16 149 3T86 54T47 127T34 212Q34 273 57 323T119 410T205 465T301 485Q321 485 340 481T374 470V655L300 688V703ZM283
46Q311 46 334 57T374 82V390Q369 397 361 407T339 425T307 440T265 446Q238 446 213 435T169 401T139 342T127 253Q127 219 135 183T163 116T211 66T283 46Z" />
<glyph unicode="e" glyph-name="e" horiz-adv-x="479" d="M245 -14Q193 -14 154 6T88 60T48 137T34 226Q34 280 53 328T103 411T176 467T262 488Q339 488 386 441T444 294H122Q121 288 121 282T121 269Q121 221 133 183T167 118T220 77T289 63Q314 63 336 70T377
88T410 111T435 133L451 121Q438 100 421 77T378 33T321 -1T245 -14ZM234 452Q192 452 163 418T125 324H335Q327 385 303 418T234 452Z" />
<glyph unicode="f" glyph-name="f" horiz-adv-x="315" d="M29 22L89 42V426H17V454L90 476V486Q91 542 109 590T155 673T221 727T299 747Q323 747 346 740T387 722T416 694T427 660Q427 627 403 616T348 608L329 694Q318 703 305 708T272 714Q255 714 239 707T209
681T188 634T181 561L182 473H314V432H183V42L257 22V0H29V22Z" />
<glyph unicode="g" glyph-name="g" horiz-adv-x="496" d="M366 427V424Q386 404 401 379T417 318Q417 280 401 250T358 197T297 163T225 151Q179 151 139 168Q129 157 123 146T117 122Q117 107 129 98T165 86L356 74Q420 69 452 41T484 -31Q484 -71 461 -108T397
-175T303 -221T192 -239Q114 -239 66 -209T18 -118Q18 -84 45 -55T110 -5L121 0V4Q108 5 95 9T71 22T53 44T46 76Q46 103 67 128T117 178V180Q85 200 65 233T44 314Q44 353 58 384T98 438T156 473T229 486Q262 486 287 479T345 460L486 476V419L366 427ZM150 -1Q135
-16 122 -37T109 -91Q109 -138 144 -166T248 -194Q291 -194 322 -183T372 -154T400 -116T409 -77Q409 -52 393 -36T349 -14L150 -1ZM137 348Q138 270 164 225T238 180Q273 180 298 211T323 297Q322 380 292 420T220 460Q180 460 159 429T137 348Z" />
<glyph unicode="h" glyph-name="h" horiz-adv-x="560" d="M331 22L391 42V319Q389 362 369 391T299 420Q281 420 264 414T231 400T203 382T184 368V42L247 22V0H30V22L91 42V645L32 678V693L184 746V395Q192 403 208 418T247 449T297 475T354 486Q387 486 411
478T452 450T477 398T485 319V42L548 21V0H331V22Z" />
<glyph unicode="i" glyph-name="i" horiz-adv-x="260" d="M24 22L85 42V386L26 420V434L179 486V42L248 22V0H24V22ZM126 607Q100 607 81 626T61 671Q61 696 80 715T126 734Q150 734 169 715T189 671Q189 645 170 626T126 607Z" />
<glyph unicode="j" glyph-name="j" horiz-adv-x="255" d="M-13 -231Q18 -214 36 -194T65 -146T80 -80T85 14V386L27 420V434L178 486V32Q178 -29 172 -74T143 -151Q112 -191 75 -212T-8 -248L-13 -231ZM127 607Q101 607 82 626T62 671Q62 696 81 715T127 734Q151
734 170 715T190 671Q190 645 171 626T127 607Z" />
<glyph unicode="k" glyph-name="k" horiz-adv-x="510" d="M91 645L32 678V693L184 746V42L247 22V0H30V22L91 42V645ZM453 -12Q424 -12 398 2T340 59L191 251L378 421L311 452V473H500V455L434 428L270 283L510 8Q503 2 494 -2Q486 -6 476 -9T453 -12Z" />
<glyph unicode="l" glyph-name="l" horiz-adv-x="271" d="M27 22L91 42V645L32 678V693L184 746V42L254 22V0H27V22Z" />
<glyph unicode="m" glyph-name="m" horiz-adv-x="855" d="M627 22L687 42V319Q684 363 664 391T595 420Q577 420 559 414T526 400T499 383T480 368V42L542 21V0H325V22L386 42V319Q383 363 363 391T294 420Q276 420 259 414T226 400T198 383T179 368V42L242 22V0H24V22L85
42V386L22 420V433L165 486H170L175 394H177Q184 402 201 417T240 448T291 474T349 486Q401 486 431 466T473 391H475Q481 397 497 413T537 445T590 473T650 486Q682 486 706 478T747 450T772 398T780 319V42L843 21V0H627V22Z" />
<glyph unicode="n" glyph-name="n" horiz-adv-x="554" d="M24 22L85 42V386L22 420V433L165 486H170L175 394H177Q184 402 201 417T240 448T291 474T349 486Q381 486 405 478T446 450T471 398T480 319V42L542 21V0H326V22L386 42V319Q383 363 363 391T294 420Q276
420 258 414T225 400T198 383T179 368V42L242 22V0H24V22Z" />
<glyph unicode="o" glyph-name="o" horiz-adv-x="549" d="M259 455Q226 455 203 440T165 398T144 339T137 268Q137 224 146 180T174 99T222 41T290 18Q318 18 340 32T379 72T403 131T412 206Q412 264 400 310T368 389T319 438T259 455ZM275 -16Q217 -16 172 4T97
58T50 135T34 225Q34 279 53 327T104 410T181 467T275 488Q329 488 373 471T448 423T497 348T515 249Q515 194 497 146T446 62T369 5T275 -16Z" />
<glyph unicode="p" glyph-name="p" horiz-adv-x="548" d="M18 -215L81 -195V386L19 420V433L166 486H171V394H173Q183 410 198 426T233 456T277 477T329 486Q363 486 396 474T455 434T498 365T514 262Q514 201 489 151T425 64T336 8T239 -12Q221 -12 205 -10T175
-4V-194L277 -215V-238H18V-215ZM276 423Q240 423 216 406T175 368V59Q190 46 214 36T272 25Q302 25 328 37T375 75T407 139T419 230Q419 272 408 307T378 368T332 408T276 423Z" />
<glyph unicode="q" glyph-name="q" horiz-adv-x="536" d="M275 -218L374 -194V50Q362 38 348 27T316 6T278 -10T236 -16Q187 -16 149 3T86 53T47 126T34 212Q34 273 58 323T119 410T204 465T298 485Q341 485 371 471T412 447L459 488H468V-194L528 -215V-238H275V-218ZM284
46Q312 46 334 56T374 81V391Q369 398 361 407T340 425T309 440T265 446Q238 446 213 435T169 400T139 338T127 244Q127 214 135 179T163 115T212 66T284 46Z" />
<glyph unicode="r" glyph-name="r" horiz-adv-x="364" d="M24 22L85 42V386L22 420V433L165 486H170L173 357H177L189 378Q208 412 223 433T251 467T278 483T306 488Q329 488 344 475T360 438Q360 417 350 403T323 378L256 404Q241 400 218 375T179 312V42L256
22V0H24V22Z" />
<glyph unicode="s" glyph-name="s" horiz-adv-x="410" d="M176 -17Q135 -17 101 -6T44 18L38 163H58L108 45Q121 32 139 24T183 15Q229 15 254 41T280 104Q280 135 263 154T204 190L137 218Q95 235 70 263T44 343Q44 376 58 402T98 447T156 476T228 487Q264 487
294 478T349 455L348 330H329L284 431Q272 440 255 448T216 456Q177 456 155 433T133 378Q133 344 152 326T212 292L256 274Q319 248 345 219T372 144Q372 108 356 79T312 28T250 -5T176 -17Z" />
<glyph unicode="t" glyph-name="t" horiz-adv-x="328" d="M188 -11Q126 -11 103 20T80 106L83 424H9V454L83 476L151 601H174V473H312V421H174V106Q179 68 199 55T251 42Q264 42 276 44T298 48T314 53T320 56L326 37Q324 36 314 29T286 12T243 -4T188 -11Z" />
<glyph unicode="u" glyph-name="u" horiz-adv-x="556" d="M377 74Q368 63 353 47T317 17T272 -7T218 -17Q148 -17 113 26T78 142V414L15 438V455L172 480V162Q172 105 197 78T268 51Q306 51 334 67T376 96V414L303 436V454L469 480V54L540 29V11L387 -15L377 74Z" />
<glyph unicode="v" glyph-name="v" horiz-adv-x="464" d="M211 -18L43 430L-13 449V473H209V449L144 430L252 124L262 94H264L276 125L380 427L310 450V473H477V449L419 430L254 -18H211Z" />
<glyph unicode="w" glyph-name="w" horiz-adv-x="719" d="M523 126Q525 120 526 114T530 103Q532 97 533 92H535Q535 97 537 103Q538 108 539 114T543 127L632 424L560 450V473H731V449L670 429L531 -16H476L364 306Q360 316 356 329Q354 335 353 342H352Q350
335 348 329Q346 324 345 318T341 306L232 -16H184L44 430L-13 449V473H211V449L146 430L231 130Q233 124 234 118T237 106Q238 100 239 95H241Q242 100 244 106Q247 117 252 130L368 480H402L523 126Z" />
<glyph unicode="x" glyph-name="x" horiz-adv-x="482" d="M419 42L477 21V0H267V22L314 42L220 196H218L118 44L171 21V0H6V21L70 42L203 224L71 434L14 452V473H227V452L179 433L261 295H264L350 430L301 452V473H448V452L398 434L278 266L419 42Z" />
<glyph unicode="y" glyph-name="y" horiz-adv-x="470" d="M316 450V473H472V449L425 430L204 -166Q190 -204 166 -227T105 -250Q80 -250 63 -233T46 -192Q46 -168 63 -152T103 -135Q124 -135 137 -146T162 -172L166 -177L219 -34L41 434L-2 449V473H196V449L146
431L268 97L386 427L316 450Z" />
<glyph unicode="z" glyph-name="z" horiz-adv-x="462" d="M36 0V25L306 440H125L75 320H53V479L129 473H433V469L147 30H337L401 165H421L407 -4L329 0H36Z" />
<glyph unicode="{" glyph-name="braceleft" horiz-adv-x="335" d="M105 275Q135 270 156 263T192 243T214 210T221 159V-31Q221 -104 243 -132T321 -161V-181H306Q253 -181 219 -170T166 -137T141 -81T139 -6L156 169Q160 208 143 231T83 257L53 258V294L83 295Q126
297 143 320T156 383L139 558Q135 600 141 633T165 688T218 722T306 733H321V713Q293 713 274 707T243 685T226 644T221 582V393Q221 363 214 343T193 309T157 289T105 277V275Z" />
<glyph unicode="|" glyph-name="bar" horiz-adv-x="221" d="M93 -203V734H128V-203H93Z" />
<glyph unicode="}" glyph-name="braceright" horiz-adv-x="335" d="M230 277Q201 281 179 288T143 309T121 342T114 393V583Q114 656 92 684T14 713V733H29Q83 733 117 722T170 689T194 633T196 558L179 383Q175 344 192 321T253 295L282 294V258L253 257Q209
255 192 232T179 169L196 -6Q200 -48 195 -81T170 -136T117 -170T29 -181H14V-161Q42 -161 61 -155T92 -133T109 -92T114 -30V159Q114 190 121 210T142 243T179 263T230 275V277Z" />
<glyph unicode="~" glyph-name="asciitilde" horiz-adv-x="485" d="M18 215L24 230Q42 275 63 298T107 329T156 334T210 322L290 297Q325 286 348 284T389 286T418 306T444 345L464 336L458 322Q441 281 422 257T380 220T330 208T270 220L204 241Q163 254 137
259T94 261T63 244T37 207L18 215Z" />
<glyph unicode="&#xa0;" glyph-name="uni00A0" horiz-adv-x="161" />
<glyph unicode="&#xa1;" glyph-name="exclamdown" horiz-adv-x="270" d="M81 -118L122 385H147L187 -118H81ZM135 587Q161 587 181 567T201 520Q201 494 181 474T135 454Q108 454 88 474T68 520Q68 547 88 567T135 587Z" />
<glyph unicode="&#xa2;" glyph-name="cent" horiz-adv-x="475" d="M222 -14Q186 -10 152 8T90 56T47 128T31 226Q31 281 50 327T100 407T171 461T254 486L261 598H293L286 486Q315 484 342 476T391 454T426 422T439 382Q439 360 424 347T383 334Q375 334 370 335T364
336L328 424Q318 432 308 439T283 450L259 62Q274 59 288 59Q316 59 338 66T378 82T407 102T428 121L442 106Q431 92 415 72T377 33T324 0T254 -16L248 -119H216L222 -14ZM120 267Q120 195 150 144T228 71L252 454Q195 452 158 404T120 267Z" />
<glyph unicode="&#xa3;" glyph-name="sterling" horiz-adv-x="642" d="M125 297H250L273 388Q290 457 320 507T386 589T457 637T520 653Q539 653 557 648T589 632T611 608T620 577Q620 551 602 538T550 516Q541 570 523 594T485 619Q460 619 439 590T398 491L347
297H538V264H338Q327 218 310 181T271 115T226 64T179 27Q209 13 240 -5T302 -44L338 -68Q378 -95 403 -113T446 -141T474 -155T497 -159Q528 -159 536 -120T531 -22Q563 -21 586 -28T609 -65Q609 -83 597 -106T563 -150T509 -185T440 -200Q410 -200 378 -186T314
-150T249 -101T185 -46L131 1Q83 -19 54 -19Q21 -19 10 -7T-1 18Q-1 36 18 48T62 60Q81 60 103 55T149 40Q172 62 191 100T225 197L242 264H125V297Z" />
<glyph unicode="&#xa5;" glyph-name="yen" horiz-adv-x="579" d="M61 292H226L47 598L-5 614V636H247V614L169 593L315 313H318L479 588L384 614V636H584V613L527 592L345 292H513V261H339V185H514V154H339V43L413 23V0H165V24L238 42V154H61V185H238V261H61V292Z" />
<glyph unicode="&#xa6;" glyph-name="brokenbar" horiz-adv-x="221" d="M93 313V734H128V313H93ZM93 -203V220H128V-203H93Z" />
<glyph unicode="&#xa7;" glyph-name="section" horiz-adv-x="474" d="M267 -103Q267 -90 264 -78T250 -46T223 3T178 78L113 186Q93 219 81 245T62 293T53 332T51 365Q51 408 66 447T108 519T166 580T233 626T299 655T357 666Q395 666 414 650T434 610Q434 593
424 580T395 563Q383 572 370 580Q358 587 343 593T308 603Q286 603 261 598T210 578Q204 566 204 551Q204 538 207 526T221 494T248 446T293 371L358 262Q397 196 408 155T420 84Q420 41 405 2T363 -70T305 -131T238 -177T172 -206T114 -217Q76 -217 57 -201T38
-161Q38 -144 47 -131T76 -114Q87 -123 101 -131Q113 -138 129 -144T164 -154Q185 -154 210 -149T260 -130Q263 -124 265 -118T267 -103ZM121 424Q121 375 138 328T188 226L243 133Q268 90 282 61T302 12T309 -21T310 -44Q310 -63 307 -76T299 -98H304Q324 -77
337 -47T350 25Q350 74 332 121T283 222L229 316Q202 364 188 394T168 442T162 472T161 493Q161 512 164 525T172 547H167Q147 526 134 496T121 424Z" />
<glyph unicode="&#xa8;" glyph-name="dieresis" horiz-adv-x="400" d="M118 613Q93 613 76 630T59 671Q59 695 76 712T118 730Q142 730 159 713T177 671Q177 647 160 630T118 613ZM305 613Q281 613 264 630T246 671Q246 695 263 712T305 730Q329 730 347 713T365
671Q365 647 347 630T305 613Z" />
<glyph unicode="&#xa9;" glyph-name="copyright" horiz-adv-x="791" d="M49 328Q49 400 76 463T150 573T260 647T395 674Q467 674 530 647T640 574T715 464T742 328Q742 255 715 192T640 83T530 9T395 -18Q323 -18 260 9T150 82T76 192T49 328ZM76 328Q76 261
101 202T169 100T271 31T395 5Q461 5 519 30T620 99T689 202T714 328Q714 395 689 454T621 556T519 625T395 651Q329 651 271 626T170 557T101 454T76 328ZM401 132Q347 132 310 149T248 193T214 253T203 318Q203 363 219 400T263 465T331 508T415 523Q453 523
483 513T536 491L538 388H516L485 467Q471 481 453 490T410 500Q358 500 324 457T290 331Q290 250 325 204T417 158Q441 158 460 167T494 191L523 270H546L538 170Q522 162 508 156T477 144T443 135T401 132Z" />
<glyph unicode="&#xaa;" glyph-name="ordfeminine" horiz-adv-x="430" d="M140 493Q123 493 105 499T73 517T49 547T39 589Q39 613 48 630T74 659T117 680T174 697L257 718V784Q255 814 236 836T181 858Q164 858 153 855T136 848L125 761Q113 756 95 756Q51 756
51 794Q51 808 64 825T101 856T154 881T220 891Q283 891 311 862T339 769V563Q339 548 344 543T367 538H406V518Q392 511 377 506Q364 501 349 498T321 495Q288 495 274 513T259 558H253Q238 544 226 532T202 512T174 498T140 493ZM184 550Q213 550 231 563T257
585V695L188 674Q158 665 141 651T124 613Q124 584 141 567T184 550Z" />
<glyph unicode="&#xab;" glyph-name="guillemotleft" horiz-adv-x="465" d="M232 373L120 205L231 44L216 29L50 198V213L216 388L232 373ZM395 373L283 205L394 44L379 29L213 198V213L379 388L395 373Z" />
<glyph unicode="&#xac;" glyph-name="logicalnot" horiz-adv-x="586" d="M530 258V61H487V219H56V258H530Z" />
<glyph unicode="&#xae;" glyph-name="registered" horiz-adv-x="416" d="M8 558Q8 599 24 635T67 697T131 739T210 754Q251 754 287 739T350 698T392 635T408 558Q408 517 392 481T349 419T285 378T207 363Q165 363 129 378T66 419T24 480T8 558ZM37 558Q37 522
50 491T86 436T141 399T208 386Q244 386 275 399T330 435T367 489T380 558Q380 594 367 625T331 680T276 717T208 730Q172 730 141 717T86 681T50 626T37 558ZM104 473L132 480V648L104 655V666H192Q244 666 272 654T300 612Q300 588 283 575T247 554V553L298 479L329
473V461H255L227 504Q226 505 222 511T213 526Q207 535 200 546H179V480L205 473V461H104V473ZM179 562H220Q232 567 240 578T249 604Q249 627 232 640T179 652V562Z" />
<glyph unicode="&#xaf;" glyph-name="macron" horiz-adv-x="400" d="M54 685H346V626H54V685Z" />
<glyph unicode="&#xb0;" glyph-name="degree" horiz-adv-x="298" d="M16 603Q16 630 26 654T55 696T98 724T151 735Q179 735 203 725T244 696T271 654T281 603Q281 575 271 551T242 509T199 481T147 470Q118 470 94 480T53 509T26 551T16 603ZM55 603Q55 560 81
531T149 502Q191 502 217 531T244 603Q244 646 218 675T149 704Q107 704 81 675T55 603Z" />
<glyph unicode="&#xb1;" glyph-name="plusminus" horiz-adv-x="586" d="M315 328V110H272V328H56V366H272V584H315V366H530V328H315ZM56 39H530V0H56V39Z" />
<glyph unicode="&#xb4;" glyph-name="acute" horiz-adv-x="262" d="M204 757V749L96 554H67L121 757H204Z" />
<glyph unicode="&#xb6;" glyph-name="paragraph" horiz-adv-x="541" d="M505 641L434 620V34Q434 -33 417 -79T372 -153T307 -193T230 -206Q195 -206 165 -195T112 -163T77 -113T64 -49Q64 -16 75 11T105 58T149 87T205 98Q229 98 247 91T278 70T298 41T305 9Q305
-35 282 -56T231 -77Q209 -77 192 -60T177 -11Q203 -6 222 2T256 24V28Q251 44 236 55T194 67Q178 67 162 60T132 39T111 5T102 -43Q102 -69 111 -92T137 -134T179 -162T236 -173Q267 -173 293 -164T337 -133T366 -78T377 4V632H324V233H271Q226 233 187 250T119
296T72 364T55 448Q55 493 72 532T118 600T187 647T271 664H505V641Z" />
<glyph unicode="&#xb7;" glyph-name="periodcentered" horiz-adv-x="334" d="M166 206Q140 206 120 226T100 273Q100 299 120 319T166 339Q194 339 214 319T234 273Q234 246 214 226T166 206Z" />
<glyph unicode="&#xb8;" glyph-name="cedilla" horiz-adv-x="253" d="M49 -236Q96 -219 117 -199T139 -153Q139 -129 124 -115T85 -94L145 4H175L141 -50Q218 -68 218 -128Q218 -157 203 -178T164 -214T111 -238T55 -253L49 -236Z" />
<glyph unicode="&#xba;" glyph-name="ordmasculine" horiz-adv-x="457" d="M218 608Q194 608 176 596T146 563T127 514T121 452Q121 415 128 381T151 320T188 277T239 261Q284 261 310 305T336 419Q336 504 304 556T218 608ZM228 233Q180 233 144 248T83 291T46
353T33 428Q33 471 48 509T89 575T151 619T228 636Q318 636 371 585T424 442Q424 398 409 360T368 294T306 249T228 233Z" />
<glyph unicode="&#xbb;" glyph-name="guillemotright" horiz-adv-x="465" d="M70 44L182 211L71 373L86 388L252 219V205L86 29L70 44ZM233 44L345 211L234 373L249 388L415 219V205L249 29L233 44Z" />
<glyph unicode="&#xbc;" glyph-name="onequarter" horiz-adv-x="697" d="M169 331L240 318V298H19V318L94 331V617H17V639L162 673H169V331ZM76 -61L615 721L640 704L101 -80L76 -61ZM611 143H685V95H611V32L665 21V1H484V21L538 32V95H367V120L585 377L611 371V143ZM538
143V289L416 143H538Z" />
<glyph unicode="&#xbd;" glyph-name="onehalf" horiz-adv-x="747" d="M76 -61L615 721L640 704L101 -80L76 -61ZM169 331L240 318V298H19V318L94 331V617H17V639L162 673H169V331ZM528 66H726V1H448V25L527 96Q554 121 575 141T609 179T630 215T637 253Q637 287
615 306T561 326Q531 326 512 310T470 265L452 276Q474 321 509 350T595 379Q647 379 680 353T713 278Q713 252 705 232T682 193T647 158T603 123L528 66Z" />
<glyph unicode="&#xbe;" glyph-name="threequarters" horiz-adv-x="701" d="M128 311Q161 311 182 332T204 384Q204 423 170 446T70 469V494Q130 501 159 525T189 576Q189 599 174 614T128 630Q106 630 82 616T35 572L17 583Q37 622 71 649T158 676Q209 676 235
654T262 598Q262 563 236 542T167 504V500Q222 497 251 473T280 409Q280 382 266 360T230 323T179 299T123 290Q66 290 35 309T4 354Q4 369 15 379T47 390L87 321Q92 317 103 314T128 311ZM80 -61L619 721L644 704L105 -80L80 -61ZM615 143H689V95H615V32L669 21V1H488V21L542
32V95H371V120L589 377L615 371V143ZM542 143V289L420 143H542Z" />
<glyph unicode="&#xbf;" glyph-name="questiondown" horiz-adv-x="360" d="M291 -119L260 -112Q225 -105 184 -85T109 -33T51 40T28 131Q28 224 132 262L216 291L212 385H248L271 219L149 178Q105 164 84 147T63 106Q63 68 113 35T252 -8L291 -13V-119ZM230 587Q256
587 276 567T296 520Q296 494 276 474T230 454Q203 454 183 474T163 520Q163 547 183 567T230 587Z" />
<glyph unicode="&#xc0;" glyph-name="Agrave" horiz-adv-x="669" d="M-8 23L66 42L297 669L329 676L368 684L604 41L677 23V0H412V23L491 41L423 229H177L112 46L228 23V0H-8V23ZM194 278H406L300 574H299L194 278ZM270 865L353 725H314L179 856V865H270Z" />
<glyph unicode="&#xc1;" glyph-name="Aacute" horiz-adv-x="669" d="M-8 23L66 42L297 669L329 676L368 684L604 41L677 23V0H412V23L491 41L423 229H177L112 46L228 23V0H-8V23ZM194 278H406L300 574H299L194 278ZM487 865V856L349 725H310L392 865H487Z" />
<glyph unicode="&#xc2;" glyph-name="Acircumflex" horiz-adv-x="669" d="M-8 23L66 42L297 669L329 676L368 684L604 41L677 23V0H412V23L491 41L423 229H177L112 46L228 23V0H-8V23ZM194 278H406L300 574H299L194 278ZM173 725L291 856H373L483 725H438L329
806L215 725H173Z" />
<glyph unicode="&#xc3;" glyph-name="Atilde" horiz-adv-x="669" d="M-8 23L66 42L297 669L329 676L368 684L604 41L677 23V0H412V23L491 41L423 229H177L112 46L228 23V0H-8V23ZM194 278H406L300 574H299L194 278ZM314 762Q285 774 266 778T235 780T214 766T197
734L176 744L181 756Q209 823 245 841T332 838L376 820Q399 810 415 808T443 810T464 827T483 859L504 849L499 837Q469 765 436 745T350 747L314 762Z" />
<glyph unicode="&#xc4;" glyph-name="Adieresis" horiz-adv-x="669" d="M-8 23L66 42L297 669L329 676L368 684L604 41L677 23V0H412V23L491 41L423 229H177L112 46L228 23V0H-8V23ZM194 278H406L300 574H299L194 278ZM227 748Q203 748 186 765T169 806Q169 830
186 847T227 865Q251 865 268 848T286 806Q286 782 269 765T227 748ZM440 748Q416 748 399 765T381 806Q381 830 398 847T440 865Q464 865 481 848T499 806Q499 782 482 765T440 748Z" />
<glyph unicode="&#xc5;" glyph-name="Aring" horiz-adv-x="669" d="M-8 23L66 42L297 669L329 676L368 684L604 41L677 23V0H412V23L491 41L423 229H177L112 46L228 23V0H-8V23ZM194 278H406L300 574H299L194 278ZM231 832Q231 853 238 870T259 901T291 922T331
930Q374 930 402 902T431 832Q431 811 423 794T402 763T370 742T331 734Q288 734 260 762T231 832ZM267 832Q267 803 286 785T331 766Q357 766 376 784T395 832Q395 861 376 879T331 898Q305 898 286 880T267 832Z" />
<glyph unicode="&#xc6;" glyph-name="AE" horiz-adv-x="936" d="M553 319V60Q561 49 573 43T603 36H779L880 200H907L856 0H380V23L451 42V319H264L115 46L220 23V0H-1V23L64 42L396 613L312 641V664H794L868 668V488H841L787 630H553V354H686L717 449H741V230H714L686
319H553ZM436 619L283 353H451V619H436Z" />
<glyph unicode="&#xc7;" glyph-name="Ccedilla" horiz-adv-x="717" d="M284 -236Q331 -219 352 -199T374 -153Q374 -129 359 -115T320 -94L363 -23Q282 -18 223 13T125 91T67 195T48 310Q48 389 78 457T161 575T283 653T430 681Q500 681 550 666T640 628L645 457H618L566
591Q536 614 498 630T404 647Q353 647 310 625T236 562T186 467T168 347Q168 262 189 199T245 93T328 31T426 10Q453 10 475 15T514 29T545 47T569 65L645 213H673L645 42Q584 11 525 -6T393 -24H392L376 -50Q453 -68 453 -128Q453 -157 438 -178T399 -214T346
-238T290 -253L284 -236Z" />
<glyph unicode="&#xc8;" glyph-name="Egrave" horiz-adv-x="603" d="M270 865L353 725H314L179 856V865H270ZM219 326V60Q237 38 269 35H446L547 200H574L523 0H36V23L113 42V619L36 641V664H461L534 668V488H507L454 630H219V361H352L384 456H408V237H381L352 326H219Z" />
<glyph unicode="&#xc9;" glyph-name="Eacute" horiz-adv-x="603" d="M476 865V856L338 725H299L381 865H476ZM219 326V60Q237 38 269 35H446L547 200H574L523 0H36V23L113 42V619L36 641V664H461L534 668V488H507L454 630H219V361H352L384 456H408V237H381L352 326H219Z" />
<glyph unicode="&#xca;" glyph-name="Ecircumflex" horiz-adv-x="603" d="M162 725L280 856H362L472 725H427L318 806L204 725H162ZM219 326V60Q237 38 269 35H446L547 200H574L523 0H36V23L113 42V619L36 641V664H461L534 668V488H507L454 630H219V361H352L384
456H408V237H381L352 326H219Z" />
<glyph unicode="&#xcb;" glyph-name="Edieresis" horiz-adv-x="603" d="M219 326V60Q237 38 269 35H446L547 200H574L523 0H36V23L113 42V619L36 641V664H461L534 668V488H507L454 630H219V361H352L384 456H408V237H381L352 326H219ZM211 748Q187 748 170 765T153
806Q153 830 170 847T211 865Q235 865 252 848T270 806Q270 782 253 765T211 748ZM424 748Q400 748 383 765T365 806Q365 830 382 847T424 865Q448 865 465 848T483 806Q483 782 466 765T424 748Z" />
<glyph unicode="&#xcc;" glyph-name="Igrave" horiz-adv-x="332" d="M36 24L113 42V620L36 641V664H296V641L219 620V42L296 23V0H36V24ZM363 865L446 725H407L272 856V865H363Z" />
<glyph unicode="&#xcd;" glyph-name="Iacute" horiz-adv-x="332" d="M36 24L113 42V620L36 641V664H296V641L219 620V42L296 23V0H36V24ZM313 865V856L175 725H136L218 865H313Z" />
<glyph unicode="&#xce;" glyph-name="Icircumflex" horiz-adv-x="332" d="M36 24L113 42V620L36 641V664H296V641L219 620V42L296 23V0H36V24ZM27 725L127 856H209L300 725H255L165 804L70 725H27Z" />
<glyph unicode="&#xcf;" glyph-name="Idieresis" horiz-adv-x="332" d="M80 748Q56 748 39 764T22 806Q22 830 39 847T80 865Q104 865 122 848T140 806Q140 781 122 765T80 748ZM251 748Q227 748 210 764T192 806Q192 830 209 847T251 865Q275 865 292 848T310
806Q310 781 293 765T251 748ZM36 24L113 42V620L36 641V664H296V641L219 620V42L296 23V0H36V24Z" />
<glyph unicode="&#xd0;" glyph-name="Eth" horiz-adv-x="757" d="M36 24L113 42V312H30V347H113V620L36 641V664L332 668Q413 664 482 642T602 579T681 480T710 347Q710 263 677 198T585 87T444 19T264 -3L36 0V24ZM219 312V65Q238 45 272 37T342 29Q402 29 449
53T530 118T580 213T598 328Q598 410 568 471T485 571T364 627T219 639V347H390V312H219Z" />
<glyph unicode="&#xd1;" glyph-name="Ntilde" horiz-adv-x="723" d="M366 762Q337 774 318 778T287 780T266 766T249 734L228 744L233 756Q261 823 297 841T384 838L428 820Q451 810 467 808T495 810T516 827T535 859L556 849L551 837Q521 765 488 745T402 747L366
762ZM594 -11L155 555L156 47L245 24V0H41V24L114 45V596Q101 610 83 620T47 636L30 642V664H203L579 177L578 618L490 640V664H693V640L620 619V113L622 -10L594 -11Z" />
<glyph unicode="&#xd2;" glyph-name="Ograve" horiz-adv-x="781" d="M331 865L414 725H375L240 856V865H331ZM405 7Q461 7 501 33T568 102T606 199T619 311Q619 375 601 436T550 545T473 621T376 650Q320 650 280 625T213 559T173 464T160 352Q160 295 176 234T222
122T299 40T405 7ZM389 681Q471 681 535 652T643 575T710 468T733 346Q733 258 705 189T629 73T520 1T390 -24Q322 -24 260 1T150 72T75 183T47 328Q47 409 75 474T151 585T260 656T389 681Z" />
<glyph unicode="&#xd3;" glyph-name="Oacute" horiz-adv-x="781" d="M537 865V856L399 725H360L442 865H537ZM405 7Q461 7 501 33T568 102T606 199T619 311Q619 375 601 436T550 545T473 621T376 650Q320 650 280 625T213 559T173 464T160 352Q160 295 176 234T222
122T299 40T405 7ZM389 681Q471 681 535 652T643 575T710 468T733 346Q733 258 705 189T629 73T520 1T390 -24Q322 -24 260 1T150 72T75 183T47 328Q47 409 75 474T151 585T260 656T389 681Z" />
<glyph unicode="&#xd4;" glyph-name="Ocircumflex" horiz-adv-x="781" d="M233 725L351 856H433L543 725H498L389 806L275 725H233ZM405 7Q461 7 501 33T568 102T606 199T619 311Q619 375 601 436T550 545T473 621T376 650Q320 650 280 625T213 559T173 464T160
352Q160 295 176 234T222 122T299 40T405 7ZM389 681Q471 681 535 652T643 575T710 468T733 346Q733 258 705 189T629 73T520 1T390 -24Q322 -24 260 1T150 72T75 183T47 328Q47 409 75 474T151 585T260 656T389 681Z" />
<glyph unicode="&#xd5;" glyph-name="Otilde" horiz-adv-x="781" d="M375 762Q346 774 327 778T296 780T275 766T258 734L237 744L242 756Q270 823 306 841T393 838L437 820Q460 810 476 808T504 810T525 827T544 859L565 849L560 837Q530 765 497 745T411 747L375
762ZM405 7Q461 7 501 33T568 102T606 199T619 311Q619 375 601 436T550 545T473 621T376 650Q320 650 280 625T213 559T173 464T160 352Q160 295 176 234T222 122T299 40T405 7ZM389 681Q471 681 535 652T643 575T710 468T733 346Q733 258 705 189T629 73T520
1T390 -24Q322 -24 260 1T150 72T75 183T47 328Q47 409 75 474T151 585T260 656T389 681Z" />
<glyph unicode="&#xd6;" glyph-name="Odieresis" horiz-adv-x="781" d="M283 748Q259 748 242 765T225 806Q225 830 242 847T283 865Q307 865 324 848T342 806Q342 782 325 765T283 748ZM496 748Q472 748 455 765T437 806Q437 830 454 847T496 865Q520 865 537
848T555 806Q555 782 538 765T496 748ZM405 7Q461 7 501 33T568 102T606 199T619 311Q619 375 601 436T550 545T473 621T376 650Q320 650 280 625T213 559T173 464T160 352Q160 295 176 234T222 122T299 40T405 7ZM389 681Q471 681 535 652T643 575T710 468T733
346Q733 258 705 189T629 73T520 1T390 -24Q322 -24 260 1T150 72T75 183T47 328Q47 409 75 474T151 585T260 656T389 681Z" />
<glyph unicode="&#xd7;" glyph-name="multiply" horiz-adv-x="586" d="M290 211L103 19L74 48L263 239L76 428L105 457L293 269L482 463L510 434L320 241L510 49L480 20L290 211Z" />
<glyph unicode="&#xd8;" glyph-name="Oslash" horiz-adv-x="781" d="M155 69Q105 115 76 181T47 328Q47 409 75 474T151 585T260 656T389 681Q448 681 497 666T586 623L648 702H691L613 602Q672 553 702 485T733 346Q733 258 705 189T629 73T520 1T390 -24Q332
-24 279 -6T180 47L117 -35H74L155 69ZM405 7Q461 7 501 33T568 102T606 199T619 311Q619 374 604 431T560 534L228 108Q258 63 302 35T405 7ZM160 352Q160 298 172 243T209 139L540 563Q508 603 467 626T376 650Q320 650 280 625T213 559T173 464T160 352Z" />
<glyph unicode="&#xd9;" glyph-name="Ugrave" horiz-adv-x="735" d="M325 865L408 725H369L234 856V865H325ZM365 -23Q293 -23 243 -3T162 53T117 141T103 254V619L25 641V664H298V641L212 619V273Q212 222 220 178T249 101T303 49T388 30Q487 30 533 87T585 247L584
610L469 641V664H710V641L632 616V259Q632 188 612 135T555 47T471 -5T365 -23Z" />
<glyph unicode="&#xda;" glyph-name="Uacute" horiz-adv-x="735" d="M526 865V856L388 725H349L431 865H526ZM365 -23Q293 -23 243 -3T162 53T117 141T103 254V619L25 641V664H298V641L212 619V273Q212 222 220 178T249 101T303 49T388 30Q487 30 533 87T585 247L584
610L469 641V664H710V641L632 616V259Q632 188 612 135T555 47T471 -5T365 -23Z" />
<glyph unicode="&#xdb;" glyph-name="Ucircumflex" horiz-adv-x="735" d="M235 725L353 856H435L545 725H500L391 806L277 725H235ZM365 -23Q293 -23 243 -3T162 53T117 141T103 254V619L25 641V664H298V641L212 619V273Q212 222 220 178T249 101T303 49T388 30Q487
30 533 87T585 247L584 610L469 641V664H710V641L632 616V259Q632 188 612 135T555 47T471 -5T365 -23Z" />
<glyph unicode="&#xdc;" glyph-name="Udieresis" horiz-adv-x="735" d="M365 -23Q293 -23 243 -3T162 53T117 141T103 254V619L25 641V664H298V641L212 619V273Q212 222 220 178T249 101T303 49T388 30Q487 30 533 87T585 247L584 610L469 641V664H710V641L632
616V259Q632 188 612 135T555 47T471 -5T365 -23ZM282 748Q258 748 241 765T224 806Q224 830 241 847T282 865Q306 865 323 848T341 806Q341 782 324 765T282 748ZM495 748Q471 748 454 765T436 806Q436 830 453 847T495 865Q519 865 536 848T554 806Q554 782 537
765T495 748Z" />
<glyph unicode="&#xdd;" glyph-name="Yacute" horiz-adv-x="615" d="M360 298V42L439 24V0H174V24L254 42V275L54 626L2 641V664H256V641L176 621L334 326L506 616L410 641V664H613V641L557 620L360 298ZM481 865V856L343 725H304L386 865H481Z" />
<glyph unicode="&#xde;" glyph-name="Thorn" horiz-adv-x="586" d="M36 24L113 42V620L36 641V664H296V641L219 620V514H263Q335 514 389 502T481 468T536 416T555 351Q555 303 527 269T456 212T361 180T259 169V191Q349 202 398 239T448 342Q448 371 436 397T396
443T325 475T219 489V42L296 23V0H36V24Z" />
<glyph unicode="&#xdf;" glyph-name="germandbls" horiz-adv-x="598" d="M24 22L85 43V431H21V454L86 476Q87 530 104 579T153 665T231 725T335 747Q416 747 463 712T511 618Q511 594 503 575T482 539T453 508T420 479Q387 450 364 429T341 383Q341 363 353 351T395
322L474 275Q501 258 520 245T551 216T568 184T573 145Q573 110 557 81T515 29T454 -5T383 -17Q351 -17 316 -8T249 21V154H265L312 48Q326 33 347 24T395 14Q431 14 457 37T484 100Q484 135 462 159T395 209L338 242Q304 261 287 283T270 337Q270 355 277 371T297
401T323 430T353 459Q391 497 406 530T422 605Q422 627 415 647T393 683T358 708T311 717Q285 717 262 708T220 678T190 621T179 531V0H24V22Z" />
<glyph unicode="&#xe0;" glyph-name="agrave" horiz-adv-x="470" d="M156 -15Q134 -15 113 -8T74 13T46 50T35 103Q35 163 77 195T198 247L297 272V329Q297 386 272 418T205 450Q184 450 168 444T141 430L136 328Q118 323 95 323Q73 323 60 334T46 365Q46 383
62 404T105 444T168 474T246 486Q324 486 357 450T391 341V66Q391 49 397 43T422 37H472V21Q456 11 438 4Q423 -2 406 -7T374 -12Q334 -12 318 9T299 67H295Q281 50 267 36T236 10T200 -8T156 -15ZM207 49Q238 49 260 66T297 102V246L199 213Q162 201 147 181T131
132Q131 100 149 75T207 49ZM196 757L250 554H221L113 749V757H196Z" />
<glyph unicode="&#xe1;" glyph-name="aacute" horiz-adv-x="470" d="M156 -15Q134 -15 113 -8T74 13T46 50T35 103Q35 163 77 195T198 247L297 272V329Q297 386 272 418T205 450Q184 450 168 444T141 430L136 328Q118 323 95 323Q73 323 60 334T46 365Q46 383
62 404T105 444T168 474T246 486Q324 486 357 450T391 341V66Q391 49 397 43T422 37H472V21Q456 11 438 4Q423 -2 406 -7T374 -12Q334 -12 318 9T299 67H295Q281 50 267 36T236 10T200 -8T156 -15ZM207 49Q238 49 260 66T297 102V246L199 213Q162 201 147 181T131
132Q131 100 149 75T207 49ZM351 757V749L243 554H214L268 757H351Z" />
<glyph unicode="&#xe2;" glyph-name="acircumflex" horiz-adv-x="470" d="M156 -15Q134 -15 113 -8T74 13T46 50T35 103Q35 163 77 195T198 247L297 272V329Q297 386 272 418T205 450Q184 450 168 444T141 430L136 328Q118 323 95 323Q73 323 60 334T46 365Q46
383 62 404T105 444T168 474T246 486Q324 486 357 450T391 341V66Q391 49 397 43T422 37H472V21Q456 11 438 4Q423 -2 406 -7T374 -12Q334 -12 318 9T299 67H295Q281 50 267 36T236 10T200 -8T156 -15ZM207 49Q238 49 260 66T297 102V246L199 213Q162 201 147 181T131
132Q131 100 149 75T207 49ZM106 554L213 757H256L363 554H326L232 682L141 554H106Z" />
<glyph unicode="&#xe3;" glyph-name="atilde" horiz-adv-x="470" d="M156 -15Q134 -15 113 -8T74 13T46 50T35 103Q35 163 77 195T198 247L297 272V329Q297 386 272 418T205 450Q184 450 168 444T141 430L136 328Q118 323 95 323Q73 323 60 334T46 365Q46 383
62 404T105 444T168 474T246 486Q324 486 357 450T391 341V66Q391 49 397 43T422 37H472V21Q456 11 438 4Q423 -2 406 -7T374 -12Q334 -12 318 9T299 67H295Q281 50 267 36T236 10T200 -8T156 -15ZM207 49Q238 49 260 66T297 102V246L199 213Q162 201 147 181T131
132Q131 100 149 75T207 49ZM214 619Q185 632 167 637T136 639T115 623T97 591L77 601L82 613Q110 679 146 697T233 694L277 676Q301 666 317 664T344 667T365 684T383 716L404 706L399 693Q372 623 336 602T249 603L214 619Z" />
<glyph unicode="&#xe4;" glyph-name="adieresis" horiz-adv-x="470" d="M156 -15Q134 -15 113 -8T74 13T46 50T35 103Q35 163 77 195T198 247L297 272V329Q297 386 272 418T205 450Q184 450 168 444T141 430L136 328Q118 323 95 323Q73 323 60 334T46 365Q46 383
62 404T105 444T168 474T246 486Q324 486 357 450T391 341V66Q391 49 397 43T422 37H472V21Q456 11 438 4Q423 -2 406 -7T374 -12Q334 -12 318 9T299 67H295Q281 50 267 36T236 10T200 -8T156 -15ZM207 49Q238 49 260 66T297 102V246L199 213Q162 201 147 181T131
132Q131 100 149 75T207 49ZM138 613Q113 613 96 630T79 671Q79 695 96 712T138 730Q162 730 179 713T197 671Q197 647 180 630T138 613ZM325 613Q301 613 284 630T266 671Q266 695 283 712T325 730Q349 730 367 713T385 671Q385 647 367 630T325 613Z" />
<glyph unicode="&#xe5;" glyph-name="aring" horiz-adv-x="470" d="M156 -15Q134 -15 113 -8T74 13T46 50T35 103Q35 163 77 195T198 247L297 272V329Q297 386 272 418T205 450Q184 450 168 444T141 430L136 328Q118 323 95 323Q73 323 60 334T46 365Q46 383 62
404T105 444T168 474T246 486Q324 486 357 450T391 341V66Q391 49 397 43T422 37H472V21Q456 11 438 4Q423 -2 406 -7T374 -12Q334 -12 318 9T299 67H295Q281 50 267 36T236 10T200 -8T156 -15ZM207 49Q238 49 260 66T297 102V246L199 213Q162 201 147 181T131
132Q131 100 149 75T207 49ZM132 674Q132 695 139 712T160 743T192 763T232 771Q275 771 303 744T332 674Q332 653 324 636T303 605T271 584T232 576Q189 576 161 603T132 674ZM168 674Q168 645 187 626T232 607Q258 607 277 626T296 674Q296 703 277 721T232 740Q206
740 187 722T168 674Z" />
<glyph unicode="&#xe6;" glyph-name="ae" horiz-adv-x="730" d="M154 -16Q130 -16 109 -9T71 13T45 50T35 102Q35 133 49 155T89 193T152 222T234 245L297 260V351Q290 396 269 422T207 448Q186 448 168 441T141 427L143 334Q141 333 127 328T98 323Q75 323 63
335T50 368Q50 389 66 410T110 448T170 475T239 486Q290 486 322 466T370 408Q388 440 424 463T511 486Q552 486 583 473T636 437T671 382T690 312L390 249V198Q395 134 435 99T542 64Q572 64 596 74T637 97T665 121T676 133L691 123Q689 121 678 99T644 52T583
5T491 -16Q438 -16 392 11T320 89Q297 65 278 46T241 13T201 -8T154 -16ZM390 277L580 321Q577 378 553 413T484 448Q401 448 390 327V277ZM297 232L237 213Q204 203 184 193T153 172T138 149T134 123Q134 88 155 69T211 50Q234 51 250 60T276 85T291 119T299 160Q298
167 298 174T297 190V232Z" />
<glyph unicode="&#xe7;" glyph-name="ccedilla" horiz-adv-x="469" d="M144 -231Q191 -214 212 -194T234 -148Q234 -124 219 -110T180 -89L226 -13Q187 -9 152 8T91 55T50 130T34 231Q34 288 55 335T110 417T189 469T278 488Q309 488 338 480T391 458T428 424T442
383Q442 359 425 345T380 330Q371 330 365 331T358 332L329 425Q316 436 300 445T256 454Q227 454 203 441T162 405T134 350T124 277Q124 229 137 190T174 122T227 79T292 63Q317 63 338 70T378 87T410 110T434 133L451 121Q445 111 431 89T393 45T335 5T255 -14L236
-45Q313 -63 313 -123Q313 -152 298 -173T259 -209T206 -233T150 -248L144 -231Z" />
<glyph unicode="&#xe8;" glyph-name="egrave" horiz-adv-x="479" d="M245 -14Q193 -14 154 6T88 60T48 137T34 226Q34 280 53 328T103 411T176 467T262 488Q339 488 386 441T444 294H122Q121 288 121 282T121 269Q121 221 133 183T167 118T220 77T289 63Q314 63
336 70T377 88T410 111T435 133L451 121Q438 100 421 77T378 33T321 -1T245 -14ZM234 452Q192 452 163 418T125 324H335Q327 385 303 418T234 452ZM221 757L275 554H246L138 749V757H221Z" />
<glyph unicode="&#xe9;" glyph-name="eacute" horiz-adv-x="479" d="M375 757V749L267 554H238L292 757H375ZM245 -14Q193 -14 154 6T88 60T48 137T34 226Q34 280 53 328T103 411T176 467T262 488Q339 488 386 441T444 294H122Q121 288 121 282T121 269Q121 221
133 183T167 118T220 77T289 63Q314 63 336 70T377 88T410 111T435 133L451 121Q438 100 421 77T378 33T321 -1T245 -14ZM234 452Q192 452 163 418T125 324H335Q327 385 303 418T234 452Z" />
<glyph unicode="&#xea;" glyph-name="ecircumflex" horiz-adv-x="479" d="M130 554L237 757H280L387 554H350L256 682L165 554H130ZM245 -14Q193 -14 154 6T88 60T48 137T34 226Q34 280 53 328T103 411T176 467T262 488Q339 488 386 441T444 294H122Q121 288 121
282T121 269Q121 221 133 183T167 118T220 77T289 63Q314 63 336 70T377 88T410 111T435 133L451 121Q438 100 421 77T378 33T321 -1T245 -14ZM234 452Q192 452 163 418T125 324H335Q327 385 303 418T234 452Z" />
<glyph unicode="&#xeb;" glyph-name="edieresis" horiz-adv-x="479" d="M162 613Q137 613 120 630T103 671Q103 695 120 712T162 730Q186 730 203 713T221 671Q221 647 204 630T162 613ZM349 613Q325 613 308 630T290 671Q290 695 307 712T349 730Q373 730 391
713T409 671Q409 647 391 630T349 613ZM245 -14Q193 -14 154 6T88 60T48 137T34 226Q34 280 53 328T103 411T176 467T262 488Q339 488 386 441T444 294H122Q121 288 121 282T121 269Q121 221 133 183T167 118T220 77T289 63Q314 63 336 70T377 88T410 111T435 133L451
121Q438 100 421 77T378 33T321 -1T245 -14ZM234 452Q192 452 163 418T125 324H335Q327 385 303 418T234 452Z" />
<glyph unicode="&#xec;" glyph-name="igrave" horiz-adv-x="260" d="M24 22L85 42V386L26 420V434L179 486V42L248 22V0H24V22ZM356 757L410 554H381L273 749V757H356Z" />
<glyph unicode="&#xed;" glyph-name="iacute" horiz-adv-x="260" d="M254 757V749L146 554H117L171 757H254ZM24 22L85 42V386L26 420V434L179 486V42L248 22V0H24V22Z" />
<glyph unicode="&#xee;" glyph-name="icircumflex" horiz-adv-x="260" d="M24 22L85 42V386L26 420V434L179 486V42L248 22V0H24V22ZM11 554L109 757H152L249 554H213L128 677L46 554H11Z" />
<glyph unicode="&#xef;" glyph-name="idieresis" horiz-adv-x="260" d="M49 613Q24 613 7 630T-10 671Q-10 695 7 712T49 730Q73 730 90 713T108 671Q108 647 91 630T49 613ZM212 613Q188 613 171 630T154 671Q154 695 171 712T212 730Q237 730 254 713T272 671Q272
647 255 630T212 613ZM24 22L85 42V386L26 420V434L179 486V42L248 22V0H24V22Z" />
<glyph unicode="&#xf0;" glyph-name="eth" horiz-adv-x="550" d="M93 563L221 637Q189 665 155 689T85 736L97 757Q148 737 192 716T274 668L391 735L406 710L301 649Q407 570 458 473T509 270Q509 206 491 153T441 63T366 5T272 -16Q214 -16 170 4T95 57T50 135T34
227Q34 279 53 325T104 407T178 463T266 484Q292 484 316 476T359 454Q337 501 308 541T244 616L109 537L93 563ZM409 217Q409 258 404 294T391 365Q357 415 327 433T266 451Q209 451 173 404T136 266Q136 223 145 179T174 98T221 40T289 17Q345 17 377 71T409
217Z" />
<glyph unicode="&#xf1;" glyph-name="ntilde" horiz-adv-x="554" d="M24 22L85 42V386L22 420V433L165 486H170L175 394H177Q184 402 201 417T240 448T291 474T349 486Q381 486 405 478T446 450T471 398T480 319V42L542 21V0H326V22L386 42V319Q383 363 363 391T294
420Q276 420 258 414T225 400T198 383T179 368V42L242 22V0H24V22ZM258 619Q229 632 211 637T180 639T159 623T141 591L121 601L126 613Q154 679 190 697T277 694L321 676Q345 666 361 664T388 667T409 684T427 716L448 706L443 693Q416 623 380 602T293 603L258
619Z" />
<glyph unicode="&#xf2;" glyph-name="ograve" horiz-adv-x="549" d="M259 455Q226 455 203 440T165 398T144 339T137 268Q137 224 146 180T174 99T222 41T290 18Q318 18 340 32T379 72T403 131T412 206Q412 264 400 310T368 389T319 438T259 455ZM275 -16Q217
-16 172 4T97 58T50 135T34 225Q34 279 53 327T104 410T181 467T275 488Q329 488 373 471T448 423T497 348T515 249Q515 194 497 146T446 62T369 5T275 -16ZM239 757L293 554H264L156 749V757H239Z" />
<glyph unicode="&#xf3;" glyph-name="oacute" horiz-adv-x="549" d="M394 757V749L286 554H257L311 757H394ZM259 455Q226 455 203 440T165 398T144 339T137 268Q137 224 146 180T174 99T222 41T290 18Q318 18 340 32T379 72T403 131T412 206Q412 264 400 310T368
389T319 438T259 455ZM275 -16Q217 -16 172 4T97 58T50 135T34 225Q34 279 53 327T104 410T181 467T275 488Q329 488 373 471T448 423T497 348T515 249Q515 194 497 146T446 62T369 5T275 -16Z" />
<glyph unicode="&#xf4;" glyph-name="ocircumflex" horiz-adv-x="549" d="M149 554L256 757H299L406 554H369L275 682L184 554H149ZM259 455Q226 455 203 440T165 398T144 339T137 268Q137 224 146 180T174 99T222 41T290 18Q318 18 340 32T379 72T403 131T412
206Q412 264 400 310T368 389T319 438T259 455ZM275 -16Q217 -16 172 4T97 58T50 135T34 225Q34 279 53 327T104 410T181 467T275 488Q329 488 373 471T448 423T497 348T515 249Q515 194 497 146T446 62T369 5T275 -16Z" />
<glyph unicode="&#xf5;" glyph-name="otilde" horiz-adv-x="549" d="M259 455Q226 455 203 440T165 398T144 339T137 268Q137 224 146 180T174 99T222 41T290 18Q318 18 340 32T379 72T403 131T412 206Q412 264 400 310T368 389T319 438T259 455ZM275 -16Q217
-16 172 4T97 58T50 135T34 225Q34 279 53 327T104 410T181 467T275 488Q329 488 373 471T448 423T497 348T515 249Q515 194 497 146T446 62T369 5T275 -16ZM257 619Q228 632 210 637T179 639T158 623T140 591L120 601L125 613Q153 679 189 697T276 694L320 676Q344
666 360 664T387 667T408 684T426 716L447 706L442 693Q415 623 379 602T292 603L257 619Z" />
<glyph unicode="&#xf6;" glyph-name="odieresis" horiz-adv-x="549" d="M181 613Q156 613 139 630T122 671Q122 695 139 712T181 730Q205 730 222 713T240 671Q240 647 223 630T181 613ZM368 613Q344 613 327 630T309 671Q309 695 326 712T368 730Q392 730 410
713T428 671Q428 647 410 630T368 613ZM259 455Q226 455 203 440T165 398T144 339T137 268Q137 224 146 180T174 99T222 41T290 18Q318 18 340 32T379 72T403 131T412 206Q412 264 400 310T368 389T319 438T259 455ZM275 -16Q217 -16 172 4T97 58T50 135T34 225Q34
279 53 327T104 410T181 467T275 488Q329 488 373 471T448 423T497 348T515 249Q515 194 497 146T446 62T369 5T275 -16Z" />
<glyph unicode="&#xf7;" glyph-name="divide" horiz-adv-x="586" d="M56 219V258H530V219H56ZM293 337Q270 337 252 355T233 398Q233 422 251 440T293 458Q318 458 336 440T354 398Q354 374 336 356T293 337ZM292 17Q269 17 251 35T232 78Q232 102 250 120T292
138Q317 138 335 120T353 78Q353 53 335 35T292 17Z" />
<glyph unicode="&#xf8;" glyph-name="oslash" horiz-adv-x="549" d="M37 -50L109 45Q72 79 53 126T34 225Q34 279 53 327T104 410T181 467T275 488Q357 488 417 448L477 527H514L440 430Q475 398 495 353T515 249Q515 194 497 146T446 62T369 5T275 -16Q232 -16
197 -5T132 26L74 -50H37ZM259 455Q226 455 203 439T164 397T143 337T137 266Q138 223 144 185T163 115L371 388Q351 422 322 438T259 455ZM412 209Q411 301 386 359L178 86Q197 54 224 36T290 18Q318 18 341 32T380 73T404 133T412 209Z" />
<glyph unicode="&#xf9;" glyph-name="ugrave" horiz-adv-x="556" d="M377 74Q368 63 353 47T317 17T272 -7T218 -17Q148 -17 113 26T78 142V414L15 438V455L172 480V162Q172 105 197 78T268 51Q306 51 334 67T376 96V414L303 436V454L469 480V54L540 29V11L387
-15L377 74ZM240 757L294 554H265L157 749V757H240Z" />
<glyph unicode="&#xfa;" glyph-name="uacute" horiz-adv-x="556" d="M395 757V749L287 554H258L312 757H395ZM377 74Q368 63 353 47T317 17T272 -7T218 -17Q148 -17 113 26T78 142V414L15 438V455L172 480V162Q172 105 197 78T268 51Q306 51 334 67T376 96V414L303
436V454L469 480V54L540 29V11L387 -15L377 74Z" />
<glyph unicode="&#xfb;" glyph-name="ucircumflex" horiz-adv-x="556" d="M150 554L257 757H300L407 554H370L276 682L185 554H150ZM377 74Q368 63 353 47T317 17T272 -7T218 -17Q148 -17 113 26T78 142V414L15 438V455L172 480V162Q172 105 197 78T268 51Q306
51 334 67T376 96V414L303 436V454L469 480V54L540 29V11L387 -15L377 74Z" />
<glyph unicode="&#xfc;" glyph-name="udieresis" horiz-adv-x="556" d="M181 613Q156 613 139 630T122 671Q122 695 139 712T181 730Q205 730 222 713T240 671Q240 647 223 630T181 613ZM368 613Q344 613 327 630T309 671Q309 695 326 712T368 730Q392 730 410
713T428 671Q428 647 410 630T368 613ZM377 74Q368 63 353 47T317 17T272 -7T218 -17Q148 -17 113 26T78 142V414L15 438V455L172 480V162Q172 105 197 78T268 51Q306 51 334 67T376 96V414L303 436V454L469 480V54L540 29V11L387 -15L377 74Z" />
<glyph unicode="&#xfd;" glyph-name="yacute" horiz-adv-x="470" d="M316 450V473H472V449L425 430L204 -166Q190 -204 166 -227T105 -250Q80 -250 63 -233T46 -192Q46 -168 63 -152T103 -135Q124 -135 137 -146T162 -172L166 -177L219 -34L41 434L-2 449V473H196V449L146
431L268 97L386 427L316 450ZM376 757V749L268 554H239L293 757H376Z" />
<glyph unicode="&#xfe;" glyph-name="thorn" horiz-adv-x="536" d="M221 -12Q204 -12 188 -10T158 -3V-194L260 -215V-238H3V-215L64 -195V660L2 687V699L158 746V396Q167 408 180 424T213 453T257 476T312 486Q346 486 379 474T438 434T480 365T496 262Q496 203
473 153T410 66T322 9T221 -12ZM258 423Q220 423 195 405T158 370V59Q171 48 195 37T254 25Q285 25 312 38T358 76T389 140T401 230Q401 274 390 310T358 371T312 409T258 423Z" />
<glyph unicode="&#xff;" glyph-name="ydieresis" horiz-adv-x="470" d="M316 450V473H472V449L425 430L204 -166Q190 -204 166 -227T105 -250Q80 -250 63 -233T46 -192Q46 -168 63 -152T103 -135Q124 -135 137 -146T162 -172L166 -177L219 -34L41 434L-2 449V473H196V449L146
431L268 97L386 427L316 450ZM160 613Q135 613 118 630T101 671Q101 695 118 712T160 730Q184 730 201 713T219 671Q219 647 202 630T160 613ZM347 613Q323 613 306 630T288 671Q288 695 305 712T347 730Q371 730 389 713T407 671Q407 647 389 630T347 613Z" />
<glyph unicode="&#x100;" glyph-name="Amacron" horiz-adv-x="669" d="M-8 23L66 42L297 669L329 676L368 684L604 41L677 23V0H412V23L491 41L423 229H177L112 46L228 23V0H-8V23ZM194 278H406L300 574H299L194 278ZM184 830H476V770H184V830Z" />
<glyph unicode="&#x101;" glyph-name="amacron" horiz-adv-x="470" d="M156 -15Q134 -15 113 -8T74 13T46 50T35 103Q35 163 77 195T198 247L297 272V329Q297 386 272 418T205 450Q184 450 168 444T141 430L136 328Q118 323 95 323Q73 323 60 334T46 365Q46 383
62 404T105 444T168 474T246 486Q324 486 357 450T391 341V66Q391 49 397 43T422 37H472V21Q456 11 438 4Q423 -2 406 -7T374 -12Q334 -12 318 9T299 67H295Q281 50 267 36T236 10T200 -8T156 -15ZM207 49Q238 49 260 66T297 102V246L199 213Q162 201 147 181T131
132Q131 100 149 75T207 49ZM86 685H378V626H86V685Z" />
<glyph unicode="&#x102;" glyph-name="Abreve" horiz-adv-x="669" d="M-8 23L66 42L297 669L329 676L368 684L604 41L677 23V0H412V23L491 41L423 229H177L112 46L228 23V0H-8V23ZM194 278H406L300 574H299L194 278ZM325 721Q290 721 266 733T225 764T203 807T197
856H215Q226 824 253 803T331 781Q379 781 405 802T442 856H460Q461 831 454 807T429 764T386 733T325 721Z" />
<glyph unicode="&#x103;" glyph-name="abreve" horiz-adv-x="470" d="M156 -15Q134 -15 113 -8T74 13T46 50T35 103Q35 163 77 195T198 247L297 272V329Q297 386 272 418T205 450Q184 450 168 444T141 430L136 328Q118 323 95 323Q73 323 60 334T46 365Q46 383
62 404T105 444T168 474T246 486Q324 486 357 450T391 341V66Q391 49 397 43T422 37H472V21Q456 11 438 4Q423 -2 406 -7T374 -12Q334 -12 318 9T299 67H295Q281 50 267 36T236 10T200 -8T156 -15ZM207 49Q238 49 260 66T297 102V246L199 213Q162 201 147 181T131
132Q131 100 149 75T207 49ZM229 568Q175 568 143 609T110 733H132Q146 676 173 655T236 633Q268 633 295 657T334 733H355Q353 651 320 610T229 568Z" />
<glyph unicode="&#x104;" glyph-name="Aogonek" horiz-adv-x="669" d="M-8 23L66 42L297 669L329 676L368 684L604 41L677 23V0H530Q502 -17 484 -33T454 -66T439 -98T434 -125Q434 -149 447 -166T486 -183Q508 -183 525 -173T567 -136L583 -147Q573 -164 561
-182T533 -214T497 -238T451 -248Q409 -248 384 -225T358 -165Q358 -144 366 -125T392 -85T437 -41T502 12L424 229H177L112 46L228 23V0H-8V23ZM194 278H406L300 574H299L194 278Z" />
<glyph unicode="&#x105;" glyph-name="aogonek" horiz-adv-x="470" d="M376 -12Q334 -12 318 9T300 67H295Q281 50 267 36T236 10T200 -8T156 -15Q134 -15 113 -8T74 13T46 50T35 103Q35 163 76 195T198 247L297 272V329Q297 386 272 418T205 450Q184 450 168
444T141 430L136 328Q118 323 95 323Q73 323 60 334T46 365Q46 383 62 404T105 444T168 474T246 486Q324 486 357 450T391 341V66Q391 49 397 43T422 37H472V21Q425 -6 395 -27T346 -65T321 -98T314 -130Q314 -150 328 -166T366 -183Q391 -183 407 -172T448 -136L463
-147Q453 -164 441 -182T414 -214T378 -238T331 -248Q289 -248 264 -225T239 -165Q239 -121 274 -87T376 -15V-12ZM207 49Q238 49 260 66T297 102V246L199 213Q162 201 147 181T131 132Q131 100 149 75T207 49Z" />
<glyph unicode="&#x106;" glyph-name="Cacute" horiz-adv-x="717" d="M393 -24Q304 -24 239 5T132 83T69 190T48 310Q48 389 78 457T161 575T283 653T430 681Q500 681 550 666T640 628L645 457H618L566 591Q536 614 498 630T404 647Q353 647 310 625T236 562T186
467T168 347Q168 262 189 199T245 93T328 31T426 10Q453 10 475 15T514 29T545 47T569 65L645 213H673L645 42Q584 11 525 -6T393 -24ZM562 865V856L424 725H385L467 865H562Z" />
<glyph unicode="&#x107;" glyph-name="cacute" horiz-adv-x="469" d="M383 757V749L275 554H246L300 757H383ZM249 -14Q206 -14 167 1T99 47T52 124T34 231Q34 288 55 335T110 417T189 469T278 488Q309 488 338 480T391 458T428 424T442 383Q442 359 425 345T380
330Q371 330 365 331T358 332L329 425Q316 436 300 445T256 454Q227 454 203 441T162 405T134 350T124 277Q124 229 137 190T174 122T227 79T292 63Q317 63 338 70T378 87T410 110T434 133L451 121Q445 111 430 89T391 44T331 4T249 -14Z" />
<glyph unicode="&#x108;" glyph-name="Ccircumflex" horiz-adv-x="717" d="M255 725L373 856H455L565 725H520L411 806L297 725H255ZM393 -24Q304 -24 239 5T132 83T69 190T48 310Q48 389 78 457T161 575T283 653T430 681Q500 681 550 666T640 628L645 457H618L566
591Q536 614 498 630T404 647Q353 647 310 625T236 562T186 467T168 347Q168 262 189 199T245 93T328 31T426 10Q453 10 475 15T514 29T545 47T569 65L645 213H673L645 42Q584 11 525 -6T393 -24Z" />
<glyph unicode="&#x109;" glyph-name="ccircumflex" horiz-adv-x="469" d="M138 554L245 757H288L395 554H358L264 682L173 554H138ZM249 -14Q206 -14 167 1T99 47T52 124T34 231Q34 288 55 335T110 417T189 469T278 488Q309 488 338 480T391 458T428 424T442
383Q442 359 425 345T380 330Q371 330 365 331T358 332L329 425Q316 436 300 445T256 454Q227 454 203 441T162 405T134 350T124 277Q124 229 137 190T174 122T227 79T292 63Q317 63 338 70T378 87T410 110T434 133L451 121Q445 111 430 89T391 44T331 4T249 -14Z"
/>
<glyph unicode="&#x10a;" glyph-name="Cdotaccent" horiz-adv-x="717" d="M393 -24Q304 -24 239 5T132 83T69 190T48 310Q48 389 78 457T161 575T283 653T430 681Q500 681 550 666T640 628L645 457H618L566 591Q536 614 498 630T404 647Q353 647 310 625T236 562T186
467T168 347Q168 262 189 199T245 93T328 31T426 10Q453 10 475 15T514 29T545 47T569 65L645 213H673L645 42Q584 11 525 -6T393 -24ZM409 742Q383 742 364 761T345 807Q345 833 364 852T409 871Q435 871 454 852T474 807Q474 780 455 761T409 742Z" />
<glyph unicode="&#x10b;" glyph-name="cdotaccent" horiz-adv-x="469" d="M249 -14Q206 -14 167 1T99 47T52 124T34 231Q34 288 55 335T110 417T189 469T278 488Q309 488 338 480T391 458T428 424T442 383Q442 359 425 345T380 330Q371 330 365 331T358 332L329
425Q316 436 300 445T256 454Q227 454 203 441T162 405T134 350T124 277Q124 229 137 190T174 122T227 79T292 63Q317 63 338 70T378 87T410 110T434 133L451 121Q445 111 430 89T391 44T331 4T249 -14ZM264 607Q238 607 219 626T200 671Q200 697 219 715T264 734Q290
734 309 716T328 671Q328 645 309 626T264 607Z" />
<glyph unicode="&#x10c;" glyph-name="Ccaron" horiz-adv-x="717" d="M570 856L451 725H369L260 856H304L412 774L527 856H570ZM393 -24Q304 -24 239 5T132 83T69 190T48 310Q48 389 78 457T161 575T283 653T430 681Q500 681 550 666T640 628L645 457H618L566
591Q536 614 498 630T404 647Q353 647 310 625T236 562T186 467T168 347Q168 262 189 199T245 93T328 31T426 10Q453 10 475 15T514 29T545 47T569 65L645 213H673L645 42Q584 11 525 -6T393 -24Z" />
<glyph unicode="&#x10d;" glyph-name="ccaron" horiz-adv-x="469" d="M393 757L286 554H243L136 757H173L266 629L358 757H393ZM249 -14Q206 -14 167 1T99 47T52 124T34 231Q34 288 55 335T110 417T189 469T278 488Q309 488 338 480T391 458T428 424T442 383Q442
359 425 345T380 330Q371 330 365 331T358 332L329 425Q316 436 300 445T256 454Q227 454 203 441T162 405T134 350T124 277Q124 229 137 190T174 122T227 79T292 63Q317 63 338 70T378 87T410 110T434 133L451 121Q445 111 430 89T391 44T331 4T249 -14Z" />
<glyph unicode="&#x10e;" glyph-name="Dcaron" horiz-adv-x="757" d="M512 856L393 725H311L202 856H246L354 774L469 856H512ZM219 65Q238 45 273 37T344 29Q404 30 451 54T530 118T580 213T598 328Q598 410 568 471T485 571T364 627T219 639V65ZM36 24L113 42V620L36
641V664L333 668Q414 664 483 642T602 579T681 480T710 347Q710 263 677 198T585 87T444 19T264 -3L36 0V24Z" />
<glyph unicode="&#x10f;" glyph-name="dcaron" horiz-adv-x="554" d="M528 528L539 726H629V721L549 528H528ZM300 703L468 746V52L535 34V16L387 -14L377 53Q366 41 351 29T318 7T280 -9T236 -16Q187 -16 149 3T86 54T47 127T34 212Q34 273 57 323T119 410T205
465T301 485Q321 485 340 481T374 470V655L300 688V703ZM283 46Q311 46 334 57T374 82V390Q369 397 361 407T339 425T307 440T265 446Q238 446 213 435T169 401T139 342T127 253Q127 219 135 183T163 116T211 66T283 46Z" />
<glyph unicode="&#x110;" glyph-name="Dcroat" horiz-adv-x="757" d="M36 24L113 42V312H30V347H113V620L36 641V664L332 668Q413 664 482 642T602 579T681 480T710 347Q710 263 677 198T585 87T444 19T264 -3L36 0V24ZM219 312V65Q238 45 272 37T342 29Q402 29
449 53T530 118T580 213T598 328Q598 410 568 471T485 571T364 627T219 639V347H390V312H219Z" />
<glyph unicode="&#x111;" glyph-name="dcroat" horiz-adv-x="554" d="M300 703L468 746V592H537V559H468V52L535 34V16L387 -14L377 53Q366 41 351 29T318 7T280 -9T236 -16Q187 -16 149 3T86 54T47 127T34 212Q34 273 57 323T119 410T205 465T301 485Q321 485
340 481T374 470V559H183V592H374V657L300 688V703ZM283 46Q311 46 334 57T374 82V391Q369 398 361 408T339 426T307 440T265 446Q238 446 213 435T169 401T139 342T127 253Q127 219 135 183T163 116T211 66T283 46Z" />
<glyph unicode="&#x112;" glyph-name="Emacron" horiz-adv-x="603" d="M219 326V60Q237 38 269 35H446L547 200H574L523 0H36V23L113 42V619L36 641V664H461L534 668V488H507L454 630H219V361H352L384 456H408V237H381L352 326H219ZM175 830H467V770H175V830Z" />
<glyph unicode="&#x113;" glyph-name="emacron" horiz-adv-x="479" d="M245 -14Q193 -14 154 6T88 60T48 137T34 226Q34 280 53 328T103 411T176 467T262 488Q339 488 386 441T444 294H122Q121 288 121 282T121 269Q121 221 133 183T167 118T220 77T289 63Q314
63 336 70T377 88T410 111T435 133L451 121Q438 100 421 77T378 33T321 -1T245 -14ZM234 452Q192 452 163 418T125 324H335Q327 385 303 418T234 452ZM109 685H401V626H109V685Z" />
<glyph unicode="&#x114;" glyph-name="Ebreve" horiz-adv-x="603" d="M219 326V60Q237 38 269 35H446L547 200H574L523 0H36V23L113 42V619L36 641V664H461L534 668V488H507L454 630H219V361H352L384 456H408V237H381L352 326H219ZM315 721Q280 721 256 733T215
764T193 807T187 856H205Q216 824 243 803T321 781Q369 781 395 802T432 856H450Q451 831 444 807T419 764T376 733T315 721Z" />
<glyph unicode="&#x115;" glyph-name="ebreve" horiz-adv-x="479" d="M245 -14Q193 -14 154 6T88 60T48 137T34 226Q34 280 53 328T103 411T176 467T262 488Q339 488 386 441T444 294H122Q121 288 121 282T121 269Q121 221 133 183T167 118T220 77T289 63Q314
63 336 70T377 88T410 111T435 133L451 121Q438 100 421 77T378 33T321 -1T245 -14ZM234 452Q192 452 163 418T125 324H335Q327 385 303 418T234 452ZM254 568Q200 568 168 609T135 733H157Q171 676 198 655T261 633Q293 633 320 657T359 733H380Q378 651 345 610T254
568Z" />
<glyph unicode="&#x116;" glyph-name="Edotaccent" horiz-adv-x="603" d="M324 742Q298 742 279 761T260 807Q260 833 279 852T324 871Q350 871 369 852T389 807Q389 780 370 761T324 742ZM219 326V60Q237 38 269 35H446L547 200H574L523 0H36V23L113 42V619L36
641V664H461L534 668V488H507L454 630H219V361H352L384 456H408V237H381L352 326H219Z" />
<glyph unicode="&#x117;" glyph-name="edotaccent" horiz-adv-x="479" d="M245 -14Q193 -14 154 6T88 60T48 137T34 226Q34 280 53 328T103 411T176 467T262 488Q339 488 386 441T444 294H122Q121 288 121 282T121 269Q121 221 133 183T167 118T220 77T289 63Q314
63 336 70T377 88T410 111T435 133L451 121Q438 100 421 77T378 33T321 -1T245 -14ZM234 452Q192 452 163 418T125 324H335Q327 385 303 418T234 452ZM256 607Q230 607 211 626T192 671Q192 697 211 715T256 734Q282 734 301 716T320 671Q320 645 301 626T256 607Z"
/>
<glyph unicode="&#x118;" glyph-name="Eogonek" horiz-adv-x="603" d="M219 326V60Q237 38 269 35H446L547 200H574L523 0H456Q405 -42 388 -71T370 -125Q370 -151 383 -167T422 -183Q446 -183 462 -172T503 -136L519 -147Q509 -164 497 -182T470 -214T434 -238T387
-248Q345 -248 320 -225T294 -164Q294 -121 330 -83T424 0H36V23L113 42V619L36 641V664H461L534 668V488H507L454 630H219V361H352L384 456H408V237H381L352 326H219Z" />
<glyph unicode="&#x119;" glyph-name="eogonek" horiz-adv-x="479" d="M245 -14Q193 -14 154 6T88 60T48 137T34 226Q34 280 53 328T103 411T176 467T262 488Q339 488 386 441T444 294H122Q121 288 121 282T121 269Q121 221 133 183T167 118T220 77T289 63Q314
63 336 70T377 88T410 111T435 133L451 121Q440 102 425 81T388 40Q374 26 352 6T307 -38T270 -87T254 -134Q254 -152 266 -167T304 -183Q327 -183 343 -173T385 -136L401 -147Q390 -164 378 -182T350 -214T314 -238T268 -248Q226 -248 201 -225T176 -165Q176 -143
185 -125T213 -87T258 -48T320 -3V-1Q303 -7 285 -10T245 -14ZM234 452Q192 452 163 418T125 324H335Q327 385 303 418T234 452Z" />
<glyph unicode="&#x11a;" glyph-name="Ecaron" horiz-adv-x="603" d="M475 856L356 725H274L165 856H209L317 774L432 856H475ZM219 326V60Q237 38 269 35H446L547 200H574L523 0H36V23L113 42V619L36 641V664H461L534 668V488H507L454 630H219V361H352L384 456H408V237H381L352
326H219Z" />
<glyph unicode="&#x11b;" glyph-name="ecaron" horiz-adv-x="479" d="M385 757L278 554H235L128 757H165L258 629L350 757H385ZM245 -14Q193 -14 154 6T88 60T48 137T34 226Q34 280 53 328T103 411T176 467T262 488Q339 488 386 441T444 294H122Q121 288 121 282T121
269Q121 221 133 183T167 118T220 77T289 63Q314 63 336 70T377 88T410 111T435 133L451 121Q438 100 421 77T378 33T321 -1T245 -14ZM234 452Q192 452 163 418T125 324H335Q327 385 303 418T234 452Z" />
<glyph unicode="&#x11c;" glyph-name="Gcircumflex" horiz-adv-x="735" d="M268 725L386 856H468L578 725H533L424 806L310 725H268ZM407 -24Q315 -24 248 5T137 81T72 189T51 314Q51 388 83 454T170 571T297 651T449 681Q513 681 562 666T652 628L653 462H629L570
599Q539 621 508 632T437 643Q378 643 330 621T247 557T194 459T175 332Q175 249 197 190T257 92T342 35T442 17Q483 17 511 23T556 38V236L443 252V280H706V255L660 243V48L628 32Q613 24 591 14T540 -4T478 -18T407 -24Z" />
<glyph unicode="&#x11d;" glyph-name="gcircumflex" horiz-adv-x="496" d="M108 554L215 757H258L365 554H328L234 682L143 554H108ZM366 427V424Q386 404 401 379T417 318Q417 280 401 250T358 197T297 163T225 151Q179 151 139 168Q129 157 123 146T117 122Q117
107 129 98T165 86L356 74Q420 69 452 41T484 -31Q484 -71 461 -108T397 -175T303 -221T192 -239Q114 -239 66 -209T18 -118Q18 -84 45 -55T110 -5L121 0V4Q108 5 95 9T71 22T53 44T46 76Q46 103 67 128T117 178V180Q85 200 65 233T44 314Q44 353 58 384T98 438T156
473T229 486Q262 486 287 479T345 460L486 476V419L366 427ZM150 -1Q135 -16 122 -37T109 -91Q109 -138 144 -166T248 -194Q291 -194 322 -183T372 -154T400 -116T409 -77Q409 -52 393 -36T349 -14L150 -1ZM137 348Q138 270 164 225T238 180Q273 180 298 211T323
297Q322 380 292 420T220 460Q180 460 159 429T137 348Z" />
<glyph unicode="&#x11e;" glyph-name="Gbreve" horiz-adv-x="735" d="M423 721Q388 721 364 733T323 764T301 807T295 856H313Q324 824 351 803T429 781Q477 781 503 802T540 856H558Q559 831 552 807T527 764T484 733T423 721ZM407 -24Q315 -24 248 5T137 81T72
189T51 314Q51 388 83 454T170 571T297 651T449 681Q513 681 562 666T652 628L653 462H629L570 599Q539 621 508 632T437 643Q378 643 330 621T247 557T194 459T175 332Q175 249 197 190T257 92T342 35T442 17Q483 17 511 23T556 38V236L443 252V280H706V255L660
243V48L628 32Q613 24 591 14T540 -4T478 -18T407 -24Z" />
<glyph unicode="&#x11f;" glyph-name="gbreve" horiz-adv-x="496" d="M366 427V424Q386 404 401 379T417 318Q417 280 401 250T358 197T297 163T225 151Q179 151 139 168Q129 157 123 146T117 122Q117 107 129 98T165 86L356 74Q420 69 452 41T484 -31Q484 -71
461 -108T397 -175T303 -221T192 -239Q114 -239 66 -209T18 -118Q18 -84 45 -55T110 -5L121 0V4Q108 5 95 9T71 22T53 44T46 76Q46 103 67 128T117 178V180Q85 200 65 233T44 314Q44 353 58 384T98 438T156 473T229 486Q262 486 287 479T345 460L486 476V419L366
427ZM150 -1Q135 -16 122 -37T109 -91Q109 -138 144 -166T248 -194Q291 -194 322 -183T372 -154T400 -116T409 -77Q409 -52 393 -36T349 -14L150 -1ZM137 348Q138 270 164 225T238 180Q273 180 298 211T323 297Q322 380 292 420T220 460Q180 460 159 429T137 348ZM231
568Q177 568 145 609T112 733H134Q148 676 175 655T238 633Q270 633 297 657T336 733H357Q355 651 322 610T231 568Z" />
<glyph unicode="&#x120;" glyph-name="Gdotaccent" horiz-adv-x="735" d="M425 742Q399 742 380 761T361 807Q361 833 380 852T425 871Q451 871 470 852T490 807Q490 780 471 761T425 742ZM407 -24Q315 -24 248 5T137 81T72 189T51 314Q51 388 83 454T170 571T297
651T449 681Q513 681 562 666T652 628L653 462H629L570 599Q539 621 508 632T437 643Q378 643 330 621T247 557T194 459T175 332Q175 249 197 190T257 92T342 35T442 17Q483 17 511 23T556 38V236L443 252V280H706V255L660 243V48L628 32Q613 24 591 14T540 -4T478
-18T407 -24Z" />
<glyph unicode="&#x121;" glyph-name="gdotaccent" horiz-adv-x="496" d="M366 427V424Q386 404 401 379T417 318Q417 280 401 250T358 197T297 163T225 151Q179 151 139 168Q129 157 123 146T117 122Q117 107 129 98T165 86L356 74Q420 69 452 41T484 -31Q484
-71 461 -108T397 -175T303 -221T192 -239Q114 -239 66 -209T18 -118Q18 -84 45 -55T110 -5L121 0V4Q108 5 95 9T71 22T53 44T46 76Q46 103 67 128T117 178V180Q85 200 65 233T44 314Q44 353 58 384T98 438T156 473T229 486Q262 486 287 479T345 460L486 476V419L366
427ZM150 -1Q135 -16 122 -37T109 -91Q109 -138 144 -166T248 -194Q291 -194 322 -183T372 -154T400 -116T409 -77Q409 -52 393 -36T349 -14L150 -1ZM137 348Q138 270 164 225T238 180Q273 180 298 211T323 297Q322 380 292 420T220 460Q180 460 159 429T137 348ZM234
607Q208 607 189 626T170 671Q170 697 189 715T234 734Q260 734 279 716T298 671Q298 645 279 626T234 607Z" />
<glyph unicode="&#x122;" glyph-name="Gcommaaccent" horiz-adv-x="735" d="M317 -238Q368 -222 389 -204T410 -165Q410 -143 394 -131T352 -117V-115Q357 -88 374 -74T417 -60Q451 -60 469 -80T487 -132Q487 -224 324 -258L317 -238ZM407 -24Q315 -24 248 5T137
81T72 189T51 314Q51 388 83 454T170 571T297 651T449 681Q513 681 562 666T652 628L653 462H629L570 599Q539 621 508 632T437 643Q378 643 330 621T247 557T194 459T175 332Q175 249 197 190T257 92T342 35T442 17Q483 17 511 23T556 38V236L443 252V280H706V255L660
243V48L628 32Q613 24 591 14T540 -4T478 -18T407 -24Z" />
<glyph unicode="&#x123;" glyph-name="gcommaaccent" horiz-adv-x="496" d="M332 782Q281 765 261 747T240 708Q240 686 256 675T297 661V658Q286 604 233 604Q199 604 181 624T162 676Q162 768 326 801L332 782ZM366 427V424Q386 404 401 379T417 318Q417 280
401 250T358 197T297 163T225 151Q179 151 139 168Q129 157 123 146T117 122Q117 107 129 98T165 86L356 74Q420 69 452 41T484 -31Q484 -71 461 -108T397 -175T303 -221T192 -239Q114 -239 66 -209T18 -118Q18 -84 45 -55T110 -5L121 0V4Q108 5 95 9T71 22T53
44T46 76Q46 103 67 128T117 178V180Q85 200 65 233T44 314Q44 353 58 384T98 438T156 473T229 486Q262 486 287 479T345 460L486 476V419L366 427ZM150 -1Q135 -16 122 -37T109 -91Q109 -138 144 -166T248 -194Q291 -194 322 -183T372 -154T400 -116T409 -77Q409
-52 393 -36T349 -14L150 -1ZM137 348Q138 270 164 225T238 180Q273 180 298 211T323 297Q322 380 292 420T220 460Q180 460 159 429T137 348Z" />
<glyph unicode="&#x124;" glyph-name="Hcircumflex" horiz-adv-x="763" d="M462 23L544 42V328H219V42L301 23V0H36V23L113 42V620L36 641V664H301V641L219 620V361H544V620L462 641V664H726V641L649 620V42L726 23V0H462V23ZM224 725L342 856H424L534 725H489L380
806L266 725H224Z" />
<glyph unicode="&#x125;" glyph-name="hcircumflex" horiz-adv-x="560" d="M331 22L391 42V319Q389 362 369 391T299 420Q281 420 264 414T231 400T203 382T184 368V42L247 22V0H30V22L91 42V645L32 678V693L184 746V395Q192 403 208 418T247 449T297 475T354
486Q387 486 411 478T452 450T477 398T485 319V42L548 21V0H331V22ZM132 763L250 894H332L442 763H397L288 844L174 763H132Z" />
<glyph unicode="&#x126;" glyph-name="Hbar" horiz-adv-x="763" d="M462 23L544 42V328H219V42L301 23V0H36V23L113 42V489H17V522H113V620L36 641V664H301V641L219 620V522H544V620L462 641V664H726V641L649 620V522H746V489H649V42L726 23V0H462V23ZM219 361H544V489H219V361Z"
/>
<glyph unicode="&#x127;" glyph-name="hbar" horiz-adv-x="560" d="M337 22L391 42V319Q389 362 369 391T299 420Q281 420 264 414T231 400T203 382T184 368V42L247 22V0H30V22L91 43V559H21V592H91V656L32 678V693L184 746V592H375V559H184V395Q192 403 208 418T247
449T297 475T354 486Q387 486 411 478T452 450T477 398T485 319V42L548 21V0H337V22Z" />
<glyph unicode="&#x128;" glyph-name="Itilde" horiz-adv-x="332" d="M36 24L113 42V620L36 641V664H296V641L219 620V42L296 23V0H36V24ZM406 762Q377 774 358 778T327 780T306 766T289 734L268 744L273 756Q301 823 337 841T424 838L468 820Q491 810 507 808T535
810T556 827T575 859L596 849L591 837Q561 765 528 745T442 747L406 762Z" />
<glyph unicode="&#x129;" glyph-name="itilde" horiz-adv-x="260" d="M107 621Q87 631 72 636T44 639T21 625T-1 592L-21 602L-16 613Q14 679 49 697T136 692L153 684Q190 666 210 674T251 723L272 713L267 700Q242 636 207 613T117 616L107 621ZM24 22L85 42V386L26
420V434L179 486V42L248 22V0H24V22Z" />
<glyph unicode="&#x12a;" glyph-name="Imacron" horiz-adv-x="332" d="M34 830H299V770H34V830ZM36 24L113 42V620L36 641V664H296V641L219 620V42L296 23V0H36V24Z" />
<glyph unicode="&#x12b;" glyph-name="imacron" horiz-adv-x="260" d="M11 685H249V626H11V685ZM24 22L85 42V386L26 420V434L179 486V42L248 22V0H24V22Z" />
<glyph unicode="&#x12c;" glyph-name="Ibreve" horiz-adv-x="332" d="M36 24L113 42V620L36 641V664H296V641L219 620V42L296 23V0H36V24ZM420 721Q385 721 361 733T320 764T298 807T292 856H310Q321 824 348 803T426 781Q474 781 500 802T537 856H555Q556 831
549 807T524 764T481 733T420 721Z" />
<glyph unicode="&#x12d;" glyph-name="ibreve" horiz-adv-x="260" d="M24 22L85 42V386L26 420V434L179 486V42L248 22V0H24V22ZM388 568Q334 568 302 609T269 733H291Q305 676 332 655T395 633Q427 633 454 657T493 733H514Q512 651 479 610T388 568Z" />
<glyph unicode="&#x12e;" glyph-name="Iogonek" horiz-adv-x="332" d="M36 24L113 42V620L36 641V664H296V641L219 620V42L296 23V0H175Q156 -35 142 -66T128 -125Q128 -151 141 -167T179 -183Q204 -183 220 -172T261 -136L277 -147Q267 -164 255 -182T227 -214T191
-238T145 -248Q102 -248 77 -225T52 -164Q52 -147 57 -131T75 -95T105 -53T149 0H36V24Z" />
<glyph unicode="&#x12f;" glyph-name="iogonek" horiz-adv-x="260" d="M24 22L85 42V386L26 420V434L179 486V42L248 22V0H143Q124 -35 110 -66T96 -125Q96 -151 109 -167T147 -183Q172 -183 188 -172T229 -136L244 -147Q234 -164 222 -182T195 -214T159 -238T112
-248Q70 -248 45 -225T20 -164Q20 -147 25 -131T43 -95T73 -53T117 0H24V22ZM126 607Q100 607 81 626T61 671Q61 696 80 715T126 734Q150 734 169 715T189 671Q189 645 170 626T126 607Z" />
<glyph unicode="&#x130;" glyph-name="Idotaccent" horiz-adv-x="332" d="M36 24L113 42V620L36 641V664H296V641L219 620V42L296 23V0H36V24ZM423 742Q397 742 378 761T359 807Q359 833 378 852T423 871Q449 871 468 852T488 807Q488 780 469 761T423 742Z" />
<glyph unicode="&#x131;" glyph-name="dotlessi" horiz-adv-x="260" d="M24 22L85 42V386L26 420V434L179 486V42L248 22V0H24V22Z" />
<glyph unicode="&#x132;" glyph-name="IJ" horiz-adv-x="655" d="M36 24L113 42V620L36 641V664H296V641L219 620V42L296 23V0H36V24ZM542 55Q542 0 533 -46T498 -128T430 -188T319 -223L313 -200Q352 -185 376 -164T413 -115T432 -50T437 29V620L350 641V664H619V641L542
620V55Z" />
<glyph unicode="&#x133;" glyph-name="ij" horiz-adv-x="500" d="M24 22L85 42V386L26 420V434L179 486V42L248 22V0H24V22ZM126 607Q100 607 81 626T61 671Q61 696 80 715T126 734Q150 734 169 715T189 671Q189 645 170 626T126 607ZM233 -231Q264 -214 282 -194T311
-146T326 -80T331 14V386L273 420V434L424 486V32Q424 -29 418 -74T389 -151Q358 -191 321 -212T238 -248L233 -231ZM373 607Q347 607 328 626T308 671Q308 696 327 715T373 734Q397 734 416 715T436 671Q436 645 417 626T373 607Z" />
<glyph unicode="&#x134;" glyph-name="Jcircumflex" horiz-adv-x="341" d="M276 725L394 856H476L586 725H541L432 806L318 725H276ZM228 55Q228 0 219 -46T184 -128T116 -188T5 -223L-1 -200Q38 -185 62 -164T99 -115T118 -50T123 29V620L36 641V664H305V641L228
620V55Z" />
<glyph unicode="&#x135;" glyph-name="jcircumflex" horiz-adv-x="255" d="M-13 -231Q18 -214 36 -194T65 -146T80 -80T85 14V386L27 420V434L178 486V32Q178 -29 172 -74T143 -151Q112 -191 75 -212T-8 -248L-13 -231ZM12 554L109 757H153L250 554H214L129 677L47
554H12Z" />
<glyph unicode="&#x136;" glyph-name="Kcommaaccent" horiz-adv-x="667" d="M263 -238Q314 -222 335 -204T356 -165Q356 -143 340 -131T298 -117V-115Q303 -88 320 -74T363 -60Q397 -60 415 -80T433 -132Q433 -224 270 -258L263 -238ZM36 23L113 42V620L36 641V664H301V641L219
620V42L301 23V0H36V23ZM232 336V340L502 620L411 641V664H627V641L552 620L319 387L604 38L666 23V0H501L232 336Z" />
<glyph unicode="&#x137;" glyph-name="kcommaaccent" horiz-adv-x="510" d="M180 -238Q231 -222 252 -204T273 -165Q273 -143 257 -131T215 -117V-115Q220 -88 237 -74T280 -60Q314 -60 332 -80T350 -132Q350 -224 187 -258L180 -238ZM91 645L32 678V693L184 746V42L247
22V0H30V22L91 42V645ZM453 -12Q424 -12 398 2T340 59L191 251L378 421L311 452V473H500V455L434 428L270 283L510 8Q503 2 494 -2Q486 -6 476 -9T453 -12Z" />
<glyph unicode="&#x138;" glyph-name="kgreenlandic" horiz-adv-x="505" d="M24 22L85 42V386L22 420V433L179 486V42L242 22V0H24V22ZM447 -12Q418 -12 393 2T335 59L186 251L372 421L306 452V473H494V455L429 428L265 284L505 8Q497 2 488 -2Q480 -6 470 -9T447 -12Z" />
<glyph unicode="&#x139;" glyph-name="Lacute" horiz-adv-x="590" d="M325 865V856L187 725H148L230 865H325ZM219 60Q228 49 240 43T270 36H446L546 231H575L527 0H36V24L113 42V619L36 641V664H310V641L219 620V60Z" />
<glyph unicode="&#x13a;" glyph-name="lacute" horiz-adv-x="271" d="M535 905V896L397 765H358L440 905H535ZM27 22L91 42V645L32 678V693L184 746V42L254 22V0H27V22Z" />
<glyph unicode="&#x13b;" glyph-name="Lcommaaccent" horiz-adv-x="590" d="M203 -238Q254 -222 275 -204T296 -165Q296 -143 280 -131T238 -117V-115Q243 -88 260 -74T303 -60Q337 -60 355 -80T373 -132Q373 -224 210 -258L203 -238ZM219 60Q228 49 240 43T270
36H446L546 231H575L527 0H36V24L113 42V619L36 641V664H310V641L219 620V60Z" />
<glyph unicode="&#x13c;" glyph-name="lcommaaccent" horiz-adv-x="271" d="M286 -238Q337 -222 358 -204T379 -165Q379 -143 363 -131T321 -117V-115Q326 -88 343 -74T386 -60Q420 -60 438 -80T456 -132Q456 -224 293 -258L286 -238ZM27 22L91 42V645L32 678V693L184
746V42L254 22V0H27V22Z" />
<glyph unicode="&#x13d;" glyph-name="Lcaron" horiz-adv-x="590" d="M414 528L425 726H515V721L435 528H414ZM219 60Q228 49 240 43T270 36H446L546 231H575L527 0H36V24L113 42V619L36 641V664H310V641L219 620V60Z" />
<glyph unicode="&#x13e;" glyph-name="lcaron" horiz-adv-x="271" d="M236 528L247 726H337V721L257 528H236ZM27 22L91 42V645L32 678V693L184 746V42L254 22V0H27V22Z" />
<glyph unicode="&#x13f;" glyph-name="Ldot" horiz-adv-x="597" d="M497 300Q472 300 454 318T435 363Q435 388 453 406T497 425Q523 425 541 407T560 363Q560 337 542 319T497 300ZM219 60Q228 49 240 43T270 36H446L540 209H570L527 0H36V24L113 42V619L36 641V664H310V641L219
620V60Z" />
<glyph unicode="&#x140;" glyph-name="ldot" horiz-adv-x="313" d="M293 305Q268 305 250 323T232 367Q232 393 250 411T293 429Q319 429 337 411T356 367Q356 341 338 323T293 305ZM27 22L91 42V645L32 678V693L184 746V42L254 22V0H27V22Z" />
<glyph unicode="&#x141;" glyph-name="Lslash" horiz-adv-x="590" d="M30 292L113 315V619L36 641V664H310V641L219 620V346L436 408V375L219 313V60Q228 49 240 44T270 36H446L546 231H575L527 0H36V24L113 42V282L30 259V292Z" />
<glyph unicode="&#x142;" glyph-name="lslash" horiz-adv-x="271" d="M10 322L91 366V645L32 678V693L184 746V417L273 466V430L184 381V42L254 22V0H27V22L91 42V331L10 287V322Z" />
<glyph unicode="&#x143;" glyph-name="Nacute" horiz-adv-x="723" d="M529 865V856L391 725H352L434 865H529ZM594 -11L155 555L156 47L245 24V0H41V24L114 45V596Q101 610 83 620T47 636L30 642V664H203L579 177L578 618L490 640V664H693V640L620 619V113L622
-10L594 -11Z" />
<glyph unicode="&#x144;" glyph-name="nacute" horiz-adv-x="554" d="M396 757V749L288 554H259L313 757H396ZM24 22L85 42V386L22 420V433L165 486H170L175 394H177Q184 402 201 417T240 448T291 474T349 486Q381 486 405 478T446 450T471 398T480 319V42L542
21V0H326V22L386 42V319Q383 363 363 391T294 420Q276 420 258 414T225 400T198 383T179 368V42L242 22V0H24V22Z" />
<glyph unicode="&#x145;" glyph-name="Ncommaaccent" horiz-adv-x="723" d="M280 -238Q331 -222 352 -204T373 -165Q373 -143 357 -131T315 -117V-115Q320 -88 337 -74T380 -60Q414 -60 432 -80T450 -132Q450 -224 287 -258L280 -238ZM594 -11L155 555L156 47L245
24V0H41V24L114 45V596Q101 610 83 620T47 636L30 642V664H203L579 177L578 618L490 640V664H693V640L620 619V113L622 -10L594 -11Z" />
<glyph unicode="&#x146;" glyph-name="ncommaaccent" horiz-adv-x="554" d="M180 -238Q231 -222 252 -204T273 -165Q273 -143 257 -131T215 -117V-115Q220 -88 237 -74T280 -60Q314 -60 332 -80T350 -132Q350 -224 187 -258L180 -238ZM24 22L85 42V386L22 420V433L165
486H170L175 394H177Q184 402 201 417T240 448T291 474T349 486Q381 486 405 478T446 450T471 398T480 319V42L542 21V0H326V22L386 42V319Q383 363 363 391T294 420Q276 420 258 414T225 400T198 383T179 368V42L242 22V0H24V22Z" />
<glyph unicode="&#x147;" glyph-name="Ncaron" horiz-adv-x="723" d="M537 856L418 725H336L227 856H271L379 774L494 856H537ZM594 -11L155 555L156 47L245 24V0H41V24L114 45V596Q101 610 83 620T47 636L30 642V664H203L579 177L578 618L490 640V664H693V640L620
619V113L622 -10L594 -11Z" />
<glyph unicode="&#x148;" glyph-name="ncaron" horiz-adv-x="554" d="M411 757L304 554H261L154 757H191L284 629L376 757H411ZM24 22L85 42V386L22 420V433L165 486H170L175 394H177Q184 402 201 417T240 448T291 474T349 486Q381 486 405 478T446 450T471 398T480
319V42L542 21V0H326V22L386 42V319Q383 363 363 391T294 420Q276 420 258 414T225 400T198 383T179 368V42L242 22V0H24V22Z" />
<glyph unicode="&#x149;" glyph-name="napostrophe" horiz-adv-x="554" d="M-38 564Q13 580 34 598T55 637Q55 659 39 671T-3 685V687Q2 714 19 728T62 742Q96 742 114 722T132 670Q132 578 -31 544L-38 564ZM24 22L85 42V386L22 420V433L165 486H170L175 394H177Q184
402 201 417T240 448T291 474T349 486Q381 486 405 478T446 450T471 398T480 319V42L542 21V0H326V22L386 42V319Q383 363 363 391T294 420Q276 420 258 414T225 400T198 383T179 368V42L242 22V0H24V22Z" />
<glyph unicode="&#x14a;" glyph-name="Eng" horiz-adv-x="724" d="M620 619V57Q620 2 611 -45T576 -128T507 -188T393 -223L388 -199Q437 -187 469 -165T521 -114T547 -51T555 20V39L155 555L156 47L245 24V0H41V24L114 45V596Q101 610 83 620T47 636L30 642V664H203L579
177L578 618L490 640V664H693V640L620 619Z" />
<glyph unicode="&#x14b;" glyph-name="eng" horiz-adv-x="556" d="M387 319Q383 363 363 391T294 420Q276 420 258 414T225 400T198 383T179 368V42L242 22V0H24V22L85 42V386L22 420V433L165 486H170L175 394H177Q184 402 201 417T240 448T291 474T349 486Q381
486 405 478T446 450T471 398T480 319V32Q480 -29 471 -74T439 -151Q408 -191 371 -212T288 -248L282 -231Q313 -214 333 -194T364 -146T380 -80T387 14V319Z" />
<glyph unicode="&#x14c;" glyph-name="Omacron" horiz-adv-x="781" d="M244 830H536V770H244V830ZM405 7Q461 7 501 33T568 102T606 199T619 311Q619 375 601 436T550 545T473 621T376 650Q320 650 280 625T213 559T173 464T160 352Q160 295 176 234T222 122T299
40T405 7ZM389 681Q471 681 535 652T643 575T710 468T733 346Q733 258 705 189T629 73T520 1T390 -24Q322 -24 260 1T150 72T75 183T47 328Q47 409 75 474T151 585T260 656T389 681Z" />
<glyph unicode="&#x14d;" glyph-name="omacron" horiz-adv-x="549" d="M129 685H421V626H129V685ZM259 455Q226 455 203 440T165 398T144 339T137 268Q137 224 146 180T174 99T222 41T290 18Q318 18 340 32T379 72T403 131T412 206Q412 264 400 310T368 389T319
438T259 455ZM275 -16Q217 -16 172 4T97 58T50 135T34 225Q34 279 53 327T104 410T181 467T275 488Q329 488 373 471T448 423T497 348T515 249Q515 194 497 146T446 62T369 5T275 -16Z" />
<glyph unicode="&#x14e;" glyph-name="Obreve" horiz-adv-x="781" d="M386 721Q351 721 327 733T286 764T264 807T258 856H276Q287 824 314 803T392 781Q440 781 466 802T503 856H521Q522 831 515 807T490 764T447 733T386 721ZM405 7Q461 7 501 33T568 102T606
199T619 311Q619 375 601 436T550 545T473 621T376 650Q320 650 280 625T213 559T173 464T160 352Q160 295 176 234T222 122T299 40T405 7ZM389 681Q471 681 535 652T643 575T710 468T733 346Q733 258 705 189T629 73T520 1T390 -24Q322 -24 260 1T150 72T75 183T47
328Q47 409 75 474T151 585T260 656T389 681Z" />
<glyph unicode="&#x14f;" glyph-name="obreve" horiz-adv-x="549" d="M259 455Q226 455 203 440T165 398T144 339T137 268Q137 224 146 180T174 99T222 41T290 18Q318 18 340 32T379 72T403 131T412 206Q412 264 400 310T368 389T319 438T259 455ZM275 -16Q217
-16 172 4T97 58T50 135T34 225Q34 279 53 327T104 410T181 467T275 488Q329 488 373 471T448 423T497 348T515 249Q515 194 497 146T446 62T369 5T275 -16ZM271 568Q217 568 185 609T152 733H174Q188 676 215 655T278 633Q310 633 337 657T376 733H397Q395 651
362 610T271 568Z" />
<glyph unicode="&#x150;" glyph-name="Ohungarumlaut" horiz-adv-x="781" d="M420 865V856L311 725H275L340 865H420ZM596 865V856L488 725H451L517 865H596ZM405 7Q461 7 501 33T568 102T606 199T619 311Q619 375 601 436T550 545T473 621T376 650Q320 650 280
625T213 559T173 464T160 352Q160 295 176 234T222 122T299 40T405 7ZM389 681Q471 681 535 652T643 575T710 468T733 346Q733 258 705 189T629 73T520 1T390 -24Q322 -24 260 1T150 72T75 183T47 328Q47 409 75 474T151 585T260 656T389 681Z" />
<glyph unicode="&#x151;" glyph-name="ohungarumlaut" horiz-adv-x="549" d="M314 757V748L217 554H190L238 757H314ZM449 757V748L351 554H324L372 757H449ZM259 455Q226 455 203 440T165 398T144 339T137 268Q137 224 146 180T174 99T222 41T290 18Q318 18 340
32T379 72T403 131T412 206Q412 264 400 310T368 389T319 438T259 455ZM275 -16Q217 -16 172 4T97 58T50 135T34 225Q34 279 53 327T104 410T181 467T275 488Q329 488 373 471T448 423T497 348T515 249Q515 194 497 146T446 62T369 5T275 -16Z" />
<glyph unicode="&#x152;" glyph-name="OE" horiz-adv-x="1013" d="M855 664L931 668V488H904L850 630H622V361H749L780 456H804V237H777L749 326H622V60Q630 49 642 43T672 36H842L944 200H970L920 0H641Q605 0 578 -1T525 -3T471 -5T403 -6Q319 -6 253 18T141
86T71 191T47 327Q47 406 74 469T149 577T265 646T414 670Q446 670 470 669T524 667T597 665T711 664H855ZM393 25Q430 25 455 31T494 52T514 89T520 147V617Q495 627 466 633T405 640Q349 640 304 621T227 565T178 474T160 351Q160 295 174 237T217 132T289 55T393
25Z" />
<glyph unicode="&#x153;" glyph-name="oe" horiz-adv-x="880" d="M637 -16Q601 -16 573 -7T522 18T484 55T458 100Q430 47 384 16T274 -16Q216 -16 172 4T97 57T50 134T34 225Q34 279 53 327T104 410T181 467T275 488Q347 488 395 458T467 374Q497 427 548 456T663
486Q742 486 788 431T840 273H499V266Q499 219 514 182T553 118T611 78T680 64Q713 64 738 74T782 97T811 121T822 133L837 123Q835 121 824 99T790 52T730 5T637 -16ZM259 455Q226 455 203 439T165 397T144 337T138 266Q138 222 147 178T175 98T222 40T290 17Q318
17 341 31T380 72T404 133T412 209Q411 266 399 312T367 389T319 438T259 455ZM631 448Q583 448 546 410T501 303H727Q727 331 722 357T705 403T675 436T631 448Z" />
<glyph unicode="&#x154;" glyph-name="Racute" horiz-adv-x="654" d="M462 865V856L324 725H285L367 865H462ZM36 23L113 42V621L36 641V664L265 667Q411 668 480 624T550 504Q550 472 539 446T507 400T459 364T397 338V336L590 42L657 23V0H493L335 245Q326 259
319 270T307 289Q301 299 296 306H219V42L296 23V0H36V23ZM219 339H301Q364 346 403 385T443 482Q443 518 428 548T383 599T313 631T219 642V339Z" />
<glyph unicode="&#x155;" glyph-name="racute" horiz-adv-x="364" d="M312 757V749L204 554H175L229 757H312ZM24 22L85 42V386L22 420V433L165 486H170L173 357H177L189 378Q208 412 223 433T251 467T278 483T306 488Q329 488 344 475T360 438Q360 417 350 403T323
378L256 404Q241 400 218 375T179 312V42L256 22V0H24V22Z" />
<glyph unicode="&#x156;" glyph-name="Rcommaaccent" horiz-adv-x="654" d="M252 -238Q303 -222 324 -204T345 -165Q345 -143 329 -131T287 -117V-115Q292 -88 309 -74T352 -60Q386 -60 404 -80T422 -132Q422 -224 259 -258L252 -238ZM36 23L113 42V621L36 641V664L265
667Q411 668 480 624T550 504Q550 472 539 446T507 400T459 364T397 338V336L590 42L657 23V0H493L335 245Q326 259 319 270T307 289Q301 299 296 306H219V42L296 23V0H36V23ZM219 339H301Q364 346 403 385T443 482Q443 518 428 548T383 599T313 631T219 642V339Z"
/>
<glyph unicode="&#x157;" glyph-name="rcommaaccent" horiz-adv-x="364" d="M285 -238Q336 -222 357 -204T378 -165Q378 -143 362 -131T320 -117V-115Q325 -88 342 -74T385 -60Q419 -60 437 -80T455 -132Q455 -224 292 -258L285 -238ZM24 22L85 42V386L22 420V433L165
486H170L173 357H177L189 378Q208 412 223 433T251 467T278 483T306 488Q329 488 344 475T360 438Q360 417 350 403T323 378L256 404Q241 400 218 375T179 312V42L256 22V0H24V22Z" />
<glyph unicode="&#x158;" glyph-name="Rcaron" horiz-adv-x="654" d="M471 856L352 725H270L161 856H205L313 774L428 856H471ZM36 23L113 42V621L36 641V664L265 667Q411 668 480 624T550 504Q550 472 539 446T507 400T459 364T397 338V336L590 42L657 23V0H493L335
245Q326 259 319 270T307 289Q301 299 296 306H219V42L296 23V0H36V23ZM219 339H301Q364 346 403 385T443 482Q443 518 428 548T383 599T313 631T219 642V339Z" />
<glyph unicode="&#x159;" glyph-name="rcaron" horiz-adv-x="364" d="M322 757L215 554H172L65 757H102L195 629L287 757H322ZM24 22L85 42V386L22 420V433L165 486H170L173 357H177L189 378Q208 412 223 433T251 467T278 483T306 488Q329 488 344 475T360 438Q360
417 350 403T323 378L256 404Q241 400 218 375T179 312V42L256 22V0H24V22Z" />
<glyph unicode="&#x15a;" glyph-name="Sacute" horiz-adv-x="521" d="M47 204H72L133 52Q151 38 180 26T252 14Q313 14 350 49T388 144Q388 164 383 182T365 217T328 252T268 286L219 309Q176 329 147 348T99 388T72 435T64 494Q64 534 81 569T129 629T202 669T294
684Q319 684 342 679T386 667T421 652T448 638L454 485H430L373 616Q356 631 335 641T283 652Q226 652 194 619T162 540Q162 515 168 497T187 463T223 434T278 404L326 381Q376 357 408 335T458 291T484 244T491 192Q491 144 469 105T412 39T332 -4T242 -19Q179
-19 133 -2T56 33L47 204ZM419 865V856L281 725H242L324 865H419Z" />
<glyph unicode="&#x15b;" glyph-name="sacute" horiz-adv-x="410" d="M331 757V749L223 554H194L248 757H331ZM176 -17Q135 -17 101 -6T44 18L38 163H58L108 45Q121 32 139 24T183 15Q229 15 254 41T280 104Q280 135 263 154T204 190L137 218Q95 235 70 263T44
343Q44 376 58 402T98 447T156 476T228 487Q264 487 294 478T349 455L348 330H329L284 431Q272 440 255 448T216 456Q177 456 155 433T133 378Q133 344 152 326T212 292L256 274Q319 248 345 219T372 144Q372 108 356 79T312 28T250 -5T176 -17Z" />
<glyph unicode="&#x15c;" glyph-name="Scircumflex" horiz-adv-x="521" d="M124 725L242 856H324L434 725H389L280 806L166 725H124ZM47 204H72L133 52Q151 38 180 26T252 14Q313 14 350 49T388 144Q388 164 383 182T365 217T328 252T268 286L219 309Q176 329
147 348T99 388T72 435T64 494Q64 534 81 569T129 629T202 669T294 684Q319 684 342 679T386 667T421 652T448 638L454 485H430L373 616Q356 631 335 641T283 652Q226 652 194 619T162 540Q162 515 168 497T187 463T223 434T278 404L326 381Q376 357 408 335T458
291T484 244T491 192Q491 144 469 105T412 39T332 -4T242 -19Q179 -19 133 -2T56 33L47 204Z" />
<glyph unicode="&#x15d;" glyph-name="scircumflex" horiz-adv-x="410" d="M85 554L192 757H235L342 554H305L211 682L120 554H85ZM176 -17Q135 -17 101 -6T44 18L38 163H58L108 45Q121 32 139 24T183 15Q229 15 254 41T280 104Q280 135 263 154T204 190L137 218Q95
235 70 263T44 343Q44 376 58 402T98 447T156 476T228 487Q264 487 294 478T349 455L348 330H329L284 431Q272 440 255 448T216 456Q177 456 155 433T133 378Q133 344 152 326T212 292L256 274Q319 248 345 219T372 144Q372 108 356 79T312 28T250 -5T176 -17Z"
/>
<glyph unicode="&#x15e;" glyph-name="Scedilla" horiz-adv-x="521" d="M158 -236Q205 -219 226 -199T248 -153Q248 -129 233 -115T194 -94L240 -19Q177 -18 132 -1T56 33L47 204H72L133 52Q151 38 180 26T252 14Q313 14 350 49T388 144Q388 164 383 182T365 217T328
252T268 286L219 309Q176 329 147 348T99 388T72 435T64 494Q64 534 81 569T129 629T202 669T294 684Q319 684 342 679T386 667T421 652T448 638L454 485H430L373 616Q356 631 335 641T283 652Q226 652 194 619T162 540Q162 515 168 497T187 463T223 434T278 404L326
381Q376 357 408 335T458 291T484 244T491 192Q491 148 472 111T422 47T352 4T271 -17L250 -50Q327 -68 327 -128Q327 -157 312 -178T273 -214T220 -238T164 -253L158 -236Z" />
<glyph unicode="&#x15f;" glyph-name="scedilla" horiz-adv-x="410" d="M92 -231Q139 -214 160 -194T182 -148Q182 -124 167 -110T128 -89L172 -17Q132 -16 99 -5T44 18L38 163H58L108 45Q121 32 139 24T183 15Q229 15 254 41T280 104Q280 135 263 154T204 190L137
218Q95 235 70 263T44 343Q44 376 58 402T98 447T156 476T228 487Q264 487 294 478T349 455L348 330H329L284 431Q272 440 255 448T216 456Q177 456 155 433T133 378Q133 344 153 326T212 292L256 274Q319 248 345 219T372 144Q372 111 359 84T322 36T267 2T202
-15L184 -45Q261 -63 261 -123Q261 -152 246 -173T207 -209T154 -233T98 -248L92 -231Z" />
<glyph unicode="&#x160;" glyph-name="Scaron" horiz-adv-x="521" d="M437 856L318 725H236L127 856H171L279 774L394 856H437ZM47 204H72L133 52Q151 38 180 26T252 14Q313 14 350 49T388 144Q388 164 383 182T365 217T328 252T268 286L219 309Q176 329 147 348T99
388T72 435T64 494Q64 534 81 569T129 629T202 669T294 684Q319 684 342 679T386 667T421 652T448 638L454 485H430L373 616Q356 631 335 641T283 652Q226 652 194 619T162 540Q162 515 168 497T187 463T223 434T278 404L326 381Q376 357 408 335T458 291T484 244T491
192Q491 144 469 105T412 39T332 -4T242 -19Q179 -19 133 -2T56 33L47 204Z" />
<glyph unicode="&#x161;" glyph-name="scaron" horiz-adv-x="410" d="M340 757L233 554H190L83 757H120L213 629L305 757H340ZM176 -17Q135 -17 101 -6T44 18L38 163H58L108 45Q121 32 139 24T183 15Q229 15 254 41T280 104Q280 135 263 154T204 190L137 218Q95
235 70 263T44 343Q44 376 58 402T98 447T156 476T228 487Q264 487 294 478T349 455L348 330H329L284 431Q272 440 255 448T216 456Q177 456 155 433T133 378Q133 344 152 326T212 292L256 274Q319 248 345 219T372 144Q372 108 356 79T312 28T250 -5T176 -17Z"
/>
<glyph unicode="&#x162;" glyph-name="Tcommaaccent" horiz-adv-x="626" d="M207 -238Q258 -222 279 -204T300 -165Q300 -143 284 -131T242 -117V-115Q247 -88 264 -74T307 -60Q341 -60 359 -80T377 -132Q377 -224 214 -258L207 -238ZM531 664L595 671L597 482H571L517
629H366V42L457 23V0H167V23L260 42V629H109L55 482H29L31 671L95 664H531Z" />
<glyph unicode="&#x163;" glyph-name="tcommaaccent" horiz-adv-x="328" d="M334 -238Q385 -222 406 -204T427 -165Q427 -143 411 -131T369 -117V-115Q374 -88 391 -74T434 -60Q468 -60 486 -80T504 -132Q504 -224 341 -258L334 -238ZM188 -11Q126 -11 103 20T80
106L83 424H9V454L83 476L151 601H174V473H312V421H174V106Q179 68 199 55T251 42Q264 42 276 44T298 48T314 53T320 56L326 37Q324 36 314 29T286 12T243 -4T188 -11Z" />
<glyph unicode="&#x164;" glyph-name="Tcaron" horiz-adv-x="626" d="M464 856L345 725H263L154 856H198L306 774L421 856H464ZM531 664L595 671L597 482H571L517 629H366V42L457 23V0H167V23L260 42V629H109L55 482H29L31 671L95 664H531Z" />
<glyph unicode="&#x165;" glyph-name="tcaron" horiz-adv-x="328" d="M248 545L259 743H349V738L269 545H248ZM188 -11Q126 -11 103 20T80 106L83 424H9V454L83 476L151 601H174V473H312V421H174V106Q179 68 199 55T251 42Q264 42 276 44T298 48T314 53T320 56L326
37Q324 36 314 29T286 12T243 -4T188 -11Z" />
<glyph unicode="&#x166;" glyph-name="Tbar" horiz-adv-x="626" d="M87 376H260V628H109L55 482H29L31 671L95 664H531L595 671L597 482H571L517 628H366V376H538V344H366V42L457 23V0H167V23L260 42V344H87V376Z" />
<glyph unicode="&#x167;" glyph-name="tbar" horiz-adv-x="328" d="M15 322H82L83 424H9V454L83 476L151 601H174V473H312V421H174V322H311V282H174V106Q179 68 199 55T251 42Q264 42 276 44T298 48T314 53T320 56L326 37Q324 36 314 29T286 12T243 -4T188 -11Q126
-11 103 20T80 106L82 282H15V322Z" />
<glyph unicode="&#x168;" glyph-name="Utilde" horiz-adv-x="735" d="M365 -23Q293 -23 243 -3T162 53T117 141T103 254V619L25 641V664H298V641L212 619V273Q212 222 220 178T249 101T303 49T388 30Q487 30 533 87T585 247L584 610L469 641V664H710V641L632 616V259Q632
188 612 135T555 47T471 -5T365 -23ZM363 762Q334 774 315 778T284 780T263 766T246 734L225 744L230 756Q258 823 294 841T381 838L425 820Q448 810 464 808T492 810T513 827T532 859L553 849L548 837Q518 765 485 745T399 747L363 762Z" />
<glyph unicode="&#x169;" glyph-name="utilde" horiz-adv-x="556" d="M377 74Q368 63 353 47T317 17T272 -7T218 -17Q148 -17 113 26T78 142V414L15 438V455L172 480V162Q172 105 197 78T268 51Q306 51 334 67T376 96V414L303 436V454L469 480V54L540 29V11L387
-15L377 74ZM258 619Q229 632 211 637T180 639T159 623T141 591L121 601L126 613Q154 679 190 697T277 694L321 676Q345 666 361 664T388 667T409 684T427 716L448 706L443 693Q416 623 380 602T293 603L258 619Z" />
<glyph unicode="&#x16a;" glyph-name="Umacron" horiz-adv-x="735" d="M365 -23Q293 -23 243 -3T162 53T117 141T103 254V619L25 641V664H298V641L212 619V273Q212 222 220 178T249 101T303 49T388 30Q487 30 533 87T585 247L584 610L469 641V664H710V641L632
616V259Q632 188 612 135T555 47T471 -5T365 -23ZM233 830H525V770H233V830Z" />
<glyph unicode="&#x16b;" glyph-name="umacron" horiz-adv-x="556" d="M377 74Q368 63 353 47T317 17T272 -7T218 -17Q148 -17 113 26T78 142V414L15 438V455L172 480V162Q172 105 197 78T268 51Q306 51 334 67T376 96V414L303 436V454L469 480V54L540 29V11L387
-15L377 74ZM129 685H421V626H129V685Z" />
<glyph unicode="&#x16c;" glyph-name="Ubreve" horiz-adv-x="735" d="M365 -23Q293 -23 243 -3T162 53T117 141T103 254V619L25 641V664H298V641L212 619V273Q212 222 220 178T249 101T303 49T388 30Q487 30 533 87T585 247L584 610L469 641V664H710V641L632 616V259Q632
188 612 135T555 47T471 -5T365 -23ZM374 721Q339 721 315 733T274 764T252 807T246 856H264Q275 824 302 803T380 781Q428 781 454 802T491 856H509Q510 831 503 807T478 764T435 733T374 721Z" />
<glyph unicode="&#x16d;" glyph-name="ubreve" horiz-adv-x="556" d="M377 74Q368 63 353 47T317 17T272 -7T218 -17Q148 -17 113 26T78 142V414L15 438V455L172 480V162Q172 105 197 78T268 51Q306 51 334 67T376 96V414L303 436V454L469 480V54L540 29V11L387
-15L377 74ZM272 568Q218 568 186 609T153 733H175Q189 676 216 655T279 633Q311 633 338 657T377 733H398Q396 651 363 610T272 568Z" />
<glyph unicode="&#x16e;" glyph-name="Uring" horiz-adv-x="735" d="M365 -23Q293 -23 243 -3T162 53T117 141T103 254V619L25 641V664H298V641L212 619V273Q212 222 220 178T249 101T303 49T388 30Q487 30 533 87T585 247L584 610L469 641V664H710V641L632 616V259Q632
188 612 135T555 47T471 -5T365 -23ZM283 814Q283 835 290 852T311 883T343 904T383 912Q426 912 454 884T483 814Q483 793 475 776T454 745T422 724T383 716Q340 716 312 744T283 814ZM319 814Q319 785 338 767T383 748Q409 748 428 766T447 814Q447 843 428 861T383
880Q357 880 338 862T319 814Z" />
<glyph unicode="&#x16f;" glyph-name="uring" horiz-adv-x="556" d="M175 674Q175 695 182 712T203 743T235 763T275 771Q318 771 346 744T375 674Q375 653 367 636T346 605T314 584T275 576Q232 576 204 603T175 674ZM211 674Q211 645 230 626T275 607Q301 607
320 626T339 674Q339 703 320 721T275 740Q249 740 230 722T211 674ZM377 74Q368 63 353 47T317 17T272 -7T218 -17Q148 -17 113 26T78 142V414L15 438V455L172 480V162Q172 105 197 78T268 51Q306 51 334 67T376 96V414L303 436V454L469 480V54L540 29V11L387
-15L377 74Z" />
<glyph unicode="&#x170;" glyph-name="Uhungarumlaut" horiz-adv-x="735" d="M408 865V856L299 725H263L328 865H408ZM584 865V856L476 725H439L505 865H584ZM365 -23Q293 -23 243 -3T162 53T117 141T103 254V619L25 641V664H298V641L212 619V273Q212 222 220
178T249 101T303 49T388 30Q487 30 533 87T585 247L584 610L469 641V664H710V641L632 616V259Q632 188 612 135T555 47T471 -5T365 -23Z" />
<glyph unicode="&#x171;" glyph-name="uhungarumlaut" horiz-adv-x="556" d="M377 74Q368 63 353 47T317 17T272 -7T218 -17Q148 -17 113 26T78 142V414L15 438V455L172 480V162Q172 105 197 78T268 51Q306 51 334 67T376 96V414L303 436V454L469 480V54L540 29V11L387
-15L377 74ZM315 757V748L218 554H191L239 757H315ZM450 757V748L352 554H325L373 757H450Z" />
<glyph unicode="&#x172;" glyph-name="Uogonek" horiz-adv-x="735" d="M365 -23Q293 -23 243 -3T162 53T117 141T103 254V619L25 641V664H298V641L212 619V273Q212 222 220 178T249 101T303 49T388 30Q487 30 533 87T585 247L584 610L469 641V664H710V641L632
616V259Q632 197 617 149T573 67T507 11T422 -18Q384 -53 370 -78T356 -125Q356 -151 369 -167T408 -183Q432 -183 448 -172T489 -136L505 -147Q495 -164 483 -182T456 -214T420 -238T373 -248Q331 -248 306 -225T280 -164Q280 -127 307 -93T381 -23H365V-23Z"
/>
<glyph unicode="&#x173;" glyph-name="uogonek" horiz-adv-x="556" d="M218 -17Q148 -17 113 26T78 142V414L15 438V455L172 480V162Q172 105 197 78T268 51Q306 51 334 67T376 96V414L303 436V454L469 480V54L540 29V11L428 -8Q383 -47 367 -74T351 -125Q351
-151 364 -167T403 -183Q427 -183 443 -172T484 -136L500 -147Q490 -164 478 -182T451 -214T415 -238T368 -248Q326 -248 301 -225T275 -164Q275 -125 305 -90T387 -14L377 74Q368 63 353 47T317 17T272 -7T218 -17Z" />
<glyph unicode="&#x174;" glyph-name="Wcircumflex" horiz-adv-x="886" d="M290 725L408 856H490L600 725H555L446 806L332 725H290ZM447 420L293 -7H236L44 621L-5 640V664H232V641L154 621L302 126L427 481L382 621L315 641V664H568V639L491 621L647 135L790
612L685 639V664H891V641L839 617L643 -7H585L447 420Z" />
<glyph unicode="&#x175;" glyph-name="wcircumflex" horiz-adv-x="719" d="M259 554L366 757H409L516 554H479L385 682L294 554H259ZM523 126Q525 120 526 114T530 103Q532 97 533 92H535Q535 97 537 103Q538 108 539 114T543 127L632 424L560 450V473H731V449L670
429L531 -16H476L364 306Q360 316 356 329Q354 335 353 342H352Q350 335 348 329Q346 324 345 318T341 306L232 -16H184L44 430L-13 449V473H211V449L146 430L231 130Q233 124 234 118T237 106Q238 100 239 95H241Q242 100 244 106Q247 117 252 130L368 480H402L523
126Z" />
<glyph unicode="&#x176;" glyph-name="Ycircumflex" horiz-adv-x="615" d="M360 298V42L439 24V0H174V24L254 42V275L54 626L2 641V664H256V641L176 621L334 326L506 616L410 641V664H613V641L557 620L360 298ZM178 725L296 856H378L488 725H443L334 806L220 725H178Z" />
<glyph unicode="&#x177;" glyph-name="ycircumflex" horiz-adv-x="470" d="M316 450V473H472V449L425 430L204 -166Q190 -204 166 -227T105 -250Q80 -250 63 -233T46 -192Q46 -168 63 -152T103 -135Q124 -135 137 -146T162 -172L166 -177L219 -34L41 434L-2 449V473H196V449L146
431L268 97L386 427L316 450ZM131 554L238 757H281L388 554H351L257 682L166 554H131Z" />
<glyph unicode="&#x178;" glyph-name="Ydieresis" horiz-adv-x="615" d="M360 298V42L439 24V0H174V24L254 42V275L54 626L2 641V664H256V641L176 621L334 326L506 616L410 641V664H613V641L557 620L360 298ZM226 748Q202 748 185 765T168 806Q168 830 185 847T226
865Q250 865 267 848T285 806Q285 782 268 765T226 748ZM439 748Q415 748 398 765T380 806Q380 830 397 847T439 865Q463 865 480 848T498 806Q498 782 481 765T439 748Z" />
<glyph unicode="&#x179;" glyph-name="Zacute" horiz-adv-x="632" d="M464 865V856L326 725H287L369 865H464ZM30 20L430 628H132L71 476H45L50 670L127 664H567V660L158 38H492L587 218H617L574 0H30V20Z" />
<glyph unicode="&#x17a;" glyph-name="zacute" horiz-adv-x="462" d="M355 757V749L247 554H218L272 757H355ZM36 0V25L306 440H125L75 320H53V479L129 473H433V469L147 30H337L401 165H421L407 -4L329 0H36Z" />
<glyph unicode="&#x17b;" glyph-name="Zdotaccent" horiz-adv-x="632" d="M30 20L430 628H132L71 476H45L50 670L127 664H567V660L158 38H492L587 218H617L574 0H30V20ZM317 742Q291 742 272 761T253 807Q253 833 272 852T317 871Q343 871 362 852T382 807Q382
780 363 761T317 742Z" />
<glyph unicode="&#x17c;" glyph-name="zdotaccent" horiz-adv-x="462" d="M36 0V25L306 440H125L75 320H53V479L129 473H433V469L147 30H337L401 165H421L407 -4L329 0H36ZM237 607Q211 607 192 626T173 671Q173 697 192 715T237 734Q263 734 282 716T301 671Q301
645 282 626T237 607Z" />
<glyph unicode="&#x17d;" glyph-name="Zcaron" horiz-adv-x="632" d="M473 856L354 725H272L163 856H207L315 774L430 856H473ZM30 20L430 628H132L71 476H45L50 670L127 664H567V660L158 38H492L587 218H617L574 0H30V20Z" />
<glyph unicode="&#x17e;" glyph-name="zcaron" horiz-adv-x="462" d="M364 757L257 554H214L107 757H144L237 629L329 757H364ZM36 0V25L306 440H125L75 320H53V479L129 473H433V469L147 30H337L401 165H421L407 -4L329 0H36Z" />
<glyph unicode="&#x192;" glyph-name="florin" horiz-adv-x="466" d="M50 314H142Q158 375 186 428T251 519T329 580T413 602Q448 602 463 586T478 548Q478 527 465 510T441 482Q430 495 420 508T398 532T375 549T350 556Q338 556 325 548T297 514T266 440T234
314H369L362 280H227L171 -2Q161 -52 139 -98T87 -179T21 -236T-55 -258Q-66 -258 -78 -254T-101 -243T-119 -224T-127 -199Q-127 -175 -115 -160T-89 -138Q-69 -176 -47 -195T-4 -215Q20 -215 38 -174T70 -59L135 280H45L50 314Z" />
<glyph unicode="&#x1fa;" glyph-name="Aringacute" horiz-adv-x="669" d="M-8 23L66 42L297 669L329 676L368 684L604 41L677 23V0H412V23L491 41L423 229H177L112 46L228 23V0H-8V23ZM194 278H406L300 574H299L194 278ZM500 1082V1073L362 942H323L405 1082H500ZM242
811Q242 832 249 849T270 880T302 901T342 909Q385 909 413 881T442 811Q442 790 434 773T413 742T381 721T342 713Q299 713 271 741T242 811ZM278 811Q278 782 297 764T342 745Q368 745 387 763T406 811Q406 840 387 858T342 877Q316 877 297 859T278 811Z" />
<glyph unicode="&#x1fb;" glyph-name="aringacute" horiz-adv-x="470" d="M156 -15Q134 -15 113 -8T74 13T46 50T35 103Q35 163 77 195T198 247L297 272V329Q297 386 272 418T205 450Q184 450 168 444T141 430L136 328Q118 323 95 323Q73 323 60 334T46 365Q46
383 62 404T105 444T168 474T246 486Q324 486 357 450T391 341V66Q391 49 397 43T422 37H472V21Q456 11 438 4Q423 -2 406 -7T374 -12Q334 -12 318 9T299 67H295Q281 50 267 36T236 10T200 -8T156 -15ZM207 49Q238 49 260 66T297 102V246L199 213Q162 201 147 181T131
132Q131 100 149 75T207 49ZM132 884Q132 905 139 922T160 953T192 973T232 981Q275 981 303 954T332 884Q332 863 324 846T303 815T271 794T232 786Q189 786 161 813T132 884ZM168 884Q168 855 187 836T232 817Q258 817 277 836T296 884Q296 913 277 931T232 950Q206
950 187 932T168 884ZM392 899V890L254 759H215L297 899H392Z" />
<glyph unicode="&#x1fc;" glyph-name="AEacute" horiz-adv-x="936" d="M695 865V856L557 725H518L600 865H695ZM553 319V60Q561 49 573 43T603 36H779L880 200H907L856 0H380V23L451 42V319H264L115 46L220 23V0H-1V23L64 42L396 613L312 641V664H794L868 668V488H841L787
630H553V354H686L717 449H741V230H714L686 319H553ZM436 619L283 353H451V619H436Z" />
<glyph unicode="&#x1fd;" glyph-name="aeacute" horiz-adv-x="730" d="M494 757V749L386 554H357L411 757H494ZM154 -16Q130 -16 109 -9T71 13T45 50T35 102Q35 133 49 155T89 193T152 222T234 245L297 260V351Q290 396 269 422T207 448Q186 448 168 441T141 427L143
334Q141 333 127 328T98 323Q75 323 63 335T50 368Q50 389 66 410T110 448T170 475T239 486Q290 486 322 466T370 408Q388 440 424 463T511 486Q552 486 583 473T636 437T671 382T690 312L390 249V198Q395 134 435 99T542 64Q572 64 596 74T637 97T665 121T676
133L691 123Q689 121 678 99T644 52T583 5T491 -16Q438 -16 392 11T320 89Q297 65 278 46T241 13T201 -8T154 -16ZM390 277L580 321Q577 378 553 413T484 448Q401 448 390 327V277ZM297 232L237 213Q204 203 184 193T153 172T138 149T134 123Q134 88 155 69T211
50Q234 51 250 60T276 85T291 119T299 160Q298 167 298 174T297 190V232Z" />
<glyph unicode="&#x1fe;" glyph-name="Oslashacute" horiz-adv-x="781" d="M155 69Q105 115 76 181T47 328Q47 409 75 474T151 585T260 656T389 681Q448 681 497 666T586 623L648 702H691L613 602Q672 553 702 485T733 346Q733 258 705 189T629 73T520 1T390 -24Q332
-24 279 -6T180 47L117 -35H74L155 69ZM405 7Q461 7 501 33T568 102T606 199T619 311Q619 374 604 431T560 534L228 108Q258 63 302 35T405 7ZM160 352Q160 298 172 243T209 139L540 563Q508 603 467 626T376 650Q320 650 280 625T213 559T173 464T160 352ZM537
865V856L399 725H360L442 865H537Z" />
<glyph unicode="&#x1ff;" glyph-name="oslashacute" horiz-adv-x="549" d="M37 -50L109 45Q72 79 53 126T34 225Q34 279 53 327T104 410T181 467T275 488Q357 488 417 448L477 527H514L440 430Q475 398 495 353T515 249Q515 194 497 146T446 62T369 5T275 -16Q232
-16 197 -5T132 26L74 -50H37ZM259 455Q226 455 203 439T164 397T143 337T137 266Q138 223 144 185T163 115L371 388Q351 422 322 438T259 455ZM412 209Q411 301 386 359L178 86Q197 54 224 36T290 18Q318 18 341 32T380 73T404 133T412 209ZM394 757V749L286 554H257L311
757H394Z" />
<glyph unicode="&#x218;" glyph-name="Scommaaccent" horiz-adv-x="521" d="M149 -238Q200 -222 221 -204T242 -165Q242 -143 226 -131T184 -117V-115Q189 -88 206 -74T249 -60Q283 -60 301 -80T319 -132Q319 -224 156 -258L149 -238ZM47 204H72L133 52Q151 38
180 26T252 14Q313 14 350 49T388 144Q388 164 383 182T365 217T328 252T268 286L219 309Q176 329 147 348T99 388T72 435T64 494Q64 534 81 569T129 629T202 669T294 684Q319 684 342 679T386 667T421 652T448 638L454 485H430L373 616Q356 631 335 641T283 652Q226
652 194 619T162 540Q162 515 168 497T187 463T223 434T278 404L326 381Q376 357 408 335T458 291T484 244T491 192Q491 144 469 105T412 39T332 -4T242 -19Q179 -19 133 -2T56 33L47 204Z" />
<glyph unicode="&#x219;" glyph-name="scommaaccent" horiz-adv-x="410" d="M350 -238Q401 -222 422 -204T443 -165Q443 -143 427 -131T385 -117V-115Q390 -88 407 -74T450 -60Q484 -60 502 -80T520 -132Q520 -224 357 -258L350 -238ZM176 -17Q135 -17 101 -6T44
18L38 163H58L108 45Q121 32 139 24T183 15Q229 15 254 41T280 104Q280 135 263 154T204 190L137 218Q95 235 70 263T44 343Q44 376 58 402T98 447T156 476T228 487Q264 487 294 478T349 455L348 330H329L284 431Q272 440 255 448T216 456Q177 456 155 433T133
378Q133 344 152 326T212 292L256 274Q319 248 345 219T372 144Q372 108 356 79T312 28T250 -5T176 -17Z" />
<glyph unicode="&#x21a;" glyph-name="uni021A" horiz-adv-x="626" d="M207 -238Q258 -222 279 -204T300 -165Q300 -143 284 -131T242 -117V-115Q247 -88 264 -74T307 -60Q341 -60 359 -80T377 -132Q377 -224 214 -258L207 -238ZM531 664L595 671L597 482H571L517
629H366V42L457 23V0H167V23L260 42V629H109L55 482H29L31 671L95 664H531Z" />
<glyph unicode="&#x21b;" glyph-name="uni021B" horiz-adv-x="328" d="M334 -238Q385 -222 406 -204T427 -165Q427 -143 411 -131T369 -117V-115Q374 -88 391 -74T434 -60Q468 -60 486 -80T504 -132Q504 -224 341 -258L334 -238ZM188 -11Q126 -11 103 20T80 106L83
424H9V454L83 476L151 601H174V473H312V421H174V106Q179 68 199 55T251 42Q264 42 276 44T298 48T314 53T320 56L326 37Q324 36 314 29T286 12T243 -4T188 -11Z" />
<glyph unicode="&#x237;" glyph-name="uni0237" horiz-adv-x="255" d="M-13 -231Q18 -214 36 -194T65 -146T80 -80T85 14V386L27 420V434L178 486V32Q178 -29 172 -74T143 -151Q112 -191 75 -212T-8 -248L-13 -231Z" />
<glyph unicode="&#x2c6;" glyph-name="circumflex" horiz-adv-x="262" d="M3 554L110 757H153L260 554H223L129 682L38 554H3Z" />
<glyph unicode="&#x2c7;" glyph-name="caron" horiz-adv-x="262" d="M260 757L153 554H110L3 757H40L133 629L225 757H260Z" />
<glyph unicode="&#x2d8;" glyph-name="breve" horiz-adv-x="400" d="M196 568Q142 568 110 609T77 733H99Q113 676 140 655T203 633Q235 633 262 657T301 733H322Q320 651 287 610T196 568Z" />
<glyph unicode="&#x2d9;" glyph-name="dotaccent" horiz-adv-x="262" d="M131 607Q105 607 86 626T67 671Q67 697 86 715T131 734Q157 734 176 716T195 671Q195 645 176 626T131 607Z" />
<glyph unicode="&#x2da;" glyph-name="ring" horiz-adv-x="262" d="M31 674Q31 695 38 712T59 743T91 763T131 771Q174 771 202 744T231 674Q231 653 223 636T202 605T170 584T131 576Q88 576 60 603T31 674ZM67 674Q67 645 86 626T131 607Q157 607 176 626T195
674Q195 703 176 721T131 740Q105 740 86 722T67 674Z" />
<glyph unicode="&#x2db;" glyph-name="ogonek" horiz-adv-x="400" d="M250 1Q198 -42 180 -71T162 -125Q162 -151 175 -167T214 -183Q238 -183 254 -172T295 -136L311 -147Q301 -164 289 -182T262 -214T226 -238T179 -248Q137 -248 112 -225T86 -164Q86 -121 123
-83T218 1H250Z" />
<glyph unicode="&#x2dc;" glyph-name="tilde" horiz-adv-x="262" d="M105 619Q76 632 58 637T27 639T6 623T-12 591L-32 601L-27 613Q1 679 37 697T124 694L168 676Q192 666 208 664T235 667T256 684T274 716L295 706L290 693Q263 623 227 602T140 603L105 619Z" />
<glyph unicode="&#x2dd;" glyph-name="hungarumlaut" horiz-adv-x="400" d="M194 757V748L97 554H70L118 757H194ZM329 757V748L231 554H204L252 757H329Z" />
</font>
</defs>
</svg>
