<?xml version="1.0" standalone="no"?> <!DOCTYPE svg PUBLIC "-//W3C//DTD SVG 1.0//EN" "http://www.w3.org/TR/2001/REC-SVG-20010904/DTD/svg10.dtd" > <svg xmlns="http://www.w3.org/2000/svg" width="100%" height="100%">
<defs >
<font horiz-adv-x="566" ><font-face
    font-family=""
    units-per-em="1000"
    panose-1="2 0 5 3 8 0 0 9 0 4"
    ascent="760"
    descent="-240"
    alphabetic="0" />
<missing-glyph horiz-adv-x="500" />
<glyph unicode=" " glyph-name="space" horiz-adv-x="196" />
<glyph unicode="!" glyph-name="exclam" horiz-adv-x="298" d="M310 695L166 204H113L160 695H310ZM121 -10Q89 -10 67 13T44 67Q44 99 66 121T121 144Q153 144 176 122T199 67Q199 36 176 13T121 -10Z" />
<glyph unicode="&quot;" glyph-name="quotedbl" horiz-adv-x="442" d="M145 788H284L170 485H127L145 788ZM354 788H493L379 485H337L354 788Z" />
<glyph unicode="#" glyph-name="numbersign" horiz-adv-x="593" d="M124 498H232L289 651H349L292 498H430L487 651H546L489 498H594L582 438H466L402 267H504L492 208H380L324 57H265L321 208H184L128 57H67L123 208H22L34 267H145L209 438H112L124 498ZM206
267H343L407 438H269L206 267Z" />
<glyph unicode="$" glyph-name="dollar" horiz-adv-x="600" d="M100 224L127 68Q140 60 160 51T209 36L277 285L250 298Q219 313 195 329T153 366T127 412T118 471Q119 511 139 548T196 614T280 661T386 681L414 784H461L432 680Q476 676 508 667T567 651L534
463H498L473 595Q449 616 417 626L355 398L388 382Q454 349 490 310T525 208Q524 156 498 115T432 45T341 0T240 -19L211 -125H165L194 -17Q146 -12 103 2T34 24L60 224H100ZM398 154Q399 189 381 214T318 264L254 32H256Q282 32 307 40T352 63T385 101T398 154ZM236
529Q236 491 252 467T314 419L373 634H367Q337 634 313 625T272 602T246 568T236 529Z" />
<glyph unicode="%" glyph-name="percent" horiz-adv-x="900" d="M699 695H769L186 -50H116L699 695ZM276 636Q254 636 235 617T203 567T181 500T173 431Q173 417 175 403T182 377T197 358T221 350Q240 350 259 367T292 412T315 476T324 552Q324 587 313 611T276
636ZM216 306Q183 306 156 317T110 349T80 398T69 461Q69 502 84 541T128 611T196 661T283 680Q315 680 341 669T387 636T416 587T427 524Q427 482 412 443T369 374T302 325T216 306ZM678 312Q656 312 637 293T604 243T582 177T574 108Q574 94 576 80T584 53T599
34T623 26Q642 26 661 43T694 88T717 153T726 229Q726 264 715 288T678 312ZM617 -18Q584 -18 558 -7T512 25T482 74T471 137Q471 178 486 217T530 287T598 337T685 356Q717 356 743 345T789 312T818 263T829 200Q829 158 814 119T771 50T704 1T617 -18Z" />
<glyph unicode="&amp;" glyph-name="ampersand" horiz-adv-x="981" d="M681 423Q651 442 628 454T579 467Q548 467 535 449T522 412Q522 396 528 384T543 363T565 345T588 327Q574 307 558 290T515 273Q509 273 500 275T482 287T467 313T461 360Q461 387 473 422T510
488T569 540T650 560Q685 559 711 546T764 516Q796 495 817 482T852 460T877 449T896 446Q926 444 926 485Q927 510 917 541T886 604Q899 612 911 616T940 621Q972 620 987 599T1002 551Q1002 512 987 477T947 414T891 372T829 356Q801 357 777 368T720 399Q707
298 674 218T590 83T475 -2T333 -32Q268 -32 218 -13T133 40T80 122T61 228Q61 297 84 356T142 459T219 527T299 552Q319 552 336 545T370 526Q410 586 433 621T469 677Q483 700 488 709H507L543 677L177 186Q206 141 253 117T364 92Q421 92 472 112T565 174T637
277T681 423ZM141 317Q141 268 156 228L297 419Q298 441 285 459T245 477Q228 477 210 468T176 439T151 389T141 317Z" />
<glyph unicode="&apos;" glyph-name="quotesingle" horiz-adv-x="233" d="M150 788H289L175 485H132L150 788Z" />
<glyph unicode="(" glyph-name="parenleft" horiz-adv-x="300" d="M174 -140Q121 -72 91 18T60 209Q60 293 81 371T142 520T236 654T358 772H438Q373 712 322 647T235 507T182 348T163 163Q163 78 184 4T246 -140H174Z" />
<glyph unicode=")" glyph-name="parenright" horiz-adv-x="300" d="M135 772Q189 704 219 614T249 423Q249 339 228 261T167 112T73 -22T-49 -140H-129Q-64 -80 -13 -15T73 124T128 283T147 467Q147 553 126 627T64 772H135Z" />
<glyph unicode="*" glyph-name="asterisk" horiz-adv-x="394" d="M311 502L315 376L288 370L237 485L118 441L104 463L200 548L121 646L136 665L248 605L317 708L339 700L316 577L434 544L433 519L311 502Z" />
<glyph unicode="+" glyph-name="plus" horiz-adv-x="600" d="M343 271V66H275V271H72V334H275V540H343V334H546V271H343Z" />
<glyph unicode="," glyph-name="comma" horiz-adv-x="319" d="M-25 -155Q47 -123 79 -87T112 -8Q112 21 97 42T45 82Q46 99 51 116T65 147T90 169T128 178Q166 178 195 148T224 57Q224 16 206 -23T157 -95T84 -153T-6 -194Q-12 -184 -16 -175Q-20 -168 -22 -162T-25
-155Z" />
<glyph unicode="-" glyph-name="hyphen" horiz-adv-x="366" d="M71 325H321L302 226H52L71 325Z" />
<glyph unicode="." glyph-name="period" horiz-adv-x="305" d="M122 -10Q89 -10 65 14T41 71Q41 104 65 128T122 152Q156 152 180 128T204 71Q204 38 180 14T122 -10Z" />
<glyph unicode="/" glyph-name="slash" horiz-adv-x="486" d="M-70 -176L468 746L520 717L-18 -205L-70 -176Z" />
<glyph unicode="0" glyph-name="zero" horiz-adv-x="600" d="M376 682Q421 682 457 664T519 611T559 529T573 419Q573 376 564 327T537 229T491 136T426 57T341 2T235 -19Q188 -19 151 0T89 54T50 137T36 243Q36 318 59 396T125 537T232 641T376 682ZM248 27Q273
27 296 48T339 105T375 189T403 289T421 396T428 501Q428 531 425 555T415 597T394 625T361 635Q325 635 292 592T234 481T194 330T179 166Q179 136 182 111T193 67T214 38T248 27Z" />
<glyph unicode="1" glyph-name="one" horiz-adv-x="600" d="M345 69L486 52L476 0H43L53 51L211 69L308 563L138 561L146 610L458 679H465L345 69Z" />
<glyph unicode="2" glyph-name="two" horiz-adv-x="600" d="M173 116H497L474 0H11L27 66L128 145Q183 188 231 229T316 311T372 390T393 469Q393 521 364 549T287 578Q252 578 221 560T151 508L117 542Q137 569 160 594T212 639T273 671T344 683Q432 683 482
636T532 510Q532 463 515 423T463 343T372 260T242 164L173 116Z" />
<glyph unicode="3" glyph-name="three" horiz-adv-x="600" d="M334 369Q369 363 400 350T454 318T491 271T505 209Q505 154 475 112T400 42T304 -1T209 -16Q134 -16 89 13T43 90Q43 115 61 137T115 173Q141 103 174 71T258 38Q280 38 301 46T339 69T365 106T375
155Q375 187 360 213T318 260T253 294T170 316L180 356Q244 381 285 403T350 445T382 484T391 525Q391 556 370 573T314 591Q270 591 237 572T165 517L137 547Q158 575 182 599T236 642T297 672T368 683Q448 683 487 647T526 559Q526 527 514 502T477 455T416 413T334
373V369Z" />
<glyph unicode="4" glyph-name="four" horiz-adv-x="600" d="M281 61L303 175H17L27 229L446 673L524 664L444 264H547L529 175H427L405 63L489 44L480 0H180L189 45L281 61ZM321 264L372 523L124 264H321Z" />
<glyph unicode="5" glyph-name="five" horiz-adv-x="600" d="M531 548H234L198 391Q221 402 253 411T329 420Q365 420 398 410T458 378T500 325T516 250Q516 185 485 136T408 53T308 2T208 -16Q176 -16 147 -11T95 5T59 34T45 77Q45 104 63 123T111 153Q140 91
175 66T257 41Q284 41 308 51T350 79T378 124T389 184Q389 218 378 242T348 283T307 306T262 314Q240 314 223 311T191 302T162 288T131 269L107 275L200 664H554L531 548Z" />
<glyph unicode="6" glyph-name="six" horiz-adv-x="600" d="M593 656Q526 636 470 607T370 541T292 462T236 374H240Q266 399 299 416T378 433Q410 433 439 422T490 388T526 332T539 255Q539 199 519 150T462 63T375 3T263 -19Q216 -19 177 -4T111 40T68 113T53
215Q53 304 96 386T212 533T381 643T585 700L593 656ZM320 375Q267 375 214 323Q200 285 193 247T186 171Q186 91 207 59T268 26Q298 26 321 44T360 93T384 166T393 256Q393 310 376 342T320 375Z" />
<glyph unicode="7" glyph-name="seven" horiz-adv-x="600" d="M104 0L476 539H99L125 664H602L598 642L217 0H104Z" />
<glyph unicode="8" glyph-name="eight" horiz-adv-x="600" d="M43 131Q43 169 59 199T102 253T163 295T233 328L231 330Q186 368 164 404T141 488Q141 524 158 558T208 621T284 666T380 683Q428 683 462 672T519 641T553 597T564 544Q564 514 551 489T516 441T462
399T393 364L413 348Q433 331 451 315T482 280T504 241T512 193Q512 147 490 108T431 41T349 -4T259 -20Q158 -20 101 19T43 131ZM263 303Q246 291 228 275T194 239T169 195T159 140Q159 120 165 100T185 64T219 38T270 28Q297 28 318 37T355 62T379 97T387 138Q387
177 364 207T304 269L263 303ZM262 527Q262 492 281 468T334 415L364 389Q406 419 430 455T455 540Q455 588 430 611T366 635Q349 635 331 629T297 609T272 575T262 527Z" />
<glyph unicode="9" glyph-name="nine" horiz-adv-x="600" d="M21 6Q84 24 137 52T233 116T310 193T368 278H364Q343 258 312 244T243 229Q208 229 178 240T126 275T90 335T77 422Q77 473 96 521T150 605T234 664T346 686Q394 686 433 670T501 623T546 548T562
448Q562 356 516 272T393 123T222 16T27 -35L21 6ZM301 286Q323 286 347 297T395 334Q412 376 420 416T429 495Q429 563 410 602T345 642Q318 642 295 624T256 576T230 504T220 415Q220 352 238 319T301 286Z" />
<glyph unicode=":" glyph-name="colon" horiz-adv-x="260" d="M101 -10Q85 -10 71 -4T45 14T28 39T21 71Q21 87 27 102T45 128T70 145T101 152Q135 152 159 128T183 71Q183 38 159 14T101 -10ZM167 327Q150 327 136 333T110 351T93 376T86 407Q86 440 110 464T167
488Q200 488 224 464T248 407Q248 391 242 377T224 351T198 334T167 327Z" />
<glyph unicode=";" glyph-name="semicolon" horiz-adv-x="263" d="M-53 -161Q20 -129 52 -92T85 -13Q85 15 70 36T18 76Q19 93 24 110T38 141T63 163T101 172Q139 172 168 142T197 51Q197 10 179 -28T130 -100T57 -158T-34 -199L-53 -161ZM165 327Q149 327 135
333T109 351T92 376T85 407Q85 423 91 438T109 464T134 481T165 488Q199 488 223 464T247 407Q247 391 241 377T223 351T197 334T165 327Z" />
<glyph unicode="&lt;" glyph-name="less" horiz-adv-x="600" d="M149 301L543 123V52L71 272V331L543 551V481L149 301Z" />
<glyph unicode="=" glyph-name="equal" horiz-adv-x="600" d="M70 419H544V359H70V419ZM70 268H544V207H70V268Z" />
<glyph unicode="&gt;" glyph-name="greater" horiz-adv-x="600" d="M466 302L71 479V551L543 331V272L71 52V121L466 302Z" />
<glyph unicode="?" glyph-name="question" horiz-adv-x="426" d="M127 687L172 679Q224 670 265 649T334 598T378 531T393 453Q393 389 364 347T266 291L176 272L156 204H102L122 369L252 395Q304 406 322 423T340 461Q340 493 299 514T157 553L113 561L127 687ZM111
-10Q79 -10 57 13T34 67Q34 99 56 121T111 144Q143 144 166 122T189 67Q189 36 166 13T111 -10Z" />
<glyph unicode="@" glyph-name="at" horiz-adv-x="954" d="M544 200H539L506 149Q491 126 474 101T437 56T394 22T343 9Q303 9 283 35T262 100Q262 144 277 187T318 270T375 344T443 403T511 442T573 457Q602 457 625 447L632 475H726L635 146Q621 95 628 74T660
53Q683 53 714 71T772 124T819 211T839 329Q839 391 818 444T757 535T665 596T549 618Q471 618 400 586T275 497T189 358T157 179Q157 104 180 46T246 -53T348 -114T478 -135Q508 -135 534 -132T580 -124T615 -115T637 -109L636 -142Q607 -153 574 -161Q545 -168
509 -173T432 -179Q343 -179 274 -153T156 -81T83 28T58 167Q58 236 78 299T135 417T221 516T328 593T447 642T573 659Q657 659 722 633T832 563T898 461T920 339Q919 265 890 204T817 100T721 33T623 9Q559 9 535 48T532 160L544 200ZM405 100Q421 100 447 128T500
196T550 281T583 359L592 389Q567 408 545 408Q521 408 493 382T440 315T399 227T383 138Q383 100 405 100Z" />
<glyph unicode="A" glyph-name="A" horiz-adv-x="737" d="M-21 43L42 65L389 659L443 664L503 680L599 60L665 44L656 0H364L373 46L457 63L437 213H198L122 72L213 46L204 0H-29L-21 43ZM236 283H427L390 565H389L236 283Z" />
<glyph unicode="B" glyph-name="B" horiz-adv-x="639" d="M-18 0L-10 45L75 63L181 600L106 619L114 664H374Q439 664 485 653T560 623T602 578T616 522Q616 484 598 455T549 406T479 373T397 356V353Q495 342 547 304T599 194Q599 144 573 107T500 46T392 10T257
-2L-18 0ZM448 195Q448 263 401 295T265 331L217 91Q223 66 245 55T297 44Q325 44 352 53T400 81T435 128T448 195ZM273 373H329Q398 380 436 416T475 512Q475 565 437 593T322 619L273 373Z" />
<glyph unicode="C" glyph-name="C" horiz-adv-x="722" d="M373 -18Q305 -18 246 0T144 57T75 154T50 291Q50 365 83 435T176 560T319 648T501 682Q561 682 606 667T689 629L670 448H627L592 591Q572 606 545 616T483 627Q426 627 377 600T291 526T234 415T213
279Q213 219 227 174T267 99T327 54T403 39Q438 39 465 48T513 68L613 221H658L601 36Q553 15 495 -1T373 -18Z" />
<glyph unicode="D" glyph-name="D" horiz-adv-x="764" d="M226 115Q218 74 241 60T303 45Q371 46 424 73T513 146T569 253T588 382Q588 440 570 485T518 560T435 606T326 621L226 115ZM-6 45L79 63L185 600L109 619L118 664L361 667Q455 667 526 645T646 585T718
494T742 377Q742 284 703 212T598 92T450 20T277 -4L-14 0L-6 45Z" />
<glyph unicode="E" glyph-name="E" horiz-adv-x="639" d="M264 313L214 59H444L543 199H587L530 0H-18L-10 45L76 63L182 600L106 619L114 664H554L640 670L590 482H548L534 610H322L275 368H389L436 451H477L435 236H390L379 313H264Z" />
<glyph unicode="F" glyph-name="F" horiz-adv-x="608" d="M264 311L214 63L319 48L309 0H-18L-10 45L75 63L181 600L106 619L114 664H547L635 670L586 476H544L531 610H322L274 366H391L434 449H475L430 227H389L380 311H264Z" />
<glyph unicode="G" glyph-name="G" horiz-adv-x="740" d="M384 38Q426 38 457 57T497 131L518 244L436 259L445 302H705L695 257L644 243L603 44Q576 33 549 22T493 2T434 -12T370 -18Q301 -18 242 0T141 57T74 152T50 287Q50 363 84 434T180 561T324 649T506
682Q539 682 566 678T616 666T658 650T695 632L664 451H620L591 593Q572 607 545 617T479 627Q425 627 376 601T290 527T231 415T209 275Q209 216 223 172T260 98T316 53T384 38Z" />
<glyph unicode="H" glyph-name="H" horiz-adv-x="792" d="M411 45L496 63L544 309H262L214 63L291 45L282 0H-18L-10 45L74 63L181 600L106 619L114 664H409L401 619L320 600L274 369H556L601 600L529 619L537 664H833L824 619L741 600L635 63L713 45L704 0H403L411 45Z" />
<glyph unicode="I" glyph-name="I" horiz-adv-x="370" d="M-9 45L74 63L181 600L106 619L114 664H411L403 619L320 600L214 63L291 45L283 0H-18L-9 45Z" />
<glyph unicode="J" glyph-name="J" horiz-adv-x="369" d="M231 83Q217 16 192 -38T129 -132T42 -193T-69 -219L-73 -177Q-31 -164 -4 -141T40 -87T68 -18T88 64L194 600L113 618L122 664H425L416 619L332 600L231 83Z" />
<glyph unicode="K" glyph-name="K" horiz-adv-x="714" d="M-10 45L75 63L181 600L106 619L114 664H410L402 619L320 600L214 63L282 45L273 0H-18L-10 45ZM657 -16Q610 -16 575 -13T513 3T462 38T413 102T357 202T284 347L286 358L350 380L586 600L515 620L524
664H752L744 621L662 598L422 382Q482 268 517 201T576 98T619 48T667 24L657 -16Z" />
<glyph unicode="L" glyph-name="L" horiz-adv-x="599" d="M407 59L507 222H550L495 0H-18L-10 45L74 63L180 600L106 619L114 664H421L412 619L320 600L214 59H407Z" />
<glyph unicode="M" glyph-name="M" horiz-adv-x="940" d="M-19 45L65 66L201 600L122 619L131 664H387L474 250L704 664H948L939 619L857 600L791 62L869 45L860 0H552L561 46L651 63L719 567L460 112L417 27H369L357 111L259 576L135 73L235 44L226 0H-28L-19 45Z" />
<glyph unicode="N" glyph-name="N" horiz-adv-x="767" d="M516 -12L236 532L148 72L266 43L257 0H-15L-6 45L78 66L182 587L102 620L110 664H326L575 175L652 590L538 621L546 664H812L803 619L720 596L624 112L607 -12H516Z" />
<glyph unicode="O" glyph-name="O" horiz-adv-x="758" d="M458 682Q516 682 566 662T653 604T712 511T734 384Q734 313 707 241T627 111T500 17T327 -20Q267 -20 217 0T129 59T70 153T49 279Q49 352 77 424T159 553T287 646T458 682ZM581 437Q581 480 574 515T550
576T509 616T450 631Q403 631 358 598T278 508T222 379T201 228Q201 135 233 83T335 31Q373 31 406 50T466 100T514 174T551 261T573 351T581 437Z" />
<glyph unicode="P" glyph-name="P" horiz-adv-x="619" d="M311 327Q344 329 376 338T433 367T473 416T489 487Q489 548 446 584T325 619L215 63L320 45L312 0H-18L-10 45L75 63L181 600L105 619L114 664L387 665Q439 662 484 651T563 618T615 566T634 493Q634
436 604 396T527 332T420 297T302 289L311 327Z" />
<glyph unicode="Q" glyph-name="Q" horiz-adv-x="758" d="M458 682Q516 682 566 662T653 604T712 511T734 384Q734 322 711 259T644 141T539 48T400 -6Q457 -62 504 -95T597 -129Q608 -129 617 -128T635 -125T653 -118T677 -106L692 -132Q674 -146 656 -158T618
-179T575 -193T523 -198Q482 -198 446 -184T374 -142T298 -77T214 10Q179 25 149 50T96 110T62 187T49 282Q49 330 61 378T98 470T158 553T239 620T340 665T458 682ZM581 437Q581 480 574 515T550 576T509 616T450 631Q403 631 358 598T278 508T222 379T201 228Q201
135 233 83T335 31Q373 31 406 50T466 100T514 174T551 261T573 351T581 437Z" />
<glyph unicode="R" glyph-name="R" horiz-adv-x="701" d="M-9 45L75 63L182 601L106 619L115 664L381 665Q439 665 486 655T567 624T619 573T637 505Q637 463 619 433T572 382T511 349T450 330Q496 235 524 178T574 89T614 44T659 22L652 -15Q606 -15 573 -12T515
2T468 33T424 88T377 174T318 296H261L215 63L307 44L298 0H-18L-9 45ZM270 344Q381 342 436 384T492 499Q492 527 483 550T453 589T402 613T325 621L270 344Z" />
<glyph unicode="S" glyph-name="S" horiz-adv-x="559" d="M99 227L124 68Q143 57 172 46T238 34Q295 34 331 64T368 150Q367 188 344 215T269 274L223 301Q194 318 174 335T139 371T119 414T112 468Q112 509 131 547T185 616T271 664T385 682Q436 682 477 671T550
651L506 461H458L450 600Q433 612 408 621T351 631Q326 631 305 623T268 602T243 570T234 532Q234 513 238 498T252 471T277 446T316 420L372 386Q403 366 427 348T467 310T493 265T502 210Q502 154 476 112T408 40T316 -4T218 -19Q185 -19 156 -14T102 -3T57 11T23
23L52 227H99Z" />
<glyph unicode="T" glyph-name="T" horiz-adv-x="689" d="M635 664L718 671L675 476H632L616 610H477L369 63L459 45L451 0H123L132 45L231 63L338 610H204L134 476H92L126 671L204 664H635Z" />
<glyph unicode="U" glyph-name="U" horiz-adv-x="742" d="M333 -22Q267 -22 218 -5T138 49T99 143T105 279L169 600L94 619L103 664H399L391 619L311 600L243 256Q223 159 257 106T371 53Q406 53 438 64T498 102T546 171T578 277L636 595L521 621L529 664H793L784
619L702 596L642 287Q613 141 537 60T333 -22Z" />
<glyph unicode="V" glyph-name="V" horiz-adv-x="706" d="M145 601L83 619L92 664H382L373 619L292 599L363 134H365L615 594L514 618L523 664H764L755 619L689 600L340 -11H252L145 601Z" />
<glyph unicode="W" glyph-name="W" horiz-adv-x="1024" d="M542 430L313 -9H223L147 601L82 619L91 664H382L373 619L293 600L339 151L529 522L519 601L448 619L457 664H751L742 618L663 599L716 150L927 592L840 618L849 664H1082L1073 619L1001 598L694 -9H601L542
430Z" />
<glyph unicode="X" glyph-name="X" horiz-adv-x="712" d="M-9 46L58 63L306 324L183 601L122 619L130 664H425L416 619L336 601L413 411H415L577 595L497 618L506 664H732L724 619L659 600L435 362L568 62L635 45L626 0H326L335 46L416 63L328 276H326L144 66L221
45L212 0H-18L-9 46Z" />
<glyph unicode="Y" glyph-name="Y" horiz-adv-x="662" d="M410 273L369 63L454 45L445 0H129L138 45L230 63L267 252L149 604L91 619L100 664H391L382 620L296 603L384 322H386L580 598L499 620L508 664H718L709 620L648 600L410 273Z" />
<glyph unicode="Z" glyph-name="Z" horiz-adv-x="626" d="M-9 45L456 606H222L145 461H100L142 671L225 664H660L657 649L170 59H432L533 222H577L512 -6L424 0H-15L-9 45Z" />
<glyph unicode="[" glyph-name="bracketleft" horiz-adv-x="300" d="M-1 -141L183 773H380L371 723H274L111 -91H208L198 -141H-1Z" />
<glyph unicode="\" glyph-name="backslash" horiz-adv-x="488" d="M340 -204L133 730L192 742L398 -193L340 -204Z" />
<glyph unicode="]" glyph-name="bracketright" horiz-adv-x="300" d="M309 773L125 -141H-71L-61 -91H35L198 723H101L111 773H309Z" />
<glyph unicode="^" glyph-name="asciicircum" horiz-adv-x="471" d="M80 468L288 756H366L467 468H414L312 675L138 468H80Z" />
<glyph unicode="_" glyph-name="underscore" horiz-adv-x="408" d="M-59 -146H320L307 -216H-73L-59 -146Z" />
<glyph unicode="`" glyph-name="grave" horiz-adv-x="400" d="M258 764L297 565H242L152 746V764H258Z" />
<glyph unicode="a" glyph-name="a" horiz-adv-x="575" d="M542 501L429 82L432 81Q461 92 485 114T529 166L552 154Q540 123 518 94T469 41T414 3T360 -12Q323 -12 308 14T312 105L339 190H334Q317 165 294 130T241 62T178 6T107 -17Q62 -17 38 11T14 82Q14 132
29 181T70 276T132 359T206 426T286 471T365 488Q382 488 398 484T429 471L438 501H542ZM174 82Q195 82 224 109T282 175T337 261T374 346L393 407Q369 442 338 442Q320 442 299 428T257 389T217 333T182 266T158 195T149 125Q149 105 154 94T174 82Z" />
<glyph unicode="b" glyph-name="b" horiz-adv-x="550" d="M205 -17Q163 -17 123 1T40 53L22 67L165 650L98 677L104 701L316 746L206 319H212Q231 353 253 385T302 443T356 483T417 498Q471 498 497 461T524 358Q524 296 502 230T438 109T338 19T205 -17ZM148
81Q153 59 171 42T216 25Q247 25 277 57T332 140T371 250T386 364Q386 391 376 401T353 411Q334 411 315 397T276 359T239 305T206 244T179 182T160 128L148 81Z" />
<glyph unicode="c" glyph-name="c" horiz-adv-x="444" d="M282 435Q257 435 235 407T197 338T170 250T160 163Q160 136 165 119T178 92T196 77T219 73Q252 73 294 103T374 183L397 165Q386 142 364 111T309 52T238 4T153 -16Q122 -16 98 -4T58 28T32 75T23 135Q23
232 71 311T197 442Q236 467 276 482T348 498Q391 498 420 479T450 434Q450 422 444 409T430 383T412 363T396 351Q382 366 368 381T338 408T309 427T282 435Z" />
<glyph unicode="d" glyph-name="d" horiz-adv-x="600" d="M334 496Q357 496 377 489T413 473L456 650L389 677L395 701L604 746L440 82L443 81Q472 92 496 114T541 166L563 154Q552 125 530 96T480 42T424 3T368 -12Q330 -12 316 17T320 105L345 185H340Q321 156
297 121T245 55T186 4T120 -17Q77 -17 49 14T21 112Q21 152 32 196T63 282T113 363T176 431T251 478T334 496ZM397 403Q383 424 366 439T329 455Q298 455 268 422T215 341T178 240T163 144Q163 110 170 97T192 84Q206 84 224 97T261 134T301 186T338 247T369 311T389
370L397 403Z" />
<glyph unicode="e" glyph-name="e" horiz-adv-x="446" d="M159 -15Q123 -15 98 -3T55 29T30 77T22 136Q22 185 35 229T72 312T125 382T190 438Q228 465 270 481T351 498Q448 498 448 418Q448 380 422 347T354 289T261 246T158 220Q157 210 157 201T156 181Q156
124 172 99T223 74Q241 74 260 82T298 102T331 129T358 158L381 140Q371 121 351 95T303 44T238 2T159 -15ZM310 449Q291 449 270 434T228 393T191 332T165 258Q197 267 227 284T282 324T320 371T335 419Q335 433 329 441T310 449Z" />
<glyph unicode="f" glyph-name="f" horiz-adv-x="354" d="M59 478H150Q173 543 211 593T289 677T365 728T422 746Q441 746 456 740T482 725T498 705T504 684Q504 657 483 638T428 604Q414 643 401 661T370 679Q359 679 348 670T325 639T301 577T275 478H402L391
423H263L190 72Q169 -28 132 -92T54 -193T-26 -245T-89 -260Q-123 -260 -148 -240T-173 -189Q-173 -163 -155 -145T-110 -118Q-93 -152 -75 -176T-35 -200Q-12 -200 5 -167T36 -61L133 417Q133 419 133 420T134 423H50L59 478Z" />
<glyph unicode="g" glyph-name="g" horiz-adv-x="499" d="M293 497Q317 497 340 492T384 482L537 491L513 405L422 431L421 427Q447 390 447 345Q447 303 428 264T375 194T298 145T205 126Q198 126 192 126T180 128Q164 119 159 110T153 92Q153 78 163 70T190
55L357 -5Q405 -22 424 -45T444 -104Q444 -140 417 -170T347 -222T251 -256T144 -269Q36 -269 -23 -239T-82 -165Q-82 -142 -68 -125T-30 -95T29 -70T104 -49V-45Q77 -34 58 -14T38 37Q38 73 66 98T138 136V140Q97 158 74 194T50 276Q50 319 67 359T115 430T192
479T293 497ZM155 -63Q109 -75 79 -92T49 -140Q49 -175 92 -198T202 -221Q231 -221 255 -216T298 -201T326 -181T336 -157Q336 -141 323 -130T272 -104L155 -63ZM287 456Q264 456 243 434T206 379T179 307T169 235Q169 203 179 185T209 166Q230 166 251 186T290
240T318 312T329 389Q329 418 319 437T287 456Z" />
<glyph unicode="h" glyph-name="h" horiz-adv-x="573" d="M192 269H199Q222 308 249 348T308 422T375 476T448 498Q468 498 483 493T506 474T515 437T507 379L431 82L434 81Q463 92 487 114T531 166L554 154Q543 125 521 95T472 41T416 1T360 -15Q326 -15 309
12T308 99L379 365Q388 403 366 403Q351 403 331 385T287 337T241 269T197 191T161 112T138 43L130 7L22 -16L1 -1L163 650L96 677L102 701L311 746L192 269Z" />
<glyph unicode="i" glyph-name="i" horiz-adv-x="310" d="M37 418L41 435Q63 453 89 467Q110 479 137 489T190 499Q227 499 240 473T239 385L167 82L170 81Q199 92 223 114T267 166L290 154Q279 125 257 95T208 41T152 1T96 -15Q62 -15 46 12T44 99L118 399L37
418ZM160 671Q160 702 181 723T234 745Q265 745 286 724T308 671Q308 641 287 619T234 597Q203 597 182 619T160 671Z" />
<glyph unicode="j" glyph-name="j" horiz-adv-x="298" d="M139 399L58 418L61 435Q84 453 109 467Q130 479 156 489T208 499Q243 499 259 472T260 381L183 67Q166 -4 137 -64T71 -167T-8 -235T-92 -260Q-109 -260 -126 -255T-156 -241T-178 -217T-187 -185Q-187
-161 -167 -142T-119 -115Q-108 -150 -90 -175T-48 -200Q-34 -200 -23 -186T-1 -146T19 -85T39 -10L139 399ZM181 671Q181 702 202 723T255 745Q285 745 307 724T329 671Q329 641 307 619T255 597Q224 597 203 619T181 671Z" />
<glyph unicode="k" glyph-name="k" horiz-adv-x="520" d="M430 -39Q379 -39 341 -12T268 63L174 172Q161 142 151 113T136 56L126 7L22 -16L1 -1L163 650L96 677L102 701L310 746L198 296H203Q229 341 255 378T308 442T363 483T422 498Q464 498 487 473T510 411Q510
344 455 291T293 195L486 -16V-27Q478 -32 464 -35T430 -39ZM367 405Q347 405 323 386T273 336T224 265T179 182Q234 200 275 223T343 271T385 321T399 369Q399 405 367 405Z" />
<glyph unicode="l" glyph-name="l" horiz-adv-x="294" d="M276 154Q264 125 242 95T193 41T137 1T81 -15Q47 -15 31 12T29 99L165 650L98 677L104 701L313 746L152 82L155 81Q184 92 208 114T253 166L276 154V154Z" />
<glyph unicode="m" glyph-name="m" horiz-adv-x="868" d="M120 401L40 418L44 435Q68 453 94 467Q116 479 142 489T192 499Q233 499 244 467T236 372L202 265H209Q233 303 261 344T322 420T389 476T461 498Q505 498 521 469T516 372L482 265H489Q513 303 541 344T602
420T669 476T743 498Q764 498 779 493T802 474T810 437T801 379L726 82L729 81Q758 92 782 114T826 166L849 154Q838 124 816 94T766 40T710 1T655 -15Q620 -15 603 12T602 99L674 365Q683 403 661 403Q645 403 625 386T582 339T537 273T494 195T459 116T435 44L426
7L317 -16L296 -1L394 365Q403 403 381 403Q365 403 345 386T301 339T255 273T211 195T176 116T153 43L145 7L37 -16L15 -1L120 401Z" />
<glyph unicode="n" glyph-name="n" horiz-adv-x="591" d="M120 401L40 418L44 435Q68 453 94 467Q116 479 142 489T192 499Q277 499 236 372L202 265H209Q233 303 262 344T323 420T392 477T466 499Q487 499 502 494T525 474T533 437T524 379L449 82L452 81Q481
92 505 114T549 166L572 154Q560 124 538 94T489 40T433 1T378 -15Q343 -15 326 12T325 99L396 365Q401 383 399 393T384 403Q368 403 348 386T304 339T258 272T215 194T179 115T155 43L146 6L37 -16L15 -1L120 401Z" />
<glyph unicode="o" glyph-name="o" horiz-adv-x="535" d="M165 124Q165 107 166 90T173 58T188 34T212 25Q232 25 251 41T288 83T320 144T346 215T363 289T369 357Q369 371 367 388T360 421T346 447T320 458Q299 458 280 442T244 398T212 336T187 264T171 191T165
124ZM333 498Q375 498 407 483T462 443T495 383T506 309Q506 252 485 194T425 90T330 14T203 -15Q161 -15 129 -1T74 40T41 101T29 178Q29 234 50 291T110 394T205 469T333 498Z" />
<glyph unicode="p" glyph-name="p" horiz-adv-x="557" d="M126 358L23 300L8 331Q39 351 71 372T139 413L170 542H277L260 472Q293 485 324 492T384 500Q459 500 496 461T533 352Q533 313 523 271T493 188T446 111T385 47T312 3T230 -14Q210 -14 195 -10T166 2L120
-190H248L237 -240H-92L-87 -208Q-68 -202 -51 -197Q-37 -192 -23 -187T-2 -178L126 358ZM234 26Q264 26 293 56T346 131T383 231T398 334Q398 375 379 404T316 433Q295 433 268 424L181 62Q205 26 234 26Z" />
<glyph unicode="q" glyph-name="q" horiz-adv-x="550" d="M323 123Q324 128 327 137T333 158Q337 170 340 185H335Q316 156 292 121T240 55T181 4T115 -17Q72 -17 44 14T16 112Q16 152 27 196T58 282T108 363T171 431T246 478T329 496Q359 496 384 485T426 461L434
496H540L371 -190H461L448 -240H159L166 -205Q183 -203 199 -199Q213 -196 226 -193T247 -184L323 123ZM187 84Q207 84 237 113T296 186T350 279T384 370L392 403Q378 424 361 439T324 455Q293 455 263 422T210 341T173 240T158 144Q158 110 165 97T187 84Z" />
<glyph unicode="r" glyph-name="r" horiz-adv-x="461" d="M53 117Q69 180 81 232T101 322Q111 366 118 401L41 418L44 435Q65 453 88 467Q108 479 132 489T179 499Q225 499 235 466T226 372L171 196H186Q212 256 237 311T289 407T346 474T412 499Q438 499 455
482T473 433Q473 415 467 398T450 365T429 339T408 322H365Q372 334 375 346T378 369T374 388T361 400Q332 380 297 326T228 203Q205 155 187 110T152 6L44 -16L23 -1L53 117Z" />
<glyph unicode="s" glyph-name="s" horiz-adv-x="384" d="M332 158Q332 125 312 93T261 37T191 -3T115 -18Q92 -18 70 -11T31 9T4 39T-7 74Q-7 97 1 115T26 155H30Q72 110 111 79T189 48Q209 48 221 58T233 88Q233 105 221 123T185 164L136 213Q105 244 88 269T71
323Q71 359 93 391T149 448T219 486T287 501Q304 501 321 496T352 481T374 458T383 428Q383 405 375 384T354 345H349Q314 377 280 402T209 427Q190 427 179 417T168 390Q168 373 178 360T211 324L267 268Q305 230 318 207T332 158Z" />
<glyph unicode="t" glyph-name="t" horiz-adv-x="381" d="M52 478H143L194 599H286L260 478H385L377 423H251L170 90L174 87Q196 96 217 110T256 141T290 175T317 210L340 196Q326 166 299 129T238 60T168 7T99 -15Q83 -15 70 -8T49 13T38 45T40 86L124 423H44L52 478Z" />
<glyph unicode="u" glyph-name="u" horiz-adv-x="580" d="M37 419L41 435Q63 453 88 467Q109 479 134 489T184 500Q228 500 241 472T236 374L169 114Q160 81 177 81Q189 81 208 99T251 147T298 215T344 291T380 366T402 428L413 476L520 499L541 484L442 82L445
81Q474 92 498 114T542 166L565 154Q553 125 531 95T482 41T426 1T370 -15Q334 -15 319 13T323 104L363 237H358Q335 206 308 163T249 81T178 13T96 -15Q61 -15 44 13T43 109L118 402L37 419Z" />
<glyph unicode="v" glyph-name="v" horiz-adv-x="485" d="M227 95Q300 172 340 234T381 351Q382 383 364 398T318 414Q305 414 292 412T267 406L271 431Q305 465 338 481T400 497Q437 497 459 474T481 411Q481 369 462 329T412 247T339 161T254 68L179 -14H170L116
6L94 397Q76 413 48 413Q39 413 26 411T3 405L7 431Q42 466 73 481T133 497Q168 497 191 475T216 392L227 95Z" />
<glyph unicode="w" glyph-name="w" horiz-adv-x="724" d="M468 98H472Q541 166 580 231T620 353Q620 384 602 399T557 414Q543 414 530 412T506 406L510 432Q544 466 577 481T637 497Q674 497 697 474T720 409Q720 368 700 325T647 238T574 151T495 66L417 -16H404L356
5L354 189H352Q326 161 299 129T235 59L164 -16H152L103 1L92 397Q85 404 74 408T48 413Q38 413 25 411T3 405L7 432Q42 467 74 482T134 497Q169 497 191 475T214 394L216 100H220Q244 125 265 149T304 195T332 231T349 254L346 394Q340 402 327 407T298 413Q288
413 274 411T251 405L255 432Q292 467 324 482T383 497Q400 497 415 493T441 477T459 446T466 395L468 98Z" />
<glyph unicode="x" glyph-name="x" horiz-adv-x="554" d="M331 -14Q306 -14 294 -2T271 42L231 179L196 124Q173 88 155 62T119 18T85 -8T46 -17Q21 -17 0 0T-21 51Q-21 68 -16 81T-3 104Q5 115 15 123L49 107Q69 96 84 94T115 100T149 130T193 189L217 225L185
336Q175 368 168 382T146 397Q130 397 112 371T86 278H54Q54 328 64 368T93 437T137 481T192 497Q232 497 254 474T293 393L316 311L372 399Q436 499 492 498Q520 498 536 482T553 433Q553 398 532 367T481 319H451Q459 344 457 366T439 389Q425 389 409 371T364
314Q359 307 349 294T329 266L382 82H385Q416 93 440 115T485 167L507 154Q496 125 474 95T427 41T376 2T331 -14Z" />
<glyph unicode="y" glyph-name="y" horiz-adv-x="506" d="M18 278Q18 316 26 355T52 425T94 476T153 496Q212 496 248 435T287 252Q289 177 278 112T249 -3H254Q314 74 352 146T407 302Q405 354 393 393T362 469Q378 480 395 487T436 494Q446 494 457 491T478
478T494 454T501 417Q501 355 472 281T394 130T285 -18T162 -145T42 -234T-60 -268Q-102 -268 -129 -248T-157 -189Q-158 -160 -138 -138T-82 -116Q-46 -116 -29 -140T-3 -201H2Q54 -179 86 -130T137 -23T161 95T167 200Q165 301 150 349T111 397Q90 397 74 368T50
278H18Z" />
<glyph unicode="z" glyph-name="z" horiz-adv-x="509" d="M530 461L186 146L284 107Q317 94 340 92T381 97T412 122T439 167L467 158Q454 119 440 86T406 30T360 -6T299 -19Q276 -19 252 -10T184 20L94 61L29 -14L-13 24L333 341L228 381Q180 399 152 399T117
385Q112 371 130 353T192 314Q166 282 147 266T106 249Q81 249 65 265T49 311Q49 329 61 361T95 424T151 478T225 501Q251 501 280 492T336 470L426 429L487 500L530 461Z" />
<glyph unicode="{" glyph-name="braceleft" horiz-adv-x="300" d="M133 329Q175 315 192 286T199 197L168 24Q162 -14 162 -37T169 -74T193 -93T236 -98L228 -141H210Q160 -141 129 -130T81 -95T62 -37T70 45L107 220Q116 262 105 281T61 302L31 303L43 365L79
366Q111 367 127 383T149 428L182 617Q189 655 203 684T241 733T303 763T393 773H410L401 730Q374 730 356 726T324 708T301 670T282 605L248 449Q237 397 210 368T133 332V329Z" />
<glyph unicode="|" glyph-name="bar" horiz-adv-x="262" d="M10 -205L197 740H258L71 -204L10 -205Z" />
<glyph unicode="}" glyph-name="braceright" horiz-adv-x="300" d="M177 303Q136 317 118 346T111 435L142 608Q149 645 149 669T142 706T118 725T74 730L83 773H100Q150 773 182 762T230 727T248 668T240 587L203 412Q194 370 205 351T249 330L280 329L267 267L231
266Q199 265 183 249T161 204L128 15Q122 -23 108 -52T69 -101T7 -131T-83 -141H-100L-91 -98Q-64 -98 -46 -94T-14 -76T10 -39T29 27L62 183Q74 235 101 264T177 300V303Z" />
<glyph unicode="~" glyph-name="asciitilde" horiz-adv-x="471" d="M35 217L40 231Q56 276 76 301T120 335T171 342T229 327L273 311Q306 299 328 295T365 294T390 312T411 351L448 333L442 317Q424 269 404 243T360 208T306 202T243 220L198 237Q168 248 149
252T115 252T91 235T72 199L35 217Z" />
<glyph unicode="&#xa1;" glyph-name="exclamdown" horiz-adv-x="295" d="M9 -122L151 369H205L156 -122H9ZM196 582Q228 582 250 560T273 506Q273 474 251 451T196 428Q164 428 142 451T119 506Q119 537 141 559T196 582Z" />
<glyph unicode="&#xa2;" glyph-name="cent" horiz-adv-x="445" d="M156 -15Q90 -13 57 30T24 136Q24 184 37 229T73 313T129 386T201 446Q230 464 259 476T314 494L353 618H398L360 496Q398 493 425 475T452 434Q452 422 446 409T432 385T414 365T400 353Q382
376 367 394T338 423L228 67Q262 72 303 104T381 184L404 166Q394 146 376 120T331 68T273 21T204 -9L168 -125H122L156 -15ZM292 441Q263 441 238 416T194 351T164 260T153 159Q153 123 161 104T184 75L298 441H292Z" />
<glyph unicode="&#xa3;" glyph-name="sterling" horiz-adv-x="600" d="M102 308H201L228 425Q249 515 284 575T359 671T440 723T511 738Q534 738 556 729T594 706T620 672T630 633Q629 604 605 588T537 567Q529 620 514 651T473 682Q462 682 452 674T432 646T411
592T388 507L342 308H514L503 252H327Q304 175 262 124T173 40Q193 30 212 20T247 0L287 -25Q322 -47 348 -64T395 -94T430 -112T456 -119Q468 -119 476 -107T490 -76T497 -32T497 19Q542 20 566 7T590 -39Q590 -62 574 -88T533 -135T476 -171T413 -185Q352 -185
290 -150T155 -51L98 0Q72 -11 52 -15T19 -20Q-11 -20 -26 -5T-42 34Q-42 57 -24 74T22 91Q40 91 65 84T117 65Q137 91 153 127T180 213L189 252H92L102 308Z" />
<glyph unicode="&#xa5;" glyph-name="yen" horiz-adv-x="600" d="M76 317H220L118 604L60 619L69 664H360L351 620L265 603L347 361H350L524 598L443 620L452 664H662L653 620L592 600L381 317H538L528 267H359L345 195H512L501 146H336L320 63L407 45L398 0H82L91
45L186 63L202 146H38L49 195H212L226 268H65L76 317Z" />
<glyph unicode="&#xa6;" glyph-name="brokenbar" horiz-adv-x="262" d="M111 313L194 734H256L173 313H111ZM10 -201L92 219H154L71 -201H10Z" />
<glyph unicode="&#xa7;" glyph-name="section" horiz-adv-x="553" d="M228 -95Q235 -50 219 -7T177 78L122 172Q102 207 88 246T74 326Q74 372 96 415T155 496T237 565T330 619T420 653T494 666Q537 666 557 649T577 607Q577 584 559 565T513 544Q495 558 478
569Q464 579 450 587T426 595Q406 593 383 588T335 573Q330 556 330 544Q323 499 339 456T380 371L436 277Q457 242 470 203T484 129Q484 81 462 37T403 -46T321 -116T229 -170T139 -205T65 -217Q22 -217 2 -199T-18 -155Q-18 -130 0 -113T40 -94Q59 -109 77 -120Q92
-130 107 -138T132 -146Q152 -144 175 -139T222 -125Q224 -117 226 -109T228 -95ZM174 369Q174 334 186 299T221 227L270 144Q295 101 305 70T314 6Q313 -23 301 -47T275 -92H288Q331 -64 360 -21T388 85Q387 120 373 152T337 222L288 305Q263 348 254 379T245
443Q246 472 257 496T283 541H271Q230 514 202 472T174 369Z" />
<glyph unicode="&#xa8;" glyph-name="dieresis" horiz-adv-x="400" d="M77 654Q77 682 96 701T143 720Q170 720 189 701T208 654Q208 627 189 609T143 590Q115 590 96 608T77 654ZM280 654Q280 682 299 701T345 720Q372 720 391 701T411 654Q411 627 392 609T345
590Q318 590 299 608T280 654Z" />
<glyph unicode="&#xa9;" glyph-name="copyright" horiz-adv-x="806" d="M68 327Q71 399 100 462T178 572T290 646T426 673Q498 673 560 646T667 573T737 463T759 327Q757 255 728 192T650 83T537 9T401 -18Q329 -18 268 9T161 82T91 192T68 327ZM107 327Q105 262
127 206T190 107T285 41T404 17Q467 17 524 41T623 107T692 205T720 327Q723 391 701 448T639 547T543 613T425 638Q362 638 305 614T205 547T136 448T107 327ZM405 132Q313 132 262 178T211 303Q211 348 230 388T283 457T362 504T460 522Q495 522 527 514T581
497L565 387H534L514 466Q500 474 484 478T450 483Q420 483 396 470T354 433T328 380T318 315Q318 246 350 210T424 173Q448 173 466 180L524 267H559L529 155Q503 147 471 140T405 132Z" />
<glyph unicode="&#xaa;" glyph-name="ordfeminine" horiz-adv-x="475" d="M473 680L384 350H387Q410 358 428 374T462 414L480 402Q471 378 453 355T414 313T369 282T325 270Q298 270 284 292T287 365L308 427H304Q291 407 273 380T231 327T182 284T125 266Q89
266 70 288T51 346Q51 406 77 464T145 568T235 642T330 670Q344 670 356 666T379 656L387 680H473ZM180 351Q196 351 218 370T263 419T305 484T335 552L351 604Q331 632 308 632Q287 632 262 607T214 545T176 464T161 383Q161 351 180 351Z" />
<glyph unicode="&#xab;" glyph-name="guillemotleft" horiz-adv-x="673" d="M386 444L187 241L315 41L279 14L71 231L74 261L358 477L386 444ZM638 444L439 241L567 41L531 14L323 231L326 261L610 477L638 444Z" />
<glyph unicode="&#xae;" glyph-name="registered" horiz-adv-x="458" d="M81 543Q81 588 98 627T145 694T215 739T300 756Q345 756 384 740T452 695T498 627T515 543Q515 498 498 460T451 393T381 348T296 331Q251 331 212 347T144 391T98 459T81 543ZM117 543Q117
505 131 472T169 415T226 376T297 362Q336 362 369 376T426 414T465 471T479 543Q479 581 465 614T427 671T369 710T297 724Q259 724 226 710T169 672T131 614T117 543ZM170 459L200 466L234 635L204 641L208 662H313Q364 662 388 645T412 602Q412 576 392 561T347
538Q363 510 372 495T388 471T401 460T417 454L414 437Q388 436 373 437T345 447T320 473T291 526H271L260 465L281 459L277 439H166L170 459ZM276 551Q287 551 298 553T315 557Q332 563 339 574T347 597Q347 614 335 625T293 638L276 551Z" />
<glyph unicode="&#xaf;" glyph-name="macron" horiz-adv-x="400" d="M108 691H394L379 619H92L108 691Z" />
<glyph unicode="&#xb0;" glyph-name="degree" horiz-adv-x="339" d="M82 603Q82 634 94 661T126 707T174 738T233 750Q264 750 291 739T337 708T368 661T379 603Q379 571 367 544T335 498T288 467T230 455Q198 455 171 466T125 497T94 544T82 603ZM139 603Q139
582 146 565T165 534T194 513T231 505Q271 505 297 533T323 603Q323 645 297 673T231 701Q211 701 195 694T166 673T146 642T139 603Z" />
<glyph unicode="&#xb1;" glyph-name="plusminus" horiz-adv-x="600" d="M342 412V207H274V412H71V476H274V681H342V476H545V412H342ZM71 0V63H545V0H71Z" />
<glyph unicode="&#xb4;" glyph-name="acute" horiz-adv-x="400" d="M344 764V746L217 565H161L239 764H344Z" />
<glyph unicode="&#xb6;" glyph-name="paragraph" horiz-adv-x="603" d="M183 -208Q147 -208 117 -198T65 -167T30 -118T17 -53Q17 -25 26 0T53 43T95 72T148 83Q184 83 204 62T224 15Q224 -11 207 -31T160 -53L88 -12L81 -13Q74 -26 74 -54Q76 -102 105 -132T192
-162Q319 -162 352 8L472 613H398L316 196H269Q223 196 186 213T123 259T86 327T79 410Q84 464 110 510T176 590T264 644T361 664H646L638 620L550 600L437 28Q424 -37 399 -81T339 -154T264 -195T183 -208Z" />
<glyph unicode="&#xb7;" glyph-name="periodcentered" horiz-adv-x="283" d="M144 191Q128 191 114 197T88 215T71 240T64 271Q64 288 70 303T88 329T113 346T144 353Q178 353 202 329T226 271Q226 255 220 241T202 215T176 198T144 191Z" />
<glyph unicode="&#xb8;" glyph-name="cedilla" horiz-adv-x="400" d="M60 -230Q76 -225 93 -218T126 -201T150 -178T160 -146Q160 -124 148 -112T126 -94L204 4H249L207 -56Q230 -64 246 -80T263 -125Q263 -157 246 -180T200 -220T137 -247T65 -264L60 -230Z" />
<glyph unicode="&#xba;" glyph-name="ordmasculine" horiz-adv-x="444" d="M173 376Q173 362 174 349T180 325T191 308T209 301Q232 301 254 329T293 398T320 485T331 569Q331 581 330 594T324 619T313 637T293 645Q277 645 262 632T234 596T210 546T190 488T178
429T173 376ZM304 678Q338 678 364 666T407 634T434 585T443 523Q443 477 427 432T379 350T303 290T201 267Q167 267 141 279T97 312T70 362T61 425Q61 470 77 515T125 596T202 655T304 678Z" />
<glyph unicode="&#xbb;" glyph-name="guillemotright" horiz-adv-x="673" d="M32 45L231 248L103 449L139 475L347 258L344 229L60 13L32 45ZM284 45L483 248L355 449L391 475L599 258L596 229L312 13L284 45Z" />
<glyph unicode="&#xbc;" glyph-name="onequarter" horiz-adv-x="928" d="M54 312L148 325L199 577H94L97 619L325 665H332L264 323L351 312L343 271H47L54 312ZM696 87H499L507 128L811 403L864 396L814 149H896L884 87H802L785 0H679L696 87ZM708 149L734 284L589
149H708ZM165 -51L766 726L809 692L208 -85L165 -51Z" />
<glyph unicode="&#xbd;" glyph-name="onehalf" horiz-adv-x="963" d="M54 312L148 325L199 577H94L97 619L325 665H332L264 323L351 312L343 271H47L54 312ZM559 38L647 98Q722 149 762 188T802 268Q802 293 784 313T735 334Q706 334 681 320T628 277L600 304Q615
325 633 344T672 377T718 399T776 408Q803 408 827 401T870 378T900 342T911 294Q911 268 899 244T861 197T800 148T715 94L697 83H906L890 0H551L559 38ZM166 -51L767 726L810 692L209 -85L166 -51Z" />
<glyph unicode="&#xbe;" glyph-name="threequarters" horiz-adv-x="949" d="M197 253Q125 253 86 277T45 336Q45 359 61 373T103 395Q123 344 151 320T219 296Q245 296 264 313T284 362Q284 401 250 421T152 445L159 484L187 491Q248 508 271 529T295 573Q295
593 280 605T242 618Q207 618 181 602T127 560L96 587Q118 612 138 629T181 657T226 671T277 676Q334 676 369 653T404 592Q404 555 369 529T280 489V487Q339 482 368 457T398 393Q398 361 381 336T337 292T273 263T197 253ZM716 87H519L527 128L831 403L884 396L834
149H916L904 87H822L805 0H699L716 87ZM728 149L754 284L609 149H728ZM190 -51L791 726L834 692L233 -85L190 -51Z" />
<glyph unicode="&#xbf;" glyph-name="questiondown" horiz-adv-x="436" d="M300 -116L255 -107Q203 -97 162 -76T92 -25T48 41T33 118Q33 183 62 225T161 281L251 300L271 368H325L305 203L175 176Q123 165 105 149T87 111Q87 78 127 57T260 20L314 11L300 -116ZM316
583Q348 583 370 560T393 506Q393 474 371 452T316 429Q300 429 286 435T261 451T244 476T238 506Q238 521 244 535T260 559T285 576T316 583Z" />
<glyph unicode="&#xc0;" glyph-name="Agrave" horiz-adv-x="737" d="M-21 43L42 65L389 659L443 664L503 680L599 60L665 44L656 0H364L373 46L457 63L437 213H198L122 72L213 46L204 0H-29L-21 43ZM236 283H427L390 565H389L236 283ZM443 875L491 736H422L322
854V875H443Z" />
<glyph unicode="&#xc1;" glyph-name="Aacute" horiz-adv-x="737" d="M-21 43L42 65L389 659L443 664L503 680L599 60L665 44L656 0H364L373 46L457 63L437 213H198L122 72L213 46L204 0H-29L-21 43ZM236 283H427L390 565H389L236 283ZM619 875V854L480 736H411L499
875H619Z" />
<glyph unicode="&#xc2;" glyph-name="Acircumflex" horiz-adv-x="737" d="M-21 43L42 65L389 659L443 664L503 680L599 60L665 44L656 0H364L373 46L457 63L437 213H198L122 72L213 46L204 0H-29L-21 43ZM236 283H427L390 565H389L236 283ZM306 736L431 871H524L595
736H536L467 804L373 736H306Z" />
<glyph unicode="&#xc3;" glyph-name="Atilde" horiz-adv-x="737" d="M-21 43L42 65L389 659L443 664L503 680L599 60L665 44L656 0H364L373 46L457 63L437 213H198L122 72L213 46L204 0H-29L-21 43ZM236 283H427L390 565H389L236 283ZM459 761L433 772Q403 784
385 787T354 786T332 768T312 736L279 753L284 766Q300 808 319 831T360 864T409 870T464 854L489 844Q523 830 544 826T578 827T602 845T625 880L658 864L651 848Q632 805 613 781T571 748T521 742T459 761Z" />
<glyph unicode="&#xc4;" glyph-name="Adieresis" horiz-adv-x="737" d="M-21 43L42 65L389 659L443 664L503 680L599 60L665 44L656 0H364L373 46L457 63L437 213H198L122 72L213 46L204 0H-29L-21 43ZM236 283H427L390 565H389L236 283ZM349 737Q321 737 301
757T281 805Q281 834 301 854T349 875Q377 875 397 855T418 805Q418 777 398 757T349 737ZM586 737Q557 737 537 757T517 805Q517 834 537 854T586 875Q614 875 634 855T655 805Q655 777 635 757T586 737Z" />
<glyph unicode="&#xc5;" glyph-name="Aring" horiz-adv-x="737" d="M-21 43L42 65L389 659L443 664L503 680L599 60L665 44L656 0H364L373 46L457 63L437 213H198L122 72L213 46L204 0H-29L-21 43ZM236 283H427L390 565H389L236 283ZM351 823Q351 848 360 869T386
905T424 930T471 939Q522 939 556 907T590 823Q590 798 581 777T555 740T518 715T471 706Q446 706 424 714T386 739T361 776T351 823ZM405 823Q405 792 424 773T471 754Q498 754 517 773T537 823Q537 853 518 872T471 891Q443 891 424 872T405 823Z" />
<glyph unicode="&#xc6;" glyph-name="AE" horiz-adv-x="985" d="M608 301L560 59H790L889 199H933L876 0H330L338 45L424 63L471 302H281L119 72L211 46L201 0H-46L-37 43L27 65L428 596L331 619L339 664H899L986 670L937 482H894L880 610H668L619 355H733L779
439H821L779 224L736 223L724 301H608ZM511 610L319 355H481L532 610H511Z" />
<glyph unicode="&#xc7;" glyph-name="Ccedilla" horiz-adv-x="722" d="M198 -236Q214 -231 231 -224T264 -207T288 -184T298 -152Q298 -130 286 -118T264 -100L330 -16Q286 -12 246 0Q187 19 144 57T75 154T50 291Q50 365 83 435T176 560T319 648T501 682Q561
682 606 667T689 629L670 448H627L592 591Q572 606 545 616T483 627Q426 627 377 600T291 526T234 415T213 279Q213 219 227 174T267 99T327 54T403 39Q438 39 465 48T513 68L613 221H658L601 36Q553 15 494 -1Q437 -17 376 -18L345 -62Q368 -70 384 -86T401 -131Q401
-163 384 -186T338 -226T275 -253T203 -270L198 -236Z" />
<glyph unicode="&#xc8;" glyph-name="Egrave" horiz-adv-x="639" d="M392 875L440 736H371L271 854V875H392ZM264 313L214 59H444L543 199H587L530 0H-18L-10 45L76 63L182 600L106 619L114 664H554L640 670L590 482H548L534 610H322L275 368H389L436 451H477L435
236H390L379 313H264Z" />
<glyph unicode="&#xc9;" glyph-name="Eacute" horiz-adv-x="639" d="M568 875V854L429 736H360L448 875H568ZM264 313L214 59H444L543 199H587L530 0H-18L-10 45L76 63L182 600L106 619L114 664H554L640 670L590 482H548L534 610H322L275 368H389L436 451H477L435
236H390L379 313H264Z" />
<glyph unicode="&#xca;" glyph-name="Ecircumflex" horiz-adv-x="639" d="M251 736L376 871H469L540 736H481L412 804L318 736H251ZM264 313L214 59H444L543 199H587L530 0H-18L-10 45L76 63L182 600L106 619L114 664H554L640 670L590 482H548L534 610H322L275
368H389L436 451H477L435 236H390L379 313H264Z" />
<glyph unicode="&#xcb;" glyph-name="Edieresis" horiz-adv-x="639" d="M264 313L214 59H444L543 199H587L530 0H-18L-10 45L76 63L182 600L106 619L114 664H554L640 670L590 482H548L534 610H322L275 368H389L436 451H477L435 236H390L379 313H264ZM293 737Q265
737 245 757T225 805Q225 834 245 854T293 875Q321 875 341 855T362 805Q362 777 342 757T293 737ZM530 737Q501 737 481 757T461 805Q461 834 481 854T530 875Q558 875 578 855T599 805Q599 777 579 757T530 737Z" />
<glyph unicode="&#xcc;" glyph-name="Igrave" horiz-adv-x="370" d="M-9 45L74 63L181 600L106 619L114 664H411L403 619L320 600L214 63L291 45L283 0H-18L-9 45ZM523 875L571 736H502L402 854V875H523Z" />
<glyph unicode="&#xcd;" glyph-name="Iacute" horiz-adv-x="370" d="M-9 45L74 63L181 600L106 619L114 664H411L403 619L320 600L214 63L291 45L283 0H-18L-9 45ZM443 875V854L304 736H235L323 875H443Z" />
<glyph unicode="&#xce;" glyph-name="Icircumflex" horiz-adv-x="370" d="M-9 45L74 63L181 600L106 619L114 664H411L403 619L320 600L214 63L291 45L283 0H-18L-9 45ZM386 736L511 871H604L675 736H616L547 804L453 736H386Z" />
<glyph unicode="&#xcf;" glyph-name="Idieresis" horiz-adv-x="370" d="M-9 45L74 63L181 600L106 619L114 664H411L403 619L320 600L214 63L291 45L283 0H-18L-9 45ZM173 737Q145 737 125 757T105 805Q105 834 125 854T173 875Q201 875 221 855T242 805Q242 777
222 757T173 737ZM410 737Q381 737 361 757T341 805Q341 834 361 854T410 875Q438 875 458 855T479 805Q479 777 459 757T410 737Z" />
<glyph unicode="&#xd0;" glyph-name="Eth" horiz-adv-x="764" d="M-6 45L79 63L127 306H33L44 360H137L185 600L109 619L118 664L361 667Q455 667 526 645T646 585T718 494T742 377Q742 284 703 212T598 92T450 20T277 -4L-14 0L-6 45ZM263 306L226 115Q218 74
241 60T303 45Q371 46 424 73T513 146T569 253T588 382Q588 440 570 485T518 560T435 606T326 621L274 360H426L415 306H263Z" />
<glyph unicode="&#xd1;" glyph-name="Ntilde" horiz-adv-x="767" d="M489 761L463 772Q433 784 415 787T384 786T362 768T342 736L309 753L314 766Q330 808 349 831T390 864T439 870T494 854L519 844Q553 830 574 826T608 827T632 845T655 880L688 864L681 848Q662
805 643 781T601 748T551 742T489 761ZM516 -12L236 532L148 72L266 43L257 0H-15L-6 45L78 66L182 587L102 620L110 664H326L575 175L652 590L538 621L546 664H812L803 619L720 596L624 112L607 -12H516Z" />
<glyph unicode="&#xd2;" glyph-name="Ograve" horiz-adv-x="758" d="M471 875L519 736H450L350 854V875H471ZM458 682Q516 682 566 662T653 604T712 511T734 384Q734 313 707 241T627 111T500 17T327 -20Q267 -20 217 0T129 59T70 153T49 279Q49 352 77 424T159
553T287 646T458 682ZM581 437Q581 480 574 515T550 576T509 616T450 631Q403 631 358 598T278 508T222 379T201 228Q201 135 233 83T335 31Q373 31 406 50T466 100T514 174T551 261T573 351T581 437Z" />
<glyph unicode="&#xd3;" glyph-name="Oacute" horiz-adv-x="758" d="M646 875V854L507 736H438L526 875H646ZM458 682Q516 682 566 662T653 604T712 511T734 384Q734 313 707 241T627 111T500 17T327 -20Q267 -20 217 0T129 59T70 153T49 279Q49 352 77 424T159
553T287 646T458 682ZM581 437Q581 480 574 515T550 576T509 616T450 631Q403 631 358 598T278 508T222 379T201 228Q201 135 233 83T335 31Q373 31 406 50T466 100T514 174T551 261T573 351T581 437Z" />
<glyph unicode="&#xd4;" glyph-name="Ocircumflex" horiz-adv-x="758" d="M334 736L459 871H552L623 736H564L495 804L401 736H334ZM458 682Q516 682 566 662T653 604T712 511T734 384Q734 313 707 241T627 111T500 17T327 -20Q267 -20 217 0T129 59T70 153T49
279Q49 352 77 424T159 553T287 646T458 682ZM581 437Q581 480 574 515T550 576T509 616T450 631Q403 631 358 598T278 508T222 379T201 228Q201 135 233 83T335 31Q373 31 406 50T466 100T514 174T551 261T573 351T581 437Z" />
<glyph unicode="&#xd5;" glyph-name="Otilde" horiz-adv-x="758" d="M486 761L460 772Q430 784 412 787T381 786T359 768T339 736L306 753L311 766Q327 808 346 831T387 864T436 870T491 854L516 844Q550 830 571 826T605 827T629 845T652 880L685 864L678 848Q659
805 640 781T598 748T548 742T486 761ZM458 682Q516 682 566 662T653 604T712 511T734 384Q734 313 707 241T627 111T500 17T327 -20Q267 -20 217 0T129 59T70 153T49 279Q49 352 77 424T159 553T287 646T458 682ZM581 437Q581 480 574 515T550 576T509 616T450
631Q403 631 358 598T278 508T222 379T201 228Q201 135 233 83T335 31Q373 31 406 50T466 100T514 174T551 261T573 351T581 437Z" />
<glyph unicode="&#xd6;" glyph-name="Odieresis" horiz-adv-x="758" d="M376 737Q348 737 328 757T308 805Q308 834 328 854T376 875Q404 875 424 855T445 805Q445 777 425 757T376 737ZM613 737Q584 737 564 757T544 805Q544 834 564 854T613 875Q641 875 661
855T682 805Q682 777 662 757T613 737ZM458 682Q516 682 566 662T653 604T712 511T734 384Q734 313 707 241T627 111T500 17T327 -20Q267 -20 217 0T129 59T70 153T49 279Q49 352 77 424T159 553T287 646T458 682ZM581 437Q581 480 574 515T550 576T509 616T450
631Q403 631 358 598T278 508T222 379T201 228Q201 135 233 83T335 31Q373 31 406 50T466 100T514 174T551 261T573 351T581 437Z" />
<glyph unicode="&#xd7;" glyph-name="multiply" horiz-adv-x="600" d="M303 257L125 76L81 120L263 303L81 484L127 530L308 349L489 535L532 490L352 306L533 123L485 75L303 257Z" />
<glyph unicode="&#xd8;" glyph-name="Oslash" horiz-adv-x="758" d="M45 -50L132 60Q93 99 71 154T49 279Q49 352 77 424T159 553T287 646T458 682Q533 682 596 645L658 723H718L634 617Q680 578 707 519T734 384Q734 313 707 241T627 111T500 17T327 -20Q282
-20 242 -7T168 29L106 -50H45ZM584 443Q584 470 581 494T571 538L221 96Q254 31 335 31Q392 31 438 72T516 175T566 309T584 443ZM199 221Q199 201 200 184T204 151L549 585Q515 631 453 631Q404 631 359 598T278 507T221 376T199 221Z" />
<glyph unicode="&#xd9;" glyph-name="Ugrave" horiz-adv-x="742" d="M460 875L508 736H439L339 854V875H460ZM333 -22Q267 -22 218 -5T138 49T99 143T105 279L169 600L94 619L103 664H399L391 619L311 600L243 256Q223 159 257 106T371 53Q406 53 438 64T498 102T546
171T578 277L636 595L521 621L529 664H793L784 619L702 596L642 287Q613 141 537 60T333 -22Z" />
<glyph unicode="&#xda;" glyph-name="Uacute" horiz-adv-x="742" d="M635 875V854L496 736H427L515 875H635ZM333 -22Q267 -22 218 -5T138 49T99 143T105 279L169 600L94 619L103 664H399L391 619L311 600L243 256Q223 159 257 106T371 53Q406 53 438 64T498 102T546
171T578 277L636 595L521 621L529 664H793L784 619L702 596L642 287Q613 141 537 60T333 -22Z" />
<glyph unicode="&#xdb;" glyph-name="Ucircumflex" horiz-adv-x="742" d="M323 736L448 871H541L612 736H553L484 804L390 736H323ZM333 -22Q267 -22 218 -5T138 49T99 143T105 279L169 600L94 619L103 664H399L391 619L311 600L243 256Q223 159 257 106T371 53Q406
53 438 64T498 102T546 171T578 277L636 595L521 621L529 664H793L784 619L702 596L642 287Q613 141 537 60T333 -22Z" />
<glyph unicode="&#xdc;" glyph-name="Udieresis" horiz-adv-x="742" d="M333 -22Q267 -22 218 -5T138 49T99 143T105 279L169 600L94 619L103 664H399L391 619L311 600L243 256Q223 159 257 106T371 53Q406 53 438 64T498 102T546 171T578 277L636 595L521 621L529
664H793L784 619L702 596L642 287Q613 141 537 60T333 -22ZM365 737Q337 737 317 757T297 805Q297 834 317 854T365 875Q393 875 413 855T434 805Q434 777 414 757T365 737ZM602 737Q573 737 553 757T533 805Q533 834 553 854T602 875Q630 875 650 855T671 805Q671
777 651 757T602 737Z" />
<glyph unicode="&#xdd;" glyph-name="Yacute" horiz-adv-x="662" d="M410 273L369 63L454 45L445 0H129L138 45L230 63L267 252L149 604L91 619L100 664H391L382 620L296 603L384 322H386L580 598L499 620L508 664H718L709 620L648 600L410 273ZM604 875V854L465
736H396L484 875H604Z" />
<glyph unicode="&#xde;" glyph-name="Thorn" horiz-adv-x="618" d="M-9 45L74 63L181 600L106 619L114 664H412L404 619L320 600L303 515L328 516Q399 516 452 504T540 471T594 420T612 357Q612 297 579 257T495 194T386 164T274 160L282 196Q369 198 421 237T473
345Q473 401 427 437T296 473L295 474L214 63L292 45L284 0H-18L-9 45Z" />
<glyph unicode="&#xdf;" glyph-name="germandbls" horiz-adv-x="579" d="M593 626Q593 590 579 564T542 517T494 482T446 454T409 428T394 398Q394 385 400 373T428 336L466 292Q507 245 519 215T532 162Q532 126 514 94T465 36T398 -3T323 -18Q306 -18 288 -13T256
1T232 26T223 61Q223 77 230 93T249 124Q290 82 324 66T391 49Q411 49 423 61T435 91Q435 110 424 126T393 166L350 218Q330 242 319 259T301 289T293 312T291 333Q291 363 305 385T341 427T388 464T434 500T470 543T485 598Q485 630 466 651T409 673Q385 673 359
659T307 610T260 519T221 376L163 72Q144 -28 107 -92T28 -193T-53 -245T-117 -260Q-150 -260 -175 -240T-201 -189Q-201 -163 -183 -145T-137 -118Q-120 -152 -102 -176T-62 -200Q-39 -200 -22 -167T9 -61L88 354Q99 414 124 466T183 562T253 640T328 697T397
733T453 746Q523 746 558 711T593 626Z" />
<glyph unicode="&#xe0;" glyph-name="agrave" horiz-adv-x="575" d="M542 501L429 82L432 81Q461 92 485 114T529 166L552 154Q540 123 518 94T469 41T414 3T360 -12Q323 -12 308 14T312 105L339 190H334Q317 165 294 130T241 62T178 6T107 -17Q62 -17 38 11T14
82Q14 132 29 181T70 276T132 359T206 426T286 471T365 488Q382 488 398 484T429 471L438 501H542ZM174 82Q195 82 224 109T282 175T337 261T374 346L393 407Q369 442 338 442Q320 442 299 428T257 389T217 333T182 266T158 195T149 125Q149 105 154 94T174 82ZM372
764L411 565H356L266 746V764H372Z" />
<glyph unicode="&#xe1;" glyph-name="aacute" horiz-adv-x="575" d="M542 501L429 82L432 81Q461 92 485 114T529 166L552 154Q540 123 518 94T469 41T414 3T360 -12Q323 -12 308 14T312 105L339 190H334Q317 165 294 130T241 62T178 6T107 -17Q62 -17 38 11T14
82Q14 132 29 181T70 276T132 359T206 426T286 471T365 488Q382 488 398 484T429 471L438 501H542ZM174 82Q195 82 224 109T282 175T337 261T374 346L393 407Q369 442 338 442Q320 442 299 428T257 389T217 333T182 266T158 195T149 125Q149 105 154 94T174 82ZM528
764V746L401 565H345L423 764H528Z" />
<glyph unicode="&#xe2;" glyph-name="acircumflex" horiz-adv-x="575" d="M542 501L429 82L432 81Q461 92 485 114T529 166L552 154Q540 123 518 94T469 41T414 3T360 -12Q323 -12 308 14T312 105L339 190H334Q317 165 294 130T241 62T178 6T107 -17Q62 -17 38
11T14 82Q14 132 29 181T70 276T132 359T206 426T286 471T365 488Q382 488 398 484T429 471L438 501H542ZM174 82Q195 82 224 109T282 175T337 261T374 346L393 407Q369 442 338 442Q320 442 299 428T257 389T217 333T182 266T158 195T149 125Q149 105 154 94T174
82ZM245 565L379 764H459L514 565H462L401 674L301 565H245Z" />
<glyph unicode="&#xe3;" glyph-name="atilde" horiz-adv-x="575" d="M542 501L429 82L432 81Q461 92 485 114T529 166L552 154Q540 123 518 94T469 41T414 3T360 -12Q323 -12 308 14T312 105L339 190H334Q317 165 294 130T241 62T178 6T107 -17Q62 -17 38 11T14
82Q14 132 29 181T70 276T132 359T206 426T286 471T365 488Q382 488 398 484T429 471L438 501H542ZM174 82Q195 82 224 109T282 175T337 261T374 346L393 407Q369 442 338 442Q320 442 299 428T257 389T217 333T182 266T158 195T149 125Q149 105 154 94T174 82ZM356
618Q327 629 309 633T279 634T257 619T237 586L203 603L209 616Q228 658 248 682T290 715T336 721T391 706L417 696Q448 684 468 680T501 678T525 695T549 731L584 714L575 697Q552 653 531 629T488 596T441 590T382 608L356 618Z" />
<glyph unicode="&#xe4;" glyph-name="adieresis" horiz-adv-x="575" d="M542 501L429 82L432 81Q461 92 485 114T529 166L552 154Q540 123 518 94T469 41T414 3T360 -12Q323 -12 308 14T312 105L339 190H334Q317 165 294 130T241 62T178 6T107 -17Q62 -17 38 11T14
82Q14 132 29 181T70 276T132 359T206 426T286 471T365 488Q382 488 398 484T429 471L438 501H542ZM174 82Q195 82 224 109T282 175T337 261T374 346L393 407Q369 442 338 442Q320 442 299 428T257 389T217 333T182 266T158 195T149 125Q149 105 154 94T174 82ZM216
654Q216 682 235 701T282 720Q309 720 328 701T347 654Q347 627 328 609T282 590Q254 590 235 608T216 654ZM419 654Q419 682 438 701T484 720Q511 720 530 701T550 654Q550 627 531 609T484 590Q457 590 438 608T419 654Z" />
<glyph unicode="&#xe5;" glyph-name="aring" horiz-adv-x="575" d="M542 501L429 82L432 81Q461 92 485 114T529 166L552 154Q540 123 518 94T469 41T414 3T360 -12Q323 -12 308 14T312 105L339 190H334Q317 165 294 130T241 62T178 6T107 -17Q62 -17 38 11T14
82Q14 132 29 181T70 276T132 359T206 426T286 471T365 488Q382 488 398 484T429 471L438 501H542ZM174 82Q195 82 224 109T282 175T337 261T374 346L393 407Q369 442 338 442Q320 442 299 428T257 389T217 333T182 266T158 195T149 125Q149 105 154 94T174 82ZM286
674Q286 698 295 719T320 755T357 779T403 788Q453 788 486 756T520 674Q520 650 511 629T486 593T449 569T403 560Q353 560 320 592T286 674ZM338 674Q338 644 357 626T403 607Q429 607 448 625T468 674Q468 704 449 722T403 741Q376 741 357 723T338 674Z" />
<glyph unicode="&#xe6;" glyph-name="ae" horiz-adv-x="677" d="M390 -15Q346 -15 316 4T272 62Q238 31 200 8T118 -15Q97 -15 77 -9T40 10T14 43T4 90Q4 141 43 172T160 224L280 255L289 296Q293 327 291 353T281 398T259 428T225 439Q211 439 199 434T178 421Q176
413 173 396T166 361Q162 340 158 317Q149 315 136 313T112 310Q92 310 80 319T67 348Q67 370 85 395T132 443T197 480T269 499Q323 498 354 475T400 411H403Q439 457 486 477T575 498Q623 498 650 478T678 418Q678 378 654 348T588 295T495 256T387 227Q385 215
384 203T383 177Q382 74 454 74Q472 74 491 82T528 102T562 129T589 158L612 140Q601 119 580 92T531 41T466 1T390 -15ZM262 115Q260 161 272 217L206 196Q160 182 143 163T125 117Q125 90 141 73T182 55Q197 55 210 61T232 76T249 95T262 115ZM536 448Q518 448
498 434T458 395T423 337T396 265Q478 293 522 329T566 412Q566 432 558 440T536 448Z" />
<glyph unicode="&#xe7;" glyph-name="ccedilla" horiz-adv-x="444" d="M16 -236Q32 -231 49 -224T82 -207T106 -184T116 -152Q116 -130 104 -118T82 -100L149 -16Q120 -15 98 -4Q74 8 58 28T32 75T23 135Q23 232 71 311T197 442Q236 467 276 482T348 498Q391 498
420 479T450 434Q450 422 444 409T430 383T412 363T396 351Q382 366 368 381T338 408T309 427T282 435Q257 435 235 407T197 338T170 250T160 163Q160 136 165 119T178 92T196 77T219 73Q252 73 294 103T374 183L397 165Q386 142 364 111T309 52T237 4Q219 -5 199
-10L163 -62Q186 -70 202 -86T219 -131Q219 -163 202 -186T156 -226T93 -253T21 -270L16 -236Z" />
<glyph unicode="&#xe8;" glyph-name="egrave" horiz-adv-x="446" d="M159 -15Q123 -15 98 -3T55 29T30 77T22 136Q22 185 35 229T72 312T125 382T190 438Q228 465 270 481T351 498Q448 498 448 418Q448 380 422 347T354 289T261 246T158 220Q157 210 157 201T156
181Q156 124 172 99T223 74Q241 74 260 82T298 102T331 129T358 158L381 140Q371 121 351 95T303 44T238 2T159 -15ZM310 449Q291 449 270 434T228 393T191 332T165 258Q197 267 227 284T282 324T320 371T335 419Q335 433 329 441T310 449ZM322 764L361 565H306L216
746V764H322Z" />
<glyph unicode="&#xe9;" glyph-name="eacute" horiz-adv-x="446" d="M468 764V746L341 565H285L363 764H468ZM159 -15Q123 -15 98 -3T55 29T30 77T22 136Q22 185 35 229T72 312T125 382T190 438Q228 465 270 481T351 498Q448 498 448 418Q448 380 422 347T354
289T261 246T158 220Q157 210 157 201T156 181Q156 124 172 99T223 74Q241 74 260 82T298 102T331 129T358 158L381 140Q371 121 351 95T303 44T238 2T159 -15ZM310 449Q291 449 270 434T228 393T191 332T165 258Q197 267 227 284T282 324T320 371T335 419Q335
433 329 441T310 449Z" />
<glyph unicode="&#xea;" glyph-name="ecircumflex" horiz-adv-x="446" d="M178 565L312 764H392L447 565H395L334 674L234 565H178ZM159 -15Q123 -15 98 -3T55 29T30 77T22 136Q22 185 35 229T72 312T125 382T190 438Q228 465 270 481T351 498Q448 498 448 418Q448
380 422 347T354 289T261 246T158 220Q157 210 157 201T156 181Q156 124 172 99T223 74Q241 74 260 82T298 102T331 129T358 158L381 140Q371 121 351 95T303 44T238 2T159 -15ZM310 449Q291 449 270 434T228 393T191 332T165 258Q197 267 227 284T282 324T320
371T335 419Q335 433 329 441T310 449Z" />
<glyph unicode="&#xeb;" glyph-name="edieresis" horiz-adv-x="446" d="M168 654Q168 682 187 701T234 720Q261 720 280 701T299 654Q299 627 280 609T234 590Q206 590 187 608T168 654ZM371 654Q371 682 390 701T436 720Q463 720 482 701T502 654Q502 627 483
609T436 590Q409 590 390 608T371 654ZM159 -15Q123 -15 98 -3T55 29T30 77T22 136Q22 185 35 229T72 312T125 382T190 438Q228 465 270 481T351 498Q448 498 448 418Q448 380 422 347T354 289T261 246T158 220Q157 210 157 201T156 181Q156 124 172 99T223 74Q241
74 260 82T298 102T331 129T358 158L381 140Q371 121 351 95T303 44T238 2T159 -15ZM310 449Q291 449 270 434T228 393T191 332T165 258Q197 267 227 284T282 324T320 371T335 419Q335 433 329 441T310 449Z" />
<glyph unicode="&#xec;" glyph-name="igrave" horiz-adv-x="310" d="M170 81Q199 92 223 114T267 166L290 154Q279 125 257 95T208 41T152 1T96 -15Q62 -15 46 12T44 99L118 399L37 418L41 435Q63 453 89 467Q110 479 137 489T190 499Q227 499 240 473T239 385L167
82L170 81V81ZM456 772L495 573H440L350 754V772H456Z" />
<glyph unicode="&#xed;" glyph-name="iacute" horiz-adv-x="310" d="M360 772V754L233 573H177L255 772H360ZM170 81Q199 92 223 114T267 166L290 154Q279 125 257 95T208 41T152 1T96 -15Q62 -15 46 12T44 99L118 399L37 418L41 435Q63 453 89 467Q110 479 137
489T190 499Q227 499 240 473T239 385L167 82L170 81V81Z" />
<glyph unicode="&#xee;" glyph-name="icircumflex" horiz-adv-x="310" d="M330 573L464 772H544L599 573H547L486 682L386 573H330ZM170 81Q199 92 223 114T267 166L290 154Q279 125 257 95T208 41T152 1T96 -15Q62 -15 46 12T44 99L118 399L37 418L41 435Q63
453 89 467Q110 479 137 489T190 499Q227 499 240 473T239 385L167 82L170 81V81Z" />
<glyph unicode="&#xef;" glyph-name="idieresis" horiz-adv-x="310" d="M125 590Q98 590 79 608T60 654Q60 682 79 701T125 720Q152 720 171 701T191 654Q191 627 172 609T125 590ZM316 590Q289 590 270 608T251 654Q251 682 270 701T316 720Q344 720 363 701T383
654Q383 627 364 609T316 590ZM170 81Q199 92 223 114T267 166L290 154Q279 125 257 95T208 41T152 1T96 -15Q62 -15 46 12T44 99L118 399L37 418L41 435Q63 453 89 467Q110 479 137 489T190 499Q227 499 240 473T239 385L167 82L170 81V81Z" />
<glyph unicode="&#xf0;" glyph-name="eth" horiz-adv-x="535" d="M151 585L283 646Q268 666 251 687T212 730L236 761Q271 742 300 722T355 679L493 742L509 702L388 646Q453 577 480 500T507 346Q507 276 486 211T424 96T328 15T203 -15Q162 -15 130 -1T76 40T41
101T29 178Q29 234 50 290T108 392T199 465T316 493Q328 493 338 491T360 483Q345 548 308 609L166 544L151 585ZM212 25Q242 25 270 58T321 143T358 254T372 368Q372 458 321 458Q300 458 281 442T244 399T212 337T187 265T170 191T164 124Q164 107 166 90T173
58T187 34T212 25Z" />
<glyph unicode="&#xf1;" glyph-name="ntilde" horiz-adv-x="591" d="M120 401L40 418L44 435Q68 453 94 467Q116 479 142 489T192 499Q277 499 236 372L202 265H209Q233 303 262 344T323 420T392 477T466 499Q487 499 502 494T525 474T533 437T524 379L449 82L452
81Q481 92 505 114T549 166L572 154Q560 124 538 94T489 40T433 1T378 -15Q343 -15 326 12T325 99L396 365Q401 383 399 393T384 403Q368 403 348 386T304 339T258 272T215 194T179 115T155 43L146 6L37 -16L15 -1L120 401ZM330 618Q301 629 283 633T253 634T231
619T211 586L177 603L183 616Q202 658 222 682T264 715T310 721T365 706L391 696Q422 684 442 680T475 678T499 695T523 731L558 714L549 697Q526 653 505 629T462 596T415 590T356 608L330 618Z" />
<glyph unicode="&#xf2;" glyph-name="ograve" horiz-adv-x="535" d="M165 124Q165 107 166 90T173 58T188 34T212 25Q232 25 251 41T288 83T320 144T346 215T363 289T369 357Q369 371 367 388T360 421T346 447T320 458Q299 458 280 442T244 398T212 336T187 264T171
191T165 124ZM333 498Q375 498 407 483T462 443T495 383T506 309Q506 252 485 194T425 90T330 14T203 -15Q161 -15 129 -1T74 40T41 101T29 178Q29 234 50 291T110 394T205 469T333 498ZM327 764L366 565H311L221 746V764H327Z" />
<glyph unicode="&#xf3;" glyph-name="oacute" horiz-adv-x="535" d="M487 764V746L360 565H304L382 764H487ZM165 124Q165 107 166 90T173 58T188 34T212 25Q232 25 251 41T288 83T320 144T346 215T363 289T369 357Q369 371 367 388T360 421T346 447T320 458Q299
458 280 442T244 398T212 336T187 264T171 191T165 124ZM333 498Q375 498 407 483T462 443T495 383T506 309Q506 252 485 194T425 90T330 14T203 -15Q161 -15 129 -1T74 40T41 101T29 178Q29 234 50 291T110 394T205 469T333 498Z" />
<glyph unicode="&#xf4;" glyph-name="ocircumflex" horiz-adv-x="535" d="M201 565L335 764H415L470 565H418L357 674L257 565H201ZM165 124Q165 107 166 90T173 58T188 34T212 25Q232 25 251 41T288 83T320 144T346 215T363 289T369 357Q369 371 367 388T360
421T346 447T320 458Q299 458 280 442T244 398T212 336T187 264T171 191T165 124ZM333 498Q375 498 407 483T462 443T495 383T506 309Q506 252 485 194T425 90T330 14T203 -15Q161 -15 129 -1T74 40T41 101T29 178Q29 234 50 291T110 394T205 469T333 498Z" />
<glyph unicode="&#xf5;" glyph-name="otilde" horiz-adv-x="535" d="M165 124Q165 107 166 90T173 58T188 34T212 25Q232 25 251 41T288 83T320 144T346 215T363 289T369 357Q369 371 367 388T360 421T346 447T320 458Q299 458 280 442T244 398T212 336T187 264T171
191T165 124ZM333 498Q375 498 407 483T462 443T495 383T506 309Q506 252 485 194T425 90T330 14T203 -15Q161 -15 129 -1T74 40T41 101T29 178Q29 234 50 291T110 394T205 469T333 498ZM318 618Q289 629 271 633T241 634T219 619T199 586L165 603L171 616Q190
658 210 682T252 715T298 721T353 706L379 696Q410 684 430 680T463 678T487 695T511 731L546 714L537 697Q514 653 493 629T450 596T403 590T344 608L318 618Z" />
<glyph unicode="&#xf6;" glyph-name="odieresis" horiz-adv-x="535" d="M187 654Q187 682 206 701T253 720Q280 720 299 701T318 654Q318 627 299 609T253 590Q225 590 206 608T187 654ZM390 654Q390 682 409 701T455 720Q482 720 501 701T521 654Q521 627 502
609T455 590Q428 590 409 608T390 654ZM165 124Q165 107 166 90T173 58T188 34T212 25Q232 25 251 41T288 83T320 144T346 215T363 289T369 357Q369 371 367 388T360 421T346 447T320 458Q299 458 280 442T244 398T212 336T187 264T171 191T165 124ZM333 498Q375
498 407 483T462 443T495 383T506 309Q506 252 485 194T425 90T330 14T203 -15Q161 -15 129 -1T74 40T41 101T29 178Q29 234 50 291T110 394T205 469T333 498Z" />
<glyph unicode="&#xf7;" glyph-name="divide" horiz-adv-x="600" d="M70 271V334H544V271H70ZM306 59Q275 59 253 82T230 137Q230 168 252 191T306 214Q338 214 361 191T384 137Q384 105 361 82T306 59ZM307 390Q276 390 254 413T231 468Q231 499 253 522T307
545Q339 545 362 522T385 468Q385 436 362 413T307 390Z" />
<glyph unicode="&#xf8;" glyph-name="oslash" horiz-adv-x="535" d="M17 -50L83 38Q58 64 44 99T29 178Q29 234 50 291T110 394T205 469T333 498Q375 498 413 476L460 538H513L447 451Q474 425 490 388T506 309Q506 252 485 194T425 90T330 14T203 -15Q156 -15
116 11L70 -50H17ZM210 25Q230 25 250 40T288 80T322 139T349 210T368 284T376 356L162 73Q174 25 210 25ZM320 458Q290 458 262 426T212 346T175 242T158 137L369 417Q363 435 352 446T320 458Z" />
<glyph unicode="&#xf9;" glyph-name="ugrave" horiz-adv-x="580" d="M37 419L41 435Q63 453 88 467Q109 479 134 489T184 500Q228 500 241 472T236 374L169 114Q160 81 177 81Q189 81 208 99T251 147T298 215T344 291T380 366T402 428L413 476L520 499L541 484L442
82L445 81Q474 92 498 114T542 166L565 154Q553 125 531 95T482 41T426 1T370 -15Q334 -15 319 13T323 104L363 237H358Q335 206 308 163T249 81T178 13T96 -15Q61 -15 44 13T43 109L118 402L37 419ZM337 764L376 565H321L231 746V764H337Z" />
<glyph unicode="&#xfa;" glyph-name="uacute" horiz-adv-x="580" d="M497 764V746L370 565H314L392 764H497ZM37 419L41 435Q63 453 88 467Q109 479 134 489T184 500Q228 500 241 472T236 374L169 114Q160 81 177 81Q189 81 208 99T251 147T298 215T344 291T380
366T402 428L413 476L520 499L541 484L442 82L445 81Q474 92 498 114T542 166L565 154Q553 125 531 95T482 41T426 1T370 -15Q334 -15 319 13T323 104L363 237H358Q335 206 308 163T249 81T178 13T96 -15Q61 -15 44 13T43 109L118 402L37 419Z" />
<glyph unicode="&#xfb;" glyph-name="ucircumflex" horiz-adv-x="580" d="M211 565L345 764H425L480 565H428L367 674L267 565H211ZM37 419L41 435Q63 453 88 467Q109 479 134 489T184 500Q228 500 241 472T236 374L169 114Q160 81 177 81Q189 81 208 99T251 147T298
215T344 291T380 366T402 428L413 476L520 499L541 484L442 82L445 81Q474 92 498 114T542 166L565 154Q553 125 531 95T482 41T426 1T370 -15Q334 -15 319 13T323 104L363 237H358Q335 206 308 163T249 81T178 13T96 -15Q61 -15 44 13T43 109L118 402L37 419Z"
/>
<glyph unicode="&#xfc;" glyph-name="udieresis" horiz-adv-x="580" d="M197 654Q197 682 216 701T263 720Q290 720 309 701T328 654Q328 627 309 609T263 590Q235 590 216 608T197 654ZM400 654Q400 682 419 701T465 720Q492 720 511 701T531 654Q531 627 512
609T465 590Q438 590 419 608T400 654ZM37 419L41 435Q63 453 88 467Q109 479 134 489T184 500Q228 500 241 472T236 374L169 114Q160 81 177 81Q189 81 208 99T251 147T298 215T344 291T380 366T402 428L413 476L520 499L541 484L442 82L445 81Q474 92 498 114T542
166L565 154Q553 125 531 95T482 41T426 1T370 -15Q334 -15 319 13T323 104L363 237H358Q335 206 308 163T249 81T178 13T96 -15Q61 -15 44 13T43 109L118 402L37 419Z" />
<glyph unicode="&#xfd;" glyph-name="yacute" horiz-adv-x="506" d="M18 278Q18 316 26 355T52 425T94 476T153 496Q212 496 248 435T287 252Q289 177 278 112T249 -3H254Q314 74 352 146T407 302Q405 354 393 393T362 469Q378 480 395 487T436 494Q446 494 457
491T478 478T494 454T501 417Q501 355 472 281T394 130T285 -18T162 -145T42 -234T-60 -268Q-102 -268 -129 -248T-157 -189Q-158 -160 -138 -138T-82 -116Q-46 -116 -29 -140T-3 -201H2Q54 -179 86 -130T137 -23T161 95T167 200Q165 301 150 349T111 397Q90 397
74 368T50 278H18ZM463 764V746L336 565H280L358 764H463Z" />
<glyph unicode="&#xfe;" glyph-name="thorn" horiz-adv-x="550" d="M165 650L98 677L104 701L316 746L206 319H212Q231 353 253 385T302 443T356 483T417 498Q471 498 497 462T524 365Q524 301 502 234T438 112T338 22T205 -13Q187 -13 167 -9T128 3L82 -190H210L198
-240H-127L-121 -208Q-102 -202 -85 -197Q-71 -192 -57 -187T-36 -178L165 650ZM146 72Q154 55 170 40T211 25Q244 25 275 57T331 140T371 250T386 364Q386 391 376 401T353 411Q325 411 295 380T237 305T190 213T160 128L146 72Z" />
<glyph unicode="&#xff;" glyph-name="ydieresis" horiz-adv-x="506" d="M18 278Q18 316 26 355T52 425T94 476T153 496Q212 496 248 435T287 252Q289 177 278 112T249 -3H254Q314 74 352 146T407 302Q405 354 393 393T362 469Q378 480 395 487T436 494Q446 494
457 491T478 478T494 454T501 417Q501 355 472 281T394 130T285 -18T162 -145T42 -234T-60 -268Q-102 -268 -129 -248T-157 -189Q-158 -160 -138 -138T-82 -116Q-46 -116 -29 -140T-3 -201H2Q54 -179 86 -130T137 -23T161 95T167 200Q165 301 150 349T111 397Q90
397 74 368T50 278H18ZM154 654Q154 682 173 701T220 720Q247 720 266 701T285 654Q285 627 266 609T220 590Q192 590 173 608T154 654ZM357 654Q357 682 376 701T422 720Q449 720 468 701T488 654Q488 627 469 609T422 590Q395 590 376 608T357 654Z" />
<glyph unicode="&#x100;" glyph-name="Amacron" horiz-adv-x="737" d="M329 841H615L600 770H314L329 841ZM-21 43L42 65L389 659L443 664L503 680L599 60L665 44L656 0H364L373 46L457 63L437 213H198L122 72L213 46L204 0H-29L-21 43ZM236 283H427L390 565H389L236
283Z" />
<glyph unicode="&#x101;" glyph-name="amacron" horiz-adv-x="575" d="M257 691H543L528 619H241L257 691ZM542 501L429 82L432 81Q461 92 485 114T529 166L552 154Q540 123 518 94T469 41T414 3T360 -12Q323 -12 308 14T312 105L339 190H334Q317 165 294 130T241
62T178 6T107 -17Q62 -17 38 11T14 82Q14 132 29 181T70 276T132 359T206 426T286 471T365 488Q382 488 398 484T429 471L438 501H542ZM174 82Q195 82 224 109T282 175T337 261T374 346L393 407Q369 442 338 442Q320 442 299 428T257 389T217 333T182 266T158 195T149
125Q149 105 154 94T174 82Z" />
<glyph unicode="&#x102;" glyph-name="Abreve" horiz-adv-x="737" d="M454 728Q420 728 397 740T360 771T340 817T336 872H384Q391 841 409 823T466 805Q504 805 528 825T566 872H612Q604 843 591 817T559 771T513 740T454 728ZM-21 43L42 65L389 659L443 664L503
680L599 60L665 44L656 0H364L373 46L457 63L437 213H198L122 72L213 46L204 0H-29L-21 43ZM236 283H427L390 565H389L236 283Z" />
<glyph unicode="&#x103;" glyph-name="abreve" horiz-adv-x="575" d="M374 566Q343 566 322 578T287 612T268 664T265 729H314Q323 646 387 646Q422 646 444 671T481 729H528Q520 696 507 666T476 614T432 579T374 566ZM542 501L429 82L432 81Q461 92 485 114T529
166L552 154Q540 123 518 94T469 41T414 3T360 -12Q323 -12 308 14T312 105L339 190H334Q317 165 294 130T241 62T178 6T107 -17Q62 -17 38 11T14 82Q14 132 29 181T70 276T132 359T206 426T286 471T365 488Q382 488 398 484T429 471L438 501H542ZM174 82Q195 82
224 109T282 175T337 261T374 346L393 407Q369 442 338 442Q320 442 299 428T257 389T217 333T182 266T158 195T149 125Q149 105 154 94T174 82Z" />
<glyph unicode="&#x104;" glyph-name="Aogonek" horiz-adv-x="737" d="M-21 43L42 65L389 659L443 664L503 680L599 60L665 44L656 0H495Q461 -20 440 -37T406 -71T388 -101T383 -131Q383 -154 397 -166T432 -178Q455 -178 475 -168T523 -132L543 -152Q529 -171
514 -191T479 -227T436 -254T382 -265Q337 -265 311 -241T285 -175Q285 -152 296 -130T329 -83T384 -29T461 38L437 213H198L122 72L213 46L204 0H-29L-21 43ZM236 283H428L390 565H389L236 283Z" />
<glyph unicode="&#x105;" glyph-name="aogonek" horiz-adv-x="575" d="M358 -13Q341 -13 329 -6T309 15T302 51T312 105L339 190H334Q317 165 294 130T241 62T178 6T107 -17Q62 -17 38 11T14 82Q14 132 29 181T70 276T132 359T206 426T286 471T365 488Q382 488
398 484T429 471L438 501H542L429 82L432 81Q461 92 485 114T529 166L552 154Q541 129 524 102T473 42L403 -27Q378 -51 361 -68T334 -99T319 -122T314 -144Q314 -162 325 -174T356 -186Q383 -186 403 -173T449 -132L471 -148Q459 -168 443 -189T407 -227T364 -254T314
-265Q271 -265 245 -241T218 -179Q218 -160 226 -142T252 -104T298 -64T368 -17V-13H358ZM174 82Q195 82 224 109T282 175T337 261T374 346L393 407Q369 442 338 442Q320 442 299 428T257 389T217 333T182 266T158 195T149 125Q149 105 154 94T174 82Z" />
<glyph unicode="&#x106;" glyph-name="Cacute" horiz-adv-x="722" d="M659 875V854L520 736H451L539 875H659ZM373 -18Q305 -18 246 0T144 57T75 154T50 291Q50 365 83 435T176 560T319 648T501 682Q561 682 606 667T689 629L670 448H627L592 591Q572 606 545
616T483 627Q426 627 377 600T291 526T234 415T213 279Q213 219 227 174T267 99T327 54T403 39Q438 39 465 48T513 68L613 221H658L601 36Q553 15 495 -1T373 -18Z" />
<glyph unicode="&#x107;" glyph-name="cacute" horiz-adv-x="444" d="M282 435Q257 435 235 407T197 338T170 250T160 163Q160 136 165 119T178 92T196 77T219 73Q252 73 294 103T374 183L397 165Q386 142 364 111T309 52T238 4T153 -16Q122 -16 98 -4T58 28T32
75T23 135Q23 232 71 311T197 442Q236 467 276 482T348 498Q391 498 420 479T450 434Q450 422 444 409T430 383T412 363T396 351Q382 366 368 381T338 408T309 427T282 435ZM470 764V746L343 565H287L365 764H470Z" />
<glyph unicode="&#x108;" glyph-name="Ccircumflex" horiz-adv-x="722" d="M345 736L470 871H563L634 736H575L506 804L412 736H345ZM373 -18Q305 -18 246 0T144 57T75 154T50 291Q50 365 83 435T176 560T319 648T501 682Q561 682 606 667T689 629L670 448H627L592
591Q572 606 545 616T483 627Q426 627 377 600T291 526T234 415T213 279Q213 219 227 174T267 99T327 54T403 39Q438 39 465 48T513 68L613 221H658L601 36Q553 15 495 -1T373 -18Z" />
<glyph unicode="&#x109;" glyph-name="ccircumflex" horiz-adv-x="444" d="M184 565L318 764H398L453 565H401L340 674L240 565H184ZM282 435Q257 435 235 407T197 338T170 250T160 163Q160 136 165 119T178 92T196 77T219 73Q252 73 294 103T374 183L397 165Q386
142 364 111T309 52T238 4T153 -16Q122 -16 98 -4T58 28T32 75T23 135Q23 232 71 311T197 442Q236 467 276 482T348 498Q391 498 420 479T450 434Q450 422 444 409T430 383T412 363T396 351Q382 366 368 381T338 408T309 427T282 435Z" />
<glyph unicode="&#x10a;" glyph-name="Cdotaccent" horiz-adv-x="722" d="M423 823Q423 855 446 878T501 901Q533 901 556 878T579 823Q579 791 556 768T501 745Q469 745 446 768T423 823ZM373 -18Q305 -18 246 0T144 57T75 154T50 291Q50 365 83 435T176 560T319
648T501 682Q561 682 606 667T689 629L670 448H627L592 591Q572 606 545 616T483 627Q426 627 377 600T291 526T234 415T213 279Q213 219 227 174T267 99T327 54T403 39Q438 39 465 48T513 68L613 221H658L601 36Q553 15 495 -1T373 -18Z" />
<glyph unicode="&#x10b;" glyph-name="cdotaccent" horiz-adv-x="444" d="M264 657Q264 688 285 709T338 731Q368 731 390 710T412 657Q412 627 390 605T338 583Q307 583 286 605T264 657ZM282 435Q257 435 235 407T197 338T170 250T160 163Q160 136 165 119T178
92T196 77T219 73Q252 73 294 103T374 183L397 165Q386 142 364 111T309 52T238 4T153 -16Q122 -16 98 -4T58 28T32 75T23 135Q23 232 71 311T197 442Q236 467 276 482T348 498Q391 498 420 479T450 434Q450 422 444 409T430 383T412 363T396 351Q382 366 368 381T338
408T309 427T282 435Z" />
<glyph unicode="&#x10c;" glyph-name="Ccaron" horiz-adv-x="722" d="M373 -18Q305 -18 246 0T144 57T75 154T50 291Q50 365 83 435T176 560T319 648T501 682Q561 682 606 667T689 629L670 448H627L592 591Q572 606 545 616T483 627Q426 627 377 600T291 526T234
415T213 279Q213 219 227 174T267 99T327 54T403 39Q438 39 465 48T513 68L613 221H658L601 36Q553 15 495 -1T373 -18ZM657 871L532 736H439L368 871H427L496 803L591 871H657Z" />
<glyph unicode="&#x10d;" glyph-name="ccaron" horiz-adv-x="444" d="M492 764L358 565H278L223 764H275L335 654L436 764H492ZM282 435Q257 435 235 407T197 338T170 250T160 163Q160 136 165 119T178 92T196 77T219 73Q252 73 294 103T374 183L397 165Q386 142
364 111T309 52T238 4T153 -16Q122 -16 98 -4T58 28T32 75T23 135Q23 232 71 311T197 442Q236 467 276 482T348 498Q391 498 420 479T450 434Q450 422 444 409T430 383T412 363T396 351Q382 366 368 381T338 408T309 427T282 435Z" />
<glyph unicode="&#x10e;" glyph-name="Dcaron" horiz-adv-x="764" d="M582 871L457 736H364L293 871H352L421 803L516 871H582ZM226 115Q218 74 241 60T303 45Q371 46 424 73T513 146T569 253T588 382Q588 440 570 485T518 560T435 606T326 621L226 115ZM-6 45L79
63L185 600L109 619L118 664L361 667Q455 667 526 645T646 585T718 494T742 377Q742 284 703 212T598 92T450 20T277 -4L-14 0L-6 45Z" />
<glyph unicode="&#x10f;" glyph-name="dcaron" horiz-adv-x="600" d="M334 496Q357 496 377 489T413 473L456 650L389 677L395 701L604 746L440 82L443 81Q472 92 496 114T541 166L563 154Q552 125 530 96T480 42T424 3T368 -12Q330 -12 316 17T320 105L345 185H340Q321
156 297 121T245 55T186 4T120 -17Q77 -17 49 14T21 112Q21 152 32 196T63 282T113 363T176 431T251 478T334 496ZM397 403Q383 424 366 439T329 455Q298 455 268 422T215 341T178 240T163 144Q163 110 170 97T192 84Q206 84 224 97T261 134T301 186T338 247T369
311T389 370L397 403ZM628 535L682 746H785V725L664 535H628Z" />
<glyph unicode="&#x110;" glyph-name="Dcroat" horiz-adv-x="764" d="M-6 45L79 63L127 306H33L44 360H137L185 600L109 619L118 664L361 667Q455 667 526 645T646 585T718 494T742 377Q742 284 703 212T598 92T450 20T277 -4L-14 0L-6 45ZM263 306L226 115Q218
74 241 60T303 45Q371 46 424 73T513 146T569 253T588 382Q588 440 570 485T518 560T435 606T326 621L274 360H426L415 306H263Z" />
<glyph unicode="&#x111;" glyph-name="dcroat" horiz-adv-x="600" d="M263 600H444L457 656L389 677L395 701L604 746L568 600H647L636 554H556L440 82L443 81Q472 92 496 114T541 166L563 154Q552 125 530 96T480 42T424 3T368 -12Q330 -12 316 17T320 105L345
185H340Q321 156 297 121T245 55T186 4T120 -17Q77 -17 49 14T21 112Q21 152 32 196T63 282T113 363T176 431T251 478T334 496Q357 496 377 489T413 473L433 554H253L263 600ZM397 403Q383 424 366 439T329 455Q298 455 268 422T215 341T178 240T163 144Q163 110
170 97T192 84Q206 84 224 97T261 134T301 186T338 247T369 311T389 370L397 403Z" />
<glyph unicode="&#x112;" glyph-name="Emacron" horiz-adv-x="639" d="M277 841H563L548 770H262L277 841ZM264 313L214 59H444L543 199H587L530 0H-18L-10 45L76 63L182 600L106 619L114 664H554L640 670L590 482H548L534 610H322L275 368H389L436 451H477L435
236H390L379 313H264Z" />
<glyph unicode="&#x113;" glyph-name="emacron" horiz-adv-x="446" d="M202 691H488L473 619H186L202 691ZM159 -15Q123 -15 98 -3T55 29T30 77T22 136Q22 185 35 229T72 312T125 382T190 438Q228 465 270 481T351 498Q448 498 448 418Q448 380 422 347T354 289T261
246T158 220Q157 210 157 201T156 181Q156 124 172 99T223 74Q241 74 260 82T298 102T331 129T358 158L381 140Q371 121 351 95T303 44T238 2T159 -15ZM310 449Q291 449 270 434T228 393T191 332T165 258Q197 267 227 284T282 324T320 371T335 419Q335 433 329
441T310 449Z" />
<glyph unicode="&#x114;" glyph-name="Ebreve" horiz-adv-x="639" d="M403 728Q369 728 346 740T309 771T289 817T285 872H333Q340 841 358 823T415 805Q453 805 477 825T515 872H561Q553 843 540 817T508 771T462 740T403 728ZM264 313L214 59H444L543 199H587L530
0H-18L-10 45L76 63L182 600L106 619L114 664H554L640 670L590 482H548L534 610H322L275 368H389L436 451H477L435 236H390L379 313H264Z" />
<glyph unicode="&#x115;" glyph-name="ebreve" horiz-adv-x="446" d="M159 -15Q123 -15 98 -3T55 29T30 77T22 136Q22 185 35 229T72 312T125 382T190 438Q228 465 270 481T351 498Q448 498 448 418Q448 380 422 347T354 289T261 246T158 220Q157 210 157 201T156
181Q156 124 172 99T223 74Q241 74 260 82T298 102T331 129T358 158L381 140Q371 121 351 95T303 44T238 2T159 -15ZM310 449Q291 449 270 434T228 393T191 332T165 258Q197 267 227 284T282 324T320 371T335 419Q335 433 329 441T310 449ZM317 566Q286 566 265
578T230 612T211 664T208 729H257Q266 646 330 646Q365 646 387 671T424 729H471Q463 696 450 666T419 614T375 579T317 566Z" />
<glyph unicode="&#x116;" glyph-name="Edotaccent" horiz-adv-x="639" d="M343 823Q343 855 366 878T421 901Q453 901 476 878T499 823Q499 791 476 768T421 745Q389 745 366 768T343 823ZM264 313L214 59H444L543 199H587L530 0H-18L-10 45L76 63L182 600L106
619L114 664H554L640 670L590 482H548L534 610H322L275 368H389L436 451H477L435 236H390L379 313H264Z" />
<glyph unicode="&#x117;" glyph-name="edotaccent" horiz-adv-x="446" d="M261 657Q261 688 282 709T335 731Q365 731 387 710T409 657Q409 627 387 605T335 583Q304 583 283 605T261 657ZM159 -15Q123 -15 98 -3T55 29T30 77T22 136Q22 185 35 229T72 312T125
382T190 438Q228 465 270 481T351 498Q448 498 448 418Q448 380 422 347T354 289T261 246T158 220Q157 210 157 201T156 181Q156 124 172 99T223 74Q241 74 260 82T298 102T331 129T358 158L381 140Q371 121 351 95T303 44T238 2T159 -15ZM310 449Q291 449 270
434T228 393T191 332T165 258Q197 267 227 284T282 324T320 371T335 419Q335 433 329 441T310 449Z" />
<glyph unicode="&#x118;" glyph-name="Eogonek" horiz-adv-x="639" d="M264 313L214 59H444L543 199H587L530 0H437Q406 -27 385 -47T352 -82T334 -110T329 -137Q329 -159 343 -170T377 -182Q403 -182 423 -171T472 -135L491 -156Q476 -176 461 -195T427 -230T386
-255T335 -265Q286 -265 259 -240T232 -177Q232 -151 241 -130T270 -89T319 -48T387 0H-18L-10 45L76 63L182 600L106 619L114 664H554L640 670L590 482H548L534 610H322L275 368H389L436 451H477L435 236H390L379 313H264Z" />
<glyph unicode="&#x119;" glyph-name="eogonek" horiz-adv-x="446" d="M201 -11Q190 -14 181 -14T159 -15Q123 -15 98 -3T55 29T30 77T22 136Q22 185 35 229T72 312T125 382T190 438Q228 465 270 481T351 498Q448 498 448 418Q448 380 422 347T354 289T261 246T158
220Q157 210 157 201T156 181Q156 124 173 99T225 73Q243 73 262 81T299 101T332 129T358 158L381 140Q370 120 352 95T301 38L231 -31Q207 -55 191 -71T164 -101T150 -124T146 -144Q146 -162 156 -174T187 -186Q213 -186 233 -173T280 -132L303 -149Q291 -169
275 -189T239 -227T196 -254T146 -265Q103 -265 77 -241T50 -179Q50 -159 58 -141T83 -104T130 -64T201 -16V-11ZM310 449Q291 449 270 434T228 393T191 332T165 258Q197 267 227 284T282 324T320 371T335 419Q335 433 329 441T310 449Z" />
<glyph unicode="&#x11a;" glyph-name="Ecaron" horiz-adv-x="639" d="M562 871L437 736H344L273 871H332L401 803L496 871H562ZM264 313L214 59H444L543 199H587L530 0H-18L-10 45L76 63L182 600L106 619L114 664H554L640 670L590 482H548L534 610H322L275 368H389L436
451H477L435 236H390L379 313H264Z" />
<glyph unicode="&#x11b;" glyph-name="ecaron" horiz-adv-x="446" d="M489 764L355 565H275L220 764H272L332 654L433 764H489ZM159 -15Q123 -15 98 -3T55 29T30 77T22 136Q22 185 35 229T72 312T125 382T190 438Q228 465 270 481T351 498Q448 498 448 418Q448
380 422 347T354 289T261 246T158 220Q157 210 157 201T156 181Q156 124 172 99T223 74Q241 74 260 82T298 102T331 129T358 158L381 140Q371 121 351 95T303 44T238 2T159 -15ZM310 449Q291 449 270 434T228 393T191 332T165 258Q197 267 227 284T282 324T320
371T335 419Q335 433 329 441T310 449Z" />
<glyph unicode="&#x11c;" glyph-name="Gcircumflex" horiz-adv-x="740" d="M343 736L468 871H561L632 736H573L504 804L410 736H343ZM384 38Q426 38 457 57T497 131L518 244L436 259L445 302H705L695 257L644 243L603 44Q576 33 549 22T493 2T434 -12T370 -18Q301
-18 242 0T141 57T74 152T50 287Q50 363 84 434T180 561T324 649T506 682Q539 682 566 678T616 666T658 650T695 632L664 451H620L591 593Q572 607 545 617T479 627Q425 627 376 601T290 527T231 415T209 275Q209 216 223 172T260 98T316 53T384 38Z" />
<glyph unicode="&#x11d;" glyph-name="gcircumflex" horiz-adv-x="499" d="M293 497Q317 497 340 492T384 482L537 491L513 405L422 431L421 427Q447 390 447 345Q447 303 428 264T375 194T298 145T205 126Q198 126 192 126T180 128Q164 119 159 110T153 92Q153
78 163 70T190 55L357 -5Q405 -22 424 -45T444 -104Q444 -140 417 -170T347 -222T251 -256T144 -269Q36 -269 -23 -239T-82 -165Q-82 -142 -68 -125T-30 -95T29 -70T104 -49V-45Q77 -34 58 -14T38 37Q38 73 66 98T138 136V140Q97 158 74 194T50 276Q50 319 67 359T115
430T192 479T293 497ZM155 -63Q109 -75 79 -92T49 -140Q49 -175 92 -198T202 -221Q231 -221 255 -216T298 -201T326 -181T336 -157Q336 -141 323 -130T272 -104L155 -63ZM287 456Q264 456 243 434T206 379T179 307T169 235Q169 203 179 185T209 166Q230 166 251
186T290 240T318 312T329 389Q329 418 319 437T287 456ZM181 565L315 764H395L450 565H398L337 674L237 565H181Z" />
<glyph unicode="&#x11e;" glyph-name="Gbreve" horiz-adv-x="740" d="M491 728Q457 728 434 740T397 771T377 817T373 872H421Q428 841 446 823T503 805Q541 805 565 825T603 872H649Q641 843 628 817T596 771T550 740T491 728ZM384 38Q426 38 457 57T497 131L518
244L436 259L445 302H705L695 257L644 243L603 44Q576 33 549 22T493 2T434 -12T370 -18Q301 -18 242 0T141 57T74 152T50 287Q50 363 84 434T180 561T324 649T506 682Q539 682 566 678T616 666T658 650T695 632L664 451H620L591 593Q572 607 545 617T479 627Q425
627 376 601T290 527T231 415T209 275Q209 216 223 172T260 98T316 53T384 38Z" />
<glyph unicode="&#x11f;" glyph-name="gbreve" horiz-adv-x="499" d="M316 566Q285 566 264 578T229 612T210 664T207 729H256Q265 646 329 646Q364 646 386 671T423 729H470Q462 696 449 666T418 614T374 579T316 566ZM293 497Q317 497 340 492T384 482L537 491L513
405L422 431L421 427Q447 390 447 345Q447 303 428 264T375 194T298 145T205 126Q198 126 192 126T180 128Q164 119 159 110T153 92Q153 78 163 70T190 55L357 -5Q405 -22 424 -45T444 -104Q444 -140 417 -170T347 -222T251 -256T144 -269Q36 -269 -23 -239T-82
-165Q-82 -142 -68 -125T-30 -95T29 -70T104 -49V-45Q77 -34 58 -14T38 37Q38 73 66 98T138 136V140Q97 158 74 194T50 276Q50 319 67 359T115 430T192 479T293 497ZM155 -63Q109 -75 79 -92T49 -140Q49 -175 92 -198T202 -221Q231 -221 255 -216T298 -201T326
-181T336 -157Q336 -141 323 -130T272 -104L155 -63ZM287 456Q264 456 243 434T206 379T179 307T169 235Q169 203 179 185T209 166Q230 166 251 186T290 240T318 312T329 389Q329 418 319 437T287 456Z" />
<glyph unicode="&#x120;" glyph-name="Gdotaccent" horiz-adv-x="740" d="M384 38Q426 38 457 57T497 131L518 244L436 259L445 302H705L695 257L644 243L603 44Q576 33 549 22T493 2T434 -12T370 -18Q301 -18 242 0T141 57T74 152T50 287Q50 363 84 434T180 561T324
649T506 682Q539 682 566 678T616 666T658 650T695 632L664 451H620L591 593Q572 607 545 617T479 627Q425 627 376 601T290 527T231 415T209 275Q209 216 223 172T260 98T316 53T384 38ZM421 823Q421 855 444 878T499 901Q531 901 554 878T577 823Q577 791 554
768T499 745Q467 745 444 768T421 823Z" />
<glyph unicode="&#x121;" glyph-name="gdotaccent" horiz-adv-x="499" d="M261 657Q261 688 282 709T335 731Q365 731 387 710T409 657Q409 627 387 605T335 583Q304 583 283 605T261 657ZM293 497Q317 497 340 492T384 482L537 491L513 405L422 431L421 427Q447
390 447 345Q447 303 428 264T375 194T298 145T205 126Q198 126 192 126T180 128Q164 119 159 110T153 92Q153 78 163 70T190 55L357 -5Q405 -22 424 -45T444 -104Q444 -140 417 -170T347 -222T251 -256T144 -269Q36 -269 -23 -239T-82 -165Q-82 -142 -68 -125T-30
-95T29 -70T104 -49V-45Q77 -34 58 -14T38 37Q38 73 66 98T138 136V140Q97 158 74 194T50 276Q50 319 67 359T115 430T192 479T293 497ZM155 -63Q109 -75 79 -92T49 -140Q49 -175 92 -198T202 -221Q231 -221 255 -216T298 -201T326 -181T336 -157Q336 -141 323
-130T272 -104L155 -63ZM287 456Q264 456 243 434T206 379T179 307T169 235Q169 203 179 185T209 166Q230 166 251 186T290 240T318 312T329 389Q329 418 319 437T287 456Z" />
<glyph unicode="&#x122;" glyph-name="Gcommaaccent" horiz-adv-x="740" d="M384 38Q426 38 457 57T497 131L518 244L436 259L445 302H705L695 257L644 243L603 44Q576 33 549 22T493 2T434 -12T370 -18Q301 -18 242 0T141 57T74 152T50 287Q50 363 84 434T180
561T324 649T506 682Q539 682 566 678T616 666T658 650T695 632L664 451H620L591 593Q572 607 545 617T479 627Q425 627 376 601T290 527T231 415T209 275Q209 216 223 172T260 98T316 53T384 38ZM197 -247Q256 -226 278 -207T300 -164Q300 -147 288 -137T252 -122Q259
-92 279 -75T330 -58Q364 -58 385 -78T407 -130Q407 -155 392 -177T351 -218T289 -252T209 -279L197 -247Z" />
<glyph unicode="&#x123;" glyph-name="gcommaaccent" horiz-adv-x="499" d="M293 497Q317 497 340 492T384 482L537 491L513 405L422 431L421 427Q447 390 447 345Q447 303 428 264T375 194T298 145T205 126Q198 126 192 126T180 128Q164 119 159 110T153 92Q153
78 163 70T190 55L357 -5Q405 -22 424 -45T444 -104Q444 -140 417 -170T347 -222T251 -256T144 -269Q36 -269 -23 -239T-82 -165Q-82 -142 -68 -125T-30 -95T29 -70T104 -49V-45Q77 -34 58 -14T38 37Q38 73 66 98T138 136V140Q97 158 74 194T50 276Q50 319 67 359T115
430T192 479T293 497ZM155 -63Q109 -75 79 -92T49 -140Q49 -175 92 -198T202 -221Q231 -221 255 -216T298 -201T326 -181T336 -157Q336 -141 323 -130T272 -104L155 -63ZM287 456Q264 456 243 434T206 379T179 307T169 235Q169 203 179 185T209 166Q230 166 251
186T290 240T318 312T329 389Q329 418 319 437T287 456ZM456 773Q397 752 375 732T353 690Q353 673 365 663T401 648Q394 618 374 601T323 584Q289 584 268 604T246 656Q246 681 261 703T302 744T364 778T444 805L456 773Z" />
<glyph unicode="&#x124;" glyph-name="Hcircumflex" horiz-adv-x="792" d="M341 736L466 871H559L630 736H571L502 804L408 736H341ZM411 45L496 63L544 309H262L214 63L291 45L282 0H-18L-10 45L74 63L181 600L106 619L114 664H409L401 619L320 600L274 369H556L601
600L529 619L537 664H833L824 619L741 600L635 63L713 45L704 0H403L411 45Z" />
<glyph unicode="&#x125;" glyph-name="hcircumflex" horiz-adv-x="573" d="M192 269H199Q222 308 249 348T308 422T375 476T448 498Q468 498 483 493T506 474T515 437T507 379L431 82L434 81Q463 92 487 114T531 166L554 154Q543 125 521 95T472 41T416 1T360
-15Q326 -15 309 12T308 99L379 365Q388 403 366 403Q351 403 331 385T287 337T241 269T197 191T161 112T138 43L130 7L22 -16L1 -1L163 650L96 677L102 701L311 746L192 269ZM246 791L371 926H464L535 791H476L407 859L313 791H246Z" />
<glyph unicode="&#x126;" glyph-name="Hbar" horiz-adv-x="792" d="M68 519H165L181 600L106 619L114 664H409L401 619L320 600L304 519H585L601 600L529 619L537 664H833L824 619L741 600L725 519H821L810 465H714L635 63L713 45L704 0H403L411 45L496 63L544
309H262L214 63L291 45L282 0H-18L-10 45L74 63L154 465H57L68 519ZM556 369L574 465H293L274 369H556Z" />
<glyph unicode="&#x127;" glyph-name="hbar" horiz-adv-x="573" d="M274 600H453L442 552H262L192 269H199Q222 308 249 348T308 422T375 476T448 498Q468 498 483 493T506 474T515 437T507 379L431 82L434 81Q463 92 487 114T531 166L554 154Q543 125 521 95T472
41T416 1T360 -15Q326 -15 309 12T308 99L379 365Q388 403 366 403Q351 403 331 385T287 337T241 269T197 191T161 112T138 43L130 7L22 -16L1 -1L138 552H57L68 600H150L164 656L96 677L102 701L311 746L274 600Z" />
<glyph unicode="&#x128;" glyph-name="Itilde" horiz-adv-x="370" d="M539 761L513 772Q483 784 465 787T434 786T412 768T392 736L359 753L364 766Q380 808 399 831T440 864T489 870T544 854L569 844Q603 830 624 826T658 827T682 845T705 880L738 864L731 848Q712
805 693 781T651 748T601 742T539 761ZM-9 45L74 63L181 600L106 619L114 664H411L403 619L320 600L214 63L291 45L283 0H-18L-9 45Z" />
<glyph unicode="&#x129;" glyph-name="itilde" horiz-adv-x="310" d="M170 81Q199 92 223 114T267 166L290 154Q279 125 257 95T208 41T152 1T96 -15Q62 -15 46 12T44 99L118 399L37 418L41 435Q63 453 89 467Q110 479 137 489T190 499Q227 499 240 473T239 385L167
82L170 81ZM408 716L400 699Q379 654 359 630T316 598T267 593T208 610L197 614Q168 624 150 629T120 631T98 617T79 585L46 602L52 615Q71 657 90 680T131 712T177 718T231 703L242 699Q274 687 293 683T326 681T350 697T374 733L408 716Z" />
<glyph unicode="&#x12a;" glyph-name="Imacron" horiz-adv-x="370" d="M157 841H443L428 770H142L157 841ZM-9 45L74 63L181 600L106 619L114 664H411L403 619L320 600L214 63L291 45L283 0H-18L-9 45Z" />
<glyph unicode="&#x12b;" glyph-name="imacron" horiz-adv-x="310" d="M88 683H346L331 612H73L88 683ZM170 81Q199 92 223 114T267 166L290 154Q279 125 257 95T208 41T152 1T96 -15Q62 -15 46 12T44 99L118 399L37 418L41 435Q63 453 89 467Q110 479 137 489T190
499Q227 499 240 473T239 385L167 82L170 81Z" />
<glyph unicode="&#x12c;" glyph-name="Ibreve" horiz-adv-x="370" d="M534 728Q500 728 477 740T440 771T420 817T416 872H464Q471 841 489 823T546 805Q584 805 608 825T646 872H692Q684 843 671 817T639 771T593 740T534 728ZM-9 45L74 63L181 600L106 619L114
664H411L403 619L320 600L214 63L291 45L283 0H-18L-9 45Z" />
<glyph unicode="&#x12d;" glyph-name="ibreve" horiz-adv-x="310" d="M463 574Q432 574 411 586T376 620T357 672T354 737H403Q412 654 476 654Q511 654 533 679T570 737H617Q609 704 596 674T565 622T521 587T463 574ZM170 81Q199 92 223 114T267 166L290 154Q279
125 257 95T208 41T152 1T96 -15Q62 -15 46 12T44 99L118 399L37 418L41 435Q63 453 89 467Q110 479 137 489T190 499Q227 499 240 473T239 385L167 82L170 81V81Z" />
<glyph unicode="&#x12e;" glyph-name="Iogonek" horiz-adv-x="370" d="M-9 45L74 63L181 600L106 619L114 664H411L403 619L320 600L214 63L291 45L283 0H162Q139 -25 123 -43T95 -78T79 -107T73 -136Q73 -157 87 -169T122 -181Q148 -181 168 -171T216 -135L235
-156Q221 -175 206 -194T171 -229T130 -255T80 -265Q30 -265 3 -240T-24 -176Q-24 -149 -13 -127T16 -84T57 -44T106 0H-18L-9 45Z" />
<glyph unicode="&#x12f;" glyph-name="iogonek" horiz-adv-x="310" d="M170 81Q199 92 223 114T267 166L290 154Q279 129 262 102T210 42L141 -27Q116 -51 99 -68T71 -98T56 -122T51 -144Q51 -162 62 -174T93 -186Q120 -186 140 -173T186 -132L208 -148Q197 -168
181 -189T145 -227T101 -254T51 -265Q8 -265 -18 -241T-44 -179Q-44 -160 -36 -142T-11 -105T35 -65T104 -18V-14H93Q61 -13 45 13T44 99L118 399L37 418L41 435Q63 453 89 467Q110 479 137 489T190 499Q224 499 238 473T239 385L167 82L170 81ZM160 671Q160 702
181 723T234 745Q265 745 286 724T308 671Q308 641 287 619T234 597Q203 597 182 619T160 671Z" />
<glyph unicode="&#x130;" glyph-name="Idotaccent" horiz-adv-x="370" d="M468 823Q468 855 491 878T546 901Q578 901 601 878T624 823Q624 791 601 768T546 745Q514 745 491 768T468 823ZM-9 45L74 63L181 600L106 619L114 664H411L403 619L320 600L214 63L291
45L283 0H-18L-9 45Z" />
<glyph unicode="&#x131;" glyph-name="dotlessi" horiz-adv-x="310" d="M170 81Q199 92 223 114T267 166L290 154Q279 125 257 95T208 41T152 1T96 -15Q62 -15 46 12T44 99L118 399L37 418L41 435Q63 453 89 467Q110 479 137 489T190 499Q227 499 240 473T239
385L167 82L170 81V81Z" />
<glyph unicode="&#x132;" glyph-name="IJ" horiz-adv-x="727" d="M589 83Q575 16 550 -38T487 -132T400 -193T289 -219L285 -177Q327 -164 354 -141T398 -87T426 -18T446 64L552 600L471 618L480 664H783L774 619L690 600L589 83ZM-9 45L74 63L181 600L106 619L114
664H411L403 619L320 600L214 63L291 45L283 0H-18L-9 45Z" />
<glyph unicode="&#x133;" glyph-name="ij" horiz-adv-x="589" d="M37 418L41 435Q63 453 89 467Q110 479 137 489T190 499Q227 499 240 473T239 385L167 82L170 81Q199 92 223 114T267 166L290 154Q279 125 257 95T208 41T152 1T96 -15Q62 -15 46 12T44 99L118
399L37 418ZM160 671Q160 702 181 723T234 745Q265 745 286 724T308 671Q308 641 287 619T234 597Q203 597 182 619T160 671ZM430 399L349 418L352 435Q375 453 400 467Q421 479 447 489T499 499Q534 499 550 472T551 381L474 67Q457 -4 428 -64T362 -167T283 -235T199
-260Q182 -260 165 -255T135 -241T113 -217T104 -185Q104 -161 124 -142T172 -115Q183 -150 201 -175T243 -200Q257 -200 268 -186T290 -146T310 -85T330 -10L430 399ZM472 671Q472 702 493 723T546 745Q576 745 598 724T620 671Q620 641 598 619T546 597Q515 597
494 619T472 671Z" />
<glyph unicode="&#x134;" glyph-name="Jcircumflex" horiz-adv-x="369" d="M231 83Q217 16 192 -38T129 -132T42 -193T-69 -219L-73 -177Q-31 -164 -4 -141T40 -87T68 -18T88 64L194 600L113 618L122 664H425L416 619L332 600L231 83ZM143 736L268 871H361L432
736H373L304 804L210 736H143Z" />
<glyph unicode="&#x135;" glyph-name="jcircumflex" horiz-adv-x="298" d="M139 399L58 418L61 435Q84 453 109 467Q130 479 156 489T208 499Q246 499 261 473T260 381L183 67Q166 -4 137 -64T71 -167T-8 -235T-92 -260Q-109 -260 -126 -255T-156 -241T-178 -217T-187
-185Q-187 -161 -167 -142T-119 -115Q-108 -150 -90 -175T-48 -200Q-34 -200 -23 -186T-1 -146T19 -85T39 -10L139 399ZM348 573L482 772H562L617 573H565L504 682L404 573H348Z" />
<glyph unicode="&#x136;" glyph-name="Kcommaaccent" horiz-adv-x="714" d="M-10 45L75 63L181 600L106 619L114 664H410L402 619L320 600L214 63L282 45L273 0H-18L-10 45ZM657 -16Q610 -16 575 -13T513 3T462 38T413 102T357 202T284 347L286 358L350 380L586
600L515 620L524 664H752L744 621L662 598L422 382Q482 268 517 201T576 98T619 48T667 24L657 -16ZM202 -247Q261 -226 283 -207T305 -164Q305 -147 293 -137T257 -122Q264 -92 284 -75T335 -58Q369 -58 390 -78T412 -130Q412 -155 397 -177T356 -218T294 -252T214
-279L202 -247Z" />
<glyph unicode="&#x137;" glyph-name="kcommaaccent" horiz-adv-x="520" d="M430 -39Q379 -39 341 -12T268 63L174 172Q161 142 151 113T136 56L126 7L22 -16L1 -1L163 650L96 677L102 701L310 746L198 296H203Q229 341 255 378T308 442T363 483T422 498Q464 498
487 473T510 411Q510 344 455 291T293 195L486 -16V-27Q478 -32 464 -35T430 -39ZM367 405Q347 405 323 386T273 336T224 265T179 182Q234 200 275 223T343 271T385 321T399 369Q399 405 367 405ZM67 9Q126 30 148 49T170 92Q170 109 158 119T122 134Q129 164 149
181T200 198Q234 198 255 178T277 126Q277 101 262 79T221 38T159 4T79 -23L67 9Z" />
<glyph unicode="&#x138;" glyph-name="kgreenlandic" horiz-adv-x="549" d="M41 418L44 435Q65 453 88 467Q108 479 132 489T179 499Q273 499 231 366L194 251H199Q228 306 258 352T319 430T380 480T441 498Q485 498 507 473T530 411Q530 344 475 290T311 194L506
-16V-27Q498 -32 484 -35T450 -39Q424 -39 403 -32T365 -14T334 10T309 38L197 174Q168 111 154 56L142 6L37 -16L15 -1L120 401L41 418ZM387 405Q369 405 345 387T296 337T247 266T201 183Q255 201 296 224T364 272T405 322T419 369Q419 405 387 405Z" />
<glyph unicode="&#x139;" glyph-name="Lacute" horiz-adv-x="599" d="M407 59L507 222H550L495 0H-18L-10 45L74 63L180 600L106 619L114 664H421L412 619L320 600L214 59H407ZM445 875V854L306 736H237L325 875H445Z" />
<glyph unicode="&#x13a;" glyph-name="lacute" horiz-adv-x="294" d="M276 154Q264 125 242 95T193 41T137 1T81 -15Q47 -15 31 12T29 99L165 650L98 677L104 701L313 746L152 82L155 81Q184 92 208 114T253 166L276 154V154ZM684 925V904L545 786H476L564 925H684Z" />
<glyph unicode="&#x13b;" glyph-name="Lcommaaccent" horiz-adv-x="599" d="M407 59L507 222H550L495 0H-18L-10 45L74 63L180 600L106 619L114 664H421L412 619L320 600L214 59H407ZM110 9Q169 30 191 49T213 92Q213 109 201 119T165 134Q172 164 192 181T243
198Q277 198 298 178T320 126Q320 101 305 79T264 38T202 4T122 -23L110 9Z" />
<glyph unicode="&#x13c;" glyph-name="lcommaaccent" horiz-adv-x="294" d="M276 154Q264 125 242 95T193 41T137 1T81 -15Q47 -15 31 12T29 99L165 650L98 677L104 701L313 746L152 82L155 81Q184 92 208 114T253 166L276 154V154ZM196 9Q255 30 277 49T299 92Q299
109 287 119T251 134Q258 164 278 181T329 198Q363 198 384 178T406 126Q406 101 391 79T350 38T288 4T208 -23L196 9Z" />
<glyph unicode="&#x13d;" glyph-name="Lcaron" horiz-adv-x="599" d="M407 59L507 222H550L495 0H-18L-10 45L74 63L180 600L106 619L114 664H421L412 619L320 600L214 59H407ZM464 470L518 681H621V660L500 470H464Z" />
<glyph unicode="&#x13e;" glyph-name="lcaron" horiz-adv-x="294" d="M276 154Q264 125 242 95T193 41T137 1T81 -15Q47 -15 31 12T29 99L165 650L98 677L104 701L313 746L152 82L155 81Q184 92 208 114T253 166L276 154V154ZM337 535L391 746H494V725L373 535H337Z" />
<glyph unicode="&#x13f;" glyph-name="Ldot" horiz-adv-x="599" d="M516 309Q485 309 463 331T440 385Q440 417 462 439T516 462Q548 462 570 440T593 385Q593 354 571 332T516 309ZM407 59L507 222H550L495 0H-18L-10 45L74 63L180 600L106 619L114 664H421L412
619L320 600L214 59H407Z" />
<glyph unicode="&#x140;" glyph-name="ldot" horiz-adv-x="400" d="M362 297Q330 297 308 319T286 373Q286 405 308 427T362 450Q394 450 416 428T439 373Q439 342 417 320T362 297ZM276 154Q264 125 242 95T193 41T137 1T81 -15Q47 -15 31 12T29 99L165 650L98
677L104 701L313 746L152 82L155 81Q184 92 208 114T253 166L276 154Z" />
<glyph unicode="&#x141;" glyph-name="Lslash" horiz-adv-x="599" d="M36 298L125 321L180 600L106 619L114 664H421L412 619L320 600L273 361L491 419L481 368L263 309L214 59H407L507 222H550L495 0H-18L-10 45L74 63L115 270L26 246L36 298Z" />
<glyph unicode="&#x142;" glyph-name="lslash" horiz-adv-x="294" d="M5 329L97 374L165 650L98 677L104 701L313 746L240 445L339 494L326 436L226 387L152 82L155 81Q184 92 208 114T253 166L276 154Q264 125 242 95T193 41T137 1T81 -15Q47 -15 31 12T29 99L82
316L-8 272L5 329Z" />
<glyph unicode="&#x143;" glyph-name="Nacute" horiz-adv-x="767" d="M516 -12L236 532L148 72L266 43L257 0H-15L-6 45L78 66L182 587L102 620L110 664H326L575 175L652 590L538 621L546 664H812L803 619L720 596L624 112L607 -12H516ZM642 875V854L503 736H434L522
875H642Z" />
<glyph unicode="&#x144;" glyph-name="nacute" horiz-adv-x="591" d="M120 401L40 418L44 435Q68 453 94 467Q116 479 142 489T192 499Q277 499 236 372L202 265H209Q233 303 262 344T323 420T392 477T466 499Q487 499 502 494T525 474T533 437T524 379L449 82L452
81Q481 92 505 114T549 166L572 154Q560 124 538 94T489 40T433 1T378 -15Q343 -15 326 12T325 99L396 365Q401 383 399 393T384 403Q368 403 348 386T304 339T258 272T215 194T179 115T155 43L146 6L37 -16L15 -1L120 401ZM506 764V746L379 565H323L401 764H506Z"
/>
<glyph unicode="&#x145;" glyph-name="Ncommaaccent" horiz-adv-x="767" d="M516 -12L236 532L148 72L266 43L257 0H-15L-6 45L78 66L182 587L102 620L110 664H326L575 175L652 590L538 621L546 664H812L803 619L720 596L624 112L607 -12H516ZM209 -247Q268 -226
290 -207T312 -164Q312 -147 300 -137T264 -122Q271 -92 291 -75T342 -58Q376 -58 397 -78T419 -130Q419 -155 404 -177T363 -218T301 -252T221 -279L209 -247Z" />
<glyph unicode="&#x146;" glyph-name="ncommaaccent" horiz-adv-x="591" d="M120 401L40 418L44 435Q68 453 94 467Q116 479 142 489T192 499Q277 499 236 372L202 265H209Q233 303 262 344T323 420T392 477T466 499Q487 499 502 494T525 474T533 437T524 379L449
82L452 81Q481 92 505 114T549 166L572 154Q560 124 538 94T489 40T433 1T378 -15Q343 -15 326 12T325 99L396 365Q401 383 399 393T384 403Q368 403 348 386T304 339T258 272T215 194T179 115T155 43L146 6L37 -16L15 -1L120 401ZM96 9Q155 30 177 49T199 92Q199
109 187 119T151 134Q158 164 178 181T229 198Q263 198 284 178T306 126Q306 101 291 79T250 38T188 4T108 -23L96 9Z" />
<glyph unicode="&#x147;" glyph-name="Ncaron" horiz-adv-x="767" d="M516 -12L236 532L148 72L266 43L257 0H-15L-6 45L78 66L182 587L102 620L110 664H326L575 175L652 590L538 621L546 664H812L803 619L720 596L624 112L607 -12H516ZM648 871L523 736H430L359
871H418L487 803L582 871H648Z" />
<glyph unicode="&#x148;" glyph-name="ncaron" horiz-adv-x="591" d="M120 401L40 418L44 435Q68 453 94 467Q116 479 142 489T192 499Q277 499 236 372L202 265H209Q233 303 262 344T323 420T392 477T466 499Q487 499 502 494T525 474T533 437T524 379L449 82L452
81Q481 92 505 114T549 166L572 154Q560 124 538 94T489 40T433 1T378 -15Q343 -15 326 12T325 99L396 365Q401 383 399 393T384 403Q368 403 348 386T304 339T258 272T215 194T179 115T155 43L146 6L37 -16L15 -1L120 401ZM528 764L394 565H314L259 764H311L371
654L472 764H528Z" />
<glyph unicode="&#x149;" glyph-name="napostrophe" horiz-adv-x="591" d="M25 570Q84 591 106 610T128 653Q128 670 116 680T80 695Q87 725 107 742T158 759Q192 759 213 739T235 687Q235 662 220 640T179 599T117 565T37 538L25 570ZM120 401L40 418L44 435Q68
453 94 467Q116 479 142 489T192 499Q277 499 236 372L202 265H209Q233 303 262 344T323 420T392 477T466 499Q487 499 502 494T525 474T533 437T524 379L449 82L452 81Q481 92 505 114T549 166L572 154Q560 124 538 94T489 40T433 1T378 -15Q343 -15 326 12T325
99L396 365Q401 383 399 393T384 403Q368 403 348 386T304 339T258 272T215 194T179 115T155 43L146 6L37 -16L15 -1L120 401Z" />
<glyph unicode="&#x14a;" glyph-name="Eng" horiz-adv-x="767" d="M623 108L618 83Q604 16 579 -38T516 -132T428 -193T317 -219L313 -177Q357 -165 387 -145T438 -99T472 -41T495 28L236 532L148 72L266 43L257 0H-15L-6 45L78 66L182 587L102 620L110 664H326L575
175L652 590L538 621L546 664H812L803 619L720 596L623 108Z" />
<glyph unicode="&#x14b;" glyph-name="eng" horiz-adv-x="557" d="M396 365Q407 403 384 403Q369 403 348 385T304 338T258 271T215 193T179 114T155 43L146 6L37 -16L15 -1L120 401L40 418L44 435Q68 453 94 467Q116 479 142 489T192 499Q273 499 236 372L202
265H209Q233 303 262 344T323 420T391 476T465 498Q487 498 502 493T525 474T533 437T524 379L445 60Q428 -9 399 -67T333 -169T254 -236T170 -260Q153 -260 136 -255T106 -241T84 -217T75 -185Q75 -161 95 -142T143 -115Q154 -150 173 -175T214 -200Q228 -200
239 -186T261 -147T281 -89T300 -19L396 365Z" />
<glyph unicode="&#x14c;" glyph-name="Omacron" horiz-adv-x="758" d="M458 682Q516 682 566 662T653 604T712 511T734 384Q734 313 707 241T627 111T500 17T327 -20Q267 -20 217 0T129 59T70 153T49 279Q49 352 77 424T159 553T287 646T458 682ZM581 437Q581
480 574 515T550 576T509 616T450 631Q403 631 358 598T278 508T222 379T201 228Q201 135 233 83T335 31Q373 31 406 50T466 100T514 174T551 261T573 351T581 437ZM360 841H646L631 770H345L360 841Z" />
<glyph unicode="&#x14d;" glyph-name="omacron" horiz-adv-x="535" d="M219 691H505L490 619H203L219 691ZM165 124Q165 107 166 90T173 58T188 34T212 25Q232 25 251 41T288 83T320 144T346 215T363 289T369 357Q369 371 367 388T360 421T346 447T320 458Q299
458 280 442T244 398T212 336T187 264T171 191T165 124ZM333 498Q375 498 407 483T462 443T495 383T506 309Q506 252 485 194T425 90T330 14T203 -15Q161 -15 129 -1T74 40T41 101T29 178Q29 234 50 291T110 394T205 469T333 498Z" />
<glyph unicode="&#x14e;" glyph-name="Obreve" horiz-adv-x="758" d="M481 728Q447 728 424 740T387 771T367 817T363 872H411Q418 841 436 823T493 805Q531 805 555 825T593 872H639Q631 843 618 817T586 771T540 740T481 728ZM458 682Q516 682 566 662T653 604T712
511T734 384Q734 313 707 241T627 111T500 17T327 -20Q267 -20 217 0T129 59T70 153T49 279Q49 352 77 424T159 553T287 646T458 682ZM581 437Q581 480 574 515T550 576T509 616T450 631Q403 631 358 598T278 508T222 379T201 228Q201 135 233 83T335 31Q373 31
406 50T466 100T514 174T551 261T573 351T581 437Z" />
<glyph unicode="&#x14f;" glyph-name="obreve" horiz-adv-x="535" d="M165 124Q165 107 166 90T173 58T188 34T212 25Q232 25 251 41T288 83T320 144T346 215T363 289T369 357Q369 371 367 388T360 421T346 447T320 458Q299 458 280 442T244 398T212 336T187 264T171
191T165 124ZM333 498Q375 498 407 483T462 443T495 383T506 309Q506 252 485 194T425 90T330 14T203 -15Q161 -15 129 -1T74 40T41 101T29 178Q29 234 50 291T110 394T205 469T333 498ZM336 566Q305 566 284 578T249 612T230 664T227 729H276Q285 646 349 646Q384
646 406 671T443 729H490Q482 696 469 666T438 614T394 579T336 566Z" />
<glyph unicode="&#x150;" glyph-name="Ohungarumlaut" horiz-adv-x="758" d="M689 875V856L576 736H512L586 875H689ZM538 875V856L425 736H361L435 875H538ZM458 682Q516 682 566 662T653 604T712 511T734 384Q734 313 707 241T627 111T500 17T327 -20Q267 -20
217 0T129 59T70 153T49 279Q49 352 77 424T159 553T287 646T458 682ZM581 437Q581 480 574 515T550 576T509 616T450 631Q403 631 358 598T278 508T222 379T201 228Q201 135 233 83T335 31Q373 31 406 50T466 100T514 174T551 261T573 351T581 437Z" />
<glyph unicode="&#x151;" glyph-name="ohungarumlaut" horiz-adv-x="535" d="M395 764V746L277 565H226L300 764H395ZM555 764V746L437 565H387L460 764H555ZM165 124Q165 107 166 90T173 58T188 34T212 25Q232 25 251 41T288 83T320 144T346 215T363 289T369
357Q369 371 367 388T360 421T346 447T320 458Q299 458 280 442T244 398T212 336T187 264T171 191T165 124ZM333 498Q375 498 407 483T462 443T495 383T506 309Q506 252 485 194T425 90T330 14T203 -15Q161 -15 129 -1T74 40T41 101T29 178Q29 234 50 291T110 394T205
469T333 498Z" />
<glyph unicode="&#x152;" glyph-name="OE" horiz-adv-x="1018" d="M628 0Q568 0 530 -1T463 -3T405 -5T337 -6Q268 -7 215 14T125 75T69 167T50 284Q50 362 82 432T170 556T300 641T460 672Q488 672 513 671T573 668T663 665T805 664H932L1019 670L968 482H926L913
610H701L653 368H768L813 451H855L814 236H771L758 313H643L592 59H822L922 199H965L908 0H628ZM568 599Q557 607 528 615T459 624Q397 624 349 588T268 494T218 368T201 233Q201 194 208 160T231 99T274 57T340 42Q406 42 439 78T486 183L568 599Z" />
<glyph unicode="&#x153;" glyph-name="oe" horiz-adv-x="780" d="M490 -15Q446 -15 420 8T380 65Q345 29 301 7T203 -15Q161 -15 129 -1T74 40T41 101T29 178Q29 234 50 291T111 394T205 469T328 498Q359 498 382 489T424 465T453 428T472 384Q517 434 571 466T680
498Q781 498 781 418Q781 379 753 346T681 288T583 245T478 219Q477 210 477 201T476 181Q476 128 499 101T556 74Q574 74 593 82T631 102T664 129T691 158L714 140Q704 121 684 95T635 44T569 2T490 -15ZM320 458Q299 458 280 442T243 399T212 337T187 265T170
191T164 124Q164 107 166 90T173 58T187 34T212 25Q242 25 270 59T321 143T356 251T370 357Q370 371 368 388T361 421T346 447T320 458ZM642 449Q621 449 598 434T553 393T513 331T485 256Q517 263 549 280T608 321T652 369T669 419Q669 433 663 441T642 449Z"
/>
<glyph unicode="&#x154;" glyph-name="Racute" horiz-adv-x="701" d="M-9 45L75 63L182 601L106 619L115 664L381 665Q439 665 486 655T567 624T619 573T637 505Q637 463 619 433T572 382T511 349T450 330Q496 235 524 178T574 89T614 44T659 22L652 -15Q606 -15
573 -12T515 2T468 33T424 88T377 174T318 296H261L215 63L307 44L298 0H-18L-9 45ZM270 344Q381 342 436 384T492 499Q492 527 483 550T453 589T402 613T325 621L270 344ZM564 875V854L425 736H356L444 875H564Z" />
<glyph unicode="&#x155;" glyph-name="racute" horiz-adv-x="461" d="M53 117Q69 180 81 232T101 322Q111 366 118 401L41 418L44 435Q65 453 88 467Q108 479 132 489T179 499Q225 499 235 466T226 372L171 196H186Q212 256 237 311T289 407T346 474T412 499Q438
499 455 482T473 433Q473 415 467 398T450 365T429 339T408 322H365Q372 334 375 346T378 369T374 388T361 400Q332 380 297 326T228 203Q205 155 187 110T152 6L44 -16L23 -1L53 117ZM442 764V746L315 565H259L337 764H442Z" />
<glyph unicode="&#x156;" glyph-name="Rcommaaccent" horiz-adv-x="701" d="M-9 45L75 63L182 601L106 619L115 664L381 665Q439 665 486 655T567 624T619 573T637 505Q637 463 619 433T572 382T511 349T450 330Q496 235 524 178T574 89T614 44T659 22L652 -15Q606
-15 573 -12T515 2T468 33T424 88T377 174T318 296H261L215 63L307 44L298 0H-18L-9 45ZM270 344Q381 342 436 384T492 499Q492 527 483 550T453 589T402 613T325 621L270 344ZM211 -247Q270 -226 292 -207T314 -164Q314 -147 302 -137T266 -122Q273 -92 293 -75T344
-58Q378 -58 399 -78T421 -130Q421 -155 406 -177T365 -218T303 -252T223 -279L211 -247Z" />
<glyph unicode="&#x157;" glyph-name="rcommaaccent" horiz-adv-x="461" d="M53 117Q69 180 81 232T101 322Q111 366 118 401L41 418L44 435Q65 453 88 467Q108 479 132 489T179 499Q225 499 235 466T226 372L171 196H186Q212 256 237 311T289 407T346 474T412
499Q438 499 455 482T473 433Q473 415 467 398T450 365T429 339T408 322H365Q372 334 375 346T378 369T374 388T361 400Q332 380 297 326T228 203Q205 155 187 110T152 6L44 -16L23 -1L53 117ZM188 9Q247 30 269 49T291 92Q291 109 279 119T243 134Q250 164 270
181T321 198Q355 198 376 178T398 126Q398 101 383 79T342 38T280 4T200 -23L188 9Z" />
<glyph unicode="&#x158;" glyph-name="Rcaron" horiz-adv-x="701" d="M563 871L438 736H345L274 871H333L402 803L497 871H563ZM-9 45L75 63L182 601L106 619L115 664L381 665Q439 665 486 655T567 624T619 573T637 505Q637 463 619 433T572 382T511 349T450 330Q496
235 524 178T574 89T614 44T659 22L652 -15Q606 -15 573 -12T515 2T468 33T424 88T377 174T318 296H261L215 63L307 44L298 0H-18L-9 45ZM270 344Q381 342 436 384T492 499Q492 527 483 550T453 589T402 613T325 621L270 344Z" />
<glyph unicode="&#x159;" glyph-name="rcaron" horiz-adv-x="461" d="M467 764L333 565H253L198 764H250L310 654L411 764H467ZM53 117Q69 180 81 232T101 322Q111 366 118 401L41 418L44 435Q65 453 88 467Q108 479 132 489T179 499Q225 499 235 466T226 372L171
196H186Q212 256 237 311T289 407T346 474T412 499Q438 499 455 482T473 433Q473 415 467 398T450 365T429 339T408 322H365Q372 334 375 346T378 369T374 388T361 400Q332 380 297 326T228 203Q205 155 187 110T152 6L44 -16L23 -1L53 117Z" />
<glyph unicode="&#x15a;" glyph-name="Sacute" horiz-adv-x="559" d="M99 227L124 68Q143 57 172 46T238 34Q295 34 331 64T368 150Q367 188 344 215T269 274L223 301Q194 318 174 335T139 371T119 414T112 468Q112 509 131 547T185 616T271 664T385 682Q436 682
477 671T550 651L506 461H458L450 600Q433 612 408 621T351 631Q326 631 305 623T268 602T243 570T234 532Q234 513 238 498T252 471T277 446T316 420L372 386Q403 366 427 348T467 310T493 265T502 210Q502 154 476 112T408 40T316 -4T218 -19Q185 -19 156 -14T102
-3T57 11T23 23L52 227H99ZM537 875V854L398 736H329L417 875H537Z" />
<glyph unicode="&#x15b;" glyph-name="sacute" horiz-adv-x="384" d="M332 158Q332 125 312 93T261 37T191 -3T115 -18Q92 -18 70 -11T31 9T4 39T-7 74Q-7 97 1 115T26 155H30Q72 110 111 79T189 48Q209 48 221 58T233 88Q233 105 221 123T185 164L136 213Q105
244 88 269T71 323Q71 359 93 391T149 448T219 486T287 501Q304 501 321 496T352 481T374 458T383 428Q383 405 375 384T354 345H349Q314 377 280 402T209 427Q190 427 179 417T168 390Q168 373 178 360T211 324L267 268Q305 230 318 207T332 158ZM424 764V746L297
565H241L319 764H424Z" />
<glyph unicode="&#x15c;" glyph-name="Scircumflex" horiz-adv-x="559" d="M235 736L360 871H453L524 736H465L396 804L302 736H235ZM99 227L124 68Q143 57 172 46T238 34Q295 34 331 64T368 150Q367 188 344 215T269 274L223 301Q194 318 174 335T139 371T119
414T112 468Q112 509 131 547T185 616T271 664T385 682Q436 682 477 671T550 651L506 461H458L450 600Q433 612 408 621T351 631Q326 631 305 623T268 602T243 570T234 532Q234 513 238 498T252 471T277 446T316 420L372 386Q403 366 427 348T467 310T493 265T502
210Q502 154 476 112T408 40T316 -4T218 -19Q185 -19 156 -14T102 -3T57 11T23 23L52 227H99Z" />
<glyph unicode="&#x15d;" glyph-name="scircumflex" horiz-adv-x="384" d="M332 158Q332 125 312 93T261 37T191 -3T115 -18Q92 -18 70 -11T31 9T4 39T-7 74Q-7 97 1 115T26 155H30Q72 110 111 79T189 48Q209 48 221 58T233 88Q233 105 221 123T185 164L136 213Q105
244 88 269T71 323Q71 359 93 391T149 448T219 486T287 501Q304 501 321 496T352 481T374 458T383 428Q383 405 375 384T354 345H349Q314 377 280 402T209 427Q190 427 179 417T168 390Q168 373 178 360T211 324L267 268Q305 230 318 207T332 158ZM137 565L271
764H351L406 565H354L293 674L193 565H137Z" />
<glyph unicode="&#x15e;" glyph-name="Scedilla" horiz-adv-x="559" d="M64 -236Q80 -231 97 -224T130 -207T154 -184T164 -152Q164 -130 152 -118T130 -100L195 -18Q137 -14 93 0T23 23L52 227H99L124 68Q143 57 172 46T238 34Q295 34 331 64T368 150Q367 188
344 215T269 274L223 301Q194 318 174 335T139 371T119 414T112 468Q112 509 131 547T185 616T271 664T385 682Q436 682 477 671T550 651L506 461H458L450 600Q433 612 408 621T351 631Q326 631 305 623T268 602T243 570T234 532Q234 513 238 498T252 471T277 446T316
420L372 386Q403 366 427 348T467 310T493 265T502 210Q502 157 479 117T418 48T334 3T242 -18L211 -62Q234 -70 250 -86T267 -131Q267 -163 250 -186T204 -226T141 -253T69 -270L64 -236Z" />
<glyph unicode="&#x15f;" glyph-name="scedilla" horiz-adv-x="384" d="M-39 -236Q-23 -231 -6 -224T27 -207T51 -184T61 -152Q61 -130 49 -118T27 -100L93 -16Q73 -13 55 -5T23 15T1 42T-7 74Q-7 97 1 115T26 155H30Q72 110 111 79T189 48Q209 48 221 58T233
88Q233 105 221 123T185 164L136 213Q105 244 88 269T71 323Q71 359 93 391T149 448T219 486T287 501Q304 501 321 496T352 481T374 458T383 428Q383 405 375 384T354 345H349Q314 377 280 402T209 427Q190 427 179 417T168 390Q168 373 178 360T211 324L267 268Q305
230 318 207T332 158Q332 127 315 98T271 45T210 5T140 -16L108 -62Q131 -70 147 -86T164 -131Q164 -163 147 -186T101 -226T38 -253T-34 -270L-39 -236Z" />
<glyph unicode="&#x160;" glyph-name="Scaron" horiz-adv-x="559" d="M546 871L421 736H328L257 871H316L385 803L480 871H546ZM99 227L124 68Q143 57 172 46T238 34Q295 34 331 64T368 150Q367 188 344 215T269 274L223 301Q194 318 174 335T139 371T119 414T112
468Q112 509 131 547T185 616T271 664T385 682Q436 682 477 671T550 651L506 461H458L450 600Q433 612 408 621T351 631Q326 631 305 623T268 602T243 570T234 532Q234 513 238 498T252 471T277 446T316 420L372 386Q403 366 427 348T467 310T493 265T502 210Q502
154 476 112T408 40T316 -4T218 -19Q185 -19 156 -14T102 -3T57 11T23 23L52 227H99Z" />
<glyph unicode="&#x161;" glyph-name="scaron" horiz-adv-x="384" d="M445 764L311 565H231L176 764H228L288 654L389 764H445ZM332 158Q332 125 312 93T261 37T191 -3T115 -18Q92 -18 70 -11T31 9T4 39T-7 74Q-7 97 1 115T26 155H30Q72 110 111 79T189 48Q209
48 221 58T233 88Q233 105 221 123T185 164L136 213Q105 244 88 269T71 323Q71 359 93 391T149 448T219 486T287 501Q304 501 321 496T352 481T374 458T383 428Q383 405 375 384T354 345H349Q314 377 280 402T209 427Q190 427 179 417T168 390Q168 373 178 360T211
324L267 268Q305 230 318 207T332 158Z" />
<glyph unicode="&#x162;" glyph-name="Tcommaaccent" horiz-adv-x="689" d="M635 664L718 671L675 476H632L616 610H477L369 63L459 45L451 0H123L132 45L231 63L338 610H204L134 476H92L126 671L204 664H635ZM144 9Q203 30 225 49T247 92Q247 109 235 119T199
134Q206 164 226 181T277 198Q311 198 332 178T354 126Q354 101 339 79T298 38T236 4T156 -23L144 9Z" />
<glyph unicode="&#x163;" glyph-name="tcommaaccent" horiz-adv-x="381" d="M52 478H143L194 599H286L260 478H385L377 423H251L170 90L174 87Q196 96 217 110T256 141T290 175T317 210L340 196Q326 166 299 129T238 60T168 7T99 -15Q83 -15 70 -8T49 13T38 45T40
86L124 423H44L52 478ZM215 9Q274 30 296 49T318 92Q318 109 306 119T270 134Q277 164 297 181T348 198Q382 198 403 178T425 126Q425 101 410 79T369 38T307 4T227 -23L215 9Z" />
<glyph unicode="&#x164;" glyph-name="Tcaron" horiz-adv-x="689" d="M635 664L718 671L675 476H632L616 610H477L369 63L459 45L451 0H123L132 45L231 63L338 610H204L134 476H92L126 671L204 664H635ZM602 871L477 736H384L313 871H372L441 803L536 871H602Z" />
<glyph unicode="&#x165;" glyph-name="tcaron" horiz-adv-x="381" d="M359 555L412 749H512V730L394 555H359ZM52 478H143L194 599H286L260 478H385L377 423H251L170 90L174 87Q196 96 217 110T256 141T290 175T317 210L340 196Q326 166 299 129T238 60T168 7T99
-15Q83 -15 70 -8T49 13T38 45T40 86L124 423H44L52 478Z" />
<glyph unicode="&#x166;" glyph-name="Tbar" horiz-adv-x="689" d="M635 664L718 671L675 476H632L616 610H477L433 389H580L569 336H423L369 63L459 45L451 0H123L132 45L231 63L284 336H140L151 389H295L338 610H204L134 476H92L126 671L204 664H635Z" />
<glyph unicode="&#x167;" glyph-name="tbar" horiz-adv-x="381" d="M52 478H143L194 599H286L260 478H385L377 423H251L232 344H362L352 289H218L170 90L174 87Q196 96 217 110T256 141T290 175T317 210L340 196Q326 166 299 129T238 60T168 7T99 -15Q83 -15 70
-8T49 13T38 45T40 86L90 289H21L31 344H104L124 423H44L52 478Z" />
<glyph unicode="&#x168;" glyph-name="Utilde" horiz-adv-x="742" d="M475 761L449 772Q419 784 401 787T370 786T348 768T328 736L295 753L300 766Q316 808 335 831T376 864T425 870T480 854L505 844Q539 830 560 826T594 827T618 845T641 880L674 864L667 848Q648
805 629 781T587 748T537 742T475 761ZM333 -22Q267 -22 218 -5T138 49T99 143T105 279L169 600L94 619L103 664H399L391 619L311 600L243 256Q223 159 257 106T371 53Q406 53 438 64T498 102T546 171T578 277L636 595L521 621L529 664H793L784 619L702 596L642
287Q613 141 537 60T333 -22Z" />
<glyph unicode="&#x169;" glyph-name="utilde" horiz-adv-x="580" d="M37 419L41 435Q63 453 88 467Q109 479 134 489T184 500Q228 500 241 472T236 374L169 114Q160 81 177 81Q189 81 208 99T251 147T298 215T344 291T380 366T402 428L413 476L520 499L541 484L442
82L445 81Q474 92 498 114T542 166L565 154Q553 125 531 95T482 41T426 1T370 -15Q334 -15 319 13T323 104L363 237H358Q335 206 308 163T249 81T178 13T96 -15Q61 -15 44 13T43 109L118 402L37 419ZM328 618Q299 629 281 633T251 634T229 619T209 586L175 603L181
616Q200 658 220 682T262 715T308 721T363 706L389 696Q420 684 440 680T473 678T497 695T521 731L556 714L547 697Q524 653 503 629T460 596T413 590T354 608L328 618Z" />
<glyph unicode="&#x16a;" glyph-name="Umacron" horiz-adv-x="742" d="M349 841H635L620 770H334L349 841ZM333 -22Q267 -22 218 -5T138 49T99 143T105 279L169 600L94 619L103 664H399L391 619L311 600L243 256Q223 159 257 106T371 53Q406 53 438 64T498 102T546
171T578 277L636 595L521 621L529 664H793L784 619L702 596L642 287Q613 141 537 60T333 -22Z" />
<glyph unicode="&#x16b;" glyph-name="umacron" horiz-adv-x="580" d="M229 691H515L500 619H213L229 691ZM37 419L41 435Q63 453 88 467Q109 479 134 489T184 500Q228 500 241 472T236 374L169 114Q160 81 177 81Q189 81 208 99T251 147T298 215T344 291T380
366T402 428L413 476L520 499L541 484L442 82L445 81Q474 92 498 114T542 166L565 154Q553 125 531 95T482 41T426 1T370 -15Q334 -15 319 13T323 104L363 237H358Q335 206 308 163T249 81T178 13T96 -15Q61 -15 44 13T43 109L118 402L37 419Z" />
<glyph unicode="&#x16c;" glyph-name="Ubreve" horiz-adv-x="742" d="M470 728Q436 728 413 740T376 771T356 817T352 872H400Q407 841 425 823T482 805Q520 805 544 825T582 872H628Q620 843 607 817T575 771T529 740T470 728ZM333 -22Q267 -22 218 -5T138 49T99
143T105 279L169 600L94 619L103 664H399L391 619L311 600L243 256Q223 159 257 106T371 53Q406 53 438 64T498 102T546 171T578 277L636 595L521 621L529 664H793L784 619L702 596L642 287Q613 141 537 60T333 -22Z" />
<glyph unicode="&#x16d;" glyph-name="ubreve" horiz-adv-x="580" d="M37 419L41 435Q63 453 88 467Q109 479 134 489T184 500Q228 500 241 472T236 374L169 114Q160 81 177 81Q189 81 208 99T251 147T298 215T344 291T380 366T402 428L413 476L520 499L541 484L442
82L445 81Q474 92 498 114T542 166L565 154Q553 125 531 95T482 41T426 1T370 -15Q334 -15 319 13T323 104L363 237H358Q335 206 308 163T249 81T178 13T96 -15Q61 -15 44 13T43 109L118 402L37 419ZM346 566Q315 566 294 578T259 612T240 664T237 729H286Q295
646 359 646Q394 646 416 671T453 729H500Q492 696 479 666T448 614T404 579T346 566Z" />
<glyph unicode="&#x16e;" glyph-name="Uring" horiz-adv-x="742" d="M359 823Q359 848 368 869T394 905T432 930T479 939Q530 939 564 907T598 823Q598 798 589 777T563 740T526 715T479 706Q454 706 432 714T394 739T369 776T359 823ZM413 823Q413 792 432 773T479
754Q506 754 525 773T545 823Q545 853 526 872T479 891Q451 891 432 872T413 823ZM333 -22Q267 -22 218 -5T138 49T99 143T105 279L169 600L94 619L103 664H399L391 619L311 600L243 256Q223 159 257 106T371 53Q406 53 438 64T498 102T546 171T578 277L636 595L521
621L529 664H793L784 619L702 596L642 287Q613 141 537 60T333 -22Z" />
<glyph unicode="&#x16f;" glyph-name="uring" horiz-adv-x="580" d="M252 674Q252 698 261 719T286 755T323 779T369 788Q419 788 452 756T486 674Q486 650 477 629T452 593T415 569T369 560Q319 560 286 592T252 674ZM304 674Q304 644 323 626T369 607Q395 607
414 625T434 674Q434 704 415 722T369 741Q342 741 323 723T304 674ZM37 419L41 435Q63 453 88 467Q109 479 134 489T184 500Q228 500 241 472T236 374L169 114Q160 81 177 81Q189 81 208 99T251 147T298 215T344 291T380 366T402 428L413 476L520 499L541 484L442
82L445 81Q474 92 498 114T542 166L565 154Q553 125 531 95T482 41T426 1T370 -15Q334 -15 319 13T323 104L363 237H358Q335 206 308 163T249 81T178 13T96 -15Q61 -15 44 13T43 109L118 402L37 419Z" />
<glyph unicode="&#x170;" glyph-name="Uhungarumlaut" horiz-adv-x="742" d="M678 875V856L565 736H501L575 875H678ZM527 875V856L414 736H350L424 875H527ZM333 -22Q267 -22 218 -5T138 49T99 143T105 279L169 600L94 619L103 664H399L391 619L311 600L243 256Q223
159 257 106T371 53Q406 53 438 64T498 102T546 171T578 277L636 595L521 621L529 664H793L784 619L702 596L642 287Q613 141 537 60T333 -22Z" />
<glyph unicode="&#x171;" glyph-name="uhungarumlaut" horiz-adv-x="580" d="M404 764V746L286 565H235L309 764H404ZM564 764V746L446 565H396L469 764H564ZM37 419L41 435Q63 453 88 467Q109 479 134 489T184 500Q228 500 241 472T236 374L169 114Q160 81 177
81Q189 81 208 99T251 147T298 215T344 291T380 366T402 428L413 476L520 499L541 484L442 82L445 81Q474 92 498 114T542 166L565 154Q553 125 531 95T482 41T426 1T370 -15Q334 -15 319 13T323 104L363 237H358Q335 206 308 163T249 81T178 13T96 -15Q61 -15
44 13T43 109L118 402L37 419Z" />
<glyph unicode="&#x172;" glyph-name="Uogonek" horiz-adv-x="742" d="M190 -177Q190 -154 197 -135T220 -98T259 -62T314 -22Q253 -19 207 0T134 55T98 147T105 279L169 600L94 619L103 664H399L391 619L311 600L243 256Q223 159 257 106T371 53Q406 53 438 64T498
102T546 171T578 277L636 595L521 621L529 664H793L784 619L702 596L642 287Q616 153 549 74T373 -19Q348 -41 332 -57T305 -87T291 -112T287 -137Q287 -159 301 -170T335 -182Q361 -182 381 -171T430 -135L449 -156Q434 -176 419 -195T385 -230T344 -255T293 -265Q244
-265 217 -240T190 -177Z" />
<glyph unicode="&#x173;" glyph-name="uogonek" horiz-adv-x="580" d="M379 -14H366Q334 -12 320 16T323 104L363 237H358Q335 206 308 163T249 81T178 13T96 -15Q79 -15 66 -8T44 14T36 52T43 109L118 402L37 419L41 435Q63 453 88 467Q109 479 134 489T184 500Q226
500 240 472T236 374L169 114Q160 81 177 81Q189 81 208 99T251 147T298 215T344 291T380 366T402 428L413 476L520 499L541 484L442 82L445 81Q474 92 498 114T542 166L564 154Q554 129 537 102T485 42L415 -27Q390 -51 373 -68T346 -98T331 -122T326 -144Q326
-162 337 -174T368 -186Q395 -186 415 -173T461 -132L483 -149Q471 -169 455 -189T419 -227T376 -254T326 -265Q283 -265 257 -241T230 -179Q230 -160 238 -142T264 -105T310 -65T379 -18V-14Z" />
<glyph unicode="&#x174;" glyph-name="Wcircumflex" horiz-adv-x="1024" d="M467 736L592 871H685L756 736H697L628 804L534 736H467ZM542 430L313 -9H223L147 601L82 619L91 664H382L373 619L293 600L339 151L529 522L519 601L448 619L457 664H751L742 618L663
599L716 150L927 592L840 618L849 664H1082L1073 619L1001 598L694 -9H601L542 430Z" />
<glyph unicode="&#x175;" glyph-name="wcircumflex" horiz-adv-x="724" d="M276 565L410 764H490L545 565H493L432 674L332 565H276ZM468 98H472Q541 166 580 231T620 353Q620 384 602 399T557 414Q543 414 530 412T506 406L510 432Q544 466 577 481T637 497Q674
497 697 474T720 409Q720 368 700 325T647 238T574 151T495 66L417 -16H404L356 5L354 189H352Q326 161 299 129T235 59L164 -16H152L103 1L92 397Q85 404 74 408T48 413Q38 413 25 411T3 405L7 432Q42 467 74 482T134 497Q169 497 191 475T214 394L216 100H220Q244
125 265 149T304 195T332 231T349 254L346 394Q340 402 327 407T298 413Q288 413 274 411T251 405L255 432Q292 467 324 482T383 497Q400 497 415 493T441 477T459 446T466 395L468 98Z" />
<glyph unicode="&#x176;" glyph-name="Ycircumflex" horiz-adv-x="662" d="M292 736L417 871H510L581 736H522L453 804L359 736H292ZM410 273L369 63L454 45L445 0H129L138 45L230 63L267 252L149 604L91 619L100 664H391L382 620L296 603L384 322H386L580 598L499
620L508 664H718L709 620L648 600L410 273Z" />
<glyph unicode="&#x177;" glyph-name="ycircumflex" horiz-adv-x="506" d="M177 565L311 764H391L446 565H394L333 674L233 565H177ZM18 278Q18 316 26 355T52 425T94 476T153 496Q212 496 248 435T287 252Q289 177 278 112T249 -3H254Q314 74 352 146T407 302Q405
354 393 393T362 469Q378 480 395 487T436 494Q446 494 457 491T478 478T494 454T501 417Q501 355 472 281T394 130T285 -18T162 -145T42 -234T-60 -268Q-102 -268 -129 -248T-157 -189Q-158 -160 -138 -138T-82 -116Q-46 -116 -29 -140T-3 -201H2Q54 -179 86 -130T137
-23T161 95T167 200Q165 301 150 349T111 397Q90 397 74 368T50 278H18Z" />
<glyph unicode="&#x178;" glyph-name="Ydieresis" horiz-adv-x="662" d="M410 273L369 63L454 45L445 0H129L138 45L230 63L267 252L149 604L91 619L100 664H391L382 620L296 603L384 322H386L580 598L499 620L508 664H718L709 620L648 600L410 273ZM334 737Q306
737 286 757T266 805Q266 834 286 854T334 875Q362 875 382 855T403 805Q403 777 383 757T334 737ZM571 737Q542 737 522 757T502 805Q502 834 522 854T571 875Q599 875 619 855T640 805Q640 777 620 757T571 737Z" />
<glyph unicode="&#x179;" glyph-name="Zacute" horiz-adv-x="626" d="M-9 45L456 606H222L145 461H100L142 671L225 664H660L657 649L170 59H432L533 222H577L512 -6L424 0H-15L-9 45ZM557 875V854L418 736H349L437 875H557Z" />
<glyph unicode="&#x17a;" glyph-name="zacute" horiz-adv-x="509" d="M530 461L186 146L284 107Q317 94 340 92T381 97T412 122T439 167L467 158Q454 119 440 86T406 30T360 -6T299 -19Q276 -19 252 -10T184 20L94 61L29 -14L-13 24L333 341L228 381Q180 399 152
399T117 385Q112 371 130 353T192 314Q166 282 147 266T106 249Q81 249 65 265T49 311Q49 329 61 361T95 424T151 478T225 501Q251 501 280 492T336 470L426 429L487 500L530 461ZM477 764V746L350 565H294L372 764H477Z" />
<glyph unicode="&#x17b;" glyph-name="Zdotaccent" horiz-adv-x="626" d="M332 823Q332 855 355 878T410 901Q442 901 465 878T488 823Q488 791 465 768T410 745Q378 745 355 768T332 823ZM-9 45L456 606H222L145 461H100L142 671L225 664H660L657 649L170 59H432L533
222H577L512 -6L424 0H-15L-9 45Z" />
<glyph unicode="&#x17c;" glyph-name="zdotaccent" horiz-adv-x="509" d="M271 657Q271 688 292 709T345 731Q375 731 397 710T419 657Q419 627 397 605T345 583Q314 583 293 605T271 657ZM530 461L186 146L284 107Q317 94 340 92T381 97T412 122T439 167L467
158Q454 119 440 86T406 30T360 -6T299 -19Q276 -19 252 -10T184 20L94 61L29 -14L-13 24L333 341L228 381Q180 399 152 399T117 385Q112 371 130 353T192 314Q166 282 147 266T106 249Q81 249 65 265T49 311Q49 329 61 361T95 424T151 478T225 501Q251 501 280
492T336 470L426 429L487 500L530 461Z" />
<glyph unicode="&#x17d;" glyph-name="Zcaron" horiz-adv-x="626" d="M568 871L443 736H350L279 871H338L407 803L502 871H568ZM-9 45L456 606H222L145 461H100L142 671L225 664H660L657 649L170 59H432L533 222H577L512 -6L424 0H-15L-9 45Z" />
<glyph unicode="&#x17e;" glyph-name="zcaron" horiz-adv-x="509" d="M499 764L365 565H285L230 764H282L342 654L443 764H499ZM530 461L186 146L284 107Q317 94 340 92T381 97T412 122T439 167L467 158Q454 119 440 86T406 30T360 -6T299 -19Q276 -19 252 -10T184
20L94 61L29 -14L-13 24L333 341L228 381Q180 399 152 399T117 385Q112 371 130 353T192 314Q166 282 147 266T106 249Q81 249 65 265T49 311Q49 329 61 361T95 424T151 478T225 501Q251 501 280 492T336 470L426 429L487 500L530 461Z" />
<glyph unicode="&#x192;" glyph-name="florin" horiz-adv-x="600" d="M75 322H217L225 359Q241 436 278 496T361 597T452 661T532 683Q576 683 593 662T610 616Q610 589 589 567T541 533Q527 568 512 592T472 617Q458 617 444 607T416 569T388 492T357 363L348
322H524L513 266H337L303 99Q288 25 265 -30T213 -125T155 -191T96 -232T44 -254T4 -260Q-30 -260 -52 -242T-75 -191Q-75 -166 -55 -146T-6 -118Q8 -152 24 -176T62 -200Q85 -200 103 -167T136 -61L205 266H67L75 322Z" />
<glyph unicode="&#x1fa;" glyph-name="Aringacute" horiz-adv-x="737" d="M-21 43L42 65L389 659L443 664L503 680L599 60L665 44L656 0H364L373 46L457 63L437 213H198L122 72L213 46L204 0H-29L-21 43ZM236 283H427L390 565H389L236 283ZM348 819Q348 844 357
865T383 901T421 926T468 935Q519 935 553 903T587 819Q587 794 578 773T552 736T515 711T468 702Q443 702 421 710T383 735T358 772T348 819ZM402 819Q402 788 421 769T468 750Q495 750 514 769T534 819Q534 849 515 868T468 887Q440 887 421 868T402 819ZM655
1101V1080L516 962H447L535 1101H655Z" />
<glyph unicode="&#x1fb;" glyph-name="aringacute" horiz-adv-x="575" d="M542 501L429 82L432 81Q461 92 485 114T529 166L552 154Q540 123 518 94T469 41T414 3T360 -12Q323 -12 308 14T312 105L339 190H334Q317 165 294 130T241 62T178 6T107 -17Q62 -17 38
11T14 82Q14 132 29 181T70 276T132 359T206 426T286 471T365 488Q382 488 398 484T429 471L438 501H542ZM174 82Q195 82 224 109T282 175T337 261T374 346L393 407Q369 442 338 442Q320 442 299 428T257 389T217 333T182 266T158 195T149 125Q149 105 154 94T174
82ZM278 671Q278 695 287 716T312 752T349 776T395 785Q445 785 478 753T512 671Q512 647 503 626T478 590T441 566T395 557Q345 557 312 589T278 671ZM330 671Q330 641 349 623T395 604Q421 604 440 622T460 671Q460 701 441 719T395 738Q368 738 349 720T330
671ZM587 970V949L448 831H379L467 970H587Z" />
<glyph unicode="&#x1fc;" glyph-name="AEacute" horiz-adv-x="985" d="M608 301L560 59H790L889 199H933L876 0H330L338 45L424 63L471 302H281L119 72L211 46L201 0H-46L-37 43L27 65L428 596L331 619L339 664H899L986 670L937 482H894L880 610H668L619 355H733L779
439H821L779 224L736 223L724 301H608ZM511 610L319 355H481L532 610H511ZM798 875V854L659 736H590L678 875H798Z" />
<glyph unicode="&#x1fd;" glyph-name="aeacute" horiz-adv-x="677" d="M390 -15Q346 -15 316 4T272 62Q238 31 200 8T118 -15Q97 -15 77 -9T40 10T14 43T4 90Q4 141 43 172T160 224L280 255L289 296Q293 327 291 353T281 398T259 428T225 439Q211 439 199 434T178
421Q176 413 173 396T166 361Q162 340 158 317Q149 315 136 313T112 310Q92 310 80 319T67 348Q67 370 85 395T132 443T197 480T269 499Q323 498 354 475T400 411H403Q439 457 486 477T575 498Q623 498 650 478T678 418Q678 378 654 348T588 295T495 256T387 227Q385
215 384 203T383 177Q382 74 454 74Q472 74 491 82T528 102T562 129T589 158L612 140Q601 119 580 92T531 41T466 1T390 -15ZM262 115Q260 161 272 217L206 196Q160 182 143 163T125 117Q125 90 141 73T182 55Q197 55 210 61T232 76T249 95T262 115ZM536 448Q518
448 498 434T458 395T423 337T396 265Q478 293 522 329T566 412Q566 432 558 440T536 448ZM584 764V746L457 565H401L479 764H584Z" />
<glyph unicode="&#x1fe;" glyph-name="Oslashacute" horiz-adv-x="758" d="M646 875V854L507 736H438L526 875H646ZM45 -50L132 60Q93 99 71 154T49 279Q49 352 77 424T159 553T287 646T458 682Q533 682 596 645L658 723H718L634 617Q680 578 707 519T734 384Q734
313 707 241T627 111T500 17T327 -20Q282 -20 242 -7T168 29L106 -50H45ZM584 443Q584 470 581 494T571 538L221 96Q254 31 335 31Q392 31 438 72T516 175T566 309T584 443ZM199 221Q199 201 200 184T204 151L549 585Q515 631 453 631Q404 631 359 598T278 507T221
376T199 221Z" />
<glyph unicode="&#x1ff;" glyph-name="oslashacute" horiz-adv-x="535" d="M487 764V746L360 565H304L382 764H487ZM17 -50L83 38Q58 64 44 99T29 178Q29 234 50 291T110 394T205 469T333 498Q375 498 413 476L460 538H513L447 451Q474 425 490 388T506 309Q506
252 485 194T425 90T330 14T203 -15Q156 -15 116 11L70 -50H17ZM210 25Q230 25 250 40T288 80T322 139T349 210T368 284T376 356L162 73Q174 25 210 25ZM320 458Q290 458 262 426T212 346T175 242T158 137L369 417Q363 435 352 446T320 458Z" />
<glyph unicode="&#x218;" glyph-name="Scommaaccent" horiz-adv-x="559" d="M99 227L124 68Q143 57 172 46T238 34Q295 34 331 64T368 150Q367 188 344 215T269 274L223 301Q194 318 174 335T139 371T119 414T112 468Q112 509 131 547T185 616T271 664T385 682Q436
682 477 671T550 651L506 461H458L450 600Q433 612 408 621T351 631Q326 631 305 623T268 602T243 570T234 532Q234 513 238 498T252 471T277 446T316 420L372 386Q403 366 427 348T467 310T493 265T502 210Q502 154 476 112T408 40T316 -4T218 -19Q185 -19 156
-14T102 -3T57 11T23 23L52 227H99ZM86 9Q145 30 167 49T189 92Q189 109 177 119T141 134Q148 164 168 181T219 198Q253 198 274 178T296 126Q296 101 281 79T240 38T178 4T98 -23L86 9Z" />
<glyph unicode="&#x219;" glyph-name="scommaaccent" horiz-adv-x="384" d="M332 158Q332 125 312 93T261 37T191 -3T115 -18Q92 -18 70 -11T31 9T4 39T-7 74Q-7 97 1 115T26 155H30Q72 110 111 79T189 48Q209 48 221 58T233 88Q233 105 221 123T185 164L136 213Q105
244 88 269T71 323Q71 359 93 391T149 448T219 486T287 501Q304 501 321 496T352 481T374 458T383 428Q383 405 375 384T354 345H349Q314 377 280 402T209 427Q190 427 179 417T168 390Q168 373 178 360T211 324L267 268Q305 230 318 207T332 158ZM224 9Q283 30
305 49T327 92Q327 109 315 119T279 134Q286 164 306 181T357 198Q391 198 412 178T434 126Q434 101 419 79T378 38T316 4T236 -23L224 9Z" />
<glyph unicode="&#x21a;" glyph-name="uni021A" horiz-adv-x="689" d="M635 664L718 671L675 476H632L616 610H477L369 63L459 45L451 0H123L132 45L231 63L338 610H204L134 476H92L126 671L204 664H635ZM144 9Q203 30 225 49T247 92Q247 109 235 119T199 134Q206
164 226 181T277 198Q311 198 332 178T354 126Q354 101 339 79T298 38T236 4T156 -23L144 9Z" />
<glyph unicode="&#x21b;" glyph-name="uni021B" horiz-adv-x="381" d="M52 478H143L194 599H286L260 478H385L377 423H251L170 90L174 87Q196 96 217 110T256 141T290 175T317 210L340 196Q326 166 299 129T238 60T168 7T99 -15Q83 -15 70 -8T49 13T38 45T40 86L124
423H44L52 478ZM215 9Q274 30 296 49T318 92Q318 109 306 119T270 134Q277 164 297 181T348 198Q382 198 403 178T425 126Q425 101 410 79T369 38T307 4T227 -23L215 9Z" />
<glyph unicode="&#x237;" glyph-name="uni0237" horiz-adv-x="298" d="M139 399L58 418L61 435Q84 453 109 467Q130 479 156 489T208 499Q246 499 261 473T260 381L183 67Q166 -4 137 -64T71 -167T-8 -235T-92 -260Q-109 -260 -126 -255T-156 -241T-178 -217T-187
-185Q-187 -161 -167 -142T-119 -115Q-108 -150 -90 -175T-48 -200Q-34 -200 -23 -186T-1 -146T19 -85T39 -10L139 399Z" />
<glyph unicode="&#x2c6;" glyph-name="circumflex" horiz-adv-x="400" d="M95 565L229 764H309L364 565H312L251 674L151 565H95Z" />
<glyph unicode="&#x2c7;" glyph-name="caron" horiz-adv-x="400" d="M386 764L252 565H172L117 764H169L229 654L330 764H386Z" />
<glyph unicode="&#x2d8;" glyph-name="breve" horiz-adv-x="400" d="M224 566Q193 566 172 578T137 612T118 664T115 729H164Q173 646 237 646Q272 646 294 671T331 729H378Q370 696 357 666T326 614T282 579T224 566Z" />
<glyph unicode="&#x2d9;" glyph-name="dotaccent" horiz-adv-x="400" d="M163 657Q163 688 184 709T237 731Q267 731 289 710T311 657Q311 627 289 605T237 583Q206 583 185 605T163 657Z" />
<glyph unicode="&#x2da;" glyph-name="ring" horiz-adv-x="400" d="M123 674Q123 698 132 719T157 755T194 779T240 788Q290 788 323 756T357 674Q357 650 348 629T323 593T286 569T240 560Q190 560 157 592T123 674ZM175 674Q175 644 194 626T240 607Q266 607
285 625T305 674Q305 704 286 722T240 741Q213 741 194 723T175 674Z" />
<glyph unicode="&#x2db;" glyph-name="ogonek" horiz-adv-x="456" d="M350 30Q310 -5 284 -28T243 -69T221 -101T214 -131Q214 -153 228 -164T262 -176Q288 -176 308 -165T357 -129L376 -150Q361 -170 346 -189T312 -224T271 -249T220 -259Q171 -259 144 -234T117
-171Q117 -143 129 -120T164 -75T224 -28T308 30H350Z" />
<glyph unicode="&#x2dc;" glyph-name="tilde" horiz-adv-x="400" d="M202 618Q173 629 155 633T125 634T103 619T83 586L49 603L55 616Q74 658 94 682T136 715T182 721T237 706L263 696Q294 684 314 680T347 678T371 695T395 731L430 714L421 697Q398 653 377
629T334 596T287 590T228 608L202 618Z" />
<glyph unicode="&#x2dd;" glyph-name="hungarumlaut" horiz-adv-x="400" d="M261 764V746L143 565H92L166 764H261ZM421 764V746L303 565H253L326 764H421Z" />
</font>
</defs>
</svg>
