<?xml version="1.0" standalone="no"?> <!DOCTYPE svg PUBLIC "-//W3C//DTD SVG 1.0//EN" "http://www.w3.org/TR/2001/REC-SVG-20010904/DTD/svg10.dtd" > <svg xmlns="http://www.w3.org/2000/svg" width="100%" height="100%">
<defs >
<font horiz-adv-x="535" ><font-face
    font-family=""
    units-per-em="1000"
    panose-1="2 0 5 3 7 0 0 9 0 4"
    ascent="760"
    descent="-240"
    alphabetic="0" />
<missing-glyph horiz-adv-x="192" />
<glyph unicode=" " glyph-name="space" horiz-adv-x="192" />
<glyph unicode="!" glyph-name="exclam" horiz-adv-x="290" d="M281 695L156 193H111L183 695H281ZM110 -4Q85 -4 67 14T49 57Q49 82 67 100T110 118Q135 118 153 100T171 57Q171 32 153 14T110 -4Z" />
<glyph unicode="&quot;" glyph-name="quotedbl" horiz-adv-x="393" d="M148 793H260L154 505H125L148 793ZM331 793H443L337 505H308L331 793Z" />
<glyph unicode="#" glyph-name="numbersign" horiz-adv-x="600" d="M129 481H236L294 634H350L293 481H437L495 634H551L494 481H599L587 423H472L407 249H509L497 191H385L329 40H273L329 191H185L129 40H72L128 191H27L39 249H150L215 423H117L129 481ZM206
249H351L416 423H271L206 249Z" />
<glyph unicode="$" glyph-name="dollar" horiz-adv-x="600" d="M104 210L128 64Q133 60 143 54T167 42T201 31T243 25L297 302L269 318Q242 333 220 349T181 384T156 427T148 481Q149 517 165 549T211 608T281 651T370 673L392 784H432L410 675Q457 674 490 665T550
648L520 471H490L464 598Q449 612 435 620T402 633L352 380Q391 359 420 339T468 297T496 249T505 190Q504 150 485 116T433 55T360 11T274 -13L252 -125H213L234 -17H225Q176 -17 129 -3T45 23L69 210H104ZM410 160Q411 196 394 224T332 281L282 27Q305 30 327
39T368 65T397 104T410 160ZM233 526Q233 506 236 490T248 459T273 431T317 401L363 636Q334 635 310 626T270 601T244 566T233 526Z" />
<glyph unicode="%" glyph-name="percent" horiz-adv-x="900" d="M721 679H785L143 -50H79L721 679ZM290 635Q266 635 244 620T204 579T176 518T166 444Q166 402 184 376T235 349Q258 349 280 363T319 402T348 462T359 539Q359 581 341 608T290 635ZM231 310Q199
310 174 321T130 353T102 401T92 460Q92 501 109 539T154 608T218 656T295 674Q326 674 351 663T395 631T423 583T433 524Q433 482 417 444T373 376T308 328T231 310ZM661 308Q637 308 615 293T575 252T547 191T537 117Q537 75 555 49T606 22Q629 22 651 36T690
75T719 135T730 212Q730 254 712 281T661 308ZM602 -17Q570 -17 545 -6T501 26T473 74T463 133Q463 174 480 212T525 281T589 329T666 347Q697 347 722 336T766 304T794 256T804 197Q804 155 788 117T744 49T679 1T602 -17Z" />
<glyph unicode="&amp;" glyph-name="ampersand" horiz-adv-x="1010" d="M165 176Q192 117 248 84T379 51Q448 51 506 83T607 169T677 294T712 444Q689 458 668 469T620 481Q603 481 591 475T571 460T560 439T556 418Q556 401 562 389T579 367T600 350T620 336Q604
318 590 305T556 292Q550 292 542 295T527 306T514 331T508 374Q508 398 519 429T551 488T605 534T682 551Q717 549 744 535T795 506Q824 487 843 475T875 456T896 447T914 444Q930 443 936 454T944 487Q945 513 936 541T918 587Q927 592 936 594T956 596Q986 595
998 576T1010 538Q1010 506 997 477T961 425T912 391T857 379Q828 380 803 392T746 424Q738 328 707 245T625 100T505 3T353 -33Q288 -33 237 -14T151 40T98 123T79 231Q79 291 98 348T151 451T227 523T317 550Q333 550 351 543T386 518Q428 578 454 616T494 677Q511
703 518 717H534L564 687L165 176ZM142 286Q142 244 152 211L315 421Q318 431 317 442T310 464T293 480T265 487Q247 487 226 476T186 441T155 379T142 286Z" />
<glyph unicode="&apos;" glyph-name="quotesingle" horiz-adv-x="210" d="M148 793H260L154 505H125L148 793Z" />
<glyph unicode="(" glyph-name="parenleft" horiz-adv-x="300" d="M197 -180Q164 -134 141 -82T105 30T92 155T106 295Q118 354 142 412T201 525T280 633T375 732H430Q380 679 341 628T271 523T219 411T184 285Q170 212 167 150T172 33T199 -75T246 -180H197Z" />
<glyph unicode=")" glyph-name="parenright" horiz-adv-x="300" d="M124 732Q157 685 180 633T216 522T229 397T215 257Q203 198 179 140T120 27T41 -81T-54 -180H-109Q-60 -127 -20 -76T50 29T101 141T137 267Q151 340 154 402T149 519T122 627T75 732H124Z" />
<glyph unicode="*" glyph-name="asterisk" horiz-adv-x="394" d="M283 507L298 377L273 371L228 495L108 440L95 461L199 542L111 638L126 656L235 585L300 698L321 690L287 564L414 539L413 515L283 507Z" />
<glyph unicode="+" glyph-name="plus" horiz-adv-x="600" d="M329 268V60H267V268H61V326H267V534H329V326H535V268H329Z" />
<glyph unicode="," glyph-name="comma" horiz-adv-x="300" d="M7 -159Q38 -146 60 -128T96 -90T117 -49T124 -10Q124 47 66 74Q66 88 69 102T81 128T101 147T132 154Q164 154 187 129T211 52Q211 14 196 -23T156 -93T96 -151T21 -188Q17 -181 14 -175Q12 -170
10 -166T7 -159Z" />
<glyph unicode="-" glyph-name="hyphen" horiz-adv-x="343" d="M56 307H308L293 230H40L56 307Z" />
<glyph unicode="." glyph-name="period" horiz-adv-x="300" d="M149 -4Q121 -4 101 16T80 66Q80 94 100 114T149 135Q178 135 198 115T219 66Q219 37 199 17T149 -4Z" />
<glyph unicode="/" glyph-name="slash" horiz-adv-x="486" d="M-81 -180L485 745L531 722L-34 -203L-81 -180Z" />
<glyph unicode="0" glyph-name="zero" horiz-adv-x="600" d="M370 678Q417 678 452 658T510 601T545 514T557 404Q557 339 537 266T478 129T378 25T238 -17Q190 -17 155 3T96 59T61 143T49 249Q49 294 58 343T84 439T129 530T191 606T271 658T370 678ZM249 23Q297
23 335 63T401 166T442 304T457 447Q457 486 454 520T441 581T411 622T357 637Q324 637 296 619T244 568T203 494T173 405T155 309T149 214Q149 175 152 141T165 80T196 39T249 23Z" />
<glyph unicode="1" glyph-name="one" horiz-adv-x="600" d="M315 62L471 44L462 0H41L50 44L225 61L328 581H146L153 618L431 682H436L315 62Z" />
<glyph unicode="2" glyph-name="two" horiz-adv-x="600" d="M137 82H469L453 0H28L38 52L98 105Q171 169 229 222T327 320T389 404T411 481Q411 538 380 568T300 599Q262 599 230 577T166 521L135 551Q153 577 174 600T220 640T273 668T335 679Q377 679 409 667T462
634T495 585T506 523Q506 478 493 442T448 368T367 283T242 173L137 82Z" />
<glyph unicode="3" glyph-name="three" horiz-adv-x="600" d="M314 370Q344 364 373 351T426 318T463 272T477 212Q477 163 450 122T382 50T293 2T204 -16Q169 -16 140 -10T90 5T57 28T45 56Q45 93 95 127Q122 73 157 52T240 30Q268 30 294 40T341 69T374 116T387
178Q387 215 368 242T318 286T251 311T182 320L192 362Q259 395 301 418T368 461T400 498T409 538Q409 568 386 586T323 604Q274 604 237 583T165 526L141 550Q189 613 241 646T350 679Q392 679 421 669T467 642T493 605T501 563Q501 530 488 505T450 459T391 418T314
375V370Z" />
<glyph unicode="4" glyph-name="four" horiz-adv-x="600" d="M291 56L315 182H21L26 215L461 669L495 664L413 248H536L525 182H400L376 56L453 32L447 0H199L205 33L291 56ZM328 248L384 534L109 248H328Z" />
<glyph unicode="5" glyph-name="five" horiz-adv-x="600" d="M518 580H252L202 383Q216 391 240 397T298 403Q331 403 365 393T427 360T472 305T490 226Q490 172 464 127T398 51T308 2T211 -16Q196 -16 171 -14T123 -4T83 18T66 57Q66 95 113 127Q129 97 146 79T183
50T221 36T261 32Q286 32 311 41T358 69T392 117T406 186Q406 224 392 250T356 292T311 316T265 323Q221 323 196 312T150 288H131L225 664H535L518 580Z" />
<glyph unicode="6" glyph-name="six" horiz-adv-x="600" d="M577 646Q513 629 455 601T349 533T262 447T200 346H201Q238 382 277 397T352 413Q382 413 410 401T460 367T496 314T510 242Q510 196 496 150T452 66T374 4T259 -20Q219 -20 185 -5T126 38T87 106T72
196Q72 293 115 375T228 521T388 625T571 683L577 646ZM317 367Q286 367 253 350T182 296Q174 269 170 242T166 185Q166 96 195 58T271 20Q304 20 331 35T376 79T405 147T416 235Q416 260 410 284T392 326T362 356T317 367Z" />
<glyph unicode="7" glyph-name="seven" horiz-adv-x="600" d="M106 0L494 576H117L134 664H592L589 651L194 0H106Z" />
<glyph unicode="8" glyph-name="eight" horiz-adv-x="600" d="M64 121Q64 164 81 197T125 255T185 300T250 335L234 352Q201 385 182 417T162 497Q162 529 179 561T224 620T290 662T368 679Q446 679 493 642T540 538Q540 505 524 477T484 425T429 382T370 347L392
326Q409 308 425 291T453 256T472 218T480 172Q480 131 460 96T407 35T335 -5T259 -20Q167 -20 116 19T64 121ZM274 311Q214 273 184 232T153 136Q153 116 160 96T181 58T216 31T266 20Q298 20 322 30T361 57T384 94T392 132Q392 155 384 176T362 216T331 252T297
288L274 311ZM245 525Q245 506 250 491T264 461T286 431T317 398L345 371Q390 401 421 442T453 542Q453 590 428 614T359 638Q342 638 322 632T285 611T257 576T245 525Z" />
<glyph unicode="9" glyph-name="nine" horiz-adv-x="600" d="M34 19Q94 35 149 61T252 123T336 202T399 296H398Q368 271 335 256T267 241Q233 241 203 252T151 288T115 348T102 435Q102 476 117 520T164 601T243 661T353 685Q391 685 425 670T484 627T523 559T538
468Q538 400 517 340T460 230T374 138T270 65T156 13T41 -18L34 19ZM303 289Q330 289 362 304T423 351Q445 415 445 480Q445 515 440 545T422 598T390 634T342 647Q312 647 286 631T239 586T208 517T196 428Q196 399 202 374T222 330T255 300T303 289Z" />
<glyph unicode=":" glyph-name="colon" horiz-adv-x="300" d="M127 -4Q99 -4 79 16T58 66Q58 94 78 114T127 135Q156 135 176 115T197 66Q197 37 177 17T127 -4ZM192 331Q164 331 144 351T123 401Q123 429 143 449T192 470Q221 470 241 450T262 401Q262 372 242
352T192 331Z" />
<glyph unicode=";" glyph-name="semicolon" horiz-adv-x="300" d="M-2 -159Q29 -146 51 -128T87 -90T108 -49T115 -10Q115 47 57 74Q57 88 60 102T72 128T92 147T123 154Q155 154 178 129T202 52Q202 14 187 -23T147 -93T87 -151T12 -188Q8 -181 5 -175Q3 -170
1 -166T-2 -159ZM190 331Q162 331 142 351T121 401Q121 429 141 449T190 470Q219 470 239 450T260 401Q260 372 240 352T190 331Z" />
<glyph unicode="&lt;" glyph-name="less" horiz-adv-x="600" d="M134 295L534 115V46L62 266V325L534 545V478L134 295Z" />
<glyph unicode="=" glyph-name="equal" horiz-adv-x="600" d="M61 408H535V353H61V408ZM61 262H535V207H61V262Z" />
<glyph unicode="&gt;" glyph-name="greater" horiz-adv-x="600" d="M462 296L62 476V545L534 325V266L62 46V113L462 296Z" />
<glyph unicode="?" glyph-name="question" horiz-adv-x="399" d="M170 688L202 677Q234 666 268 645T330 593T376 524T394 439Q394 380 367 346T289 301L183 282L155 193H109L140 362L266 381Q311 388 328 406T346 454Q346 475 333 493T298 527T245 554T179 578L156
585L170 688ZM110 -4Q85 -4 67 14T49 57Q49 82 67 100T110 118Q135 118 153 100T171 57Q171 32 153 14T110 -4Z" />
<glyph unicode="@" glyph-name="at" horiz-adv-x="926" d="M543 191H537Q529 181 518 163T493 125Q479 105 463 84T428 46T388 19T344 8Q302 8 282 33T261 95Q260 139 274 183T313 269T370 345T436 406T505 446T570 461Q594 461 612 454T641 437L650 473H709L612
153Q603 123 602 102T604 68T618 50T639 44Q666 44 700 63T764 119T814 208T835 324Q835 386 813 440T750 533T654 596T532 619Q452 619 382 587T258 497T174 361T143 191Q143 112 168 51T239 -51T346 -114T481 -136Q539 -136 572 -130T624 -118V-143Q599 -153
568 -160Q542 -166 507 -171T434 -176Q348 -176 280 -150T164 -77T91 33T65 172Q65 275 107 363T218 517T374 619T550 656Q634 656 699 630T807 559T873 456T896 335Q896 263 870 203T802 100T711 32T615 8Q588 8 567 16T534 42T521 87T530 150L543 191ZM387 77Q401
77 420 93T460 134T503 190T543 251T575 308T594 351L605 386Q592 402 577 412T541 422Q509 422 476 394T416 321T372 225T355 124Q355 104 362 91T387 77Z" />
<glyph unicode="A" glyph-name="A" horiz-adv-x="674" d="M-35 32L23 55L376 664L409 669L444 679L535 52L597 32L591 0H352L359 33L444 56L418 236H186L92 60L181 33L174 0H-41L-35 32ZM218 296H410L370 579H369L218 296Z" />
<glyph unicode="B" glyph-name="B" horiz-adv-x="602" d="M-4 0L3 33L87 56L195 606L120 632L126 664L340 665Q401 665 444 654T515 622T554 576T567 522Q567 488 550 460T505 409T440 373T366 355V353Q400 348 434 337T495 307T538 260T555 194Q555 145 532 108T468
46T368 9T238 -3L-4 0ZM455 183Q455 226 436 255T386 301T316 327T234 336L181 67Q204 50 230 44T282 37Q313 37 344 45T400 70T440 115T455 183ZM242 373H319Q386 380 428 415T470 513Q470 578 422 604T293 628L242 373Z" />
<glyph unicode="C" glyph-name="C" horiz-adv-x="705" d="M361 -17Q298 -17 243 1T146 57T80 153T56 290Q56 357 83 426T165 552T300 643T485 679Q543 679 585 664T668 626L651 448H616L588 593Q568 610 538 623T461 636Q393 636 339 604T246 521T187 407T166
283Q167 151 224 89T374 26Q416 26 445 35T497 57L596 210H632L578 30Q559 24 537 16T488 1T430 -12T361 -17Z" />
<glyph unicode="D" glyph-name="D" horiz-adv-x="743" d="M200 118Q195 93 201 77T219 53T250 41T290 38Q376 39 438 68T540 143T599 249T619 372Q619 436 597 484T533 565T432 613T301 629L200 118ZM12 33L96 56L204 606L129 632L135 664L341 666Q430 667 500
648T619 591T694 497T720 369Q720 285 685 216T591 98T454 23T290 -3L5 0L12 33Z" />
<glyph unicode="E" glyph-name="E" horiz-adv-x="603" d="M231 321L178 47H420L508 179H544L498 0H-4L2 33L88 56L196 605L120 632L126 664H525L599 668L556 491H522L513 619H290L241 367H374L419 449H449L408 245H375L365 321H231Z" />
<glyph unicode="F" glyph-name="F" horiz-adv-x="582" d="M231 319L179 56L272 37L265 0H-4L2 33L87 56L195 605L120 632L126 664H524L600 668L560 491H526L516 619H289L239 365H379L421 447H452L409 229H379L370 319H231Z" />
<glyph unicode="G" glyph-name="G" horiz-adv-x="706" d="M374 26Q393 26 413 30T450 44T480 73T498 118L522 242L437 262L443 291H677L670 258L614 242L574 39Q557 33 537 24T492 5T435 -10T361 -17Q298 -17 243 1T146 57T80 153T56 291Q56 361 85 430T170 555T304
645T482 679Q541 679 583 664T664 627L647 454H612L583 595Q562 611 531 623T456 636Q389 636 335 604T243 521T184 407T163 283Q163 217 179 169T222 89T288 42T374 26Z" />
<glyph unicode="H" glyph-name="H" horiz-adv-x="763" d="M408 33L494 56L546 323H231L179 56L255 32L249 0H-4L3 33L86 56L195 606L120 632L126 664H380L375 632L287 606L240 370H555L602 606L527 632L533 664H787L781 632L695 606L586 56L662 32L656 0H402L408 33Z" />
<glyph unicode="I" glyph-name="I" horiz-adv-x="355" d="M3 33L86 56L195 606L120 632L126 664H379L373 632L287 606L178 56L254 32L248 0H-4L3 33Z" />
<glyph unicode="J" glyph-name="J" horiz-adv-x="346" d="M203 51Q191 -9 172 -56T121 -137T46 -191T-58 -218L-63 -187Q-18 -170 11 -149T58 -100T88 -39T108 39L221 607L135 628L142 664H404L398 632L312 606L203 51Z" />
<glyph unicode="K" glyph-name="K" horiz-adv-x="660" d="M2 33L87 56L195 606L120 632L126 664H380L374 632L288 606L179 56L255 32L249 0H-4L2 33ZM608 -10Q566 -10 536 -5T481 14T436 53T390 117T334 212T258 345L259 354L296 371L554 613L479 632L485 664H701L696
632L619 610L348 366Q412 262 451 198T517 98T565 45T617 22L608 -10Z" />
<glyph unicode="L" glyph-name="L" horiz-adv-x="584" d="M391 47L484 199H519L466 0H-4L3 33L86 56L195 605L120 632L126 664H397L391 632L288 606L179 47H391Z" />
<glyph unicode="M" glyph-name="M" horiz-adv-x="881" d="M-19 33L64 56L203 606L129 632L135 664H324L422 178L698 664H891L885 632L799 606L720 56L796 32L790 0H533L540 33L628 56L709 589L421 87L393 34H357L350 87L244 583L118 60L216 33L209 0H-26L-19 33Z" />
<glyph unicode="N" glyph-name="N" horiz-adv-x="742" d="M536 -11L236 546L141 63L252 33L245 0H-4L2 33L86 56L193 596L111 632L116 664H280L546 168L631 601L519 631L526 664H776L769 631L684 606L592 136L571 -11H536Z" />
<glyph unicode="O" glyph-name="O" horiz-adv-x="737" d="M459 679Q508 679 553 660T633 604T689 515T710 397Q710 323 683 249T603 114T475 17T304 -21Q256 -21 211 -2T130 54T74 143T53 262Q53 334 79 408T156 542T283 640T459 679ZM610 416Q610 462 600 502T569
572T516 618T440 635Q386 635 335 603T243 517T178 392T153 241Q153 195 163 156T193 87T245 40T321 23Q388 23 441 61T532 158T590 286T610 416Z" />
<glyph unicode="P" glyph-name="P" horiz-adv-x="577" d="M282 335Q317 336 353 343T419 369T467 417T486 495Q486 525 476 550T442 593T383 620T294 628L179 56L294 33L288 0H-4L1 33L87 56L195 606L119 632L125 664H371Q414 662 454 652T524 622T573 570T592
495Q592 442 563 405T489 343T386 309T273 300L282 335Z" />
<glyph unicode="Q" glyph-name="Q" horiz-adv-x="736" d="M459 679Q508 679 553 660T633 604T689 515T710 397Q710 331 687 264T619 139T511 42T367 -11Q408 -45 442 -72T511 -119T586 -150T679 -161Q749 -161 847 -101L861 -123Q844 -137 822 -155T771 -190T710
-217T639 -228Q581 -228 530 -211T431 -163T335 -92T235 -3Q198 9 165 33T107 90T68 167T53 262Q53 334 79 408T156 542T283 640T459 679ZM610 416Q610 462 600 502T569 572T516 618T440 635Q386 635 335 603T243 517T178 392T153 241Q153 195 163 156T193 87T245
40T321 23Q388 23 441 61T532 158T590 286T610 416Z" />
<glyph unicode="R" glyph-name="R" horiz-adv-x="659" d="M2 33L87 56L195 606L120 632L127 664H363Q412 664 453 654T524 625T570 579T587 517Q587 472 568 440T520 387T455 353T388 334Q436 242 468 184T524 91T569 42T620 21L612 -9Q570 -9 541 -4T489 14T447
51T407 110T361 196T302 314H230L179 56L283 30L278 0H-4L2 33ZM237 352Q299 350 345 360T421 391T466 440T481 504Q481 562 437 597T292 629L237 352Z" />
<glyph unicode="S" glyph-name="S" horiz-adv-x="517" d="M78 218L97 62Q123 47 150 35T219 23Q248 23 275 30T322 55T355 98T369 163Q369 183 364 200T346 233T313 266T262 302L231 321Q176 355 145 392T114 487Q114 527 132 562T183 623T258 664T351 679Q397
679 439 670T510 654L465 470H426V609Q406 623 382 631T323 640Q296 640 273 631T234 606T208 570T198 529Q198 511 201 496T213 466T238 438T280 406L314 384Q351 360 378 340T424 298T452 252T461 198Q461 150 440 111T382 43T300 -1T203 -17Q174 -17 147 -13T94
-3T49 9T13 21L40 218H78Z" />
<glyph unicode="T" glyph-name="T" horiz-adv-x="647" d="M605 664L670 672L629 491H595L584 619H426L316 56L400 33L393 0H122L129 33L224 56L334 619H187L125 491H91L121 672L183 664H605Z" />
<glyph unicode="U" glyph-name="U" horiz-adv-x="720" d="M314 -24Q257 -24 211 -8T136 45T98 140T104 280L170 606L94 632L100 664H357L351 632L265 606L196 259Q174 149 214 91T337 33Q372 33 406 44T470 84T523 160T559 280L617 604L509 632L515 664H765L759
632L674 606L611 270Q597 196 568 141T500 49T413 -6T314 -24Z" />
<glyph unicode="V" glyph-name="V" horiz-adv-x="641" d="M126 609L69 632L75 664H316L310 632L224 606L303 118H304L568 606L464 630L471 664H701L695 632L632 611L277 -12H237L126 609Z" />
<glyph unicode="W" glyph-name="W" horiz-adv-x="921" d="M491 462L242 -7H188L127 609L69 632L76 664H318L311 632L224 606L263 121L482 540L474 606L397 632L404 664H660L653 630L569 606L622 124L846 605L743 630L749 664H981L974 632L910 611L605 -7H550L491 462Z" />
<glyph unicode="X" glyph-name="X" horiz-adv-x="733" d="M3 33L76 55L338 335L213 606L147 632L153 664H412L406 632L319 606L411 401H413L582 597L502 630L509 664H739L733 632L657 606L430 360L569 56L632 33L625 0H372L379 33L463 56L357 295H355L151 58L227
33L220 0H-4L3 33Z" />
<glyph unicode="Y" glyph-name="Y" horiz-adv-x="627" d="M365 266L323 56L409 33L402 0H130L137 33L231 56L270 253L143 610L88 632L94 664H335L329 632L241 611L340 308H343L555 606L470 632L477 664H683L677 632L619 610L365 266Z" />
<glyph unicode="Z" glyph-name="Z" horiz-adv-x="598" d="M-15 25L490 618H218L141 479H107L150 670L220 664H631V654L116 47H408L501 199H536L476 -5L403 0H-15V25Z" />
<glyph unicode="[" glyph-name="bracketleft" horiz-adv-x="300" d="M23 -181L204 733H377L370 694H275L110 -142H205L197 -181H23Z" />
<glyph unicode="\" glyph-name="backslash" horiz-adv-x="469" d="M332 -201L130 726L180 737L380 -191L332 -201Z" />
<glyph unicode="]" glyph-name="bracketright" horiz-adv-x="300" d="M297 733L116 -181H-56L-48 -142H47L212 694H116L124 733H297Z" />
<glyph unicode="^" glyph-name="asciicircum" horiz-adv-x="420" d="M66 468L262 756H321L411 468H367L280 693L113 468H66Z" />
<glyph unicode="_" glyph-name="underscore" horiz-adv-x="408" d="M-58 -146H321L310 -205H-70L-58 -146Z" />
<glyph unicode="`" glyph-name="grave" horiz-adv-x="400" d="M215 756L256 551H212L143 737V756H215Z" />
<glyph unicode="a" glyph-name="a" horiz-adv-x="536" d="M489 491L375 62L378 61Q411 71 440 100T486 159L506 153Q495 121 475 92T433 39T388 3T348 -11Q313 -11 300 16T306 102L336 205H333Q315 181 292 144T240 72T177 11T106 -14Q68 -14 47 13T25 80Q24 126
38 173T76 265T133 347T202 414T275 459T348 476Q370 476 388 471T419 457L428 491H489ZM153 61Q169 61 190 77T233 119T279 178T321 244T355 307T377 358L389 396Q375 413 358 424T320 436Q291 436 257 407T192 332T141 227T120 112Q120 90 127 76T153 61Z" />
<glyph unicode="b" glyph-name="b" horiz-adv-x="506" d="M182 -15Q144 -15 110 0T43 51L34 61L182 673L123 697L130 719L280 746L169 294H174Q191 327 214 360T265 422T322 467T382 485Q425 485 450 452T475 361Q475 325 465 283T435 199T389 119T330 50T260
3T182 -15ZM120 81Q123 72 129 61T144 41T166 25T194 19Q228 19 261 51T322 132T365 238T382 346Q382 367 378 380T366 400T351 410T336 413Q316 413 295 399T253 362T213 308T178 247T151 186T133 133L120 81Z" />
<glyph unicode="c" glyph-name="c" horiz-adv-x="412" d="M263 429Q237 429 213 400T170 329T140 239T129 152Q129 97 147 75T194 52Q209 52 229 61T271 85T313 120T350 163L368 151Q357 130 335 102T285 48T223 4T158 -14Q130 -14 108 -3T69 27T45 72T36 128Q36
164 45 204T73 284T122 361T193 428Q206 438 222 448T256 466T290 480T320 485Q358 485 386 470T414 435Q414 423 410 411T401 390T392 374T386 367Q373 376 358 387T326 407T294 422T263 429Z" />
<glyph unicode="d" glyph-name="d" horiz-adv-x="555" d="M322 485Q345 485 366 478T404 462L456 673L397 697L404 719L551 746L388 62L391 61Q424 71 453 99T500 159L520 153Q510 124 491 95T448 42T400 4T358 -11Q323 -11 312 15T317 102L341 194H338Q321 174
300 139T251 70T193 11T125 -14Q83 -14 57 14T31 102Q31 166 54 233T116 357T209 449T322 485ZM388 396Q376 417 354 435T311 453Q287 453 264 438T221 398T184 340T154 272T135 201T128 135Q128 87 139 73T166 58Q189 58 221 90T286 168T344 267T380 361L388 396Z"
/>
<glyph unicode="e" glyph-name="e" horiz-adv-x="404" d="M155 -11Q123 -11 100 1T63 34T41 80T34 133Q34 182 45 224T75 304T121 371T178 425Q208 449 245 467T315 485Q360 485 379 466T398 415Q398 382 377 352T318 297T232 255T126 230Q124 216 123 201T121
171Q121 115 137 85T189 54Q207 54 224 61T258 79T289 105T313 134L333 122Q326 106 310 84T271 40T219 4T155 -11ZM291 448Q271 448 249 433T204 393T163 333T133 258Q164 262 196 277T254 315T298 365T315 418Q315 432 309 440T291 448Z" />
<glyph unicode="f" glyph-name="f" horiz-adv-x="311" d="M63 459H154Q171 521 200 573T262 664T327 724T386 746Q421 746 436 732T451 703Q451 683 438 669T416 645Q396 668 382 680T350 692Q338 692 327 686T302 655T273 585T239 459H369L359 415H229L223 384L146
15Q127 -75 97 -129T34 -213T-28 -251T-75 -260Q-84 -260 -95 -257T-117 -246T-134 -228T-141 -203Q-141 -189 -134 -175T-116 -153Q-106 -162 -95 -172T-72 -191T-49 -205T-26 -211Q2 -211 17 -172T47 -61L143 415H57L63 459Z" />
<glyph unicode="g" glyph-name="g" horiz-adv-x="420" d="M263 484Q281 484 297 482T335 474L459 479L446 412L354 436V433Q361 425 370 405T379 358Q379 319 363 278T318 204T250 149T164 128Q160 128 156 128T148 129Q132 117 127 108T121 89Q121 76 129 68T156
50L311 -27Q351 -47 365 -68T381 -113Q381 -141 362 -167T308 -214T225 -247T119 -260Q73 -260 36 -253T-28 -232T-69 -201T-84 -161Q-84 -137 -67 -118T-22 -83T44 -54T123 -31V-29L114 -25Q92 -14 73 3T53 49Q53 65 60 78T77 103T98 122T119 135V137Q84 151 65
183T44 254Q44 292 58 333T100 407T169 462T263 484ZM160 -47Q124 -57 96 -66T47 -85T17 -109T6 -139Q6 -157 18 -172T51 -197T103 -214T168 -221Q201 -221 226 -215T269 -199T295 -176T304 -150Q305 -134 291 -119T229 -80L160 -47ZM253 452Q228 452 205 431T163
377T135 305T124 230Q124 201 134 181T168 160Q194 159 218 181T260 237T289 310T300 385Q300 412 289 432T253 452Z" />
<glyph unicode="h" glyph-name="h" horiz-adv-x="532" d="M161 261H165Q189 299 217 338T277 410T343 463T412 484Q445 484 458 460T457 378L378 62L381 61Q414 71 442 99T489 159L509 153Q499 124 480 95T437 42T390 4T348 -11Q313 -11 301 15T301 91L376 371Q381
388 377 399T357 411Q337 411 313 394T265 347T216 281T172 203T137 124T116 52L107 7L32 -14L19 -1L182 673L123 697L130 719L280 746L161 261Z" />
<glyph unicode="i" glyph-name="i" horiz-adv-x="293" d="M50 415V420Q67 438 86 452Q103 464 124 474T171 485Q200 485 211 461T210 381L136 62L139 61Q172 71 201 99T248 159L268 153Q258 124 239 95T196 42T148 4T106 -11Q72 -11 60 15T60 90L135 396L50 415ZM170
680Q170 702 185 717T223 733Q245 733 260 718T276 680Q276 658 261 643T223 627Q201 627 186 642T170 680Z" />
<glyph unicode="j" glyph-name="j" horiz-adv-x="261" d="M147 396L61 415V420Q78 438 96 452Q112 464 132 474T176 485Q209 485 223 460T222 373L136 14Q122 -45 99 -95T46 -182T-17 -239T-85 -260Q-94 -260 -106 -257T-128 -247T-146 -231T-153 -207Q-153 -190
-145 -175T-126 -153Q-117 -162 -106 -172T-84 -191T-61 -205T-38 -211Q-10 -211 5 -173T39 -61L147 396ZM182 680Q182 702 197 717T235 733Q257 733 272 718T288 680Q288 658 273 643T235 627Q213 627 198 642T182 680Z" />
<glyph unicode="k" glyph-name="k" horiz-adv-x="479" d="M401 -40Q383 -40 370 -37T345 -27T321 -9T292 20L144 169Q126 121 118 79L105 6L32 -14L19 -1L182 673L123 697L130 719L279 746L169 285H174Q198 326 222 362T272 426T326 468T385 484Q423 484 443 461T463
404Q463 365 442 331T387 267T311 216T228 181L441 -23V-28Q436 -32 426 -36T401 -40ZM349 415Q326 415 299 395T244 341T192 266T149 181Q206 197 249 221T323 272T368 326T383 377Q383 396 374 405T349 415Z" />
<glyph unicode="l" glyph-name="l" horiz-adv-x="268" d="M247 153Q237 124 218 95T175 42T127 4T85 -11Q51 -11 39 15T39 90L182 673L123 697L130 719L277 746L115 62L118 61Q151 71 180 99T227 159L247 153Z" />
<glyph unicode="m" glyph-name="m" horiz-adv-x="807" d="M139 400L54 415V420Q70 438 88 452Q104 464 123 474T164 485Q206 485 215 453T208 363L181 270H185Q211 307 239 345T297 414T358 464T424 484Q466 484 475 452T467 363L440 270H444Q469 307 497 345T555
414T618 464T687 484Q720 484 733 460T732 378L652 62L656 61Q689 71 717 99T764 159L784 153Q774 123 755 94T712 42T665 4T623 -11Q586 -11 575 15T576 91L651 371Q656 388 652 399T633 411Q611 411 587 394T539 348T491 282T448 205T413 125T391 52L381 7L306
-14L293 -1L393 372Q397 389 393 400T374 411Q353 411 329 394T280 348T232 282T189 205T154 125T132 52L122 7L47 -14L34 -1L139 400Z" />
<glyph unicode="n" glyph-name="n" horiz-adv-x="548" d="M139 400L54 415V420Q70 438 88 452Q104 464 123 474T164 485Q206 485 215 453T208 363L181 270H185Q210 307 238 345T296 414T360 464T428 484Q461 484 474 460T473 378L393 62L396 61Q430 71 458 99T505
159L525 153Q515 123 496 94T453 42T406 4T364 -11Q328 -11 316 15T317 91L392 371Q397 388 394 399T374 411Q352 411 328 394T280 348T232 282T189 205T154 125T132 52L122 7L47 -14L34 -1L139 400Z" />
<glyph unicode="o" glyph-name="o" horiz-adv-x="477" d="M123 137Q123 120 124 100T132 61T149 31T178 19Q211 19 242 49T298 126T337 228T352 331Q352 341 351 362T345 403T328 439T293 455Q258 455 228 422T174 341T137 237T123 137ZM303 485Q341 485 368 471T411
432T435 378T443 318Q443 264 425 206T372 99T288 20T175 -11Q139 -11 112 3T68 41T43 96T34 163Q34 216 52 273T105 377T190 454T303 485Z" />
<glyph unicode="p" glyph-name="p" horiz-adv-x="498" d="M131 380Q108 367 83 352T32 320L20 340Q45 360 75 381T141 422L164 516H225L210 456Q241 469 271 476T330 484Q369 484 396 473T440 444T464 402T472 350Q472 287 448 222T385 105T294 19T189 -14Q169
-14 153 -8T122 7L72 -201H207L198 -240H-92L-89 -218Q-75 -216 -61 -212Q-49 -208 -34 -203T-4 -188L131 380ZM204 18Q237 18 268 48T324 125T364 225T380 326Q380 374 358 402T281 431Q267 431 252 429T221 421L136 65Q146 46 164 32T204 18Z" />
<glyph unicode="q" glyph-name="q" horiz-adv-x="484" d="M317 143Q319 154 321 163T326 179Q328 187 330 194H327Q311 174 290 139T241 70T182 11T114 -14Q72 -14 46 14T20 102Q20 166 43 233T105 357T198 449T311 485Q340 485 367 474T411 452L419 486H479L313
-201H407L401 -240H148L151 -218Q163 -217 177 -213Q189 -210 204 -204T237 -188L317 143ZM155 58Q170 58 190 73T231 112T274 168T315 233T348 300T369 361L377 396Q365 417 343 435T300 453Q276 453 253 438T210 398T173 340T143 272T124 201T117 135Q117 87
128 73T155 58Z" />
<glyph unicode="r" glyph-name="r" horiz-adv-x="406" d="M60 117Q76 180 88 231T109 321Q119 365 126 400L46 415V420Q62 438 80 452Q95 464 114 474T156 485Q175 485 186 477T201 453T203 418T194 376L141 196H155Q186 268 212 322T264 412T316 466T373 485Q393
485 407 473T421 438Q421 422 416 407T402 379T386 355T371 340H337Q350 362 347 381T327 402Q311 394 293 374T256 325T218 260T181 185Q172 165 165 149T150 113T134 69T115 7L43 -14L30 -1L60 117Z" />
<glyph unicode="s" glyph-name="s" horiz-adv-x="344" d="M283 137Q283 113 269 86T230 37T175 1T110 -14Q87 -14 68 -8T35 9T13 31T5 54Q5 66 7 75T14 92Q18 100 23 107H24Q69 78 103 61T166 43Q184 43 197 54T210 87Q210 109 200 128T181 159L130 230Q115 251
106 265T90 291T82 312T80 333Q80 364 98 392T142 441T197 474T250 486Q285 486 311 471T337 436Q337 416 330 400T318 378L315 377Q286 396 255 412T195 429Q177 429 164 418T151 385Q151 366 158 351T179 315L235 236Q248 218 257 205T272 180T280 159T283 137Z"
/>
<glyph unicode="t" glyph-name="t" horiz-adv-x="340" d="M48 459H133L179 583H241L211 459H342L336 415H202L120 70L124 67Q143 74 164 87T205 117T241 150T268 182L288 175Q275 146 250 113T194 53T133 7T81 -12Q54 -12 41 12T36 75L120 415H42L48 459Z" />
<glyph unicode="u" glyph-name="u" horiz-adv-x="539" d="M49 415V420Q65 438 84 452Q101 464 122 474T169 485Q202 485 211 459T209 382L138 90Q134 73 137 67T151 60Q169 60 192 78T241 126T290 191T334 262T367 327T385 375L405 464L479 485L492 472L392 62L395
61Q428 71 457 99T504 159L524 153Q514 124 495 95T452 42T404 4T362 -11Q327 -11 317 16T320 94L351 217H348Q322 186 295 146T237 71T172 12T98 -13Q84 -13 73 -7T56 12T50 48T58 102L135 400L49 415Z" />
<glyph unicode="v" glyph-name="v" horiz-adv-x="445" d="M198 77H201Q238 114 269 152T322 226T356 294T369 352Q370 387 351 403T300 419Q290 419 277 417T252 411V423Q284 454 310 469T362 485Q435 485 435 402Q435 360 419 318T375 234T312 151T239 67L167
-14H158L124 0L106 396Q88 417 53 417Q44 417 32 416T9 411V423Q38 454 62 469T114 485Q180 485 184 396L198 77Z" />
<glyph unicode="w" glyph-name="w" horiz-adv-x="656" d="M417 80H422Q461 115 491 153T540 228T570 298T580 357Q580 389 561 404T510 419Q500 419 487 417T462 411V424Q524 485 568 485Q603 485 623 463T645 396Q646 357 630 316T587 232T526 148T454 64L384
-14H375L344 0L342 206H340Q311 173 279 133T204 41L157 -14H148L114 0L105 396Q87 417 53 417Q44 417 32 416T9 411V424Q38 455 62 470T114 485Q146 485 164 464T184 396L191 80H196Q225 112 250 143T295 201Q318 231 337 258L336 390Q328 402 312 409T275 417Q265
417 252 416T227 411V424Q289 485 333 485Q409 485 410 396L417 80Z" />
<glyph unicode="x" glyph-name="x" horiz-adv-x="509" d="M303 -11Q284 -11 275 1T261 33L224 182L175 110Q152 76 134 53T101 14T72 -7T42 -14Q22 -14 6 -1T-9 42Q-9 58 -2 72Q1 79 5 85L43 74Q62 68 75 67T104 77T138 115T190 192L213 228L181 359Q175 385 169
394T152 404Q137 404 118 379T88 296H64Q65 335 75 369T101 428T137 469T181 484Q215 484 230 462T256 390L277 298L348 399Q375 438 404 461T456 484Q476 483 488 472T500 438Q500 422 495 407T480 379T461 355T442 340H423Q426 350 427 360T428 380T423 394T411
400Q400 400 386 385T349 340Q330 315 313 290T288 251L332 61H336Q369 71 398 99T446 159L466 153Q456 124 437 95T394 42T346 4T303 -11Z" />
<glyph unicode="y" glyph-name="y" horiz-adv-x="469" d="M26 296Q27 335 37 369T63 428T99 469T143 484Q168 484 189 466T224 415T246 335T254 230Q254 164 245 100T219 -7H223Q250 23 275 57T323 130T363 210T389 299Q391 349 381 389T354 464Q367 471 378 475T402
479Q422 479 439 464T457 404Q457 336 428 261T351 111T245 -29T128 -147T16 -228T-71 -258Q-97 -258 -117 -243T-137 -198Q-137 -177 -121 -160T-79 -143Q-55 -143 -42 -159T-21 -206H-18Q42 -182 79 -134T138 -26T167 96T175 208Q175 250 171 285T158 347T140
389T116 404Q96 404 79 379T50 296H26Z" />
<glyph unicode="z" glyph-name="z" horiz-adv-x="454" d="M476 459L143 120L279 70Q324 53 347 58T391 90L411 84Q402 63 393 45T370 13T339 -9T296 -17Q282 -17 267 -14T225 1L82 58L26 -7L-11 20L325 363L207 407Q172 420 152 419T124 406Q117 394 126 376T166
334Q151 313 138 300T110 287Q90 287 78 301T65 342Q65 361 77 386T108 433T154 471T207 486Q226 486 242 483T278 471L386 426L440 486L476 459Z" />
<glyph unicode="{" glyph-name="braceleft" horiz-adv-x="300" d="M165 291Q201 277 215 248T220 161L191 -16Q185 -58 185 -84T193 -125T217 -144T260 -149L254 -181H240Q190 -181 160 -169T117 -133T104 -71T116 19L150 178Q160 224 147 247T102 271L66 272L75
318L110 319Q149 320 168 339T193 392L226 577Q232 612 244 641T278 690T335 722T420 733H435L428 701Q402 701 383 696T351 677T327 637T306 568L270 411Q257 356 234 329T165 293V291Z" />
<glyph unicode="|" glyph-name="bar" horiz-adv-x="248" d="M9 -202L195 733H247L63 -201L9 -202Z" />
<glyph unicode="}" glyph-name="braceright" horiz-adv-x="300" d="M176 261Q140 275 126 304T121 391L150 568Q156 610 156 636T148 677T124 696T81 701L87 733H101Q151 733 181 721T224 685T237 623T225 533L191 374Q181 328 194 305T239 281L275 280L266 234L231
233Q192 232 173 213T148 160L115 -25Q109 -60 97 -89T63 -138T6 -170T-79 -181H-94L-87 -149Q-61 -149 -42 -145T-10 -126T14 -85T35 -16L71 141Q84 196 107 223T176 259V261Z" />
<glyph unicode="~" glyph-name="asciitilde" horiz-adv-x="424" d="M43 225L48 239Q61 277 79 298T119 328T164 334T210 321L271 294Q298 282 315 280T344 284T365 306T383 342L411 330L405 313Q390 272 372 249T333 218T288 214T236 230L173 258Q149 268 134
269T108 265T89 245T72 212L43 225Z" />
<glyph unicode="&#xa1;" glyph-name="exclamdown" horiz-adv-x="285" d="M30 -125L152 377H197L122 -125H30ZM198 574Q223 574 241 556T259 513Q259 488 241 470T198 452Q173 452 155 470T137 513Q137 538 155 556T198 574Z" />
<glyph unicode="&#xa2;" glyph-name="cent" horiz-adv-x="600" d="M237 -11Q184 -8 153 32T122 131Q122 167 131 206T159 285T208 361T279 428Q299 443 325 457T375 479L412 612H452L416 485Q451 483 475 468T500 435Q500 423 496 411T486 389T475 373T469 366Q449
386 433 401T399 424L295 51Q311 55 329 66T367 92T404 127T436 166L454 154Q445 136 427 112T386 65T335 23T279 -5L246 -125H205L237 -11ZM212 154Q212 103 224 81T255 52L361 432Q330 429 303 402T256 334T224 245T212 154Z" />
<glyph unicode="&#xa3;" glyph-name="sterling" horiz-adv-x="600" d="M114 304H217L254 470Q272 540 299 589T357 669T420 714T483 729Q502 729 521 722T555 702T580 671T590 632Q590 606 567 593T512 577Q498 686 449 686Q439 686 430 680T410 656T389 606T363
523L313 304H471L464 260H303L302 253Q279 168 240 114T158 29Q189 16 217 2T266 -23L300 -41Q344 -65 370 -78T411 -99T434 -109T453 -111Q465 -111 474 -101T489 -72T495 -30T490 24Q527 26 547 15T567 -22Q567 -45 555 -69T521 -114T472 -147T412 -160Q381 -160
348 -151T281 -126T216 -92T156 -52L90 -6Q52 -19 22 -19Q-3 -19 -17 -8T-32 23Q-32 40 -16 52T28 65Q46 65 68 60T115 46Q139 66 158 98T189 181L207 260H107L114 304Z" />
<glyph unicode="&#xa5;" glyph-name="yen" horiz-adv-x="600" d="M77 301H245L133 610L78 632L84 664H325L319 632L231 611L322 348H325L514 606L429 632L436 664H642L636 632L578 610L347 301H517L508 258H333L318 183H493L484 139H309L292 56L378 33L371 0H99L106
33L200 56L217 139H44L53 183H226L241 259H68L77 301Z" />
<glyph unicode="&#xa6;" glyph-name="brokenbar" horiz-adv-x="248" d="M112 313L195 733H247L164 313H112ZM9 -202L92 219H144L61 -202H9Z" />
<glyph unicode="&#xa7;" glyph-name="section" horiz-adv-x="525" d="M217 -76Q217 -43 202 -4T170 79L126 193Q112 231 103 267T93 339Q93 382 113 423T166 501T239 567T321 620T400 654T464 666Q497 666 513 651T530 615Q530 597 517 583T482 568Q475 578 464
586Q455 593 441 598T406 604Q388 604 365 598T317 580Q312 572 307 561T302 526Q302 493 317 454T349 371L393 257Q407 219 416 183T426 111Q426 68 406 27T353 -51T280 -117T198 -170T119 -204T55 -216Q22 -216 6 -201T-11 -165Q-11 -147 2 -133T37 -118Q44 -128
55 -136Q64 -143 78 -148T113 -154Q131 -154 154 -148T201 -130Q206 -122 211 -111T217 -76ZM175 366Q175 332 185 296T208 224L242 130Q253 100 260 78T271 39T276 7T278 -22Q278 -42 273 -59T263 -87H266Q299 -57 321 -15T344 84Q344 118 334 154T311 226L277
320Q266 350 259 372T248 411T243 443T241 472Q241 492 246 509T256 537H253Q220 507 198 465T175 366Z" />
<glyph unicode="&#xa8;" glyph-name="dieresis" horiz-adv-x="400" d="M64 644Q64 665 78 679T114 694Q135 694 150 680T165 644Q165 623 150 609T114 595Q93 595 79 609T64 644ZM234 644Q234 665 248 679T284 694Q305 694 320 680T335 644Q335 623 320 609T284
595Q263 595 249 609T234 644Z" />
<glyph unicode="&#xa9;" glyph-name="copyright" horiz-adv-x="813" d="M66 327Q69 399 98 462T177 572T289 646T425 673Q497 673 559 646T666 573T735 463T757 327Q755 255 726 192T648 83T535 9T399 -18Q327 -18 266 9T159 82T89 192T66 327ZM100 327Q98 261
120 204T184 104T280 36T401 11Q465 11 522 36T623 103T693 203T722 327Q725 393 703 450T640 550T543 618T423 643Q358 643 301 618T200 551T130 451T100 327ZM399 132Q361 132 328 142T270 174T230 228T215 303Q215 342 232 381T280 451T357 502T460 522Q496
522 525 514T578 496L564 388H536L520 469Q503 477 482 482T437 488Q402 488 375 475T330 438T302 384T292 316Q292 283 302 256T329 209T369 178T417 167Q442 167 464 175L523 269H552L523 155Q500 147 472 140T399 132Z" />
<glyph unicode="&#xaa;" glyph-name="ordfeminine" horiz-adv-x="454" d="M434 636L341 299L344 298Q370 306 393 327T430 372L447 365Q438 340 422 317T386 275T348 245T313 234Q285 234 274 256T279 326L302 401H299Q285 382 266 353T223 297T173 251T114 231Q82
231 65 253T47 307Q46 345 57 383T89 457T136 523T193 576T254 612T314 625Q331 625 345 621T371 611L379 636H434ZM155 298Q174 298 201 323T255 384T304 458T335 524L346 560Q335 574 322 582T291 591Q268 591 240 568T188 507T147 425T130 336Q130 320 135 309T155
298Z" />
<glyph unicode="&#xab;" glyph-name="guillemotleft" horiz-adv-x="623" d="M370 435L173 231L302 34L275 12L79 223V243L347 461L370 435ZM581 435L384 231L513 34L486 12L290 223V243L558 461L581 435Z" />
<glyph unicode="&#xae;" glyph-name="registered" horiz-adv-x="400" d="M65 560Q65 601 81 636T124 698T187 739T264 754Q305 754 340 739T402 698T444 637T460 560Q460 519 444 484T401 423T338 382T261 367Q220 367 185 381T123 422T81 483T65 560ZM96 560Q96
525 109 495T144 442T197 406T262 393Q297 393 327 405T380 440T416 493T429 560Q429 595 416 625T381 678T328 714T262 727Q227 727 197 714T144 679T109 626T96 560ZM152 479L180 486L212 646L185 652L189 667H274Q363 667 363 616Q363 603 357 593T341 576T320
564T299 556Q315 529 324 514T339 492T351 483T370 478L366 462Q345 462 332 463T308 473T285 499T258 547H234L222 485L245 478L242 464H148L152 479ZM238 568H273Q295 574 305 586T316 612Q316 629 301 639T254 648L238 568Z" />
<glyph unicode="&#xaf;" glyph-name="macron" horiz-adv-x="400" d="M65 687H347L334 627H52L65 687Z" />
<glyph unicode="&#xb0;" glyph-name="degree" horiz-adv-x="341" d="M69 603Q69 634 81 661T113 708T161 739T220 751Q251 751 278 740T324 708T355 661T366 603Q366 572 354 545T322 498T274 466T216 454Q184 454 157 465T111 497T80 545T69 603ZM121 603Q121
559 148 530T218 500Q260 500 287 529T315 603Q315 647 288 676T218 706Q176 706 149 677T121 603Z" />
<glyph unicode="&#xb1;" glyph-name="plusminus" horiz-adv-x="600" d="M329 399V191H267V399H61V457H267V665H329V457H535V399H329ZM61 0V56H535V0H61Z" />
<glyph unicode="&#xb4;" glyph-name="acute" horiz-adv-x="400" d="M285 756V737L161 551H115L214 756H285Z" />
<glyph unicode="&#xb6;" glyph-name="paragraph" horiz-adv-x="588" d="M174 -208Q142 -208 113 -200T62 -173T26 -127T12 -60Q12 -33 21 -10T47 30T87 58T140 68Q174 68 190 48T207 3Q207 -23 190 -42T143 -63L76 -24H69Q64 -29 63 -39T62 -61Q62 -112 92 -141T182
-171Q251 -171 289 -128T344 2L467 624H414L331 204H274Q232 204 198 219T138 260T100 320T86 391Q85 449 110 499T176 586T266 643T365 664H617L611 634L520 606L402 9Q379 -107 321 -157T174 -208Z" />
<glyph unicode="&#xb7;" glyph-name="periodcentered" horiz-adv-x="260" d="M131 202Q103 202 83 222T62 272Q62 300 82 320T131 341Q160 341 180 321T201 272Q201 243 181 223T131 202Z" />
<glyph unicode="&#xb8;" glyph-name="cedilla" horiz-adv-x="400" d="M111 -231Q126 -227 144 -220T177 -203T202 -180T213 -148Q213 -136 209 -127T198 -112T185 -103T173 -97L253 4H289L238 -63Q255 -71 271 -85T287 -127Q287 -159 269 -181T224 -219T167 -243T111
-257V-231Z" />
<glyph unicode="&#xba;" glyph-name="ordmasculine" horiz-adv-x="409" d="M135 349Q135 335 136 320T142 291T155 269T179 260Q206 260 231 285T275 349T307 431T319 513Q319 523 319 538T314 569T300 594T272 605Q244 605 219 578T176 512T146 429T135 349ZM280
632Q312 632 334 621T371 590T392 545T399 493Q399 449 384 403T340 319T270 257T176 233Q145 233 123 244T86 275T64 321T57 377Q57 420 72 465T115 548T185 608T280 632Z" />
<glyph unicode="&#xbb;" glyph-name="guillemotright" horiz-adv-x="622" d="M42 38L238 241L110 439L137 461L333 250V230L65 12L42 38ZM252 38L448 241L320 439L347 461L543 250V230L275 12L252 38Z" />
<glyph unicode="&#xbc;" glyph-name="onequarter" horiz-adv-x="889" d="M52 309L148 325L201 592H98L101 626L285 667H291L224 324L310 309L303 276H45L52 309ZM677 92H489L493 117L780 394L810 391L759 141H851L843 92H750L733 0H659L677 92ZM686 141L715 287L564
141H686ZM135 -55L738 726L777 695L173 -87L135 -55Z" />
<glyph unicode="&#xbd;" glyph-name="onehalf" horiz-adv-x="915" d="M52 309L148 325L201 592H98L101 626L285 667H291L224 324L310 309L303 276H45L52 309ZM531 33L589 74Q688 144 734 188T780 269Q780 301 762 321T708 341Q678 341 654 325T605 283L581 307Q595
325 610 341T643 371T684 393T735 401Q760 401 782 394T820 372T846 339T856 294Q856 271 850 251T824 208T771 158T681 94L633 62H846L834 0H526L531 33ZM139 -55L742 726L781 695L177 -87L139 -55Z" />
<glyph unicode="&#xbe;" glyph-name="threequarters" horiz-adv-x="899" d="M189 258Q120 258 84 279T47 330Q47 347 59 359T90 383Q129 297 210 297Q246 297 267 318T289 375Q289 420 256 439T159 454L165 484L188 493Q252 517 275 538T299 583Q299 602 284 614T247
626Q230 626 216 623T188 612T160 594T130 567L106 590Q149 639 186 658T271 677Q320 677 349 657T378 601Q378 583 368 569T342 541T305 517T262 495V492Q290 489 310 481T343 460T362 432T369 401Q369 368 352 342T309 297T251 268T189 258ZM687 92H499L503 117L790
394L820 391L769 141H861L853 92H760L743 0H669L687 92ZM696 141L725 287L574 141H696ZM165 -55L768 726L807 695L203 -87L165 -55Z" />
<glyph unicode="&#xbf;" glyph-name="questiondown" horiz-adv-x="422" d="M259 -118L227 -107Q195 -96 161 -75T99 -23T53 46T35 131Q35 190 62 224T140 269L246 288L274 377H320L289 208L163 189Q118 182 101 164T83 116Q83 95 96 77T131 43T184 15T250 -8L273
-15L259 -118ZM319 577Q344 577 362 559T380 516Q380 491 362 473T319 455Q294 455 276 473T258 516Q258 541 276 559T319 577Z" />
<glyph unicode="&#xc0;" glyph-name="Agrave" horiz-adv-x="674" d="M392 875L441 736H389L299 855V875H392ZM-35 32L23 55L376 664L409 669L444 679L535 52L597 32L591 0H352L359 33L444 56L418 236H186L92 60L181 33L174 0H-41L-35 32ZM218 296H410L370 579H369L218
296Z" />
<glyph unicode="&#xc1;" glyph-name="Aacute" horiz-adv-x="674" d="M-35 32L23 55L376 664L409 669L444 679L535 52L597 32L591 0H352L359 33L444 56L418 236H186L92 60L181 33L174 0H-41L-35 32ZM218 296H410L370 579H369L218 296ZM564 875V855L429 736H377L471
875H564Z" />
<glyph unicode="&#xc2;" glyph-name="Acircumflex" horiz-adv-x="674" d="M281 736L397 865H473L538 736H492L427 815L334 736H281ZM-35 32L23 55L376 664L409 669L444 679L535 52L597 32L591 0H352L359 33L444 56L418 236H186L92 60L181 33L174 0H-41L-35 32ZM218
296H410L370 579H369L218 296Z" />
<glyph unicode="&#xc3;" glyph-name="Atilde" horiz-adv-x="674" d="M392 781Q365 794 349 797T321 795T303 777T287 744L258 757L263 771Q276 809 293 830T332 859T377 863T428 846L451 835Q481 820 500 817T531 818T551 838T569 874L597 862L591 845Q576 804
559 781T520 750T473 747T417 769L392 781ZM-35 32L23 55L376 664L409 669L444 679L535 52L597 32L591 0H352L359 33L444 56L418 236H186L92 60L181 33L174 0H-41L-35 32ZM218 296H410L370 579H369L218 296Z" />
<glyph unicode="&#xc4;" glyph-name="Adieresis" horiz-adv-x="674" d="M317 761Q294 761 278 777T261 817Q261 840 277 857T317 874Q340 874 357 857T374 817Q374 794 357 778T317 761ZM538 761Q515 761 498 777T481 817Q481 840 498 857T538 874Q561 874 578
857T595 817Q595 794 578 778T538 761ZM-35 32L23 55L376 664L409 669L444 679L535 52L597 32L591 0H352L359 33L444 56L418 236H186L92 60L181 33L174 0H-41L-35 32ZM218 296H410L370 579H369L218 296Z" />
<glyph unicode="&#xc5;" glyph-name="Aring" horiz-adv-x="674" d="M311 817Q311 841 320 862T345 898T382 922T428 931Q478 931 511 899T545 817Q545 793 536 772T511 736T474 712T428 703Q378 703 345 735T311 817ZM357 817Q357 785 378 765T428 744Q457 744
478 764T499 817Q499 849 478 869T428 890Q399 890 378 870T357 817ZM-35 32L23 55L376 664L409 669L444 679L535 52L597 32L591 0H352L359 33L444 56L418 236H186L92 60L181 33L174 0H-41L-35 32ZM218 296H410L370 579H369L218 296Z" />
<glyph unicode="&#xc6;" glyph-name="AE" horiz-adv-x="920" d="M548 321L495 47H737L825 179H861L815 0H313L319 33L405 56L457 321H281L102 60L188 33L181 0H-41L-35 32L22 55L428 606H427L341 632L347 664H841L915 668L874 491H840L829 619H607L558 367H691L736
449H766L725 245L695 244L685 320L548 321ZM496 619L314 367H466L516 619H496Z" />
<glyph unicode="&#xc7;" glyph-name="Ccedilla" horiz-adv-x="705" d="M221 -231Q236 -227 254 -220T287 -203T312 -180T323 -148Q323 -136 319 -127T308 -112T295 -103T283 -97L346 -17Q286 -15 233 4T141 62T79 156T56 290Q56 357 83 426T165 552T300 643T485
679Q543 679 585 664T668 626L651 448H616L588 593Q568 610 538 623T461 636Q393 636 339 604T246 521T187 407T166 283Q167 151 224 89T374 26Q416 26 445 35T497 57L596 210H632L578 30Q543 19 496 3T383 -16L348 -63Q365 -71 381 -85T397 -127Q397 -159 379
-181T334 -219T277 -243T221 -257V-231Z" />
<glyph unicode="&#xc8;" glyph-name="Egrave" horiz-adv-x="603" d="M231 321L178 47H420L508 179H544L498 0H-4L2 33L88 56L196 605L120 632L126 664H525L599 668L556 491H522L513 619H290L241 367H374L419 449H449L408 245H375L365 321H231ZM386 875L435 736H383L293
855V875H386Z" />
<glyph unicode="&#xc9;" glyph-name="Eacute" horiz-adv-x="603" d="M231 321L178 47H420L508 179H544L498 0H-4L2 33L88 56L196 605L120 632L126 664H525L599 668L556 491H522L513 619H290L241 367H374L419 449H449L408 245H375L365 321H231ZM558 875V855L423
736H371L465 875H558Z" />
<glyph unicode="&#xca;" glyph-name="Ecircumflex" horiz-adv-x="603" d="M267 736L383 865H459L524 736H478L413 815L320 736H267ZM231 321L178 47H420L508 179H544L498 0H-4L2 33L88 56L196 605L120 632L126 664H525L599 668L556 491H522L513 619H290L241 367H374L419
449H449L408 245H375L365 321H231Z" />
<glyph unicode="&#xcb;" glyph-name="Edieresis" horiz-adv-x="603" d="M231 321L178 47H420L508 179H544L498 0H-4L2 33L88 56L196 605L120 632L126 664H525L599 668L556 491H522L513 619H290L241 367H374L419 449H449L408 245H375L365 321H231ZM302 761Q279
761 263 777T246 817Q246 840 262 857T302 874Q325 874 342 857T359 817Q359 794 342 778T302 761ZM523 761Q500 761 483 777T466 817Q466 840 483 857T523 874Q546 874 563 857T580 817Q580 794 563 778T523 761Z" />
<glyph unicode="&#xcc;" glyph-name="Igrave" horiz-adv-x="355" d="M3 33L86 56L195 606L120 632L126 664H379L373 632L287 606L178 56L254 32L248 0H-4L3 33ZM505 875L554 736H502L412 855V875H505Z" />
<glyph unicode="&#xcd;" glyph-name="Iacute" horiz-adv-x="355" d="M421 875V855L286 736H234L328 875H421ZM3 33L86 56L195 606L120 632L126 664H379L373 632L287 606L178 56L254 32L248 0H-4L3 33Z" />
<glyph unicode="&#xce;" glyph-name="Icircumflex" horiz-adv-x="355" d="M3 33L86 56L195 606L120 632L126 664H379L373 632L287 606L178 56L254 32L248 0H-4L3 33ZM394 736L510 865H586L651 736H605L540 815L447 736H394Z" />
<glyph unicode="&#xcf;" glyph-name="Idieresis" horiz-adv-x="355" d="M175 761Q152 761 136 777T119 817Q119 840 135 857T175 874Q198 874 215 857T232 817Q232 794 215 778T175 761ZM396 761Q373 761 356 777T339 817Q339 840 356 857T396 874Q419 874 436
857T453 817Q453 794 436 778T396 761ZM3 33L86 56L195 606L120 632L126 664H379L373 632L287 606L178 56L254 32L248 0H-4L3 33Z" />
<glyph unicode="&#xd0;" glyph-name="Eth" horiz-adv-x="743" d="M12 33L96 56L145 306H47L56 351H154L204 606L129 632L135 664L341 666Q430 667 500 648T619 591T694 497T720 369Q720 285 685 216T591 98T454 23T290 -3L5 0L12 33ZM237 306L200 118Q195 93 201
77T219 53T250 41T290 38Q376 39 438 68T540 143T599 249T619 372Q619 436 597 484T533 565T432 613T301 629L246 351H419L410 306H237Z" />
<glyph unicode="&#xd1;" glyph-name="Ntilde" horiz-adv-x="742" d="M441 781Q414 794 398 797T370 795T352 777T336 744L307 757L312 771Q325 809 342 830T381 859T426 863T477 846L500 835Q530 820 549 817T580 818T600 838T618 874L646 862L640 845Q625 804
608 781T569 750T522 747T466 769L441 781ZM536 -11L236 546L141 63L252 33L245 0H-4L2 33L86 56L193 596L111 632L116 664H280L546 168L631 601L519 631L526 664H776L769 631L684 606L592 136L571 -11H536Z" />
<glyph unicode="&#xd2;" glyph-name="Ograve" horiz-adv-x="737" d="M451 875L500 736H448L358 855V875H451ZM459 679Q508 679 553 660T633 604T689 515T710 397Q710 323 683 249T603 114T475 17T304 -21Q256 -21 211 -2T130 54T74 143T53 262Q53 334 79 408T156
542T283 640T459 679ZM610 416Q610 462 600 502T569 572T516 618T440 635Q386 635 335 603T243 517T178 392T153 241Q153 195 163 156T193 87T245 40T321 23Q388 23 441 61T532 158T590 286T610 416Z" />
<glyph unicode="&#xd3;" glyph-name="Oacute" horiz-adv-x="737" d="M459 679Q508 679 553 660T633 604T689 515T710 397Q710 323 683 249T603 114T475 17T304 -21Q256 -21 211 -2T130 54T74 143T53 262Q53 334 79 408T156 542T283 640T459 679ZM610 416Q610 462
600 502T569 572T516 618T440 635Q386 635 335 603T243 517T178 392T153 241Q153 195 163 156T193 87T245 40T321 23Q388 23 441 61T532 158T590 286T610 416ZM623 875V855L488 736H436L530 875H623Z" />
<glyph unicode="&#xd4;" glyph-name="Ocircumflex" horiz-adv-x="737" d="M459 679Q508 679 553 660T633 604T689 515T710 397Q710 323 683 249T603 114T475 17T304 -21Q256 -21 211 -2T130 54T74 143T53 262Q53 334 79 408T156 542T283 640T459 679ZM610 416Q610
462 600 502T569 572T516 618T440 635Q386 635 335 603T243 517T178 392T153 241Q153 195 163 156T193 87T245 40T321 23Q388 23 441 61T532 158T590 286T610 416ZM340 736L456 865H532L597 736H551L486 815L393 736H340Z" />
<glyph unicode="&#xd5;" glyph-name="Otilde" horiz-adv-x="737" d="M451 781Q424 794 408 797T380 795T362 777T346 744L317 757L322 771Q335 809 352 830T391 859T436 863T487 846L510 835Q540 820 559 817T590 818T610 838T628 874L656 862L650 845Q635 804
618 781T579 750T532 747T476 769L451 781ZM459 679Q508 679 553 660T633 604T689 515T710 397Q710 323 683 249T603 114T475 17T304 -21Q256 -21 211 -2T130 54T74 143T53 262Q53 334 79 408T156 542T283 640T459 679ZM610 416Q610 462 600 502T569 572T516 618T440
635Q386 635 335 603T243 517T178 392T153 241Q153 195 163 156T193 87T245 40T321 23Q388 23 441 61T532 158T590 286T610 416Z" />
<glyph unicode="&#xd6;" glyph-name="Odieresis" horiz-adv-x="737" d="M376 761Q353 761 337 777T320 817Q320 840 336 857T376 874Q399 874 416 857T433 817Q433 794 416 778T376 761ZM597 761Q574 761 557 777T540 817Q540 840 557 857T597 874Q620 874 637
857T654 817Q654 794 637 778T597 761ZM459 679Q508 679 553 660T633 604T689 515T710 397Q710 323 683 249T603 114T475 17T304 -21Q256 -21 211 -2T130 54T74 143T53 262Q53 334 79 408T156 542T283 640T459 679ZM610 416Q610 462 600 502T569 572T516 618T440
635Q386 635 335 603T243 517T178 392T153 241Q153 195 163 156T193 87T245 40T321 23Q388 23 441 61T532 158T590 286T610 416Z" />
<glyph unicode="&#xd7;" glyph-name="multiply" horiz-adv-x="600" d="M295 256L115 72L74 113L257 297L74 480L117 523L299 340L482 528L522 487L339 300L522 115L478 72L295 256Z" />
<glyph unicode="&#xd8;" glyph-name="Oslash" horiz-adv-x="737" d="M42 -50L128 61Q94 99 74 149T53 262Q53 334 79 408T156 542T283 640T459 679Q489 679 519 670T578 644L639 723H690L611 621Q654 584 682 528T710 397Q710 323 683 249T603 114T475 17T304
-21Q265 -21 227 -7T157 33L93 -50H42ZM610 423Q610 519 574 573L192 78Q212 52 243 38T321 23Q388 23 441 61T532 157T590 287T610 423ZM153 229Q153 197 157 169T170 117L546 603Q508 635 447 635Q390 635 337 604T243 517T178 388T153 229Z" />
<glyph unicode="&#xd9;" glyph-name="Ugrave" horiz-adv-x="720" d="M434 875L483 736H431L341 855V875H434ZM314 -24Q257 -24 211 -8T136 45T98 140T104 280L170 606L94 632L100 664H357L351 632L265 606L196 259Q174 149 214 91T337 33Q372 33 406 44T470 84T523
160T559 280L617 604L509 632L515 664H765L759 632L674 606L611 270Q597 196 568 141T500 49T413 -6T314 -24Z" />
<glyph unicode="&#xda;" glyph-name="Uacute" horiz-adv-x="720" d="M314 -24Q257 -24 211 -8T136 45T98 140T104 280L170 606L94 632L100 664H357L351 632L265 606L196 259Q174 149 214 91T337 33Q372 33 406 44T470 84T523 160T559 280L617 604L509 632L515
664H765L759 632L674 606L611 270Q597 196 568 141T500 49T413 -6T314 -24ZM606 875V855L471 736H419L513 875H606Z" />
<glyph unicode="&#xdb;" glyph-name="Ucircumflex" horiz-adv-x="720" d="M323 736L439 865H515L580 736H534L469 815L376 736H323ZM314 -24Q257 -24 211 -8T136 45T98 140T104 280L170 606L94 632L100 664H357L351 632L265 606L196 259Q174 149 214 91T337 33Q372
33 406 44T470 84T523 160T559 280L617 604L509 632L515 664H765L759 632L674 606L611 270Q597 196 568 141T500 49T413 -6T314 -24Z" />
<glyph unicode="&#xdc;" glyph-name="Udieresis" horiz-adv-x="720" d="M359 761Q336 761 320 777T303 817Q303 840 319 857T359 874Q382 874 399 857T416 817Q416 794 399 778T359 761ZM580 761Q557 761 540 777T523 817Q523 840 540 857T580 874Q603 874 620
857T637 817Q637 794 620 778T580 761ZM314 -24Q257 -24 211 -8T136 45T98 140T104 280L170 606L94 632L100 664H357L351 632L265 606L196 259Q174 149 214 91T337 33Q372 33 406 44T470 84T523 160T559 280L617 604L509 632L515 664H765L759 632L674 606L611 270Q597
196 568 141T500 49T413 -6T314 -24Z" />
<glyph unicode="&#xdd;" glyph-name="Yacute" horiz-adv-x="627" d="M365 266L323 56L409 33L402 0H130L137 33L231 56L270 253L143 610L88 632L94 664H335L329 632L241 611L340 308H343L555 606L470 632L477 664H683L677 632L619 610L365 266ZM572 875V855L437
736H385L479 875H572Z" />
<glyph unicode="&#xde;" glyph-name="Thorn" horiz-adv-x="578" d="M3 33L86 56L195 606L120 632L126 664H380L375 632L287 606L268 513L305 514Q368 515 416 504T498 472T548 423T566 361Q566 304 534 265T454 203T349 170T243 164L250 195Q356 200 410 241T465
348Q465 373 454 397T417 439T354 469T262 480L179 56L255 32L249 0H-4L3 33Z" />
<glyph unicode="&#xdf;" glyph-name="germandbls" horiz-adv-x="496" d="M528 632Q528 597 514 572T479 528T434 495T389 467T354 438T340 403Q340 386 345 370T365 328L396 271Q423 221 434 190T446 133Q446 107 431 81T392 34T338 0T275 -14Q236 -14 214 2T191
48Q191 63 196 75Q198 81 201 87Q242 62 270 52T326 42Q352 42 365 56T378 90Q378 111 370 129T350 169L308 246Q296 268 288 284T275 313T268 336T266 358Q266 391 280 414T315 454T361 487T407 519T442 557T456 609Q456 645 434 664T378 684Q359 684 332 671T277
624T224 528T182 369L122 15Q107 -76 77 -130T13 -213T-51 -251T-99 -260Q-108 -260 -119 -257T-141 -246T-158 -228T-165 -203Q-165 -189 -158 -175T-140 -153Q-130 -162 -119 -172T-96 -191T-73 -205T-50 -211Q-22 -211 -6 -172T23 -61L93 350Q108 441 149 514T238
639T333 718T409 746Q441 746 463 736T500 709T521 672T528 632Z" />
<glyph unicode="&#xe0;" glyph-name="agrave" horiz-adv-x="536" d="M489 491L375 62L378 61Q411 71 440 100T486 159L506 153Q495 121 475 92T433 39T388 3T348 -11Q313 -11 300 16T306 102L336 205H333Q315 181 292 144T240 72T177 11T106 -14Q68 -14 47 13T25
80Q24 126 38 173T76 265T133 347T202 414T275 459T348 476Q370 476 388 471T419 457L428 491H489ZM153 61Q169 61 190 77T233 119T279 178T321 244T355 307T377 358L389 396Q375 413 358 424T320 436Q291 436 257 407T192 332T141 227T120 112Q120 90 127 76T153
61ZM362 756L403 551H359L290 737V756H362Z" />
<glyph unicode="&#xe1;" glyph-name="aacute" horiz-adv-x="536" d="M512 756V737L388 551H342L441 756H512ZM489 491L375 62L378 61Q411 71 440 100T486 159L506 153Q495 121 475 92T433 39T388 3T348 -11Q313 -11 300 16T306 102L336 205H333Q315 181 292 144T240
72T177 11T106 -14Q68 -14 47 13T25 80Q24 126 38 173T76 265T133 347T202 414T275 459T348 476Q370 476 388 471T419 457L428 491H489ZM153 61Q169 61 190 77T233 119T279 178T321 244T355 307T377 358L389 396Q375 413 358 424T320 436Q291 436 257 407T192 332T141
227T120 112Q120 90 127 76T153 61Z" />
<glyph unicode="&#xe2;" glyph-name="acircumflex" horiz-adv-x="536" d="M248 551L387 756H443L494 551H452L403 692L292 551H248ZM489 491L375 62L378 61Q411 71 440 100T486 159L506 153Q495 121 475 92T433 39T388 3T348 -11Q313 -11 300 16T306 102L336 205H333Q315
181 292 144T240 72T177 11T106 -14Q68 -14 47 13T25 80Q24 126 38 173T76 265T133 347T202 414T275 459T348 476Q370 476 388 471T419 457L428 491H489ZM153 61Q169 61 190 77T233 119T279 178T321 244T355 307T377 358L389 396Q375 413 358 424T320 436Q291 436
257 407T192 332T141 227T120 112Q120 90 127 76T153 61Z" />
<glyph unicode="&#xe3;" glyph-name="atilde" horiz-adv-x="536" d="M349 633Q322 646 306 649T278 647T260 629T244 596L215 609L220 623Q233 661 250 682T289 711T334 715T385 698L408 687Q438 672 457 669T488 670T508 690T526 726L554 714L548 697Q533 656
516 633T477 602T430 599T374 621L349 633ZM489 491L375 62L378 61Q411 71 440 100T486 159L506 153Q495 121 475 92T433 39T388 3T348 -11Q313 -11 300 16T306 102L336 205H333Q315 181 292 144T240 72T177 11T106 -14Q68 -14 47 13T25 80Q24 126 38 173T76 265T133
347T202 414T275 459T348 476Q370 476 388 471T419 457L428 491H489ZM153 61Q169 61 190 77T233 119T279 178T321 244T355 307T377 358L389 396Q375 413 358 424T320 436Q291 436 257 407T192 332T141 227T120 112Q120 90 127 76T153 61Z" />
<glyph unicode="&#xe4;" glyph-name="adieresis" horiz-adv-x="536" d="M226 644Q226 665 240 679T276 694Q297 694 312 680T327 644Q327 623 312 609T276 595Q255 595 241 609T226 644ZM396 644Q396 665 410 679T446 694Q467 694 482 680T497 644Q497 623 482
609T446 595Q425 595 411 609T396 644ZM489 491L375 62L378 61Q411 71 440 100T486 159L506 153Q495 121 475 92T433 39T388 3T348 -11Q313 -11 300 16T306 102L336 205H333Q315 181 292 144T240 72T177 11T106 -14Q68 -14 47 13T25 80Q24 126 38 173T76 265T133
347T202 414T275 459T348 476Q370 476 388 471T419 457L428 491H489ZM153 61Q169 61 190 77T233 119T279 178T321 244T355 307T377 358L389 396Q375 413 358 424T320 436Q291 436 257 407T192 332T141 227T120 112Q120 90 127 76T153 61Z" />
<glyph unicode="&#xe5;" glyph-name="aring" horiz-adv-x="536" d="M283 674Q283 698 292 719T317 755T354 779T400 788Q450 788 483 756T517 674Q517 650 508 629T483 593T446 569T400 560Q350 560 317 592T283 674ZM329 674Q329 642 350 622T400 601Q429 601
450 621T471 674Q471 706 450 726T400 747Q371 747 350 727T329 674ZM489 491L375 62L378 61Q411 71 440 100T486 159L506 153Q495 121 475 92T433 39T388 3T348 -11Q313 -11 300 16T306 102L336 205H333Q315 181 292 144T240 72T177 11T106 -14Q68 -14 47 13T25
80Q24 126 38 173T76 265T133 347T202 414T275 459T348 476Q370 476 388 471T419 457L428 491H489ZM153 61Q169 61 190 77T233 119T279 178T321 244T355 307T377 358L389 396Q375 413 358 424T320 436Q291 436 257 407T192 332T141 227T120 112Q120 90 127 76T153
61Z" />
<glyph unicode="&#xe6;" glyph-name="ae" horiz-adv-x="610" d="M361 -11Q319 -11 288 8T246 73Q215 39 182 14T102 -11Q87 -11 70 -7T38 9T13 39T3 88Q3 112 12 130T38 163T77 188T123 207L260 249L266 276Q271 307 270 336T262 388T241 424T206 438Q177 438
154 418Q149 401 146 383T140 351Q137 334 135 318Q129 316 124 315Q119 314 114 314T104 313Q89 313 76 318T62 347Q62 366 78 389T119 434T174 469T234 485Q262 484 282 476T317 454T338 422T348 385H350Q387 441 431 463T515 485Q561 485 582 466T604 415Q604
379 582 350T522 297T435 254T332 219Q330 205 329 191T327 163Q325 116 340 85T396 54Q412 54 429 61T463 79T494 104T519 134L539 122Q530 101 512 78T471 35T420 2T361 -11ZM253 217L185 194Q133 177 113 154T92 105Q91 81 104 63T141 45Q159 45 175 53T204
74T226 99T241 120Q240 158 252 212L253 217ZM486 446Q467 446 446 431T405 390T368 329T340 252Q380 265 413 281T469 316T506 358T519 410Q519 430 511 438T486 446Z" />
<glyph unicode="&#xe7;" glyph-name="ccedilla" horiz-adv-x="412" d="M25 -231Q40 -227 58 -220T91 -203T116 -180T127 -148Q127 -136 123 -127T112 -112T99 -103T87 -97L152 -14Q125 -13 104 -2T67 29T44 73T36 128Q36 164 45 204T73 284T122 361T193 428Q206
438 222 448T256 466T290 480T320 485Q358 485 386 470T414 435Q414 423 410 411T401 390T392 374T386 367Q373 376 358 387T326 407T294 422T263 429Q237 429 213 400T170 329T140 239T129 152Q129 97 147 75T194 52Q209 52 229 61T271 85T313 120T350 163L368
151Q359 133 341 109T300 62T249 20T194 -8L152 -63Q169 -71 185 -85T201 -127Q201 -159 183 -181T138 -219T81 -243T25 -257V-231Z" />
<glyph unicode="&#xe8;" glyph-name="egrave" horiz-adv-x="404" d="M155 -11Q123 -11 100 1T63 34T41 80T34 133Q34 182 45 224T75 304T121 371T178 425Q208 449 245 467T315 485Q360 485 379 466T398 415Q398 382 377 352T318 297T232 255T126 230Q124 216 123
201T121 171Q121 115 137 85T189 54Q207 54 224 61T258 79T289 105T313 134L333 122Q326 106 310 84T271 40T219 4T155 -11ZM291 448Q271 448 249 433T204 393T163 333T133 258Q164 262 196 277T254 315T298 365T315 418Q315 432 309 440T291 448ZM290 756L331
551H287L218 737V756H290Z" />
<glyph unicode="&#xe9;" glyph-name="eacute" horiz-adv-x="404" d="M448 756V737L324 551H278L377 756H448ZM155 -11Q123 -11 100 1T63 34T41 80T34 133Q34 182 45 224T75 304T121 371T178 425Q208 449 245 467T315 485Q360 485 379 466T398 415Q398 382 377
352T318 297T232 255T126 230Q124 216 123 201T121 171Q121 115 137 85T189 54Q207 54 224 61T258 79T289 105T313 134L333 122Q326 106 310 84T271 40T219 4T155 -11ZM291 448Q271 448 249 433T204 393T163 333T133 258Q164 262 196 277T254 315T298 365T315 418Q315
432 309 440T291 448Z" />
<glyph unicode="&#xea;" glyph-name="ecircumflex" horiz-adv-x="404" d="M178 551L317 756H373L424 551H382L333 692L222 551H178ZM155 -11Q123 -11 100 1T63 34T41 80T34 133Q34 182 45 224T75 304T121 371T178 425Q208 449 245 467T315 485Q360 485 379 466T398
415Q398 382 377 352T318 297T232 255T126 230Q124 216 123 201T121 171Q121 115 137 85T189 54Q207 54 224 61T258 79T289 105T313 134L333 122Q326 106 310 84T271 40T219 4T155 -11ZM291 448Q271 448 249 433T204 393T163 333T133 258Q164 262 196 277T254 315T298
365T315 418Q315 432 309 440T291 448Z" />
<glyph unicode="&#xeb;" glyph-name="edieresis" horiz-adv-x="404" d="M190 644Q190 665 204 679T240 694Q261 694 276 680T291 644Q291 623 276 609T240 595Q219 595 205 609T190 644ZM360 644Q360 665 374 679T410 694Q431 694 446 680T461 644Q461 623 446
609T410 595Q389 595 375 609T360 644ZM155 -11Q123 -11 100 1T63 34T41 80T34 133Q34 182 45 224T75 304T121 371T178 425Q208 449 245 467T315 485Q360 485 379 466T398 415Q398 382 377 352T318 297T232 255T126 230Q124 216 123 201T121 171Q121 115 137 85T189
54Q207 54 224 61T258 79T289 105T313 134L333 122Q326 106 310 84T271 40T219 4T155 -11ZM291 448Q271 448 249 433T204 393T163 333T133 258Q164 262 196 277T254 315T298 365T315 418Q315 432 309 440T291 448Z" />
<glyph unicode="&#xec;" glyph-name="igrave" horiz-adv-x="293" d="M438 756L479 551H435L366 737V756H438ZM139 61Q172 71 201 99T248 159L268 153Q258 124 239 95T196 42T148 4T106 -11Q72 -11 60 15T60 90L135 396L50 415V420Q67 438 86 452Q103 464 124 474T171
485Q200 485 211 461T210 381L136 62L139 61Z" />
<glyph unicode="&#xed;" glyph-name="iacute" horiz-adv-x="293" d="M139 61Q172 71 201 99T248 159L268 153Q258 124 239 95T196 42T148 4T106 -11Q72 -11 60 15T60 90L135 396L50 415V420Q67 438 86 452Q103 464 124 474T171 485Q200 485 211 461T210 381L136
62L139 61ZM340 756V737L216 551H170L269 756H340Z" />
<glyph unicode="&#xee;" glyph-name="icircumflex" horiz-adv-x="293" d="M139 61Q172 71 201 99T248 159L268 153Q258 124 239 95T196 42T148 4T106 -11Q72 -11 60 15T60 90L135 396L50 415V420Q67 438 86 452Q103 464 124 474T171 485Q200 485 211 461T210 381L136
62L139 61ZM326 551L465 756H521L572 551H530L481 692L370 551H326Z" />
<glyph unicode="&#xef;" glyph-name="idieresis" horiz-adv-x="293" d="M75 644Q75 665 89 679T125 694Q146 694 161 680T176 644Q176 623 161 609T125 595Q104 595 90 609T75 644ZM245 644Q245 665 259 679T295 694Q316 694 331 680T346 644Q346 623 331 609T295
595Q274 595 260 609T245 644ZM139 61Q172 71 201 99T248 159L268 153Q258 124 239 95T196 42T148 4T106 -11Q72 -11 60 15T60 90L135 396L50 415V420Q67 438 86 452Q103 464 124 474T171 485Q200 485 211 461T210 381L136 62L139 61Z" />
<glyph unicode="&#xf0;" glyph-name="eth" horiz-adv-x="477" d="M127 582L254 649Q225 689 181 735L200 761Q263 723 307 677L430 743L444 711L332 651Q391 582 417 505T444 350Q444 284 425 220T370 104T285 21T175 -11Q139 -11 112 3T68 41T43 96T34 163Q34
216 52 272T104 376T187 453T299 483Q310 483 320 480T341 472Q332 508 316 545T274 621L141 550L127 582ZM179 19Q212 19 243 50T300 128T340 232T355 341V352Q352 455 293 455Q270 455 249 440T208 400T174 342T147 274T129 203T123 137Q123 120 124 100T132
61T149 31T179 19Z" />
<glyph unicode="&#xf1;" glyph-name="ntilde" horiz-adv-x="548" d="M139 400L54 415V420Q70 438 88 452Q104 464 123 474T164 485Q206 485 215 453T208 363L181 270H185Q210 307 238 345T296 414T360 464T428 484Q461 484 474 460T473 378L393 62L396 61Q430
71 458 99T505 159L525 153Q515 123 496 94T453 42T406 4T364 -11Q328 -11 316 15T317 91L392 371Q397 388 394 399T374 411Q352 411 328 394T280 348T232 282T189 205T154 125T132 52L122 7L47 -14L34 -1L139 400ZM325 633Q298 646 282 649T254 647T236 629T220
596L191 609L196 623Q209 661 226 682T265 711T310 715T361 698L384 687Q414 672 433 669T464 670T484 690T502 726L530 714L524 697Q509 656 492 633T453 602T406 599T350 621L325 633Z" />
<glyph unicode="&#xf2;" glyph-name="ograve" horiz-adv-x="477" d="M123 137Q123 120 124 100T132 61T149 31T178 19Q211 19 242 49T298 126T337 228T352 331Q352 341 351 362T345 403T328 439T293 455Q258 455 228 422T174 341T137 237T123 137ZM303 485Q341
485 368 471T411 432T435 378T443 318Q443 264 425 206T372 99T288 20T175 -11Q139 -11 112 3T68 41T43 96T34 163Q34 216 52 273T105 377T190 454T303 485ZM287 756L328 551H284L215 737V756H287Z" />
<glyph unicode="&#xf3;" glyph-name="oacute" horiz-adv-x="477" d="M445 756V737L321 551H275L374 756H445ZM123 137Q123 120 124 100T132 61T149 31T178 19Q211 19 242 49T298 126T337 228T352 331Q352 341 351 362T345 403T328 439T293 455Q258 455 228 422T174
341T137 237T123 137ZM303 485Q341 485 368 471T411 432T435 378T443 318Q443 264 425 206T372 99T288 20T175 -11Q139 -11 112 3T68 41T43 96T34 163Q34 216 52 273T105 377T190 454T303 485Z" />
<glyph unicode="&#xf4;" glyph-name="ocircumflex" horiz-adv-x="477" d="M175 551L314 756H370L421 551H379L330 692L219 551H175ZM123 137Q123 120 124 100T132 61T149 31T178 19Q211 19 242 49T298 126T337 228T352 331Q352 341 351 362T345 403T328 439T293
455Q258 455 228 422T174 341T137 237T123 137ZM303 485Q341 485 368 471T411 432T435 378T443 318Q443 264 425 206T372 99T288 20T175 -11Q139 -11 112 3T68 41T43 96T34 163Q34 216 52 273T105 377T190 454T303 485Z" />
<glyph unicode="&#xf5;" glyph-name="otilde" horiz-adv-x="477" d="M289 633Q262 646 246 649T218 647T200 629T184 596L155 609L160 623Q173 661 190 682T229 711T274 715T325 698L348 687Q378 672 397 669T428 670T448 690T466 726L494 714L488 697Q473 656
456 633T417 602T370 599T314 621L289 633ZM123 137Q123 120 124 100T132 61T149 31T178 19Q211 19 242 49T298 126T337 228T352 331Q352 341 351 362T345 403T328 439T293 455Q258 455 228 422T174 341T137 237T123 137ZM303 485Q341 485 368 471T411 432T435
378T443 318Q443 264 425 206T372 99T288 20T175 -11Q139 -11 112 3T68 41T43 96T34 163Q34 216 52 273T105 377T190 454T303 485Z" />
<glyph unicode="&#xf6;" glyph-name="odieresis" horiz-adv-x="477" d="M123 137Q123 120 124 100T132 61T149 31T178 19Q211 19 242 49T298 126T337 228T352 331Q352 341 351 362T345 403T328 439T293 455Q258 455 228 422T174 341T137 237T123 137ZM303 485Q341
485 368 471T411 432T435 378T443 318Q443 264 425 206T372 99T288 20T175 -11Q139 -11 112 3T68 41T43 96T34 163Q34 216 52 273T105 377T190 454T303 485ZM186 644Q186 665 200 679T236 694Q257 694 272 680T287 644Q287 623 272 609T236 595Q215 595 201 609T186
644ZM356 644Q356 665 370 679T406 694Q427 694 442 680T457 644Q457 623 442 609T406 595Q385 595 371 609T356 644Z" />
<glyph unicode="&#xf7;" glyph-name="divide" horiz-adv-x="600" d="M61 268V326H535V268H61ZM297 56Q269 56 249 76T228 126Q228 154 248 174T297 195Q326 195 346 175T367 126Q367 97 347 77T297 56ZM298 398Q270 398 250 418T229 468Q229 496 249 516T298 537Q327
537 347 517T368 468Q368 439 348 419T298 398Z" />
<glyph unicode="&#xf8;" glyph-name="oslash" horiz-adv-x="477" d="M-7 -50L68 49Q34 97 34 163Q34 216 52 273T105 377T190 454T303 485Q344 485 376 461L425 526H470L402 436Q422 412 432 381T443 318Q443 264 425 206T372 99T288 20T175 -11Q128 -11 92 22L38
-50H-7ZM357 343Q357 351 357 358T356 374L125 66Q138 19 178 19Q211 19 243 51T301 131T341 236T357 343ZM118 116L346 420Q339 436 326 445T293 455Q270 455 248 439T207 397T171 337T143 267T125 196T118 131V116Z" />
<glyph unicode="&#xf9;" glyph-name="ugrave" horiz-adv-x="539" d="M49 415V420Q65 438 84 452Q101 464 122 474T169 485Q202 485 211 459T209 382L138 90Q134 73 137 67T151 60Q169 60 192 78T241 126T290 191T334 262T367 327T385 375L405 464L479 485L492
472L392 62L395 61Q428 71 457 99T504 159L524 153Q514 124 495 95T452 42T404 4T362 -11Q327 -11 317 16T320 94L351 217H348Q322 186 295 146T237 71T172 12T98 -13Q84 -13 73 -7T56 12T50 48T58 102L135 400L49 415ZM313 756L354 551H310L241 737V756H313Z"
/>
<glyph unicode="&#xfa;" glyph-name="uacute" horiz-adv-x="539" d="M49 415V420Q65 438 84 452Q101 464 122 474T169 485Q202 485 211 459T209 382L138 90Q134 73 137 67T151 60Q169 60 192 78T241 126T290 191T334 262T367 327T385 375L405 464L479 485L492
472L392 62L395 61Q428 71 457 99T504 159L524 153Q514 124 495 95T452 42T404 4T362 -11Q327 -11 317 16T320 94L351 217H348Q322 186 295 146T237 71T172 12T98 -13Q84 -13 73 -7T56 12T50 48T58 102L135 400L49 415ZM472 756V737L348 551H302L401 756H472Z"
/>
<glyph unicode="&#xfb;" glyph-name="ucircumflex" horiz-adv-x="539" d="M201 551L340 756H396L447 551H405L356 692L245 551H201ZM49 415V420Q65 438 84 452Q101 464 122 474T169 485Q202 485 211 459T209 382L138 90Q134 73 137 67T151 60Q169 60 192 78T241
126T290 191T334 262T367 327T385 375L405 464L479 485L492 472L392 62L395 61Q428 71 457 99T504 159L524 153Q514 124 495 95T452 42T404 4T362 -11Q327 -11 317 16T320 94L351 217H348Q322 186 295 146T237 71T172 12T98 -13Q84 -13 73 -7T56 12T50 48T58 102L135
400L49 415Z" />
<glyph unicode="&#xfc;" glyph-name="udieresis" horiz-adv-x="539" d="M49 415V420Q65 438 84 452Q101 464 122 474T169 485Q202 485 211 459T209 382L138 90Q134 73 137 67T151 60Q169 60 192 78T241 126T290 191T334 262T367 327T385 375L405 464L479 485L492
472L392 62L395 61Q428 71 457 99T504 159L524 153Q514 124 495 95T452 42T404 4T362 -11Q327 -11 317 16T320 94L351 217H348Q322 186 295 146T237 71T172 12T98 -13Q84 -13 73 -7T56 12T50 48T58 102L135 400L49 415ZM213 644Q213 665 227 679T263 694Q284 694
299 680T314 644Q314 623 299 609T263 595Q242 595 228 609T213 644ZM383 644Q383 665 397 679T433 694Q454 694 469 680T484 644Q484 623 469 609T433 595Q412 595 398 609T383 644Z" />
<glyph unicode="&#xfd;" glyph-name="yacute" horiz-adv-x="469" d="M26 296Q27 335 37 369T63 428T99 469T143 484Q168 484 189 466T224 415T246 335T254 230Q254 164 245 100T219 -7H223Q250 23 275 57T323 130T363 210T389 299Q391 349 381 389T354 464Q367
471 378 475T402 479Q422 479 439 464T457 404Q457 336 428 261T351 111T245 -29T128 -147T16 -228T-71 -258Q-97 -258 -117 -243T-137 -198Q-137 -177 -121 -160T-79 -143Q-55 -143 -42 -159T-21 -206H-18Q42 -182 79 -134T138 -26T167 96T175 208Q175 250 171
285T158 347T140 389T116 404Q96 404 79 379T50 296H26ZM436 756V737L312 551H266L365 756H436Z" />
<glyph unicode="&#xfe;" glyph-name="thorn" horiz-adv-x="506" d="M182 673L123 697L130 719L280 746L169 294H174Q191 327 214 360T265 422T322 467T382 485Q425 485 450 452T475 361Q475 325 465 283T435 199T389 119T330 50T260 3T182 -15Q138 -15 99 5L50
-201H185L176 -240H-114L-111 -218Q-97 -216 -83 -212Q-71 -208 -56 -203T-26 -188L182 673ZM120 81Q123 72 129 61T144 41T166 25T194 19Q228 19 261 51T322 132T365 238T382 346Q382 367 378 380T366 400T351 410T336 413Q316 413 295 399T253 362T213 308T178
247T151 186T133 133L120 81Z" />
<glyph unicode="&#xff;" glyph-name="ydieresis" horiz-adv-x="469" d="M177 644Q177 665 191 679T227 694Q248 694 263 680T278 644Q278 623 263 609T227 595Q206 595 192 609T177 644ZM347 644Q347 665 361 679T397 694Q418 694 433 680T448 644Q448 623 433
609T397 595Q376 595 362 609T347 644ZM26 296Q27 335 37 369T63 428T99 469T143 484Q168 484 189 466T224 415T246 335T254 230Q254 164 245 100T219 -7H223Q250 23 275 57T323 130T363 210T389 299Q391 349 381 389T354 464Q367 471 378 475T402 479Q422 479
439 464T457 404Q457 336 428 261T351 111T245 -29T128 -147T16 -228T-71 -258Q-97 -258 -117 -243T-137 -198Q-137 -177 -121 -160T-79 -143Q-55 -143 -42 -159T-21 -206H-18Q42 -182 79 -134T138 -26T167 96T175 208Q175 250 171 285T158 347T140 389T116 404Q96
404 79 379T50 296H26Z" />
<glyph unicode="&#x100;" glyph-name="Amacron" horiz-adv-x="674" d="M286 842H568L555 782H273L286 842ZM-35 32L23 55L376 664L409 669L444 679L535 52L597 32L591 0H352L359 33L444 56L418 236H186L92 60L181 33L174 0H-41L-35 32ZM218 296H410L370 579H369L218 296Z" />
<glyph unicode="&#x101;" glyph-name="amacron" horiz-adv-x="536" d="M249 687H531L518 627H236L249 687ZM489 491L375 62L378 61Q411 71 440 100T486 159L506 153Q495 121 475 92T433 39T388 3T348 -11Q313 -11 300 16T306 102L336 205H333Q315 181 292 144T240
72T177 11T106 -14Q68 -14 47 13T25 80Q24 126 38 173T76 265T133 347T202 414T275 459T348 476Q370 476 388 471T419 457L428 491H489ZM153 61Q169 61 190 77T233 119T279 178T321 244T355 307T377 358L389 396Q375 413 358 424T320 436Q291 436 257 407T192 332T141
227T120 112Q120 90 127 76T153 61Z" />
<glyph unicode="&#x102;" glyph-name="Abreve" horiz-adv-x="674" d="M412 732Q364 732 338 767T312 865H353Q366 793 425 793Q454 793 477 814T514 865H552Q535 805 501 769T412 732ZM-35 32L23 55L376 664L409 669L444 679L535 52L597 32L591 0H352L359 33L444
56L418 236H186L92 60L181 33L174 0H-41L-35 32ZM218 296H410L370 579H369L218 296Z" />
<glyph unicode="&#x103;" glyph-name="abreve" horiz-adv-x="536" d="M363 566Q310 566 284 609T265 729H300Q307 627 376 627Q394 627 410 635T438 658T461 691T477 729H511Q495 657 460 612T363 566ZM489 491L375 62L378 61Q411 71 440 100T486 159L506 153Q495
121 475 92T433 39T388 3T348 -11Q313 -11 300 16T306 102L336 205H333Q315 181 292 144T240 72T177 11T106 -14Q68 -14 47 13T25 80Q24 126 38 173T76 265T133 347T202 414T275 459T348 476Q370 476 388 471T419 457L428 491H489ZM153 61Q169 61 190 77T233 119T279
178T321 244T355 307T377 358L389 396Q375 413 358 424T320 436Q291 436 257 407T192 332T141 227T120 112Q120 90 127 76T153 61Z" />
<glyph unicode="&#x104;" glyph-name="Aogonek" horiz-adv-x="674" d="M-35 32L23 55L376 664L409 669L444 679L535 52L597 32L591 0H467Q428 -28 404 -49T365 -87T346 -121T341 -153Q341 -191 381 -191Q400 -191 421 -182T473 -145L487 -162Q473 -179 457 -196T421
-227T380 -250T330 -259Q296 -259 277 -242T257 -187Q257 -141 309 -88T447 33L418 236H186L92 60L181 33L174 0H-41L-35 32ZM218 296H410L370 579H369L218 296Z" />
<glyph unicode="&#x105;" glyph-name="aogonek" horiz-adv-x="536" d="M343 -8Q313 -5 302 20T306 102L336 205H333Q315 181 292 144T240 72T177 11T106 -14Q68 -14 47 13T25 80Q24 126 38 173T76 265T133 347T202 414T275 459T348 476Q370 476 388 471T419 457L428
491H489L375 62L378 61Q411 71 440 100T486 159L506 153Q498 130 482 101T429 36L351 -43Q310 -84 290 -108T269 -157Q269 -176 280 -186T311 -197Q334 -197 353 -184T397 -142L415 -155Q403 -174 388 -192T354 -226T315 -250T270 -259Q238 -259 215 -239T192 -182Q192
-160 202 -141T233 -102T282 -60T348 -11V-8H343ZM153 61Q169 61 190 77T233 119T279 178T321 244T355 307T377 358L389 396Q375 413 358 424T320 436Q291 436 257 407T192 332T141 227T120 112Q120 90 127 76T153 61Z" />
<glyph unicode="&#x106;" glyph-name="Cacute" horiz-adv-x="705" d="M638 875V855L503 736H451L545 875H638ZM361 -17Q298 -17 243 1T146 57T80 153T56 290Q56 357 83 426T165 552T300 643T485 679Q543 679 585 664T668 626L651 448H616L588 593Q568 610 538
623T461 636Q393 636 339 604T246 521T187 407T166 283Q167 151 224 89T374 26Q416 26 445 35T497 57L596 210H632L578 30Q559 24 537 16T488 1T430 -12T361 -17Z" />
<glyph unicode="&#x107;" glyph-name="cacute" horiz-adv-x="412" d="M263 429Q237 429 213 400T170 329T140 239T129 152Q129 97 147 75T194 52Q209 52 229 61T271 85T313 120T350 163L368 151Q357 130 335 102T285 48T223 4T158 -14Q130 -14 108 -3T69 27T45
72T36 128Q36 164 45 204T73 284T122 361T193 428Q206 438 222 448T256 466T290 480T320 485Q358 485 386 470T414 435Q414 423 410 411T401 390T392 374T386 367Q373 376 358 387T326 407T294 422T263 429ZM449 756V737L325 551H279L378 756H449Z" />
<glyph unicode="&#x108;" glyph-name="Ccircumflex" horiz-adv-x="705" d="M354 736L470 865H546L611 736H565L500 815L407 736H354ZM361 -17Q298 -17 243 1T146 57T80 153T56 290Q56 357 83 426T165 552T300 643T485 679Q543 679 585 664T668 626L651 448H616L588
593Q568 610 538 623T461 636Q393 636 339 604T246 521T187 407T166 283Q167 151 224 89T374 26Q416 26 445 35T497 57L596 210H632L578 30Q559 24 537 16T488 1T430 -12T361 -17Z" />
<glyph unicode="&#x109;" glyph-name="ccircumflex" horiz-adv-x="412" d="M179 551L318 756H374L425 551H383L334 692L223 551H179ZM263 429Q237 429 213 400T170 329T140 239T129 152Q129 97 147 75T194 52Q209 52 229 61T271 85T313 120T350 163L368 151Q357
130 335 102T285 48T223 4T158 -14Q130 -14 108 -3T69 27T45 72T36 128Q36 164 45 204T73 284T122 361T193 428Q206 438 222 448T256 466T290 480T320 485Q358 485 386 470T414 435Q414 423 410 411T401 390T392 374T386 367Q373 376 358 387T326 407T294 422T263
429Z" />
<glyph unicode="&#x10a;" glyph-name="Cdotaccent" horiz-adv-x="705" d="M440 817Q440 843 458 861T502 879Q528 879 546 861T564 817Q564 791 546 773T502 755Q476 755 458 773T440 817ZM361 -17Q298 -17 243 1T146 57T80 153T56 290Q56 357 83 426T165 552T300
643T485 679Q543 679 585 664T668 626L651 448H616L588 593Q568 610 538 623T461 636Q393 636 339 604T246 521T187 407T166 283Q167 151 224 89T374 26Q416 26 445 35T497 57L596 210H632L578 30Q559 24 537 16T488 1T430 -12T361 -17Z" />
<glyph unicode="&#x10b;" glyph-name="cdotaccent" horiz-adv-x="412" d="M274 651Q274 673 289 688T327 704Q349 704 364 689T380 651Q380 629 365 614T327 598Q305 598 290 613T274 651ZM263 429Q237 429 213 400T170 329T140 239T129 152Q129 97 147 75T194
52Q209 52 229 61T271 85T313 120T350 163L368 151Q357 130 335 102T285 48T223 4T158 -14Q130 -14 108 -3T69 27T45 72T36 128Q36 164 45 204T73 284T122 361T193 428Q206 438 222 448T256 466T290 480T320 485Q358 485 386 470T414 435Q414 423 410 411T401 390T392
374T386 367Q373 376 358 387T326 407T294 422T263 429Z" />
<glyph unicode="&#x10c;" glyph-name="Ccaron" horiz-adv-x="705" d="M361 -17Q298 -17 243 1T146 57T80 153T56 290Q56 357 83 426T165 552T300 643T485 679Q543 679 585 664T668 626L651 448H616L588 593Q568 610 538 623T461 636Q393 636 339 604T246 521T187
407T166 283Q167 151 224 89T374 26Q416 26 445 35T497 57L596 210H632L578 30Q559 24 537 16T488 1T430 -12T361 -17ZM641 865L525 736H449L384 865H430L494 785L588 865H641Z" />
<glyph unicode="&#x10d;" glyph-name="ccaron" horiz-adv-x="412" d="M470 756L331 551H275L224 756H266L315 614L426 756H470ZM263 429Q237 429 213 400T170 329T140 239T129 152Q129 97 147 75T194 52Q209 52 229 61T271 85T313 120T350 163L368 151Q357 130
335 102T285 48T223 4T158 -14Q130 -14 108 -3T69 27T45 72T36 128Q36 164 45 204T73 284T122 361T193 428Q206 438 222 448T256 466T290 480T320 485Q358 485 386 470T414 435Q414 423 410 411T401 390T392 374T386 367Q373 376 358 387T326 407T294 422T263 429Z"
/>
<glyph unicode="&#x10e;" glyph-name="Dcaron" horiz-adv-x="743" d="M553 865L437 736H361L296 865H342L406 785L500 865H553ZM200 118Q195 93 201 77T219 53T250 41T290 38Q376 39 438 68T540 143T599 249T619 372Q619 436 597 484T533 565T432 613T301 629L200
118ZM12 33L96 56L204 606L129 632L135 664L341 666Q430 667 500 648T619 591T694 497T720 369Q720 285 685 216T591 98T454 23T290 -3L5 0L12 33Z" />
<glyph unicode="&#x10f;" glyph-name="dcaron" horiz-adv-x="555" d="M322 485Q345 485 366 478T404 462L456 673L397 697L404 719L551 746L388 62L391 61Q424 71 453 99T500 159L520 153Q510 124 491 95T448 42T400 4T358 -11Q323 -11 312 15T317 102L341 194H338Q321
174 300 139T251 70T193 11T125 -14Q83 -14 57 14T31 102Q31 166 54 233T116 357T209 449T322 485ZM388 396Q376 417 354 435T311 453Q287 453 264 438T221 398T184 340T154 272T135 201T128 135Q128 87 139 73T166 58Q189 58 221 90T286 168T344 267T380 361L388
396ZM585 536L630 746H719V738L613 536H585Z" />
<glyph unicode="&#x110;" glyph-name="Dcroat" horiz-adv-x="743" d="M12 33L96 56L145 306H47L56 351H154L204 606L129 632L135 664L341 666Q430 667 500 648T619 591T694 497T720 369Q720 285 685 216T591 98T454 23T290 -3L5 0L12 33ZM237 306L200 118Q195
93 201 77T219 53T250 41T290 38Q376 39 438 68T540 143T599 249T619 372Q619 436 597 484T533 565T432 613T301 629L246 351H419L410 306H237Z" />
<glyph unicode="&#x111;" glyph-name="dcroat" horiz-adv-x="555" d="M256 597H437L456 673L397 697L404 719L551 746L515 597H601L591 553H505L388 62L391 61Q424 71 453 99T500 159L520 153Q510 124 491 95T448 42T400 4T358 -11Q323 -11 312 15T317 102L341
194H338Q321 174 300 139T251 70T193 11T125 -14Q83 -14 57 14T31 102Q31 166 54 233T116 357T209 449T322 485Q345 485 366 478T404 462L427 553H246L256 597ZM388 396Q376 417 354 435T311 453Q287 453 264 438T221 398T184 340T154 272T135 201T128 135Q128
87 139 73T166 58Q189 58 221 90T286 168T344 267T380 361L388 396Z" />
<glyph unicode="&#x112;" glyph-name="Emacron" horiz-adv-x="603" d="M278 842H560L547 782H265L278 842ZM231 321L178 47H420L508 179H544L498 0H-4L2 33L88 56L196 605L120 632L126 664H525L599 668L556 491H522L513 619H290L241 367H374L419 449H449L408 245H375L365
321H231Z" />
<glyph unicode="&#x113;" glyph-name="emacron" horiz-adv-x="404" d="M193 687H475L462 627H180L193 687ZM155 -11Q123 -11 100 1T63 34T41 80T34 133Q34 182 45 224T75 304T121 371T178 425Q208 449 245 467T315 485Q360 485 379 466T398 415Q398 382 377 352T318
297T232 255T126 230Q124 216 123 201T121 171Q121 115 137 85T189 54Q207 54 224 61T258 79T289 105T313 134L333 122Q326 106 310 84T271 40T219 4T155 -11ZM291 448Q271 448 249 433T204 393T163 333T133 258Q164 262 196 277T254 315T298 365T315 418Q315 432
309 440T291 448Z" />
<glyph unicode="&#x114;" glyph-name="Ebreve" horiz-adv-x="603" d="M397 732Q349 732 323 767T297 865H338Q351 793 410 793Q439 793 462 814T499 865H537Q520 805 486 769T397 732ZM231 321L178 47H420L508 179H544L498 0H-4L2 33L88 56L196 605L120 632L126
664H525L599 668L556 491H522L513 619H290L241 367H374L419 449H449L408 245H375L365 321H231Z" />
<glyph unicode="&#x115;" glyph-name="ebreve" horiz-adv-x="404" d="M155 -11Q123 -11 100 1T63 34T41 80T34 133Q34 182 45 224T75 304T121 371T178 425Q208 449 245 467T315 485Q360 485 379 466T398 415Q398 382 377 352T318 297T232 255T126 230Q124 216
123 201T121 171Q121 115 137 85T189 54Q207 54 224 61T258 79T289 105T313 134L333 122Q326 106 310 84T271 40T219 4T155 -11ZM291 448Q271 448 249 433T204 393T163 333T133 258Q164 262 196 277T254 315T298 365T315 418Q315 432 309 440T291 448ZM307 566Q254
566 228 609T209 729H244Q251 627 320 627Q338 627 354 635T382 658T405 691T421 729H455Q439 657 404 612T307 566Z" />
<glyph unicode="&#x116;" glyph-name="Edotaccent" horiz-adv-x="603" d="M361 817Q361 843 379 861T423 879Q449 879 467 861T485 817Q485 791 467 773T423 755Q397 755 379 773T361 817ZM231 321L178 47H420L508 179H544L498 0H-4L2 33L88 56L196 605L120 632L126
664H525L599 668L556 491H522L513 619H290L241 367H374L419 449H449L408 245H375L365 321H231Z" />
<glyph unicode="&#x117;" glyph-name="edotaccent" horiz-adv-x="404" d="M273 651Q273 673 288 688T326 704Q348 704 363 689T379 651Q379 629 364 614T326 598Q304 598 289 613T273 651ZM155 -11Q123 -11 100 1T63 34T41 80T34 133Q34 182 45 224T75 304T121
371T178 425Q208 449 245 467T315 485Q360 485 379 466T398 415Q398 382 377 352T318 297T232 255T126 230Q124 216 123 201T121 171Q121 115 137 85T189 54Q207 54 224 61T258 79T289 105T313 134L333 122Q326 106 310 84T271 40T219 4T155 -11ZM291 448Q271 448
249 433T204 393T163 333T133 258Q164 262 196 277T254 315T298 365T315 418Q315 432 309 440T291 448Z" />
<glyph unicode="&#x118;" glyph-name="Eogonek" horiz-adv-x="603" d="M-4 0L2 33L88 56L196 605L120 632L126 664H525L599 668L556 491H522L513 619H290L241 367H374L419 449H449L408 245H375L365 321H231L178 47H420L508 179H544L498 0H436Q400 -32 376 -54T337
-94T316 -125T309 -156Q309 -171 318 -181T349 -192Q372 -192 391 -182T442 -145L456 -162Q441 -179 425 -196T391 -227T351 -250T304 -259Q266 -259 246 -240T226 -189Q226 -163 237 -142T270 -98T324 -53T397 0H-4Z" />
<glyph unicode="&#x119;" glyph-name="eogonek" horiz-adv-x="404" d="M189 -7Q182 -9 174 -10T155 -11Q123 -11 100 1T63 34T41 80T34 133Q34 182 45 224T75 304T121 371T178 425Q208 449 245 467T315 485Q360 485 379 466T398 415Q398 382 377 352T318 297T232
255T126 230Q124 216 123 201T121 171Q121 115 138 84T193 53Q211 53 228 60T261 79T290 105T313 134L333 122Q324 104 309 82T266 32L184 -52Q146 -91 129 -113T111 -156Q111 -175 121 -186T151 -197Q173 -197 192 -186T238 -142L256 -157Q244 -175 229 -193T195
-226T156 -250T111 -259Q79 -259 56 -238T33 -182Q33 -158 43 -139T72 -100T121 -59T189 -10V-7ZM291 448Q271 448 249 433T204 393T163 333T133 258Q164 262 196 277T254 315T298 365T315 418Q315 432 309 440T291 448Z" />
<glyph unicode="&#x11a;" glyph-name="Ecaron" horiz-adv-x="603" d="M551 865L435 736H359L294 865H340L404 785L498 865H551ZM231 321L178 47H420L508 179H544L498 0H-4L2 33L88 56L196 605L120 632L126 664H525L599 668L556 491H522L513 619H290L241 367H374L419
449H449L408 245H375L365 321H231Z" />
<glyph unicode="&#x11b;" glyph-name="ecaron" horiz-adv-x="404" d="M470 756L331 551H275L224 756H266L315 614L426 756H470ZM155 -11Q123 -11 100 1T63 34T41 80T34 133Q34 182 45 224T75 304T121 371T178 425Q208 449 245 467T315 485Q360 485 379 466T398
415Q398 382 377 352T318 297T232 255T126 230Q124 216 123 201T121 171Q121 115 137 85T189 54Q207 54 224 61T258 79T289 105T313 134L333 122Q326 106 310 84T271 40T219 4T155 -11ZM291 448Q271 448 249 433T204 393T163 333T133 258Q164 262 196 277T254 315T298
365T315 418Q315 432 309 440T291 448Z" />
<glyph unicode="&#x11c;" glyph-name="Gcircumflex" horiz-adv-x="706" d="M345 736L461 865H537L602 736H556L491 815L398 736H345ZM374 26Q393 26 413 30T450 44T480 73T498 118L522 242L437 262L443 291H677L670 258L614 242L574 39Q557 33 537 24T492 5T435
-10T361 -17Q298 -17 243 1T146 57T80 153T56 291Q56 361 85 430T170 555T304 645T482 679Q541 679 583 664T664 627L647 454H612L583 595Q562 611 531 623T456 636Q389 636 335 604T243 521T184 407T163 283Q163 217 179 169T222 89T288 42T374 26Z" />
<glyph unicode="&#x11d;" glyph-name="gcircumflex" horiz-adv-x="420" d="M263 484Q281 484 297 482T335 474L459 479L446 412L354 436V433Q361 425 370 405T379 358Q379 319 363 278T318 204T250 149T164 128Q160 128 156 128T148 129Q132 117 127 108T121 89Q121
76 129 68T156 50L311 -27Q351 -47 365 -68T381 -113Q381 -141 362 -167T308 -214T225 -247T119 -260Q73 -260 36 -253T-28 -232T-69 -201T-84 -161Q-84 -137 -67 -118T-22 -83T44 -54T123 -31V-29L114 -25Q92 -14 73 3T53 49Q53 65 60 78T77 103T98 122T119 135V137Q84
151 65 183T44 254Q44 292 58 333T100 407T169 462T263 484ZM160 -47Q124 -57 96 -66T47 -85T17 -109T6 -139Q6 -157 18 -172T51 -197T103 -214T168 -221Q201 -221 226 -215T269 -199T295 -176T304 -150Q305 -134 291 -119T229 -80L160 -47ZM253 452Q228 452 205
431T163 377T135 305T124 230Q124 201 134 181T168 160Q194 159 218 181T260 237T289 310T300 385Q300 412 289 432T253 452ZM144 551L283 756H339L390 551H348L299 692L188 551H144Z" />
<glyph unicode="&#x11e;" glyph-name="Gbreve" horiz-adv-x="706" d="M476 732Q428 732 402 767T376 865H417Q430 793 489 793Q518 793 541 814T578 865H616Q599 805 565 769T476 732ZM374 26Q393 26 413 30T450 44T480 73T498 118L522 242L437 262L443 291H677L670
258L614 242L574 39Q557 33 537 24T492 5T435 -10T361 -17Q298 -17 243 1T146 57T80 153T56 291Q56 361 85 430T170 555T304 645T482 679Q541 679 583 664T664 627L647 454H612L583 595Q562 611 531 623T456 636Q389 636 335 604T243 521T184 407T163 283Q163 217
179 169T222 89T288 42T374 26Z" />
<glyph unicode="&#x11f;" glyph-name="gbreve" horiz-adv-x="420" d="M273 566Q220 566 194 609T175 729H210Q217 627 286 627Q304 627 320 635T348 658T371 691T387 729H421Q405 657 370 612T273 566ZM263 484Q281 484 297 482T335 474L459 479L446 412L354 436V433Q361
425 370 405T379 358Q379 319 363 278T318 204T250 149T164 128Q160 128 156 128T148 129Q132 117 127 108T121 89Q121 76 129 68T156 50L311 -27Q351 -47 365 -68T381 -113Q381 -141 362 -167T308 -214T225 -247T119 -260Q73 -260 36 -253T-28 -232T-69 -201T-84
-161Q-84 -137 -67 -118T-22 -83T44 -54T123 -31V-29L114 -25Q92 -14 73 3T53 49Q53 65 60 78T77 103T98 122T119 135V137Q84 151 65 183T44 254Q44 292 58 333T100 407T169 462T263 484ZM160 -47Q124 -57 96 -66T47 -85T17 -109T6 -139Q6 -157 18 -172T51 -197T103
-214T168 -221Q201 -221 226 -215T269 -199T295 -176T304 -150Q305 -134 291 -119T229 -80L160 -47ZM253 452Q228 452 205 431T163 377T135 305T124 230Q124 201 134 181T168 160Q194 159 218 181T260 237T289 310T300 385Q300 412 289 432T253 452Z" />
<glyph unicode="&#x120;" glyph-name="Gdotaccent" horiz-adv-x="706" d="M374 26Q393 26 413 30T450 44T480 73T498 118L522 242L437 262L443 291H677L670 258L614 242L574 39Q557 33 537 24T492 5T435 -10T361 -17Q298 -17 243 1T146 57T80 153T56 291Q56 361
85 430T170 555T304 645T482 679Q541 679 583 664T664 627L647 454H612L583 595Q562 611 531 623T456 636Q389 636 335 604T243 521T184 407T163 283Q163 217 179 169T222 89T288 42T374 26ZM430 817Q430 843 448 861T492 879Q518 879 536 861T554 817Q554 791
536 773T492 755Q466 755 448 773T430 817Z" />
<glyph unicode="&#x121;" glyph-name="gdotaccent" horiz-adv-x="420" d="M239 651Q239 673 254 688T292 704Q314 704 329 689T345 651Q345 629 330 614T292 598Q270 598 255 613T239 651ZM263 484Q281 484 297 482T335 474L459 479L446 412L354 436V433Q361 425
370 405T379 358Q379 319 363 278T318 204T250 149T164 128Q160 128 156 128T148 129Q132 117 127 108T121 89Q121 76 129 68T156 50L311 -27Q351 -47 365 -68T381 -113Q381 -141 362 -167T308 -214T225 -247T119 -260Q73 -260 36 -253T-28 -232T-69 -201T-84 -161Q-84
-137 -67 -118T-22 -83T44 -54T123 -31V-29L114 -25Q92 -14 73 3T53 49Q53 65 60 78T77 103T98 122T119 135V137Q84 151 65 183T44 254Q44 292 58 333T100 407T169 462T263 484ZM160 -47Q124 -57 96 -66T47 -85T17 -109T6 -139Q6 -157 18 -172T51 -197T103 -214T168
-221Q201 -221 226 -215T269 -199T295 -176T304 -150Q305 -134 291 -119T229 -80L160 -47ZM253 452Q228 452 205 431T163 377T135 305T124 230Q124 201 134 181T168 160Q194 159 218 181T260 237T289 310T300 385Q300 412 289 432T253 452Z" />
<glyph unicode="&#x122;" glyph-name="Gcommaaccent" horiz-adv-x="706" d="M374 26Q393 26 413 30T450 44T480 73T498 118L522 242L437 262L443 291H677L670 258L614 242L574 39Q557 33 537 24T492 5T435 -10T361 -17Q298 -17 243 1T146 57T80 153T56 291Q56
361 85 430T170 555T304 645T482 679Q541 679 583 664T664 627L647 454H612L583 595Q562 611 531 623T456 636Q389 636 335 604T243 521T184 407T163 283Q163 217 179 169T222 89T288 42T374 26ZM195 -240Q248 -220 270 -201T293 -159Q293 -127 247 -121Q249 -98
265 -81T308 -63Q338 -63 355 -82T373 -128Q373 -152 360 -172T325 -211T271 -243T203 -267L195 -240Z" />
<glyph unicode="&#x123;" glyph-name="gcommaaccent" horiz-adv-x="420" d="M263 484Q281 484 297 482T335 474L459 479L446 412L354 436V433Q361 425 370 405T379 358Q379 319 363 278T318 204T250 149T164 128Q160 128 156 128T148 129Q132 117 127 108T121
89Q121 76 129 68T156 50L311 -27Q351 -47 365 -68T381 -113Q381 -141 362 -167T308 -214T225 -247T119 -260Q73 -260 36 -253T-28 -232T-69 -201T-84 -161Q-84 -137 -67 -118T-22 -83T44 -54T123 -31V-29L114 -25Q92 -14 73 3T53 49Q53 65 60 78T77 103T98 122T119
135V137Q84 151 65 183T44 254Q44 292 58 333T100 407T169 462T263 484ZM160 -47Q124 -57 96 -66T47 -85T17 -109T6 -139Q6 -157 18 -172T51 -197T103 -214T168 -221Q201 -221 226 -215T269 -199T295 -176T304 -150Q305 -134 291 -119T229 -80L160 -47ZM253 452Q228
452 205 431T163 377T135 305T124 230Q124 201 134 181T168 160Q194 159 218 181T260 237T289 310T300 385Q300 412 289 432T253 452ZM398 767Q345 747 323 728T300 686Q300 654 346 648Q344 625 328 608T285 590Q255 590 238 609T220 655Q220 679 233 699T268
738T322 770T390 794L398 767Z" />
<glyph unicode="&#x124;" glyph-name="Hcircumflex" horiz-adv-x="763" d="M342 736L458 865H534L599 736H553L488 815L395 736H342ZM408 33L494 56L546 323H231L179 56L255 32L249 0H-4L3 33L86 56L195 606L120 632L126 664H380L375 632L287 606L240 370H555L602
606L527 632L533 664H787L781 632L695 606L586 56L662 32L656 0H402L408 33Z" />
<glyph unicode="&#x125;" glyph-name="hcircumflex" horiz-adv-x="532" d="M161 261H165Q189 299 217 338T277 410T343 463T412 484Q445 484 458 460T457 378L378 62L381 61Q414 71 442 99T489 159L509 153Q499 124 480 95T437 42T390 4T348 -11Q313 -11 301 15T301
91L376 371Q381 388 377 399T357 411Q337 411 313 394T265 347T216 281T172 203T137 124T116 52L107 7L32 -14L19 -1L182 673L123 697L130 719L280 746L161 261ZM259 816L375 945H451L516 816H470L405 895L312 816H259Z" />
<glyph unicode="&#x126;" glyph-name="Hbar" horiz-adv-x="763" d="M81 518H177L195 606L120 632L126 664H380L375 632L287 606L269 518H584L602 606L527 632L533 664H787L781 632L695 606L677 518H772L763 477H669L586 56L662 32L656 0H402L408 33L494 56L546
323H231L179 56L255 32L249 0H-4L3 33L86 56L169 477H72L81 518ZM555 370L576 477H261L240 370H555Z" />
<glyph unicode="&#x127;" glyph-name="hbar" horiz-adv-x="532" d="M243 597H421L410 550H232L161 261H165Q189 299 217 338T277 410T343 463T412 484Q445 484 458 460T457 378L378 62L381 61Q414 71 442 99T489 159L509 153Q499 124 480 95T437 42T390 4T348
-11Q313 -11 301 15T301 91L376 371Q381 388 377 399T357 411Q337 411 313 394T265 347T216 281T172 203T137 124T116 52L107 7L32 -14L19 -1L152 550H65L76 597H164L182 673L123 697L130 719L280 746L243 597Z" />
<glyph unicode="&#x128;" glyph-name="Itilde" horiz-adv-x="355" d="M249 781Q222 794 206 797T178 795T160 777T144 744L115 757L120 771Q133 809 150 830T189 859T234 863T285 846L308 835Q338 820 357 817T388 818T408 838T426 874L454 862L448 845Q433 804
416 781T377 750T330 747T274 769L249 781ZM3 33L86 56L195 606L120 632L126 664H379L373 632L287 606L178 56L254 32L248 0H-4L3 33Z" />
<glyph unicode="&#x129;" glyph-name="itilde" horiz-adv-x="293" d="M139 61Q172 71 201 99T248 159L268 153Q258 124 239 95T196 42T148 4T106 -11Q72 -11 60 15T60 90L135 396L50 415V420Q67 438 86 452Q103 464 124 474T171 485Q200 485 211 461T210 381L136
62L139 61ZM377 714L371 697Q356 656 339 634T301 604T254 601T197 621L182 628Q155 641 139 645T113 645T96 628T80 596L51 609L56 623Q69 661 86 681T123 709T166 711T216 694L231 687Q261 673 280 669T311 670T331 690T349 726L377 714Z" />
<glyph unicode="&#x12a;" glyph-name="Imacron" horiz-adv-x="355" d="M151 842H433L420 782H138L151 842ZM3 33L86 56L195 606L120 632L126 664H379L373 632L287 606L178 56L254 32L248 0H-4L3 33Z" />
<glyph unicode="&#x12b;" glyph-name="imacron" horiz-adv-x="293" d="M95 687H337L324 627H82L95 687ZM139 61Q172 71 201 99T248 159L268 153Q258 124 239 95T196 42T148 4T106 -11Q72 -11 60 15T60 90L135 396L50 415V420Q67 438 86 452Q103 464 124 474T171
485Q200 485 211 461T210 381L136 62L139 61Z" />
<glyph unicode="&#x12c;" glyph-name="Ibreve" horiz-adv-x="355" d="M525 732Q477 732 451 767T425 865H466Q479 793 538 793Q567 793 590 814T627 865H665Q648 805 614 769T525 732ZM3 33L86 56L195 606L120 632L126 664H379L373 632L287 606L178 56L254 32L248
0H-4L3 33Z" />
<glyph unicode="&#x12d;" glyph-name="ibreve" horiz-adv-x="293" d="M194 566Q141 566 115 609T96 729H131Q138 627 207 627Q225 627 241 635T269 658T292 691T308 729H342Q326 657 291 612T194 566ZM139 61Q172 71 201 99T248 159L268 153Q258 124 239 95T196
42T148 4T106 -11Q72 -11 60 15T60 90L135 396L50 415V420Q67 438 86 452Q103 464 124 474T171 485Q200 485 211 461T210 381L136 62L139 61Z" />
<glyph unicode="&#x12e;" glyph-name="Iogonek" horiz-adv-x="355" d="M3 33L86 56L195 606L120 632L126 664H379L373 632L287 606L178 56L254 32L248 0H144Q121 -29 105 -50T79 -89T64 -121T59 -151Q59 -168 69 -179T102 -191Q125 -191 144 -182T194 -145L208
-162Q194 -179 178 -196T143 -227T103 -250T56 -259Q18 -259 -3 -239T-24 -188Q-24 -161 -14 -139T14 -96T54 -52T101 0H-4L3 33Z" />
<glyph unicode="&#x12f;" glyph-name="iogonek" horiz-adv-x="293" d="M139 61Q172 71 201 100T247 159L267 153Q259 130 243 101T190 36L112 -43Q71 -84 51 -108T30 -157Q30 -176 41 -186T72 -197Q95 -197 114 -184T158 -142L176 -155Q164 -174 149 -192T115
-226T76 -250T31 -259Q-1 -259 -24 -239T-47 -182Q-47 -160 -37 -141T-7 -103T41 -62T106 -13V-10H101Q70 -8 60 18T60 90L135 396L50 415V420Q67 438 86 452Q103 464 124 474T171 485Q200 485 211 461T210 381L136 62L139 61ZM170 680Q170 702 185 717T223 733Q245
733 260 718T276 680Q276 658 261 643T223 627Q201 627 186 642T170 680Z" />
<glyph unicode="&#x130;" glyph-name="Idotaccent" horiz-adv-x="355" d="M467 817Q467 843 485 861T529 879Q555 879 573 861T591 817Q591 791 573 773T529 755Q503 755 485 773T467 817ZM3 33L86 56L195 606L120 632L126 664H379L373 632L287 606L178 56L254
32L248 0H-4L3 33Z" />
<glyph unicode="&#x131;" glyph-name="dotlessi" horiz-adv-x="293" d="M139 61Q172 71 201 99T248 159L268 153Q258 124 239 95T196 42T148 4T106 -11Q72 -11 60 15T60 90L135 396L50 415V420Q67 438 86 452Q103 464 124 474T171 485Q200 485 211 461T210 381L136
62L139 61Z" />
<glyph unicode="&#x132;" glyph-name="IJ" horiz-adv-x="686" d="M543 51Q531 -9 512 -56T461 -137T386 -191T282 -218L277 -187Q322 -170 351 -149T398 -100T428 -39T448 39L561 607L475 628L482 664H744L738 632L652 606L543 51ZM3 33L86 56L195 606L120 632L126
664H379L373 632L287 606L178 56L254 32L248 0H-4L3 33Z" />
<glyph unicode="&#x133;" glyph-name="ij" horiz-adv-x="537" d="M50 415V420Q67 438 86 452Q103 464 124 474T171 485Q200 485 211 461T210 381L136 62L139 61Q172 71 201 99T248 159L268 153Q258 124 239 95T196 42T148 4T106 -11Q72 -11 60 15T60 90L135 396L50
415ZM170 680Q170 702 185 717T223 733Q245 733 260 718T276 680Q276 658 261 643T223 627Q201 627 186 642T170 680ZM424 396L338 415V420Q355 438 373 452Q389 464 409 474T453 485Q486 485 500 460T499 373L413 14Q399 -45 376 -95T323 -182T260 -239T192 -260Q183
-260 171 -257T149 -247T131 -231T124 -207Q124 -190 132 -175T151 -153Q160 -162 171 -172T193 -191T216 -205T239 -211Q267 -211 282 -173T316 -61L424 396ZM459 680Q459 702 474 717T512 733Q534 733 549 718T565 680Q565 658 550 643T512 627Q490 627 475 642T459
680Z" />
<glyph unicode="&#x134;" glyph-name="Jcircumflex" horiz-adv-x="346" d="M203 51Q191 -9 172 -56T121 -137T46 -191T-58 -218L-63 -187Q-18 -170 11 -149T58 -100T88 -39T108 39L221 607L135 628L142 664H404L398 632L312 606L203 51ZM164 736L280 865H356L421
736H375L310 815L217 736H164Z" />
<glyph unicode="&#x135;" glyph-name="jcircumflex" horiz-adv-x="261" d="M147 396L61 415V420Q78 438 96 452Q112 464 132 474T176 485Q209 485 223 460T222 373L136 14Q122 -45 99 -95T46 -182T-17 -239T-85 -260Q-94 -260 -106 -257T-128 -247T-146 -231T-153
-207Q-153 -190 -145 -175T-126 -153Q-117 -162 -106 -172T-84 -191T-61 -205T-38 -211Q-10 -211 5 -173T39 -61L147 396ZM331 551L470 756H526L577 551H535L486 692L375 551H331Z" />
<glyph unicode="&#x136;" glyph-name="Kcommaaccent" horiz-adv-x="660" d="M2 33L87 56L195 606L120 632L126 664H380L374 632L288 606L179 56L255 32L249 0H-4L2 33ZM608 -10Q566 -10 536 -5T481 14T436 53T390 117T334 212T258 345L259 354L296 371L554 613L479
632L485 664H701L696 632L619 610L348 366Q412 262 451 198T517 98T565 45T617 22L608 -10ZM215 -240Q268 -220 290 -201T313 -159Q313 -127 267 -121Q269 -98 285 -81T328 -63Q358 -63 375 -82T393 -128Q393 -152 380 -172T345 -211T291 -243T223 -267L215 -240Z"
/>
<glyph unicode="&#x137;" glyph-name="kcommaaccent" horiz-adv-x="479" d="M401 -40Q383 -40 370 -37T345 -27T321 -9T292 20L144 169Q126 121 118 79L105 6L32 -14L19 -1L182 673L123 697L130 719L279 746L169 285H174Q198 326 222 362T272 426T326 468T385
484Q423 484 443 461T463 404Q463 365 442 331T387 267T311 216T228 181L441 -23V-28Q436 -32 426 -36T401 -40ZM349 415Q326 415 299 395T244 341T192 266T149 181Q206 197 249 221T323 272T368 326T383 377Q383 396 374 405T349 415ZM320 -240Q373 -220 395 -201T418
-159Q418 -127 372 -121Q374 -98 390 -81T433 -63Q463 -63 480 -82T498 -128Q498 -152 485 -172T450 -211T396 -243T328 -267L320 -240Z" />
<glyph unicode="&#x138;" glyph-name="kgreenlandic" horiz-adv-x="504" d="M54 415V420Q70 438 88 452Q104 464 123 474T164 485Q206 485 214 453T208 363L181 270H185Q211 310 239 348T295 417T352 465T407 484Q449 484 468 461T488 404Q488 365 467 331T412
267T336 216T253 181L466 -23V-28Q461 -32 451 -36T426 -40Q408 -40 395 -37T370 -27T346 -9T317 20L171 168Q158 139 148 110T132 52L122 7L47 -14L34 -1L139 400L54 415ZM374 415Q355 415 330 396T278 345T225 271T177 181Q233 197 276 221T348 273T393 327T408
377Q408 415 374 415Z" />
<glyph unicode="&#x139;" glyph-name="Lacute" horiz-adv-x="584" d="M391 47L484 199H519L466 0H-4L3 33L86 56L195 605L120 632L126 664H397L391 632L288 606L179 47H391ZM424 875V855L289 736H237L331 875H424Z" />
<glyph unicode="&#x13a;" glyph-name="lacute" horiz-adv-x="268" d="M247 153Q237 124 218 95T175 42T127 4T85 -11Q51 -11 39 15T39 90L182 673L123 697L130 719L277 746L115 62L118 61Q151 71 180 99T227 159L247 153ZM417 943V923L282 804H230L324 943H417Z" />
<glyph unicode="&#x13b;" glyph-name="Lcommaaccent" horiz-adv-x="584" d="M391 47L484 199H519L466 0H-4L3 33L86 56L195 605L120 632L126 664H397L391 632L288 606L179 47H391ZM126 -240Q179 -220 201 -201T224 -159Q224 -127 178 -121Q180 -98 196 -81T239
-63Q269 -63 286 -82T304 -128Q304 -152 291 -172T256 -211T202 -243T134 -267L126 -240Z" />
<glyph unicode="&#x13c;" glyph-name="lcommaaccent" horiz-adv-x="268" d="M247 153Q237 124 218 95T175 42T127 4T85 -11Q51 -11 39 15T39 90L182 673L123 697L130 719L277 746L115 62L118 61Q151 71 180 99T227 159L247 153ZM-54 -240Q-1 -220 21 -201T44 -159Q44
-127 -2 -121Q0 -98 16 -81T59 -63Q89 -63 106 -82T124 -128Q124 -152 111 -172T76 -211T22 -243T-46 -267L-54 -240Z" />
<glyph unicode="&#x13d;" glyph-name="Lcaron" horiz-adv-x="584" d="M391 47L484 199H519L466 0H-4L3 33L86 56L195 605L120 632L126 664H397L391 632L288 606L179 47H391ZM452 463L497 673H586V665L480 463H452Z" />
<glyph unicode="&#x13e;" glyph-name="lcaron" horiz-adv-x="268" d="M247 153Q237 124 218 95T175 42T127 4T85 -11Q51 -11 39 15T39 90L182 673L123 697L130 719L277 746L115 62L118 61Q151 71 180 99T227 159L247 153ZM311 536L356 746H445V738L339 536H311Z" />
<glyph unicode="&#x13f;" glyph-name="Ldot" horiz-adv-x="584" d="M497 316Q471 316 452 335T432 382Q432 408 451 427T497 447Q524 447 543 428T563 382Q563 355 544 336T497 316ZM391 47L484 199H519L466 0H-4L3 33L86 56L195 605L120 632L126 664H397L391
632L288 606L179 47H391Z" />
<glyph unicode="&#x140;" glyph-name="ldot" horiz-adv-x="328" d="M312 301Q286 301 267 320T247 367Q247 393 266 412T312 432Q339 432 358 413T378 367Q378 340 359 321T312 301ZM247 153Q237 124 218 95T175 42T127 4T85 -11Q51 -11 39 15T39 90L182 673L123
697L130 719L277 746L115 62L118 61Q151 71 180 99T227 159L247 153Z" />
<glyph unicode="&#x141;" glyph-name="Lslash" horiz-adv-x="584" d="M48 295L138 319L195 605L120 632L126 664H397L391 632L288 606L237 345L473 409L464 365L228 302L179 47H391L484 199H519L466 0H-4L3 33L86 56L129 275L39 251L48 295Z" />
<glyph unicode="&#x142;" glyph-name="lslash" horiz-adv-x="268" d="M13 327L109 374L182 673L123 697L130 719L277 746L199 418L305 471L293 421L187 369L115 62L118 61Q151 71 180 99T227 159L247 153Q237 124 218 95T175 42T127 4T85 -11Q51 -11 39 15T39
90L96 324L1 277L13 327Z" />
<glyph unicode="&#x143;" glyph-name="Nacute" horiz-adv-x="742" d="M536 -11L236 546L141 63L252 33L245 0H-4L2 33L86 56L193 596L111 632L116 664H280L546 168L631 601L519 631L526 664H776L769 631L684 606L592 136L571 -11H536ZM597 875V855L462 736H410L504
875H597Z" />
<glyph unicode="&#x144;" glyph-name="nacute" horiz-adv-x="548" d="M139 400L54 415V420Q70 438 88 452Q104 464 123 474T164 485Q206 485 215 453T208 363L181 270H185Q210 307 238 345T296 414T360 464T428 484Q461 484 474 460T473 378L393 62L396 61Q430
71 458 99T505 159L525 153Q515 123 496 94T453 42T406 4T364 -11Q328 -11 316 15T317 91L392 371Q397 388 394 399T374 411Q352 411 328 394T280 348T232 282T189 205T154 125T132 52L122 7L47 -14L34 -1L139 400ZM480 756V737L356 551H310L409 756H480Z" />
<glyph unicode="&#x145;" glyph-name="Ncommaaccent" horiz-adv-x="742" d="M536 -11L236 546L141 63L252 33L245 0H-4L2 33L86 56L193 596L111 632L116 664H280L546 168L631 601L519 631L526 664H776L769 631L684 606L592 136L571 -11H536ZM221 -240Q274 -220
296 -201T319 -159Q319 -127 273 -121Q275 -98 291 -81T334 -63Q364 -63 381 -82T399 -128Q399 -152 386 -172T351 -211T297 -243T229 -267L221 -240Z" />
<glyph unicode="&#x146;" glyph-name="ncommaaccent" horiz-adv-x="548" d="M139 400L54 415V420Q70 438 88 452Q104 464 123 474T164 485Q206 485 215 453T208 363L181 270H185Q210 307 238 345T296 414T360 464T428 484Q461 484 474 460T473 378L393 62L396
61Q430 71 458 99T505 159L525 153Q515 123 496 94T453 42T406 4T364 -11Q328 -11 316 15T317 91L392 371Q397 388 394 399T374 411Q352 411 328 394T280 348T232 282T189 205T154 125T132 52L122 7L47 -14L34 -1L139 400ZM350 -240Q403 -220 425 -201T448 -159Q448
-127 402 -121Q404 -98 420 -81T463 -63Q493 -63 510 -82T528 -128Q528 -152 515 -172T480 -211T426 -243T358 -267L350 -240Z" />
<glyph unicode="&#x147;" glyph-name="Ncaron" horiz-adv-x="742" d="M536 -11L236 546L141 63L252 33L245 0H-4L2 33L86 56L193 596L111 632L116 664H280L546 168L631 601L519 631L526 664H776L769 631L684 606L592 136L571 -11H536ZM616 865L500 736H424L359
865H405L469 785L563 865H616Z" />
<glyph unicode="&#x148;" glyph-name="ncaron" horiz-adv-x="548" d="M139 400L54 415V420Q70 438 88 452Q104 464 123 474T164 485Q206 485 215 453T208 363L181 270H185Q210 307 238 345T296 414T360 464T428 484Q461 484 474 460T473 378L393 62L396 61Q430
71 458 99T505 159L525 153Q515 123 496 94T453 42T406 4T364 -11Q328 -11 316 15T317 91L392 371Q397 388 394 399T374 411Q352 411 328 394T280 348T232 282T189 205T154 125T132 52L122 7L47 -14L34 -1L139 400ZM501 756L362 551H306L255 756H297L346 614L457
756H501Z" />
<glyph unicode="&#x149;" glyph-name="napostrophe" horiz-adv-x="548" d="M52 569Q105 589 127 608T150 650Q150 682 104 688Q106 711 122 728T165 746Q195 746 212 727T230 681Q230 657 217 637T182 598T128 566T60 542L52 569ZM139 400L54 415V420Q70 438 88
452Q104 464 123 474T164 485Q206 485 215 453T208 363L181 270H185Q210 307 238 345T296 414T360 464T428 484Q461 484 474 460T473 378L393 62L396 61Q430 71 458 99T505 159L525 153Q515 123 496 94T453 42T406 4T364 -11Q328 -11 316 15T317 91L392 371Q397
388 394 399T374 411Q352 411 328 394T280 348T232 282T189 205T154 125T132 52L122 7L47 -14L34 -1L139 400Z" />
<glyph unicode="&#x14a;" glyph-name="Eng" horiz-adv-x="742" d="M585 107L574 51Q562 -9 543 -56T492 -137T417 -191T313 -218L308 -187Q359 -169 391 -148T444 -99T476 -38T497 39L500 55L236 546L141 63L252 33L245 0H-4L2 33L86 56L193 596L111 632L116 664H280L546
168L631 601L519 631L526 664H776L769 631L684 606L585 107Z" />
<glyph unicode="&#x14b;" glyph-name="eng" horiz-adv-x="511" d="M392 371Q397 388 394 399T374 411Q352 411 328 394T280 348T232 282T189 205T154 125T132 52L122 7L47 -14L34 -1L139 400L54 415V420Q70 438 88 452Q104 464 123 474T164 485Q206 485 215 453T208
363L181 270H185Q210 307 238 345T296 414T360 464T428 484Q461 484 474 460T473 378L386 14Q372 -45 349 -95T296 -182T233 -239T165 -260Q156 -260 144 -257T122 -247T104 -231T97 -207Q97 -190 105 -175T124 -153Q133 -162 144 -172T166 -191T189 -205T212 -211Q240
-211 256 -173T289 -61L392 371Z" />
<glyph unicode="&#x14c;" glyph-name="Omacron" horiz-adv-x="737" d="M459 679Q508 679 553 660T633 604T689 515T710 397Q710 323 683 249T603 114T475 17T304 -21Q256 -21 211 -2T130 54T74 143T53 262Q53 334 79 408T156 542T283 640T459 679ZM610 416Q610
462 600 502T569 572T516 618T440 635Q386 635 335 603T243 517T178 392T153 241Q153 195 163 156T193 87T245 40T321 23Q388 23 441 61T532 158T590 286T610 416ZM352 842H634L621 782H339L352 842Z" />
<glyph unicode="&#x14d;" glyph-name="omacron" horiz-adv-x="477" d="M189 687H471L458 627H176L189 687ZM123 137Q123 120 124 100T132 61T149 31T178 19Q211 19 242 49T298 126T337 228T352 331Q352 341 351 362T345 403T328 439T293 455Q258 455 228 422T174
341T137 237T123 137ZM303 485Q341 485 368 471T411 432T435 378T443 318Q443 264 425 206T372 99T288 20T175 -11Q139 -11 112 3T68 41T43 96T34 163Q34 216 52 273T105 377T190 454T303 485Z" />
<glyph unicode="&#x14e;" glyph-name="Obreve" horiz-adv-x="737" d="M471 732Q423 732 397 767T371 865H412Q425 793 484 793Q513 793 536 814T573 865H611Q594 805 560 769T471 732ZM459 679Q508 679 553 660T633 604T689 515T710 397Q710 323 683 249T603 114T475
17T304 -21Q256 -21 211 -2T130 54T74 143T53 262Q53 334 79 408T156 542T283 640T459 679ZM610 416Q610 462 600 502T569 572T516 618T440 635Q386 635 335 603T243 517T178 392T153 241Q153 195 163 156T193 87T245 40T321 23Q388 23 441 61T532 158T590 286T610
416Z" />
<glyph unicode="&#x14f;" glyph-name="obreve" horiz-adv-x="477" d="M123 137Q123 120 124 100T132 61T149 31T178 19Q211 19 242 49T298 126T337 228T352 331Q352 341 351 362T345 403T328 439T293 455Q258 455 228 422T174 341T137 237T123 137ZM303 485Q341
485 368 471T411 432T435 378T443 318Q443 264 425 206T372 99T288 20T175 -11Q139 -11 112 3T68 41T43 96T34 163Q34 216 52 273T105 377T190 454T303 485ZM303 566Q250 566 224 609T205 729H240Q247 627 316 627Q334 627 350 635T378 658T401 691T417 729H451Q435
657 400 612T303 566Z" />
<glyph unicode="&#x150;" glyph-name="Ohungarumlaut" horiz-adv-x="737" d="M650 875V856L556 736H504L570 875H650ZM509 875V856L415 736H363L429 875H509ZM459 679Q508 679 553 660T633 604T689 515T710 397Q710 323 683 249T603 114T475 17T304 -21Q256 -21
211 -2T130 54T74 143T53 262Q53 334 79 408T156 542T283 640T459 679ZM610 416Q610 462 600 502T569 572T516 618T440 635Q386 635 335 603T243 517T178 392T153 241Q153 195 163 156T193 87T245 40T321 23Q388 23 441 61T532 158T590 286T610 416Z" />
<glyph unicode="&#x151;" glyph-name="ohungarumlaut" horiz-adv-x="477" d="M358 756V737L244 551H198L287 756H358ZM508 756V737L394 551H348L437 756H508ZM123 137Q123 120 124 100T132 61T149 31T178 19Q211 19 242 49T298 126T337 228T352 331Q352 341 351
362T345 403T328 439T293 455Q258 455 228 422T174 341T137 237T123 137ZM303 485Q341 485 368 471T411 432T435 378T443 318Q443 264 425 206T372 99T288 20T175 -11Q139 -11 112 3T68 41T43 96T34 163Q34 216 52 273T105 377T190 454T303 485Z" />
<glyph unicode="&#x152;" glyph-name="OE" horiz-adv-x="972" d="M550 0Q517 0 494 0T447 0T396 -1T325 -3Q268 -4 219 14T134 68T76 155T55 272Q55 347 87 418T173 546T298 636T447 670Q489 670 518 669T579 667T650 665T754 664H894L968 668L925 491H891L882
619H659L610 367H744L787 449H817L778 245H748L737 321H601L547 47H788L878 179H913L866 0H550ZM571 616Q554 619 535 622Q518 624 496 626T447 629Q382 629 329 597T238 511T180 388T159 246Q158 209 166 172T196 104T251 55T336 36Q373 36 398 42T439 62T464
100T481 158L571 616Z" />
<glyph unicode="&#x153;" glyph-name="oe" horiz-adv-x="702" d="M448 -11Q404 -11 380 15T345 75Q313 37 271 13T175 -11Q139 -11 112 3T68 41T43 96T34 163Q34 216 52 273T105 377T190 454T303 485Q331 485 352 476T387 450T411 412T424 369Q463 420 512 452T613
485Q658 485 677 466T696 415Q696 382 673 352T612 297T524 255T418 230Q412 201 412 171Q412 115 432 85T487 54Q505 54 522 61T556 79T587 105T611 134L631 122Q624 106 608 84T567 40T513 4T448 -11ZM293 455Q258 455 228 422T174 341T137 237T123 137Q123 120
124 100T132 61T149 31T178 19Q211 19 242 49T298 126T337 228T352 331Q352 341 351 362T345 403T328 439T293 455ZM587 447Q567 447 544 433T498 393T456 333T425 259Q455 263 488 279T549 317T595 365T613 417Q613 431 607 439T587 447Z" />
<glyph unicode="&#x154;" glyph-name="Racute" horiz-adv-x="659" d="M2 33L87 56L195 606L120 632L127 664H363Q412 664 453 654T524 625T570 579T587 517Q587 472 568 440T520 387T455 353T388 334Q436 242 468 184T524 91T569 42T620 21L612 -9Q570 -9 541
-4T489 14T447 51T407 110T361 196T302 314H230L179 56L283 30L278 0H-4L2 33ZM237 352Q299 350 345 360T421 391T466 440T481 504Q481 562 437 597T292 629L237 352ZM534 875V855L399 736H347L441 875H534Z" />
<glyph unicode="&#x155;" glyph-name="racute" horiz-adv-x="406" d="M60 117Q76 180 88 231T109 321Q119 365 126 400L46 415V420Q62 438 80 452Q95 464 114 474T156 485Q175 485 186 477T201 453T203 418T194 376L141 196H155Q186 268 212 322T264 412T316 466T373
485Q393 485 407 473T421 438Q421 422 416 407T402 379T386 355T371 340H337Q350 362 347 381T327 402Q311 394 293 374T256 325T218 260T181 185Q172 165 165 149T150 113T134 69T115 7L43 -14L30 -1L60 117ZM407 756V737L283 551H237L336 756H407Z" />
<glyph unicode="&#x156;" glyph-name="Rcommaaccent" horiz-adv-x="659" d="M2 33L87 56L195 606L120 632L127 664H363Q412 664 453 654T524 625T570 579T587 517Q587 472 568 440T520 387T455 353T388 334Q436 242 468 184T524 91T569 42T620 21L612 -9Q570 -9
541 -4T489 14T447 51T407 110T361 196T302 314H230L179 56L283 30L278 0H-4L2 33ZM237 352Q299 350 345 360T421 391T466 440T481 504Q481 562 437 597T292 629L237 352ZM219 -240Q272 -220 294 -201T317 -159Q317 -127 271 -121Q273 -98 289 -81T332 -63Q362
-63 379 -82T397 -128Q397 -152 384 -172T349 -211T295 -243T227 -267L219 -240Z" />
<glyph unicode="&#x157;" glyph-name="rcommaaccent" horiz-adv-x="406" d="M60 117Q76 180 88 231T109 321Q119 365 126 400L46 415V420Q62 438 80 452Q95 464 114 474T156 485Q175 485 186 477T201 453T203 418T194 376L141 196H155Q186 268 212 322T264 412T316
466T373 485Q393 485 407 473T421 438Q421 422 416 407T402 379T386 355T371 340H337Q350 362 347 381T327 402Q311 394 293 374T256 325T218 260T181 185Q172 165 165 149T150 113T134 69T115 7L43 -14L30 -1L60 117ZM-72 -240Q-19 -220 3 -201T26 -159Q26 -127
-20 -121Q-18 -98 -2 -81T41 -63Q71 -63 88 -82T106 -128Q106 -152 93 -172T58 -211T4 -243T-64 -267L-72 -240Z" />
<glyph unicode="&#x158;" glyph-name="Rcaron" horiz-adv-x="659" d="M537 865L421 736H345L280 865H326L390 785L484 865H537ZM2 33L87 56L195 606L120 632L127 664H363Q412 664 453 654T524 625T570 579T587 517Q587 472 568 440T520 387T455 353T388 334Q436
242 468 184T524 91T569 42T620 21L612 -9Q570 -9 541 -4T489 14T447 51T407 110T361 196T302 314H230L179 56L283 30L278 0H-4L2 33ZM237 352Q299 350 345 360T421 391T466 440T481 504Q481 562 437 597T292 629L237 352Z" />
<glyph unicode="&#x159;" glyph-name="rcaron" horiz-adv-x="406" d="M433 756L294 551H238L187 756H229L278 614L389 756H433ZM60 117Q76 180 88 231T109 321Q119 365 126 400L46 415V420Q62 438 80 452Q95 464 114 474T156 485Q175 485 186 477T201 453T203
418T194 376L141 196H155Q186 268 212 322T264 412T316 466T373 485Q393 485 407 473T421 438Q421 422 416 407T402 379T386 355T371 340H337Q350 362 347 381T327 402Q311 394 293 374T256 325T218 260T181 185Q172 165 165 149T150 113T134 69T115 7L43 -14L30
-1L60 117Z" />
<glyph unicode="&#x15a;" glyph-name="Sacute" horiz-adv-x="517" d="M78 218L97 62Q123 47 150 35T219 23Q248 23 275 30T322 55T355 98T369 163Q369 183 364 200T346 233T313 266T262 302L231 321Q176 355 145 392T114 487Q114 527 132 562T183 623T258 664T351
679Q397 679 439 670T510 654L465 470H426V609Q406 623 382 631T323 640Q296 640 273 631T234 606T208 570T198 529Q198 511 201 496T213 466T238 438T280 406L314 384Q351 360 378 340T424 298T452 252T461 198Q461 150 440 111T382 43T300 -1T203 -17Q174 -17
147 -13T94 -3T49 9T13 21L40 218H78ZM490 875V855L355 736H303L397 875H490Z" />
<glyph unicode="&#x15b;" glyph-name="sacute" horiz-adv-x="344" d="M283 137Q283 113 269 86T230 37T175 1T110 -14Q87 -14 68 -8T35 9T13 31T5 54Q5 66 7 75T14 92Q18 100 23 107H24Q69 78 103 61T166 43Q184 43 197 54T210 87Q210 109 200 128T181 159L130
230Q115 251 106 265T90 291T82 312T80 333Q80 364 98 392T142 441T197 474T250 486Q285 486 311 471T337 436Q337 416 330 400T318 378L315 377Q286 396 255 412T195 429Q177 429 164 418T151 385Q151 366 158 351T179 315L235 236Q248 218 257 205T272 180T280
159T283 137ZM390 756V737L266 551H220L319 756H390Z" />
<glyph unicode="&#x15c;" glyph-name="Scircumflex" horiz-adv-x="517" d="M230 736L346 865H422L487 736H441L376 815L283 736H230ZM78 218L97 62Q123 47 150 35T219 23Q248 23 275 30T322 55T355 98T369 163Q369 183 364 200T346 233T313 266T262 302L231 321Q176
355 145 392T114 487Q114 527 132 562T183 623T258 664T351 679Q397 679 439 670T510 654L465 470H426V609Q406 623 382 631T323 640Q296 640 273 631T234 606T208 570T198 529Q198 511 201 496T213 466T238 438T280 406L314 384Q351 360 378 340T424 298T452 252T461
198Q461 150 440 111T382 43T300 -1T203 -17Q174 -17 147 -13T94 -3T49 9T13 21L40 218H78Z" />
<glyph unicode="&#x15d;" glyph-name="scircumflex" horiz-adv-x="344" d="M283 137Q283 113 269 86T230 37T175 1T110 -14Q87 -14 68 -8T35 9T13 31T5 54Q5 66 7 75T14 92Q18 100 23 107H24Q69 78 103 61T166 43Q184 43 197 54T210 87Q210 109 200 128T181 159L130
230Q115 251 106 265T90 291T82 312T80 333Q80 364 98 392T142 441T197 474T250 486Q285 486 311 471T337 436Q337 416 330 400T318 378L315 377Q286 396 255 412T195 429Q177 429 164 418T151 385Q151 366 158 351T179 315L235 236Q248 218 257 205T272 180T280
159T283 137ZM120 551L259 756H315L366 551H324L275 692L164 551H120Z" />
<glyph unicode="&#x15e;" glyph-name="Scedilla" horiz-adv-x="517" d="M62 -231Q77 -227 95 -220T128 -203T153 -180T164 -148Q164 -136 160 -127T149 -112T136 -103T124 -97L187 -17Q133 -15 87 -1T13 21L40 218H78L97 62Q123 47 150 35T219 23Q248 23 275 30T322
55T355 98T369 163Q369 183 364 200T346 233T313 266T262 302L231 321Q176 355 145 392T114 487Q114 527 132 562T183 623T258 664T351 679Q397 679 439 670T510 654L465 470H426V609Q406 623 382 631T323 640Q296 640 273 631T234 606T208 570T198 529Q198 511
201 496T213 466T238 438T280 406L314 384Q351 360 378 340T424 298T452 252T461 198Q461 153 442 115T390 49T314 4T224 -16L189 -63Q206 -71 222 -85T238 -127Q238 -159 220 -181T175 -219T118 -243T62 -257V-231Z" />
<glyph unicode="&#x15f;" glyph-name="scedilla" horiz-adv-x="344" d="M-34 -231Q-19 -227 -1 -220T32 -203T57 -180T68 -148Q68 -136 64 -127T53 -112T40 -103T28 -97L94 -13Q54 -9 30 12T5 54Q5 66 7 75T14 92Q18 100 23 107H24Q69 78 103 61T166 43Q184 43
197 54T210 87Q210 109 200 128T181 159L130 230Q115 251 106 265T90 291T82 312T80 333Q80 364 98 392T142 441T197 474T250 486Q285 486 311 471T337 436Q337 416 330 400T318 378L315 377Q286 396 255 412T195 429Q177 429 164 418T151 385Q151 366 158 351T179
315L235 236Q248 218 257 205T272 180T280 159T283 137Q283 114 271 90T237 45T189 8T131 -12L93 -63Q110 -71 126 -85T142 -127Q142 -159 124 -181T79 -219T22 -243T-34 -257V-231Z" />
<glyph unicode="&#x160;" glyph-name="Scaron" horiz-adv-x="517" d="M78 218L97 62Q123 47 150 35T219 23Q248 23 275 30T322 55T355 98T369 163Q369 183 364 200T346 233T313 266T262 302L231 321Q176 355 145 392T114 487Q114 527 132 562T183 623T258 664T351
679Q397 679 439 670T510 654L465 470H426V609Q406 623 382 631T323 640Q296 640 273 631T234 606T208 570T198 529Q198 511 201 496T213 466T238 438T280 406L314 384Q351 360 378 340T424 298T452 252T461 198Q461 150 440 111T382 43T300 -1T203 -17Q174 -17
147 -13T94 -3T49 9T13 21L40 218H78ZM516 865L400 736H324L259 865H305L369 785L463 865H516Z" />
<glyph unicode="&#x161;" glyph-name="scaron" horiz-adv-x="344" d="M411 756L272 551H216L165 756H207L256 614L367 756H411ZM283 137Q283 113 269 86T230 37T175 1T110 -14Q87 -14 68 -8T35 9T13 31T5 54Q5 66 7 75T14 92Q18 100 23 107H24Q69 78 103 61T166
43Q184 43 197 54T210 87Q210 109 200 128T181 159L130 230Q115 251 106 265T90 291T82 312T80 333Q80 364 98 392T142 441T197 474T250 486Q285 486 311 471T337 436Q337 416 330 400T318 378L315 377Q286 396 255 412T195 429Q177 429 164 418T151 385Q151 366
158 351T179 315L235 236Q248 218 257 205T272 180T280 159T283 137Z" />
<glyph unicode="&#x162;" glyph-name="Tcommaaccent" horiz-adv-x="647" d="M605 664L670 672L629 491H595L584 619H426L316 56L400 33L393 0H122L129 33L224 56L334 619H187L125 491H91L121 672L183 664H605ZM127 -240Q180 -220 202 -201T225 -159Q225 -127 179
-121Q181 -98 197 -81T240 -63Q270 -63 287 -82T305 -128Q305 -152 292 -172T257 -211T203 -243T135 -267L127 -240Z" />
<glyph unicode="&#x163;" glyph-name="tcommaaccent" horiz-adv-x="340" d="M48 459H133L179 583H241L211 459H342L336 415H202L120 70L124 67Q143 74 164 87T205 117T241 150T268 182L288 175Q275 146 250 113T194 53T133 7T81 -12Q54 -12 41 12T36 75L120 415H42L48
459ZM-49 -240Q4 -220 26 -201T49 -159Q49 -127 3 -121Q5 -98 21 -81T64 -63Q94 -63 111 -82T129 -128Q129 -152 116 -172T81 -211T27 -243T-41 -267L-49 -240Z" />
<glyph unicode="&#x164;" glyph-name="Tcaron" horiz-adv-x="647" d="M605 664L670 672L629 491H595L584 619H426L316 56L400 33L393 0H122L129 33L224 56L334 619H187L125 491H91L121 672L183 664H605ZM563 865L447 736H371L306 865H352L416 785L510 865H563Z" />
<glyph unicode="&#x165;" glyph-name="tcaron" horiz-adv-x="340" d="M48 459H133L179 583H241L211 459H342L336 415H202L120 70L124 67Q143 74 164 87T205 117T241 150T268 182L288 175Q275 146 250 113T194 53T133 7T81 -12Q54 -12 41 12T36 75L120 415H42L48
459ZM321 542L366 752H455V744L349 542H321Z" />
<glyph unicode="&#x166;" glyph-name="Tbar" horiz-adv-x="647" d="M605 664L670 672L629 491H595L584 619H426L381 392H548L539 348H373L316 56L400 33L393 0H122L129 33L224 56L281 348H123L132 392H289L334 619H187L125 491H91L121 672L183 664H605Z" />
<glyph unicode="&#x167;" glyph-name="tbar" horiz-adv-x="340" d="M48 459H133L179 583H241L211 459H342L336 415H202L182 332H322L315 289H172L120 70L124 67Q143 74 164 87T205 117T241 150T268 182L288 175Q275 146 250 113T194 53T133 7T81 -12Q54 -12 41
12T36 75L89 289H24L30 332H99L120 415H42L48 459Z" />
<glyph unicode="&#x168;" glyph-name="Utilde" horiz-adv-x="720" d="M434 781Q407 794 391 797T363 795T345 777T329 744L300 757L305 771Q318 809 335 830T374 859T419 863T470 846L493 835Q523 820 542 817T573 818T593 838T611 874L639 862L633 845Q618 804
601 781T562 750T515 747T459 769L434 781ZM314 -24Q257 -24 211 -8T136 45T98 140T104 280L170 606L94 632L100 664H357L351 632L265 606L196 259Q174 149 214 91T337 33Q372 33 406 44T470 84T523 160T559 280L617 604L509 632L515 664H765L759 632L674 606L611
270Q597 196 568 141T500 49T413 -6T314 -24Z" />
<glyph unicode="&#x169;" glyph-name="utilde" horiz-adv-x="539" d="M49 415V420Q65 438 84 452Q101 464 122 474T169 485Q202 485 211 459T209 382L138 90Q134 73 137 67T151 60Q169 60 192 78T241 126T290 191T334 262T367 327T385 375L405 464L479 485L492
472L392 62L395 61Q428 71 457 99T504 159L524 153Q514 124 495 95T452 42T404 4T362 -11Q327 -11 317 16T320 94L351 217H348Q322 186 295 146T237 71T172 12T98 -13Q84 -13 73 -7T56 12T50 48T58 102L135 400L49 415ZM316 633Q289 646 273 649T245 647T227 629T211
596L182 609L187 623Q200 661 217 682T256 711T301 715T352 698L375 687Q405 672 424 669T455 670T475 690T493 726L521 714L515 697Q500 656 483 633T444 602T397 599T341 621L316 633Z" />
<glyph unicode="&#x16a;" glyph-name="Umacron" horiz-adv-x="720" d="M335 842H617L604 782H322L335 842ZM314 -24Q257 -24 211 -8T136 45T98 140T104 280L170 606L94 632L100 664H357L351 632L265 606L196 259Q174 149 214 91T337 33Q372 33 406 44T470 84T523
160T559 280L617 604L509 632L515 664H765L759 632L674 606L611 270Q597 196 568 141T500 49T413 -6T314 -24Z" />
<glyph unicode="&#x16b;" glyph-name="umacron" horiz-adv-x="539" d="M216 687H498L485 627H203L216 687ZM49 415V420Q65 438 84 452Q101 464 122 474T169 485Q202 485 211 459T209 382L138 90Q134 73 137 67T151 60Q169 60 192 78T241 126T290 191T334 262T367
327T385 375L405 464L479 485L492 472L392 62L395 61Q428 71 457 99T504 159L524 153Q514 124 495 95T452 42T404 4T362 -11Q327 -11 317 16T320 94L351 217H348Q322 186 295 146T237 71T172 12T98 -13Q84 -13 73 -7T56 12T50 48T58 102L135 400L49 415Z" />
<glyph unicode="&#x16c;" glyph-name="Ubreve" horiz-adv-x="720" d="M454 732Q406 732 380 767T354 865H395Q408 793 467 793Q496 793 519 814T556 865H594Q577 805 543 769T454 732ZM314 -24Q257 -24 211 -8T136 45T98 140T104 280L170 606L94 632L100 664H357L351
632L265 606L196 259Q174 149 214 91T337 33Q372 33 406 44T470 84T523 160T559 280L617 604L509 632L515 664H765L759 632L674 606L611 270Q597 196 568 141T500 49T413 -6T314 -24Z" />
<glyph unicode="&#x16d;" glyph-name="ubreve" horiz-adv-x="539" d="M49 415V420Q65 438 84 452Q101 464 122 474T169 485Q202 485 211 459T209 382L138 90Q134 73 137 67T151 60Q169 60 192 78T241 126T290 191T334 262T367 327T385 375L405 464L479 485L492
472L392 62L395 61Q428 71 457 99T504 159L524 153Q514 124 495 95T452 42T404 4T362 -11Q327 -11 317 16T320 94L351 217H348Q322 186 295 146T237 71T172 12T98 -13Q84 -13 73 -7T56 12T50 48T58 102L135 400L49 415ZM330 566Q277 566 251 609T232 729H267Q274
627 343 627Q361 627 377 635T405 658T428 691T444 729H478Q462 657 427 612T330 566Z" />
<glyph unicode="&#x16e;" glyph-name="Uring" horiz-adv-x="720" d="M335 817Q335 841 344 862T369 898T406 922T452 931Q502 931 535 899T569 817Q569 793 560 772T535 736T498 712T452 703Q402 703 369 735T335 817ZM381 817Q381 785 402 765T452 744Q481 744
502 764T523 817Q523 849 502 869T452 890Q423 890 402 870T381 817ZM314 -24Q257 -24 211 -8T136 45T98 140T104 280L170 606L94 632L100 664H357L351 632L265 606L196 259Q174 149 214 91T337 33Q372 33 406 44T470 84T523 160T559 280L617 604L509 632L515 664H765L759
632L674 606L611 270Q597 196 568 141T500 49T413 -6T314 -24Z" />
<glyph unicode="&#x16f;" glyph-name="uring" horiz-adv-x="539" d="M237 674Q237 698 246 719T271 755T308 779T354 788Q404 788 437 756T471 674Q471 650 462 629T437 593T400 569T354 560Q304 560 271 592T237 674ZM283 674Q283 642 304 622T354 601Q383 601
404 621T425 674Q425 706 404 726T354 747Q325 747 304 727T283 674ZM49 415V420Q65 438 84 452Q101 464 122 474T169 485Q202 485 211 459T209 382L138 90Q134 73 137 67T151 60Q169 60 192 78T241 126T290 191T334 262T367 327T385 375L405 464L479 485L492 472L392
62L395 61Q428 71 457 99T504 159L524 153Q514 124 495 95T452 42T404 4T362 -11Q327 -11 317 16T320 94L351 217H348Q322 186 295 146T237 71T172 12T98 -13Q84 -13 73 -7T56 12T50 48T58 102L135 400L49 415Z" />
<glyph unicode="&#x170;" glyph-name="Uhungarumlaut" horiz-adv-x="720" d="M633 875V856L539 736H487L553 875H633ZM492 875V856L398 736H346L412 875H492ZM314 -24Q257 -24 211 -8T136 45T98 140T104 280L170 606L94 632L100 664H357L351 632L265 606L196 259Q174
149 214 91T337 33Q372 33 406 44T470 84T523 160T559 280L617 604L509 632L515 664H765L759 632L674 606L611 270Q597 196 568 141T500 49T413 -6T314 -24Z" />
<glyph unicode="&#x171;" glyph-name="uhungarumlaut" horiz-adv-x="539" d="M384 756V737L270 551H224L313 756H384ZM534 756V737L420 551H374L463 756H534ZM49 415V420Q65 438 84 452Q101 464 122 474T169 485Q202 485 211 459T209 382L138 90Q134 73 137 67T151
60Q169 60 192 78T241 126T290 191T334 262T367 327T385 375L405 464L479 485L492 472L392 62L395 61Q428 71 457 99T504 159L524 153Q514 124 495 95T452 42T404 4T362 -11Q327 -11 317 16T320 94L351 217H348Q322 186 295 146T237 71T172 12T98 -13Q84 -13 73
-7T56 12T50 48T58 102L135 400L49 415Z" />
<glyph unicode="&#x172;" glyph-name="Uogonek" horiz-adv-x="720" d="M611 270Q598 201 572 148T509 59T430 2T339 -23Q310 -48 291 -66T260 -100T243 -128T238 -156Q238 -171 247 -181T278 -192Q301 -192 320 -182T371 -145L385 -162Q370 -179 354 -196T320
-227T280 -250T233 -259Q195 -259 175 -240T155 -189Q155 -166 164 -146T190 -107T234 -67T293 -23Q240 -20 199 -2T131 52T97 145T104 280L170 606L94 632L100 664H357L351 632L265 606L196 259Q174 149 214 91T337 33Q372 33 406 44T470 84T523 160T559 280L617
604L509 632L515 664H765L759 632L674 606L611 270Z" />
<glyph unicode="&#x173;" glyph-name="uogonek" horiz-adv-x="539" d="M362 -10H353Q295 -3 320 94L351 217H348Q322 186 295 146T237 71T172 12T98 -13Q84 -13 73 -7T56 12T50 48T58 102L135 400L49 415V420Q65 438 84 452Q101 464 122 474T169 485Q202 485 211
459T209 382L138 90Q134 73 137 67T151 60Q169 60 192 78T241 126T290 191T334 262T367 327T385 375L405 464L479 485L492 472L392 62L395 61Q428 71 457 100T503 159L523 153Q515 130 499 101T446 36L368 -43Q327 -84 307 -108T286 -157Q286 -176 297 -186T328
-197Q351 -197 370 -184T414 -142L432 -157Q420 -175 405 -193T371 -226T332 -250T287 -259Q255 -259 232 -239T209 -182Q209 -160 219 -141T249 -103T297 -62T362 -13V-10Z" />
<glyph unicode="&#x174;" glyph-name="Wcircumflex" horiz-adv-x="921" d="M420 736L536 865H612L677 736H631L566 815L473 736H420ZM491 462L242 -7H188L127 609L69 632L76 664H318L311 632L224 606L263 121L482 540L474 606L397 632L404 664H660L653 630L569
606L622 124L846 605L743 630L749 664H981L974 632L910 611L605 -7H550L491 462Z" />
<glyph unicode="&#x175;" glyph-name="wcircumflex" horiz-adv-x="656" d="M255 551L394 756H450L501 551H459L410 692L299 551H255ZM417 80H422Q461 115 491 153T540 228T570 298T580 357Q580 389 561 404T510 419Q500 419 487 417T462 411V424Q524 485 568 485Q603
485 623 463T645 396Q646 357 630 316T587 232T526 148T454 64L384 -14H375L344 0L342 206H340Q311 173 279 133T204 41L157 -14H148L114 0L105 396Q87 417 53 417Q44 417 32 416T9 411V424Q38 455 62 470T114 485Q146 485 164 464T184 396L191 80H196Q225 112
250 143T295 201Q318 231 337 258L336 390Q328 402 312 409T275 417Q265 417 252 416T227 411V424Q289 485 333 485Q409 485 410 396L417 80Z" />
<glyph unicode="&#x176;" glyph-name="Ycircumflex" horiz-adv-x="627" d="M289 736L405 865H481L546 736H500L435 815L342 736H289ZM365 266L323 56L409 33L402 0H130L137 33L231 56L270 253L143 610L88 632L94 664H335L329 632L241 611L340 308H343L555 606L470
632L477 664H683L677 632L619 610L365 266Z" />
<glyph unicode="&#x177;" glyph-name="ycircumflex" horiz-adv-x="469" d="M166 551L305 756H361L412 551H370L321 692L210 551H166ZM26 296Q27 335 37 369T63 428T99 469T143 484Q168 484 189 466T224 415T246 335T254 230Q254 164 245 100T219 -7H223Q250 23
275 57T323 130T363 210T389 299Q391 349 381 389T354 464Q367 471 378 475T402 479Q422 479 439 464T457 404Q457 336 428 261T351 111T245 -29T128 -147T16 -228T-71 -258Q-97 -258 -117 -243T-137 -198Q-137 -177 -121 -160T-79 -143Q-55 -143 -42 -159T-21
-206H-18Q42 -182 79 -134T138 -26T167 96T175 208Q175 250 171 285T158 347T140 389T116 404Q96 404 79 379T50 296H26Z" />
<glyph unicode="&#x178;" glyph-name="Ydieresis" horiz-adv-x="627" d="M365 266L323 56L409 33L402 0H130L137 33L231 56L270 253L143 610L88 632L94 664H335L329 632L241 611L340 308H343L555 606L470 632L477 664H683L677 632L619 610L365 266ZM325 761Q302
761 286 777T269 817Q269 840 285 857T325 874Q348 874 365 857T382 817Q382 794 365 778T325 761ZM546 761Q523 761 506 777T489 817Q489 840 506 857T546 874Q569 874 586 857T603 817Q603 794 586 778T546 761Z" />
<glyph unicode="&#x179;" glyph-name="Zacute" horiz-adv-x="598" d="M-15 25L490 618H218L141 479H107L150 670L220 664H631V654L116 47H408L501 199H536L476 -5L403 0H-15V25ZM531 875V855L396 736H344L438 875H531Z" />
<glyph unicode="&#x17a;" glyph-name="zacute" horiz-adv-x="454" d="M476 459L143 120L279 70Q324 53 347 58T391 90L411 84Q402 63 393 45T370 13T339 -9T296 -17Q282 -17 267 -14T225 1L82 58L26 -7L-11 20L325 363L207 407Q172 420 152 419T124 406Q117 394
126 376T166 334Q151 313 138 300T110 287Q90 287 78 301T65 342Q65 361 77 386T108 433T154 471T207 486Q226 486 242 483T278 471L386 426L440 486L476 459ZM445 756V737L321 551H275L374 756H445Z" />
<glyph unicode="&#x17b;" glyph-name="Zdotaccent" horiz-adv-x="598" d="M334 817Q334 843 352 861T396 879Q422 879 440 861T458 817Q458 791 440 773T396 755Q370 755 352 773T334 817ZM-15 25L490 618H218L141 479H107L150 670L220 664H631V654L116 47H408L501
199H536L476 -5L403 0H-15V25Z" />
<glyph unicode="&#x17c;" glyph-name="zdotaccent" horiz-adv-x="454" d="M269 651Q269 673 284 688T322 704Q344 704 359 689T375 651Q375 629 360 614T322 598Q300 598 285 613T269 651ZM476 459L143 120L279 70Q324 53 347 58T391 90L411 84Q402 63 393 45T370
13T339 -9T296 -17Q282 -17 267 -14T225 1L82 58L26 -7L-11 20L325 363L207 407Q172 420 152 419T124 406Q117 394 126 376T166 334Q151 313 138 300T110 287Q90 287 78 301T65 342Q65 361 77 386T108 433T154 471T207 486Q226 486 242 483T278 471L386 426L440
486L476 459Z" />
<glyph unicode="&#x17d;" glyph-name="Zcaron" horiz-adv-x="598" d="M-15 25L490 618H218L141 479H107L150 670L220 664H631V654L116 47H408L501 199H536L476 -5L403 0H-15V25ZM534 865L418 736H342L277 865H323L387 785L481 865H534Z" />
<glyph unicode="&#x17e;" glyph-name="zcaron" horiz-adv-x="454" d="M476 459L143 120L279 70Q324 53 347 58T391 90L411 84Q402 63 393 45T370 13T339 -9T296 -17Q282 -17 267 -14T225 1L82 58L26 -7L-11 20L325 363L207 407Q172 420 152 419T124 406Q117 394
126 376T166 334Q151 313 138 300T110 287Q90 287 78 301T65 342Q65 361 77 386T108 433T154 471T207 486Q226 486 242 483T278 471L386 426L440 486L476 459ZM466 756L327 551H271L220 756H262L311 614L422 756H466Z" />
<glyph unicode="&#x192;" glyph-name="florin" horiz-adv-x="600" d="M83 317H242L250 355Q263 422 290 481T354 584T432 653T520 679Q556 679 571 662T587 625Q587 605 576 589T556 561Q533 586 511 605T462 625Q449 625 435 617T405 577T369 484T328 317H514L504
273H319L266 15Q247 -75 217 -129T154 -213T92 -251T45 -260Q36 -260 25 -257T3 -246T-14 -228T-21 -203Q-21 -189 -14 -175T4 -153Q14 -162 25 -172T48 -191T71 -205T94 -211Q122 -211 137 -172T167 -61L233 273H77L83 317Z" />
<glyph unicode="&#x1fa;" glyph-name="Aringacute" horiz-adv-x="674" d="M-35 32L23 55L376 664L409 669L444 679L535 52L597 32L591 0H352L359 33L444 56L418 236H186L92 60L181 33L174 0H-41L-35 32ZM218 296H410L370 579H369L218 296ZM313 817Q313 841 322
862T347 898T384 922T430 931Q480 931 513 899T547 817Q547 793 538 772T513 736T476 712T430 703Q380 703 347 735T313 817ZM359 817Q359 785 380 765T430 744Q459 744 480 764T501 817Q501 849 480 869T430 890Q401 890 380 870T359 817ZM604 1097V1077L469 958H417L511
1097H604Z" />
<glyph unicode="&#x1fb;" glyph-name="aringacute" horiz-adv-x="536" d="M489 491L375 62L378 61Q411 71 440 100T486 159L506 153Q495 121 475 92T433 39T388 3T348 -11Q313 -11 300 16T306 102L336 205H333Q315 181 292 144T240 72T177 11T106 -14Q68 -14 47
13T25 80Q24 126 38 173T76 265T133 347T202 414T275 459T348 476Q370 476 388 471T419 457L428 491H489ZM153 61Q169 61 190 77T233 119T279 178T321 244T355 307T377 358L389 396Q375 413 358 424T320 436Q291 436 257 407T192 332T141 227T120 112Q120 90 127
76T153 61ZM269 674Q269 698 278 719T303 755T340 779T386 788Q436 788 469 756T503 674Q503 650 494 629T469 593T432 569T386 560Q336 560 303 592T269 674ZM315 674Q315 642 336 622T386 601Q415 601 436 621T457 674Q457 706 436 726T386 747Q357 747 336 727T315
674ZM569 981V961L434 842H382L476 981H569Z" />
<glyph unicode="&#x1fc;" glyph-name="AEacute" horiz-adv-x="920" d="M548 321L495 47H737L825 179H861L815 0H313L319 33L405 56L457 321H281L102 60L188 33L181 0H-41L-35 32L22 55L428 606H427L341 632L347 664H841L915 668L874 491H840L829 619H607L558 367H691L736
449H766L725 245L695 244L685 320L548 321ZM496 619L314 367H466L516 619H496ZM742 875V855L607 736H555L649 875H742Z" />
<glyph unicode="&#x1fd;" glyph-name="aeacute" horiz-adv-x="610" d="M361 -11Q319 -11 288 8T246 73Q215 39 182 14T102 -11Q87 -11 70 -7T38 9T13 39T3 88Q3 112 12 130T38 163T77 188T123 207L260 249L266 276Q271 307 270 336T262 388T241 424T206 438Q177
438 154 418Q149 401 146 383T140 351Q137 334 135 318Q129 316 124 315Q119 314 114 314T104 313Q89 313 76 318T62 347Q62 366 78 389T119 434T174 469T234 485Q262 484 282 476T317 454T338 422T348 385H350Q387 441 431 463T515 485Q561 485 582 466T604 415Q604
379 582 350T522 297T435 254T332 219Q330 205 329 191T327 163Q325 116 340 85T396 54Q412 54 429 61T463 79T494 104T519 134L539 122Q530 101 512 78T471 35T420 2T361 -11ZM253 217L185 194Q133 177 113 154T92 105Q91 81 104 63T141 45Q159 45 175 53T204
74T226 99T241 120Q240 158 252 212L253 217ZM486 446Q467 446 446 431T405 390T368 329T340 252Q380 265 413 281T469 316T506 358T519 410Q519 430 511 438T486 446ZM526 756V737L402 551H356L455 756H526Z" />
<glyph unicode="&#x1fe;" glyph-name="Oslashacute" horiz-adv-x="737" d="M623 875V855L488 736H436L530 875H623ZM42 -50L128 61Q94 99 74 149T53 262Q53 334 79 408T156 542T283 640T459 679Q489 679 519 670T578 644L639 723H690L611 621Q654 584 682 528T710
397Q710 323 683 249T603 114T475 17T304 -21Q265 -21 227 -7T157 33L93 -50H42ZM610 423Q610 519 574 573L192 78Q212 52 243 38T321 23Q388 23 441 61T532 157T590 287T610 423ZM153 229Q153 197 157 169T170 117L546 603Q508 635 447 635Q390 635 337 604T243
517T178 388T153 229Z" />
<glyph unicode="&#x1ff;" glyph-name="oslashacute" horiz-adv-x="477" d="M445 756V737L321 551H275L374 756H445ZM-7 -50L68 49Q34 97 34 163Q34 216 52 273T105 377T190 454T303 485Q344 485 376 461L425 526H470L402 436Q422 412 432 381T443 318Q443 264
425 206T372 99T288 20T175 -11Q128 -11 92 22L38 -50H-7ZM357 343Q357 351 357 358T356 374L125 66Q138 19 178 19Q211 19 243 51T301 131T341 236T357 343ZM118 116L346 420Q339 436 326 445T293 455Q270 455 248 439T207 397T171 337T143 267T125 196T118 131V116Z"
/>
<glyph unicode="&#x218;" glyph-name="Scommaaccent" horiz-adv-x="517" d="M78 218L97 62Q123 47 150 35T219 23Q248 23 275 30T322 55T355 98T369 163Q369 183 364 200T346 233T313 266T262 302L231 321Q176 355 145 392T114 487Q114 527 132 562T183 623T258
664T351 679Q397 679 439 670T510 654L465 470H426V609Q406 623 382 631T323 640Q296 640 273 631T234 606T208 570T198 529Q198 511 201 496T213 466T238 438T280 406L314 384Q351 360 378 340T424 298T452 252T461 198Q461 150 440 111T382 43T300 -1T203 -17Q174
-17 147 -13T94 -3T49 9T13 21L40 218H78ZM330 -240Q383 -220 405 -201T428 -159Q428 -127 382 -121Q384 -98 400 -81T443 -63Q473 -63 490 -82T508 -128Q508 -152 495 -172T460 -211T406 -243T338 -267L330 -240Z" />
<glyph unicode="&#x219;" glyph-name="scommaaccent" horiz-adv-x="344" d="M283 137Q283 113 269 86T230 37T175 1T110 -14Q87 -14 68 -8T35 9T13 31T5 54Q5 66 7 75T14 92Q18 100 23 107H24Q69 78 103 61T166 43Q184 43 197 54T210 87Q210 109 200 128T181 159L130
230Q115 251 106 265T90 291T82 312T80 333Q80 364 98 392T142 441T197 474T250 486Q285 486 311 471T337 436Q337 416 330 400T318 378L315 377Q286 396 255 412T195 429Q177 429 164 418T151 385Q151 366 158 351T179 315L235 236Q248 218 257 205T272 180T280
159T283 137ZM239 -240Q292 -220 314 -201T337 -159Q337 -127 291 -121Q293 -98 309 -81T352 -63Q382 -63 399 -82T417 -128Q417 -152 404 -172T369 -211T315 -243T247 -267L239 -240Z" />
<glyph unicode="&#x21a;" glyph-name="uni021A" horiz-adv-x="647" d="M605 664L670 672L629 491H595L584 619H426L316 56L400 33L393 0H122L129 33L224 56L334 619H187L125 491H91L121 672L183 664H605ZM127 -240Q180 -220 202 -201T225 -159Q225 -127 179 -121Q181
-98 197 -81T240 -63Q270 -63 287 -82T305 -128Q305 -152 292 -172T257 -211T203 -243T135 -267L127 -240Z" />
<glyph unicode="&#x21b;" glyph-name="uni021B" horiz-adv-x="340" d="M48 459H133L179 583H241L211 459H342L336 415H202L120 70L124 67Q143 74 164 87T205 117T241 150T268 182L288 175Q275 146 250 113T194 53T133 7T81 -12Q54 -12 41 12T36 75L120 415H42L48
459ZM-49 -240Q4 -220 26 -201T49 -159Q49 -127 3 -121Q5 -98 21 -81T64 -63Q94 -63 111 -82T129 -128Q129 -152 116 -172T81 -211T27 -243T-41 -267L-49 -240Z" />
<glyph unicode="&#x237;" glyph-name="uni0237" horiz-adv-x="261" d="M147 396L61 415V420Q78 438 96 452Q112 464 132 474T176 485Q209 485 223 460T222 373L136 14Q122 -45 99 -95T46 -182T-17 -239T-85 -260Q-94 -260 -106 -257T-128 -247T-146 -231T-153
-207Q-153 -190 -145 -175T-126 -153Q-117 -162 -106 -172T-84 -191T-61 -205T-38 -211Q-10 -211 5 -173T39 -61L147 396Z" />
<glyph unicode="&#x2c6;" glyph-name="circumflex" horiz-adv-x="400" d="M76 551L215 756H271L322 551H280L231 692L120 551H76Z" />
<glyph unicode="&#x2c7;" glyph-name="caron" horiz-adv-x="400" d="M321 756L182 551H126L75 756H117L166 614L277 756H321Z" />
<glyph unicode="&#x2d8;" glyph-name="breve" horiz-adv-x="400" d="M176 566Q123 566 97 609T78 729H113Q120 627 189 627Q207 627 223 635T251 658T274 691T290 729H324Q308 657 273 612T176 566Z" />
<glyph unicode="&#x2d9;" glyph-name="dotaccent" horiz-adv-x="400" d="M147 651Q147 673 162 688T200 704Q222 704 237 689T253 651Q253 629 238 614T200 598Q178 598 163 613T147 651Z" />
<glyph unicode="&#x2da;" glyph-name="ring" horiz-adv-x="400" d="M83 674Q83 698 92 719T117 755T154 779T200 788Q250 788 283 756T317 674Q317 650 308 629T283 593T246 569T200 560Q150 560 117 592T83 674ZM129 674Q129 642 150 622T200 601Q229 601 250
621T271 674Q271 706 250 726T200 747Q171 747 150 727T129 674Z" />
<glyph unicode="&#x2db;" glyph-name="ogonek" horiz-adv-x="400" d="M295 0Q259 -32 235 -54T196 -94T175 -125T168 -156Q168 -171 177 -181T208 -192Q231 -192 250 -182T301 -145L315 -162Q300 -179 284 -196T250 -227T210 -250T163 -259Q125 -259 105 -240T85
-189Q85 -163 96 -142T129 -98T183 -53T256 0H295Z" />
<glyph unicode="&#x2dc;" glyph-name="tilde" horiz-adv-x="400" d="M164 633Q137 646 121 649T93 647T75 629T59 596L30 609L35 623Q48 661 65 682T104 711T149 715T200 698L223 687Q253 672 272 669T303 670T323 690T341 726L369 714L363 697Q348 656 331 633T292
602T245 599T189 621L164 633Z" />
<glyph unicode="&#x2dd;" glyph-name="hungarumlaut" horiz-adv-x="400" d="M205 756V737L91 551H45L134 756H205ZM355 756V737L241 551H195L284 756H355Z" />
</font>
</defs>
</svg>
