<?xml version="1.0" standalone="no"?> <!DOCTYPE svg PUBLIC "-//W3C//DTD SVG 1.0//EN" "http://www.w3.org/TR/2001/REC-SVG-20010904/DTD/svg10.dtd" > <svg xmlns="http://www.w3.org/2000/svg" width="100%" height="100%">
<defs >
<font horiz-adv-x="619" ><font-face
    font-family=""
    units-per-em="1000"
    panose-1="2 0 10 3 8 0 0 9 0 4"
    ascent="760"
    descent="-240"
    alphabetic="0" />
<missing-glyph horiz-adv-x="165" />
<glyph unicode=" " glyph-name="space" horiz-adv-x="165" />
<glyph unicode="!" glyph-name="exclam" horiz-adv-x="308" d="M352 715L157 205H126V715H352ZM125 -17Q107 -17 90 -10T61 10T41 39T33 74Q33 93 40 109T60 138T90 158T125 166Q144 166 161 159T190 139T210 110T217 74Q217 56 210 40T191 11T161 -9T125 -17Z" />
<glyph unicode="&quot;" glyph-name="quotedbl" horiz-adv-x="465" d="M120 716H286L174 434H148L120 716ZM332 716H498L386 434H360L332 716Z" />
<glyph unicode="#" glyph-name="numbersign" horiz-adv-x="593" d="M127 435H245L304 594H353L293 435H430L489 594H538L478 435H598L588 390H462L392 205H506L497 160H375L316 0H267L327 160H190L131 0H82L142 160H27L36 205H159L228 390H118L127 435ZM207 205H344L413
390H277L207 205Z" />
<glyph unicode="$" glyph-name="dollar" horiz-adv-x="567" d="M73 242L99 82Q115 71 133 61T171 45L232 235L195 248Q123 273 92 315T59 421Q59 468 80 510T141 585T235 636T356 655H366L397 752H437L405 652Q446 647 477 637T542 616L494 429H464L442 579Q430
586 417 592T389 602L326 403L374 387Q419 372 448 355T494 318T519 273T526 220Q526 160 494 116T415 43T314 0T214 -14Q209 -14 204 -14T193 -13L156 -131H115L154 -9Q107 -2 71 11T8 37L42 242H73ZM209 37H223Q286 37 315 65T344 134Q344 165 328 187T269 223L209
37ZM220 509Q220 477 236 454T290 416L351 609H339Q308 609 286 601T249 578T227 545T220 509Z" />
<glyph unicode="%" glyph-name="percent" horiz-adv-x="903" d="M271 581Q255 581 240 559T212 502T193 427T185 351Q185 285 209 285Q225 285 241 309T269 368T288 443T296 515Q296 550 290 565T271 581ZM221 -50H174L676 629H728L221 -50ZM209 255Q171 255 143
266T95 298T65 345T55 406Q55 443 69 480T110 546T178 593T271 611Q304 611 332 600T381 570T413 523T425 462Q425 424 411 387T370 320T303 273T209 255ZM694 309Q678 309 663 287T635 230T616 155T608 79Q608 13 632 13Q648 13 664 37T692 96T711 171T719 243Q719
278 713 293T694 309ZM632 -17Q594 -17 566 -6T518 26T488 73T478 134Q478 171 492 208T533 274T601 321T694 339Q727 339 755 328T804 298T836 251T848 190Q848 152 834 115T793 48T726 1T632 -17Z" />
<glyph unicode="&amp;" glyph-name="ampersand" horiz-adv-x="924" d="M601 395Q569 417 543 432T490 447Q474 447 466 438T457 415Q457 394 476 374T521 333Q508 308 489 288T446 268Q441 268 432 270T415 280T400 303T393 345Q393 375 409 414T453 487T517 546T594
570Q622 570 642 559T696 526Q740 498 766 481T809 455T833 443T851 440Q867 441 873 454T879 484Q878 504 867 533T827 602Q844 613 859 620T892 628Q915 628 932 613T949 565Q949 529 932 486T888 406T827 343T759 318Q731 318 708 328T650 361Q635 251 601 176T520
54T416 -13T298 -34Q241 -34 195 -18T115 30T63 108T45 214Q45 282 68 341T126 445T204 516T286 542Q304 542 317 537T348 521L467 703L511 675L167 218Q193 183 235 163T330 143Q376 143 418 154T496 194T563 268T616 385Q612 387 609 389T601 395ZM130 338Q130
290 149 249L270 415Q260 429 243 439T205 450Q172 450 151 418T130 338Z" />
<glyph unicode="&apos;" glyph-name="quotesingle" horiz-adv-x="253" d="M120 716H286L174 434H148L120 716Z" />
<glyph unicode="(" glyph-name="parenleft" horiz-adv-x="337" d="M206 -180Q137 -111 95 -21T53 173Q53 254 78 333T148 484T252 619T381 732H441Q382 678 332 613T244 472T186 310T165 128Q165 86 170 48T186 -28T216 -103T261 -180H206Z" />
<glyph unicode=")" glyph-name="parenright" horiz-adv-x="337" d="M124 732Q193 663 235 573T277 379Q277 298 252 219T182 68T78 -67T-51 -180H-111Q-52 -126 -2 -61T86 80T144 242T165 424Q165 508 143 580T69 732H124Z" />
<glyph unicode="*" glyph-name="asterisk" horiz-adv-x="402" d="M329 498L317 373L299 370L236 475L114 446L105 462L189 555L123 661L132 673L250 628L328 720L342 716L335 591L447 547L446 529L329 498Z" />
<glyph unicode="+" glyph-name="plus" horiz-adv-x="568" d="M310 214V0H258V214H47V266H258V480H310V266H521V214H310Z" />
<glyph unicode="," glyph-name="comma" horiz-adv-x="346" d="M-34 -152Q30 -119 71 -84T113 -6Q113 26 90 42T31 56Q27 82 34 102T54 137T87 158T127 166Q147 166 166 159T200 139T224 104T233 54Q233 24 219 -8T175 -71T96 -132T-20 -185L-34 -152Z" />
<glyph unicode="-" glyph-name="hyphen" horiz-adv-x="397" d="M93 342H341L321 238H73L93 342Z" />
<glyph unicode="." glyph-name="period" horiz-adv-x="319" d="M121 -17Q103 -17 86 -10T57 10T37 39T29 74Q29 93 36 109T56 138T86 158T121 166Q140 166 157 159T186 139T206 110T213 74Q213 56 206 40T187 11T157 -9T121 -17Z" />
<glyph unicode="/" glyph-name="slash" horiz-adv-x="419" d="M-98 -194L422 758L464 734L-58 -217L-98 -194Z" />
<glyph unicode="0" glyph-name="zero" horiz-adv-x="640" d="M367 507Q342 507 318 469T274 374T242 249T230 124Q230 66 240 43T270 19Q287 19 304 37T336 87T364 158T386 241T400 326T406 403Q406 462 396 484T367 507ZM266 -19Q208 -19 163 0T88 51T42 126T26
220Q26 286 51 345T121 448T231 519T373 545Q424 545 467 528T543 480T594 405T612 309Q612 248 590 190T525 85T417 10T266 -19Z" />
<glyph unicode="1" glyph-name="one" horiz-adv-x="465" d="M306 58L412 41L404 0H-13L-5 41L109 58L181 425H60L69 467L398 543H402L306 58Z" />
<glyph unicode="2" glyph-name="two" horiz-adv-x="512" d="M177 137H477L439 0H-1L7 54L147 166Q189 200 216 224T258 269T280 305T286 339Q286 376 261 397T201 419Q172 419 145 405T89 358L61 378Q72 405 89 434T133 488T196 529T279 545Q319 545 351 534T407
503T443 455T456 394Q456 360 446 333T413 281T358 235T279 189L177 137Z" />
<glyph unicode="3" glyph-name="three" horiz-adv-x="456" d="M-70 -197Q-12 -177 35 -153T116 -101T168 -41T186 28Q186 68 156 96T57 124H50L59 177L125 207Q181 232 217 262T254 343Q254 379 232 399T178 419Q154 419 126 409T62 359L33 378Q105 545 254 545Q294
545 325 534T377 503T410 459T421 406Q421 348 379 303T248 224L214 211Q289 206 334 171T380 68Q380 11 346 -36T253 -119T114 -183T-60 -230L-70 -197Z" />
<glyph unicode="4" glyph-name="four" horiz-adv-x="654" d="M285 13H-25L-12 87L497 540H572L490 141H614L588 13H464L423 -190H244L285 13ZM312 141L356 360L105 141H312Z" />
<glyph unicode="5" glyph-name="five" horiz-adv-x="420" d="M161 51Q161 104 132 148T39 226L138 529L417 545L386 381L122 372L120 368Q187 343 233 314T306 254T346 188T358 120Q358 2 252 -89T-58 -227L-68 -194Q52 -141 106 -81T161 51Z" />
<glyph unicode="6" glyph-name="six" horiz-adv-x="633" d="M670 716Q538 663 447 589T303 421H307Q321 437 348 450T416 464Q462 464 497 448T555 406T591 345T603 273Q603 212 580 159T515 67T413 4T281 -19Q219 -19 172 1T92 55T44 134T28 231Q28 301 54 363T126
480T233 580T365 659T510 715T660 746L670 716ZM325 395Q314 395 303 391T281 379Q230 266 230 138Q230 72 242 46T281 19Q308 19 328 47T361 115T381 200T388 276Q388 298 385 319T375 357T355 384T325 395Z" />
<glyph unicode="7" glyph-name="seven" horiz-adv-x="547" d="M-21 -176L402 343H62L99 523H577V518L134 -73L39 -213L-21 -176Z" />
<glyph unicode="8" glyph-name="eight" horiz-adv-x="568" d="M8 143Q8 182 25 210T70 260T131 296T197 322Q150 369 128 406T106 491Q106 528 122 563T170 625T248 668T355 685Q414 685 456 674T524 643T563 601T575 552Q575 521 563 497T528 452T476 413T409
379Q439 350 460 327T494 281T514 236T521 189Q521 143 499 105T438 40T350 -3T245 -19Q195 -19 152 -10T77 18T27 68T8 143ZM219 298Q203 277 187 240T171 150Q171 93 194 60T264 26Q278 26 293 31T320 46T341 73T349 114Q349 130 345 144T330 174T305 206T268
247L219 298ZM275 565Q275 524 294 499T339 448L383 404Q406 436 417 466T428 535Q428 583 406 616T349 649Q313 649 294 623T275 565Z" />
<glyph unicode="9" glyph-name="nine" horiz-adv-x="637" d="M-45 -180Q83 -116 172 -49T318 98H311Q299 87 276 78T221 68Q179 68 144 83T84 125T46 190T32 273Q32 326 54 375T117 462T218 522T352 545Q412 545 459 527T539 475T589 397T607 296Q607 200 554
115T413 -37T208 -150T-35 -210L-45 -180ZM308 129Q328 129 346 144Q375 198 390 258T405 390Q405 455 395 482T356 510Q329 510 309 483T275 416T254 331T247 250Q247 226 250 204T260 166T278 139T308 129Z" />
<glyph unicode=":" glyph-name="colon" horiz-adv-x="319" d="M120 -17Q102 -17 86 -10T57 10T37 39T29 74Q29 93 36 109T56 138T85 158T120 166Q139 166 156 159T185 139T205 110T212 74Q212 56 205 40T186 11T156 -9T120 -17ZM193 324Q175 324 159 331T130 351T110
380T103 416Q103 434 110 451T129 480T158 500T193 508Q212 508 229 501T258 481T278 451T286 416Q286 397 279 381T259 352T229 332T193 324Z" />
<glyph unicode=";" glyph-name="semicolon" horiz-adv-x="335" d="M193 324Q175 324 159 331T130 351T110 380T103 416Q103 434 110 451T129 480T158 500T193 508Q212 508 229 501T258 481T278 451T286 416Q286 397 279 381T259 352T229 332T193 324ZM-37 -152Q27
-119 68 -84T110 -6Q110 26 87 42T28 56Q24 82 31 102T51 137T84 158T124 166Q144 166 163 159T197 139T221 104T230 54Q230 24 216 -8T172 -71T93 -132T-23 -185L-37 -152Z" />
<glyph unicode="&lt;" glyph-name="less" horiz-adv-x="588" d="M137 252L531 69V12L57 236V269L531 492V435L137 252Z" />
<glyph unicode="=" glyph-name="equal" horiz-adv-x="568" d="M50 296V345H524V296H50ZM50 156V205H524V156H50Z" />
<glyph unicode="&gt;" glyph-name="greater" horiz-adv-x="588" d="M451 252L57 435V492L531 268V235L57 12V69L451 252Z" />
<glyph unicode="?" glyph-name="question" horiz-adv-x="450" d="M160 725L229 706Q277 693 317 671T388 619T434 549T451 461Q451 415 436 384T398 331T345 298T287 280L150 251L129 205H89L120 391L316 421Q364 429 382 440T401 466Q401 491 348 509T171 539L122
543L160 725ZM87 -17Q69 -17 52 -10T23 10T3 39T-5 74Q-5 93 2 109T22 138T52 158T87 166Q106 166 123 159T152 139T172 110T179 74Q179 56 172 40T153 11T123 -9T87 -17Z" />
<glyph unicode="@" glyph-name="at" horiz-adv-x="966" d="M504 178H499L478 145Q443 89 406 59T328 29Q290 29 267 55T244 125Q244 176 267 233T329 339T419 420T526 452Q540 452 554 450T583 443L599 475H722L655 202Q647 168 647 146T652 110T671 91T701 85Q726
85 753 104T803 157T840 241T855 350Q855 411 834 461T776 548T686 605T570 625Q495 625 420 594T283 503T184 359T145 165Q145 91 169 34T235 -61T334 -118T458 -138Q521 -138 568 -127T635 -107L634 -128Q618 -137 593 -146T539 -163T479 -174T418 -179Q341 -179
272 -160T150 -100T66 1T35 147Q35 221 58 288T122 412T217 516T335 596T467 646T604 664Q679 664 741 642T847 580T916 486T941 368Q941 301 916 239T845 129T738 52T603 23Q571 23 548 32T512 59T495 99T497 149L504 178ZM423 139Q431 139 445 153T474 192T506
250T535 323L560 403Q542 422 528 422Q505 422 484 395T445 329T418 246T409 165Q409 149 413 144T423 139Z" />
<glyph unicode="A" glyph-name="A" horiz-adv-x="732" d="M-42 41L29 59L410 670L459 679L525 690L622 59L684 41L675 0H325L334 41L414 59L393 215H188L97 62L201 41L192 0H-51L-42 41ZM220 268H386L356 496L220 268Z" />
<glyph unicode="B" glyph-name="B" horiz-adv-x="672" d="M-35 0L-27 41L53 59L161 605L87 623L95 664L392 667Q469 668 519 656T599 623T641 576T653 523Q653 482 634 453T583 402T509 369T418 351V346Q479 343 521 330T591 298T630 253T642 201Q642 148 617
110T545 47T434 11T290 -1L-35 0ZM443 184Q443 237 410 273T305 321L264 109Q260 90 263 77T275 54T296 41T321 37Q341 37 362 47T402 77T431 124T443 184ZM313 363H363Q385 368 404 381T439 413T462 458T471 512Q471 563 444 596T367 635L313 363Z" />
<glyph unicode="C" glyph-name="C" horiz-adv-x="732" d="M395 -18Q317 -18 252 2T139 60T65 155T39 283Q39 375 83 449T199 575T359 656T537 684Q600 684 650 667T738 630L698 436H674L635 589Q609 617 582 629T519 642Q475 642 431 615T351 537T293 413T270
248Q270 200 282 160T315 89T365 43T427 26Q456 26 479 34T519 57L641 240H671L617 26Q575 9 517 -4T395 -18Z" />
<glyph unicode="D" glyph-name="D" horiz-adv-x="794" d="M254 55Q262 51 279 46T317 41Q369 41 414 69T491 144T542 250T561 371Q561 434 546 481T505 559T444 608T368 632L254 55ZM-27 41L53 59L161 605L87 623L95 664L396 666Q479 666 549 647T671 590T751
498T780 375Q780 285 736 214T617 94T444 20T240 -4L-35 0L-27 41Z" />
<glyph unicode="E" glyph-name="E" horiz-adv-x="652" d="M312 324L256 54Q264 50 280 45T316 40H423L571 246H609L538 0H-35L-27 41L53 59L161 605L87 623L95 664H667L626 461H590L545 623H370L320 366H396L451 474H489L436 203H395L386 324H312Z" />
<glyph unicode="F" glyph-name="F" horiz-adv-x="612" d="M308 305L259 59L361 41L354 0H-35L-27 41L53 59L161 605L87 623L95 664H647L609 447H572L530 622H370L317 353H393L450 467H488L433 190H392L384 305H308Z" />
<glyph unicode="G" glyph-name="G" horiz-adv-x="780" d="M264 262Q263 155 297 92T394 29Q425 29 449 44T481 97L513 269L413 287L422 332H775L766 287L707 269L662 40Q625 25 585 14T505 -4T428 -15T358 -19Q289 -19 231 6T130 75T63 174T39 292Q39 380 78 452T184
576T343 656T538 684Q571 684 599 681T653 671T703 655T754 636L712 436H686L646 593Q629 613 600 627T528 642Q486 642 440 619T355 548T291 429T264 262Z" />
<glyph unicode="H" glyph-name="H" horiz-adv-x="832" d="M418 41L491 59L541 311H308L258 59L321 41L313 0H-35L-27 41L53 59L161 605L87 623L95 664H444L436 623L366 605L319 367H552L599 605L535 623L543 664H892L884 623L804 605L696 59L769 41L761 0H410L418 41Z" />
<glyph unicode="I" glyph-name="I" horiz-adv-x="394" d="M-27 41L53 59L161 605L87 623L95 664H454L446 623L366 605L258 59L331 41L323 0H-35L-27 41Z" />
<glyph unicode="J" glyph-name="J" horiz-adv-x="394" d="M263 87Q250 22 224 -28T154 -114T48 -174T-100 -207L-109 -178Q-66 -150 -39 -125T7 -72T35 -13T54 57L163 605L87 623L95 664H454L446 623L366 605L263 87Z" />
<glyph unicode="K" glyph-name="K" horiz-adv-x="754" d="M-27 41L53 59L161 605L87 623L95 664H454L446 623L366 607L258 61L321 41L314 0H-35L-27 41ZM718 0Q647 -7 598 -9T514 -5T455 24T411 85T370 187T321 341V343L627 607L547 623L554 664H794L785 623L700
607L488 429Q515 343 537 283T578 181T614 115T648 76T683 53T725 39L718 0Z" />
<glyph unicode="L" glyph-name="L" horiz-adv-x="602" d="M255 53Q265 48 281 44T315 39H390L548 275H587L508 0H-35L-27 41L53 59L161 605L87 623L95 664H454L446 623L366 605L255 53Z" />
<glyph unicode="M" glyph-name="M" horiz-adv-x="957" d="M-34 41L49 59L195 599L116 623L124 664H406L489 297L691 630L706 664H986L978 623L899 606L828 59L901 41L893 0H546L554 41L628 59L688 543L445 143L377 24H342L323 141L229 540L107 62L214 42L206 0H-42L-34
41Z" />
<glyph unicode="N" glyph-name="N" horiz-adv-x="726" d="M477 0L193 495L115 63L216 41L208 0H-35L-27 41L54 59L152 563Q141 584 122 598T90 617L74 623L82 664H327L575 236L637 601L538 623L544 664H786L778 622L698 605L602 123L584 0H477Z" />
<glyph unicode="O" glyph-name="O" horiz-adv-x="785" d="M466 686Q523 686 578 668T676 610T746 512T773 370Q773 298 742 229T655 104T521 15T346 -19Q289 -19 234 -1T136 57T66 155T39 297Q39 369 70 438T157 563T291 652T466 686ZM549 462Q549 487 546 519T532
579T505 627T460 646Q416 646 380 609T318 509T278 368T263 204Q263 178 266 147T279 87T306 40T351 21Q394 21 430 58T493 157T534 298T549 462Z" />
<glyph unicode="P" glyph-name="P" horiz-adv-x="675" d="M336 304Q410 320 450 367T491 480Q491 543 458 581T367 634L255 59L338 41L330 0H-35L-27 41L53 59L161 605L87 623L95 664L401 668Q542 663 616 616T690 489Q690 433 662 392T584 323T470 282T331 271L336 304Z" />
<glyph unicode="Q" glyph-name="Q" horiz-adv-x="785" d="M466 686Q523 686 577 668T675 610T744 512T771 370Q771 312 751 255T693 150T602 63T482 5Q517 -28 548 -54T611 -98T677 -125T751 -135Q778 -135 814 -129T896 -99L909 -124Q888 -142 862 -158T802 -188T725
-210T625 -218Q574 -218 528 -205T433 -164T326 -90T193 21Q160 38 133 63T85 122T53 200T41 297Q41 369 71 438T158 563T292 652T466 686ZM551 461Q551 486 548 518T534 579T507 626T461 646Q417 646 381 609T318 510T276 369T261 206Q261 180 264 148T278 88T305
41T351 21Q395 21 431 58T494 156T536 297T551 461Z" />
<glyph unicode="R" glyph-name="R" horiz-adv-x="743" d="M-27 41L53 59L161 605L87 623L95 664L394 667Q534 669 607 628T680 509Q680 452 641 412T512 346Q535 280 552 234T585 155T614 104T643 73T677 54T718 40L711 0Q641 -6 593 -8T510 -5T454 19T413 72T378
161T338 294H296L250 61L330 41L323 0H-35L-27 41ZM304 334Q398 347 442 389T487 503Q487 527 479 549T455 590T416 619T363 634L304 334Z" />
<glyph unicode="S" glyph-name="S" horiz-adv-x="575" d="M76 258L118 62Q141 45 167 35T224 25Q277 25 303 57T330 134Q330 149 327 163T316 191T291 219T250 249L205 276Q143 313 118 354T92 457Q92 499 112 540T171 613T266 666T396 687Q450 687 495 674T579
640L527 439H496L472 610Q447 628 426 636T381 644Q355 644 335 636T300 613T278 581T270 541Q269 506 287 480T348 429L424 384Q480 350 503 313T527 227Q527 164 495 117T414 40T312 -6T212 -22Q178 -22 147 -17T89 -4T41 12T6 29L43 258H76Z" />
<glyph unicode="T" glyph-name="T" horiz-adv-x="702" d="M698 442H667L630 613H521L412 59L506 41L498 0H96L104 41L207 59L316 613H207L102 442H71L115 664H742L698 442Z" />
<glyph unicode="U" glyph-name="U" horiz-adv-x="736" d="M350 -20Q195 -20 129 55T92 285L155 605L81 623L89 664H448L440 623L360 605L288 235Q280 192 285 160T307 107T347 74T403 63Q479 63 530 113T601 274L657 602L561 623L567 664H809L801 623L721 605L662
283Q651 224 630 170T572 73T481 6T350 -20Z" />
<glyph unicode="V" glyph-name="V" horiz-adv-x="667" d="M136 606L74 623L82 664H422L414 623L346 605L398 195L611 605L533 623L541 664H742L734 623L669 605L328 -12H232L136 606Z" />
<glyph unicode="W" glyph-name="W" horiz-adv-x="1022" d="M546 376L318 -12H224L143 605L79 622L87 664H418L410 623L352 603L395 195L537 447L516 606L464 623L472 664H797L789 623L721 605L766 213L961 605L893 623L901 664H1092L1084 623L1020 605L693 -12H597L546
376Z" />
<glyph unicode="X" glyph-name="X" horiz-adv-x="726" d="M52 59L286 299L165 606L90 623L99 664H469L460 623L383 606L448 426H451L607 603L531 623L540 664H771L762 623L676 602L465 381L593 59L674 41L665 0H288L297 42L374 59L306 250H303L128 61L204 41L195
0H-45L-36 41L52 59Z" />
<glyph unicode="Y" glyph-name="Y" horiz-adv-x="705" d="M454 259L414 59L494 40L485 0H113L122 40L210 59L247 242L137 605L73 623L82 664H456L447 623L356 607L432 302L637 605L550 623L559 664H770L762 623L699 605L454 259Z" />
<glyph unicode="Z" glyph-name="Z" horiz-adv-x="693" d="M4 42L416 614H208L99 437H67L103 664H686V652L244 49H488L635 241H668L594 0H-5L4 42Z" />
<glyph unicode="[" glyph-name="bracketleft" horiz-adv-x="329" d="M3 -181L182 733H411L400 685H300L142 -133H242L231 -181H3Z" />
<glyph unicode="\" glyph-name="backslash" horiz-adv-x="447" d="M332 -217L115 748L162 758L377 -208L332 -217Z" />
<glyph unicode="]" glyph-name="bracketright" horiz-adv-x="329" d="M327 733L147 -181H-80L-69 -133H29L187 685H87L98 733H327Z" />
<glyph unicode="^" glyph-name="asciicircum" horiz-adv-x="489" d="M75 468L299 756H351L484 468H429L310 672L130 468H75Z" />
<glyph unicode="_" glyph-name="underscore" horiz-adv-x="408" d="M-66 -169H313L301 -231H-79L-66 -169Z" />
<glyph unicode="`" glyph-name="grave" horiz-adv-x="280" d="M290 775L324 582H291L162 768V775H290Z" />
<glyph unicode="a" glyph-name="a" d="M600 530L497 130H502Q521 148 540 171T579 220L611 205Q498 -13 356 -13Q338 -13 325 -5T305 18T298 52T306 94L348 206H341Q320 169 294 130T237 57T173 3T103 -18Q85 -18 67 -12T35 9T11 45T2 101Q2 137 14 181T50 271T105
358T179 434T270 487T374 507Q388 507 402 505T433 497L450 530H600ZM213 112Q225 112 247 136T295 203T348 305T396 433L401 450Q392 458 381 463T359 469Q337 469 317 453T278 411T245 352T218 283T201 215T194 154Q194 127 199 120T213 112Z" />
<glyph unicode="b" glyph-name="b" horiz-adv-x="586" d="M203 -22Q154 -22 101 -9T7 35L-5 45L129 612L54 676L59 696L342 753L230 291H236Q354 517 473 517Q493 517 512 509T546 484T570 442T579 380Q579 313 555 242T483 112T365 16T203 -22ZM172 51Q174 36
184 26T210 15Q231 15 252 32T292 78T328 143T357 216T377 287T384 346Q384 374 378 381T365 389Q354 389 339 373T306 331T271 274T237 210T209 150T191 104L172 51Z" />
<glyph unicode="c" glyph-name="c" horiz-adv-x="488" d="M293 455Q276 455 261 430T235 365T217 277T210 185Q210 136 224 117T261 98Q276 98 294 108T333 135T376 175T419 224L450 206Q418 147 388 105T324 35T254 -6T172 -19Q139 -19 110 -7T60 28T26 84T13
159Q13 228 48 299T163 433Q217 476 277 497T389 518Q412 518 431 510T465 489T487 461T495 430Q495 404 476 375T406 319Q372 378 341 416T293 455Z" />
<glyph unicode="d" glyph-name="d" horiz-adv-x="626" d="M355 514Q372 514 386 512T416 506L441 612L366 676L371 696L655 752L507 130H511Q530 148 550 171T588 220L620 205Q562 92 498 41T371 -13Q351 -13 337 -5T316 19T309 53T315 92L353 201H347Q328 166
303 128T246 57T180 3T107 -18Q87 -18 69 -11T37 13T14 57T5 124Q5 196 37 266T121 391T234 480T355 514ZM404 458Q384 477 366 477Q345 477 324 462T285 420T250 359T223 288T205 214T198 145Q198 129 202 119T216 108Q231 108 255 134T306 203T355 298T391 401L404
458Z" />
<glyph unicode="e" glyph-name="e" horiz-adv-x="492" d="M180 -19Q102 -19 58 24T13 159Q13 237 53 308T166 434Q227 480 282 499T388 518Q406 518 424 514T458 499T482 473T492 434Q492 394 466 361T398 300T304 253T201 220V212Q201 180 207 159T224 124T248
106T276 100Q296 100 316 110T357 136T395 172T429 212L458 195Q441 157 414 119T350 50T271 0T180 -19ZM309 461Q292 461 275 444T244 398T218 333T203 257Q231 270 256 288T299 329T328 374T339 421Q339 439 332 450T309 461Z" />
<glyph unicode="f" glyph-name="f" horiz-adv-x="408" d="M35 505H137Q159 566 199 613T288 692T389 741T488 758Q516 758 537 751T574 732T596 706T604 676Q604 656 594 640T567 610T528 586T484 570Q461 638 444 674T406 711Q377 711 358 658T321 505H434L425
449H310L259 168Q245 89 219 28T160 -78T90 -153T17 -202T-52 -228T-109 -236Q-152 -236 -176 -216T-201 -165Q-201 -133 -173 -106T-86 -64Q-70 -118 -52 -145T-19 -173Q-12 -173 -7 -170T4 -158T13 -130T24 -82L122 449H25L35 505Z" />
<glyph unicode="g" glyph-name="g" horiz-adv-x="544" d="M285 513Q314 513 341 507T391 494L564 513L561 436L444 447L442 442Q456 428 466 407T476 360Q476 325 461 293T417 235T344 195T242 178Q222 177 203 179T165 187Q156 179 156 167Q156 155 166 145T215
125L378 80Q432 65 456 38T480 -26Q480 -76 452 -115T378 -182T273 -223T153 -238Q93 -238 51 -228T-18 -202T-57 -164T-70 -120Q-70 -78 -34 -56T72 -24V-20Q43 -8 21 16T-1 75Q-1 97 7 113T30 142T70 169T126 198V201Q88 218 66 249T43 326Q43 363 58 396T104
456T179 497T285 513ZM103 -29Q99 -32 88 -47T77 -90Q77 -114 88 -132T119 -163T164 -182T217 -188Q242 -188 265 -183T307 -170T336 -149T347 -123Q347 -110 336 -102T306 -88L103 -29ZM296 474Q279 474 262 451T230 394T206 321T196 248Q196 210 219 210Q237
210 255 232T288 287T311 358T320 431Q320 447 315 460T296 474Z" />
<glyph unicode="h" glyph-name="h" horiz-adv-x="625" d="M245 291H256Q278 337 305 378T364 450T429 499T499 517Q519 517 536 510T564 488T577 449T572 392L506 130H511Q530 148 549 171T588 220L620 205Q561 92 497 40T364 -13Q351 -13 338 -8T316 10T304 43T309
93L379 361Q384 384 375 384Q365 384 342 357T292 283T236 177T189 52L178 15L12 -16L-3 -1L143 612L68 676L73 696L355 753L245 291Z" />
<glyph unicode="i" glyph-name="i" horiz-adv-x="333" d="M100 399Q94 403 84 407T61 413T35 415T11 414L15 436Q31 451 52 465T99 492T152 511T209 518Q227 518 244 512T273 491T288 450T281 384L217 130H222Q241 148 260 171T299 220L331 205Q217 -13 77 -13Q63
-13 50 -8T27 10T16 43T20 93L100 399ZM138 659Q138 678 145 695T164 724T193 744T229 752Q248 752 265 745T295 725T315 695T323 659Q323 620 296 594T229 567Q191 567 165 593T138 659Z" />
<glyph unicode="j" glyph-name="j" horiz-adv-x="314" d="M104 399Q98 403 87 407T64 413T38 415T14 414L18 436Q34 451 55 465T101 492T154 511T211 518Q229 518 245 512T273 491T288 450T284 384L229 134Q208 40 170 -30T82 -146T-22 -215T-130 -238Q-169 -238
-197 -217T-227 -163Q-229 -126 -200 -102T-115 -64Q-95 -121 -86 -147T-58 -173Q-44 -173 -32 -148T-9 -82T14 14T40 128L104 399ZM141 659Q141 678 148 695T167 724T196 744T232 752Q251 752 268 745T298 725T318 695T326 659Q326 620 299 594T232 567Q194 567
168 593T141 659Z" />
<glyph unicode="k" glyph-name="k" horiz-adv-x="593" d="M452 -39Q423 -39 400 -33T357 -13T320 24T285 81L234 181Q206 118 187 53L176 15L12 -16L-3 -1L143 612L66 676L73 696L356 753L245 291H254Q273 333 298 373T354 446T418 497T490 517Q507 517 523 511T553
494T574 465T582 423Q582 403 575 382T547 336T492 286T399 231L543 2L541 -18Q528 -25 506 -32T452 -39ZM407 391Q389 391 368 375T324 330T279 265T237 186Q348 237 393 278T439 356Q439 372 431 381T407 391Z" />
<glyph unicode="l" glyph-name="l" horiz-adv-x="320" d="M321 205Q260 87 195 37T67 -13Q53 -13 40 -8T18 10T6 43T10 93L135 612L60 676L65 696L352 753L207 130H212Q231 148 250 171T289 220L321 205Z" />
<glyph unicode="m" glyph-name="m" horiz-adv-x="922" d="M99 399Q89 407 64 412T9 414L14 436Q29 451 49 465T92 491T139 510T186 518Q210 518 230 510T264 485T279 440T270 374L237 267H247Q274 322 304 368T365 447T431 498T502 517Q522 517 540 511T569 489T582
449T571 387L529 267H540Q567 322 597 368T659 447T725 498T797 517Q817 517 834 510T861 488T874 449T869 391L803 130H808Q827 148 846 171T885 220L917 205Q859 93 796 40T663 -13Q649 -13 636 -8T614 10T601 43T606 93L676 361Q681 384 672 384Q662 384 639
357T589 283T533 177T486 53L475 15L305 -16L289 -1L383 361Q388 384 379 384Q368 384 345 356T295 282T241 176T194 54L183 15L12 -16L-3 -1L99 399Z" />
<glyph unicode="n" glyph-name="n" horiz-adv-x="629" d="M99 399Q89 407 64 412T9 414L14 436Q29 451 49 465T92 491T139 510T186 518Q210 518 230 510T264 485T279 440T270 374L237 267H247Q274 322 304 368T366 447T432 498T504 517Q524 517 541 510T568 488T581
449T576 391L510 130H515Q534 148 553 171T592 220L624 205Q510 -13 370 -13Q356 -13 343 -8T321 10T308 43T313 93L383 361Q388 384 379 384Q373 384 360 372T331 337T296 283T259 215T223 137T193 52L182 15L12 -16L-3 -1L99 399Z" />
<glyph unicode="o" glyph-name="o" horiz-adv-x="590" d="M343 479Q327 479 311 460T280 409T254 336T232 253T218 170T213 97Q213 52 219 35T243 17Q260 17 277 35T309 85T336 155T358 236T373 318T378 391Q378 432 371 455T343 479ZM352 515Q403 515 443 498T511
452T555 384T570 298Q570 242 551 186T490 85T386 11T235 -18Q132 -18 75 40T18 199Q18 248 36 303T94 406T197 484T352 515Z" />
<glyph unicode="p" glyph-name="p" horiz-adv-x="596" d="M90 351Q73 343 55 334T20 315L3 351Q29 368 54 384T105 415L138 557H293L281 495Q352 518 409 518Q443 518 474 510T527 484T563 436T577 364Q577 296 547 228T468 105T357 16T232 -18Q208 -18 187 -12L153
-151L272 -167L264 -210H-95L-88 -169L-28 -151L90 351ZM230 26Q259 26 287 61T336 147T371 257T385 362Q385 404 372 426T325 448Q317 448 299 443L199 36Q213 26 230 26Z" />
<glyph unicode="q" glyph-name="q" horiz-adv-x="604" d="M291 29Q299 63 308 94T326 149Q336 177 346 201H340Q320 166 295 128T239 57T173 3T100 -18Q80 -18 62 -11T30 12T7 54T-2 117Q-2 195 28 265T109 389T222 474T351 506Q374 506 393 500T426 483L460 514H595L431
-151L509 -168L503 -210H142L151 -168L249 -151L291 29ZM208 108Q223 108 247 134T297 203T345 298T380 401L391 451Q370 472 350 472Q331 472 312 457T274 416T241 357T215 289T198 218T191 153Q191 108 208 108Z" />
<glyph unicode="r" glyph-name="r" horiz-adv-x="520" d="M99 399Q89 407 64 412T9 414L14 436Q31 454 53 469T99 495T146 512T190 518Q211 518 231 511T264 488T280 444T269 376L221 230H233Q268 320 297 376T353 464T403 507T452 518Q490 518 510 498T530 446Q530
414 516 390T480 350T436 326T394 317H372Q381 349 384 366T376 384Q364 384 343 357T296 285T246 187T203 77L183 15L11 -16L-3 -1L99 399Z" />
<glyph unicode="s" glyph-name="s" horiz-adv-x="424" d="M381 173Q381 138 361 104T306 42T228 -2T135 -19Q106 -19 79 -9T32 17T-1 56T-14 105Q-14 125 -3 150T36 204H40Q55 174 78 145T128 93T180 55T226 40Q237 40 245 47T253 67Q253 79 242 92T202 132L108
214Q73 245 60 268T47 319Q47 356 68 392T123 456T201 503T290 521Q315 521 338 513T380 490T410 456T421 415Q421 388 408 365T368 312H364Q345 340 323 365T278 409T234 439T196 450Q184 450 177 444T170 427Q170 421 172 416T181 403T199 386T229 360L299 300Q323
279 339 262T364 230T377 201T381 173Z" />
<glyph unicode="t" glyph-name="t" horiz-adv-x="416" d="M28 491L140 514L240 641H337L306 505H431L421 446H299L225 116H230Q252 133 272 153T310 194T342 233T365 264L397 241Q371 198 341 153T274 71T193 11T98 -13Q81 -13 67 -6T43 15T30 49T33 95L114 446H22L28
491Z" />
<glyph unicode="u" glyph-name="u" horiz-adv-x="625" d="M99 399Q93 403 83 407T60 413T34 415T10 414L14 435Q30 450 51 465T97 492T149 511T207 518Q225 518 241 511T268 486T281 441T273 373L215 141Q211 126 213 122T219 118Q229 118 251 145T301 216T355
319T401 441L415 487L586 519L601 503L504 130H509Q528 148 547 171T586 220L618 205Q561 94 497 41T365 -13Q350 -13 337 -8T316 11T308 45T319 98L381 273H373Q352 230 326 180T267 87T192 15T100 -14Q53 -14 31 17T26 118L99 399Z" />
<glyph unicode="v" glyph-name="v" horiz-adv-x="511" d="M268 134Q301 177 323 210T358 271T377 319T383 361Q383 387 369 402T331 418Q324 418 318 418T307 416Q301 415 295 414L300 436Q332 472 368 495T439 518Q461 518 476 511T501 493T515 467T520 436Q520
399 501 363T449 287T372 201T276 97L178 -14H169L100 13L71 402Q59 408 42 411T8 415Q3 415 -2 415T-12 413L-6 435Q10 452 30 467T73 493T118 510T161 517Q203 517 224 496T250 418L268 134Z" />
<glyph unicode="w" glyph-name="w" horiz-adv-x="789" d="M538 121H540Q569 161 591 193T629 254T653 309T661 361Q661 388 649 403T615 418Q606 418 596 417T576 414L581 436Q613 472 648 495T717 518Q739 518 754 511T779 493T793 466T798 435Q798 398 779 363T727
288T650 202T554 97L456 -14H447L368 12V188H366Q356 178 345 167T320 141T287 104T240 52L182 -14H168L96 12L85 394Q71 406 50 410T8 415Q3 415 -2 415T-12 413L-6 435Q30 473 77 495T163 517Q210 517 233 492T258 418L264 126H267Q293 155 316 182T363 242L361
403Q348 410 336 412T307 415Q301 415 296 415T285 413L291 435Q323 471 368 494T453 517Q466 517 481 514T509 500T531 466T540 403L538 121Z" />
<glyph unicode="x" glyph-name="x" horiz-adv-x="588" d="M342 -17Q330 -17 317 -15T291 -6T267 16T249 56L222 152Q201 112 182 80T142 26T98 -7T45 -19Q10 -19 -14 4T-38 66Q-38 89 -32 106T-18 135Q-9 149 3 160L27 139Q76 96 122 113T211 195L176 324Q165
362 156 375T136 388Q122 388 108 359T77 255H41Q45 328 62 378T103 459T158 503T220 516Q268 516 297 487T343 395L356 346L371 376Q409 454 442 487T518 520Q550 520 574 497T599 428Q599 382 569 349T498 292H462Q475 316 479 335T482 368T473 388T455 395Q433
395 413 369T368 304L422 114H427Q447 128 475 160T535 235L568 221Q509 106 450 45T342 -17Z" />
<glyph unicode="y" glyph-name="y" horiz-adv-x="537" d="M1 229Q5 310 19 364T57 452T111 499T176 513Q204 513 231 497T280 443T315 345T329 195Q329 140 325 98T315 18H323Q349 63 369 103T403 180T424 252T431 325Q431 368 419 409T378 490Q421 519 466 519Q479
519 492 514T517 498T534 468T541 422Q541 377 518 311T454 171T359 24T242 -107T113 -201T-19 -238Q-61 -238 -90 -214T-120 -143Q-120 -127 -114 -111T-97 -82T-70 -62T-32 -54Q7 -54 32 -83T70 -176H78Q97 -163 112 -136T137 -70T153 14T158 113Q158 171 153
220T140 307T120 365T96 386Q79 386 66 348T35 229H1Z" />
<glyph unicode="z" glyph-name="z" horiz-adv-x="555" d="M585 469L237 191L251 184Q303 156 340 147T406 144T457 175T501 237L532 222Q507 153 481 107T425 33T362 -7T290 -19Q263 -19 234 -8T156 32L88 71L24 -11L-23 35L329 315L207 364Q158 384 127 388T95
369Q95 355 116 344T194 322Q181 277 152 254T88 231Q50 231 31 252T12 302Q12 334 35 372T94 444T175 500T263 523Q279 523 294 521T330 512T380 489T457 447L475 436L532 518L585 469Z" />
<glyph unicode="{" glyph-name="braceleft" horiz-adv-x="322" d="M93 273Q132 271 157 265T195 243T209 204T203 144L163 -39Q157 -69 157 -88T167 -120T194 -137T240 -142L233 -181L215 -182Q156 -185 117 -174T58 -140T34 -83T42 -6L93 180Q104 219 97 235T59
252L19 253L28 299L68 300Q98 301 111 317T130 372L151 558Q156 600 172 634T219 691T292 726T394 734L410 733L403 695Q375 695 355 690T322 673T300 641T286 591L254 405Q248 371 238 347T209 308T162 286T94 278L93 273Z" />
<glyph unicode="|" glyph-name="bar" horiz-adv-x="230" d="M-1 -210L189 749H237L47 -210H-1Z" />
<glyph unicode="}" glyph-name="braceright" horiz-adv-x="322" d="M237 279Q198 280 173 287T135 309T121 348T127 408L167 591Q180 650 163 672T90 694L97 733L115 734Q174 737 213 726T272 692T296 634T288 558L237 372Q226 333 233 317T271 300L311 299L302
253L262 252Q232 251 219 235T200 180L179 -6Q174 -48 158 -82T111 -140T38 -174T-64 -182L-80 -181L-73 -143Q-45 -143 -25 -138T8 -121T30 -89T44 -39L76 147Q82 181 92 204T121 243T168 265T236 274L237 279Z" />
<glyph unicode="~" glyph-name="asciitilde" horiz-adv-x="542" d="M11 194L22 225Q41 279 66 311T121 357T185 371T256 357L327 333Q363 320 387 314T429 312T464 331T502 375L529 362L518 330Q481 231 424 194T275 189L223 207Q180 222 153 230T107 236T73 221T39
181L11 194Z" />
<glyph unicode="&#xa0;" glyph-name="uni00A0" horiz-adv-x="165" />
<glyph unicode="&#xa1;" glyph-name="exclamdown" horiz-adv-x="308" d="M-26 -118L169 392H200V-118H-26ZM201 614Q219 614 236 607T265 587T285 558T293 523Q293 504 286 488T266 459T236 439T201 431Q182 431 165 438T136 458T116 487T109 523Q109 541 116
557T135 586T165 606T201 614Z" />
<glyph unicode="&#xa2;" glyph-name="cent" horiz-adv-x="522" d="M187 -18Q155 -16 126 -3T75 34T39 93T25 173Q25 222 41 267T86 351T151 423T229 479Q258 496 291 505T356 517L390 625H430L396 516Q420 513 440 505T476 484T500 455T509 420Q509 403 502 391T482
370T455 355T425 343Q408 385 397 410T375 450L261 87H269Q286 87 302 91T338 111T383 153T442 225L471 206Q449 162 426 124T375 56T311 7T228 -17L193 -130H152L187 -18ZM339 469Q315 469 292 450T250 395T220 310T208 200Q208 168 213 147T228 111L341 469H339Z"
/>
<glyph unicode="&#xa3;" glyph-name="sterling" horiz-adv-x="737" d="M128 314H256L265 357Q280 427 319 482T408 574T512 632T610 652Q637 652 659 644T698 622T723 592T732 561Q732 543 722 528T696 502T658 484T614 474Q590 599 545 599Q519 599 504 572T478
483L450 332L446 314H614L601 258H428Q412 219 389 187T339 127T283 79T223 41Q243 30 260 20T292 1L340 -27Q389 -56 421 -76T476 -108T513 -125T539 -131Q571 -131 583 -95T577 27Q637 35 668 20T699 -28Q699 -58 674 -90T609 -148T523 -192T431 -209Q361 -209
301 -166T175 -42L138 4Q108 -6 84 -10T45 -15Q13 -15 -8 0T-30 45Q-30 76 -7 92T48 108Q74 108 106 97T172 68Q192 91 208 126T237 222L244 258H116L128 314Z" />
<glyph unicode="&#xa5;" glyph-name="yen" horiz-adv-x="649" d="M56 296H216L121 577L68 596L76 637H409L400 596L324 583L395 317H398L582 578L496 596L505 637H709L701 596L648 578L437 296H605L597 257H419L403 179H582L574 139H395L379 60L469 40L460 0H86L95
40L188 59L204 139H25L33 179H212L227 257H48L56 296Z" />
<glyph unicode="&#xa6;" glyph-name="brokenbar" horiz-adv-x="230" d="M103 313L189 749H237L151 313H103ZM-1 -210L85 226H133L47 -210H-1Z" />
<glyph unicode="&#xa7;" glyph-name="section" horiz-adv-x="540" d="M267 -114Q267 -98 261 -83T242 -48T211 -1T168 66L139 112Q115 150 99 180T72 237T58 286T53 334Q53 386 73 431T126 513T201 578T288 626T374 656T451 666Q502 666 527 641T553 583Q553 554
535 534T487 504Q467 517 444 532Q424 545 400 560T349 591Q314 591 287 582Q284 573 284 562Q284 547 290 531T310 495T342 447T385 380L414 334Q438 296 454 266T480 209T494 160T498 115Q498 63 478 18T425 -64T350 -129T264 -177T177 -207T100 -217Q49 -217
24 -192T-2 -134Q-2 -107 15 -86T64 -55Q84 -68 107 -83Q127 -96 151 -111T202 -141Q234 -141 264 -133Q267 -124 267 -114ZM173 411Q173 369 185 334T224 252L273 161Q302 107 321 64T341 -17Q341 -45 334 -65T315 -103H322Q378 -55 378 38Q378 78 366 112T329
194L280 285Q252 337 231 380T210 466Q210 494 217 514T236 552H229Q173 504 173 411Z" />
<glyph unicode="&#xa8;" glyph-name="dieresis" horiz-adv-x="400" d="M192 576Q157 576 133 600T108 659Q108 693 132 718T192 743Q226 743 251 718T276 659Q276 624 251 600T192 576ZM411 576Q377 576 353 600T329 659Q329 693 353 718T411 743Q428 743 443
736T470 718T489 691T496 659Q496 624 471 600T411 576Z" />
<glyph unicode="&#xa9;" glyph-name="copyright" horiz-adv-x="769" d="M46 338Q49 412 79 476T159 587T274 662T414 690Q487 690 550 663T660 588T731 476T753 338Q750 264 720 200T639 88T523 13T384 -15Q310 -15 247 12T138 86T68 198T46 338ZM81 338Q78 272
101 214T165 112T264 43T387 17Q452 17 511 42T615 110T688 212T719 338Q722 405 699 463T634 564T535 633T414 658Q348 658 289 633T185 565T112 463T81 338ZM398 135Q352 135 314 146T248 180T205 234T189 308Q189 361 214 403T280 476T373 522T479 538Q511 538
546 529T603 507L581 396H554L534 474Q509 505 470 505Q446 505 423 490T380 446T348 376T336 282Q336 230 358 200T413 169Q441 169 464 182L533 283H560L527 158Q504 151 470 143T398 135Z" />
<glyph unicode="&#xaa;" glyph-name="ordfeminine" horiz-adv-x="521" d="M506 665L429 367H434Q448 378 465 399T498 440L526 423Q480 343 429 294T321 245Q308 245 297 250T278 266T270 296T278 343L293 388H290Q273 360 253 334T211 286T164 252T113 239Q76
239 56 263T36 331Q36 393 63 450T133 551T227 621T326 647Q337 647 350 645T375 641L384 665H506ZM207 351Q217 351 231 363T260 398T291 450T317 515L343 598Q335 605 326 609T308 614Q290 614 270 587T233 522T204 441T193 370Q193 362 196 357T207 351Z" />
<glyph unicode="&#xab;" glyph-name="guillemotleft" horiz-adv-x="584" d="M317 400L168 233L243 49L213 29L29 213L35 241L295 425L317 400ZM542 400L393 233L468 49L438 29L254 213L260 241L520 425L542 400Z" />
<glyph unicode="&#xac;" glyph-name="logicalnot" horiz-adv-x="568" d="M514 277V71H460V227H40V277H514Z" />
<glyph unicode="&#xae;" glyph-name="registered" horiz-adv-x="515" d="M97 535Q97 582 115 623T164 694T238 741T327 759Q374 759 415 742T487 694T535 623T553 535Q553 488 535 448T486 377T412 330T323 312Q276 312 235 329T163 376T115 447T97 535ZM129 535Q129
494 144 458T185 396T247 354T324 338Q366 338 402 353T465 394T507 457T522 535Q522 577 507 613T465 675T402 717T324 732Q283 732 247 717T185 676T144 613T129 535ZM191 447L224 453L258 632L226 636L228 658H337Q370 658 392 652T427 637T445 616T451 596Q451
570 433 557T389 536V534Q404 504 414 487T432 460T448 448T466 444L462 427Q429 424 410 424T378 431T352 460T321 518H312L301 452L317 447L314 427H188L191 447ZM316 539H340Q360 543 370 558T380 589Q380 606 369 622T334 640L316 539Z" />
<glyph unicode="&#xaf;" glyph-name="macron" horiz-adv-x="400" d="M125 700H431L416 620H110L125 700Z" />
<glyph unicode="&#xb0;" glyph-name="degree" horiz-adv-x="336" d="M108 603Q108 630 118 654T147 696T190 724T243 735Q271 735 295 725T336 696T363 654T373 603Q373 575 363 551T334 509T291 481T239 470Q210 470 186 480T145 509T118 551T108 603ZM149 603Q149
561 175 533T241 505Q281 505 307 533T333 603Q333 645 307 673T241 701Q201 701 175 673T149 603Z" />
<glyph unicode="&#xb1;" glyph-name="plusminus" horiz-adv-x="568" d="M311 322V112H257V322H47V372H257V582H311V372H521V322H311ZM47 50H521V0H47V50Z" />
<glyph unicode="&#xb4;" glyph-name="acute" horiz-adv-x="280" d="M423 775V768L260 582H225L290 775H423Z" />
<glyph unicode="&#xb6;" glyph-name="paragraph" horiz-adv-x="587" d="M154 -210Q112 -210 79 -197T22 -160T-14 -106T-27 -40Q-27 -2 -13 28T23 78T74 110T131 121Q159 121 182 113T221 89T245 55T254 15Q254 -2 248 -18T229 -47T198 -67T158 -75Q149 -75 138
-72T116 -61T100 -40T93 -8Q119 5 142 20T178 51V57Q172 66 159 73T123 81Q106 81 88 74T55 52T30 16T20 -34Q20 -61 30 -84T59 -126T101 -154T154 -164Q183 -164 210 -154T260 -122T301 -65T329 19L447 618H395L320 233H270Q231 233 199 247T143 286T107 341T94
408Q94 463 117 509T178 590T262 644T356 664H612L604 623L523 605L411 35Q398 -33 373 -79T313 -155T238 -197T154 -210Z" />
<glyph unicode="&#xb7;" glyph-name="periodcentered" horiz-adv-x="314" d="M163 176Q143 176 126 183T95 204T74 234T66 271Q66 291 73 309T94 340T125 361T163 369Q183 369 200 362T231 341T252 309T260 271Q260 252 253 235T232 204T201 184T163 176Z" />
<glyph unicode="&#xb8;" glyph-name="cedilla" horiz-adv-x="280" d="M30 -219Q86 -201 118 -184T151 -140Q151 -121 137 -111T103 -94Q104 -92 115 -77T139 -44L173 4H210L178 -40Q222 -46 250 -65T278 -114Q278 -167 215 -198T38 -247L30 -219Z" />
<glyph unicode="&#xba;" glyph-name="ordmasculine" horiz-adv-x="498" d="M210 336Q210 301 217 288T237 275Q258 275 276 306T309 384T332 481T340 573Q340 630 313 630Q293 630 275 598T242 520T219 424T210 336ZM326 666Q362 666 393 653T448 616T485 561T498
492Q498 445 481 400T431 318T346 260T228 238Q189 238 157 250T101 284T65 339T52 412Q52 458 69 503T121 585T207 643T326 666Z" />
<glyph unicode="&#xbb;" glyph-name="guillemotright" horiz-adv-x="584" d="M33 52L182 220L107 403L137 423L321 239L315 211L55 27L33 52ZM258 52L407 220L332 403L362 423L546 239L540 211L280 27L258 52Z" />
<glyph unicode="&#xbc;" glyph-name="onequarter" horiz-adv-x="848" d="M257 316L314 306L310 279H30L36 306L112 316L163 574L81 569V598L313 668H329L257 316ZM117 -55L725 729L758 706L149 -81L117 -55ZM604 37L614 87H433L445 138L742 395L801 386L753 159H808L794
87H738L728 36L772 28L768 0H544L551 27L604 37ZM628 159L654 283L514 159H628Z" />
<glyph unicode="&#xbd;" glyph-name="onehalf" horiz-adv-x="878" d="M117 -55L725 729L758 706L149 -81L117 -55ZM257 316L314 306L310 279H30L36 306L112 316L163 574L81 569V598L313 668H329L257 316ZM628 104H832L810 0H491L501 38L629 138Q656 159 671 175T693
203T701 227T703 250Q703 276 686 294T638 313Q618 313 598 300T560 261L535 278Q548 302 564 324T600 364T646 391T705 401Q735 401 758 391T796 365T819 329T827 288Q827 253 812 229T771 185T716 151T656 119L628 104Z" />
<glyph unicode="&#xbe;" glyph-name="threequarters" horiz-adv-x="846" d="M260 497Q304 490 331 465T359 405Q359 369 339 343T288 301T222 276T159 268Q103 268 67 286T30 339Q30 354 43 370T87 390Q104 338 128 318T175 297Q209 297 221 315T234 356Q234 392
201 417T104 445L109 477Q176 488 209 505T242 556Q242 574 230 586T196 599Q177 599 156 588T109 550L88 565Q95 579 108 598T141 634T190 664T254 677Q301 677 331 658T362 600Q362 562 334 540T260 502V497ZM115 -55L723 729L756 706L147 -81L115 -55ZM602 37L612
87H431L443 138L740 395L799 386L751 159H806L792 87H736L726 36L770 28L766 0H542L549 27L602 37ZM626 159L652 283L512 159H626Z" />
<glyph unicode="&#xbf;" glyph-name="questiondown" horiz-adv-x="450" d="M304 -128L235 -109Q187 -96 147 -74T76 -22T30 48T13 136Q13 182 28 213T66 266T119 299T177 317L314 346L335 392H375L344 206L148 176Q100 168 82 157T63 131Q63 105 116 87T293 58L342
54L304 -128ZM377 614Q395 614 412 607T441 587T461 558T469 523Q469 504 462 488T442 459T412 439T377 431Q358 431 341 438T312 458T292 487T285 523Q285 541 292 557T311 586T341 606T377 614Z" />
<glyph unicode="&#xc0;" glyph-name="Agrave" horiz-adv-x="732" d="M-42 41L29 59L410 670L459 679L525 690L622 59L684 41L675 0H325L334 41L414 59L393 215H188L97 62L201 41L192 0H-51L-42 41ZM220 268H386L356 496L220 268ZM454 865L497 716H446L328 851V865H454Z" />
<glyph unicode="&#xc1;" glyph-name="Aacute" horiz-adv-x="732" d="M-42 41L29 59L410 670L459 679L525 690L622 59L684 41L675 0H325L334 41L414 59L393 215H188L97 62L201 41L192 0H-51L-42 41ZM220 268H386L356 496L220 268ZM663 865V851L495 716H442L523 865H663Z" />
<glyph unicode="&#xc2;" glyph-name="Acircumflex" horiz-adv-x="732" d="M-42 41L29 59L410 670L459 679L525 690L622 59L684 41L675 0H325L334 41L414 59L393 215H188L97 62L201 41L192 0H-51L-42 41ZM220 268H386L356 496L220 268ZM319 716L446 865H558L617
716H571L485 787L374 716H319Z" />
<glyph unicode="&#xc3;" glyph-name="Atilde" horiz-adv-x="732" d="M-42 41L29 59L410 670L459 679L525 690L622 59L684 41L675 0H325L334 41L414 59L393 215H188L97 62L201 41L192 0H-51L-42 41ZM220 268H386L356 496L220 268ZM290 750L299 767Q323 810 344
837T388 877T439 890T504 880L547 868Q592 855 627 862T698 911L720 901L706 878Q679 831 657 804T612 763T563 751T500 762L457 774Q428 781 407 784T370 783T340 769T312 740L290 750Z" />
<glyph unicode="&#xc4;" glyph-name="Adieresis" horiz-adv-x="732" d="M-42 41L29 59L410 670L459 679L525 690L622 59L684 41L675 0H325L334 41L414 59L393 215H188L97 62L201 41L192 0H-51L-42 41ZM220 268H386L356 496L220 268ZM357 713Q322 713 298 737T273
796Q273 830 297 855T357 880Q391 880 416 855T441 796Q441 761 416 737T357 713ZM613 713Q579 713 555 737T531 796Q531 830 555 855T613 880Q630 880 645 873T672 855T691 828T698 796Q698 761 673 737T613 713Z" />
<glyph unicode="&#xc5;" glyph-name="Aring" horiz-adv-x="732" d="M-42 41L29 59L410 670L459 679L525 690L622 59L684 41L675 0H325L334 41L414 59L393 215H188L97 62L201 41L192 0H-51L-42 41ZM220 268H386L356 496L220 268ZM373 829Q373 851 381 870T405 904T440
927T486 936Q537 936 567 906T597 831Q597 787 566 756T484 724Q433 724 403 754T373 829ZM417 831Q417 801 437 781T486 761Q515 761 534 780T553 829Q553 859 533 879T484 899Q455 899 436 880T417 831Z" />
<glyph unicode="&#xc6;" glyph-name="AE" horiz-adv-x="1024" d="M690 310L638 58Q646 54 662 49T698 44H795L943 246H981L910 0H346L354 41L434 59L483 307H296L117 62L213 41L204 0H-39L-30 41L38 59L459 599L364 623L372 664H1039L998 461H962L916 620H751L700
359H768L820 458H858L806 204H765L759 310H690ZM529 607L337 361H494L543 607H529Z" />
<glyph unicode="&#xc7;" glyph-name="Ccedilla" horiz-adv-x="732" d="M207 -219Q263 -201 295 -184T328 -140Q328 -121 314 -111T280 -94L337 -15Q270 -8 215 15T121 76T61 166T39 283Q39 375 83 449T199 575T359 656T537 684Q600 684 650 667T738 630L698 436H674L635
589Q605 619 580 630T519 642Q475 642 431 615T351 537T293 413T270 248Q270 200 282 160T315 89T365 43T427 26Q456 26 479 34T519 57L641 240H671L617 26Q575 9 517 -4T395 -18Q389 -18 383 -18T371 -17L355 -40Q399 -46 427 -65T455 -114Q455 -167 392 -198T215
-247L207 -219Z" />
<glyph unicode="&#xc8;" glyph-name="Egrave" horiz-adv-x="652" d="M421 865L464 716H413L295 851V865H421ZM312 324L256 54Q264 50 280 45T316 40H423L571 246H609L538 0H-35L-27 41L53 59L161 605L87 623L95 664H667L626 461H590L545 623H370L320 366H396L451
474H489L436 203H395L386 324H312Z" />
<glyph unicode="&#xc9;" glyph-name="Eacute" horiz-adv-x="652" d="M609 865V851L441 716H388L469 865H609ZM312 324L256 54Q264 50 280 45T316 40H423L571 246H609L538 0H-35L-27 41L53 59L161 605L87 623L95 664H667L626 461H590L545 623H370L320 366H396L451
474H489L436 203H395L386 324H312Z" />
<glyph unicode="&#xca;" glyph-name="Ecircumflex" horiz-adv-x="652" d="M266 716L393 865H505L564 716H518L432 787L321 716H266ZM312 324L256 54Q264 50 280 45T316 40H423L571 246H609L538 0H-35L-27 41L53 59L161 605L87 623L95 664H667L626 461H590L545
623H370L320 366H396L451 474H489L436 203H395L386 324H312Z" />
<glyph unicode="&#xcb;" glyph-name="Edieresis" horiz-adv-x="652" d="M312 324L256 54Q264 50 280 45T316 40H423L571 246H609L538 0H-35L-27 41L53 59L161 605L87 623L95 664H667L626 461H590L545 623H370L320 366H396L451 474H489L436 203H395L386 324H312ZM294
713Q259 713 235 737T210 796Q210 830 234 855T294 880Q328 880 353 855T378 796Q378 761 353 737T294 713ZM550 713Q516 713 492 737T468 796Q468 830 492 855T550 880Q567 880 582 873T609 855T628 828T635 796Q635 761 610 737T550 713Z" />
<glyph unicode="&#xcc;" glyph-name="Igrave" horiz-adv-x="394" d="M-27 41L53 59L161 605L87 623L95 664H454L446 623L366 605L258 59L331 41L323 0H-35L-27 41ZM543 865L586 716H535L417 851V865H543Z" />
<glyph unicode="&#xcd;" glyph-name="Iacute" horiz-adv-x="394" d="M-27 41L53 59L161 605L87 623L95 664H454L446 623L366 605L258 59L331 41L323 0H-35L-27 41ZM729 865V851L561 716H508L589 865H729Z" />
<glyph unicode="&#xce;" glyph-name="Icircumflex" horiz-adv-x="394" d="M-27 41L53 59L161 605L87 623L95 664H454L446 623L366 605L258 59L331 41L323 0H-35L-27 41ZM139 716L266 865H378L437 716H391L305 787L194 716H139Z" />
<glyph unicode="&#xcf;" glyph-name="Idieresis" horiz-adv-x="394" d="M188 712Q153 712 129 736T104 795Q104 829 128 854T188 879Q222 879 247 854T272 795Q272 760 247 736T188 712ZM408 712Q374 712 350 736T326 795Q326 829 350 854T408 879Q425 879 440
872T467 854T486 827T493 795Q493 760 468 736T408 712ZM-27 41L53 59L161 605L87 623L95 664H454L446 623L366 605L258 59L331 41L323 0H-35L-27 41Z" />
<glyph unicode="&#xd0;" glyph-name="Eth" horiz-adv-x="794" d="M-27 41L53 59L105 321H29L38 365H113L161 605L87 623L95 664L396 666Q479 666 549 647T671 590T751 498T780 375Q780 285 736 214T617 94T444 20T240 -4L-35 0L-27 41ZM306 321L254 55Q262 51
279 46T317 41Q369 41 414 69T491 144T542 250T561 371Q561 434 546 481T505 559T444 608T368 632L315 365H429L420 321H306Z" />
<glyph unicode="&#xd1;" glyph-name="Ntilde" horiz-adv-x="726" d="M273 750L282 767Q306 810 327 837T371 877T422 890T487 880L530 868Q575 855 610 862T681 911L703 901L689 878Q662 831 640 804T595 763T546 751T483 762L440 774Q411 781 390 784T353 783T323
769T295 740L273 750ZM477 0L193 495L115 63L216 41L208 0H-35L-27 41L54 59L152 563Q141 584 122 598T90 617L74 623L82 664H327L575 236L637 601L538 623L544 664H786L778 622L698 605L602 123L584 0H477Z" />
<glyph unicode="&#xd2;" glyph-name="Ograve" horiz-adv-x="785" d="M471 865L514 716H463L345 851V865H471ZM466 686Q523 686 578 668T676 610T746 512T773 370Q773 298 742 229T655 104T521 15T346 -19Q289 -19 234 -1T136 57T66 155T39 297Q39 369 70 438T157
563T291 652T466 686ZM549 462Q549 487 546 519T532 579T505 627T460 646Q416 646 380 609T318 509T278 368T263 204Q263 178 266 147T279 87T306 40T351 21Q394 21 430 58T493 157T534 298T549 462Z" />
<glyph unicode="&#xd3;" glyph-name="Oacute" horiz-adv-x="785" d="M667 865V851L499 716H446L527 865H667ZM466 686Q523 686 578 668T676 610T746 512T773 370Q773 298 742 229T655 104T521 15T346 -19Q289 -19 234 -1T136 57T66 155T39 297Q39 369 70 438T157
563T291 652T466 686ZM549 462Q549 487 546 519T532 579T505 627T460 646Q416 646 380 609T318 509T278 368T263 204Q263 178 266 147T279 87T306 40T351 21Q394 21 430 58T493 157T534 298T549 462Z" />
<glyph unicode="&#xd4;" glyph-name="Ocircumflex" horiz-adv-x="785" d="M320 716L447 865H559L618 716H572L486 787L375 716H320ZM466 686Q523 686 578 668T676 610T746 512T773 370Q773 298 742 229T655 104T521 15T346 -19Q289 -19 234 -1T136 57T66 155T39
297Q39 369 70 438T157 563T291 652T466 686ZM549 462Q549 487 546 519T532 579T505 627T460 646Q416 646 380 609T318 509T278 368T263 204Q263 178 266 147T279 87T306 40T351 21Q394 21 430 58T493 157T534 298T549 462Z" />
<glyph unicode="&#xd5;" glyph-name="Otilde" horiz-adv-x="785" d="M294 750L303 767Q327 810 348 837T392 877T443 890T508 880L551 868Q596 855 631 862T702 911L724 901L710 878Q683 831 661 804T616 763T567 751T504 762L461 774Q432 781 411 784T374 783T344
769T316 740L294 750ZM466 686Q523 686 578 668T676 610T746 512T773 370Q773 298 742 229T655 104T521 15T346 -19Q289 -19 234 -1T136 57T66 155T39 297Q39 369 70 438T157 563T291 652T466 686ZM549 462Q549 487 546 519T532 579T505 627T460 646Q416 646 380
609T318 509T278 368T263 204Q263 178 266 147T279 87T306 40T351 21Q394 21 430 58T493 157T534 298T549 462Z" />
<glyph unicode="&#xd6;" glyph-name="Odieresis" horiz-adv-x="785" d="M352 713Q317 713 293 737T268 796Q268 830 292 855T352 880Q386 880 411 855T436 796Q436 761 411 737T352 713ZM608 713Q574 713 550 737T526 796Q526 830 550 855T608 880Q625 880 640
873T667 855T686 828T693 796Q693 761 668 737T608 713ZM466 686Q523 686 578 668T676 610T746 512T773 370Q773 298 742 229T655 104T521 15T346 -19Q289 -19 234 -1T136 57T66 155T39 297Q39 369 70 438T157 563T291 652T466 686ZM549 462Q549 487 546 519T532
579T505 627T460 646Q416 646 380 609T318 509T278 368T263 204Q263 178 266 147T279 87T306 40T351 21Q394 21 430 58T493 157T534 298T549 462Z" />
<glyph unicode="&#xd7;" glyph-name="multiply" horiz-adv-x="568" d="M278 212L92 24L54 61L242 249L58 432L99 473L282 289L463 475L499 437L318 253L504 66L464 24L278 212Z" />
<glyph unicode="&#xd8;" glyph-name="Oslash" horiz-adv-x="785" d="M66 -49L147 50Q99 90 69 151T39 297Q39 369 70 438T157 563T291 652T466 686Q509 686 551 675T631 640L687 708H735L662 619Q711 579 742 518T773 370Q773 298 742 229T655 104T521 15T346
-19Q301 -19 259 -7T178 29L114 -49H66ZM553 465Q553 470 553 475T552 485L265 135Q268 113 274 93T291 56T316 31T351 21Q394 21 431 58T495 158T537 301T553 465ZM260 187L546 536Q542 557 536 576T519 611T494 636T460 646Q416 646 380 608T317 508T275 365T260
201V187Z" />
<glyph unicode="&#xd9;" glyph-name="Ugrave" horiz-adv-x="736" d="M486 865L529 716H478L360 851V865H486ZM350 -20Q195 -20 129 55T92 285L155 605L81 623L89 664H448L440 623L360 605L288 235Q280 192 285 160T307 107T347 74T403 63Q479 63 530 113T601 274L657
602L561 623L567 664H809L801 623L721 605L662 283Q651 224 630 170T572 73T481 6T350 -20Z" />
<glyph unicode="&#xda;" glyph-name="Uacute" horiz-adv-x="736" d="M695 865V851L527 716H474L555 865H695ZM350 -20Q195 -20 129 55T92 285L155 605L81 623L89 664H448L440 623L360 605L288 235Q280 192 285 160T307 107T347 74T403 63Q479 63 530 113T601 274L657
602L561 623L567 664H809L801 623L721 605L662 283Q651 224 630 170T572 73T481 6T350 -20Z" />
<glyph unicode="&#xdb;" glyph-name="Ucircumflex" horiz-adv-x="736" d="M351 716L478 865H590L649 716H603L517 787L406 716H351ZM350 -20Q195 -20 129 55T92 285L155 605L81 623L89 664H448L440 623L360 605L288 235Q280 192 285 160T307 107T347 74T403 63Q479
63 530 113T601 274L657 602L561 623L567 664H809L801 623L721 605L662 283Q651 224 630 170T572 73T481 6T350 -20Z" />
<glyph unicode="&#xdc;" glyph-name="Udieresis" horiz-adv-x="736" d="M350 -20Q195 -20 129 55T92 285L155 605L81 623L89 664H448L440 623L360 605L288 235Q280 192 285 160T307 107T347 74T403 63Q479 63 530 113T601 274L657 602L561 623L567 664H809L801
623L721 605L662 283Q651 224 630 170T572 73T481 6T350 -20ZM389 713Q354 713 330 737T305 796Q305 830 329 855T389 880Q423 880 448 855T473 796Q473 761 448 737T389 713ZM645 713Q611 713 587 737T563 796Q563 830 587 855T645 880Q662 880 677 873T704 855T723
828T730 796Q730 761 705 737T645 713Z" />
<glyph unicode="&#xdd;" glyph-name="Yacute" horiz-adv-x="705" d="M454 259L414 59L494 40L485 0H113L122 40L210 59L247 242L137 605L73 623L82 664H456L447 623L356 607L432 302L637 605L550 623L559 664H770L762 623L699 605L454 259ZM703 865V851L535 716H482L563
865H703Z" />
<glyph unicode="&#xde;" glyph-name="Thorn" horiz-adv-x="656" d="M-27 41L53 59L161 605L87 623L95 664H454L446 623L366 605L347 512H368Q442 512 496 500T586 466T639 414T657 347Q657 297 631 261T558 200T447 164T307 152L313 188Q384 199 426 239T468 338Q468
394 432 429T340 473L258 59L341 41L333 0H-35L-27 41Z" />
<glyph unicode="&#xdf;" glyph-name="germandbls" horiz-adv-x="657" d="M628 638Q628 611 614 589T578 549T531 514T484 484T448 456T434 429Q434 415 446 398T494 349L556 294Q595 259 616 232T638 172Q638 130 616 95T558 35T480 -5T394 -19Q372 -19 349 -13T307
6T276 35T264 76Q264 102 277 127T314 170Q329 149 352 126T400 83T445 50T478 37Q487 37 494 44T502 66Q502 73 499 80T487 97T466 120T431 151L368 206Q346 225 334 241T315 271T306 297T304 319Q304 344 316 366T347 411T387 457T427 505T457 559T468 622Q468
638 464 653T451 680T429 699T399 706Q378 706 362 698T333 667T309 606T287 510L224 172Q201 50 155 -29T54 -154T-53 -218T-144 -236Q-192 -236 -214 -214T-236 -165Q-236 -133 -208 -106T-121 -64Q-109 -118 -89 -145T-54 -173Q-47 -173 -42 -170T-31 -158T-22
-130T-11 -82L77 393Q87 448 112 496T170 585T243 658T322 712T398 746T461 758Q546 758 587 724T628 638Z" />
<glyph unicode="&#xe0;" glyph-name="agrave" d="M600 530L497 130H502Q521 148 540 171T579 220L611 205Q498 -13 356 -13Q338 -13 325 -5T305 18T298 52T306 94L348 206H341Q320 169 294 130T237 57T173 3T103 -18Q85 -18 67 -12T35 9T11 45T2 101Q2 137 14
181T50 271T105 358T179 434T270 487T374 507Q388 507 402 505T433 497L450 530H600ZM213 112Q225 112 247 136T295 203T348 305T396 433L401 450Q392 458 381 463T359 469Q337 469 317 453T278 411T245 352T218 283T201 215T194 154Q194 127 199 120T213 112ZM381
775L415 582H382L253 768V775H381Z" />
<glyph unicode="&#xe1;" glyph-name="aacute" d="M600 530L497 130H502Q521 148 540 171T579 220L611 205Q498 -13 356 -13Q338 -13 325 -5T305 18T298 52T306 94L348 206H341Q320 169 294 130T237 57T173 3T103 -18Q85 -18 67 -12T35 9T11 45T2 101Q2 137 14
181T50 271T105 358T179 434T270 487T374 507Q388 507 402 505T433 497L450 530H600ZM213 112Q225 112 247 136T295 203T348 305T396 433L401 450Q392 458 381 463T359 469Q337 469 317 453T278 411T245 352T218 283T201 215T194 154Q194 127 199 120T213 112ZM577
775V768L414 582H379L444 775H577Z" />
<glyph unicode="&#xe2;" glyph-name="acircumflex" d="M600 530L497 130H502Q521 148 540 171T579 220L611 205Q498 -13 356 -13Q338 -13 325 -5T305 18T298 52T306 94L348 206H341Q320 169 294 130T237 57T173 3T103 -18Q85 -18 67 -12T35 9T11 45T2 101Q2 137
14 181T50 271T105 358T179 434T270 487T374 507Q388 507 402 505T433 497L450 530H600ZM213 112Q225 112 247 136T295 203T348 305T396 433L401 450Q392 458 381 463T359 469Q337 469 317 453T278 411T245 352T218 283T201 215T194 154Q194 127 199 120T213 112ZM264
582L391 775H476L534 582H495L417 692L303 582H264Z" />
<glyph unicode="&#xe3;" glyph-name="atilde" d="M600 530L497 130H502Q521 148 540 171T579 220L611 205Q498 -13 356 -13Q338 -13 325 -5T305 18T298 52T306 94L348 206H341Q320 169 294 130T237 57T173 3T103 -18Q85 -18 67 -12T35 9T11 45T2 101Q2 137 14
181T50 271T105 358T179 434T270 487T374 507Q388 507 402 505T433 497L450 530H600ZM213 112Q225 112 247 136T295 203T348 305T396 433L401 450Q392 458 381 463T359 469Q337 469 317 453T278 411T245 352T218 283T201 215T194 154Q194 127 199 120T213 112ZM200
587L209 604Q232 647 254 675T300 717T353 731T417 717L459 702Q502 687 536 696T605 748L628 738L615 715Q588 668 566 639T519 597T468 585T406 599L363 614Q335 624 315 626T278 624T249 607T222 577L200 587Z" />
<glyph unicode="&#xe4;" glyph-name="adieresis" d="M600 530L497 130H502Q521 148 540 171T579 220L611 205Q498 -13 356 -13Q338 -13 325 -5T305 18T298 52T306 94L348 206H341Q320 169 294 130T237 57T173 3T103 -18Q85 -18 67 -12T35 9T11 45T2 101Q2 137
14 181T50 271T105 358T179 434T270 487T374 507Q388 507 402 505T433 497L450 530H600ZM213 112Q225 112 247 136T295 203T348 305T396 433L401 450Q392 458 381 463T359 469Q337 469 317 453T278 411T245 352T218 283T201 215T194 154Q194 127 199 120T213 112ZM304
576Q269 576 245 600T220 659Q220 693 244 718T304 743Q338 743 363 718T388 659Q388 624 363 600T304 576ZM523 576Q489 576 465 600T441 659Q441 693 465 718T523 743Q540 743 555 736T582 718T601 691T608 659Q608 624 583 600T523 576Z" />
<glyph unicode="&#xe5;" glyph-name="aring" d="M600 530L497 130H502Q521 148 540 171T579 220L611 205Q498 -13 356 -13Q338 -13 325 -5T305 18T298 52T306 94L348 206H341Q320 169 294 130T237 57T173 3T103 -18Q85 -18 67 -12T35 9T11 45T2 101Q2 137 14 181T50
271T105 358T179 434T270 487T374 507Q388 507 402 505T433 497L450 530H600ZM213 112Q225 112 247 136T295 203T348 305T396 433L401 450Q392 458 381 463T359 469Q337 469 317 453T278 411T245 352T218 283T201 215T194 154Q194 127 199 120T213 112ZM304 669Q304
691 312 710T336 744T371 767T417 776Q468 776 498 746T528 671Q528 627 497 596T415 564Q364 564 334 594T304 669ZM348 671Q348 641 368 621T417 601Q446 601 465 620T484 669Q484 699 464 719T415 739Q386 739 367 720T348 671Z" />
<glyph unicode="&#xe6;" glyph-name="ae" horiz-adv-x="741" d="M410 -20Q356 -20 324 1T274 59H270Q251 38 233 23T196 -1T153 -14T102 -19Q53 -19 21 11T-11 90Q-11 119 -1 143T33 187T96 220T193 243L278 255L304 351Q306 372 303 391T291 426T266 450T224
459Q214 459 206 457L190 326Q175 321 160 318T125 314Q94 314 80 331T65 370Q65 400 89 427T151 474T235 506T328 518Q429 518 448 427H453Q488 469 531 493T633 518Q681 518 712 497T743 437Q743 394 719 363T654 309T561 271T452 246Q449 228 449 209Q448 174
455 153T474 120T499 104T524 100Q545 100 567 111T610 138T649 174T681 212L709 195Q692 157 663 119T594 50T508 0T410 -20ZM263 94Q257 121 258 150T267 212L235 205Q189 195 171 176T152 127Q152 105 165 89T205 72Q233 72 263 94ZM576 463Q561 463 545 448T512
409T483 352T460 286Q502 305 529 326T572 366T594 402T601 430Q601 463 576 463Z" />
<glyph unicode="&#xe7;" glyph-name="ccedilla" horiz-adv-x="488" d="M25 -219Q81 -201 113 -184T146 -140Q146 -121 132 -111T98 -94L152 -18Q122 -15 97 -2T53 34T24 88T13 159Q13 228 48 299T163 433Q217 476 277 497T389 518Q412 518 431 510T465 489T487
461T495 430Q495 404 476 375T406 319Q372 378 341 416T293 455Q276 455 261 430T235 365T217 277T210 185Q210 136 224 117T261 98Q276 98 294 108T333 135T376 175T419 224L450 206Q420 150 391 109T331 41T265 -1T188 -18L173 -40Q217 -46 245 -65T273 -114Q273
-167 210 -198T33 -247L25 -219Z" />
<glyph unicode="&#xe8;" glyph-name="egrave" horiz-adv-x="492" d="M180 -19Q102 -19 58 24T13 159Q13 237 53 308T166 434Q227 480 282 499T388 518Q406 518 424 514T458 499T482 473T492 434Q492 394 466 361T398 300T304 253T201 220V212Q201 180 207 159T224
124T248 106T276 100Q296 100 316 110T357 136T395 172T429 212L458 195Q441 157 414 119T350 50T271 0T180 -19ZM309 461Q292 461 275 444T244 398T218 333T203 257Q231 270 256 288T299 329T328 374T339 421Q339 439 332 450T309 461ZM335 775L369 582H336L207
768V775H335Z" />
<glyph unicode="&#xe9;" glyph-name="eacute" horiz-adv-x="492" d="M520 775V768L357 582H322L387 775H520ZM180 -19Q102 -19 58 24T13 159Q13 237 53 308T166 434Q227 480 282 499T388 518Q406 518 424 514T458 499T482 473T492 434Q492 394 466 361T398 300T304
253T201 220V212Q201 180 207 159T224 124T248 106T276 100Q296 100 316 110T357 136T395 172T429 212L458 195Q441 157 414 119T350 50T271 0T180 -19ZM309 461Q292 461 275 444T244 398T218 333T203 257Q231 270 256 288T299 329T328 374T339 421Q339 439 332
450T309 461Z" />
<glyph unicode="&#xea;" glyph-name="ecircumflex" horiz-adv-x="492" d="M208 582L335 775H420L478 582H439L361 692L247 582H208ZM180 -19Q102 -19 58 24T13 159Q13 237 53 308T166 434Q227 480 282 499T388 518Q406 518 424 514T458 499T482 473T492 434Q492
394 466 361T398 300T304 253T201 220V212Q201 180 207 159T224 124T248 106T276 100Q296 100 316 110T357 136T395 172T429 212L458 195Q441 157 414 119T350 50T271 0T180 -19ZM309 461Q292 461 275 444T244 398T218 333T203 257Q231 270 256 288T299 329T328
374T339 421Q339 439 332 450T309 461Z" />
<glyph unicode="&#xeb;" glyph-name="edieresis" horiz-adv-x="492" d="M234 576Q199 576 175 600T150 659Q150 693 174 718T234 743Q268 743 293 718T318 659Q318 624 293 600T234 576ZM453 576Q419 576 395 600T371 659Q371 693 395 718T453 743Q470 743 485
736T512 718T531 691T538 659Q538 624 513 600T453 576ZM180 -19Q102 -19 58 24T13 159Q13 237 53 308T166 434Q227 480 282 499T388 518Q406 518 424 514T458 499T482 473T492 434Q492 394 466 361T398 300T304 253T201 220V212Q201 180 207 159T224 124T248 106T276
100Q296 100 316 110T357 136T395 172T429 212L458 195Q441 157 414 119T350 50T271 0T180 -19ZM309 461Q292 461 275 444T244 398T218 333T203 257Q231 270 256 288T299 329T328 374T339 421Q339 439 332 450T309 461Z" />
<glyph unicode="&#xec;" glyph-name="igrave" horiz-adv-x="333" d="M357 399Q351 403 341 407T318 413T292 415T268 414L272 436Q288 451 309 465T356 492T409 511T466 518Q484 518 501 512T530 491T545 450T538 384L474 130H479Q498 148 517 171T556 220L588
205Q474 -13 334 -13Q320 -13 307 -8T284 10T272 43T277 93L357 399ZM458 775L492 582H459L330 768V775H458Z" />
<glyph unicode="&#xed;" glyph-name="iacute" horiz-adv-x="333" d="M654 775V768L491 582H456L521 775H654ZM357 399Q351 403 341 407T318 413T292 415T268 414L272 436Q288 451 309 465T356 492T409 511T466 518Q484 518 501 512T530 491T545 450T538 384L474
130H479Q498 148 517 171T556 220L588 205Q474 -13 334 -13Q320 -13 307 -8T284 10T272 43T277 93L357 399Z" />
<glyph unicode="&#xee;" glyph-name="icircumflex" horiz-adv-x="333" d="M341 582L468 775H553L611 582H572L494 692L380 582H341ZM357 399Q351 403 341 407T318 413T292 415T268 414L272 436Q288 451 309 465T356 492T409 511T466 518Q484 518 501 512T530 491T545
450T538 384L474 130H479Q498 148 517 171T556 220L588 205Q474 -13 334 -13Q320 -13 307 -8T284 10T272 43T277 93L357 399Z" />
<glyph unicode="&#xef;" glyph-name="idieresis" horiz-adv-x="333" d="M131 579Q95 579 70 604T44 665Q44 683 51 698T69 726T97 745T131 752Q149 752 164 745T192 726T211 699T218 665Q218 647 211 632T192 604T165 586T131 579ZM338 579Q303 579 278 604T253
665Q253 683 259 698T277 726T304 745T338 752Q356 752 372 745T400 726T419 699T426 665Q426 647 419 632T400 604T372 586T338 579ZM100 399Q94 403 84 407T61 413T35 415T11 414L15 436Q31 451 52 465T99 492T152 511T209 518Q227 518 244 512T273 491T288 450T281
384L217 130H222Q241 148 260 171T299 220L331 205Q217 -13 77 -13Q63 -13 50 -8T27 10T15 43T20 93L100 399Z" />
<glyph unicode="&#xf0;" glyph-name="eth" horiz-adv-x="596" d="M148 578L293 634Q271 661 246 684T194 731L214 757Q309 719 380 667L545 731L560 692L418 637Q493 573 534 496T576 333Q576 262 553 199T487 87T379 10T233 -19Q185 -19 145 -4T77 39T34 108T18
199Q18 263 42 320T109 420T210 488T336 513Q347 513 364 508Q356 534 345 556T319 599L161 539L148 578ZM240 16Q257 16 273 34T305 81T333 149T356 227T372 308T380 381Q380 400 379 418T375 449T364 471T347 479Q330 479 313 460T281 409T254 336T232 253T217
170T212 97Q212 52 218 34T240 16Z" />
<glyph unicode="&#xf1;" glyph-name="ntilde" horiz-adv-x="629" d="M99 399Q89 407 64 412T9 414L14 436Q29 451 49 465T92 491T139 510T186 518Q210 518 230 510T264 485T279 440T270 374L237 267H247Q274 322 304 368T366 447T432 498T504 517Q524 517 541
510T568 488T581 449T576 391L510 130H515Q534 148 553 171T592 220L624 205Q510 -13 370 -13Q356 -13 343 -8T321 10T308 43T313 93L383 361Q388 384 379 384Q373 384 360 372T331 337T296 283T259 215T223 137T193 52L182 15L12 -16L-3 -1L99 399ZM177 587L186
604Q209 647 231 675T277 717T330 731T394 717L436 702Q479 687 513 696T582 748L605 738L592 715Q565 668 543 639T496 597T445 585T383 599L340 614Q312 624 292 626T255 624T226 607T199 577L177 587Z" />
<glyph unicode="&#xf2;" glyph-name="ograve" horiz-adv-x="590" d="M343 479Q327 479 311 460T280 409T254 336T232 253T218 170T213 97Q213 52 219 35T243 17Q260 17 277 35T309 85T336 155T358 236T373 318T378 391Q378 432 371 455T343 479ZM352 515Q403 515
443 498T511 452T555 384T570 298Q570 242 551 186T490 85T386 11T235 -18Q132 -18 75 40T18 199Q18 248 36 303T94 406T197 484T352 515ZM355 775L389 582H356L227 768V775H355Z" />
<glyph unicode="&#xf3;" glyph-name="oacute" horiz-adv-x="590" d="M544 775V768L381 582H346L411 775H544ZM343 479Q327 479 311 460T280 409T254 336T232 253T218 170T213 97Q213 52 219 35T243 17Q260 17 277 35T309 85T336 155T358 236T373 318T378 391Q378
432 371 455T343 479ZM352 515Q403 515 443 498T511 452T555 384T570 298Q570 242 551 186T490 85T386 11T235 -18Q132 -18 75 40T18 199Q18 248 36 303T94 406T197 484T352 515Z" />
<glyph unicode="&#xf4;" glyph-name="ocircumflex" horiz-adv-x="590" d="M232 582L359 775H444L502 582H463L385 692L271 582H232ZM343 479Q327 479 311 460T280 409T254 336T232 253T218 170T213 97Q213 52 219 35T243 17Q260 17 277 35T309 85T336 155T358
236T373 318T378 391Q378 432 371 455T343 479ZM352 515Q403 515 443 498T511 452T555 384T570 298Q570 242 551 186T490 85T386 11T235 -18Q132 -18 75 40T18 199Q18 248 36 303T94 406T197 484T352 515Z" />
<glyph unicode="&#xf5;" glyph-name="otilde" horiz-adv-x="590" d="M343 479Q327 479 311 460T280 409T254 336T232 253T218 170T213 97Q213 52 219 35T243 17Q260 17 277 35T309 85T336 155T358 236T373 318T378 391Q378 432 371 455T343 479ZM352 515Q403 515
443 498T511 452T555 384T570 298Q570 242 551 186T490 85T386 11T235 -18Q132 -18 75 40T18 199Q18 248 36 303T94 406T197 484T352 515ZM168 587L177 604Q200 647 222 675T268 717T321 731T385 717L427 702Q470 687 504 696T573 748L596 738L583 715Q556 668
534 639T487 597T436 585T374 599L331 614Q303 624 283 626T246 624T217 607T190 577L168 587Z" />
<glyph unicode="&#xf6;" glyph-name="odieresis" horiz-adv-x="590" d="M272 576Q237 576 213 600T188 659Q188 693 212 718T272 743Q306 743 331 718T356 659Q356 624 331 600T272 576ZM491 576Q457 576 433 600T409 659Q409 693 433 718T491 743Q508 743 523
736T550 718T569 691T576 659Q576 624 551 600T491 576ZM343 479Q327 479 311 460T280 409T254 336T232 253T218 170T213 97Q213 52 219 35T243 17Q260 17 277 35T309 85T336 155T358 236T373 318T378 391Q378 432 371 455T343 479ZM352 515Q403 515 443 498T511
452T555 384T570 298Q570 242 551 186T490 85T386 11T235 -18Q132 -18 75 40T18 199Q18 248 36 303T94 406T197 484T352 515Z" />
<glyph unicode="&#xf7;" glyph-name="divide" horiz-adv-x="568" d="M47 227V277H521V227H47ZM284 327Q254 327 233 349T211 402Q211 431 232 453T284 475Q299 475 312 469T336 453T353 430T359 402Q359 371 337 349T284 327ZM284 28Q254 28 233 50T211 103Q211
132 232 154T284 176Q299 176 312 170T336 154T353 131T359 103Q359 72 337 50T284 28Z" />
<glyph unicode="&#xf8;" glyph-name="oslash" horiz-adv-x="590" d="M45 -50L99 22Q61 50 40 94T18 199Q18 257 39 313T103 415T207 487T352 515Q381 515 406 509T454 491L503 555H550L486 471Q525 441 547 397T570 298Q570 240 549 184T487 82T382 10T235 -18Q206
-18 181 -13T132 3L92 -50H45ZM243 17Q268 17 291 48T334 126T366 230T384 336L204 98Q205 63 212 40T243 17ZM340 479Q316 479 295 449T255 372T225 270T207 164L385 400Q383 436 372 457T340 479Z" />
<glyph unicode="&#xf9;" glyph-name="ugrave" horiz-adv-x="625" d="M99 399Q93 403 83 407T60 413T34 415T10 414L14 435Q30 450 51 465T97 492T149 511T207 518Q225 518 241 511T268 486T281 441T273 373L215 141Q211 126 213 122T219 118Q229 118 251 145T301
216T355 319T401 441L415 487L586 519L601 503L504 130H509Q528 148 547 171T586 220L618 205Q561 94 497 41T365 -13Q350 -13 337 -8T316 11T308 45T319 98L381 273H373Q352 230 326 180T267 87T192 15T100 -14Q53 -14 31 17T26 118L99 399ZM345 775L379 582H346L217
768V775H345Z" />
<glyph unicode="&#xfa;" glyph-name="uacute" horiz-adv-x="625" d="M541 775V768L378 582H343L408 775H541ZM99 399Q93 403 83 407T60 413T34 415T10 414L14 435Q30 450 51 465T97 492T149 511T207 518Q225 518 241 511T268 486T281 441T273 373L215 141Q211
126 213 122T219 118Q229 118 251 145T301 216T355 319T401 441L415 487L586 519L601 503L504 130H509Q528 148 547 171T586 220L618 205Q561 94 497 41T365 -13Q350 -13 337 -8T316 11T308 45T319 98L381 273H373Q352 230 326 180T267 87T192 15T100 -14Q53 -14
31 17T26 118L99 399Z" />
<glyph unicode="&#xfb;" glyph-name="ucircumflex" horiz-adv-x="625" d="M229 582L356 775H441L499 582H460L382 692L268 582H229ZM99 399Q93 403 83 407T60 413T34 415T10 414L14 435Q30 450 51 465T97 492T149 511T207 518Q225 518 241 511T268 486T281 441T273
373L215 141Q211 126 213 122T219 118Q229 118 251 145T301 216T355 319T401 441L415 487L586 519L601 503L504 130H509Q528 148 547 171T586 220L618 205Q561 94 497 41T365 -13Q350 -13 337 -8T316 11T308 45T319 98L381 273H373Q352 230 326 180T267 87T192
15T100 -14Q53 -14 31 17T26 118L99 399Z" />
<glyph unicode="&#xfc;" glyph-name="udieresis" horiz-adv-x="625" d="M269 576Q234 576 210 600T185 659Q185 693 209 718T269 743Q303 743 328 718T353 659Q353 624 328 600T269 576ZM488 576Q454 576 430 600T406 659Q406 693 430 718T488 743Q505 743 520
736T547 718T566 691T573 659Q573 624 548 600T488 576ZM99 399Q93 403 83 407T60 413T34 415T10 414L14 435Q30 450 51 465T97 492T149 511T207 518Q225 518 241 511T268 486T281 441T273 373L215 141Q211 126 213 122T219 118Q229 118 251 145T301 216T355 319T401
441L415 487L586 519L601 503L504 130H509Q528 148 547 171T586 220L618 205Q561 94 497 41T365 -13Q350 -13 337 -8T316 11T308 45T319 98L381 273H373Q352 230 326 180T267 87T192 15T100 -14Q53 -14 31 17T26 118L99 399Z" />
<glyph unicode="&#xfd;" glyph-name="yacute" horiz-adv-x="537" d="M1 229Q5 310 19 364T57 452T111 499T176 513Q204 513 231 497T280 443T315 345T329 195Q329 140 325 98T315 18H323Q349 63 369 103T403 180T424 252T431 325Q431 368 419 409T378 490Q421
519 466 519Q479 519 492 514T517 498T534 468T541 422Q541 377 518 311T454 171T359 24T242 -107T113 -201T-19 -238Q-61 -238 -90 -214T-120 -143Q-120 -127 -114 -111T-97 -82T-70 -62T-32 -54Q7 -54 32 -83T70 -176H78Q97 -163 112 -136T137 -70T153 14T158
113Q158 171 153 220T140 307T120 365T96 386Q79 386 66 348T35 229H1ZM523 775V768L360 582H325L390 775H523Z" />
<glyph unicode="&#xfe;" glyph-name="thorn" horiz-adv-x="582" d="M129 612L54 676L59 696L342 753L230 291H236Q354 517 472 517Q493 517 512 509T546 484T570 442T579 380Q579 313 555 242T484 113T368 18T211 -20H162L129 -151L249 -167L241 -210H-118L-111
-169L-51 -151L129 612ZM175 39Q184 27 192 22T213 17Q233 17 253 34T293 80T328 144T357 216T377 287T384 346Q384 374 378 381T365 389Q355 389 340 374T307 334T271 276T235 208T205 139T184 76L175 39Z" />
<glyph unicode="&#xff;" glyph-name="ydieresis" horiz-adv-x="537" d="M1 229Q5 310 19 364T57 452T111 499T176 513Q204 513 231 497T280 443T315 345T329 195Q329 140 325 98T315 18H323Q349 63 369 103T403 180T424 252T431 325Q431 368 419 409T378 490Q421
519 466 519Q479 519 492 514T517 498T534 468T541 422Q541 377 518 311T454 171T359 24T242 -107T113 -201T-19 -238Q-61 -238 -90 -214T-120 -143Q-120 -127 -114 -111T-97 -82T-70 -62T-32 -54Q7 -54 32 -83T70 -176H78Q97 -163 112 -136T137 -70T153 14T158
113Q158 171 153 220T140 307T120 365T96 386Q79 386 66 348T35 229H1ZM222 576Q187 576 163 600T138 659Q138 693 162 718T222 743Q256 743 281 718T306 659Q306 624 281 600T222 576ZM441 576Q407 576 383 600T359 659Q359 693 383 718T441 743Q458 743 473 736T500
718T519 691T526 659Q526 624 501 600T441 576Z" />
<glyph unicode="&#x100;" glyph-name="Amacron" horiz-adv-x="732" d="M-42 41L29 59L410 670L459 679L525 690L622 59L684 41L675 0H325L334 41L414 59L393 215H188L97 62L201 41L192 0H-51L-42 41ZM220 268H386L356 496L220 268ZM345 840H651L634 760H328L345 840Z" />
<glyph unicode="&#x101;" glyph-name="amacron" d="M600 530L497 130H502Q521 148 540 171T579 220L611 205Q498 -13 356 -13Q338 -13 325 -5T305 18T298 52T306 94L348 206H341Q320 169 294 130T237 57T173 3T103 -18Q85 -18 67 -12T35 9T11 45T2 101Q2 137 14
181T50 271T105 358T179 434T270 487T374 507Q388 507 402 505T433 497L450 530H600ZM213 112Q225 112 247 136T295 203T348 305T396 433L401 450Q392 458 381 463T359 469Q337 469 317 453T278 411T245 352T218 283T201 215T194 154Q194 127 199 120T213 112ZM269
700H575L560 620H254L269 700Z" />
<glyph unicode="&#x102;" glyph-name="Abreve" horiz-adv-x="732" d="M-42 41L29 59L410 670L459 679L525 690L622 59L684 41L675 0H325L334 41L414 59L393 215H188L97 62L201 41L192 0H-51L-42 41ZM220 268H386L356 496L220 268ZM469 710Q427 710 400 725T358
763T339 813T338 865H383Q388 841 409 821T478 801Q502 801 520 807T550 822T572 842T587 865H626Q623 838 614 811T586 761T540 724T469 710Z" />
<glyph unicode="&#x103;" glyph-name="abreve" d="M600 530L497 130H502Q521 148 540 171T579 220L611 205Q498 -13 356 -13Q338 -13 325 -5T305 18T298 52T306 94L348 206H341Q320 169 294 130T237 57T173 3T103 -18Q85 -18 67 -12T35 9T11 45T2 101Q2 137 14
181T50 271T105 358T179 434T270 487T374 507Q388 507 402 505T433 497L450 530H600ZM213 112Q225 112 247 136T295 203T348 305T396 433L401 450Q392 458 381 463T359 469Q337 469 317 453T278 411T245 352T218 283T201 215T194 154Q194 127 199 120T213 112ZM406
582Q339 582 307 630T284 775H318Q322 717 348 694T412 671Q430 671 447 675T481 691T511 723T539 775H572Q565 732 552 697T517 636T468 596T406 582Z" />
<glyph unicode="&#x104;" glyph-name="Aogonek" horiz-adv-x="732" d="M-42 41L29 59L410 670L459 679L525 690L622 59L684 41L675 0H437Q388 -23 371 -52T354 -107Q354 -127 365 -137T394 -147Q411 -147 429 -137T467 -106L490 -120Q458 -177 417 -212T325 -248Q286
-248 261 -225T236 -167Q236 -145 244 -125T272 -83T328 -35T418 26L393 215H188L97 62L201 41L192 0H-51L-42 41ZM220 268H386L356 496L220 268Z" />
<glyph unicode="&#x105;" glyph-name="aogonek" d="M381 -11Q377 -12 373 -12Q369 -13 365 -13T356 -13Q338 -13 325 -5T305 18T298 52T306 94L348 206H341Q320 169 294 130T237 57T173 3T103 -18Q85 -18 67 -12T35 9T11 45T2 101Q2 137 14 181T50 271T105 358T179
434T270 487T374 507Q388 507 402 505T433 497L450 530H600L497 130H502Q521 148 540 171T579 220L611 205Q597 178 585 157T558 115T525 76T481 32Q442 -4 419 -27T383 -65T367 -90T363 -111Q363 -128 374 -137T403 -147Q420 -147 438 -137T476 -106L499 -120Q467
-177 426 -212T334 -248Q293 -248 269 -225T245 -167Q245 -145 254 -127T281 -91T324 -56T382 -16L381 -11ZM213 112Q225 112 247 136T295 203T348 305T396 433L401 450Q392 458 381 463T359 469Q337 469 317 453T278 411T245 352T218 283T201 215T194 154Q194
127 199 120T213 112Z" />
<glyph unicode="&#x106;" glyph-name="Cacute" horiz-adv-x="732" d="M395 -18Q317 -18 252 2T139 60T65 155T39 283Q39 375 83 449T199 575T359 656T537 684Q600 684 650 667T738 630L698 436H674L635 589Q609 617 582 629T519 642Q475 642 431 615T351 537T293
413T270 248Q270 200 282 160T315 89T365 43T427 26Q456 26 479 34T519 57L641 240H671L617 26Q575 9 517 -4T395 -18ZM701 865V851L533 716H480L561 865H701Z" />
<glyph unicode="&#x107;" glyph-name="cacute" horiz-adv-x="488" d="M522 775V768L359 582H324L389 775H522ZM293 455Q276 455 261 430T235 365T217 277T210 185Q210 136 224 117T261 98Q276 98 294 108T333 135T376 175T419 224L450 206Q418 147 388 105T324
35T254 -6T172 -19Q139 -19 110 -7T60 28T26 84T13 159Q13 228 48 299T163 433Q217 476 277 497T389 518Q412 518 431 510T465 489T487 461T495 430Q495 404 476 375T406 319Q372 378 341 416T293 455Z" />
<glyph unicode="&#x108;" glyph-name="Ccircumflex" horiz-adv-x="732" d="M358 716L485 865H597L656 716H610L524 787L413 716H358ZM395 -18Q317 -18 252 2T139 60T65 155T39 283Q39 375 83 449T199 575T359 656T537 684Q600 684 650 667T738 630L698 436H674L635
589Q609 617 582 629T519 642Q475 642 431 615T351 537T293 413T270 248Q270 200 282 160T315 89T365 43T427 26Q456 26 479 34T519 57L641 240H671L617 26Q575 9 517 -4T395 -18Z" />
<glyph unicode="&#x109;" glyph-name="ccircumflex" horiz-adv-x="488" d="M210 582L337 775H422L480 582H441L363 692L249 582H210ZM293 455Q276 455 261 430T235 365T217 277T210 185Q210 136 224 117T261 98Q276 98 294 108T333 135T376 175T419 224L450 206Q418
147 388 105T324 35T254 -6T172 -19Q139 -19 110 -7T60 28T26 84T13 159Q13 228 48 299T163 433Q217 476 277 497T389 518Q412 518 431 510T465 489T487 461T495 430Q495 404 476 375T406 319Q372 378 341 416T293 455Z" />
<glyph unicode="&#x10a;" glyph-name="Cdotaccent" horiz-adv-x="732" d="M395 -18Q317 -18 252 2T139 60T65 155T39 283Q39 375 83 449T199 575T359 656T537 684Q600 684 650 667T738 630L698 436H674L635 589Q609 617 582 629T519 642Q475 642 431 615T351 537T293
413T270 248Q270 200 282 160T315 89T365 43T427 26Q456 26 479 34T519 57L641 240H671L617 26Q575 9 517 -4T395 -18ZM437 804Q437 842 463 868T528 895Q566 895 592 869T619 804Q619 766 593 740T528 713Q490 713 464 739T437 804Z" />
<glyph unicode="&#x10b;" glyph-name="cdotaccent" horiz-adv-x="488" d="M293 455Q276 455 261 430T235 365T217 277T210 185Q210 136 224 117T261 98Q276 98 294 108T333 135T376 175T419 224L450 206Q418 147 388 105T324 35T254 -6T172 -19Q139 -19 110 -7T60
28T26 84T13 159Q13 228 48 299T163 433Q217 476 277 497T389 518Q412 518 431 510T465 489T487 461T495 430Q495 404 476 375T406 319Q372 378 341 416T293 455ZM268 659Q268 678 275 695T294 724T324 744T360 751Q379 751 396 744T425 725T445 695T452 659Q452
640 445 623T426 594T396 574T360 567Q341 567 324 574T295 593T275 623T268 659Z" />
<glyph unicode="&#x10c;" glyph-name="Ccaron" horiz-adv-x="732" d="M692 865L565 716H453L394 865H440L525 793L637 865H692ZM395 -18Q317 -18 252 2T139 60T65 155T39 283Q39 375 83 449T199 575T359 656T537 684Q600 684 650 667T738 630L698 436H674L635
589Q609 617 582 629T519 642Q475 642 431 615T351 537T293 413T270 248Q270 200 282 160T315 89T365 43T427 26Q456 26 479 34T519 57L641 240H671L617 26Q575 9 517 -4T395 -18Z" />
<glyph unicode="&#x10d;" glyph-name="ccaron" horiz-adv-x="488" d="M513 775L386 582H301L243 775H282L360 665L477 775H513ZM293 455Q276 455 261 430T235 365T217 277T210 185Q210 136 224 117T261 98Q276 98 294 108T333 135T376 175T419 224L450 206Q418
147 388 105T324 35T254 -6T172 -19Q139 -19 110 -7T60 28T26 84T13 159Q13 228 48 299T163 433Q217 476 277 497T389 518Q412 518 431 510T465 489T487 461T495 430Q495 404 476 375T406 319Q372 378 341 416T293 455Z" />
<glyph unicode="&#x10e;" glyph-name="Dcaron" horiz-adv-x="794" d="M635 865L508 716H396L337 865H383L468 793L580 865H635ZM254 55Q262 51 279 46T317 41Q369 41 414 69T491 144T542 250T561 371Q561 434 546 481T505 559T444 608T368 632L254 55ZM-27 41L53
59L161 605L87 623L95 664L396 666Q479 666 549 647T671 590T751 498T780 375Q780 285 736 214T617 94T444 20T240 -4L-35 0L-27 41Z" />
<glyph unicode="&#x10f;" glyph-name="dcaron" horiz-adv-x="626" d="M649 519L706 730H838L837 722L679 519H649ZM355 514Q372 514 386 512T416 506L441 612L366 676L371 696L655 752L507 130H511Q530 148 550 171T588 220L620 205Q562 92 498 41T371 -13Q351
-13 337 -5T316 19T309 53T315 92L353 201H347Q328 166 303 128T246 57T180 3T107 -18Q87 -18 69 -11T37 13T14 57T5 124Q5 196 37 266T121 391T234 480T355 514ZM404 458Q384 477 366 477Q345 477 324 462T285 420T250 359T223 288T205 214T198 145Q198 129 202
119T216 108Q231 108 255 134T306 203T355 298T391 401L404 458Z" />
<glyph unicode="&#x110;" glyph-name="Dcroat" horiz-adv-x="794" d="M-27 41L53 59L105 321H29L38 365H113L161 605L87 623L95 664L396 666Q479 666 549 647T671 590T751 498T780 375Q780 285 736 214T617 94T444 20T240 -4L-35 0L-27 41ZM306 321L254 55Q262
51 279 46T317 41Q369 41 414 69T491 144T542 250T561 371Q561 434 546 481T505 559T444 608T368 632L315 365H429L420 321H306Z" />
<glyph unicode="&#x111;" glyph-name="dcroat" horiz-adv-x="626" d="M294 601H439L448 641L366 676L371 696L655 752L619 601H693L683 560H609L507 130H511Q530 148 550 171T588 220L620 205Q562 92 498 41T371 -13Q351 -13 337 -5T316 19T309 53T315 92L353
201H347Q328 166 303 128T246 57T180 3T107 -18Q87 -18 69 -11T37 13T14 57T5 124Q5 196 37 266T121 391T234 480T355 514Q372 514 386 512T416 506L429 560H284L294 601ZM405 459Q394 469 384 473T366 477Q345 477 324 462T285 420T250 359T223 288T205 214T198
145Q198 129 202 119T216 108Q231 108 255 134T306 203T355 298T391 401L405 459Z" />
<glyph unicode="&#x112;" glyph-name="Emacron" horiz-adv-x="652" d="M312 324L256 54Q264 50 280 45T316 40H423L571 246H609L538 0H-35L-27 41L53 59L161 605L87 623L95 664H667L626 461H590L545 623H370L320 366H396L451 474H489L436 203H395L386 324H312ZM281
840H587L570 760H264L281 840Z" />
<glyph unicode="&#x113;" glyph-name="emacron" horiz-adv-x="492" d="M180 -19Q102 -19 58 24T13 159Q13 237 53 308T166 434Q227 480 282 499T388 518Q406 518 424 514T458 499T482 473T492 434Q492 394 466 361T398 300T304 253T201 220V212Q201 180 207 159T224
124T248 106T276 100Q296 100 316 110T357 136T395 172T429 212L458 195Q441 157 414 119T350 50T271 0T180 -19ZM309 461Q292 461 275 444T244 398T218 333T203 257Q231 270 256 288T299 329T328 374T339 421Q339 439 332 450T309 461ZM199 700H505L490 620H184L199
700Z" />
<glyph unicode="&#x114;" glyph-name="Ebreve" horiz-adv-x="652" d="M312 324L256 54Q264 50 280 45T316 40H423L571 246H609L538 0H-35L-27 41L53 59L161 605L87 623L95 664H667L626 461H590L545 623H370L320 366H396L451 474H489L436 203H395L386 324H312ZM416
710Q374 710 347 725T305 763T286 813T285 865H330Q335 841 356 821T425 801Q449 801 467 807T497 822T519 842T534 865H573Q570 838 561 811T533 761T487 724T416 710Z" />
<glyph unicode="&#x115;" glyph-name="ebreve" horiz-adv-x="492" d="M180 -19Q102 -19 58 24T13 159Q13 237 53 308T166 434Q227 480 282 499T388 518Q406 518 424 514T458 499T482 473T492 434Q492 394 466 361T398 300T304 253T201 220V212Q201 180 207 159T224
124T248 106T276 100Q296 100 316 110T357 136T395 172T429 212L458 195Q441 157 414 119T350 50T271 0T180 -19ZM309 461Q292 461 275 444T244 398T218 333T203 257Q231 270 256 288T299 329T328 374T339 421Q339 439 332 450T309 461ZM350 582Q283 582 251 630T228
775H262Q266 717 292 694T356 671Q374 671 391 675T425 691T455 723T483 775H516Q509 732 496 697T461 636T412 596T350 582Z" />
<glyph unicode="&#x116;" glyph-name="Edotaccent" horiz-adv-x="652" d="M339 804Q339 842 365 868T430 895Q468 895 494 869T521 804Q521 766 495 740T430 713Q392 713 366 739T339 804ZM312 324L256 54Q264 50 280 45T316 40H423L571 246H609L538 0H-35L-27
41L53 59L161 605L87 623L95 664H667L626 461H590L545 623H370L320 366H396L451 474H489L436 203H395L386 324H312Z" />
<glyph unicode="&#x117;" glyph-name="edotaccent" horiz-adv-x="492" d="M180 -19Q102 -19 58 24T13 159Q13 237 53 308T166 434Q227 480 282 499T388 518Q406 518 424 514T458 499T482 473T492 434Q492 394 466 361T398 300T304 253T201 220V212Q201 180 207
159T224 124T248 106T276 100Q296 100 316 110T357 136T395 172T429 212L458 195Q441 157 414 119T350 50T271 0T180 -19ZM309 461Q292 461 275 444T244 398T218 333T203 257Q231 270 256 288T299 329T328 374T339 421Q339 439 332 450T309 461ZM265 659Q265 678
272 695T291 724T321 744T357 751Q376 751 393 744T422 725T442 695T449 659Q449 640 442 623T423 594T393 574T357 567Q338 567 321 574T292 593T272 623T265 659Z" />
<glyph unicode="&#x118;" glyph-name="Eogonek" horiz-adv-x="652" d="M312 324L256 54Q264 50 280 45T316 40H423L571 246H609L538 0H440Q413 -26 397 -42T372 -71T361 -92T358 -111Q358 -128 369 -137T398 -147Q415 -147 433 -137T471 -106L494 -120Q462 -177
421 -212T329 -248Q290 -248 265 -225T240 -167Q240 -146 248 -128T276 -91T326 -50T403 0H-35L-27 41L53 59L161 605L87 623L95 664H667L626 461H590L545 623H370L320 366H396L451 474H489L436 203H395L386 324H312Z" />
<glyph unicode="&#x119;" glyph-name="eogonek" horiz-adv-x="492" d="M245 -10Q231 -13 215 -16T180 -19Q102 -19 58 24T13 159Q13 237 53 308T166 434Q227 480 282 499T388 518Q406 518 424 514T458 499T482 473T492 434Q492 394 466 361T398 300T304 253T201
220V212Q201 180 207 159T224 124T248 106T276 100Q296 100 316 110T357 136T395 172T429 212L458 195Q449 174 436 152T407 110T377 71T349 41Q309 3 285 -21T247 -61T229 -88T224 -110Q224 -128 235 -137T263 -147Q280 -147 298 -137T336 -106L359 -120Q328 -177
287 -212T194 -248Q155 -248 130 -225T105 -167Q105 -144 113 -126T138 -91T182 -56T247 -16L245 -10ZM309 461Q292 461 275 444T244 398T218 333T203 257Q231 270 256 288T299 329T328 374T339 421Q339 439 332 450T309 461Z" />
<glyph unicode="&#x11a;" glyph-name="Ecaron" horiz-adv-x="652" d="M599 865L472 716H360L301 865H347L432 793L544 865H599ZM312 324L256 54Q264 50 280 45T316 40H423L571 246H609L538 0H-35L-27 41L53 59L161 605L87 623L95 664H667L626 461H590L545 623H370L320
366H396L451 474H489L436 203H395L386 324H312Z" />
<glyph unicode="&#x11b;" glyph-name="ecaron" horiz-adv-x="492" d="M499 775L372 582H287L229 775H268L346 665L463 775H499ZM180 -19Q102 -19 58 24T13 159Q13 237 53 308T166 434Q227 480 282 499T388 518Q406 518 424 514T458 499T482 473T492 434Q492 394
466 361T398 300T304 253T201 220V212Q201 180 207 159T224 124T248 106T276 100Q296 100 316 110T357 136T395 172T429 212L458 195Q441 157 414 119T350 50T271 0T180 -19ZM309 461Q292 461 275 444T244 398T218 333T203 257Q231 270 256 288T299 329T328 374T339
421Q339 439 332 450T309 461Z" />
<glyph unicode="&#x11c;" glyph-name="Gcircumflex" horiz-adv-x="780" d="M360 716L487 865H599L658 716H612L526 787L415 716H360ZM264 262Q263 155 297 92T394 29Q425 29 449 44T481 97L513 269L413 287L422 332H775L766 287L707 269L662 40Q625 25 585 14T505
-4T428 -15T358 -19Q289 -19 231 6T130 75T63 174T39 292Q39 380 78 452T184 576T343 656T538 684Q571 684 599 681T653 671T703 655T754 636L712 436H686L646 593Q629 613 600 627T528 642Q486 642 440 619T355 548T291 429T264 262Z" />
<glyph unicode="&#x11d;" glyph-name="gcircumflex" horiz-adv-x="544" d="M180 582L307 775H392L450 582H411L333 692L219 582H180ZM285 513Q314 513 341 507T391 494L564 513L561 436L444 447L442 442Q456 428 466 407T476 360Q476 325 461 293T417 235T344
195T242 178Q222 177 203 179T165 187Q156 179 156 167Q156 155 166 145T215 125L378 80Q432 65 456 38T480 -26Q480 -76 452 -115T378 -182T273 -223T153 -238Q93 -238 51 -228T-18 -202T-57 -164T-70 -120Q-70 -78 -34 -56T72 -24V-20Q43 -8 21 16T-1 75Q-1 97
7 113T30 142T70 169T126 198V201Q88 218 66 249T43 326Q43 363 58 396T104 456T179 497T285 513ZM103 -29Q99 -32 88 -47T77 -90Q77 -114 88 -132T119 -163T164 -182T217 -188Q242 -188 265 -183T307 -170T336 -149T347 -123Q347 -110 336 -102T306 -88L103 -29ZM296
474Q279 474 262 451T230 394T206 321T196 248Q196 210 219 210Q237 210 255 232T288 287T311 358T320 431Q320 447 315 460T296 474Z" />
<glyph unicode="&#x11e;" glyph-name="Gbreve" horiz-adv-x="780" d="M510 710Q468 710 441 725T399 763T380 813T379 865H424Q429 841 450 821T519 801Q543 801 561 807T591 822T613 842T628 865H667Q664 838 655 811T627 761T581 724T510 710ZM264 262Q263 155
297 92T394 29Q425 29 449 44T481 97L513 269L413 287L422 332H775L766 287L707 269L662 40Q625 25 585 14T505 -4T428 -15T358 -19Q289 -19 231 6T130 75T63 174T39 292Q39 380 78 452T184 576T343 656T538 684Q571 684 599 681T653 671T703 655T754 636L712 436H686L646
593Q629 613 600 627T528 642Q486 642 440 619T355 548T291 429T264 262Z" />
<glyph unicode="&#x11f;" glyph-name="gbreve" horiz-adv-x="544" d="M285 513Q314 513 341 507T391 494L564 513L561 436L444 447L442 442Q456 428 466 407T476 360Q476 325 461 293T417 235T344 195T242 178Q222 177 203 179T165 187Q156 179 156 167Q156 155
166 145T215 125L378 80Q432 65 456 38T480 -26Q480 -76 452 -115T378 -182T273 -223T153 -238Q93 -238 51 -228T-18 -202T-57 -164T-70 -120Q-70 -78 -34 -56T72 -24V-20Q43 -8 21 16T-1 75Q-1 97 7 113T30 142T70 169T126 198V201Q88 218 66 249T43 326Q43 363
58 396T104 456T179 497T285 513ZM103 -29Q99 -32 88 -47T77 -90Q77 -114 88 -132T119 -163T164 -182T217 -188Q242 -188 265 -183T307 -170T336 -149T347 -123Q347 -110 336 -102T306 -88L103 -29ZM296 474Q279 474 262 451T230 394T206 321T196 248Q196 210 219
210Q237 210 255 232T288 287T311 358T320 431Q320 447 315 460T296 474ZM322 582Q255 582 223 630T200 775H234Q238 717 264 694T328 671Q346 671 363 675T397 691T427 723T455 775H488Q481 732 468 697T433 636T384 596T322 582Z" />
<glyph unicode="&#x120;" glyph-name="Gdotaccent" horiz-adv-x="780" d="M439 804Q439 842 465 868T530 895Q568 895 594 869T621 804Q621 766 595 740T530 713Q492 713 466 739T439 804ZM264 262Q263 155 297 92T394 29Q425 29 449 44T481 97L513 269L413 287L422
332H775L766 287L707 269L662 40Q625 25 585 14T505 -4T428 -15T358 -19Q289 -19 231 6T130 75T63 174T39 292Q39 380 78 452T184 576T343 656T538 684Q571 684 599 681T653 671T703 655T754 636L712 436H686L646 593Q629 613 600 627T528 642Q486 642 440 619T355
548T291 429T264 262Z" />
<glyph unicode="&#x121;" glyph-name="gdotaccent" horiz-adv-x="544" d="M285 513Q314 513 341 507T391 494L564 513L561 436L444 447L442 442Q456 428 466 407T476 360Q476 325 461 293T417 235T344 195T242 178Q222 177 203 179T165 187Q156 179 156 167Q156
155 166 145T215 125L378 80Q432 65 456 38T480 -26Q480 -76 452 -115T378 -182T273 -223T153 -238Q93 -238 51 -228T-18 -202T-57 -164T-70 -120Q-70 -78 -34 -56T72 -24V-20Q43 -8 21 16T-1 75Q-1 97 7 113T30 142T70 169T126 198V201Q88 218 66 249T43 326Q43
363 58 396T104 456T179 497T285 513ZM103 -29Q99 -32 88 -47T77 -90Q77 -114 88 -132T119 -163T164 -182T217 -188Q242 -188 265 -183T307 -170T336 -149T347 -123Q347 -110 336 -102T306 -88L103 -29ZM296 474Q279 474 262 451T230 394T206 321T196 248Q196 210
219 210Q237 210 255 232T288 287T311 358T320 431Q320 447 315 460T296 474ZM237 659Q237 678 244 695T263 724T293 744T329 751Q348 751 365 744T394 725T414 695T421 659Q421 640 414 623T395 594T365 574T329 567Q310 567 293 574T264 593T244 623T237 659Z"
/>
<glyph unicode="&#x122;" glyph-name="Gcommaaccent" horiz-adv-x="780" d="M213 -224Q267 -205 290 -185T313 -140Q313 -120 297 -108T258 -91V-84Q271 -61 294 -48T350 -34Q391 -34 415 -58T440 -117Q440 -166 388 -199T221 -253L213 -224ZM264 262Q263 155
297 92T394 29Q425 29 449 44T481 97L513 269L413 287L422 332H775L766 287L707 269L662 40Q625 25 585 14T505 -4T428 -15T358 -19Q289 -19 231 6T130 75T63 174T39 292Q39 380 78 452T184 576T343 656T538 684Q571 684 599 681T653 671T703 655T754 636L712 436H686L646
593Q629 613 600 627T528 642Q486 642 440 619T355 548T291 429T264 262Z" />
<glyph unicode="&#x123;" glyph-name="gcommaaccent" horiz-adv-x="544" d="M468 767Q414 748 391 728T368 683Q368 663 384 651T423 634V627Q410 604 387 591T331 577Q290 577 266 601T241 660Q241 709 293 742T460 796L468 767ZM285 513Q314 513 341 507T391
494L564 513L561 436L444 447L442 442Q456 428 466 407T476 360Q476 325 461 293T417 235T344 195T242 178Q222 177 203 179T165 187Q156 179 156 167Q156 155 166 145T215 125L378 80Q432 65 456 38T480 -26Q480 -76 452 -115T378 -182T273 -223T153 -238Q93 -238
51 -228T-18 -202T-57 -164T-70 -120Q-70 -78 -34 -56T72 -24V-20Q43 -8 21 16T-1 75Q-1 97 7 113T30 142T70 169T126 198V201Q88 218 66 249T43 326Q43 363 58 396T104 456T179 497T285 513ZM103 -29Q99 -32 88 -47T77 -90Q77 -114 88 -132T119 -163T164 -182T217
-188Q242 -188 265 -183T307 -170T336 -149T347 -123Q347 -110 336 -102T306 -88L103 -29ZM296 474Q279 474 262 451T230 394T206 321T196 248Q196 210 219 210Q237 210 255 232T288 287T311 358T320 431Q320 447 315 460T296 474Z" />
<glyph unicode="&#x124;" glyph-name="Hcircumflex" horiz-adv-x="832" d="M418 41L491 59L541 311H308L258 59L321 41L313 0H-35L-27 41L53 59L161 605L87 623L95 664H444L436 623L366 605L319 367H552L599 605L535 623L543 664H892L884 623L804 605L696 59L769
41L761 0H410L418 41ZM358 716L485 865H597L656 716H610L524 787L413 716H358Z" />
<glyph unicode="&#x125;" glyph-name="hcircumflex" horiz-adv-x="625" d="M245 291H256Q278 337 305 378T364 450T429 499T499 517Q519 517 536 510T564 488T577 449T572 392L506 130H511Q530 148 549 171T588 220L620 205Q561 92 497 40T364 -13Q351 -13 338
-8T316 10T304 43T309 93L379 361Q384 384 375 384Q365 384 342 357T292 283T236 177T189 52L178 15L12 -16L-3 -1L143 612L68 676L73 696L355 753L245 291ZM256 761L383 910H495L554 761H508L422 832L311 761H256Z" />
<glyph unicode="&#x126;" glyph-name="Hbar" horiz-adv-x="832" d="M418 41L491 59L541 311H308L258 59L321 41L313 0H-35L-27 41L53 59L134 467H44L56 523H145L161 605L87 623L95 664H444L436 623L366 605L349 523H582L599 605L535 623L543 664H892L884 623L804
605L787 523H881L869 467H776L696 59L769 41L761 0H410L418 41ZM319 367H552L571 467H338L319 367Z" />
<glyph unicode="&#x127;" glyph-name="hbar" horiz-adv-x="625" d="M67 601H140L150 641L68 676L73 696L355 753L319 601H461L451 561H309L245 291H256Q278 337 305 378T363 450T428 499T498 517Q518 517 535 510T563 488T577 449T572 392L506 130H511Q530 148
549 171T588 220L620 205Q561 92 497 40T364 -13Q351 -13 338 -8T316 10T304 43T309 93L379 361Q384 384 375 384Q365 384 342 357T292 283T236 177T189 52L178 15L12 -16L-3 -1L131 561H57L67 601Z" />
<glyph unicode="&#x128;" glyph-name="Itilde" horiz-adv-x="394" d="M-27 41L53 59L161 605L87 623L95 664H454L446 623L366 605L258 59L331 41L323 0H-35L-27 41ZM354 750L363 767Q387 810 408 837T452 877T503 890T568 880L611 868Q656 855 691 862T762 911L784
901L770 878Q743 831 721 804T676 763T627 751T564 762L521 774Q492 781 471 784T434 783T404 769T376 740L354 750Z" />
<glyph unicode="&#x129;" glyph-name="itilde" horiz-adv-x="333" d="M66 581L75 598Q98 641 119 669T164 712T215 726T279 713L285 711Q306 703 323 702T357 705T388 722T421 755L444 745L431 722Q404 675 383 646T339 603T290 590T228 604L221 606Q193 616 174
618T141 617T114 601T88 571L66 581ZM100 399Q94 403 84 407T61 413T35 415T11 414L15 436Q31 451 52 465T99 492T152 511T209 518Q227 518 244 512T273 491T288 450T281 384L217 130H222Q241 148 260 171T299 220L331 205Q217 -13 77 -13Q63 -13 50 -8T27 10T15
43T20 93L100 399Z" />
<glyph unicode="&#x12a;" glyph-name="Imacron" horiz-adv-x="394" d="M164 840H470L453 760H147L164 840ZM-27 41L53 59L161 605L87 623L95 664H454L446 623L366 605L258 59L331 41L323 0H-35L-27 41Z" />
<glyph unicode="&#x12b;" glyph-name="imacron" horiz-adv-x="333" d="M100 701H376L361 621H85L100 701ZM100 399Q94 403 84 407T61 413T35 415T11 414L15 436Q31 451 52 465T99 492T152 511T209 518Q227 518 244 512T273 491T288 450T281 384L217 130H222Q241
148 260 171T299 220L331 205Q217 -13 77 -13Q63 -13 50 -8T27 10T15 43T20 93L100 399Z" />
<glyph unicode="&#x12c;" glyph-name="Ibreve" horiz-adv-x="394" d="M-27 41L53 59L161 605L87 623L95 664H454L446 623L366 605L258 59L331 41L323 0H-35L-27 41ZM546 710Q504 710 477 725T435 763T416 813T415 865H460Q465 841 486 821T555 801Q579 801 597
807T627 822T649 842T664 865H703Q700 838 691 811T663 761T617 724T546 710Z" />
<glyph unicode="&#x12d;" glyph-name="ibreve" horiz-adv-x="333" d="M357 399Q351 403 341 407T318 413T292 415T268 414L272 436Q288 451 309 465T356 492T409 511T466 518Q484 518 501 512T530 491T545 450T538 384L474 130H479Q498 148 517 171T556 220L588
205Q474 -13 334 -13Q320 -13 307 -8T284 10T272 43T277 93L357 399ZM483 582Q416 582 384 630T361 775H395Q399 717 425 694T489 671Q507 671 524 675T558 691T588 723T616 775H649Q642 732 629 697T594 636T545 596T483 582Z" />
<glyph unicode="&#x12e;" glyph-name="Iogonek" horiz-adv-x="394" d="M-27 41L53 59L161 605L87 623L95 664H454L446 623L366 605L258 59L331 41L323 0H164Q147 -26 137 -43T121 -72T113 -93T111 -111Q111 -128 122 -137T151 -147Q168 -147 186 -137T224 -106L247
-120Q215 -177 174 -212T82 -248Q43 -248 18 -225T-7 -167Q-7 -147 1 -129T26 -92T71 -51T138 0H-35L-27 41Z" />
<glyph unicode="&#x12f;" glyph-name="iogonek" horiz-adv-x="333" d="M100 399Q94 403 84 407T61 413T35 415T11 414L15 436Q31 451 52 465T99 492T152 511T209 518Q227 518 244 512T273 491T288 450T281 384L217 130H222Q241 148 260 171T299 220L331 205Q317
179 304 158T276 115T241 72T191 23Q155 -10 134 -31T102 -66T87 -90T83 -111Q83 -128 94 -137T123 -147Q140 -147 158 -137T196 -106L219 -120Q187 -177 146 -212T54 -248Q13 -248 -11 -225T-35 -167Q-35 -145 -26 -127T1 -91T44 -56T102 -16L100 -13H82Q66 -13
52 -7T29 11T16 44T20 93L100 399ZM234 567Q196 567 170 593T143 659Q143 678 150 695T169 724T198 744T234 752Q253 752 270 745T300 725T320 695T328 659Q328 620 301 594T234 567Z" />
<glyph unicode="&#x130;" glyph-name="Idotaccent" horiz-adv-x="394" d="M-27 41L53 59L161 605L87 623L95 664H454L446 623L366 605L258 59L331 41L323 0H-35L-27 41ZM463 804Q463 842 489 868T554 895Q592 895 618 869T645 804Q645 766 619 740T554 713Q516
713 490 739T463 804Z" />
<glyph unicode="&#x131;" glyph-name="dotlessi" horiz-adv-x="336" d="M103 399Q97 403 87 407T64 413T38 415T14 414L18 436Q34 451 55 465T102 492T155 511T212 518Q230 518 247 512T276 491T291 450T284 384L220 130H225Q244 148 263 171T302 220L334 205Q220
-13 80 -13Q66 -13 53 -8T30 10T18 43T23 93L103 399Z" />
<glyph unicode="&#x132;" glyph-name="IJ" horiz-adv-x="783" d="M-27 41L53 59L161 605L87 623L95 664H454L446 623L366 605L258 59L331 41L323 0H-35L-27 41ZM652 87Q639 22 613 -28T543 -114T437 -174T289 -207L280 -178Q323 -150 350 -125T396 -72T424 -13T443
57L552 605L476 623L484 664H843L835 623L755 605L652 87Z" />
<glyph unicode="&#x133;" glyph-name="ij" horiz-adv-x="635" d="M100 399Q94 403 84 407T61 413T35 415T11 414L15 436Q31 451 52 465T99 492T152 511T209 518Q227 518 244 512T273 491T288 450T281 384L217 130H222Q241 148 260 171T299 220L331 205Q217 -13
77 -13Q63 -13 50 -8T27 10T16 43T20 93L100 399ZM138 659Q138 678 145 695T164 724T193 744T229 752Q248 752 265 745T295 725T315 695T323 659Q323 620 296 594T229 567Q191 567 165 593T138 659ZM425 399Q419 403 408 407T385 413T359 415T335 414L339 436Q355
451 376 465T422 492T475 511T532 518Q550 518 566 512T594 491T609 450T605 384L550 134Q529 40 491 -30T403 -146T299 -215T191 -238Q152 -238 124 -217T94 -163Q92 -126 121 -102T206 -64Q226 -121 235 -147T263 -173Q277 -173 289 -148T312 -82T335 14T361
128L425 399ZM462 659Q462 678 469 695T488 724T517 744T553 752Q572 752 589 745T619 725T639 695T647 659Q647 620 620 594T553 567Q515 567 489 593T462 659Z" />
<glyph unicode="&#x134;" glyph-name="Jcircumflex" horiz-adv-x="394" d="M125 716L252 865H364L423 716H377L291 787L180 716H125ZM263 87Q250 22 224 -28T154 -114T48 -174T-100 -207L-109 -178Q-66 -150 -39 -125T7 -72T35 -13T54 57L163 605L87 623L95 664H454L446
623L366 605L263 87Z" />
<glyph unicode="&#x135;" glyph-name="jcircumflex" horiz-adv-x="314" d="M104 399Q98 403 87 407T64 413T38 415T14 414L18 436Q34 451 55 465T101 492T154 511T211 518Q229 518 245 512T273 491T288 450T284 384L229 134Q208 40 170 -30T82 -146T-22 -215T-130
-238Q-169 -238 -197 -217T-227 -163Q-229 -126 -200 -102T-115 -64Q-95 -121 -86 -147T-58 -173Q-44 -173 -32 -148T-9 -82T14 14T40 128L104 399ZM344 582L471 775H556L614 582H575L497 692L383 582H344Z" />
<glyph unicode="&#x136;" glyph-name="Kcommaaccent" horiz-adv-x="754" d="M208 -224Q262 -205 285 -185T308 -140Q308 -120 292 -108T253 -91V-84Q266 -61 289 -48T345 -34Q386 -34 410 -58T435 -117Q435 -166 383 -199T216 -253L208 -224ZM-27 41L53 59L161
605L87 623L95 664H454L446 623L366 607L258 61L321 41L314 0H-35L-27 41ZM718 0Q647 -7 598 -9T514 -5T455 24T411 85T370 187T321 341V343L627 607L547 623L554 664H794L785 623L700 607L488 429Q515 343 537 283T578 181T614 115T648 76T683 53T725 39L718 0Z"
/>
<glyph unicode="&#x137;" glyph-name="kcommaaccent" horiz-adv-x="593" d="M103 -224Q157 -205 180 -185T203 -140Q203 -120 187 -108T148 -91V-84Q161 -61 184 -48T240 -34Q281 -34 305 -58T330 -117Q330 -166 278 -199T111 -253L103 -224ZM452 -39Q423 -39
400 -33T357 -13T320 24T285 81L234 181Q206 118 187 53L176 15L12 -16L-3 -1L143 612L66 676L73 696L356 753L245 291H254Q273 333 298 373T354 446T418 497T490 517Q507 517 523 511T553 494T574 465T582 423Q582 403 575 382T547 336T492 286T399 231L543 2L541
-18Q528 -25 506 -32T452 -39ZM407 391Q389 391 368 375T324 330T279 265T237 186Q348 237 393 278T439 356Q439 372 431 381T407 391Z" />
<glyph unicode="&#x138;" glyph-name="kgreenlandic" horiz-adv-x="600" d="M99 399Q89 407 64 412T9 414L14 436Q29 451 49 465T92 491T139 510T186 518Q210 518 230 510T264 485T279 440T270 374L237 267H244Q267 313 295 358T356 438T423 495T497 517Q514 517
530 511T560 494T581 465T589 423Q589 403 582 381T554 336T499 286T407 231L550 2L548 -18Q535 -25 513 -32T459 -39Q430 -39 407 -33T364 -13T327 24T292 81L241 181Q213 118 194 53L183 15L12 -16L-3 -1L99 399ZM414 391Q396 391 375 375T331 330T286 265T244
186Q355 237 400 278T446 356Q446 372 438 381T414 391Z" />
<glyph unicode="&#x139;" glyph-name="Lacute" horiz-adv-x="602" d="M734 865V851L566 716H513L594 865H734ZM255 53Q265 48 281 44T315 39H390L548 275H587L508 0H-35L-27 41L53 59L161 605L87 623L95 664H454L446 623L366 605L255 53Z" />
<glyph unicode="&#x13a;" glyph-name="lacute" horiz-adv-x="320" d="M711 910V896L543 761H490L571 910H711ZM321 205Q260 87 195 37T67 -13Q53 -13 40 -8T18 10T6 43T10 93L135 612L60 676L65 696L352 753L207 130H212Q231 148 250 171T289 220L321 205Z" />
<glyph unicode="&#x13b;" glyph-name="Lcommaaccent" horiz-adv-x="602" d="M118 -224Q172 -205 195 -185T218 -140Q218 -120 202 -108T163 -91V-84Q176 -61 199 -48T255 -34Q296 -34 320 -58T345 -117Q345 -166 293 -199T126 -253L118 -224ZM255 53Q265 48 281
44T315 39H390L548 275H587L508 0H-35L-27 41L53 59L161 605L87 623L95 664H454L446 623L366 605L255 53Z" />
<glyph unicode="&#x13c;" glyph-name="lcommaaccent" horiz-adv-x="320" d="M-71 -224Q-17 -205 6 -185T29 -140Q29 -120 13 -108T-26 -91V-84Q-13 -61 10 -48T66 -34Q107 -34 131 -58T156 -117Q156 -166 104 -199T-63 -253L-71 -224ZM321 205Q260 87 195 37T67
-13Q53 -13 40 -8T18 10T6 43T10 93L135 612L60 676L65 696L352 753L207 130H212Q231 148 250 171T289 220L321 205Z" />
<glyph unicode="&#x13d;" glyph-name="Lcaron" horiz-adv-x="602" d="M491 519L548 730H680L679 722L521 519H491ZM255 53Q265 48 281 44T315 39H390L548 275H587L508 0H-35L-27 41L53 59L161 605L87 623L95 664H454L446 623L366 605L255 53Z" />
<glyph unicode="&#x13e;" glyph-name="lcaron" horiz-adv-x="320" d="M346 519L403 730H535L534 722L376 519H346ZM321 205Q260 87 195 37T67 -13Q53 -13 40 -8T18 10T6 43T10 93L135 612L60 676L65 696L352 753L207 130H212Q231 148 250 171T289 220L321 205Z" />
<glyph unicode="&#x13f;" glyph-name="Ldot" horiz-adv-x="603" d="M255 53Q265 48 281 44T315 39H390L543 236H582L508 0H-35L-27 41L53 59L161 605L87 623L95 664H454L446 623L366 605L255 53ZM539 282Q521 282 505 289T476 309T457 337T449 371Q449 390 456
406T476 435T504 455T539 462Q577 462 603 436T630 371Q630 353 623 337T604 309T575 290T539 282Z" />
<glyph unicode="&#x140;" glyph-name="ldot" horiz-adv-x="452" d="M394 297Q377 297 362 304T335 322T316 348T309 380Q309 398 316 414T334 441T361 460T394 467Q430 467 455 442T481 380Q481 363 474 348T456 322T428 304T394 297ZM321 205Q260 87 195 37T67
-13Q53 -13 40 -8T18 10T6 43T10 93L135 612L60 676L65 696L352 753L207 130H212Q231 148 250 171T289 220L321 205Z" />
<glyph unicode="&#x141;" glyph-name="Lslash" horiz-adv-x="602" d="M27 286L102 308L161 605L87 623L95 664H454L446 623L366 605L319 373L485 422L475 372L309 323L256 55Q266 50 282 46T316 41H391L548 275H587L508 0H-35L-27 41L53 59L92 258L17 236L27 286Z" />
<glyph unicode="&#x142;" glyph-name="lslash" horiz-adv-x="320" d="M7 339L75 365L135 612L60 676L65 696L352 753L280 443L360 474L348 419L267 388L207 130H212Q231 148 250 171T289 220L321 205Q260 87 195 37T67 -13Q53 -13 40 -8T18 10T6 43T10 93L62 309L-6
283L7 339Z" />
<glyph unicode="&#x143;" glyph-name="Nacute" horiz-adv-x="726" d="M660 865V851L492 716H439L520 865H660ZM477 0L193 495L115 63L216 41L208 0H-35L-27 41L54 59L152 563Q141 584 122 598T90 617L74 623L82 664H327L575 236L637 601L538 623L544 664H786L778
622L698 605L602 123L584 0H477Z" />
<glyph unicode="&#x144;" glyph-name="nacute" horiz-adv-x="629" d="M554 775V768L391 582H356L421 775H554ZM99 399Q89 407 64 412T9 414L14 436Q29 451 49 465T92 491T139 510T186 518Q210 518 230 510T264 485T279 440T270 374L237 267H247Q274 322 304 368T366
447T432 498T504 517Q524 517 541 510T568 488T581 449T576 391L510 130H515Q534 148 553 171T592 220L624 205Q510 -13 370 -13Q356 -13 343 -8T321 10T308 43T313 93L383 361Q388 384 379 384Q373 384 360 372T331 337T296 283T259 215T223 137T193 52L182 15L12
-16L-3 -1L99 399Z" />
<glyph unicode="&#x145;" glyph-name="Ncommaaccent" horiz-adv-x="726" d="M155 -224Q209 -205 232 -185T255 -140Q255 -120 239 -108T200 -91V-84Q213 -61 236 -48T292 -34Q333 -34 357 -58T382 -117Q382 -166 330 -199T163 -253L155 -224ZM477 0L193 495L115
63L216 41L208 0H-35L-27 41L54 59L152 563Q141 584 122 598T90 617L74 623L82 664H327L575 236L637 601L538 623L544 664H786L778 622L698 605L602 123L584 0H477Z" />
<glyph unicode="&#x146;" glyph-name="ncommaaccent" horiz-adv-x="629" d="M89 -224Q143 -205 166 -185T189 -140Q189 -120 173 -108T134 -91V-84Q147 -61 170 -48T226 -34Q267 -34 291 -58T316 -117Q316 -166 264 -199T97 -253L89 -224ZM99 399Q89 407 64 412T9
414L14 436Q29 451 49 465T92 491T139 510T186 518Q210 518 230 510T264 485T279 440T270 374L237 267H247Q274 322 304 368T366 447T432 498T504 517Q524 517 541 510T568 488T581 449T576 391L510 130H515Q534 148 553 171T592 220L624 205Q510 -13 370 -13Q356
-13 343 -8T321 10T308 43T313 93L383 361Q388 384 379 384Q373 384 360 372T331 337T296 283T259 215T223 137T193 52L182 15L12 -16L-3 -1L99 399Z" />
<glyph unicode="&#x147;" glyph-name="Ncaron" horiz-adv-x="726" d="M650 865L523 716H411L352 865H398L483 793L595 865H650ZM477 0L193 495L115 63L216 41L208 0H-35L-27 41L54 59L152 563Q141 584 122 598T90 617L74 623L82 664H327L575 236L637 601L538 623L544
664H786L778 622L698 605L602 123L584 0H477Z" />
<glyph unicode="&#x148;" glyph-name="ncaron" horiz-adv-x="629" d="M544 775L417 582H332L274 775H313L391 665L508 775H544ZM99 399Q89 407 64 412T9 414L14 436Q29 451 49 465T92 491T139 510T186 518Q210 518 230 510T264 485T279 440T270 374L237 267H247Q274
322 304 368T366 447T432 498T504 517Q524 517 541 510T568 488T581 449T576 391L510 130H515Q534 148 553 171T592 220L624 205Q510 -13 370 -13Q356 -13 343 -8T321 10T308 43T313 93L383 361Q388 384 379 384Q373 384 360 372T331 337T296 283T259 215T223 137T193
52L182 15L12 -16L-3 -1L99 399Z" />
<glyph unicode="&#x149;" glyph-name="napostrophe" horiz-adv-x="629" d="M-12 556Q42 575 65 595T88 640Q88 660 72 672T33 689V696Q46 719 69 732T125 746Q166 746 190 722T215 663Q215 614 163 581T-4 527L-12 556ZM99 399Q89 407 64 412T9 414L14 436Q29
451 49 465T92 491T139 510T186 518Q210 518 230 510T264 485T279 440T270 374L237 267H247Q274 322 304 368T366 447T432 498T504 517Q524 517 541 510T568 488T581 449T576 391L510 130H515Q534 148 553 171T592 220L624 205Q510 -13 370 -13Q356 -13 343 -8T321
10T308 43T313 93L383 361Q388 384 379 384Q373 384 360 372T331 337T296 283T259 215T223 137T193 52L182 15L12 -16L-3 -1L99 399Z" />
<glyph unicode="&#x14a;" glyph-name="Eng" horiz-adv-x="726" d="M275 -170Q353 -138 402 -99T476 0L192 498L115 63L216 41L208 0H-35L-27 41L54 59L152 563Q141 584 122 598T90 617L74 623L82 664H327L575 236L637 601L538 623L544 664H786L778 622L698 605L604
132Q585 39 558 -20T491 -115T400 -168T282 -195L275 -170Z" />
<glyph unicode="&#x14b;" glyph-name="eng" horiz-adv-x="604" d="M383 361Q388 384 379 384Q373 384 360 372T331 337T296 283T259 215T223 137T193 52L182 15L12 -16L-3 -1L99 399Q89 407 64 412T9 414L14 436Q29 451 49 465T92 491T139 510T186 518Q210 518
230 510T264 485T279 440T270 374L237 267H247Q274 322 304 368T366 447T432 498T504 517Q524 517 541 510T568 488T582 449T576 391L511 134Q487 40 446 -30T355 -146T248 -215T139 -238Q99 -238 72 -217T44 -162Q44 -142 53 -126T79 -98T116 -78T159 -64Q178
-121 191 -147T220 -173Q231 -173 242 -149T266 -83T292 13T322 128L383 361Z" />
<glyph unicode="&#x14c;" glyph-name="Omacron" horiz-adv-x="785" d="M351 840H657L640 760H334L351 840ZM466 686Q523 686 578 668T676 610T746 512T773 370Q773 298 742 229T655 104T521 15T346 -19Q289 -19 234 -1T136 57T66 155T39 297Q39 369 70 438T157
563T291 652T466 686ZM549 462Q549 487 546 519T532 579T505 627T460 646Q416 646 380 609T318 509T278 368T263 204Q263 178 266 147T279 87T306 40T351 21Q394 21 430 58T493 157T534 298T549 462Z" />
<glyph unicode="&#x14d;" glyph-name="omacron" horiz-adv-x="590" d="M236 700H542L527 620H221L236 700ZM343 479Q327 479 311 460T280 409T254 336T232 253T218 170T213 97Q213 52 219 35T243 17Q260 17 277 35T309 85T336 155T358 236T373 318T378 391Q378
432 371 455T343 479ZM352 515Q403 515 443 498T511 452T555 384T570 298Q570 242 551 186T490 85T386 11T235 -18Q132 -18 75 40T18 199Q18 248 36 303T94 406T197 484T352 515Z" />
<glyph unicode="&#x14e;" glyph-name="Obreve" horiz-adv-x="785" d="M481 710Q439 710 412 725T370 763T351 813T350 865H395Q400 841 421 821T490 801Q514 801 532 807T562 822T584 842T599 865H638Q635 838 626 811T598 761T552 724T481 710ZM466 686Q523 686
578 668T676 610T746 512T773 370Q773 298 742 229T655 104T521 15T346 -19Q289 -19 234 -1T136 57T66 155T39 297Q39 369 70 438T157 563T291 652T466 686ZM549 462Q549 487 546 519T532 579T505 627T460 646Q416 646 380 609T318 509T278 368T263 204Q263 178
266 147T279 87T306 40T351 21Q394 21 430 58T493 157T534 298T549 462Z" />
<glyph unicode="&#x14f;" glyph-name="obreve" horiz-adv-x="590" d="M343 479Q327 479 311 460T280 409T254 336T232 253T218 170T213 97Q213 52 219 35T243 17Q260 17 277 35T309 85T336 155T358 236T373 318T378 391Q378 432 371 455T343 479ZM352 515Q403
515 443 498T511 452T555 384T570 298Q570 242 551 186T490 85T386 11T235 -18Q132 -18 75 40T18 199Q18 248 36 303T94 406T197 484T352 515ZM374 582Q307 582 275 630T252 775H286Q290 717 316 694T380 671Q398 671 415 675T449 691T479 723T507 775H540Q533
732 520 697T485 636T436 596T374 582Z" />
<glyph unicode="&#x150;" glyph-name="Ohungarumlaut" horiz-adv-x="785" d="M719 851L584 716H531L592 865H719V851ZM536 851L401 716H348L409 865H536V851ZM466 686Q523 686 578 668T676 610T746 512T773 370Q773 298 742 229T655 104T521 15T346 -19Q289 -19
234 -1T136 57T66 155T39 297Q39 369 70 438T157 563T291 652T466 686ZM549 462Q549 487 546 519T532 579T505 627T460 646Q416 646 380 609T318 509T278 368T263 204Q263 178 266 147T279 87T306 40T351 21Q394 21 430 58T493 157T534 298T549 462Z" />
<glyph unicode="&#x151;" glyph-name="ohungarumlaut" horiz-adv-x="590" d="M424 775V766L291 582H256L301 775H424ZM593 775V766L461 582H426L471 775H593ZM343 479Q327 479 311 460T280 409T254 336T232 253T218 170T213 97Q213 52 219 35T243 17Q260 17 277
35T309 85T336 155T358 236T373 318T378 391Q378 432 371 455T343 479ZM352 515Q403 515 443 498T511 452T555 384T570 298Q570 242 551 186T490 85T386 11T235 -18Q132 -18 75 40T18 199Q18 248 36 303T94 406T197 484T352 515Z" />
<glyph unicode="&#x152;" glyph-name="OE" horiz-adv-x="1057" d="M657 0Q608 0 574 0T514 -2T469 -3T432 -5T394 -6T347 -6Q266 -6 208 18T113 83T57 178T39 296Q39 376 73 445T166 564T303 643T472 672Q498 672 595 668T872 664H1072L1031 461H995L950 620H784L734
366H801L855 474H894L841 203H800L791 324H725L671 58Q679 54 695 49T731 44H827L976 246H1014L943 0H657ZM572 590Q549 607 526 619T471 631Q418 631 379 594T314 495T276 358T263 205Q263 125 285 79T363 33Q382 33 402 43T440 74T472 127T496 205L572 590Z"
/>
<glyph unicode="&#x153;" glyph-name="oe" horiz-adv-x="865" d="M557 -19Q520 -19 489 1T439 61Q403 26 352 4T235 -18Q132 -18 75 40T18 199Q18 248 36 303T94 406T197 484T352 515Q430 515 472 486T531 415Q576 460 634 489T765 518Q783 518 801 514T835 499T859
473T869 434Q869 394 843 361T775 300T681 253T578 220V212Q578 180 584 159T601 124T625 106T653 100Q673 100 693 110T734 136T772 172T806 212L835 195Q818 157 791 119T727 50T648 0T557 -19ZM343 479Q327 479 311 460T280 409T254 336T232 253T218 170T213
97Q213 52 219 35T243 17Q260 17 277 35T309 85T336 155T358 236T373 318T378 391Q378 432 371 455T343 479ZM686 461Q669 461 652 444T621 398T595 333T580 257Q608 270 633 288T676 329T705 374T716 421Q716 439 709 450T686 461Z" />
<glyph unicode="&#x154;" glyph-name="Racute" horiz-adv-x="743" d="M608 865V851L440 716H387L468 865H608ZM-27 41L53 59L161 605L87 623L95 664L394 667Q534 669 607 628T680 509Q680 452 641 412T512 346Q535 280 552 234T585 155T614 104T643 73T677 54T718
40L711 0Q641 -6 593 -8T510 -5T454 19T413 72T378 161T338 294H296L250 61L330 41L323 0H-35L-27 41ZM304 334Q398 347 442 389T487 503Q487 527 479 549T455 590T416 619T363 634L304 334Z" />
<glyph unicode="&#x155;" glyph-name="racute" horiz-adv-x="520" d="M513 775V768L350 582H315L380 775H513ZM99 399Q89 407 64 412T9 414L14 436Q31 454 53 469T99 495T146 512T190 518Q211 518 231 511T264 488T280 444T269 376L221 230H233Q268 320 297 376T353
464T403 507T452 518Q490 518 510 498T530 446Q530 414 516 390T480 350T436 326T394 317H372Q381 349 384 366T376 384Q364 384 343 357T296 285T246 187T203 77L183 15L11 -16L-3 -1L99 399Z" />
<glyph unicode="&#x156;" glyph-name="Rcommaaccent" horiz-adv-x="743" d="M225 -224Q279 -205 302 -185T325 -140Q325 -120 309 -108T270 -91V-84Q283 -61 306 -48T362 -34Q403 -34 427 -58T452 -117Q452 -166 400 -199T233 -253L225 -224ZM-27 41L53 59L161
605L87 623L95 664L394 667Q534 669 607 628T680 509Q680 452 641 412T512 346Q535 280 552 234T585 155T614 104T643 73T677 54T718 40L711 0Q641 -6 593 -8T510 -5T454 19T413 72T378 161T338 294H296L250 61L330 41L323 0H-35L-27 41ZM304 334Q398 347 442 389T487
503Q487 527 479 549T455 590T416 619T363 634L304 334Z" />
<glyph unicode="&#x157;" glyph-name="rcommaaccent" horiz-adv-x="520" d="M202 -224Q256 -205 279 -185T302 -140Q302 -120 286 -108T247 -91V-84Q260 -61 283 -48T339 -34Q380 -34 404 -58T429 -117Q429 -166 377 -199T210 -253L202 -224ZM99 399Q89 407 64
412T9 414L14 436Q31 454 53 469T99 495T146 512T190 518Q211 518 231 511T264 488T280 444T269 376L221 230H233Q268 320 297 376T353 464T403 507T452 518Q490 518 510 498T530 446Q530 414 516 390T480 350T436 326T394 317H372Q381 349 384 366T376 384Q364
384 343 357T296 285T246 187T203 77L183 15L11 -16L-3 -1L99 399Z" />
<glyph unicode="&#x158;" glyph-name="Rcaron" horiz-adv-x="743" d="M596 865L469 716H357L298 865H344L429 793L541 865H596ZM-27 41L53 59L161 605L87 623L95 664L394 667Q534 669 607 628T680 509Q680 452 641 412T512 346Q535 280 552 234T585 155T614 104T643
73T677 54T718 40L711 0Q641 -6 593 -8T510 -5T454 19T413 72T378 161T338 294H296L250 61L330 41L323 0H-35L-27 41ZM304 334Q398 347 442 389T487 503Q487 527 479 549T455 590T416 619T363 634L304 334Z" />
<glyph unicode="&#x159;" glyph-name="rcaron" horiz-adv-x="520" d="M503 775L376 582H291L233 775H272L350 665L467 775H503ZM99 399Q89 407 64 412T9 414L14 436Q31 454 53 469T99 495T146 512T190 518Q211 518 231 511T264 488T280 444T269 376L221 230H233Q268
320 297 376T353 464T403 507T452 518Q490 518 510 498T530 446Q530 414 516 390T480 350T436 326T394 317H372Q381 349 384 366T376 384Q364 384 343 357T296 285T246 187T203 77L183 15L11 -16L-3 -1L99 399Z" />
<glyph unicode="&#x15a;" glyph-name="Sacute" horiz-adv-x="575" d="M76 258L118 62Q141 45 167 35T224 25Q277 25 303 57T330 134Q330 149 327 163T316 191T291 219T250 249L205 276Q143 313 118 354T92 457Q92 499 112 540T171 613T266 666T396 687Q450 687
495 674T579 640L527 439H496L472 610Q447 628 426 636T381 644Q355 644 335 636T300 613T278 581T270 541Q269 506 287 480T348 429L424 384Q480 350 503 313T527 227Q527 164 495 117T414 40T312 -6T212 -22Q178 -22 147 -17T89 -4T41 12T6 29L43 258H76ZM585
865V851L417 716H364L445 865H585Z" />
<glyph unicode="&#x15b;" glyph-name="sacute" horiz-adv-x="424" d="M464 775V768L301 582H266L331 775H464ZM381 173Q381 138 361 104T306 42T228 -2T135 -19Q106 -19 79 -9T32 17T-1 56T-14 105Q-14 125 -3 150T36 204H40Q55 174 78 145T128 93T180 55T226
40Q237 40 245 47T253 67Q253 79 242 92T202 132L108 214Q73 245 60 268T47 319Q47 356 68 392T123 456T201 503T290 521Q315 521 338 513T380 490T410 456T421 415Q421 388 408 365T368 312H364Q345 340 323 365T278 409T234 439T196 450Q184 450 177 444T170
427Q170 421 172 416T181 403T199 386T229 360L299 300Q323 279 339 262T364 230T377 201T381 173Z" />
<glyph unicode="&#x15c;" glyph-name="Scircumflex" horiz-adv-x="575" d="M243 716L370 865H482L541 716H495L409 787L298 716H243ZM76 258L118 62Q141 45 167 35T224 25Q277 25 303 57T330 134Q330 149 327 163T316 191T291 219T250 249L205 276Q143 313 118
354T92 457Q92 499 112 540T171 613T266 666T396 687Q450 687 495 674T579 640L527 439H496L472 610Q447 628 426 636T381 644Q355 644 335 636T300 613T278 581T270 541Q269 506 287 480T348 429L424 384Q480 350 503 313T527 227Q527 164 495 117T414 40T312
-6T212 -22Q178 -22 147 -17T89 -4T41 12T6 29L43 258H76Z" />
<glyph unicode="&#x15d;" glyph-name="scircumflex" horiz-adv-x="424" d="M152 582L279 775H364L422 582H383L305 692L191 582H152ZM381 173Q381 138 361 104T306 42T228 -2T135 -19Q106 -19 79 -9T32 17T-1 56T-14 105Q-14 125 -3 150T36 204H40Q55 174 78 145T128
93T180 55T226 40Q237 40 245 47T253 67Q253 79 242 92T202 132L108 214Q73 245 60 268T47 319Q47 356 68 392T123 456T201 503T290 521Q315 521 338 513T380 490T410 456T421 415Q421 388 408 365T368 312H364Q345 340 323 365T278 409T234 439T196 450Q184 450
177 444T170 427Q170 421 172 416T181 403T199 386T229 360L299 300Q323 279 339 262T364 230T377 201T381 173Z" />
<glyph unicode="&#x15e;" glyph-name="Scedilla" horiz-adv-x="575" d="M53 -219Q109 -201 141 -184T174 -140Q174 -121 160 -111T126 -94L179 -20Q121 -15 76 0T6 29L43 258H76L118 62Q141 45 167 35T224 25Q277 25 303 57T330 134Q330 149 327 163T316 191T291
219T250 249L205 276Q143 313 118 354T92 457Q92 499 112 540T171 613T266 666T396 687Q450 687 495 674T579 640L527 439H496L472 610Q447 628 426 636T381 644Q355 644 335 636T300 613T278 581T270 541Q269 506 287 480T348 429L424 384Q480 350 503 313T527
227Q527 185 512 151T472 89T415 41T348 6T279 -15T214 -22L201 -40Q245 -46 273 -65T301 -114Q301 -167 238 -198T61 -247L53 -219Z" />
<glyph unicode="&#x15f;" glyph-name="scedilla" horiz-adv-x="424" d="M-16 -219Q40 -201 72 -184T105 -140Q105 -121 91 -111T57 -94L112 -17Q86 -14 63 -3T23 24T-4 61T-14 105Q-14 125 -3 150T36 204H40Q55 174 78 145T128 93T180 55T226 40Q237 40 245 47T253
67Q253 79 242 92T202 132L108 214Q73 245 60 268T47 319Q47 356 68 392T123 456T201 503T290 521Q315 521 338 513T380 490T410 456T421 415Q421 388 408 365T368 312H364Q345 340 323 365T278 409T234 439T196 450Q184 450 177 444T170 427Q170 421 172 416T181
403T199 386T229 360L299 300Q323 279 339 262T364 230T377 201T381 173Q381 139 362 106T310 45T236 1T147 -19L132 -40Q176 -46 204 -65T232 -114Q232 -167 169 -198T-8 -247L-16 -219Z" />
<glyph unicode="&#x160;" glyph-name="Scaron" horiz-adv-x="575" d="M573 865L446 716H334L275 865H321L406 793L518 865H573ZM76 258L118 62Q141 45 167 35T224 25Q277 25 303 57T330 134Q330 149 327 163T316 191T291 219T250 249L205 276Q143 313 118 354T92
457Q92 499 112 540T171 613T266 666T396 687Q450 687 495 674T579 640L527 439H496L472 610Q447 628 426 636T381 644Q355 644 335 636T300 613T278 581T270 541Q269 506 287 480T348 429L424 384Q480 350 503 313T527 227Q527 164 495 117T414 40T312 -6T212
-22Q178 -22 147 -17T89 -4T41 12T6 29L43 258H76Z" />
<glyph unicode="&#x161;" glyph-name="scaron" horiz-adv-x="424" d="M711 775L584 582H499L441 775H480L558 665L675 775H711ZM381 173Q381 138 361 104T306 42T228 -2T135 -19Q106 -19 79 -9T32 17T-1 56T-14 105Q-14 125 -3 150T36 204H40Q55 174 78 145T128
93T180 55T226 40Q237 40 245 47T253 67Q253 79 242 92T202 132L108 214Q73 245 60 268T47 319Q47 356 68 392T123 456T201 503T290 521Q315 521 338 513T380 490T410 456T421 415Q421 388 408 365T368 312H364Q345 340 323 365T278 409T234 439T196 450Q184 450
177 444T170 427Q170 421 172 416T181 403T199 386T229 360L299 300Q323 279 339 262T364 230T377 201T381 173Z" />
<glyph unicode="&#x162;" glyph-name="Tcommaaccent" horiz-adv-x="702" d="M133 -224Q187 -205 210 -185T233 -140Q233 -120 217 -108T178 -91V-84Q191 -61 214 -48T270 -34Q311 -34 335 -58T360 -117Q360 -166 308 -199T141 -253L133 -224ZM698 442H667L630
613H521L412 59L506 41L498 0H96L104 41L207 59L316 613H207L102 442H71L115 664H742L698 442Z" />
<glyph unicode="&#x163;" glyph-name="tcommaaccent" horiz-adv-x="416" d="M211 -224Q265 -205 288 -185T311 -140Q311 -120 295 -108T256 -91V-84Q269 -61 292 -48T348 -34Q389 -34 413 -58T438 -117Q438 -166 386 -199T219 -253L211 -224ZM28 491L140 514L240
641H337L306 505H431L421 446H299L225 116H230Q252 133 272 153T310 194T342 233T365 264L397 241Q371 198 341 153T274 71T193 11T98 -13Q81 -13 67 -6T43 15T30 49T33 95L114 446H22L28 491Z" />
<glyph unicode="&#x164;" glyph-name="Tcaron" horiz-adv-x="702" d="M621 865L494 716H382L323 865H369L454 793L566 865H621ZM698 442H667L630 613H521L412 59L506 41L498 0H96L104 41L207 59L316 613H207L102 442H71L115 664H742L698 442Z" />
<glyph unicode="&#x165;" glyph-name="tcaron" horiz-adv-x="416" d="M369 537L426 748H558L557 740L399 537H369ZM28 491L140 514L240 641H337L306 505H431L421 446H299L225 116H230Q252 133 272 153T310 194T342 233T365 264L397 241Q371 198 341 153T274 71T193
11T98 -13Q81 -13 67 -6T43 15T30 49T33 95L114 446H22L28 491Z" />
<glyph unicode="&#x166;" glyph-name="Tbar" horiz-adv-x="702" d="M124 388H272L315 609H206L102 442H71L115 664H742L698 442H667L629 609H520L476 388H623L612 332H465L412 59L506 41L498 0H96L104 41L207 59L261 332H113L124 388Z" />
<glyph unicode="&#x167;" glyph-name="tbar" horiz-adv-x="416" d="M41 491L153 514L253 641H350L319 505H444L434 446H312L296 374H422L413 325H285L238 116H243Q265 133 285 153T323 194T355 233T378 264L410 241Q384 198 354 153T287 71T206 11T111 -13Q94
-13 80 -6T56 15T43 49T46 95L99 325H18L26 374H110L127 446H35L41 491Z" />
<glyph unicode="&#x168;" glyph-name="Utilde" horiz-adv-x="736" d="M350 -20Q195 -20 129 55T92 285L155 605L81 623L89 664H448L440 623L360 605L288 235Q280 192 285 160T307 107T347 74T403 63Q479 63 530 113T601 274L657 602L561 623L567 664H809L801 623L721
605L662 283Q651 224 630 170T572 73T481 6T350 -20ZM327 750L336 767Q360 810 381 837T425 877T476 890T541 880L584 868Q629 855 664 862T735 911L757 901L743 878Q716 831 694 804T649 763T600 751T537 762L494 774Q465 781 444 784T407 783T377 769T349 740L327
750Z" />
<glyph unicode="&#x169;" glyph-name="utilde" horiz-adv-x="625" d="M99 399Q93 403 83 407T60 413T34 415T10 414L14 435Q30 450 51 465T97 492T149 511T207 518Q225 518 241 511T268 486T281 441T273 373L215 141Q211 126 213 122T219 118Q229 118 251 145T301
216T355 319T401 441L415 487L586 519L601 503L504 130H509Q528 148 547 171T586 220L618 205Q561 94 497 41T365 -13Q350 -13 337 -8T316 11T308 45T319 98L381 273H373Q352 230 326 180T267 87T192 15T100 -14Q53 -14 31 17T26 118L99 399ZM165 587L174 604Q197
647 219 675T265 717T318 731T382 717L424 702Q467 687 501 696T570 748L593 738L580 715Q553 668 531 639T484 597T433 585T371 599L328 614Q300 624 280 626T243 624T214 607T187 577L165 587Z" />
<glyph unicode="&#x16a;" glyph-name="Umacron" horiz-adv-x="736" d="M350 -20Q195 -20 129 55T92 285L155 605L81 623L89 664H448L440 623L360 605L288 235Q280 192 285 160T307 107T347 74T403 63Q479 63 530 113T601 274L657 602L561 623L567 664H809L801
623L721 605L662 283Q651 224 630 170T572 73T481 6T350 -20ZM377 840H683L666 760H360L377 840Z" />
<glyph unicode="&#x16b;" glyph-name="umacron" horiz-adv-x="625" d="M235 708H541L526 628H220L235 708ZM99 399Q93 403 83 407T60 413T34 415T10 414L14 435Q30 450 51 465T97 492T149 511T207 518Q225 518 241 511T268 486T281 441T273 373L215 141Q211 126
213 122T219 118Q229 118 251 145T301 216T355 319T401 441L415 487L586 519L601 503L504 130H509Q528 148 547 171T586 220L618 205Q561 94 497 41T365 -13Q350 -13 337 -8T316 11T308 45T319 98L381 273H373Q352 230 326 180T267 87T192 15T100 -14Q53 -14 31
17T26 118L99 399Z" />
<glyph unicode="&#x16c;" glyph-name="Ubreve" horiz-adv-x="736" d="M350 -20Q195 -20 129 55T92 285L155 605L81 623L89 664H448L440 623L360 605L288 235Q280 192 285 160T307 107T347 74T403 63Q479 63 530 113T601 274L657 602L561 623L567 664H809L801 623L721
605L662 283Q651 224 630 170T572 73T481 6T350 -20ZM501 710Q459 710 432 725T390 763T371 813T370 865H415Q420 841 441 821T510 801Q534 801 552 807T582 822T604 842T619 865H658Q655 838 646 811T618 761T572 724T501 710Z" />
<glyph unicode="&#x16d;" glyph-name="ubreve" horiz-adv-x="625" d="M99 399Q93 403 83 407T60 413T34 415T10 414L14 435Q30 450 51 465T97 492T149 511T207 518Q225 518 241 511T268 486T281 441T273 373L215 141Q211 126 213 122T219 118Q229 118 251 145T301
216T355 319T401 441L415 487L586 519L601 503L504 130H509Q528 148 547 171T586 220L618 205Q561 94 497 41T365 -13Q350 -13 337 -8T316 11T308 45T319 98L381 273H373Q352 230 326 180T267 87T192 15T100 -14Q53 -14 31 17T26 118L99 399ZM371 582Q304 582 272
630T249 775H283Q287 717 313 694T377 671Q395 671 412 675T446 691T476 723T504 775H537Q530 732 517 697T482 636T433 596T371 582Z" />
<glyph unicode="&#x16e;" glyph-name="Uring" horiz-adv-x="736" d="M350 -20Q195 -20 129 55T92 285L155 605L81 623L89 664H448L440 623L360 605L288 235Q280 192 285 160T307 107T347 74T403 63Q479 63 530 113T601 274L657 602L561 623L567 664H809L801 623L721
605L662 283Q651 224 630 170T572 73T481 6T350 -20ZM410 829Q410 851 418 870T442 904T477 927T523 936Q574 936 604 906T634 831Q634 787 603 756T521 724Q470 724 440 754T410 829ZM454 831Q454 801 474 781T523 761Q552 761 571 780T590 829Q590 859 570 879T521
899Q492 899 473 880T454 831Z" />
<glyph unicode="&#x16f;" glyph-name="uring" horiz-adv-x="625" d="M261 669Q261 691 269 710T293 744T328 767T374 776Q425 776 455 746T485 671Q485 627 454 596T372 564Q321 564 291 594T261 669ZM305 671Q305 641 325 621T374 601Q403 601 422 620T441 669Q441
699 421 719T372 739Q343 739 324 720T305 671ZM99 399Q93 403 83 407T60 413T34 415T10 414L14 435Q30 450 51 465T97 492T149 511T207 518Q225 518 241 511T268 486T281 441T273 373L215 141Q211 126 213 122T219 118Q229 118 251 145T301 216T355 319T401 441L415
487L586 519L601 503L504 130H509Q528 148 547 171T586 220L618 205Q561 94 497 41T365 -13Q350 -13 337 -8T316 11T308 45T319 98L381 273H373Q352 230 326 180T267 87T192 15T100 -14Q53 -14 31 17T26 118L99 399Z" />
<glyph unicode="&#x170;" glyph-name="Uhungarumlaut" horiz-adv-x="736" d="M748 851L613 716H560L621 865H748V851ZM565 851L430 716H377L438 865H565V851ZM350 -20Q195 -20 129 55T92 285L155 605L81 623L89 664H448L440 623L360 605L288 235Q280 192 285 160T307
107T347 74T403 63Q479 63 530 113T601 274L657 602L561 623L567 664H809L801 623L721 605L662 283Q651 224 630 170T572 73T481 6T350 -20Z" />
<glyph unicode="&#x171;" glyph-name="uhungarumlaut" horiz-adv-x="625" d="M99 399Q93 403 83 407T60 413T34 415T10 414L14 435Q30 450 51 465T97 492T149 511T207 518Q225 518 241 511T268 486T281 441T273 373L215 141Q211 126 213 122T219 118Q229 118 251
145T301 216T355 319T401 441L415 487L586 519L601 503L504 130H509Q528 148 547 171T586 220L618 205Q561 94 497 41T365 -13Q350 -13 337 -8T316 11T308 45T319 98L381 273H373Q352 230 326 180T267 87T192 15T100 -14Q53 -14 31 17T26 118L99 399ZM421 775V766L288
582H253L298 775H421ZM590 775V766L458 582H423L468 775H590Z" />
<glyph unicode="&#x172;" glyph-name="Uogonek" horiz-adv-x="736" d="M662 283Q652 229 634 179T584 88T508 19T399 -17Q378 -37 365 -51T346 -75T337 -94T334 -111Q334 -128 345 -137T374 -147Q391 -147 409 -137T447 -106L470 -120Q438 -177 397 -212T305 -248Q266
-248 241 -225T216 -167Q216 -148 223 -132T245 -98T286 -62T348 -20Q194 -19 128 55T92 285L155 605L81 623L89 664H448L440 623L360 605L288 235Q280 192 285 160T306 107T347 74T403 63Q479 63 530 113T601 274L657 602L561 623L567 664H809L801 623L721 605L662
283Z" />
<glyph unicode="&#x173;" glyph-name="uogonek" horiz-adv-x="625" d="M388 -11Q385 -12 381 -12Q378 -13 374 -13T365 -13Q350 -13 337 -8T316 11T308 45T319 98L381 273H373Q352 230 326 180T267 87T192 15T100 -14Q53 -14 31 17T26 118L99 399Q93 403 83 407T60
413T34 415T10 414L14 435Q30 450 51 465T97 492T149 511T207 518Q225 518 241 511T268 486T281 441T273 373L215 141Q211 126 213 122T219 118Q229 118 251 145T301 216T355 319T401 441L415 487L586 519L601 503L504 130H509Q528 148 547 171T586 220L618 205Q604
178 592 157T565 115T532 76T488 32Q449 -4 426 -27T390 -65T374 -90T370 -111Q370 -128 381 -137T410 -147Q427 -147 445 -137T483 -106L506 -120Q474 -177 433 -212T341 -248Q300 -248 276 -225T252 -167Q252 -145 261 -127T288 -91T331 -56T389 -16L388 -11Z"
/>
<glyph unicode="&#x174;" glyph-name="Wcircumflex" horiz-adv-x="1022" d="M482 716L609 865H721L780 716H734L648 787L537 716H482ZM546 376L318 -12H224L143 605L79 622L87 664H418L410 623L352 603L395 195L537 447L516 606L464 623L472 664H797L789 623L721
605L766 213L961 605L893 623L901 664H1092L1084 623L1020 605L693 -12H597L546 376Z" />
<glyph unicode="&#x175;" glyph-name="wcircumflex" horiz-adv-x="789" d="M322 582L449 775H534L592 582H553L475 692L361 582H322ZM538 121H540Q569 161 591 193T629 254T653 309T661 361Q661 388 649 403T615 418Q606 418 596 417T576 414L581 436Q613 472
648 495T717 518Q739 518 754 511T779 493T793 466T798 435Q798 398 779 363T727 288T650 202T554 97L456 -14H447L368 12V188H366Q356 178 345 167T320 141T287 104T240 52L182 -14H168L96 12L85 394Q71 406 50 410T8 415Q3 415 -2 415T-12 413L-6 435Q30 473
77 495T163 517Q210 517 233 492T258 418L264 126H267Q293 155 316 182T363 242L361 403Q348 410 336 412T307 415Q301 415 296 415T285 413L291 435Q323 471 368 494T453 517Q466 517 481 514T509 500T531 466T540 403L538 121Z" />
<glyph unicode="&#x176;" glyph-name="Ycircumflex" horiz-adv-x="705" d="M454 259L414 59L494 40L485 0H113L122 40L210 59L247 242L137 605L73 623L82 664H456L447 623L356 607L432 302L637 605L550 623L559 664H770L762 623L699 605L454 259ZM350 716L477
865H589L648 716H602L516 787L405 716H350Z" />
<glyph unicode="&#x177;" glyph-name="ycircumflex" horiz-adv-x="537" d="M1 229Q5 310 19 364T57 452T111 499T176 513Q204 513 231 497T280 443T315 345T329 195Q329 140 325 98T315 18H323Q349 63 369 103T403 180T424 252T431 325Q431 368 419 409T378 490Q421
519 466 519Q479 519 492 514T517 498T534 468T541 422Q541 377 518 311T454 171T359 24T242 -107T113 -201T-19 -238Q-61 -238 -90 -214T-120 -143Q-120 -127 -114 -111T-97 -82T-70 -62T-32 -54Q7 -54 32 -83T70 -176H78Q97 -163 112 -136T137 -70T153 14T158
113Q158 171 153 220T140 307T120 365T96 386Q79 386 66 348T35 229H1ZM196 582L323 775H408L466 582H427L349 692L235 582H196Z" />
<glyph unicode="&#x178;" glyph-name="Ydieresis" horiz-adv-x="705" d="M454 259L414 59L494 40L485 0H113L122 40L210 59L247 242L137 605L73 623L82 664H456L447 623L356 607L432 302L637 605L550 623L559 664H770L762 623L699 605L454 259ZM353 713Q318 713
294 737T269 796Q269 830 293 855T353 880Q387 880 412 855T437 796Q437 761 412 737T353 713ZM609 713Q575 713 551 737T527 796Q527 830 551 855T609 880Q626 880 641 873T668 855T687 828T694 796Q694 761 669 737T609 713Z" />
<glyph unicode="&#x179;" glyph-name="Zacute" horiz-adv-x="693" d="M601 865V851L433 716H380L461 865H601ZM4 42L416 614H208L99 437H67L103 664H686V652L244 49H488L635 241H668L594 0H-5L4 42Z" />
<glyph unicode="&#x17a;" glyph-name="zacute" horiz-adv-x="555" d="M534 775V768L371 582H336L401 775H534ZM585 469L237 191L251 184Q303 156 340 147T406 144T457 175T501 237L532 222Q507 153 481 107T425 33T362 -7T290 -19Q263 -19 234 -8T156 32L88 71L24
-11L-23 35L329 315L207 364Q158 384 127 388T95 369Q95 355 116 344T194 322Q181 277 152 254T88 231Q50 231 31 252T12 302Q12 334 35 372T94 444T175 500T263 523Q279 523 294 521T330 512T380 489T457 447L475 436L532 518L585 469Z" />
<glyph unicode="&#x17b;" glyph-name="Zdotaccent" horiz-adv-x="693" d="M4 42L416 614H208L99 437H67L103 664H686V652L244 49H488L635 241H668L594 0H-5L4 42ZM338 804Q338 842 364 868T429 895Q467 895 493 869T520 804Q520 766 494 740T429 713Q391 713 365
739T338 804Z" />
<glyph unicode="&#x17c;" glyph-name="zdotaccent" horiz-adv-x="555" d="M585 469L237 191L251 184Q303 156 340 147T406 144T457 175T501 237L532 222Q507 153 481 107T425 33T362 -7T290 -19Q263 -19 234 -8T156 32L88 71L24 -11L-23 35L329 315L207 364Q158
384 127 388T95 369Q95 355 116 344T194 322Q181 277 152 254T88 231Q50 231 31 252T12 302Q12 334 35 372T94 444T175 500T263 523Q279 523 294 521T330 512T380 489T457 447L475 436L532 518L585 469ZM281 659Q281 678 288 695T307 724T337 744T373 751Q392 751
409 744T438 725T458 695T465 659Q465 640 458 623T439 594T409 574T373 567Q354 567 337 574T308 593T288 623T281 659Z" />
<glyph unicode="&#x17d;" glyph-name="Zcaron" horiz-adv-x="693" d="M611 865L484 716H372L313 865H359L444 793L556 865H611ZM4 42L416 614H208L99 437H67L103 664H686V652L244 49H488L635 241H668L594 0H-5L4 42Z" />
<glyph unicode="&#x17e;" glyph-name="zcaron" horiz-adv-x="555" d="M523 775L396 582H311L253 775H292L370 665L487 775H523ZM585 469L237 191L251 184Q303 156 340 147T406 144T457 175T501 237L532 222Q507 153 481 107T425 33T362 -7T290 -19Q263 -19 234
-8T156 32L88 71L24 -11L-23 35L329 315L207 364Q158 384 127 388T95 369Q95 355 116 344T194 322Q181 277 152 254T88 231Q50 231 31 252T12 302Q12 334 35 372T94 444T175 500T263 523Q279 523 294 521T330 512T380 489T457 447L475 436L532 518L585 469Z" />
<glyph unicode="&#x192;" glyph-name="florin" horiz-adv-x="552" d="M51 351H179Q201 410 243 457T332 538T426 589T504 607Q549 607 575 589T601 534Q601 511 590 492T562 458T524 437T482 430Q479 453 475 473T465 510T451 535T431 544Q412 544 402 519T384
454L363 351H511L502 295H352L327 171Q311 90 284 29T223 -78T153 -154T81 -202T16 -228T-34 -236Q-60 -236 -78 -229T-108 -212T-125 -188T-131 -163Q-131 -125 -101 -101T-20 -64Q-8 -118 9 -145T41 -173Q48 -173 54 -170T67 -158T78 -130T90 -82L163 295H41L51
351Z" />
<glyph unicode="&#x1fa;" glyph-name="Aringacute" horiz-adv-x="732" d="M-42 41L29 59L410 670L459 679L525 690L622 59L684 41L675 0H325L334 41L414 59L393 215H188L97 62L201 41L192 0H-51L-42 41ZM220 268H386L356 496L220 268ZM702 1088V1074L534 939H481L562
1088H702ZM371 811Q371 833 379 852T403 886T438 909T484 918Q535 918 565 888T595 813Q595 769 564 738T482 706Q431 706 401 736T371 811ZM415 813Q415 783 435 763T484 743Q513 743 532 762T551 811Q551 841 531 861T482 881Q453 881 434 862T415 813Z" />
<glyph unicode="&#x1fb;" glyph-name="aringacute" d="M600 530L497 130H502Q521 148 540 171T579 220L611 205Q498 -13 356 -13Q338 -13 325 -5T305 18T298 52T306 94L348 206H341Q320 169 294 130T237 57T173 3T103 -18Q85 -18 67 -12T35 9T11 45T2 101Q2 137
14 181T50 271T105 358T179 434T270 487T374 507Q388 507 402 505T433 497L450 530H600ZM213 112Q225 112 247 136T295 203T348 305T396 433L401 450Q392 458 381 463T359 469Q337 469 317 453T278 411T245 352T218 283T201 215T194 154Q194 127 199 120T213 112ZM299
653Q299 675 307 694T331 728T366 751T412 760Q463 760 493 730T523 655Q523 611 492 580T410 548Q359 548 329 578T299 653ZM343 655Q343 625 363 605T412 585Q441 585 460 604T479 653Q479 683 459 703T410 723Q381 723 362 704T343 655ZM624 935V921L456 786H403L484
935H624Z" />
<glyph unicode="&#x1fc;" glyph-name="AEacute" horiz-adv-x="1024" d="M887 865V851L719 716H666L747 865H887ZM690 310L638 58Q646 54 662 49T698 44H795L943 246H981L910 0H346L354 41L434 59L483 307H296L117 62L213 41L204 0H-39L-30 41L38 59L459 599L364
623L372 664H1039L998 461H962L916 620H751L700 359H768L820 458H858L806 204H765L759 310H690ZM529 607L337 361H494L543 607H529Z" />
<glyph unicode="&#x1fd;" glyph-name="aeacute" horiz-adv-x="741" d="M658 775V768L495 582H460L525 775H658ZM410 -20Q356 -20 324 1T274 59H270Q251 38 233 23T196 -1T153 -14T102 -19Q53 -19 21 11T-11 90Q-11 119 -1 143T33 187T96 220T193 243L278 255L304
351Q306 372 303 391T291 426T266 450T224 459Q214 459 206 457L190 326Q175 321 160 318T125 314Q94 314 80 331T65 370Q65 400 89 427T151 474T235 506T328 518Q429 518 448 427H453Q488 469 531 493T633 518Q681 518 712 497T743 437Q743 394 719 363T654 309T561
271T452 246Q449 228 449 209Q448 174 455 153T474 120T499 104T524 100Q545 100 567 111T610 138T649 174T681 212L709 195Q692 157 663 119T594 50T508 0T410 -20ZM263 94Q257 121 258 150T267 212L235 205Q189 195 171 176T152 127Q152 105 165 89T205 72Q233
72 263 94ZM576 463Q561 463 545 448T512 409T483 352T460 286Q502 305 529 326T572 366T594 402T601 430Q601 463 576 463Z" />
<glyph unicode="&#x1fe;" glyph-name="Oslashacute" horiz-adv-x="785" d="M66 -49L147 50Q99 90 69 151T39 297Q39 369 70 438T157 563T291 652T466 686Q509 686 551 675T631 640L687 708H735L662 619Q711 579 742 518T773 370Q773 298 742 229T655 104T521 15T346
-19Q301 -19 259 -7T178 29L114 -49H66ZM553 465Q553 470 553 475T552 485L265 135Q268 113 274 93T291 56T316 31T351 21Q394 21 431 58T495 158T537 301T553 465ZM260 187L546 536Q542 557 536 576T519 611T494 636T460 646Q416 646 380 608T317 508T275 365T260
201V187ZM664 865V851L496 716H443L524 865H664Z" />
<glyph unicode="&#x1ff;" glyph-name="oslashacute" horiz-adv-x="590" d="M45 -50L99 22Q61 50 40 94T18 199Q18 257 39 313T103 415T207 487T352 515Q381 515 406 509T454 491L503 555H550L486 471Q525 441 547 397T570 298Q570 240 549 184T487 82T382 10T235
-18Q206 -18 181 -13T132 3L92 -50H45ZM243 17Q268 17 291 48T334 126T366 230T384 336L204 98Q205 63 212 40T243 17ZM340 479Q316 479 295 449T255 372T225 270T207 164L385 400Q383 436 372 457T340 479ZM544 775V768L381 582H346L411 775H544Z" />
<glyph unicode="&#x218;" glyph-name="Scommaaccent" horiz-adv-x="575" d="M58 -224Q112 -205 135 -185T158 -140Q158 -120 142 -108T103 -91V-84Q116 -61 139 -48T195 -34Q236 -34 260 -58T285 -117Q285 -166 233 -199T66 -253L58 -224ZM76 258L118 62Q141 45
167 35T224 25Q277 25 303 57T330 134Q330 149 327 163T316 191T291 219T250 249L205 276Q143 313 118 354T92 457Q92 499 112 540T171 613T266 666T396 687Q450 687 495 674T579 640L527 439H496L472 610Q447 628 426 636T381 644Q355 644 335 636T300 613T278
581T270 541Q269 506 287 480T348 429L424 384Q480 350 503 313T527 227Q527 164 495 117T414 40T312 -6T212 -22Q178 -22 147 -17T89 -4T41 12T6 29L43 258H76Z" />
<glyph unicode="&#x219;" glyph-name="scommaaccent" horiz-adv-x="424" d="M225 -224Q279 -205 302 -185T325 -140Q325 -120 309 -108T270 -91V-84Q283 -61 306 -48T362 -34Q403 -34 427 -58T452 -117Q452 -166 400 -199T233 -253L225 -224ZM381 173Q381 138
361 104T306 42T228 -2T135 -19Q106 -19 79 -9T32 17T-1 56T-14 105Q-14 125 -3 150T36 204H40Q55 174 78 145T128 93T180 55T226 40Q237 40 245 47T253 67Q253 79 242 92T202 132L108 214Q73 245 60 268T47 319Q47 356 68 392T123 456T201 503T290 521Q315 521
338 513T380 490T410 456T421 415Q421 388 408 365T368 312H364Q345 340 323 365T278 409T234 439T196 450Q184 450 177 444T170 427Q170 421 172 416T181 403T199 386T229 360L299 300Q323 279 339 262T364 230T377 201T381 173Z" />
<glyph unicode="&#x21a;" glyph-name="uni021A" horiz-adv-x="702" d="M133 -224Q187 -205 210 -185T233 -140Q233 -120 217 -108T178 -91V-84Q191 -61 214 -48T270 -34Q311 -34 335 -58T360 -117Q360 -166 308 -199T141 -253L133 -224ZM698 442H667L630 613H521L412
59L506 41L498 0H96L104 41L207 59L316 613H207L102 442H71L115 664H742L698 442Z" />
<glyph unicode="&#x21b;" glyph-name="uni021B" horiz-adv-x="416" d="M211 -224Q265 -205 288 -185T311 -140Q311 -120 295 -108T256 -91V-84Q269 -61 292 -48T348 -34Q389 -34 413 -58T438 -117Q438 -166 386 -199T219 -253L211 -224ZM28 491L140 514L240 641H337L306
505H431L421 446H299L225 116H230Q252 133 272 153T310 194T342 233T365 264L397 241Q371 198 341 153T274 71T193 11T98 -13Q81 -13 67 -6T43 15T30 49T33 95L114 446H22L28 491Z" />
<glyph unicode="&#x237;" glyph-name="uni0237" horiz-adv-x="314" d="M104 399Q98 403 87 407T64 413T38 415T14 414L18 436Q34 451 55 465T101 492T154 511T211 518Q229 518 245 512T273 491T288 450T284 384L229 134Q208 40 170 -30T82 -146T-22 -215T-130
-238Q-169 -238 -197 -217T-227 -163Q-229 -126 -200 -102T-115 -64Q-95 -121 -86 -147T-58 -173Q-44 -173 -32 -148T-9 -82T14 14T40 128L104 399Z" />
<glyph unicode="&#x2c6;" glyph-name="circumflex" horiz-adv-x="400" d="M134 582L261 775H346L404 582H365L287 692L173 582H134Z" />
<glyph unicode="&#x2c7;" glyph-name="caron" horiz-adv-x="400" d="M463 775L336 582H251L193 775H232L310 665L427 775H463Z" />
<glyph unicode="&#x2d8;" glyph-name="breve" horiz-adv-x="400" d="M275 582Q208 582 176 630T153 775H187Q191 717 217 694T281 671Q299 671 316 675T350 691T380 723T408 775H441Q434 732 421 697T386 636T337 596T275 582Z" />
<glyph unicode="&#x2d9;" glyph-name="dotaccent" horiz-adv-x="400" d="M183 659Q183 678 190 695T209 724T239 744T275 751Q294 751 311 744T340 725T360 695T367 659Q367 640 360 623T341 594T311 574T275 567Q256 567 239 574T210 593T190 623T183 659Z" />
<glyph unicode="&#x2da;" glyph-name="ring" horiz-adv-x="400" d="M166 669Q166 691 174 710T198 744T233 767T279 776Q330 776 360 746T390 671Q390 627 359 596T277 564Q226 564 196 594T166 669ZM210 671Q210 641 230 621T279 601Q308 601 327 620T346 669Q346
699 326 719T277 739Q248 739 229 720T210 671Z" />
<glyph unicode="&#x2db;" glyph-name="ogonek" horiz-adv-x="533" d="M415 34Q375 -3 352 -26T316 -64T300 -90T296 -111Q296 -128 307 -137T336 -147Q353 -147 371 -137T409 -106L432 -120Q400 -177 359 -212T267 -248Q228 -248 203 -225T178 -167Q178 -144 189
-124T225 -81T293 -31T397 34H415Z" />
<glyph unicode="&#x2dc;" glyph-name="tilde" horiz-adv-x="400" d="M77 587L86 604Q109 647 131 675T177 717T230 731T294 717L336 702Q379 687 413 696T482 748L505 738L492 715Q465 668 443 639T396 597T345 585T283 599L240 614Q212 624 192 626T155 624T126
607T99 577L77 587Z" />
<glyph unicode="&#x2dd;" glyph-name="hungarumlaut" horiz-adv-x="400" d="M336 775V766L203 582H168L213 775H336ZM505 775V766L373 582H338L383 775H505Z" />
</font>
</defs>
</svg>
