<?xml version="1.0" standalone="no"?> <!DOCTYPE svg PUBLIC "-//W3C//DTD SVG 1.0//EN" "http://www.w3.org/TR/2001/REC-SVG-20010904/DTD/svg10.dtd" > <svg xmlns="http://www.w3.org/2000/svg" width="100%" height="100%">
<defs >
<font horiz-adv-x="594" ><font-face
    font-family=""
    units-per-em="1000"
    panose-1="2 0 8 3 8 0 0 9 0 4"
    ascent="760"
    descent="-240"
    alphabetic="0" />
<missing-glyph horiz-adv-x="161" />
<glyph unicode=" " glyph-name="space" horiz-adv-x="161" />
<glyph unicode="!" glyph-name="exclam" horiz-adv-x="303" d="M328 709L151 202H122L141 709H328ZM118 -14Q84 -14 59 10T34 69Q34 103 59 127T118 152Q153 152 177 128T202 69Q202 35 178 11T118 -14Z" />
<glyph unicode="&quot;" glyph-name="quotedbl" horiz-adv-x="434" d="M124 719H270L163 449H140L124 719ZM323 719H469L362 449H339L323 719Z" />
<glyph unicode="#" glyph-name="numbersign" horiz-adv-x="593" d="M126 437H244L303 594H348L289 437H431L490 594H536L477 437H597L587 394H461L391 206H505L496 163H375L314 0H268L329 163H187L126 0H81L142 163H26L35 206H158L228 394H117L126 437ZM203 206H345L415
394H273L203 206Z" />
<glyph unicode="$" glyph-name="dollar" horiz-adv-x="553" d="M76 230L96 74Q113 63 134 52T181 35L242 250L208 263Q142 289 110 329T78 431Q78 474 98 514T155 584T243 632T355 651L384 752H422L393 650Q437 646 470 636T534 615L491 434H462L442 579Q428 587
413 593T380 604L320 393L358 379Q401 363 429 346T475 307T500 262T508 207Q508 152 479 111T404 41T306 -1T204 -16L173 -128H135L167 -13Q118 -8 78 6T12 31L47 230H76ZM355 138Q355 170 337 193T276 237L217 30Q283 29 318 59T355 138ZM215 504Q215 472 231
449T286 406L343 609H342Q310 609 287 601T247 578T223 544T215 504Z" />
<glyph unicode="%" glyph-name="percent" horiz-adv-x="865" d="M260 581Q243 581 226 561T196 509T175 439T167 364Q167 329 175 310T201 290Q218 290 235 310T265 363T287 433T295 506Q295 581 260 581ZM185 -50H140L671 629H720L185 -50ZM200 262Q131 262 93
303T55 408Q55 446 69 482T110 546T175 592T261 609Q293 609 319 599T365 569T395 523T406 464Q406 426 392 390T352 326T287 280T200 262ZM661 302Q644 302 627 282T597 231T576 161T568 86Q568 12 602 12Q619 12 636 32T666 85T688 155T696 228Q696 302 661 302ZM601
-17Q566 -17 539 -6T494 24T466 71T456 129Q456 167 470 203T511 268T576 314T662 331Q694 331 720 320T766 290T796 244T807 186Q807 148 793 112T752 47T687 1T601 -17Z" />
<glyph unicode="&amp;" glyph-name="ampersand" horiz-adv-x="913" d="M615 411Q585 431 560 445T508 459Q488 459 477 447T465 418Q465 393 484 374T528 336Q514 312 496 295T457 277Q452 277 444 279T428 288T413 310T407 350Q407 380 422 417T463 488T524 543T598
566Q614 566 627 563T652 553T677 539T705 521Q744 496 768 481T807 456T830 445T848 442Q864 442 871 455T879 486Q878 509 868 537T835 599Q849 608 862 614T892 620Q915 619 930 606T945 563Q945 527 929 488T887 415T829 360T766 338Q737 338 715 348T663 379Q649
274 618 197T540 68T434 -8T305 -34Q249 -34 202 -18T120 31T67 111T48 218Q48 284 70 343T128 447T206 518T288 544Q308 544 322 536T351 514L483 708L524 680L156 206Q183 164 229 140T336 116Q443 116 518 186T632 400L615 411ZM125 320Q125 274 140 238L273
414Q270 431 255 446T216 461Q198 461 182 451T153 423T133 378T125 320Z" />
<glyph unicode="&apos;" glyph-name="quotesingle" horiz-adv-x="235" d="M124 719H270L163 449H140L124 719Z" />
<glyph unicode="(" glyph-name="parenleft" horiz-adv-x="335" d="M204 -180Q170 -143 143 -99T96 -6T69 97T65 210Q68 284 93 356T161 496T258 623T378 732H429Q373 678 326 617T245 487T189 340T164 175Q159 124 162 78T175 -10T204 -95T249 -180H204Z" />
<glyph unicode=")" glyph-name="parenright" horiz-adv-x="335" d="M125 732Q159 694 186 651T232 558T259 455T263 342Q260 268 235 195T167 55T70 -72T-50 -180H-101Q-45 -126 2 -65T84 65T140 212T165 377Q169 428 167 474T154 562T125 646T79 732H125Z" />
<glyph unicode="*" glyph-name="asterisk" horiz-adv-x="393" d="M313 502L309 374L292 371L234 483L111 446L103 460L193 551L120 656L129 666L245 613L321 713L333 709L318 582L436 543L435 527L313 502Z" />
<glyph unicode="+" glyph-name="plus" horiz-adv-x="565" d="M304 224V12H254V224H42V271H254V483H304V271H516V224H304Z" />
<glyph unicode="," glyph-name="comma" horiz-adv-x="316" d="M-37 -148Q25 -116 64 -83T103 -7Q103 24 82 40T28 56Q25 78 30 96T46 128T75 149T112 156Q130 156 148 150T179 130T201 96T210 50Q210 20 197 -11T156 -71T83 -128T-25 -177L-37 -148Z" />
<glyph unicode="-" glyph-name="hyphen" horiz-adv-x="381" d="M82 328H331L314 239H65L82 328Z" />
<glyph unicode="." glyph-name="period" horiz-adv-x="289" d="M104 -14Q69 -14 45 10T20 69Q20 103 44 127T104 152Q139 152 163 128T187 69Q187 35 163 11T104 -14Z" />
<glyph unicode="/" glyph-name="slash" horiz-adv-x="417" d="M-99 -191L423 753L462 732L-62 -212L-99 -191Z" />
<glyph unicode="0" glyph-name="zero" horiz-adv-x="627" d="M359 500Q330 500 303 467T253 381T217 266T203 142Q203 82 217 49T267 16Q295 16 323 50T372 137T407 253T421 373Q421 439 405 469T359 500ZM263 -18Q209 -18 166 -1T93 48T46 123T30 218Q30 282
55 339T124 440T229 508T363 534Q414 534 456 517T530 468T578 395T595 302Q595 242 573 185T509 82T404 10T263 -18Z" />
<glyph unicode="1" glyph-name="one" horiz-adv-x="435" d="M274 52L376 34L370 0H-9L-3 34L110 52L184 429L60 427L67 463L365 532H369L274 52Z" />
<glyph unicode="2" glyph-name="two" horiz-adv-x="491" d="M158 120H449L416 0H1L8 46L125 141Q175 182 207 211T257 264T283 307T290 345Q290 382 266 404T206 426Q176 426 148 411T89 364L66 381Q77 407 94 434T137 484T195 521T270 536Q308 536 338 525T391
495T424 448T436 390Q436 357 425 330T392 277T335 227T254 174L158 120Z" />
<glyph unicode="3" glyph-name="three" horiz-adv-x="436" d="M-61 -200Q-6 -181 41 -157T122 -104T176 -41T196 31Q196 76 164 104T65 132H56L63 180L119 207Q147 220 171 234T214 266T243 303T254 350Q254 385 232 406T178 427Q152 427 125 416T62 368L38 385Q76
463 126 499T243 536Q279 536 307 526T356 497T386 455T397 403Q397 292 240 227L198 209Q269 201 313 166T358 65Q358 10 328 -35T244 -116T114 -180T-52 -230L-61 -200Z" />
<glyph unicode="4" glyph-name="four" horiz-adv-x="627" d="M286 16H-16L-6 77L484 530H540L458 126H584L562 16H436L395 -191H245L286 16ZM308 126L356 361L97 126H308Z" />
<glyph unicode="5" glyph-name="five" horiz-adv-x="410" d="M174 54Q174 107 146 154T47 252L142 516L405 531L379 391L126 381L123 374Q184 343 225 312T292 247T328 181T339 111Q339 50 312 -2T234 -97T111 -172T-50 -227L-60 -198Q-8 -176 35 -150T109 -92T157
-25T174 54Z" />
<glyph unicode="6" glyph-name="six" horiz-adv-x="605" d="M646 703Q521 652 423 575T268 396H269Q290 420 321 434T390 449Q431 449 464 435T520 395T557 335T570 259Q570 205 549 155T489 66T393 4T268 -19Q211 -19 167 -1T94 49T49 124T33 216Q33 286 59 349T130
465T234 563T361 640T499 696T637 730L646 703ZM317 389Q298 389 281 381T249 359Q203 259 203 147Q203 75 219 45T269 15Q297 15 320 40T358 102T382 182T391 263Q391 287 387 310T374 350T351 378T317 389Z" />
<glyph unicode="7" glyph-name="seven" horiz-adv-x="519" d="M-17 -176L395 365H59L90 516H540V510L132 -70L40 -211L-17 -176Z" />
<glyph unicode="8" glyph-name="eight" horiz-adv-x="549" d="M14 136Q14 176 31 206T76 258T137 297T202 324Q154 372 134 409T113 491Q113 528 129 562T175 624T250 667T350 683Q403 683 441 672T504 643T541 601T553 551Q553 519 540 494T503 447T449 407T384
372L404 353Q425 332 442 313T472 275T491 233T498 184Q498 140 476 103T418 39T334 -3T237 -19Q190 -19 149 -11T78 17T31 65T14 136ZM222 305Q195 280 176 240T156 146Q156 91 181 56T254 21Q271 21 288 26T319 44T341 74T350 118Q350 136 346 151T332 183T307
217T268 259L222 305ZM257 554Q257 515 274 489T321 433L362 393Q392 428 408 462T425 540Q425 585 403 617T342 649Q304 649 281 623T257 554Z" />
<glyph unicode="9" glyph-name="nine" horiz-adv-x="608" d="M-48 -180Q83 -118 179 -46T333 117H328Q311 98 284 84T218 70Q180 70 147 84T89 124T50 187T36 272Q36 321 57 368T117 453T212 512T340 535Q393 535 436 518T510 471T557 397T574 303Q574 236 550
176T484 64T383 -33T256 -112T113 -171T-39 -208L-48 -180ZM289 124Q308 124 324 133T355 157Q379 206 391 259T404 374Q404 440 390 471T341 503Q312 503 289 479T249 418T224 338T215 255Q215 228 219 204T232 162T255 134T289 124Z" />
<glyph unicode=":" glyph-name="colon" horiz-adv-x="289" d="M103 -14Q69 -14 45 10T20 69Q20 103 44 127T103 152Q138 152 162 128T187 69Q187 35 163 11T103 -14ZM174 329Q140 329 116 353T91 413Q91 447 115 471T174 496Q209 496 233 472T258 413Q258 378
234 354T174 329Z" />
<glyph unicode=";" glyph-name="semicolon" horiz-adv-x="308" d="M179 329Q145 329 121 353T97 413Q97 447 121 471T179 496Q197 496 212 490T239 472T257 445T264 413Q264 396 258 381T240 354T213 336T179 329ZM-39 -148Q23 -116 62 -83T101 -7Q101 24 80 40T26
56Q23 78 28 96T44 128T73 149T110 156Q128 156 146 150T177 130T199 96T208 50Q208 20 195 -11T154 -71T81 -128T-27 -177L-39 -148Z" />
<glyph unicode="&lt;" glyph-name="less" horiz-adv-x="579" d="M122 247L526 60V8L53 231V264L526 486V434L122 247Z" />
<glyph unicode="=" glyph-name="equal" horiz-adv-x="565" d="M48 297V343H522V297H48ZM48 156V202H522V156H48Z" />
<glyph unicode="&gt;" glyph-name="greater" horiz-adv-x="579" d="M456 247L53 434V486L526 263V230L53 8V60L456 247Z" />
<glyph unicode="?" glyph-name="question" horiz-adv-x="430" d="M157 714L214 697Q257 685 295 663T362 611T407 541T424 456Q424 414 412 385T378 335T330 302T271 284L147 259L124 202H89L118 381L296 408Q341 415 360 427T379 459Q379 494 325 516T167 551L125
555L157 714ZM83 -14Q49 -14 24 10T-1 69Q-1 103 24 127T83 152Q101 152 116 146T142 128T160 101T167 69Q167 52 161 37T143 11T116 -7T83 -14Z" />
<glyph unicode="@" glyph-name="at" horiz-adv-x="954" d="M509 185H505L481 148Q447 96 407 61T325 26Q287 26 265 51T243 118Q243 175 269 235T336 344T430 425T534 457Q548 457 564 453T594 444L608 477H711L634 186Q626 154 626 132T631 97T648 78T677 72Q702
72 731 90T786 142T828 227T845 342Q845 403 824 454T764 544T673 603T555 625Q480 625 406 594T271 504T174 361T136 171Q136 96 160 39T228 -58T330 -117T457 -138Q516 -138 560 -127T623 -108V-128Q612 -134 590 -142T540 -158T481 -171T419 -177Q338 -177 268
-157T147 -95T67 7T37 150Q37 260 86 353T214 515T391 623T589 662Q665 662 727 639T832 576T899 480T923 361Q923 292 897 230T826 122T723 48T601 21Q538 21 511 56T500 152L509 185ZM406 122Q418 122 437 140T475 187T513 253T544 328L567 402Q547 427 526 427Q500
427 475 400T430 331T397 242T385 153Q385 136 391 129T406 122Z" />
<glyph unicode="A" glyph-name="A" horiz-adv-x="717" d="M-40 35L29 53L402 669L445 677L502 687L598 55L661 34L653 0H336L343 35L425 54L403 219H187L94 57L195 34L188 0H-47L-40 35ZM217 271H396L362 522L217 271Z" />
<glyph unicode="B" glyph-name="B" horiz-adv-x="649" d="M-31 0L-24 35L54 54L165 609L92 630L99 664L362 666Q437 667 486 655T566 623T608 576T620 522Q620 483 602 454T552 403T479 369T392 351V347Q499 341 553 299T608 198Q608 147 584 109T514 47T406 10T264
-1L-31 0ZM440 181Q440 245 397 282T277 326L231 93Q231 61 252 47T303 33Q327 33 351 43T395 73T427 120T440 181ZM284 363L338 365Q392 373 427 412T463 512Q463 566 430 599T338 637L284 363Z" />
<glyph unicode="C" glyph-name="C" horiz-adv-x="724" d="M383 -18Q309 -18 248 1T141 59T71 152T46 279Q46 365 85 439T191 567T343 652T525 683Q587 683 637 666T725 628L691 438H667L631 591Q603 618 575 630T509 643Q462 643 415 617T329 541T265 417T240
251Q240 199 253 157T289 85T343 39T410 23Q444 23 470 33T517 59L631 234H659L605 27Q565 12 508 -3T383 -18Z" />
<glyph unicode="D" glyph-name="D" horiz-adv-x="769" d="M224 55Q235 49 255 44T299 38Q360 38 409 67T493 142T546 249T565 373Q565 437 548 484T501 564T429 613T338 634L224 55ZM-24 35L54 54L165 609L92 630L99 664L358 666Q446 666 518 647T641 590T721
500T749 378Q749 287 708 216T596 95T431 20T228 -4L-31 0L-24 35Z" />
<glyph unicode="E" glyph-name="E" horiz-adv-x="628" d="M281 327L225 54Q233 49 248 44T286 39H412L547 231H581L513 0H-31L-24 35L54 54L165 609L92 630L99 664H554L636 665L600 467H568L527 625H339L288 366H382L436 468H469L420 216H383L373 327H281Z" />
<glyph unicode="F" glyph-name="F" horiz-adv-x="590" d="M278 311L226 54L320 34L315 0H-31L-24 35L54 54L165 609L92 630L99 664H525L621 665L586 456H553L515 625H339L286 355H381L435 461H469L418 202H382L372 311H278Z" />
<glyph unicode="G" glyph-name="G" horiz-adv-x="760" d="M236 259Q236 204 247 161T278 87T325 40T386 24Q423 24 451 42T488 100L517 255L418 274L426 312H745L737 274L680 255L639 42Q576 17 503 -1T355 -19Q288 -19 232 5T134 70T69 167T46 286Q46 370 82
442T181 568T332 652T524 683Q590 683 638 668T735 632L697 438H671L634 596Q615 616 586 629T516 643Q470 643 421 619T330 546T263 426T236 259Z" />
<glyph unicode="H" glyph-name="H" horiz-adv-x="796" d="M406 35L483 54L535 318H278L226 54L292 34L286 0H-31L-24 35L54 54L164 609L92 630L98 664H416L409 629L335 609L287 367H544L593 610L525 630L532 664H850L843 629L764 610L654 54L726 34L719 0H400L406 35Z" />
<glyph unicode="I" glyph-name="I" horiz-adv-x="367" d="M-24 35L54 54L165 609L92 630L99 664H421L414 629L336 610L225 54L297 34L290 0H-31L-24 35Z" />
<glyph unicode="J" glyph-name="J" horiz-adv-x="372" d="M233 72Q221 10 197 -38T134 -121T37 -178T-99 -211L-106 -186Q-63 -161 -35 -136T11 -83T40 -22T59 52L170 610L92 630L98 664H425L418 629L340 610L233 72Z" />
<glyph unicode="K" glyph-name="K" horiz-adv-x="722" d="M-24 35L54 54L164 609L92 630L99 664H424L417 629L336 610L226 56L292 34L287 0H-31L-24 35ZM681 0Q619 -6 576 -8T500 -2T444 28T398 90T350 192T289 345V347L604 610L525 629L530 664H758L751 629L670
610L431 415Q465 330 491 270T538 170T577 106T611 67T647 46T687 33L681 0Z" />
<glyph unicode="L" glyph-name="L" horiz-adv-x="587" d="M224 53Q234 47 249 43T285 38H383L530 258H566L489 0H-31L-24 35L54 54L164 609L92 630L99 664H424L417 629L336 609L224 53Z" />
<glyph unicode="M" glyph-name="M" horiz-adv-x="924" d="M-32 35L49 54L196 605L120 630L127 664H376L462 256L690 631L704 664H951L944 629L866 610L790 54L861 34L855 0H538L545 35L622 54L690 552L430 126L374 25H339L324 124L228 556L103 56L200 35L194 0H-39L-32
35Z" />
<glyph unicode="N" glyph-name="N" horiz-adv-x="715" d="M487 -3L194 515L111 57L204 34L198 0H-31L-24 35L55 54L157 574Q145 593 128 605T97 623L80 630L87 664H303L559 215L627 607L535 630L541 664H769L762 629L683 610L587 127L567 -3H487Z" />
<glyph unicode="O" glyph-name="O" horiz-adv-x="779" d="M461 684Q516 684 569 665T665 607T732 510T758 372Q758 301 729 231T645 106T513 16T341 -19Q286 -19 233 0T139 57T72 154T46 292Q46 363 75 433T159 559T290 649T461 684ZM571 453Q571 484 566 518T547
581T511 628T457 647Q406 647 365 609T295 510T249 371T233 215Q233 183 238 148T257 84T291 36T345 17Q380 17 410 34T465 83T510 155T543 245T564 347T571 453Z" />
<glyph unicode="P" glyph-name="P" horiz-adv-x="647" d="M307 309Q345 315 377 328T432 363T469 415T483 483Q483 546 445 585T337 635L224 54L308 34L302 0H-31L-24 35L54 54L164 609L92 630L99 664L378 667Q508 663 580 617T653 492Q653 438 625 397T550 329T438
289T302 279L307 309Z" />
<glyph unicode="Q" glyph-name="Q" horiz-adv-x="779" d="M461 684Q516 684 569 665T663 607T730 510T756 372Q756 312 735 253T675 144T580 55T454 -2Q491 -34 523 -60T589 -106T656 -135T730 -145Q764 -145 801 -136T886 -102L898 -124Q878 -141 853 -158T795
-189T722 -213T632 -222Q579 -222 533 -208T438 -164T335 -92T213 11Q178 27 148 52T96 112T61 192T48 292Q48 363 77 433T160 559T290 649T461 684ZM572 452Q572 484 567 518T548 581T512 628T458 647Q407 647 365 609T294 510T248 372T231 216Q231 184 236 149T255
84T290 36T345 17Q397 17 439 55T511 155T556 295T572 452Z" />
<glyph unicode="R" glyph-name="R" horiz-adv-x="714" d="M-24 35L54 54L164 609L92 630L99 664L372 666Q501 668 572 627T644 511Q644 445 595 405T467 344Q494 276 514 228T550 148T581 96T610 65T642 47T682 34L676 0Q615 -5 573 -7T500 -2T448 23T408 77T368
166T321 299H268L220 56L303 34L297 0H-31L-24 35ZM275 335Q378 343 428 387T478 503Q478 530 469 553T442 594T397 623T334 635L275 335Z" />
<glyph unicode="S" glyph-name="S" horiz-adv-x="560" d="M77 248L113 60Q136 42 162 32T221 22Q276 22 309 56T342 139Q342 173 325 201T256 262L212 290Q181 310 160 329T125 368T106 412T100 465Q100 506 120 545T177 616T267 666T386 685Q437 685 481 672T560
641L512 448H484L462 611Q439 628 417 636T368 645Q341 645 319 637T282 613T258 578T250 536Q250 500 267 473T329 420L394 381Q454 346 480 309T507 218Q507 159 478 115T404 40T308 -5T209 -21Q176 -21 146 -16T91 -3T45 13T10 30L47 248H77Z" />
<glyph unicode="T" glyph-name="T" horiz-adv-x="686" d="M634 664L723 666L678 457H649L620 619H495L384 54L470 34L464 0H112L119 35L213 54L324 619H203L109 457H79L119 666L207 664H634Z" />
<glyph unicode="U" glyph-name="U" horiz-adv-x="729" d="M340 -21Q269 -21 217 -3T132 53T91 148T96 286L160 609L89 630L95 664H420L413 629L331 609L260 245Q243 151 279 103T386 55Q424 55 457 67T516 105T562 173T591 275L648 606L558 629L563 664H793L786
629L707 609L645 274Q633 214 611 160T553 66T465 3T340 -21Z" />
<glyph unicode="V" glyph-name="V" horiz-adv-x="664" d="M138 610L78 630L85 664H394L387 629L313 609L374 169L607 609L526 630L533 664H732L725 629L665 611L314 -11H238L138 610Z" />
<glyph unicode="W" glyph-name="W" horiz-adv-x="989" d="M531 402L296 -11H218L143 609L82 629L88 664H390L383 629L316 607L359 173L522 471L504 610L452 630L459 664H755L749 629L675 609L724 184L931 609L857 630L863 664H1054L1047 629L987 611L664 -11H585L531
402Z" />
<glyph unicode="X" glyph-name="X" horiz-adv-x="718" d="M48 52L295 309L169 610L98 630L106 664H439L432 629L353 610L429 415H432L603 607L521 630L528 664H755L747 629L668 608L445 373L578 54L656 34L648 0H308L315 35L395 54L313 265H311L119 54L204 34L196
0H-41L-33 35L48 52Z" />
<glyph unicode="Y" glyph-name="Y" horiz-adv-x="684" d="M428 260L387 54L462 33L455 0H128L135 34L217 54L255 245L141 609L80 630L87 664H420L412 629L324 610L408 299L618 608L531 630L538 664H744L737 629L677 610L428 260Z" />
<glyph unicode="Z" glyph-name="Z" horiz-adv-x="667" d="M2 35L439 619H206L105 445H75L110 665L207 664H666V653L206 45H470L605 229H636L565 -1L466 0H-6L2 35Z" />
<glyph unicode="[" glyph-name="bracketleft" horiz-adv-x="323" d="M7 -181L187 733H399L390 691H291L130 -139H229L219 -181H7Z" />
<glyph unicode="\" glyph-name="backslash" horiz-adv-x="440" d="M329 -212L116 744L159 753L370 -204L329 -212Z" />
<glyph unicode="]" glyph-name="bracketright" horiz-adv-x="320" d="M315 733L135 -181H-76L-66 -139H31L192 691H94L103 733H315Z" />
<glyph unicode="^" glyph-name="asciicircum" horiz-adv-x="468" d="M75 468L295 756H335L459 468H411L301 678L125 468H75Z" />
<glyph unicode="_" glyph-name="underscore" horiz-adv-x="408" d="M-66 -171H313L304 -223H-76L-66 -171Z" />
<glyph unicode="`" glyph-name="grave" horiz-adv-x="271" d="M266 769L295 573H265L147 761V769H266Z" />
<glyph unicode="a" glyph-name="a" horiz-adv-x="583" d="M562 524L453 111H457Q478 128 499 153T540 205L568 193Q520 97 460 42T340 -13Q322 -13 310 -5T293 18T287 49T295 86L338 207H331Q310 172 284 133T228 60T164 5T97 -17Q79 -17 62 -11T32 8T11 43T3
96Q3 137 16 182T54 273T112 358T185 430T269 479T360 498Q377 498 393 495T424 485L443 524H562ZM188 95Q203 95 228 120T280 189T335 287T381 403L391 436Q381 447 369 454T343 461Q311 461 280 428T223 346T183 241T166 139Q165 112 172 104T188 95Z" />
<glyph unicode="b" glyph-name="b" horiz-adv-x="551" d="M187 -20Q144 -20 97 -6T11 40L0 50L141 627L69 684L73 700L320 751L205 289H211Q265 390 325 448T445 507Q465 507 483 499T514 474T535 432T543 372Q542 310 518 241T447 114T336 18T187 -20ZM149 55Q151
39 164 27T196 14Q218 14 240 30T282 74T319 137T350 208T370 280T378 343Q379 374 372 385T353 396Q339 396 322 381T286 340T249 284T214 221T186 161T167 113L149 55Z" />
<glyph unicode="c" glyph-name="c" horiz-adv-x="458" d="M281 449Q261 449 243 423T211 357T189 267T180 172Q180 124 195 105T234 85Q251 85 270 95T309 122T350 161T390 209L417 194Q391 146 364 108T306 41T239 -2T158 -17Q127 -17 101 -6T55 27T25 78T14
145Q14 219 50 294T168 432Q214 467 267 487T369 508Q390 508 407 501T438 483T459 458T467 430Q467 405 449 379T396 334Q364 383 333 416T281 449Z" />
<glyph unicode="d" glyph-name="d" horiz-adv-x="589" d="M342 505Q361 505 377 503T408 495L441 627L368 684L373 700L622 750L465 112H468Q489 129 511 154T551 205L579 193Q529 94 469 42T355 -13Q319 -13 306 16T306 85L344 201H339Q321 169 296 131T241 60T175
5T103 -17Q85 -17 67 -10T36 13T14 55T6 119Q7 189 37 258T116 382T223 471T342 505ZM395 444Q372 470 346 470Q313 470 282 438T226 356T186 248T169 138Q168 115 175 103T193 91Q209 91 236 118T291 188T344 283T381 386L395 444Z" />
<glyph unicode="e" glyph-name="e" horiz-adv-x="459" d="M165 -17Q91 -17 52 26T14 151Q16 232 58 304T167 429Q270 508 369 508Q387 508 404 504T434 489T455 464T463 428Q463 389 437 357T369 299T276 255T173 224Q172 219 172 214T172 203Q171 140 193 113T247
86Q266 86 286 95T325 120T361 154T393 193L419 178Q404 146 380 112T322 49T250 2T165 -17ZM299 457Q281 457 262 441T226 396T196 332T176 255Q206 266 233 284T281 323T315 370T329 419Q329 436 322 446T299 457Z" />
<glyph unicode="f" glyph-name="f" horiz-adv-x="374" d="M37 494H135Q155 553 192 601T275 683T370 736T464 755Q489 755 509 749T542 732T563 708T571 681Q571 664 563 650T542 623T511 602T477 587Q454 642 435 674T390 707Q361 707 337 657T289 494H404L395
444H280L219 124Q200 23 161 -47T76 -160T-20 -223T-107 -243Q-142 -243 -166 -225T-191 -177Q-191 -147 -168 -123T-101 -88Q-83 -137 -64 -162T-28 -187Q-19 -187 -13 -182T0 -164T12 -129T24 -74L122 444H28L37 494Z" />
<glyph unicode="g" glyph-name="g" horiz-adv-x="507" d="M280 504Q306 504 329 499T376 488L534 503L528 431L417 446L416 441Q428 428 437 406T446 355Q446 320 430 286T385 224T314 180T218 163Q203 163 189 164T162 169Q146 159 146 143Q146 132 154 124T190
107L350 51Q404 33 425 7T446 -52Q446 -95 420 -130T352 -191T255 -229T141 -243Q85 -243 45 -234T-22 -210T-60 -174T-73 -130Q-72 -88 -30 -63T85 -25V-22Q57 -11 36 11T15 66Q15 86 22 101T44 128T79 152T126 178V182Q88 199 66 231T44 309Q45 346 60 381T105
443T178 487T280 504ZM117 -33Q93 -41 75 -58T56 -105Q56 -127 66 -144T96 -174T142 -192T201 -199Q227 -199 251 -194T293 -179T322 -158T333 -131Q333 -117 321 -106T281 -86L117 -33ZM285 469Q266 469 247 447T211 391T185 317T175 242Q174 218 180 206T203
193Q223 193 243 215T278 270T304 343T315 419Q315 437 309 453T285 469Z" />
<glyph unicode="h" glyph-name="h" horiz-adv-x="583" d="M215 284H225Q247 327 274 367T332 439T396 488T464 507Q504 507 525 480T530 388L458 112H462Q482 129 503 154T545 205L572 193Q521 95 461 41T343 -13Q330 -13 318 -8T299 10T289 40T294 86L371 365Q378
394 362 394Q348 394 323 367T268 294T210 189T164 67L148 13L11 -16L-4 -1L151 627L82 684L87 700L330 751L215 284Z" />
<glyph unicode="i" glyph-name="i" horiz-adv-x="308" d="M108 403Q102 407 92 410T70 415T44 417T20 414L23 434Q37 447 56 460T96 484T142 501T193 508Q210 508 225 502T251 482T263 445T257 385L185 112H190Q210 129 231 154T272 205L300 193Q276 146 249 108T193
43T133 2T72 -13Q58 -13 46 -8T27 10T17 40T22 86L108 403ZM141 663Q141 696 164 720T221 744Q255 744 279 720T303 663Q303 629 279 606T221 582Q187 582 164 605T141 663Z" />
<glyph unicode="j" glyph-name="j" horiz-adv-x="291" d="M111 402Q98 411 72 415T22 414L25 434Q39 447 57 460T97 484T143 501T193 508Q210 508 225 502T251 482T264 443T259 382L191 90Q173 12 140 -50T64 -155T-28 -222T-126 -245Q-143 -245 -158 -240T-186
-226T-207 -204T-215 -175Q-217 -142 -193 -121T-127 -88Q-107 -139 -94 -163T-61 -187Q-48 -187 -37 -167T-15 -111T6 -29T30 71L111 402ZM143 663Q143 696 166 720T223 744Q257 744 280 720T304 663Q304 629 280 606T222 582Q189 582 166 605T143 663Z" />
<glyph unicode="k" glyph-name="k" horiz-adv-x="551" d="M427 -40Q402 -40 383 -36T347 -20T315 9T281 56L202 178Q175 120 159 61L146 12L11 -16L-4 -1L151 627L81 684L87 700L330 751L215 285H223Q244 327 269 366T325 437T388 488T457 507Q491 507 516 485T541
419Q541 369 496 320T342 218L505 -6L504 -21Q493 -27 475 -33T427 -40ZM387 400Q369 400 346 383T299 336T250 267T205 185Q316 234 367 279T419 364Q419 381 411 390T387 400Z" />
<glyph unicode="l" glyph-name="l" horiz-adv-x="295" d="M288 193Q237 91 176 39T60 -13Q46 -13 34 -8T15 10T6 40T10 86L145 627L73 684L77 700L327 751L173 112H178Q200 130 220 154T260 205L288 193Z" />
<glyph unicode="m" glyph-name="m" horiz-adv-x="870" d="M108 404Q98 412 73 415T20 414L24 434Q37 447 55 460T93 484T134 501T177 508Q199 508 217 500T245 476T257 434T249 375L217 271H226Q252 320 280 363T339 438T403 488T471 507Q491 507 507 500T532
478T542 438T532 380L494 268H503Q530 319 559 362T619 438T683 488T752 507Q792 507 812 479T817 387L745 112H749Q769 129 791 154T832 205L860 193Q810 96 751 42T632 -13Q619 -13 607 -8T587 10T577 40T582 86L658 365Q666 394 650 394Q636 394 610 367T556
293T499 189T452 68L435 13L295 -16L280 -1L379 365Q385 394 370 394Q355 394 329 366T274 292T218 187T172 65L157 13L15 -16L0 -1L108 404Z" />
<glyph unicode="n" glyph-name="n" horiz-adv-x="591" d="M108 403Q97 411 73 415T20 414L24 434Q37 447 55 460T93 484T134 501T177 508Q199 508 217 500T245 476T257 434T249 375L217 271H226Q252 320 280 363T339 438T403 488T472 507Q512 507 533 479T538
387L465 112H470Q490 129 511 154T553 205L580 193Q532 98 472 43T352 -13Q339 -13 327 -8T307 10T297 40T302 86L379 365Q386 394 370 394Q356 394 330 367T276 293T219 189T172 67L156 13L15 -16L0 -1L108 403Z" />
<glyph unicode="o" glyph-name="o" horiz-adv-x="550" d="M327 474Q308 474 291 456T257 408T228 340T204 261T188 182T182 111Q181 63 188 40T218 16Q246 16 272 53T320 145T354 261T368 373Q368 394 367 412T361 444T348 466T327 474ZM336 506Q383 506 419 490T479
445T516 380T529 302Q529 247 510 191T450 88T351 13T212 -16Q165 -16 129 -1T69 41T32 106T19 190Q19 240 37 295T95 398T194 475T336 506Z" />
<glyph unicode="p" glyph-name="p" horiz-adv-x="559" d="M96 358L20 316L4 347Q30 365 56 382T110 415L141 545H268L255 483Q288 495 319 501T379 508Q450 508 495 471T540 360Q540 292 512 225T437 104T333 17T214 -17Q200 -17 187 -15T161 -8L122 -166L244
-179L236 -219H-98L-92 -185L-29 -165L96 358ZM215 23Q235 23 255 38T293 80T326 140T353 210T371 283T378 351Q379 396 363 420T311 444Q297 444 271 436L173 40Q193 23 215 23Z" />
<glyph unicode="q" glyph-name="q" horiz-adv-x="565" d="M296 63Q302 90 309 114T323 159Q331 181 339 201H333Q316 169 291 131T236 60T170 5T98 -17Q80 -17 62 -10T31 12T9 53T1 114Q2 189 32 258T109 381T217 467T339 500Q365 500 384 493T419 475L446 506H559L392
-166L473 -180L467 -219H138L145 -184L241 -166L296 63ZM187 91Q203 91 230 118T285 188T337 283T374 386L386 437Q362 467 335 467Q305 467 275 435T221 355T181 250T164 144Q164 91 187 91Z" />
<glyph unicode="r" glyph-name="r" horiz-adv-x="473" d="M31 118Q34 127 38 144T49 184T61 231T74 280Q89 337 107 404Q100 409 76 415T19 415L22 434Q53 466 96 487T179 508Q198 508 215 501T244 479T257 440T247 381L196 226H207Q243 311 272 365T326 451T375
495T422 508Q456 508 473 491T491 445Q491 418 479 397T450 361T413 337T376 324H354Q365 353 367 371T357 389Q344 389 321 361T273 289T222 191T180 84L156 13L14 -16L0 -1L31 118Z" />
<glyph unicode="s" glyph-name="s" horiz-adv-x="391" d="M346 162Q346 130 327 98T277 40T205 -2T120 -18Q92 -18 68 -9T25 15T-3 50T-14 92Q-14 112 -4 133T28 178H31Q48 151 69 126T113 81T158 49T200 37Q214 37 224 46T235 71Q235 86 224 101T190 140L109
219Q92 236 81 249T63 275T54 299T52 323Q52 358 72 391T125 451T196 494T275 510Q299 510 320 503T356 483T381 454T391 418Q390 394 379 375T347 330H344Q327 354 307 375T267 413T228 438T192 447Q178 447 168 438T158 416Q158 401 169 388T209 346L276 281Q297
261 310 245T332 215T343 188T346 162Z" />
<glyph unicode="t" glyph-name="t" horiz-adv-x="386" d="M31 481L139 501L226 631H309L279 494H406L397 442H271L191 102H195Q215 115 235 134T274 173T308 212T333 246L361 226Q337 186 308 144T245 67T171 10T87 -13Q72 -13 60 -7T39 12T29 41T31 80L117 442H26L31
481Z" />
<glyph unicode="u" glyph-name="u" horiz-adv-x="586" d="M105 403Q99 407 89 410T67 415T42 417T18 414L21 433Q50 460 93 484T189 508Q207 508 221 501T245 477T255 436T248 376L185 126Q181 110 184 106T192 101Q207 101 233 130T288 205T344 308T387 421L404
482L546 507L559 493L460 112H464Q484 129 505 154T547 205L574 193Q525 97 465 42T347 -13Q333 -13 321 -8T303 10T296 41T305 89L362 259H355Q334 219 308 172T250 83T178 14T92 -14Q51 -14 31 15T28 113L105 403Z" />
<glyph unicode="v" glyph-name="v" horiz-adv-x="484" d="M243 116Q280 164 305 201T346 267T369 319T376 362Q376 390 361 404T320 419Q309 419 298 418T282 414L286 434Q317 468 349 488T414 508Q455 508 473 484T491 426Q491 391 473 356T423 281T351 196T264
99L166 -14H157L102 9L78 405Q67 410 52 413T23 417Q9 417 -4 414L1 433Q16 449 34 462T72 486T111 501T148 507Q186 507 206 487T228 411L243 116Z" />
<glyph unicode="w" glyph-name="w" horiz-adv-x="744" d="M495 108H497Q533 154 558 191T601 258T626 313T634 362Q634 390 621 404T584 419Q575 419 565 418T544 414L548 434Q578 468 610 488T673 508Q714 508 732 484T750 425Q750 390 732 355T683 280T611 196T524
98L426 -14H417L353 9V199H351Q339 186 328 173T301 142T268 103T224 51L170 -14H158L97 9L89 399Q78 409 60 413T23 417Q9 417 -4 414L1 433Q33 467 74 487T150 507Q232 507 234 411L238 113H241Q269 146 297 181T349 251L347 405Q326 417 297 417Q282 417 269
414L273 433Q304 467 343 487T418 507Q431 507 445 504T470 489T488 457T496 401L495 108Z" />
<glyph unicode="x" glyph-name="x" horiz-adv-x="549" d="M319 -15Q307 -15 296 -13T274 -3T256 16T242 49L213 163L198 136Q176 99 158 70T120 22T81 -8T35 -18Q6 -18 -16 2T-38 57Q-38 76 -33 91T-21 118Q-13 131 -3 141L23 119Q66 81 104 98T188 179L204 202L171
335Q162 369 154 382T132 395Q118 395 103 368T72 267H41Q45 331 60 376T97 450T146 492T203 506Q247 506 271 479T311 394L327 330L354 381Q392 453 423 481T490 509Q519 509 539 489T559 431Q559 389 532 358T471 307H439Q464 350 460 376T436 403Q416 403 396
377T347 307L336 291L384 98H389Q412 110 442 143T500 216L528 204Q503 154 476 114T421 45T367 1T319 -15Z" />
<glyph unicode="y" glyph-name="y" horiz-adv-x="512" d="M6 249Q9 317 22 365T56 444T104 489T164 504Q191 504 215 489T259 439T290 350T302 216Q303 156 297 104T279 6H287Q314 48 337 88T378 169T405 249T415 332Q415 371 403 410T364 483Q382 495 402 502T442
509Q454 509 466 505T487 490T503 462T510 420Q510 367 485 297T417 153T318 8T201 -119T78 -209T-40 -243Q-77 -243 -103 -222T-129 -159Q-130 -129 -109 -105T-51 -80Q15 -80 39 -185H45Q75 -169 96 -135T131 -55T151 43T158 148Q158 203 154 248T141 326T121
376T98 394Q79 394 65 359T35 249H6Z" />
<glyph unicode="z" glyph-name="z" horiz-adv-x="516" d="M542 466L199 171L251 147Q296 126 327 121T383 123T427 154T468 210L495 197Q471 137 447 96T397 30T343 -7T281 -19Q259 -19 234 -10T167 22L79 67L17 -14L-26 27L324 328L202 376Q157 394 129 397T98
381Q96 367 114 354T180 325Q166 288 142 269T88 249Q56 249 40 267T23 313Q23 342 43 376T95 441T166 491T243 512Q257 512 270 510T299 502T339 485T399 455L442 433L495 508L542 466Z" />
<glyph unicode="{" glyph-name="braceleft" horiz-adv-x="327" d="M101 278Q134 275 155 267T188 244T201 204T196 143L160 -36Q153 -70 153 -91T163 -125T190 -143T235 -148L229 -181L212 -182Q155 -184 119 -173T64 -138T44 -79T54 2L102 181Q113 223 103 241T62
260L23 261L31 302L70 303Q102 304 118 321T140 376L163 564Q168 604 183 636T226 691T294 725T391 734L407 733L401 701Q374 701 354 696T321 679T298 644T283 588L250 412Q243 378 232 354T204 315T162 292T102 282L101 278Z" />
<glyph unicode="|" glyph-name="bar" horiz-adv-x="235" d="M1 -208L190 745H235L46 -208H1Z" />
<glyph unicode="}" glyph-name="braceright" horiz-adv-x="327" d="M224 274Q191 277 170 285T137 308T124 348T129 409L165 588Q172 622 172 643T162 677T136 695T90 700L97 733L113 734Q170 736 206 725T261 690T282 631T272 551L223 371Q212 329 222 311T263
292L302 291L294 250L255 249Q223 248 207 231T185 176L162 -12Q157 -52 142 -84T99 -139T31 -173T-66 -182L-82 -181L-76 -149Q-49 -149 -29 -144T5 -127T28 -92T43 -36L76 140Q82 174 92 198T120 237T163 260T223 270L224 274Z" />
<glyph unicode="~" glyph-name="asciitilde" horiz-adv-x="511" d="M11 201L20 226Q38 277 61 306T112 348T171 359T238 345L312 321Q348 309 371 305T413 304T446 323T480 365L505 354L496 328Q460 234 407 203T271 199L214 218Q172 232 146 239T100 244T67 228T36
189L11 201Z" />
<glyph unicode="&#xa0;" glyph-name="uni00A0" horiz-adv-x="161" />
<glyph unicode="&#xa1;" glyph-name="exclamdown" horiz-adv-x="303" d="M-11 -118L165 390H194L175 -118H-11ZM198 605Q232 605 257 581T282 523Q282 505 275 490T257 464T230 446T198 439Q181 439 166 445T139 463T121 490T114 523Q114 557 138 581T198 605Z" />
<glyph unicode="&#xa2;" glyph-name="cent" horiz-adv-x="490" d="M180 -17Q148 -17 121 -6T72 28T39 82T27 155Q27 202 41 246T81 331T142 404T219 464Q243 478 272 489T331 506L363 616H400L369 508Q392 507 412 500T448 482T472 455T481 422Q481 407 475 396T458
376T436 361T413 351Q394 389 380 412T351 447L245 76Q263 76 281 82T318 105T360 146T411 210L436 194Q418 158 398 124T351 61T293 13T219 -14L187 -127H149L180 -17ZM318 459Q293 459 269 437T226 378T195 290T183 183Q182 146 189 123T211 88L318 459Z" />
<glyph unicode="&#xa3;" glyph-name="sterling" horiz-adv-x="692" d="M115 309H241L254 367Q269 437 305 490T387 579T481 633T567 652Q591 652 612 645T648 625T673 598T682 566Q682 533 652 514T580 488Q558 606 512 606Q486 606 470 578T439 486L400 309H576L565
260H387Q373 219 352 185T306 123T252 74T195 37Q219 24 241 11T282 -14L326 -41Q372 -70 402 -89T453 -119T487 -135T512 -140Q544 -140 554 -103T548 11Q599 16 627 4T656 -40Q656 -66 635 -95T581 -148T505 -189T420 -206Q354 -206 292 -161T166 -44L123 3Q95
-7 72 -11T35 -16Q6 -16 -12 -3T-31 37Q-31 63 -11 78T38 93Q61 93 90 84T151 59Q171 82 188 118T220 214L230 260H105L115 309Z" />
<glyph unicode="&#xa5;" glyph-name="yen" horiz-adv-x="627" d="M60 295H223L121 582L70 602L76 637H377L370 602L294 586L373 315H376L566 581L478 602L485 637H684L678 602L626 583L409 295H581L574 258H393L378 181H558L551 144H370L352 53L437 33L430 0H96L103
34L191 52L209 144H30L37 181H217L232 258H52L60 295Z" />
<glyph unicode="&#xa6;" glyph-name="brokenbar" horiz-adv-x="236" d="M105 313L190 745H235L149 313H105ZM1 -208L87 224H131L46 -208H1Z" />
<glyph unicode="&#xa7;" glyph-name="section" horiz-adv-x="520" d="M249 -104Q249 -90 244 -76T228 -42T202 4T165 70L129 136Q111 169 99 196T78 246T66 289T62 330Q62 381 82 425T135 507T209 574T294 624T378 655T451 666Q497 666 519 644T542 593Q542 567
526 549T481 523Q465 535 446 548Q429 559 408 571T362 595Q323 595 286 581Q281 568 281 552Q281 538 286 524T303 490T330 443T367 377L403 311Q439 245 453 201T468 119Q468 68 448 24T396 -58T322 -125T237 -175T152 -206T79 -217Q33 -217 11 -195T-12 -144Q-12
-119 4 -100T49 -74Q65 -87 84 -99Q101 -110 122 -122T168 -145Q209 -145 244 -132Q249 -119 249 -104ZM170 397Q170 358 182 323T215 244L259 152Q286 96 301 57T317 -15Q317 -44 309 -64T292 -102H296Q325 -78 342 -40T360 52Q360 90 349 124T316 203L272 295Q246
350 229 389T212 464Q212 493 220 513T238 551H234Q205 526 188 488T170 397Z" />
<glyph unicode="&#xa8;" glyph-name="dieresis" horiz-adv-x="400" d="M171 590Q141 590 119 611T97 663Q97 693 119 715T171 737Q201 737 223 715T245 663Q245 632 223 611T171 590ZM375 590Q346 590 325 611T303 663Q303 693 324 715T375 737Q405 737 427 715T450
663Q450 632 428 611T375 590Z" />
<glyph unicode="&#xa9;" glyph-name="copyright" horiz-adv-x="772" d="M49 335Q52 408 81 472T160 583T275 658T414 685Q487 685 549 658T658 584T729 472T751 335Q748 261 718 197T639 86T524 11T385 -16Q311 -16 249 11T141 85T71 196T49 335ZM82 335Q79 269
102 211T166 109T265 40T388 14Q453 14 511 39T615 107T688 209T719 335Q721 402 698 460T633 561T535 630T413 655Q348 655 289 630T185 562T112 460T82 335ZM395 134Q347 134 309 147T246 184T208 240T196 311Q197 362 220 403T281 473T367 517T467 533Q502 533
534 523T589 502L572 394H548L526 473Q500 504 459 504Q434 504 410 490T367 449T336 384T322 296Q320 235 345 200T412 165Q445 165 471 183L532 279H556L528 162Q502 152 469 143T395 134Z" />
<glyph unicode="&#xaa;" glyph-name="ordfeminine" horiz-adv-x="501" d="M484 656L402 345H406Q424 356 443 378T479 421L502 407Q483 372 461 342T415 290T366 255T315 242Q303 242 293 246T276 262T270 290T277 333L296 393H293Q277 368 258 341T215 290T166
252T113 237Q80 237 61 259T42 322Q42 382 69 439T137 541T227 613T323 641Q335 641 349 638T375 631L386 656H484ZM194 335Q206 335 224 350T260 391T294 447T320 512L344 589Q335 597 325 603T303 609Q283 609 261 583T221 518T190 436T177 358Q177 348 181 342T194
335Z" />
<glyph unicode="&#xab;" glyph-name="guillemotleft" horiz-adv-x="543" d="M298 390L147 225L230 49L202 29L27 209L31 233L277 414L298 390ZM505 390L354 225L437 49L409 29L234 209L238 233L484 414L505 390Z" />
<glyph unicode="&#xac;" glyph-name="logicalnot" horiz-adv-x="565" d="M514 271V68H464V224H40V271H514Z" />
<glyph unicode="&#xae;" glyph-name="registered" horiz-adv-x="485" d="M90 543Q90 588 107 627T155 695T225 741T311 758Q356 758 395 742T464 696T511 627T528 543Q528 498 511 459T463 390T393 345T308 328Q263 328 223 344T154 390T107 458T90 543ZM121 543Q121
503 135 469T175 409T235 368T309 353Q349 353 383 367T443 407T483 468T498 543Q498 583 484 617T444 677T384 717T309 732Q269 732 235 718T175 678T136 618T121 543ZM182 455L213 461L247 638L217 642L219 661H319Q350 661 370 656T403 642T421 623T427 603Q427
589 421 579T406 562T386 551T363 543Q378 513 388 495T406 468T422 456T441 452L438 438Q408 435 391 435T360 444T334 473T304 529H292L280 460L298 455L296 438H179L182 455ZM296 548H320Q343 551 353 566T364 596Q364 613 352 628T313 644L296 548Z" />
<glyph unicode="&#xaf;" glyph-name="macron" horiz-adv-x="400" d="M109 695H403L389 622H95L109 695Z" />
<glyph unicode="&#xb0;" glyph-name="degree" horiz-adv-x="319" d="M89 603Q89 630 99 654T128 696T171 724T224 735Q252 735 276 725T317 696T344 654T354 603Q354 575 344 551T315 509T272 481T220 470Q191 470 167 480T126 509T99 551T89 603ZM129 603Q129
561 155 533T222 504Q263 504 289 532T315 603Q315 645 289 673T222 702Q182 702 156 674T129 603Z" />
<glyph unicode="&#xb1;" glyph-name="plusminus" horiz-adv-x="565" d="M308 324V112H257V324H46V370H257V582H308V370H520V324H308ZM46 47H520V0H46V47Z" />
<glyph unicode="&#xb4;" glyph-name="acute" horiz-adv-x="271" d="M384 769V762L226 573H194L263 769H384Z" />
<glyph unicode="&#xb6;" glyph-name="paragraph" horiz-adv-x="567" d="M149 -209Q109 -209 77 -196T21 -161T-14 -108T-27 -43Q-27 -6 -14 23T22 73T73 105T130 116Q157 116 178 108T215 86T239 54T247 16Q247 -19 223 -44T159 -69Q149 -69 138 -66T118 -55T102
-35T96 -6Q119 6 139 21T171 51V57Q165 66 153 72T120 78Q103 78 85 71T52 49T28 13T18 -38Q18 -64 28 -87T55 -128T97 -156T151 -167Q211 -167 258 -125T325 11L445 622H393L317 233H268Q228 233 196 247T140 286T103 342T90 411Q90 466 113 512T173 592T258 645T352
664H598L591 629L514 610L399 28Q387 -37 362 -82T304 -155T231 -196T149 -209Z" />
<glyph unicode="&#xb7;" glyph-name="periodcentered" horiz-adv-x="298" d="M151 185Q133 185 118 192T90 211T71 238T64 271Q64 289 71 305T90 333T117 352T151 359Q187 359 212 333T238 271Q238 254 231 239T213 211T185 192T151 185Z" />
<glyph unicode="&#xb8;" glyph-name="cedilla" horiz-adv-x="271" d="M10 -225Q58 -210 91 -192T124 -144Q124 -124 110 -113T79 -97Q79 -96 90 -81T116 -45Q132 -23 152 6H186L149 -46Q188 -54 211 -72T235 -118Q235 -146 219 -167T173 -204T103 -231T15 -249L10 -225Z" />
<glyph unicode="&#xba;" glyph-name="ordmasculine" horiz-adv-x="471" d="M187 342Q186 307 194 288T219 269Q242 269 262 298T299 372T324 465T334 556Q334 582 328 603T301 624Q279 624 259 594T223 519T197 427T187 342ZM312 656Q346 656 375 643T424 608T456
556T468 492Q468 444 451 399T401 317T321 259T213 237Q140 237 97 282T54 402Q54 450 71 495T122 576T204 634T312 656Z" />
<glyph unicode="&#xbb;" glyph-name="guillemotright" horiz-adv-x="543" d="M25 53L176 219L93 394L121 414L296 234L292 210L46 29L25 53ZM231 53L382 219L299 394L327 414L502 234L498 210L252 29L231 53Z" />
<glyph unicode="&#xbc;" glyph-name="onequarter" horiz-adv-x="802" d="M230 320L289 309L286 285H26L31 309L107 320L162 586L81 582V607L290 669H303L230 320ZM91 -56L698 727L728 704L120 -81L91 -56ZM568 34L579 89H403L412 132L701 389L751 381L702 153H762L749
89H688L676 33L721 24L718 0H510L516 24L568 34ZM593 153L621 285L475 153H593Z" />
<glyph unicode="&#xbd;" glyph-name="onehalf" horiz-adv-x="833" d="M91 -56L698 727L728 704L120 -81L91 -56ZM230 320L289 309L286 285H26L31 309L107 320L162 586L81 582V607L290 669H303L230 320ZM580 91H783L763 0H459L467 32L591 132Q642 172 658 199T675
253Q675 280 658 298T609 316Q566 316 528 263L505 278Q517 301 532 322T568 358T612 383T668 393Q696 393 718 384T754 359T777 325T785 287Q785 256 772 233T736 190T686 154T629 120L580 91Z" />
<glyph unicode="&#xbe;" glyph-name="threequarters" horiz-adv-x="812" d="M241 498Q286 493 314 468T342 408Q342 375 323 350T275 309T212 284T148 275Q97 275 63 293T29 341Q29 355 41 370T81 390Q98 342 122 322T170 302Q202 302 217 321T233 365Q233 400
200 425T104 453L109 483Q174 494 208 513T242 564Q242 583 230 596T194 609Q154 609 104 556L85 570Q93 585 106 604T138 639T183 666T242 677Q288 677 317 657T347 601Q347 563 317 541T241 503V498ZM101 -56L708 727L738 704L130 -81L101 -56ZM578 34L589 89H413L422
132L711 389L761 381L712 153H772L759 89H698L686 33L731 24L728 0H520L526 24L578 34ZM603 153L631 285L485 153H603Z" />
<glyph unicode="&#xbf;" glyph-name="questiondown" horiz-adv-x="430" d="M286 -123L228 -106Q184 -94 146 -72T79 -19T34 50T17 136Q17 177 29 206T63 256T112 288T171 306L296 331L318 390H353L325 210L146 183Q101 176 82 164T63 132Q63 97 118 75T276 40L317
36L286 -123ZM359 605Q393 605 417 581T442 523Q442 505 436 490T418 464T391 446T359 439Q324 439 300 463T275 523Q275 540 281 555T299 581T326 598T359 605Z" />
<glyph unicode="&#xc0;" glyph-name="Agrave" horiz-adv-x="717" d="M-40 35L29 53L402 669L445 677L502 687L598 55L661 34L653 0H336L343 35L425 54L403 219H187L94 57L195 34L188 0H-47L-40 35ZM217 271H396L362 522L217 271ZM435 868L479 722H434L316 855V868H435Z" />
<glyph unicode="&#xc1;" glyph-name="Aacute" horiz-adv-x="717" d="M-40 35L29 53L402 669L445 677L502 687L598 55L661 34L653 0H336L343 35L425 54L403 219H187L94 57L195 34L188 0H-47L-40 35ZM217 271H396L362 522L217 271ZM639 868V855L476 722H428L510 868H639Z" />
<glyph unicode="&#xc2;" glyph-name="Acircumflex" horiz-adv-x="717" d="M-40 35L29 53L402 669L445 677L502 687L598 55L661 34L653 0H336L343 35L425 54L403 219H187L94 57L195 34L188 0H-47L-40 35ZM217 271H396L362 522L217 271ZM303 722L438 868H537L605
722H562L472 794L354 722H303Z" />
<glyph unicode="&#xc3;" glyph-name="Atilde" horiz-adv-x="717" d="M-40 35L29 53L402 669L445 677L502 687L598 55L661 34L653 0H336L343 35L425 54L403 219H187L94 57L195 34L188 0H-47L-40 35ZM217 271H396L362 522L217 271ZM287 752L295 768Q316 809 335
834T377 870T426 880T486 868L524 856Q546 849 564 847T598 848T630 864T663 897L683 888L671 867Q648 823 628 798T587 762T540 751T480 764L441 775Q414 783 395 786T360 786T333 773T307 743L287 752Z" />
<glyph unicode="&#xc4;" glyph-name="Adieresis" horiz-adv-x="717" d="M-40 35L29 53L402 669L445 677L502 687L598 55L661 34L653 0H336L343 35L425 54L403 219H187L94 57L195 34L188 0H-47L-40 35ZM217 271H396L362 522L217 271ZM349 727Q318 727 297 748T275
799Q275 830 296 852T349 874Q364 874 377 868T400 852T417 828T423 799Q423 769 401 748T349 727ZM590 727Q561 727 540 748T518 799Q518 830 539 852T590 874Q620 874 642 852T665 799Q665 769 643 748T590 727Z" />
<glyph unicode="&#xc5;" glyph-name="Aring" horiz-adv-x="717" d="M-40 35L29 53L402 669L445 677L502 687L598 55L661 34L653 0H336L343 35L425 54L403 219H187L94 57L195 34L188 0H-47L-40 35ZM217 271H396L362 522L217 271ZM361 830Q361 874 391 904T470 934Q518
934 547 905T577 832Q577 811 569 792T547 759T512 736T468 728Q420 728 391 757T361 830ZM402 832Q402 802 422 783T470 763Q498 763 517 782T536 830Q536 860 516 879T468 899Q440 899 421 881T402 832Z" />
<glyph unicode="&#xc6;" glyph-name="AE" horiz-adv-x="991" d="M648 317L595 56Q603 51 618 46T655 41H775L910 231H944L877 0H340L347 35L423 54L475 315H294L106 57L202 34L195 0H-39L-32 34L32 53L458 606L369 630L376 664H917L998 665L963 467H931L889 623H707L656
361H746L797 457H830L781 216H745L737 317H648ZM523 614L330 363H484L535 614H523Z" />
<glyph unicode="&#xc7;" glyph-name="Ccedilla" horiz-adv-x="724" d="M205 -225Q253 -210 286 -192T319 -144Q319 -124 305 -113T274 -97Q274 -96 280 -88T294 -67T313 -40T331 -15Q268 -9 216 13T126 73T67 162T46 279Q46 365 85 439T191 567T343 652T525 683Q587
683 637 666T725 628L691 438H667L631 591Q603 618 575 630T509 643Q462 643 415 617T329 541T265 417T240 251Q240 199 253 157T289 85T343 39T410 23Q444 23 470 33T517 59L631 234H659L605 27Q565 12 508 -3T383 -18Q378 -18 374 -18T364 -17L344 -46Q383 -54
406 -72T430 -118Q430 -146 414 -167T368 -204T298 -231T210 -249L205 -225Z" />
<glyph unicode="&#xc8;" glyph-name="Egrave" horiz-adv-x="628" d="M399 868L443 722H398L280 855V868H399ZM281 327L225 54Q233 49 248 44T286 39H412L547 231H581L513 0H-31L-24 35L54 54L165 609L92 630L99 664H554L636 665L600 467H568L527 625H339L288 366H382L436
468H469L420 216H383L373 327H281Z" />
<glyph unicode="&#xc9;" glyph-name="Eacute" horiz-adv-x="628" d="M588 868V855L425 722H377L459 868H588ZM281 327L225 54Q233 49 248 44T286 39H412L547 231H581L513 0H-31L-24 35L54 54L165 609L92 630L99 664H554L636 665L600 467H568L527 625H339L288 366H382L436
468H469L420 216H383L373 327H281Z" />
<glyph unicode="&#xca;" glyph-name="Ecircumflex" horiz-adv-x="628" d="M249 722L384 868H483L551 722H508L418 794L300 722H249ZM281 327L225 54Q233 49 248 44T286 39H412L547 231H581L513 0H-31L-24 35L54 54L165 609L92 630L99 664H554L636 665L600 467H568L527
625H339L288 366H382L436 468H469L420 216H383L373 327H281Z" />
<glyph unicode="&#xcb;" glyph-name="Edieresis" horiz-adv-x="628" d="M281 327L225 54Q233 49 248 44T286 39H412L547 231H581L513 0H-31L-24 35L54 54L165 609L92 630L99 664H554L636 665L600 467H568L527 625H339L288 366H382L436 468H469L420 216H383L373
327H281ZM286 727Q255 727 234 748T212 799Q212 830 233 852T286 874Q301 874 314 868T337 852T354 828T360 799Q360 769 338 748T286 727ZM527 727Q498 727 477 748T455 799Q455 830 476 852T527 874Q557 874 579 852T602 799Q602 769 580 748T527 727Z" />
<glyph unicode="&#xcc;" glyph-name="Igrave" horiz-adv-x="367" d="M-24 35L54 54L165 609L92 630L99 664H421L414 629L336 610L225 54L297 34L290 0H-31L-24 35ZM522 868L566 722H521L403 855V868H522Z" />
<glyph unicode="&#xcd;" glyph-name="Iacute" horiz-adv-x="367" d="M-24 35L54 54L165 609L92 630L99 664H421L414 629L336 610L225 54L297 34L290 0H-31L-24 35ZM709 868V855L546 722H498L580 868H709Z" />
<glyph unicode="&#xce;" glyph-name="Icircumflex" horiz-adv-x="367" d="M-24 35L54 54L165 609L92 630L99 664H421L414 629L336 610L225 54L297 34L290 0H-31L-24 35ZM120 722L255 868H354L422 722H379L289 794L171 722H120Z" />
<glyph unicode="&#xcf;" glyph-name="Idieresis" horiz-adv-x="367" d="M180 726Q149 726 128 747T106 798Q106 829 127 850T180 873Q210 872 232 851T254 798Q254 768 232 747T180 726ZM385 726Q355 726 334 747T312 798Q312 829 333 850T385 873Q400 872 413
866T437 850T454 827T460 798Q460 783 454 770T438 747T414 732T385 726ZM-24 35L54 54L165 609L92 630L99 664H421L414 629L336 610L225 54L297 34L290 0H-31L-24 35Z" />
<glyph unicode="&#xd0;" glyph-name="Eth" horiz-adv-x="769" d="M-24 35L54 54L106 318H24L33 359H114L164 609L92 630L98 664L358 666Q446 666 518 647T641 590T721 500T749 378Q749 287 708 216T596 95T431 20T228 -4L-31 0L-24 35ZM276 318L224 55Q235 49
255 44T299 38Q360 38 409 67T493 142T546 249T565 373Q565 437 548 484T501 564T429 613T338 634L284 359H415L407 318H276Z" />
<glyph unicode="&#xd1;" glyph-name="Ntilde" horiz-adv-x="715" d="M276 752L284 768Q305 809 324 834T366 870T415 880T475 868L513 856Q535 849 553 847T587 848T619 864T652 897L672 888L660 867Q637 823 617 798T576 762T529 751T469 764L430 775Q403 783
384 786T349 786T322 773T296 743L276 752ZM487 -3L194 515L111 57L204 34L198 0H-31L-24 35L55 54L157 574Q145 593 128 605T97 623L80 630L87 664H303L559 215L627 607L535 630L541 664H769L762 629L683 610L587 127L567 -3H487Z" />
<glyph unicode="&#xd2;" glyph-name="Ograve" horiz-adv-x="779" d="M457 868L501 722H456L338 855V868H457ZM461 684Q516 684 569 665T665 607T732 510T758 372Q758 301 729 231T645 106T513 16T341 -19Q286 -19 233 0T139 57T72 154T46 292Q46 363 75 433T159
559T290 649T461 684ZM571 453Q571 484 566 518T547 581T511 628T457 647Q406 647 365 609T295 510T249 371T233 215Q233 183 238 148T257 84T291 36T345 17Q380 17 410 34T465 83T510 155T543 245T564 347T571 453Z" />
<glyph unicode="&#xd3;" glyph-name="Oacute" horiz-adv-x="779" d="M651 868V855L488 722H440L522 868H651ZM461 684Q516 684 569 665T665 607T732 510T758 372Q758 301 729 231T645 106T513 16T341 -19Q286 -19 233 0T139 57T72 154T46 292Q46 363 75 433T159
559T290 649T461 684ZM571 453Q571 484 566 518T547 581T511 628T457 647Q406 647 365 609T295 510T249 371T233 215Q233 183 238 148T257 84T291 36T345 17Q380 17 410 34T465 83T510 155T543 245T564 347T571 453Z" />
<glyph unicode="&#xd4;" glyph-name="Ocircumflex" horiz-adv-x="779" d="M313 722L448 868H547L615 722H572L482 794L364 722H313ZM461 684Q516 684 569 665T665 607T732 510T758 372Q758 301 729 231T645 106T513 16T341 -19Q286 -19 233 0T139 57T72 154T46
292Q46 363 75 433T159 559T290 649T461 684ZM571 453Q571 484 566 518T547 581T511 628T457 647Q406 647 365 609T295 510T249 371T233 215Q233 183 238 148T257 84T291 36T345 17Q380 17 410 34T465 83T510 155T543 245T564 347T571 453Z" />
<glyph unicode="&#xd5;" glyph-name="Otilde" horiz-adv-x="779" d="M299 752L307 768Q328 809 347 834T389 870T438 880T498 868L536 856Q558 849 576 847T610 848T642 864T675 897L695 888L683 867Q660 823 640 798T599 762T552 751T492 764L453 775Q426 783
407 786T372 786T345 773T319 743L299 752ZM461 684Q516 684 569 665T665 607T732 510T758 372Q758 301 729 231T645 106T513 16T341 -19Q286 -19 233 0T139 57T72 154T46 292Q46 363 75 433T159 559T290 649T461 684ZM571 453Q571 484 566 518T547 581T511 628T457
647Q406 647 365 609T295 510T249 371T233 215Q233 183 238 148T257 84T291 36T345 17Q380 17 410 34T465 83T510 155T543 245T564 347T571 453Z" />
<glyph unicode="&#xd6;" glyph-name="Odieresis" horiz-adv-x="779" d="M355 727Q324 727 303 748T281 799Q281 830 302 852T355 874Q370 874 383 868T406 852T423 828T429 799Q429 769 407 748T355 727ZM596 727Q567 727 546 748T524 799Q524 830 545 852T596
874Q626 874 648 852T671 799Q671 769 649 748T596 727ZM461 684Q516 684 569 665T665 607T732 510T758 372Q758 301 729 231T645 106T513 16T341 -19Q286 -19 233 0T139 57T72 154T46 292Q46 363 75 433T159 559T290 649T461 684ZM571 453Q571 484 566 518T547
581T511 628T457 647Q406 647 365 609T295 510T249 371T233 215Q233 183 238 148T257 84T291 36T345 17Q380 17 410 34T465 83T510 155T543 245T564 347T571 453Z" />
<glyph unicode="&#xd7;" glyph-name="multiply" horiz-adv-x="565" d="M271 212L84 23L49 57L237 246L52 431L89 468L274 282L458 471L491 436L307 249L494 61L458 23L271 212Z" />
<glyph unicode="&#xd8;" glyph-name="Oslash" horiz-adv-x="779" d="M68 -45L147 52Q102 92 74 151T46 292Q46 363 75 433T159 559T290 649T461 684Q503 684 543 673T619 639L674 707H720L649 619Q697 580 727 519T758 372Q758 301 729 231T645 106T513 16T341
-19Q297 -19 255 -7T175 31L114 -45H68ZM574 455Q574 486 568 518L243 115Q255 74 279 46T345 17Q397 17 439 55T512 156T558 297T574 455ZM230 213Q230 187 233 160L556 561Q543 597 519 622T457 647Q406 647 365 609T293 509T247 369T230 213Z" />
<glyph unicode="&#xd9;" glyph-name="Ugrave" horiz-adv-x="729" d="M470 868L514 722H469L351 855V868H470ZM340 -21Q269 -21 217 -3T132 53T91 148T96 286L160 609L89 630L95 664H420L413 629L331 609L260 245Q243 151 279 103T386 55Q424 55 457 67T516 105T562
173T591 275L648 606L558 629L563 664H793L786 629L707 609L645 274Q633 214 611 160T553 66T465 3T340 -21Z" />
<glyph unicode="&#xda;" glyph-name="Uacute" horiz-adv-x="729" d="M673 868V855L510 722H462L544 868H673ZM340 -21Q269 -21 217 -3T132 53T91 148T96 286L160 609L89 630L95 664H420L413 629L331 609L260 245Q243 151 279 103T386 55Q424 55 457 67T516 105T562
173T591 275L648 606L558 629L563 664H793L786 629L707 609L645 274Q633 214 611 160T553 66T465 3T340 -21Z" />
<glyph unicode="&#xdb;" glyph-name="Ucircumflex" horiz-adv-x="729" d="M337 722L472 868H571L639 722H596L506 794L388 722H337ZM340 -21Q269 -21 217 -3T132 53T91 148T96 286L160 609L89 630L95 664H420L413 629L331 609L260 245Q243 151 279 103T386 55Q424
55 457 67T516 105T562 173T591 275L648 606L558 629L563 664H793L786 629L707 609L645 274Q633 214 611 160T553 66T465 3T340 -21Z" />
<glyph unicode="&#xdc;" glyph-name="Udieresis" horiz-adv-x="729" d="M340 -21Q269 -21 217 -3T132 53T91 148T96 286L160 609L89 630L95 664H420L413 629L331 609L260 245Q243 151 279 103T386 55Q424 55 457 67T516 105T562 173T591 275L648 606L558 629L563
664H793L786 629L707 609L645 274Q633 214 611 160T553 66T465 3T340 -21ZM383 727Q352 727 331 748T309 799Q309 830 330 852T383 874Q398 874 411 868T434 852T451 828T457 799Q457 769 435 748T383 727ZM624 727Q595 727 574 748T552 799Q552 830 573 852T624
874Q654 874 676 852T699 799Q699 769 677 748T624 727Z" />
<glyph unicode="&#xdd;" glyph-name="Yacute" horiz-adv-x="684" d="M428 260L387 54L462 33L455 0H128L135 34L217 54L255 245L141 609L80 630L87 664H420L412 629L324 610L408 299L618 608L531 630L538 664H744L737 629L677 610L428 260ZM669 868V855L506 722H458L540
868H669Z" />
<glyph unicode="&#xde;" glyph-name="Thorn" horiz-adv-x="631" d="M-24 35L54 54L165 609L92 630L99 664H422L415 629L336 609L316 511H340Q411 511 464 499T552 466T604 415T622 350Q622 299 594 263T519 203T410 168T277 158L283 190Q369 200 415 240T461 339Q461
395 421 431T309 475L226 54L303 34L295 0H-31L-24 35Z" />
<glyph unicode="&#xdf;" glyph-name="germandbls" horiz-adv-x="600" d="M586 636Q586 608 572 586T537 546T492 511T446 481T411 452T397 422Q397 406 407 390T447 343L506 279Q538 245 556 220T574 164Q574 126 554 94T503 36T431 -3T352 -17Q331 -17 310 -12T273
5T246 32T236 68Q236 91 247 111T274 145Q291 127 312 108T354 72T395 46T427 36Q441 36 450 45T459 71Q458 87 446 104T402 156L342 218Q322 238 311 254T293 284T286 309T284 331Q284 358 296 381T328 425T370 467T410 511T441 561T453 621Q452 653 435 678T381
704Q360 704 341 694T305 658T274 587T247 472L188 127Q175 51 152 -5T100 -103T39 -172T-25 -214T-84 -236T-132 -243Q-174 -243 -195 -223T-218 -177Q-218 -150 -195 -126T-127 -88Q-115 -133 -94 -160T-55 -187Q-46 -187 -40 -182T-27 -165T-16 -133T-6 -82L73
380Q88 465 131 534T229 653T340 728T436 755Q475 755 503 746T550 720T577 682T586 636Z" />
<glyph unicode="&#xe0;" glyph-name="agrave" horiz-adv-x="583" d="M562 524L453 111H457Q478 128 499 153T540 205L568 193Q520 97 460 42T340 -13Q322 -13 310 -5T293 18T287 49T295 86L338 207H331Q310 172 284 133T228 60T164 5T97 -17Q79 -17 62 -11T32
8T11 43T3 96Q3 137 16 182T54 273T112 358T185 430T269 479T360 498Q377 498 393 495T424 485L443 524H562ZM188 95Q203 95 228 120T280 189T335 287T381 403L391 436Q381 447 369 454T343 461Q311 461 280 428T223 346T183 241T166 139Q165 112 172 104T188 95ZM368
769L397 573H367L249 761V769H368Z" />
<glyph unicode="&#xe1;" glyph-name="aacute" horiz-adv-x="583" d="M562 524L453 111H457Q478 128 499 153T540 205L568 193Q520 97 460 42T340 -13Q322 -13 310 -5T293 18T287 49T295 86L338 207H331Q310 172 284 133T228 60T164 5T97 -17Q79 -17 62 -11T32
8T11 43T3 96Q3 137 16 182T54 273T112 358T185 430T269 479T360 498Q377 498 393 495T424 485L443 524H562ZM188 95Q203 95 228 120T280 189T335 287T381 403L391 436Q381 447 369 454T343 461Q311 461 280 428T223 346T183 241T166 139Q165 112 172 104T188 95ZM553
769V762L395 573H363L432 769H553Z" />
<glyph unicode="&#xe2;" glyph-name="acircumflex" horiz-adv-x="583" d="M562 524L453 111H457Q478 128 499 153T540 205L568 193Q520 97 460 42T340 -13Q322 -13 310 -5T293 18T287 49T295 86L338 207H331Q310 172 284 133T228 60T164 5T97 -17Q79 -17 62 -11T32
8T11 43T3 96Q3 137 16 182T54 273T112 358T185 430T269 479T360 498Q377 498 393 495T424 485L443 524H562ZM188 95Q203 95 228 120T280 189T335 287T381 403L391 436Q381 447 369 454T343 461Q311 461 280 428T223 346T183 241T166 139Q165 112 172 104T188 95ZM251
573L381 769H454L509 573H473L401 685L288 573H251Z" />
<glyph unicode="&#xe3;" glyph-name="atilde" horiz-adv-x="583" d="M562 524L453 111H457Q478 128 499 153T540 205L568 193Q520 97 460 42T340 -13Q322 -13 310 -5T293 18T287 49T295 86L338 207H331Q310 172 284 133T228 60T164 5T97 -17Q79 -17 62 -11T32
8T11 43T3 96Q3 137 16 182T54 273T112 358T185 430T269 479T360 498Q377 498 393 495T424 485L443 524H562ZM188 95Q203 95 228 120T280 189T335 287T381 403L391 436Q381 447 369 454T343 461Q311 461 280 428T223 346T183 241T166 139Q165 112 172 104T188 95ZM199
588L207 604Q228 646 248 671T292 708T341 719T400 704L438 689Q478 673 509 681T573 733L594 724L583 703Q559 658 538 632T495 594T447 584T389 600L351 614Q324 624 305 627T272 626T245 610T219 579L199 588Z" />
<glyph unicode="&#xe4;" glyph-name="adieresis" horiz-adv-x="583" d="M562 524L453 111H457Q478 128 499 153T540 205L568 193Q520 97 460 42T340 -13Q322 -13 310 -5T293 18T287 49T295 86L338 207H331Q310 172 284 133T228 60T164 5T97 -17Q79 -17 62 -11T32
8T11 43T3 96Q3 137 16 182T54 273T112 358T185 430T269 479T360 498Q377 498 393 495T424 485L443 524H562ZM188 95Q203 95 228 120T280 189T335 287T381 403L391 436Q381 447 369 454T343 461Q311 461 280 428T223 346T183 241T166 139Q165 112 172 104T188 95ZM297
590Q267 590 245 611T223 663Q223 693 245 715T297 737Q327 737 349 715T371 663Q371 632 349 611T297 590ZM501 590Q472 590 451 611T429 663Q429 693 450 715T501 737Q531 737 553 715T576 663Q576 632 554 611T501 590Z" />
<glyph unicode="&#xe5;" glyph-name="aring" horiz-adv-x="583" d="M562 524L453 111H457Q478 128 499 153T540 205L568 193Q520 97 460 42T340 -13Q322 -13 310 -5T293 18T287 49T295 86L338 207H331Q310 172 284 133T228 60T164 5T97 -17Q79 -17 62 -11T32 8T11
43T3 96Q3 137 16 182T54 273T112 358T185 430T269 479T360 498Q377 498 393 495T424 485L443 524H562ZM188 95Q203 95 228 120T280 189T335 287T381 403L391 436Q381 447 369 454T343 461Q311 461 280 428T223 346T183 241T166 139Q165 112 172 104T188 95ZM295
670Q295 691 303 710T325 744T360 766T403 775Q451 775 481 745T511 672Q511 651 503 632T481 599T446 576T402 568Q354 568 325 597T295 670ZM336 672Q336 642 355 623T403 603Q431 603 450 622T469 670Q469 700 450 719T402 739Q374 739 355 720T336 672Z" />
<glyph unicode="&#xe6;" glyph-name="ae" horiz-adv-x="700" d="M393 -17Q342 -17 311 5T265 65H263Q244 44 227 29T190 4T150 -12T101 -17Q79 -17 60 -10T25 10T1 44T-8 90Q-7 145 34 179T172 230L273 249L297 339Q298 362 296 383T284 419T259 444T219 454Q210
454 202 452T188 445L173 326Q162 321 149 318T118 315Q92 315 78 329T64 365Q64 392 85 417T141 462T219 494T304 508Q359 508 385 483T418 412H423Q458 455 504 481T607 508Q652 508 679 488T706 430Q706 390 682 360T617 307T524 268T417 241Q415 231 414 221T413
201Q412 168 418 146T436 110T460 92T487 86Q508 86 529 96T570 122T607 157T636 193L661 178Q646 145 620 111T559 48T481 1T393 -17ZM256 97Q247 148 263 212L219 201Q171 190 153 170T134 120Q133 97 146 80T185 62Q204 62 222 72T256 97ZM554 458Q538 458 520
443T483 403T450 344T424 275Q509 310 544 351T581 424Q581 458 554 458Z" />
<glyph unicode="&#xe7;" glyph-name="ccedilla" horiz-adv-x="458" d="M17 -225Q65 -210 98 -192T131 -144Q131 -124 117 -113T86 -97Q86 -96 92 -88T106 -67T125 -41T143 -16Q114 -13 91 -1T50 33T23 82T14 145Q14 219 50 294T168 432Q214 467 267 487T369 508Q390
508 407 501T438 483T459 458T467 430Q467 405 449 379T396 334Q364 383 333 416T281 449Q261 449 243 423T211 357T189 267T180 172Q180 124 195 105T234 85Q251 85 270 95T309 122T350 161T390 209L417 194Q393 149 368 112T313 48T251 4T177 -16L156 -46Q195
-54 218 -72T242 -118Q242 -146 226 -167T180 -204T110 -231T22 -249L17 -225Z" />
<glyph unicode="&#xe8;" glyph-name="egrave" horiz-adv-x="459" d="M165 -17Q91 -17 52 26T14 151Q16 232 58 304T167 429Q270 508 369 508Q387 508 404 504T434 489T455 464T463 428Q463 389 437 357T369 299T276 255T173 224Q172 219 172 214T172 203Q171 140
193 113T247 86Q266 86 286 95T325 120T361 154T393 193L419 178Q404 146 380 112T322 49T250 2T165 -17ZM299 457Q281 457 262 441T226 396T196 332T176 255Q206 266 233 284T281 323T315 370T329 419Q329 436 322 446T299 457ZM326 769L355 573H325L207 761V769H326Z"
/>
<glyph unicode="&#xe9;" glyph-name="eacute" horiz-adv-x="459" d="M503 769V762L345 573H313L382 769H503ZM165 -17Q91 -17 52 26T14 151Q16 232 58 304T167 429Q270 508 369 508Q387 508 404 504T434 489T455 464T463 428Q463 389 437 357T369 299T276 255T173
224Q172 219 172 214T172 203Q171 140 193 113T247 86Q266 86 286 95T325 120T361 154T393 193L419 178Q404 146 380 112T322 49T250 2T165 -17ZM299 457Q281 457 262 441T226 396T196 332T176 255Q206 266 233 284T281 323T315 370T329 419Q329 436 322 446T299
457Z" />
<glyph unicode="&#xea;" glyph-name="ecircumflex" horiz-adv-x="459" d="M203 573L333 769H406L461 573H425L353 685L240 573H203ZM165 -17Q91 -17 52 26T14 151Q16 232 58 304T167 429Q270 508 369 508Q387 508 404 504T434 489T455 464T463 428Q463 389 437
357T369 299T276 255T173 224Q172 219 172 214T172 203Q171 140 193 113T247 86Q266 86 286 95T325 120T361 154T393 193L419 178Q404 146 380 112T322 49T250 2T165 -17ZM299 457Q281 457 262 441T226 396T196 332T176 255Q206 266 233 284T281 323T315 370T329
419Q329 436 322 446T299 457Z" />
<glyph unicode="&#xeb;" glyph-name="edieresis" horiz-adv-x="459" d="M234 590Q204 590 182 611T160 663Q160 693 182 715T234 737Q264 737 286 715T308 663Q308 632 286 611T234 590ZM438 590Q409 590 388 611T366 663Q366 693 387 715T438 737Q468 737 490
715T513 663Q513 632 491 611T438 590ZM165 -17Q91 -17 52 26T14 151Q16 232 58 304T167 429Q270 508 369 508Q387 508 404 504T434 489T455 464T463 428Q463 389 437 357T369 299T276 255T173 224Q172 219 172 214T172 203Q171 140 193 113T247 86Q266 86 286
95T325 120T361 154T393 193L419 178Q404 146 380 112T322 49T250 2T165 -17ZM299 457Q281 457 262 441T226 396T196 332T176 255Q206 266 233 284T281 323T315 370T329 419Q329 436 322 446T299 457Z" />
<glyph unicode="&#xec;" glyph-name="igrave" horiz-adv-x="308" d="M366 403Q360 407 350 410T327 415T301 417T277 414L281 434Q295 447 313 460T354 484T400 501T450 508Q467 508 482 502T508 482T520 445T514 385L442 112H447Q467 129 489 154T529 205L557
193Q533 146 506 108T450 43T390 2T329 -13Q315 -13 304 -8T285 10T275 40T279 86L366 403ZM452 769L481 573H451L333 761V769H452Z" />
<glyph unicode="&#xed;" glyph-name="iacute" horiz-adv-x="308" d="M637 769V762L479 573H447L516 769H637ZM366 403Q360 407 350 410T327 415T301 417T277 414L281 434Q295 447 313 460T354 484T400 501T450 508Q467 508 482 502T508 482T520 445T514 385L442
112H447Q467 129 489 154T529 205L557 193Q533 146 506 108T450 43T390 2T329 -13Q315 -13 304 -8T285 10T275 40T279 86L366 403Z" />
<glyph unicode="&#xee;" glyph-name="icircumflex" horiz-adv-x="308" d="M336 573L466 769H539L594 573H558L486 685L373 573H336ZM366 403Q360 407 350 410T327 415T301 417T277 414L281 434Q295 447 313 460T354 484T400 501T450 508Q467 508 482 502T508 482T520
445T514 385L442 112H447Q467 129 489 154T529 205L557 193Q533 146 506 108T450 43T390 2T329 -13Q315 -13 304 -8T285 10T275 40T279 86L366 403Z" />
<glyph unicode="&#xef;" glyph-name="idieresis" horiz-adv-x="308" d="M133 592Q101 592 79 613T57 667Q57 699 79 721T133 743Q164 743 186 721T209 667Q209 635 187 614T133 592ZM323 592Q291 592 270 613T248 667Q248 699 269 721T323 743Q354 743 376 721T399
667Q399 635 377 614T323 592ZM109 403Q103 407 93 410T70 415T44 417T20 414L24 434Q38 447 56 460T97 484T143 501T193 508Q210 508 225 502T251 482T263 445T257 385L185 112H190Q210 129 232 154T272 205L300 193Q276 146 249 108T193 43T133 2T72 -13Q58 -13
47 -8T28 10T18 40T22 86L109 403Z" />
<glyph unicode="&#xf0;" glyph-name="eth" horiz-adv-x="560" d="M142 578L285 638Q264 664 239 687T188 734L206 757Q250 738 288 716T359 669L511 733L525 698L392 642Q464 578 501 502T539 340Q538 269 516 204T452 90T351 12T215 -17Q170 -17 134 -2T73 41T35
107T23 192Q24 252 47 308T110 408T206 478T327 505Q347 505 362 498Q354 528 340 555T309 607L155 542L142 578ZM220 15Q248 15 274 51T322 140T356 255T373 366Q375 411 367 442T332 474Q313 474 295 456T261 408T231 340T207 261T191 182T185 111Q184 63 191
39T220 15Z" />
<glyph unicode="&#xf1;" glyph-name="ntilde" horiz-adv-x="591" d="M108 403Q97 411 73 415T20 414L24 434Q37 447 55 460T93 484T134 501T177 508Q199 508 217 500T245 476T257 434T249 375L217 271H226Q252 320 280 363T339 438T403 488T472 507Q512 507 533
479T538 387L465 112H470Q490 129 511 154T553 205L580 193Q532 98 472 43T352 -13Q339 -13 327 -8T307 10T297 40T302 86L379 365Q386 394 370 394Q356 394 330 367T276 293T219 189T172 67L156 13L15 -16L0 -1L108 403ZM178 588L186 604Q207 646 227 671T271
708T320 719T379 704L417 689Q457 673 488 681T552 733L573 724L562 703Q538 658 517 632T474 594T426 584T368 600L330 614Q303 624 284 627T251 626T224 610T198 579L178 588Z" />
<glyph unicode="&#xf2;" glyph-name="ograve" horiz-adv-x="550" d="M327 474Q308 474 291 456T257 408T228 340T204 261T188 182T182 111Q181 63 188 40T218 16Q246 16 272 53T320 145T354 261T368 373Q368 394 367 412T361 444T348 466T327 474ZM336 506Q383
506 419 490T479 445T516 380T529 302Q529 247 510 191T450 88T351 13T212 -16Q165 -16 129 -1T69 41T32 106T19 190Q19 240 37 295T95 398T194 475T336 506ZM339 769L368 573H338L220 761V769H339Z" />
<glyph unicode="&#xf3;" glyph-name="oacute" horiz-adv-x="550" d="M520 769V762L362 573H330L399 769H520ZM327 474Q308 474 291 456T257 408T228 340T204 261T188 182T182 111Q181 63 188 40T218 16Q246 16 272 53T320 145T354 261T368 373Q368 394 367 412T361
444T348 466T327 474ZM336 506Q383 506 419 490T479 445T516 380T529 302Q529 247 510 191T450 88T351 13T212 -16Q165 -16 129 -1T69 41T32 106T19 190Q19 240 37 295T95 398T194 475T336 506Z" />
<glyph unicode="&#xf4;" glyph-name="ocircumflex" horiz-adv-x="550" d="M219 573L349 769H422L477 573H441L369 685L256 573H219ZM327 474Q308 474 291 456T257 408T228 340T204 261T188 182T182 111Q181 63 188 40T218 16Q246 16 272 53T320 145T354 261T368
373Q368 394 367 412T361 444T348 466T327 474ZM336 506Q383 506 419 490T479 445T516 380T529 302Q529 247 510 191T450 88T351 13T212 -16Q165 -16 129 -1T69 41T32 106T19 190Q19 240 37 295T95 398T194 475T336 506Z" />
<glyph unicode="&#xf5;" glyph-name="otilde" horiz-adv-x="550" d="M327 474Q308 474 291 456T257 408T228 340T204 261T188 182T182 111Q181 63 188 40T218 16Q246 16 272 53T320 145T354 261T368 373Q368 394 367 412T361 444T348 466T327 474ZM336 506Q383
506 419 490T479 445T516 380T529 302Q529 247 510 191T450 88T351 13T212 -16Q165 -16 129 -1T69 41T32 106T19 190Q19 240 37 295T95 398T194 475T336 506ZM167 588L175 604Q196 646 216 671T260 708T309 719T368 704L406 689Q446 673 477 681T541 733L562 724L551
703Q527 658 506 632T463 594T415 584T357 600L319 614Q292 624 273 627T240 626T213 610T187 579L167 588Z" />
<glyph unicode="&#xf6;" glyph-name="odieresis" horiz-adv-x="550" d="M265 590Q235 590 213 611T191 663Q191 693 213 715T265 737Q295 737 317 715T339 663Q339 632 317 611T265 590ZM469 590Q440 590 419 611T397 663Q397 693 418 715T469 737Q499 737 521
715T544 663Q544 632 522 611T469 590ZM327 474Q308 474 291 456T257 408T228 340T204 261T188 182T182 111Q181 63 188 40T218 16Q246 16 272 53T320 145T354 261T368 373Q368 394 367 412T361 444T348 466T327 474ZM336 506Q383 506 419 490T479 445T516 380T529
302Q529 247 510 191T450 88T351 13T212 -16Q165 -16 129 -1T69 41T32 106T19 190Q19 240 37 295T95 398T194 475T336 506Z" />
<glyph unicode="&#xf7;" glyph-name="divide" horiz-adv-x="565" d="M42 224V271H516V224H42ZM279 330Q251 330 231 351T211 401Q211 428 231 449T279 470Q308 470 329 449T350 401Q350 372 329 351T279 330ZM279 25Q251 25 231 45T210 95Q210 122 230 143T279
164Q308 164 328 143T349 95Q349 66 329 46T279 25Z" />
<glyph unicode="&#xf8;" glyph-name="oslash" horiz-adv-x="550" d="M29 -50L87 26Q54 54 37 96T20 192Q21 248 42 304T103 405T202 478T337 506Q363 506 387 500T431 482L479 546H522L459 463Q493 434 512 392T530 300Q529 244 508 188T448 86T349 13T213 -16Q156
-16 115 7L72 -50H29ZM219 16Q247 16 273 49T321 133T356 241T374 350L176 87Q178 56 187 36T219 16ZM325 474Q307 474 290 459T258 419T229 360T205 290T187 216T177 146L373 406Q370 436 359 455T325 474Z" />
<glyph unicode="&#xf9;" glyph-name="ugrave" horiz-adv-x="586" d="M105 403Q99 407 89 410T67 415T42 417T18 414L21 433Q50 460 93 484T189 508Q207 508 221 501T245 477T255 436T248 376L185 126Q181 110 184 106T192 101Q207 101 233 130T288 205T344 308T387
421L404 482L546 507L559 493L460 112H464Q484 129 505 154T547 205L574 193Q525 97 465 42T347 -13Q333 -13 321 -8T303 10T296 41T305 89L362 259H355Q334 219 308 172T250 83T178 14T92 -14Q51 -14 31 15T28 113L105 403ZM332 769L361 573H331L213 761V769H332Z"
/>
<glyph unicode="&#xfa;" glyph-name="uacute" horiz-adv-x="586" d="M514 769V762L356 573H324L393 769H514ZM105 403Q99 407 89 410T67 415T42 417T18 414L21 433Q50 460 93 484T189 508Q207 508 221 501T245 477T255 436T248 376L185 126Q181 110 184 106T192
101Q207 101 233 130T288 205T344 308T387 421L404 482L546 507L559 493L460 112H464Q484 129 505 154T547 205L574 193Q525 97 465 42T347 -13Q333 -13 321 -8T303 10T296 41T305 89L362 259H355Q334 219 308 172T250 83T178 14T92 -14Q51 -14 31 15T28 113L105
403Z" />
<glyph unicode="&#xfb;" glyph-name="ucircumflex" horiz-adv-x="586" d="M217 573L347 769H420L475 573H439L367 685L254 573H217ZM105 403Q99 407 89 410T67 415T42 417T18 414L21 433Q50 460 93 484T189 508Q207 508 221 501T245 477T255 436T248 376L185 126Q181
110 184 106T192 101Q207 101 233 130T288 205T344 308T387 421L404 482L546 507L559 493L460 112H464Q484 129 505 154T547 205L574 193Q525 97 465 42T347 -13Q333 -13 321 -8T303 10T296 41T305 89L362 259H355Q334 219 308 172T250 83T178 14T92 -14Q51 -14
31 15T28 113L105 403Z" />
<glyph unicode="&#xfc;" glyph-name="udieresis" horiz-adv-x="586" d="M260 590Q230 590 208 611T186 663Q186 693 208 715T260 737Q290 737 312 715T334 663Q334 632 312 611T260 590ZM464 590Q435 590 414 611T392 663Q392 693 413 715T464 737Q494 737 516
715T539 663Q539 632 517 611T464 590ZM105 403Q99 407 89 410T67 415T42 417T18 414L21 433Q50 460 93 484T189 508Q207 508 221 501T245 477T255 436T248 376L185 126Q181 110 184 106T192 101Q207 101 233 130T288 205T344 308T387 421L404 482L546 507L559
493L460 112H464Q484 129 505 154T547 205L574 193Q525 97 465 42T347 -13Q333 -13 321 -8T303 10T296 41T305 89L362 259H355Q334 219 308 172T250 83T178 14T92 -14Q51 -14 31 15T28 113L105 403Z" />
<glyph unicode="&#xfd;" glyph-name="yacute" horiz-adv-x="512" d="M6 249Q9 317 22 365T56 444T104 489T164 504Q191 504 215 489T259 439T290 350T302 216Q303 156 297 104T279 6H287Q314 48 337 88T378 169T405 249T415 332Q415 371 403 410T364 483Q382 495
402 502T442 509Q454 509 466 505T487 490T503 462T510 420Q510 367 485 297T417 153T318 8T201 -119T78 -209T-40 -243Q-77 -243 -103 -222T-129 -159Q-130 -129 -109 -105T-51 -80Q15 -80 39 -185H45Q75 -169 96 -135T131 -55T151 43T158 148Q158 203 154 248T141
326T121 376T98 394Q79 394 65 359T35 249H6ZM495 769V762L337 573H305L374 769H495Z" />
<glyph unicode="&#xfe;" glyph-name="thorn" horiz-adv-x="550" d="M143 627L71 684L75 700L323 751L208 289H213Q267 390 327 448T446 507Q466 507 484 499T516 474T537 432T545 372Q544 310 520 241T450 114T341 19T195 -19Q192 -19 184 -19T167 -18T150 -16T139
-13L99 -167L223 -179L216 -219H-118L-112 -185L-49 -165L143 627ZM153 47Q162 33 173 25T202 16Q223 16 244 32T285 76T322 138T351 209T371 280T380 343Q381 374 374 385T355 396Q342 396 325 381T289 342T251 286T215 220T185 153T165 93L153 47Z" />
<glyph unicode="&#xff;" glyph-name="ydieresis" horiz-adv-x="512" d="M6 249Q9 317 22 365T56 444T104 489T164 504Q191 504 215 489T259 439T290 350T302 216Q303 156 297 104T279 6H287Q314 48 337 88T378 169T405 249T415 332Q415 371 403 410T364 483Q382
495 402 502T442 509Q454 509 466 505T487 490T503 462T510 420Q510 367 485 297T417 153T318 8T201 -119T78 -209T-40 -243Q-77 -243 -103 -222T-129 -159Q-130 -129 -109 -105T-51 -80Q15 -80 39 -185H45Q75 -169 96 -135T131 -55T151 43T158 148Q158 203 154
248T141 326T121 376T98 394Q79 394 65 359T35 249H6ZM220 590Q190 590 168 611T146 663Q146 693 168 715T220 737Q250 737 272 715T294 663Q294 632 272 611T220 590ZM424 590Q395 590 374 611T352 663Q352 693 373 715T424 737Q454 737 476 715T499 663Q499 632
477 611T424 590Z" />
<glyph unicode="&#x100;" glyph-name="Amacron" horiz-adv-x="717" d="M-40 35L29 53L402 669L445 677L502 687L598 55L661 34L653 0H336L343 35L425 54L403 219H187L94 57L195 34L188 0H-47L-40 35ZM217 271H396L362 522L217 271ZM332 837H630L615 763H316L332 837Z" />
<glyph unicode="&#x101;" glyph-name="amacron" horiz-adv-x="583" d="M562 524L453 111H457Q478 128 499 153T540 205L568 193Q520 97 460 42T340 -13Q322 -13 310 -5T293 18T287 49T295 86L338 207H331Q310 172 284 133T228 60T164 5T97 -17Q79 -17 62 -11T32
8T11 43T3 96Q3 137 16 182T54 273T112 358T185 430T269 479T360 498Q377 498 393 495T424 485L443 524H562ZM188 95Q203 95 228 120T280 189T335 287T381 403L391 436Q381 447 369 454T343 461Q311 461 280 428T223 346T183 241T166 139Q165 112 172 104T188 95ZM258
695H552L538 622H244L258 695Z" />
<glyph unicode="&#x102;" glyph-name="Abreve" horiz-adv-x="717" d="M-40 35L29 53L402 669L445 677L502 687L598 55L661 34L653 0H336L343 35L425 54L403 219H187L94 57L195 34L188 0H-47L-40 35ZM217 271H396L362 522L217 271ZM455 717Q418 717 393 730T354
764T334 811T330 865H367Q376 837 397 818T464 798Q509 798 534 818T576 865H608Q604 838 594 812T566 764T520 730T455 717Z" />
<glyph unicode="&#x103;" glyph-name="abreve" horiz-adv-x="583" d="M562 524L453 111H457Q478 128 499 153T540 205L568 193Q520 97 460 42T340 -13Q322 -13 310 -5T293 18T287 49T295 86L338 207H331Q310 172 284 133T228 60T164 5T97 -17Q79 -17 62 -11T32
8T11 43T3 96Q3 137 16 182T54 273T112 358T185 430T269 479T360 498Q377 498 393 495T424 485L443 524H562ZM188 95Q203 95 228 120T280 189T335 287T381 403L391 436Q381 447 369 454T343 461Q311 461 280 428T223 346T183 241T166 139Q165 112 172 104T188 95ZM387
577Q325 577 296 623T274 761H303Q308 704 332 681T394 658Q432 658 462 681T516 761H544Q531 680 492 629T387 577Z" />
<glyph unicode="&#x104;" glyph-name="Aogonek" horiz-adv-x="717" d="M-40 35L29 53L402 669L445 677L502 687L598 55L661 34L653 0H448Q389 -32 369 -62T348 -118Q348 -138 359 -148T390 -159Q407 -159 425 -149T466 -116L486 -130Q456 -181 417 -214T330 -248Q290
-248 267 -226T244 -170Q244 -147 252 -127T282 -86T339 -38T429 23L403 219H187L94 57L195 34L188 0H-47L-40 35ZM217 271H396L362 522L217 271Z" />
<glyph unicode="&#x105;" glyph-name="aogonek" horiz-adv-x="583" d="M359 -11Q357 -12 353 -12Q350 -13 347 -13T340 -13Q322 -13 310 -5T293 18T287 49T295 86L338 207H331Q310 172 284 133T228 60T164 5T97 -17Q79 -17 62 -11T32 8T11 43T3 95Q3 136 16 182T54
273T112 358T185 430T269 479T360 498Q377 498 393 495T424 485L443 524H562L453 111H457Q478 128 499 153T540 205L568 193Q556 169 545 149T520 111T490 74T452 35Q410 -6 385 -31T346 -73T328 -101T324 -123Q324 -139 334 -149T365 -159Q382 -159 400 -149T441
-116L461 -130Q431 -181 392 -214T305 -248Q264 -248 242 -225T219 -170Q219 -148 228 -130T256 -94T300 -57T360 -15L359 -11ZM188 95Q203 95 228 121T282 191T337 290T381 403L391 436Q381 447 369 454T343 461Q311 461 280 428T223 346T183 241T166 139Q165
112 172 104T188 95Z" />
<glyph unicode="&#x106;" glyph-name="Cacute" horiz-adv-x="724" d="M383 -18Q309 -18 248 1T141 59T71 152T46 279Q46 365 85 439T191 567T343 652T525 683Q587 683 637 666T725 628L691 438H667L631 591Q603 618 575 630T509 643Q462 643 415 617T329 541T265
417T240 251Q240 199 253 157T289 85T343 39T410 23Q444 23 470 33T517 59L631 234H659L605 27Q565 12 508 -3T383 -18ZM686 868V855L523 722H475L557 868H686Z" />
<glyph unicode="&#x107;" glyph-name="cacute" horiz-adv-x="458" d="M504 769V762L346 573H314L383 769H504ZM281 449Q261 449 243 423T211 357T189 267T180 172Q180 124 195 105T234 85Q251 85 270 95T309 122T350 161T390 209L417 194Q391 146 364 108T306
41T239 -2T158 -17Q127 -17 101 -6T55 27T25 78T14 145Q14 219 50 294T168 432Q214 467 267 487T369 508Q390 508 407 501T438 483T459 458T467 430Q467 405 449 379T396 334Q364 383 333 416T281 449Z" />
<glyph unicode="&#x108;" glyph-name="Ccircumflex" horiz-adv-x="724" d="M347 722L482 868H581L649 722H606L516 794L398 722H347ZM383 -18Q309 -18 248 1T141 59T71 152T46 279Q46 365 85 439T191 567T343 652T525 683Q587 683 637 666T725 628L691 438H667L631
591Q603 618 575 630T509 643Q462 643 415 617T329 541T265 417T240 251Q240 199 253 157T289 85T343 39T410 23Q444 23 470 33T517 59L631 234H659L605 27Q565 12 508 -3T383 -18Z" />
<glyph unicode="&#x109;" glyph-name="ccircumflex" horiz-adv-x="458" d="M203 573L333 769H406L461 573H425L353 685L240 573H203ZM281 449Q261 449 243 423T211 357T189 267T180 172Q180 124 195 105T234 85Q251 85 270 95T309 122T350 161T390 209L417 194Q391
146 364 108T306 41T239 -2T158 -17Q127 -17 101 -6T55 27T25 78T14 145Q14 219 50 294T168 432Q214 467 267 487T369 508Q390 508 407 501T438 483T459 458T467 430Q467 405 449 379T396 334Q364 383 333 416T281 449Z" />
<glyph unicode="&#x10a;" glyph-name="Cdotaccent" horiz-adv-x="724" d="M383 -18Q309 -18 248 1T141 59T71 152T46 279Q46 365 85 439T191 567T343 652T525 683Q587 683 637 666T725 628L691 438H667L631 591Q603 618 575 630T509 643Q462 643 415 617T329 541T265
417T240 251Q240 199 253 157T289 85T343 39T410 23Q444 23 470 33T517 59L631 234H659L605 27Q565 12 508 -3T383 -18ZM442 805Q442 838 465 861T522 885Q555 885 578 862T601 805Q601 773 578 750T522 726Q489 726 466 749T442 805Z" />
<glyph unicode="&#x10b;" glyph-name="cdotaccent" horiz-adv-x="458" d="M281 449Q261 449 243 423T211 357T189 267T180 172Q180 124 195 105T234 85Q251 85 270 95T309 122T350 161T390 209L417 194Q391 146 364 108T306 41T239 -2T158 -17Q127 -17 101 -6T55
27T25 78T14 145Q14 219 50 294T168 432Q214 467 267 487T369 508Q390 508 407 501T438 483T459 458T467 430Q467 405 449 379T396 334Q364 383 333 416T281 449ZM272 663Q272 697 295 720T352 744Q385 744 408 721T432 663Q432 630 409 607T352 583Q318 583 295
606T272 663Z" />
<glyph unicode="&#x10c;" glyph-name="Ccaron" horiz-adv-x="724" d="M686 868L551 722H454L384 868H428L516 791L636 868H686ZM383 -18Q309 -18 248 1T141 59T71 152T46 279Q46 365 85 439T191 567T343 652T525 683Q587 683 637 666T725 628L691 438H667L631
591Q603 618 575 630T509 643Q462 643 415 617T329 541T265 417T240 251Q240 199 253 157T289 85T343 39T410 23Q444 23 470 33T517 59L631 234H659L605 27Q565 12 508 -3T383 -18Z" />
<glyph unicode="&#x10d;" glyph-name="ccaron" horiz-adv-x="458" d="M498 769L368 573H297L241 769H276L348 652L464 769H498ZM281 449Q261 449 243 423T211 357T189 267T180 172Q180 124 195 105T234 85Q251 85 270 95T309 122T350 161T390 209L417 194Q391
146 364 108T306 41T239 -2T158 -17Q127 -17 101 -6T55 27T25 78T14 145Q14 219 50 294T168 432Q214 467 267 487T369 508Q390 508 407 501T438 483T459 458T467 430Q467 405 449 379T396 334Q364 383 333 416T281 449Z" />
<glyph unicode="&#x10e;" glyph-name="Dcaron" horiz-adv-x="769" d="M616 868L481 722H384L314 868H358L446 791L566 868H616ZM224 55Q235 49 255 44T299 38Q360 38 409 67T493 142T546 249T565 373Q565 437 548 484T501 564T429 613T338 634L224 55ZM-24 35L54
54L165 609L92 630L99 664L358 666Q446 666 518 647T641 590T721 500T749 378Q749 287 708 216T596 95T431 20T228 -4L-31 0L-24 35Z" />
<glyph unicode="&#x10f;" glyph-name="dcaron" horiz-adv-x="589" d="M617 522L673 729H790L789 722L644 522H617ZM342 505Q361 505 377 503T408 495L441 627L368 684L373 700L622 750L465 112H468Q489 129 511 154T551 205L579 193Q529 94 469 42T355 -13Q319
-13 306 16T306 85L344 201H339Q321 169 296 131T241 60T175 5T103 -17Q85 -17 67 -10T36 13T14 55T6 119Q7 189 37 258T116 382T223 471T342 505ZM395 444Q372 470 346 470Q313 470 282 438T226 356T186 248T169 138Q168 115 175 103T193 91Q209 91 236 118T291
188T344 283T381 386L395 444Z" />
<glyph unicode="&#x110;" glyph-name="Dcroat" horiz-adv-x="769" d="M-24 35L54 54L106 318H24L33 359H114L164 609L92 630L98 664L358 666Q446 666 518 647T641 590T721 500T749 378Q749 287 708 216T596 95T431 20T228 -4L-31 0L-24 35ZM276 318L224 55Q235
49 255 44T299 38Q360 38 409 67T493 142T546 249T565 373Q565 437 548 484T501 564T429 613T338 634L284 359H415L407 318H276Z" />
<glyph unicode="&#x111;" glyph-name="dcroat" horiz-adv-x="589" d="M279 598H433L446 648L368 684L373 700L622 750L584 598H657L647 560H575L465 112H468Q489 129 511 154T551 205L579 193Q529 94 469 42T355 -13Q319 -13 306 16T306 85L344 201H339Q321 169
296 131T241 60T175 5T103 -17Q85 -17 67 -10T36 13T14 55T6 119Q7 189 37 258T116 382T223 471T342 505Q361 505 377 503T408 495L424 560H269L279 598ZM395 444Q372 470 346 470Q313 470 282 438T226 356T186 248T169 138Q168 115 175 103T193 91Q209 91 236
118T291 188T344 283T381 386L395 444Z" />
<glyph unicode="&#x112;" glyph-name="Emacron" horiz-adv-x="628" d="M281 327L225 54Q233 49 248 44T286 39H412L547 231H581L513 0H-31L-24 35L54 54L165 609L92 630L99 664H554L636 665L600 467H568L527 625H339L288 366H382L436 468H469L420 216H383L373
327H281ZM271 837H569L554 763H255L271 837Z" />
<glyph unicode="&#x113;" glyph-name="emacron" horiz-adv-x="459" d="M165 -17Q91 -17 52 26T14 151Q16 232 58 304T167 429Q270 508 369 508Q387 508 404 504T434 489T455 464T463 428Q463 389 437 357T369 299T276 255T173 224Q172 219 172 214T172 203Q171
140 193 113T247 86Q266 86 286 95T325 120T361 154T393 193L419 178Q404 146 380 112T322 49T250 2T165 -17ZM299 457Q281 457 262 441T226 396T196 332T176 255Q206 266 233 284T281 323T315 370T329 419Q329 436 322 446T299 457ZM200 695H494L480 622H186L200
695Z" />
<glyph unicode="&#x114;" glyph-name="Ebreve" horiz-adv-x="628" d="M281 327L225 54Q233 49 248 44T286 39H412L547 231H581L513 0H-31L-24 35L54 54L165 609L92 630L99 664H554L636 665L600 467H568L527 625H339L288 366H382L436 468H469L420 216H383L373 327H281ZM402
717Q365 717 340 730T301 764T281 811T277 865H314Q323 837 344 818T411 798Q456 798 481 818T523 865H555Q551 838 541 812T513 764T467 730T402 717Z" />
<glyph unicode="&#x115;" glyph-name="ebreve" horiz-adv-x="459" d="M165 -17Q91 -17 52 26T14 151Q16 232 58 304T167 429Q270 508 369 508Q387 508 404 504T434 489T455 464T463 428Q463 389 437 357T369 299T276 255T173 224Q172 219 172 214T172 203Q171
140 193 113T247 86Q266 86 286 95T325 120T361 154T393 193L419 178Q404 146 380 112T322 49T250 2T165 -17ZM299 457Q281 457 262 441T226 396T196 332T176 255Q206 266 233 284T281 323T315 370T329 419Q329 436 322 446T299 457ZM334 577Q272 577 243 623T221
761H250Q255 704 279 681T341 658Q379 658 409 681T463 761H491Q478 680 439 629T334 577Z" />
<glyph unicode="&#x116;" glyph-name="Edotaccent" horiz-adv-x="628" d="M338 805Q338 838 361 861T418 885Q451 885 474 862T497 805Q497 773 474 750T418 726Q385 726 362 749T338 805ZM281 327L225 54Q233 49 248 44T286 39H412L547 231H581L513 0H-31L-24
35L54 54L165 609L92 630L99 664H554L636 665L600 467H568L527 625H339L288 366H382L436 468H469L420 216H383L373 327H281Z" />
<glyph unicode="&#x117;" glyph-name="edotaccent" horiz-adv-x="459" d="M165 -17Q91 -17 52 26T14 151Q16 232 58 304T167 429Q270 508 369 508Q387 508 404 504T434 489T455 464T463 428Q463 389 437 357T369 299T276 255T173 224Q172 219 172 214T172 203Q171
140 193 113T247 86Q266 86 286 95T325 120T361 154T393 193L419 178Q404 146 380 112T322 49T250 2T165 -17ZM299 457Q281 457 262 441T226 396T196 332T176 255Q206 266 233 284T281 323T315 370T329 419Q329 436 322 446T299 457ZM271 663Q271 697 294 720T351
744Q384 744 407 721T431 663Q431 630 408 607T351 583Q317 583 294 606T271 663Z" />
<glyph unicode="&#x118;" glyph-name="Eogonek" horiz-adv-x="628" d="M281 327L225 54Q233 49 248 44T286 39H412L547 231H581L513 0H424Q395 -27 377 -46T348 -78T334 -102T330 -123Q330 -139 340 -149T370 -159Q388 -159 406 -149T447 -116L466 -130Q437 -181
398 -214T311 -248Q271 -248 248 -226T225 -170Q225 -149 234 -131T262 -93T313 -51T391 0H-31L-24 35L54 54L165 609L92 630L99 664H554L636 665L600 467H568L527 625H339L288 366H382L436 468H469L420 216H383L373 327H281Z" />
<glyph unicode="&#x119;" glyph-name="eogonek" horiz-adv-x="459" d="M228 -7Q214 -11 199 -14T165 -17Q91 -17 52 26T14 151Q16 232 58 304T167 429Q270 508 369 508Q387 508 404 504T434 489T455 464T463 428Q463 389 437 357T369 299T276 255T173 224Q172
219 172 214T172 203Q171 140 193 113T247 86Q266 86 286 95T325 120T361 154T393 193L419 178Q403 143 375 105T316 36Q274 -5 249 -30T209 -71T190 -99T185 -122Q185 -159 225 -159Q242 -159 260 -149T301 -116L321 -130Q292 -181 253 -214T166 -248Q126 -248
103 -226T80 -170Q80 -147 88 -129T115 -92T161 -55T229 -12L228 -7ZM299 457Q281 457 262 441T226 396T196 332T176 255Q206 266 233 284T281 323T315 370T329 419Q329 436 322 446T299 457Z" />
<glyph unicode="&#x11a;" glyph-name="Ecaron" horiz-adv-x="628" d="M588 868L453 722H356L286 868H330L418 791L538 868H588ZM281 327L225 54Q233 49 248 44T286 39H412L547 231H581L513 0H-31L-24 35L54 54L165 609L92 630L99 664H554L636 665L600 467H568L527
625H339L288 366H382L436 468H469L420 216H383L373 327H281Z" />
<glyph unicode="&#x11b;" glyph-name="ecaron" horiz-adv-x="459" d="M484 769L354 573H283L227 769H262L334 652L450 769H484ZM165 -17Q91 -17 52 26T14 151Q16 232 58 304T167 429Q270 508 369 508Q387 508 404 504T434 489T455 464T463 428Q463 389 437 357T369
299T276 255T173 224Q172 219 172 214T172 203Q171 140 193 113T247 86Q266 86 286 95T325 120T361 154T393 193L419 178Q404 146 380 112T322 49T250 2T165 -17ZM299 457Q281 457 262 441T226 396T196 332T176 255Q206 266 233 284T281 323T315 370T329 419Q329
436 322 446T299 457Z" />
<glyph unicode="&#x11c;" glyph-name="Gcircumflex" horiz-adv-x="760" d="M349 722L484 868H583L651 722H608L518 794L400 722H349ZM236 259Q236 204 247 161T278 87T325 40T386 24Q423 24 451 42T488 100L517 255L418 274L426 312H745L737 274L680 255L639 42Q576
17 503 -1T355 -19Q288 -19 232 5T134 70T69 167T46 286Q46 370 82 442T181 568T332 652T524 683Q590 683 638 668T735 632L697 438H671L634 596Q615 616 586 629T516 643Q470 643 421 619T330 546T263 426T236 259Z" />
<glyph unicode="&#x11d;" glyph-name="gcircumflex" horiz-adv-x="507" d="M177 573L307 769H380L435 573H399L327 685L214 573H177ZM280 504Q306 504 329 499T376 488L534 503L528 431L417 446L416 441Q428 428 437 406T446 355Q446 320 430 286T385 224T314
180T218 163Q203 163 189 164T162 169Q146 159 146 143Q146 132 154 124T190 107L350 51Q404 33 425 7T446 -52Q446 -95 420 -130T352 -191T255 -229T141 -243Q85 -243 45 -234T-22 -210T-60 -174T-73 -130Q-72 -88 -30 -63T85 -25V-22Q57 -11 36 11T15 66Q15 86
22 101T44 128T79 152T126 178V182Q88 199 66 231T44 309Q45 346 60 381T105 443T178 487T280 504ZM117 -33Q93 -41 75 -58T56 -105Q56 -127 66 -144T96 -174T142 -192T201 -199Q227 -199 251 -194T293 -179T322 -158T333 -131Q333 -117 321 -106T281 -86L117 -33ZM285
469Q266 469 247 447T211 391T185 317T175 242Q174 218 180 206T203 193Q223 193 243 215T278 270T304 343T315 419Q315 437 309 453T285 469Z" />
<glyph unicode="&#x11e;" glyph-name="Gbreve" horiz-adv-x="760" d="M503 717Q466 717 441 730T402 764T382 811T378 865H415Q424 837 445 818T512 798Q557 798 582 818T624 865H656Q652 838 642 812T614 764T568 730T503 717ZM236 259Q236 204 247 161T278 87T325
40T386 24Q423 24 451 42T488 100L517 255L418 274L426 312H745L737 274L680 255L639 42Q576 17 503 -1T355 -19Q288 -19 232 5T134 70T69 167T46 286Q46 370 82 442T181 568T332 652T524 683Q590 683 638 668T735 632L697 438H671L634 596Q615 616 586 629T516
643Q470 643 421 619T330 546T263 426T236 259Z" />
<glyph unicode="&#x11f;" glyph-name="gbreve" horiz-adv-x="507" d="M280 504Q306 504 329 499T376 488L534 503L528 431L417 446L416 441Q428 428 437 406T446 355Q446 320 430 286T385 224T314 180T218 163Q203 163 189 164T162 169Q146 159 146 143Q146 132
154 124T190 107L350 51Q404 33 425 7T446 -52Q446 -95 420 -130T352 -191T255 -229T141 -243Q85 -243 45 -234T-22 -210T-60 -174T-73 -130Q-72 -88 -30 -63T85 -25V-22Q57 -11 36 11T15 66Q15 86 22 101T44 128T79 152T126 178V182Q88 199 66 231T44 309Q45 346
60 381T105 443T178 487T280 504ZM117 -33Q93 -41 75 -58T56 -105Q56 -127 66 -144T96 -174T142 -192T201 -199Q227 -199 251 -194T293 -179T322 -158T333 -131Q333 -117 321 -106T281 -86L117 -33ZM285 469Q266 469 247 447T211 391T185 317T175 242Q174 218 180
206T203 193Q223 193 243 215T278 270T304 343T315 419Q315 437 309 453T285 469ZM312 577Q250 577 221 623T199 761H228Q233 704 257 681T319 658Q357 658 387 681T441 761H469Q456 680 417 629T312 577Z" />
<glyph unicode="&#x120;" glyph-name="Gdotaccent" horiz-adv-x="760" d="M443 805Q443 838 466 861T523 885Q556 885 579 862T602 805Q602 773 579 750T523 726Q490 726 467 749T443 805ZM236 259Q236 204 247 161T278 87T325 40T386 24Q423 24 451 42T488 100L517
255L418 274L426 312H745L737 274L680 255L639 42Q576 17 503 -1T355 -19Q288 -19 232 5T134 70T69 167T46 286Q46 370 82 442T181 568T332 652T524 683Q590 683 638 668T735 632L697 438H671L634 596Q615 616 586 629T516 643Q470 643 421 619T330 546T263 426T236
259Z" />
<glyph unicode="&#x121;" glyph-name="gdotaccent" horiz-adv-x="507" d="M280 504Q306 504 329 499T376 488L534 503L528 431L417 446L416 441Q428 428 437 406T446 355Q446 320 430 286T385 224T314 180T218 163Q203 163 189 164T162 169Q146 159 146 143Q146
132 154 124T190 107L350 51Q404 33 425 7T446 -52Q446 -95 420 -130T352 -191T255 -229T141 -243Q85 -243 45 -234T-22 -210T-60 -174T-73 -130Q-72 -88 -30 -63T85 -25V-22Q57 -11 36 11T15 66Q15 86 22 101T44 128T79 152T126 178V182Q88 199 66 231T44 309Q45
346 60 381T105 443T178 487T280 504ZM117 -33Q93 -41 75 -58T56 -105Q56 -127 66 -144T96 -174T142 -192T201 -199Q227 -199 251 -194T293 -179T322 -158T333 -131Q333 -117 321 -106T281 -86L117 -33ZM285 469Q266 469 247 447T211 391T185 317T175 242Q174 218
180 206T203 193Q223 193 243 215T278 270T304 343T315 419Q315 437 309 453T285 469ZM244 663Q244 697 267 720T324 744Q357 744 380 721T404 663Q404 630 381 607T324 583Q290 583 267 606T244 663Z" />
<glyph unicode="&#x122;" glyph-name="Gcommaaccent" horiz-adv-x="760" d="M219 -229Q273 -209 295 -190T318 -147Q318 -128 303 -116T265 -100V-94Q274 -71 295 -57T348 -43Q386 -43 408 -66T431 -120Q431 -169 380 -201T227 -255L219 -229ZM236 259Q236 204
247 161T278 87T325 40T386 24Q423 24 451 42T488 100L517 255L418 274L426 312H745L737 274L680 255L639 42Q576 17 503 -1T355 -19Q288 -19 232 5T134 70T69 167T46 286Q46 370 82 442T181 568T332 652T524 683Q590 683 638 668T735 632L697 438H671L634 596Q615
616 586 629T516 643Q470 643 421 619T330 546T263 426T236 259Z" />
<glyph unicode="&#x123;" glyph-name="gcommaaccent" horiz-adv-x="507" d="M456 773Q402 754 380 735T357 691Q357 673 372 661T410 644V639Q401 616 380 602T327 587Q289 587 267 610T244 664Q244 713 295 745T448 799L456 773ZM280 504Q306 504 329 499T376
488L534 503L528 431L417 446L416 441Q428 428 437 406T446 355Q446 320 430 286T385 224T314 180T218 163Q203 163 189 164T162 169Q146 159 146 143Q146 132 154 124T190 107L350 51Q404 33 425 7T446 -52Q446 -95 420 -130T352 -191T255 -229T141 -243Q85 -243
45 -234T-22 -210T-60 -174T-73 -130Q-72 -88 -30 -63T85 -25V-22Q57 -11 36 11T15 66Q15 86 22 101T44 128T79 152T126 178V182Q88 199 66 231T44 309Q45 346 60 381T105 443T178 487T280 504ZM117 -33Q93 -41 75 -58T56 -105Q56 -127 66 -144T96 -174T142 -192T201
-199Q227 -199 251 -194T293 -179T322 -158T333 -131Q333 -117 321 -106T281 -86L117 -33ZM285 469Q266 469 247 447T211 391T185 317T175 242Q174 218 180 206T203 193Q223 193 243 215T278 270T304 343T315 419Q315 437 309 453T285 469Z" />
<glyph unicode="&#x124;" glyph-name="Hcircumflex" horiz-adv-x="796" d="M406 35L483 54L535 318H278L226 54L292 34L286 0H-31L-24 35L54 54L164 609L92 630L98 664H416L409 629L335 609L287 367H544L593 610L525 630L532 664H850L843 629L764 610L654 54L726
34L719 0H400L406 35ZM336 722L471 868H570L638 722H595L505 794L387 722H336Z" />
<glyph unicode="&#x125;" glyph-name="hcircumflex" horiz-adv-x="583" d="M215 284H225Q247 327 274 367T332 439T396 488T464 507Q504 507 525 480T530 388L458 112H462Q482 129 503 154T545 205L572 193Q521 95 461 41T343 -13Q330 -13 318 -8T299 10T289 40T294
86L371 365Q378 394 362 394Q348 394 323 367T268 294T210 189T164 67L148 13L11 -16L-4 -1L151 627L82 684L87 700L330 751L215 284ZM238 763L373 909H472L540 763H497L407 835L289 763H238Z" />
<glyph unicode="&#x126;" glyph-name="Hbar" horiz-adv-x="796" d="M406 35L483 54L535 318H278L226 54L292 34L286 0H-31L-24 35L54 54L137 475H46L56 523H147L164 609L92 630L99 664H417L410 629L336 609L319 523H575L593 610L525 630L532 664H850L843 629L764
610L747 523H841L831 475H737L654 54L726 34L719 0H400L406 35ZM288 367H544L566 475H309L288 367Z" />
<glyph unicode="&#x127;" glyph-name="hbar" horiz-adv-x="583" d="M71 598H144L156 648L82 684L87 700L330 751L292 598H446L436 560H283L215 284H225Q247 327 274 367T332 439T396 488T463 507Q503 507 524 480T530 388L458 112H462Q482 129 503 154T545 205L573
193Q522 95 461 41T343 -13Q330 -13 318 -8T299 10T289 40T294 86L371 365Q378 394 362 394Q348 394 323 367T268 294T210 189T164 67L148 13L11 -16L-4 -1L134 560H62L71 598Z" />
<glyph unicode="&#x128;" glyph-name="Itilde" horiz-adv-x="367" d="M-24 35L54 54L165 609L92 630L99 664H421L414 629L336 610L225 54L297 34L290 0H-31L-24 35ZM352 752L360 768Q381 809 400 834T442 870T491 880T551 868L589 856Q611 849 629 847T663 848T695
864T728 897L748 888L736 867Q713 823 693 798T652 762T605 751T545 764L506 775Q479 783 460 786T425 786T398 773T372 743L352 752Z" />
<glyph unicode="&#x129;" glyph-name="itilde" horiz-adv-x="308" d="M66 584L74 601Q95 641 115 666T158 703T205 714T262 699L270 696Q308 680 336 688T396 739L417 729L405 708Q381 665 361 638T319 599T273 588T217 604L208 608Q184 618 167 621T137 621T111
605T86 574L66 584ZM109 403Q103 407 93 410T70 415T44 417T20 414L24 434Q38 447 56 460T97 484T143 501T193 508Q210 508 225 502T251 482T263 445T257 385L185 112H190Q210 129 232 154T272 205L300 193Q276 146 249 108T193 43T133 2T72 -13Q58 -13 47 -8T28
10T18 40T22 86L109 403Z" />
<glyph unicode="&#x12a;" glyph-name="Imacron" horiz-adv-x="367" d="M155 837H442L426 763H140L155 837ZM-24 35L54 54L165 609L92 630L99 664H421L414 629L336 610L225 54L297 34L290 0H-31L-24 35Z" />
<glyph unicode="&#x12b;" glyph-name="imacron" horiz-adv-x="308" d="M100 696H360L346 623H85L100 696ZM109 403Q103 407 93 410T70 415T44 417T20 414L24 434Q38 447 56 460T97 484T143 501T193 508Q210 508 225 502T251 482T263 445T257 385L185 112H190Q210
129 232 154T272 205L300 193Q276 146 249 108T193 43T133 2T72 -13Q58 -13 47 -8T28 10T18 40T22 86L109 403Z" />
<glyph unicode="&#x12c;" glyph-name="Ibreve" horiz-adv-x="367" d="M-24 35L54 54L165 609L92 630L99 664H421L414 629L336 610L225 54L297 34L290 0H-31L-24 35ZM531 717Q494 717 469 730T430 764T410 811T406 865H443Q452 837 473 818T540 798Q585 798 610
818T652 865H684Q680 838 670 812T642 764T596 730T531 717Z" />
<glyph unicode="&#x12d;" glyph-name="ibreve" horiz-adv-x="308" d="M366 403Q360 407 350 410T327 415T301 417T277 414L281 434Q295 447 313 460T354 484T400 501T450 508Q467 508 482 502T508 482T520 445T514 385L442 112H447Q467 129 489 154T529 205L557
193Q533 146 506 108T450 43T390 2T329 -13Q315 -13 304 -8T285 10T275 40T279 86L366 403ZM472 577Q410 577 381 623T359 761H388Q393 704 417 681T479 658Q517 658 547 681T601 761H629Q616 680 577 629T472 577Z" />
<glyph unicode="&#x12e;" glyph-name="Iogonek" horiz-adv-x="367" d="M-24 35L54 54L165 609L92 630L99 664H421L414 629L336 610L225 54L297 34L290 0H148Q129 -27 117 -45T98 -77T89 -101T86 -122Q86 -139 97 -149T126 -159Q143 -159 162 -149T203 -116L223
-130Q193 -181 155 -214T68 -248Q28 -248 5 -226T-18 -170Q-18 -149 -10 -131T16 -93T59 -51T122 0H-31L-24 35Z" />
<glyph unicode="&#x12f;" glyph-name="iogonek" horiz-adv-x="308" d="M108 403Q102 407 92 410T70 415T44 417T20 414L23 434Q37 447 56 460T96 484T142 501T193 508Q210 508 225 502T251 482T263 445T257 385L185 112H190Q210 129 231 154T272 205L300 193Q288
170 276 150T250 111T219 71T177 29Q138 -9 114 -33T77 -74T60 -101T56 -123Q56 -139 66 -149T96 -159Q113 -159 131 -149T173 -116L192 -130Q162 -181 124 -214T37 -248Q-4 -248 -26 -225T-49 -170Q-49 -148 -40 -130T-12 -94T32 -57T91 -15L90 -13H76Q61 -13
48 -7T27 11T17 41T22 86L108 403ZM224 582Q191 582 168 605T145 663Q145 696 168 720T225 744Q260 744 283 720T306 663Q306 629 282 606T224 582Z" />
<glyph unicode="&#x130;" glyph-name="Idotaccent" horiz-adv-x="367" d="M-24 35L54 54L165 609L92 630L99 664H421L414 629L336 610L225 54L297 34L290 0H-31L-24 35ZM457 805Q457 838 480 861T537 885Q570 885 593 862T616 805Q616 773 593 750T537 726Q504
726 481 749T457 805Z" />
<glyph unicode="&#x131;" glyph-name="dotlessi" horiz-adv-x="310" d="M111 403Q105 407 95 410T72 415T46 417T22 414L26 434Q40 447 58 460T99 484T145 501T195 508Q212 508 227 502T253 482T265 445T259 385L187 112H192Q212 129 234 154T274 205L302 193Q278
146 251 108T195 43T135 2T74 -13Q60 -13 49 -8T30 10T20 40T24 86L111 403Z" />
<glyph unicode="&#x132;" glyph-name="IJ" horiz-adv-x="730" d="M-24 35L54 54L165 609L92 630L99 664H421L414 629L336 610L225 54L297 34L290 0H-31L-24 35ZM591 72Q579 10 555 -38T492 -121T395 -178T259 -211L252 -186Q295 -161 323 -136T369 -83T398 -22T417
52L528 610L450 630L456 664H783L776 629L698 610L591 72Z" />
<glyph unicode="&#x133;" glyph-name="ij" horiz-adv-x="584" d="M108 403Q102 407 92 410T70 415T44 417T20 414L23 434Q37 447 56 460T96 484T142 501T193 508Q210 508 225 502T251 482T263 445T257 385L185 112H190Q210 129 231 154T272 205L300 193Q276 146
249 108T193 43T133 2T72 -13Q58 -13 46 -8T27 10T17 40T22 86L108 403ZM141 663Q141 696 164 720T221 744Q255 744 279 720T303 663Q303 629 279 606T221 582Q187 582 164 605T141 663ZM404 402Q391 411 365 415T315 414L318 434Q332 447 350 460T390 484T436
501T486 508Q503 508 518 502T544 482T557 443T552 382L484 90Q466 12 433 -50T357 -155T265 -222T167 -245Q150 -245 135 -240T107 -226T86 -204T78 -175Q76 -142 100 -121T166 -88Q186 -139 199 -163T232 -187Q245 -187 256 -167T278 -111T299 -29T323 71L404
402ZM436 663Q436 696 459 720T516 744Q550 744 573 720T597 663Q597 629 573 606T515 582Q482 582 459 605T436 663Z" />
<glyph unicode="&#x134;" glyph-name="Jcircumflex" horiz-adv-x="372" d="M117 722L252 868H351L419 722H376L286 794L168 722H117ZM233 72Q221 10 197 -38T134 -121T37 -178T-99 -211L-106 -186Q-63 -161 -35 -136T11 -83T40 -22T59 52L170 610L92 630L98 664H425L418
629L340 610L233 72Z" />
<glyph unicode="&#x135;" glyph-name="jcircumflex" horiz-adv-x="291" d="M111 402Q98 411 72 415T22 414L25 434Q39 447 57 460T97 484T143 501T193 508Q210 508 225 502T251 482T264 443T259 382L191 90Q173 12 140 -50T64 -155T-28 -222T-126 -245Q-143 -245
-158 -240T-186 -226T-207 -204T-215 -175Q-217 -142 -193 -121T-127 -88Q-107 -139 -94 -163T-61 -187Q-48 -187 -37 -167T-15 -111T6 -29T30 71L111 402ZM335 573L465 769H538L593 573H557L485 685L372 573H335Z" />
<glyph unicode="&#x136;" glyph-name="Kcommaaccent" horiz-adv-x="722" d="M204 -229Q258 -209 280 -190T303 -147Q303 -128 288 -116T250 -100V-94Q259 -71 280 -57T333 -43Q371 -43 393 -66T416 -120Q416 -169 365 -201T212 -255L204 -229ZM-24 35L54 54L164
609L92 630L99 664H424L417 629L336 610L226 56L292 34L287 0H-31L-24 35ZM681 0Q619 -6 576 -8T500 -2T444 28T398 90T350 192T289 345V347L604 610L525 629L530 664H758L751 629L670 610L431 415Q465 330 491 270T538 170T577 106T611 67T647 46T687 33L681 0Z"
/>
<glyph unicode="&#x137;" glyph-name="kcommaaccent" horiz-adv-x="551" d="M86 -229Q140 -209 162 -190T185 -147Q185 -128 170 -116T132 -100V-94Q141 -71 162 -57T215 -43Q253 -43 275 -66T298 -120Q298 -169 247 -201T94 -255L86 -229ZM427 -40Q402 -40 383
-36T347 -20T315 9T281 56L202 178Q175 120 159 61L146 12L11 -16L-4 -1L151 627L81 684L87 700L330 751L215 285H223Q244 327 269 366T325 437T388 488T457 507Q491 507 516 485T541 419Q541 369 496 320T342 218L505 -6L504 -21Q493 -27 475 -33T427 -40ZM387
400Q369 400 346 383T299 336T250 267T205 185Q316 234 367 279T419 364Q419 381 411 390T387 400Z" />
<glyph unicode="&#x138;" glyph-name="kgreenlandic" horiz-adv-x="561" d="M108 403Q97 411 73 415T20 414L24 434Q37 447 55 460T93 484T134 501T177 508Q199 508 217 500T246 476T258 434T249 375L216 271H223Q245 315 272 357T331 433T396 486T466 507Q501
507 526 485T551 419Q551 368 506 320T351 218L514 -6L513 -21Q503 -27 484 -33T437 -40Q411 -40 392 -36T357 -20T326 9T292 56L212 179Q198 150 188 120T169 61L156 12L15 -16L1 -1L108 403ZM396 400Q378 400 355 383T308 336T259 267T215 185Q325 234 377 279T429
364Q429 381 421 390T396 400Z" />
<glyph unicode="&#x139;" glyph-name="Lacute" horiz-adv-x="587" d="M713 868V855L550 722H502L584 868H713ZM224 53Q234 47 249 43T285 38H383L530 258H566L489 0H-31L-24 35L54 54L164 609L92 630L99 664H424L417 629L336 609L224 53Z" />
<glyph unicode="&#x13a;" glyph-name="lacute" horiz-adv-x="295" d="M696 909V896L533 763H485L567 909H696ZM288 193Q237 91 176 39T60 -13Q46 -13 34 -8T15 10T6 40T10 86L145 627L73 684L77 700L327 751L173 112H178Q200 130 220 154T260 205L288 193Z" />
<glyph unicode="&#x13b;" glyph-name="Lcommaaccent" horiz-adv-x="587" d="M119 -229Q173 -209 195 -190T218 -147Q218 -128 203 -116T165 -100V-94Q174 -71 195 -57T248 -43Q286 -43 308 -66T331 -120Q331 -169 280 -201T127 -255L119 -229ZM224 53Q234 47 249
43T285 38H383L530 258H566L489 0H-31L-24 35L54 54L164 609L92 630L99 664H424L417 629L336 609L224 53Z" />
<glyph unicode="&#x13c;" glyph-name="lcommaaccent" horiz-adv-x="295" d="M-72 -229Q-18 -209 4 -190T27 -147Q27 -128 12 -116T-26 -100V-94Q-17 -71 4 -57T57 -43Q95 -43 117 -66T140 -120Q140 -169 89 -201T-64 -255L-72 -229ZM288 193Q237 91 176 39T60
-13Q46 -13 34 -8T15 10T6 40T10 86L145 627L73 684L77 700L327 751L173 112H178Q200 130 220 154T260 205L288 193Z" />
<glyph unicode="&#x13d;" glyph-name="Lcaron" horiz-adv-x="587" d="M474 522L530 729H647L646 722L501 522H474ZM224 53Q234 47 249 43T285 38H383L530 258H566L489 0H-31L-24 35L54 54L164 609L92 630L99 664H424L417 629L336 609L224 53Z" />
<glyph unicode="&#x13e;" glyph-name="lcaron" horiz-adv-x="295" d="M323 522L379 729H496L495 722L350 522H323ZM288 193Q237 91 176 39T60 -13Q46 -13 34 -8T15 10T6 40T10 86L145 627L73 684L77 700L327 751L173 112H178Q200 130 220 154T260 205L288 193Z" />
<glyph unicode="&#x13f;" glyph-name="Ldot" horiz-adv-x="588" d="M224 53Q234 47 249 43T285 38H383L525 227H560L489 0H-31L-24 35L54 54L164 609L92 630L99 664H424L417 629L336 609L224 53ZM519 288Q503 288 489 294T463 312T445 337T438 368Q438 385 444
400T462 426T488 443T519 450Q553 450 577 426T601 368Q601 352 595 338T577 312T551 295T519 288Z" />
<glyph unicode="&#x140;" glyph-name="ldot" horiz-adv-x="405" d="M359 301Q328 301 306 323T283 376Q283 408 305 430T359 453Q391 453 413 431T436 376Q436 346 414 324T359 301ZM288 193Q237 91 176 39T60 -13Q46 -13 34 -8T15 10T6 40T10 86L145 627L73 684L77
700L327 751L173 112H178Q200 130 220 154T260 205L288 193Z" />
<glyph unicode="&#x141;" glyph-name="Lslash" horiz-adv-x="587" d="M25 287L105 310L165 609L92 630L99 664H424L417 629L336 609L287 363L473 417L464 372L278 318L225 54Q234 48 250 44T286 39H384L530 258H566L489 0H-31L-24 35L54 54L96 265L16 242L25 287Z" />
<glyph unicode="&#x142;" glyph-name="lslash" horiz-adv-x="295" d="M7 335L79 365L145 627L72 684L77 700L326 751L250 435L333 469L322 420L238 385L173 112H177Q200 130 220 154T260 205L288 193Q237 91 176 39T60 -13Q46 -13 34 -8T15 10T6 40T10 86L67 315L-5
285L7 335Z" />
<glyph unicode="&#x143;" glyph-name="Nacute" horiz-adv-x="715" d="M638 868V855L475 722H427L509 868H638ZM487 -3L194 515L111 57L204 34L198 0H-31L-24 35L55 54L157 574Q145 593 128 605T97 623L80 630L87 664H303L559 215L627 607L535 630L541 664H769L762
629L683 610L587 127L567 -3H487Z" />
<glyph unicode="&#x144;" glyph-name="nacute" horiz-adv-x="591" d="M530 769V762L372 573H340L409 769H530ZM108 403Q97 411 73 415T20 414L24 434Q37 447 55 460T93 484T134 501T177 508Q199 508 217 500T245 476T257 434T249 375L217 271H226Q252 320 280
363T339 438T403 488T472 507Q512 507 533 479T538 387L465 112H470Q490 129 511 154T553 205L580 193Q532 98 472 43T352 -13Q339 -13 327 -8T307 10T297 40T302 86L379 365Q386 394 370 394Q356 394 330 367T276 293T219 189T172 67L156 13L15 -16L0 -1L108 403Z"
/>
<glyph unicode="&#x145;" glyph-name="Ncommaaccent" horiz-adv-x="715" d="M166 -229Q220 -209 242 -190T265 -147Q265 -128 250 -116T212 -100V-94Q221 -71 242 -57T295 -43Q333 -43 355 -66T378 -120Q378 -169 327 -201T174 -255L166 -229ZM487 -3L194 515L111
57L204 34L198 0H-31L-24 35L55 54L157 574Q145 593 128 605T97 623L80 630L87 664H303L559 215L627 607L535 630L541 664H769L762 629L683 610L587 127L567 -3H487Z" />
<glyph unicode="&#x146;" glyph-name="ncommaaccent" horiz-adv-x="591" d="M84 -229Q138 -209 160 -190T183 -147Q183 -128 168 -116T130 -100V-94Q139 -71 160 -57T213 -43Q251 -43 273 -66T296 -120Q296 -169 245 -201T92 -255L84 -229ZM108 403Q97 411 73
415T20 414L24 434Q37 447 55 460T93 484T134 501T177 508Q199 508 217 500T245 476T257 434T249 375L217 271H226Q252 320 280 363T339 438T403 488T472 507Q512 507 533 479T538 387L465 112H470Q490 129 511 154T553 205L580 193Q532 98 472 43T352 -13Q339
-13 327 -8T307 10T297 40T302 86L379 365Q386 394 370 394Q356 394 330 367T276 293T219 189T172 67L156 13L15 -16L0 -1L108 403Z" />
<glyph unicode="&#x147;" glyph-name="Ncaron" horiz-adv-x="715" d="M638 868L503 722H406L336 868H380L468 791L588 868H638ZM487 -3L194 515L111 57L204 34L198 0H-31L-24 35L55 54L157 574Q145 593 128 605T97 623L80 630L87 664H303L559 215L627 607L535
630L541 664H769L762 629L683 610L587 127L567 -3H487Z" />
<glyph unicode="&#x148;" glyph-name="ncaron" horiz-adv-x="591" d="M524 769L394 573H323L267 769H302L374 652L490 769H524ZM108 403Q97 411 73 415T20 414L24 434Q37 447 55 460T93 484T134 501T177 508Q199 508 217 500T245 476T257 434T249 375L217 271H226Q252
320 280 363T339 438T403 488T472 507Q512 507 533 479T538 387L465 112H470Q490 129 511 154T553 205L580 193Q532 98 472 43T352 -13Q339 -13 327 -8T307 10T297 40T302 86L379 365Q386 394 370 394Q356 394 330 367T276 293T219 189T172 67L156 13L15 -16L0
-1L108 403Z" />
<glyph unicode="&#x149;" glyph-name="napostrophe" horiz-adv-x="591" d="M7 558Q61 578 83 597T106 640Q106 659 91 671T53 687V693Q62 716 83 730T136 744Q174 744 196 721T219 667Q219 618 168 586T15 532L7 558ZM108 403Q97 411 73 415T20 414L24 434Q37
447 55 460T93 484T134 501T177 508Q199 508 217 500T245 476T257 434T249 375L217 271H226Q252 320 280 363T339 438T403 488T472 507Q512 507 533 479T538 387L465 112H470Q490 129 511 154T553 205L580 193Q532 98 472 43T352 -13Q339 -13 327 -8T307 10T297
40T302 86L379 365Q386 394 370 394Q356 394 330 367T276 293T219 189T172 67L156 13L15 -16L0 -1L108 403Z" />
<glyph unicode="&#x14a;" glyph-name="Eng" horiz-adv-x="715" d="M274 -180Q317 -163 350 -144T409 -101T450 -50T478 12L193 516L111 57L204 34L198 0H-31L-24 35L55 54L157 574Q145 593 128 605T97 623L80 630L87 664H303L559 215L627 607L535 630L541 664H769L762
629L683 610L582 103Q566 22 542 -32T482 -121T397 -174T280 -203L274 -180Z" />
<glyph unicode="&#x14b;" glyph-name="eng" horiz-adv-x="568" d="M379 365Q386 394 370 394Q356 394 330 367T276 293T219 189T172 67L156 13L15 -16L0 -1L108 403Q97 411 73 415T20 414L24 434Q37 447 55 460T93 484T134 501T177 508Q199 508 217 500T245 476T257
434T249 375L217 271H226Q252 320 280 363T339 438T403 488T472 507Q512 507 533 479T538 387L463 90Q443 12 408 -50T329 -155T236 -222T137 -245Q120 -245 104 -240T76 -226T57 -203T49 -174Q49 -157 57 -143T77 -119T106 -101T140 -88Q177 -187 207 -187Q219
-187 230 -167T252 -112T276 -30T302 71L379 365Z" />
<glyph unicode="&#x14c;" glyph-name="Omacron" horiz-adv-x="779" d="M346 837H644L629 763H330L346 837ZM461 684Q516 684 569 665T665 607T732 510T758 372Q758 301 729 231T645 106T513 16T341 -19Q286 -19 233 0T139 57T72 154T46 292Q46 363 75 433T159
559T290 649T461 684ZM571 453Q571 484 566 518T547 581T511 628T457 647Q406 647 365 609T295 510T249 371T233 215Q233 183 238 148T257 84T291 36T345 17Q380 17 410 34T465 83T510 155T543 245T564 347T571 453Z" />
<glyph unicode="&#x14d;" glyph-name="omacron" horiz-adv-x="550" d="M225 695H519L505 622H211L225 695ZM327 474Q308 474 291 456T257 408T228 340T204 261T188 182T182 111Q181 63 188 40T218 16Q246 16 272 53T320 145T354 261T368 373Q368 394 367 412T361
444T348 466T327 474ZM336 506Q383 506 419 490T479 445T516 380T529 302Q529 247 510 191T450 88T351 13T212 -16Q165 -16 129 -1T69 41T32 106T19 190Q19 240 37 295T95 398T194 475T336 506Z" />
<glyph unicode="&#x14e;" glyph-name="Obreve" horiz-adv-x="779" d="M477 717Q440 717 415 730T376 764T356 811T352 865H389Q398 837 419 818T486 798Q531 798 556 818T598 865H630Q626 838 616 812T588 764T542 730T477 717ZM461 684Q516 684 569 665T665 607T732
510T758 372Q758 301 729 231T645 106T513 16T341 -19Q286 -19 233 0T139 57T72 154T46 292Q46 363 75 433T159 559T290 649T461 684ZM571 453Q571 484 566 518T547 581T511 628T457 647Q406 647 365 609T295 510T249 371T233 215Q233 183 238 148T257 84T291 36T345
17Q380 17 410 34T465 83T510 155T543 245T564 347T571 453Z" />
<glyph unicode="&#x14f;" glyph-name="obreve" horiz-adv-x="550" d="M327 474Q308 474 291 456T257 408T228 340T204 261T188 182T182 111Q181 63 188 40T218 16Q246 16 272 53T320 145T354 261T368 373Q368 394 367 412T361 444T348 466T327 474ZM336 506Q383
506 419 490T479 445T516 380T529 302Q529 247 510 191T450 88T351 13T212 -16Q165 -16 129 -1T69 41T32 106T19 190Q19 240 37 295T95 398T194 475T336 506ZM355 577Q293 577 264 623T242 761H271Q276 704 300 681T362 658Q400 658 430 681T484 761H512Q499 680
460 629T355 577Z" />
<glyph unicode="&#x150;" glyph-name="Ohungarumlaut" horiz-adv-x="779" d="M699 855L568 722H521L584 868H699V855ZM524 855L393 722H346L409 868H524V855ZM461 684Q516 684 569 665T665 607T732 510T758 372Q758 301 729 231T645 106T513 16T341 -19Q286 -19
233 0T139 57T72 154T46 292Q46 363 75 433T159 559T290 649T461 684ZM571 453Q571 484 566 518T547 581T511 628T457 647Q406 647 365 609T295 510T249 371T233 215Q233 183 238 148T257 84T291 36T345 17Q380 17 410 34T465 83T510 155T543 245T564 347T571 453Z"
/>
<glyph unicode="&#x151;" glyph-name="ohungarumlaut" horiz-adv-x="550" d="M409 769V760L276 573H244L298 769H409ZM570 769V760L438 573H406L460 769H570ZM327 474Q308 474 291 456T257 408T228 340T204 261T188 182T182 111Q181 63 188 40T218 16Q246 16 272
53T320 145T354 261T368 373Q368 394 367 412T361 444T348 466T327 474ZM336 506Q383 506 419 490T479 445T516 380T529 302Q529 247 510 191T450 88T351 13T212 -16Q165 -16 129 -1T69 41T32 106T19 190Q19 240 37 295T95 398T194 475T336 506Z" />
<glyph unicode="&#x152;" glyph-name="OE" horiz-adv-x="1032" d="M627 0Q586 0 557 0T505 -1T465 -2T429 -3T391 -4T343 -5Q269 -5 214 17T121 78T65 172T46 291Q46 372 79 442T170 563T303 643T467 672Q489 672 519 671T593 668T697 665T839 664H960L1040 665L1004
467H972L931 623H749L699 366H786L840 468H873L824 216H788L778 327H691L636 56Q644 51 659 46T697 41H816L952 231H986L918 0H627ZM574 598Q557 610 531 622T466 635Q409 635 366 598T293 501T248 366T233 215Q233 176 239 142T259 83T296 44T356 29Q403 29 440
67T493 186L574 598Z" />
<glyph unicode="&#x153;" glyph-name="oe" horiz-adv-x="808" d="M521 -17Q481 -17 452 4T406 64Q371 29 324 7T213 -16Q165 -16 129 -1T69 41T32 107T20 192Q21 242 40 297T97 399T195 476T337 506Q407 506 444 476T497 403Q540 450 596 479T719 508Q737 508
754 504T785 489T807 464T815 428Q815 390 789 358T721 300T628 255T526 225Q525 219 525 214T525 203Q523 140 545 113T599 85Q618 85 637 94T676 119T713 154T745 193L771 178Q756 146 732 112T675 49T603 2T521 -17ZM327 474Q309 474 292 456T258 408T229 340T205
261T189 182T183 111Q181 63 189 40T219 16Q247 16 273 53T321 145T355 261T369 373Q370 415 362 444T327 474ZM652 457Q634 457 615 441T579 396T549 332T529 255Q559 266 586 284T634 323T668 370T681 419Q681 436 674 446T652 457Z" />
<glyph unicode="&#x154;" glyph-name="Racute" horiz-adv-x="714" d="M584 868V855L421 722H373L455 868H584ZM-24 35L54 54L164 609L92 630L99 664L372 666Q501 668 572 627T644 511Q644 445 595 405T467 344Q494 276 514 228T550 148T581 96T610 65T642 47T682
34L676 0Q615 -5 573 -7T500 -2T448 23T408 77T368 166T321 299H268L220 56L303 34L297 0H-31L-24 35ZM275 335Q378 343 428 387T478 503Q478 530 469 553T442 594T397 623T334 635L275 335Z" />
<glyph unicode="&#x155;" glyph-name="racute" horiz-adv-x="473" d="M488 769V762L330 573H298L367 769H488ZM31 118Q34 127 38 144T49 184T61 231T74 280Q89 337 107 404Q100 409 76 415T19 415L22 434Q53 466 96 487T179 508Q198 508 215 501T244 479T257 440T247
381L196 226H207Q243 311 272 365T326 451T375 495T422 508Q456 508 473 491T491 445Q491 418 479 397T450 361T413 337T376 324H354Q365 353 367 371T357 389Q344 389 321 361T273 289T222 191T180 84L156 13L14 -16L0 -1L31 118Z" />
<glyph unicode="&#x156;" glyph-name="Rcommaaccent" horiz-adv-x="714" d="M216 -229Q270 -209 292 -190T315 -147Q315 -128 300 -116T262 -100V-94Q271 -71 292 -57T345 -43Q383 -43 405 -66T428 -120Q428 -169 377 -201T224 -255L216 -229ZM-24 35L54 54L164
609L92 630L99 664L372 666Q501 668 572 627T644 511Q644 445 595 405T467 344Q494 276 514 228T550 148T581 96T610 65T642 47T682 34L676 0Q615 -5 573 -7T500 -2T448 23T408 77T368 166T321 299H268L220 56L303 34L297 0H-31L-24 35ZM275 335Q378 343 428 387T478
503Q478 530 469 553T442 594T397 623T334 635L275 335Z" />
<glyph unicode="&#x157;" glyph-name="rcommaaccent" horiz-adv-x="473" d="M-62 -229Q-8 -209 14 -190T37 -147Q37 -128 22 -116T-16 -100V-94Q-7 -71 14 -57T67 -43Q105 -43 127 -66T150 -120Q150 -169 99 -201T-54 -255L-62 -229ZM31 118Q34 127 38 144T49
184T61 231T74 280Q89 337 107 404Q100 409 76 415T19 415L22 434Q53 466 96 487T179 508Q198 508 215 501T244 479T257 440T247 381L196 226H207Q243 311 272 365T326 451T375 495T422 508Q456 508 473 491T491 445Q491 418 479 397T450 361T413 337T376 324H354Q365
353 367 371T357 389Q344 389 321 361T273 289T222 191T180 84L156 13L14 -16L0 -1L31 118Z" />
<glyph unicode="&#x158;" glyph-name="Rcaron" horiz-adv-x="714" d="M582 868L447 722H350L280 868H324L412 791L532 868H582ZM-24 35L54 54L164 609L92 630L99 664L372 666Q501 668 572 627T644 511Q644 445 595 405T467 344Q494 276 514 228T550 148T581 96T610
65T642 47T682 34L676 0Q615 -5 573 -7T500 -2T448 23T408 77T368 166T321 299H268L220 56L303 34L297 0H-31L-24 35ZM275 335Q378 343 428 387T478 503Q478 530 469 553T442 594T397 623T334 635L275 335Z" />
<glyph unicode="&#x159;" glyph-name="rcaron" horiz-adv-x="473" d="M481 769L351 573H280L224 769H259L331 652L447 769H481ZM31 118Q34 127 38 144T49 184T61 231T74 280Q89 337 107 404Q100 409 76 415T19 415L22 434Q53 466 96 487T179 508Q198 508 215 501T244
479T257 440T247 381L196 226H207Q243 311 272 365T326 451T375 495T422 508Q456 508 473 491T491 445Q491 418 479 397T450 361T413 337T376 324H354Q365 353 367 371T357 389Q344 389 321 361T273 289T222 191T180 84L156 13L14 -16L0 -1L31 118Z" />
<glyph unicode="&#x15a;" glyph-name="Sacute" horiz-adv-x="560" d="M77 248L113 60Q136 42 162 32T221 22Q276 22 309 56T342 139Q342 173 325 201T256 262L212 290Q181 310 160 329T125 368T106 412T100 465Q100 506 120 545T177 616T267 666T386 685Q437 685
481 672T560 641L512 448H484L462 611Q439 628 417 636T368 645Q341 645 319 637T282 613T258 578T250 536Q250 500 267 473T329 420L394 381Q454 346 480 309T507 218Q507 159 478 115T404 40T308 -5T209 -21Q176 -21 146 -16T91 -3T45 13T10 30L47 248H77ZM564
868V855L401 722H353L435 868H564Z" />
<glyph unicode="&#x15b;" glyph-name="sacute" horiz-adv-x="391" d="M443 769V762L285 573H253L322 769H443ZM346 162Q346 130 327 98T277 40T205 -2T120 -18Q92 -18 68 -9T25 15T-3 50T-14 92Q-14 112 -4 133T28 178H31Q48 151 69 126T113 81T158 49T200 37Q214
37 224 46T235 71Q235 86 224 101T190 140L109 219Q92 236 81 249T63 275T54 299T52 323Q52 358 72 391T125 451T196 494T275 510Q299 510 320 503T356 483T381 454T391 418Q390 394 379 375T347 330H344Q327 354 307 375T267 413T228 438T192 447Q178 447 168
438T158 416Q158 401 169 388T209 346L276 281Q297 261 310 245T332 215T343 188T346 162Z" />
<glyph unicode="&#x15c;" glyph-name="Scircumflex" horiz-adv-x="560" d="M230 722L365 868H464L532 722H489L399 794L281 722H230ZM77 248L113 60Q136 42 162 32T221 22Q276 22 309 56T342 139Q342 173 325 201T256 262L212 290Q181 310 160 329T125 368T106
412T100 465Q100 506 120 545T177 616T267 666T386 685Q437 685 481 672T560 641L512 448H484L462 611Q439 628 417 636T368 645Q341 645 319 637T282 613T258 578T250 536Q250 500 267 473T329 420L394 381Q454 346 480 309T507 218Q507 159 478 115T404 40T308
-5T209 -21Q176 -21 146 -16T91 -3T45 13T10 30L47 248H77Z" />
<glyph unicode="&#x15d;" glyph-name="scircumflex" horiz-adv-x="391" d="M143 573L273 769H346L401 573H365L293 685L180 573H143ZM346 162Q346 130 327 98T277 40T205 -2T120 -18Q92 -18 68 -9T25 15T-3 50T-14 92Q-14 112 -4 133T28 178H31Q48 151 69 126T113
81T158 49T200 37Q214 37 224 46T235 71Q235 86 224 101T190 140L109 219Q92 236 81 249T63 275T54 299T52 323Q52 358 72 391T125 451T196 494T275 510Q299 510 320 503T356 483T381 454T391 418Q390 394 379 375T347 330H344Q327 354 307 375T267 413T228 438T192
447Q178 447 168 438T158 416Q158 401 169 388T209 346L276 281Q297 261 310 245T332 215T343 188T346 162Z" />
<glyph unicode="&#x15e;" glyph-name="Scedilla" horiz-adv-x="560" d="M59 -225Q107 -210 140 -192T173 -144Q173 -124 159 -113T128 -97Q128 -96 133 -88T147 -69T164 -45T182 -20Q125 -15 80 0T10 30L47 248H77L113 60Q136 42 162 32T221 22Q276 22 309 56T342
139Q342 173 325 201T256 262L212 290Q181 310 160 329T125 368T106 412T100 465Q100 506 120 545T177 616T267 666T386 685Q437 685 481 672T560 641L512 448H484L462 611Q439 628 417 636T368 645Q341 645 319 637T282 613T258 578T250 536Q250 500 267 473T329
420L394 381Q454 346 480 309T507 218Q507 161 479 117T407 42T313 -4T216 -21L198 -46Q237 -54 260 -72T284 -118Q284 -146 268 -167T222 -204T152 -231T64 -249L59 -225Z" />
<glyph unicode="&#x15f;" glyph-name="scedilla" horiz-adv-x="391" d="M-26 -225Q22 -210 55 -192T88 -144Q88 -124 74 -113T43 -97L99 -16Q50 -10 18 21T-14 92Q-14 112 -4 133T28 178H31Q48 151 69 126T113 81T158 49T200 37Q214 37 224 46T235 71Q235 86 224
101T190 140L109 219Q92 236 81 249T63 275T54 299T52 323Q52 358 72 391T125 451T196 494T275 510Q299 510 320 503T356 483T381 454T391 418Q390 394 379 375T347 330H344Q327 354 307 375T267 413T228 438T192 447Q178 447 168 438T158 416Q158 401 169 388T209
346L276 281Q297 261 310 245T332 215T343 188T346 162Q346 131 329 100T282 44T214 2T133 -18L113 -46Q152 -54 175 -72T199 -118Q199 -146 183 -167T137 -204T67 -231T-21 -249L-26 -225Z" />
<glyph unicode="&#x160;" glyph-name="Scaron" horiz-adv-x="560" d="M563 868L428 722H331L261 868H305L393 791L513 868H563ZM77 248L113 60Q136 42 162 32T221 22Q276 22 309 56T342 139Q342 173 325 201T256 262L212 290Q181 310 160 329T125 368T106 412T100
465Q100 506 120 545T177 616T267 666T386 685Q437 685 481 672T560 641L512 448H484L462 611Q439 628 417 636T368 645Q341 645 319 637T282 613T258 578T250 536Q250 500 267 473T329 420L394 381Q454 346 480 309T507 218Q507 159 478 115T404 40T308 -5T209
-21Q176 -21 146 -16T91 -3T45 13T10 30L47 248H77Z" />
<glyph unicode="&#x161;" glyph-name="scaron" horiz-adv-x="391" d="M433 769L303 573H232L176 769H211L283 652L399 769H433ZM346 162Q346 130 327 98T277 40T205 -2T120 -18Q92 -18 68 -9T25 15T-3 50T-14 92Q-14 112 -4 133T28 178H31Q48 151 69 126T113 81T158
49T200 37Q214 37 224 46T235 71Q235 86 224 101T190 140L109 219Q92 236 81 249T63 275T54 299T52 323Q52 358 72 391T125 451T196 494T275 510Q299 510 320 503T356 483T381 454T391 418Q390 394 379 375T347 330H344Q327 354 307 375T267 413T228 438T192 447Q178
447 168 438T158 416Q158 401 169 388T209 346L276 281Q297 261 310 245T332 215T343 188T346 162Z" />
<glyph unicode="&#x162;" glyph-name="Tcommaaccent" horiz-adv-x="686" d="M132 -229Q186 -209 208 -190T231 -147Q231 -128 216 -116T178 -100V-94Q187 -71 208 -57T261 -43Q299 -43 321 -66T344 -120Q344 -169 293 -201T140 -255L132 -229ZM634 664L723 666L678
457H649L620 619H495L384 54L470 34L464 0H112L119 35L213 54L324 619H203L109 457H79L119 666L207 664H634Z" />
<glyph unicode="&#x163;" glyph-name="tcommaaccent" horiz-adv-x="386" d="M206 -229Q260 -209 282 -190T305 -147Q305 -128 290 -116T252 -100V-94Q261 -71 282 -57T335 -43Q373 -43 395 -66T418 -120Q418 -169 367 -201T214 -255L206 -229ZM31 481L139 501L226
631H309L279 494H406L397 442H271L191 102H195Q215 115 235 134T274 173T308 212T333 246L361 226Q337 186 308 144T245 67T171 10T87 -13Q72 -13 60 -7T39 12T29 41T31 80L117 442H26L31 481Z" />
<glyph unicode="&#x164;" glyph-name="Tcaron" horiz-adv-x="686" d="M616 868L481 722H384L314 868H358L446 791L566 868H616ZM634 664L723 666L678 457H649L620 619H495L384 54L470 34L464 0H112L119 35L213 54L324 619H203L109 457H79L119 666L207 664H634Z" />
<glyph unicode="&#x165;" glyph-name="tcaron" horiz-adv-x="386" d="M348 535L404 742H521L520 735L375 535H348ZM31 481L139 501L226 631H309L279 494H406L397 442H271L191 102H195Q215 115 235 134T274 173T308 212T333 246L361 226Q337 186 308 144T245 67T171
10T87 -13Q72 -13 60 -7T39 12T29 41T31 80L117 442H26L31 481Z" />
<glyph unicode="&#x166;" glyph-name="Tbar" horiz-adv-x="686" d="M124 384H278L324 616H202L109 457H79L119 666L207 664H634L723 666L678 457H649L619 616H495L449 384H606L597 336H439L384 54L470 34L464 0H112L119 35L213 54L268 336H115L124 384Z" />
<glyph unicode="&#x167;" glyph-name="tbar" horiz-adv-x="386" d="M40 481L148 501L235 631H318L288 494H415L406 442H280L261 361H392L384 316H250L200 102H204Q224 115 244 134T283 173T317 212T342 246L370 226Q346 186 317 144T254 67T180 10T96 -13Q81 -13
69 -7T48 12T38 41T40 80L96 316H19L27 361H106L126 442H35L40 481Z" />
<glyph unicode="&#x168;" glyph-name="Utilde" horiz-adv-x="729" d="M340 -21Q269 -21 217 -3T132 53T91 148T96 286L160 609L89 630L95 664H420L413 629L331 609L260 245Q243 151 279 103T386 55Q424 55 457 67T516 105T562 173T591 275L648 606L558 629L563
664H793L786 629L707 609L645 274Q633 214 611 160T553 66T465 3T340 -21ZM324 752L332 768Q353 809 372 834T414 870T463 880T523 868L561 856Q583 849 601 847T635 848T667 864T700 897L720 888L708 867Q685 823 665 798T624 762T577 751T517 764L478 775Q451
783 432 786T397 786T370 773T344 743L324 752Z" />
<glyph unicode="&#x169;" glyph-name="utilde" horiz-adv-x="586" d="M105 403Q99 407 89 410T67 415T42 417T18 414L21 433Q50 460 93 484T189 508Q207 508 221 501T245 477T255 436T248 376L185 126Q181 110 184 106T192 101Q207 101 233 130T288 205T344 308T387
421L404 482L546 507L559 493L460 112H464Q484 129 505 154T547 205L574 193Q525 97 465 42T347 -13Q333 -13 321 -8T303 10T296 41T305 89L362 259H355Q334 219 308 172T250 83T178 14T92 -14Q51 -14 31 15T28 113L105 403ZM162 588L170 604Q191 646 211 671T255
708T304 719T363 704L401 689Q441 673 472 681T536 733L557 724L546 703Q522 658 501 632T458 594T410 584T352 600L314 614Q287 624 268 627T235 626T208 610T182 579L162 588Z" />
<glyph unicode="&#x16a;" glyph-name="Umacron" horiz-adv-x="729" d="M340 -21Q269 -21 217 -3T132 53T91 148T96 286L160 609L89 630L95 664H420L413 629L331 609L260 245Q243 151 279 103T386 55Q424 55 457 67T516 105T562 173T591 275L648 606L558 629L563
664H793L786 629L707 609L645 274Q633 214 611 160T553 66T465 3T340 -21ZM366 837H664L649 763H350L366 837Z" />
<glyph unicode="&#x16b;" glyph-name="umacron" horiz-adv-x="586" d="M224 701H514L500 628H210L224 701ZM105 403Q99 407 89 410T67 415T42 417T18 414L21 433Q50 460 93 484T189 508Q207 508 221 501T245 477T255 436T248 376L185 126Q181 110 184 106T192
101Q207 101 233 130T288 205T344 308T387 421L404 482L546 507L559 493L460 112H464Q484 129 505 154T547 205L574 193Q525 97 465 42T347 -13Q333 -13 321 -8T303 10T296 41T305 89L362 259H355Q334 219 308 172T250 83T178 14T92 -14Q51 -14 31 15T28 113L105
403Z" />
<glyph unicode="&#x16c;" glyph-name="Ubreve" horiz-adv-x="729" d="M340 -21Q269 -21 217 -3T132 53T91 148T96 286L160 609L89 630L95 664H420L413 629L331 609L260 245Q243 151 279 103T386 55Q424 55 457 67T516 105T562 173T591 275L648 606L558 629L563
664H793L786 629L707 609L645 274Q633 214 611 160T553 66T465 3T340 -21ZM489 717Q452 717 427 730T388 764T368 811T364 865H401Q410 837 431 818T498 798Q543 798 568 818T610 865H642Q638 838 628 812T600 764T554 730T489 717Z" />
<glyph unicode="&#x16d;" glyph-name="ubreve" horiz-adv-x="586" d="M105 403Q99 407 89 410T67 415T42 417T18 414L21 433Q50 460 93 484T189 508Q207 508 221 501T245 477T255 436T248 376L185 126Q181 110 184 106T192 101Q207 101 233 130T288 205T344 308T387
421L404 482L546 507L559 493L460 112H464Q484 129 505 154T547 205L574 193Q525 97 465 42T347 -13Q333 -13 321 -8T303 10T296 41T305 89L362 259H355Q334 219 308 172T250 83T178 14T92 -14Q51 -14 31 15T28 113L105 403ZM352 577Q290 577 261 623T239 761H268Q273
704 297 681T359 658Q397 658 427 681T481 761H509Q496 680 457 629T352 577Z" />
<glyph unicode="&#x16e;" glyph-name="Uring" horiz-adv-x="729" d="M340 -21Q269 -21 217 -3T132 53T91 148T96 286L160 609L89 630L95 664H420L413 629L331 609L260 245Q243 151 279 103T386 55Q424 55 457 67T516 105T562 173T591 275L648 606L558 629L563
664H793L786 629L707 609L645 274Q633 214 611 160T553 66T465 3T340 -21ZM398 824Q398 868 428 898T507 928Q555 928 584 899T614 826Q614 805 606 786T584 753T549 730T505 722Q457 722 428 751T398 824ZM439 826Q439 796 459 777T507 757Q535 757 554 776T573
824Q573 854 553 873T505 893Q477 893 458 875T439 826Z" />
<glyph unicode="&#x16f;" glyph-name="uring" horiz-adv-x="586" d="M248 670Q248 691 256 710T278 744T313 766T356 775Q404 775 434 745T464 672Q464 651 456 632T434 599T399 576T355 568Q307 568 278 597T248 670ZM289 672Q289 642 308 623T356 603Q384 603
403 622T422 670Q422 700 403 719T355 739Q327 739 308 720T289 672ZM105 403Q99 407 89 410T67 415T42 417T18 414L21 433Q50 460 93 484T189 508Q207 508 221 501T245 477T255 436T248 376L185 126Q181 110 184 106T192 101Q207 101 233 130T288 205T344 308T387
421L404 482L546 507L559 493L460 112H464Q484 129 505 154T547 205L574 193Q525 97 465 42T347 -13Q333 -13 321 -8T303 10T296 41T305 89L362 259H355Q334 219 308 172T250 83T178 14T92 -14Q51 -14 31 15T28 113L105 403Z" />
<glyph unicode="&#x170;" glyph-name="Uhungarumlaut" horiz-adv-x="729" d="M722 855L591 722H544L607 868H722V855ZM547 855L416 722H369L432 868H547V855ZM340 -21Q269 -21 217 -3T132 53T91 148T96 286L160 609L89 630L95 664H420L413 629L331 609L260 245Q243
151 279 103T386 55Q424 55 457 67T516 105T562 173T591 275L648 606L558 629L563 664H793L786 629L707 609L645 274Q633 214 611 160T553 66T465 3T340 -21Z" />
<glyph unicode="&#x171;" glyph-name="uhungarumlaut" horiz-adv-x="586" d="M105 403Q99 407 89 410T67 415T42 417T18 414L21 433Q50 460 93 484T189 508Q207 508 221 501T245 477T255 436T248 376L185 126Q181 110 184 106T192 101Q207 101 233 130T288 205T344
308T387 421L404 482L546 507L559 493L460 112H464Q484 129 505 154T547 205L574 193Q525 97 465 42T347 -13Q333 -13 321 -8T303 10T296 41T305 89L362 259H355Q334 219 308 172T250 83T178 14T92 -14Q51 -14 31 15T28 113L105 403ZM407 769V760L274 573H242L296
769H407ZM568 769V760L436 573H404L458 769H568Z" />
<glyph unicode="&#x172;" glyph-name="Uogonek" horiz-adv-x="729" d="M200 -170Q200 -151 207 -134T230 -100T271 -63T333 -21Q264 -20 213 -2T130 54T90 149T96 286L160 609L89 630L95 664H420L413 629L331 609L260 245Q243 151 279 103T386 55Q424 55 457 67T516
105T562 173T591 275L648 606L558 629L563 664H793L786 629L707 609L645 274Q634 218 615 168T563 78T486 13T378 -19Q355 -41 341 -56T319 -82T308 -103T305 -123Q305 -139 315 -149T345 -159Q363 -159 381 -149T422 -116L441 -130Q412 -181 373 -214T286 -248Q246
-248 223 -226T200 -170Z" />
<glyph unicode="&#x173;" glyph-name="uogonek" horiz-adv-x="586" d="M365 -11Q362 -12 359 -12Q355 -13 347 -13Q333 -13 321 -8T303 10T296 41T305 89L362 259H355Q334 219 308 172T250 83T178 14T92 -14Q51 -14 31 15T28 113L105 403Q99 407 89 410T67 415T42
417T18 414L21 433Q50 460 93 484T189 508Q207 508 221 501T245 477T255 436T248 376L185 126Q181 110 184 106T192 101Q207 101 233 130T288 205T344 308T387 421L404 482L546 507L559 493L460 112H464Q484 129 505 154T547 205L574 193Q562 169 551 149T526 111T496
74T458 35Q416 -6 391 -31T352 -73T334 -101T330 -123Q330 -139 340 -149T370 -159Q388 -159 406 -149T447 -116L466 -130Q437 -181 398 -214T311 -248Q270 -248 248 -225T225 -170Q225 -148 234 -130T262 -94T306 -57T366 -15L365 -11Z" />
<glyph unicode="&#x174;" glyph-name="Wcircumflex" horiz-adv-x="989" d="M453 722L588 868H687L755 722H712L622 794L504 722H453ZM531 402L296 -11H218L143 609L82 629L88 664H390L383 629L316 607L359 173L522 471L504 610L452 630L459 664H755L749 629L675
609L724 184L931 609L857 630L863 664H1054L1047 629L987 611L664 -11H585L531 402Z" />
<glyph unicode="&#x175;" glyph-name="wcircumflex" horiz-adv-x="744" d="M299 573L429 769H502L557 573H521L449 685L336 573H299ZM495 108H497Q533 154 558 191T601 258T626 313T634 362Q634 390 621 404T584 419Q575 419 565 418T544 414L548 434Q578 468
610 488T673 508Q714 508 732 484T750 425Q750 390 732 355T683 280T611 196T524 98L426 -14H417L353 9V199H351Q339 186 328 173T301 142T268 103T224 51L170 -14H158L97 9L89 399Q78 409 60 413T23 417Q9 417 -4 414L1 433Q33 467 74 487T150 507Q232 507 234
411L238 113H241Q269 146 297 181T349 251L347 405Q326 417 297 417Q282 417 269 414L273 433Q304 467 343 487T418 507Q431 507 445 504T470 489T488 457T496 401L495 108Z" />
<glyph unicode="&#x176;" glyph-name="Ycircumflex" horiz-adv-x="684" d="M428 260L387 54L462 33L455 0H128L135 34L217 54L255 245L141 609L80 630L87 664H420L412 629L324 610L408 299L618 608L531 630L538 664H744L737 629L677 610L428 260ZM324 722L459
868H558L626 722H583L493 794L375 722H324Z" />
<glyph unicode="&#x177;" glyph-name="ycircumflex" horiz-adv-x="512" d="M6 249Q9 317 22 365T56 444T104 489T164 504Q191 504 215 489T259 439T290 350T302 216Q303 156 297 104T279 6H287Q314 48 337 88T378 169T405 249T415 332Q415 371 403 410T364 483Q382
495 402 502T442 509Q454 509 466 505T487 490T503 462T510 420Q510 367 485 297T417 153T318 8T201 -119T78 -209T-40 -243Q-77 -243 -103 -222T-129 -159Q-130 -129 -109 -105T-51 -80Q15 -80 39 -185H45Q75 -169 96 -135T131 -55T151 43T158 148Q158 203 154
248T141 326T121 376T98 394Q79 394 65 359T35 249H6ZM184 573L314 769H387L442 573H406L334 685L221 573H184Z" />
<glyph unicode="&#x178;" glyph-name="Ydieresis" horiz-adv-x="684" d="M428 260L387 54L462 33L455 0H128L135 34L217 54L255 245L141 609L80 630L87 664H420L412 629L324 610L408 299L618 608L531 630L538 664H744L737 629L677 610L428 260ZM345 727Q314 727
293 748T271 799Q271 830 292 852T345 874Q360 874 373 868T396 852T413 828T419 799Q419 769 397 748T345 727ZM586 727Q557 727 536 748T514 799Q514 830 535 852T586 874Q616 874 638 852T661 799Q661 769 639 748T586 727Z" />
<glyph unicode="&#x179;" glyph-name="Zacute" horiz-adv-x="667" d="M581 868V855L418 722H370L452 868H581ZM2 35L439 619H206L105 445H75L110 665L207 664H666V653L206 45H470L605 229H636L565 -1L466 0H-6L2 35Z" />
<glyph unicode="&#x17a;" glyph-name="zacute" horiz-adv-x="516" d="M507 769V762L349 573H317L386 769H507ZM542 466L199 171L251 147Q296 126 327 121T383 123T427 154T468 210L495 197Q471 137 447 96T397 30T343 -7T281 -19Q259 -19 234 -10T167 22L79 67L17
-14L-26 27L324 328L202 376Q157 394 129 397T98 381Q96 367 114 354T180 325Q166 288 142 269T88 249Q56 249 40 267T23 313Q23 342 43 376T95 441T166 491T243 512Q257 512 270 510T299 502T339 485T399 455L442 433L495 508L542 466Z" />
<glyph unicode="&#x17b;" glyph-name="Zdotaccent" horiz-adv-x="667" d="M2 35L439 619H206L105 445H75L110 665L207 664H666V653L206 45H470L605 229H636L565 -1L466 0H-6L2 35ZM336 805Q336 838 359 861T416 885Q449 885 472 862T495 805Q495 773 472 750T416
726Q383 726 360 749T336 805Z" />
<glyph unicode="&#x17c;" glyph-name="zdotaccent" horiz-adv-x="516" d="M542 466L199 171L251 147Q296 126 327 121T383 123T427 154T468 210L495 197Q471 137 447 96T397 30T343 -7T281 -19Q259 -19 234 -10T167 22L79 67L17 -14L-26 27L324 328L202 376Q157
394 129 397T98 381Q96 367 114 354T180 325Q166 288 142 269T88 249Q56 249 40 267T23 313Q23 342 43 376T95 441T166 491T243 512Q257 512 270 510T299 502T339 485T399 455L442 433L495 508L542 466ZM276 663Q276 697 299 720T356 744Q389 744 412 721T436 663Q436
630 413 607T356 583Q322 583 299 606T276 663Z" />
<glyph unicode="&#x17d;" glyph-name="Zcaron" horiz-adv-x="667" d="M595 868L460 722H363L293 868H337L425 791L545 868H595ZM2 35L439 619H206L105 445H75L110 665L207 664H666V653L206 45H470L605 229H636L565 -1L466 0H-6L2 35Z" />
<glyph unicode="&#x17e;" glyph-name="zcaron" horiz-adv-x="516" d="M498 769L368 573H297L241 769H276L348 652L464 769H498ZM542 466L199 171L251 147Q296 126 327 121T383 123T427 154T468 210L495 197Q471 137 447 96T397 30T343 -7T281 -19Q259 -19 234
-10T167 22L79 67L17 -14L-26 27L324 328L202 376Q157 394 129 397T98 381Q96 367 114 354T180 325Q166 288 142 269T88 249Q56 249 40 267T23 313Q23 342 43 376T95 441T166 491T243 512Q257 512 270 510T299 502T339 485T399 455L442 433L495 508L542 466Z" />
<glyph unicode="&#x192;" glyph-name="florin" horiz-adv-x="523" d="M59 339H174Q194 399 232 448T314 532T402 587T482 606Q524 606 546 589T569 539Q569 519 561 503T539 475T509 456T477 447Q471 466 465 484T451 517T434 539T413 548Q392 548 376 517T343
407L329 339H472L464 290H319L283 114Q263 16 224 -52T138 -162T46 -224T-34 -243Q-76 -243 -99 -222T-123 -175Q-123 -141 -99 -120T-35 -88Q-21 -136 -2 -161T33 -187Q50 -187 64 -163T90 -74L161 290H50L59 339Z" />
<glyph unicode="&#x1fa;" glyph-name="Aringacute" horiz-adv-x="717" d="M-40 35L29 53L402 669L445 677L502 687L598 55L661 34L653 0H336L343 35L425 54L403 219H187L94 57L195 34L188 0H-47L-40 35ZM217 271H396L362 522L217 271ZM680 1086V1073L517 940H469L551
1086H680ZM361 811Q361 855 391 885T470 915Q518 915 547 886T577 813Q577 792 569 773T547 740T512 717T468 709Q420 709 391 738T361 811ZM402 813Q402 783 422 764T470 744Q498 744 517 763T536 811Q536 841 516 860T468 880Q440 880 421 862T402 813Z" />
<glyph unicode="&#x1fb;" glyph-name="aringacute" horiz-adv-x="583" d="M562 524L453 111H457Q478 128 499 153T540 205L568 193Q520 97 460 42T340 -13Q322 -13 310 -5T293 18T287 49T295 86L338 207H331Q310 172 284 133T228 60T164 5T97 -17Q79 -17 62 -11T32
8T11 43T3 96Q3 137 16 182T54 273T112 358T185 430T269 479T360 498Q377 498 393 495T424 485L443 524H562ZM188 95Q203 95 228 120T280 189T335 287T381 403L391 436Q381 447 369 454T343 461Q311 461 280 428T223 346T183 241T166 139Q165 112 172 104T188 95ZM291
644Q291 665 299 684T321 718T356 740T399 749Q447 749 477 719T507 646Q507 625 499 606T477 573T442 550T398 542Q350 542 321 571T291 644ZM332 646Q332 616 351 597T399 577Q427 577 446 596T465 644Q465 674 446 693T398 713Q370 713 351 694T332 646ZM607
923V910L444 777H396L478 923H607Z" />
<glyph unicode="&#x1fc;" glyph-name="AEacute" horiz-adv-x="991" d="M859 868V855L696 722H648L730 868H859ZM648 317L595 56Q603 51 618 46T655 41H775L910 231H944L877 0H340L347 35L423 54L475 315H294L106 57L202 34L195 0H-39L-32 34L32 53L458 606L369
630L376 664H917L998 665L963 467H931L889 623H707L656 361H746L797 457H830L781 216H745L737 317H648ZM523 614L330 363H484L535 614H523Z" />
<glyph unicode="&#x1fd;" glyph-name="aeacute" horiz-adv-x="700" d="M626 769V762L468 573H436L505 769H626ZM393 -17Q342 -17 311 5T265 65H263Q244 44 227 29T190 4T150 -12T101 -17Q79 -17 60 -10T25 10T1 44T-8 90Q-7 145 34 179T172 230L273 249L297 339Q298
362 296 383T284 419T259 444T219 454Q210 454 202 452T188 445L173 326Q162 321 149 318T118 315Q92 315 78 329T64 365Q64 392 85 417T141 462T219 494T304 508Q359 508 385 483T418 412H423Q458 455 504 481T607 508Q652 508 679 488T706 430Q706 390 682 360T617
307T524 268T417 241Q415 231 414 221T413 201Q412 168 418 146T436 110T460 92T487 86Q508 86 529 96T570 122T607 157T636 193L661 178Q646 145 620 111T559 48T481 1T393 -17ZM256 97Q247 148 263 212L219 201Q171 190 153 170T134 120Q133 97 146 80T185 62Q204
62 222 72T256 97ZM554 458Q538 458 520 443T483 403T450 344T424 275Q509 310 544 351T581 424Q581 458 554 458Z" />
<glyph unicode="&#x1fe;" glyph-name="Oslashacute" horiz-adv-x="779" d="M68 -45L147 52Q102 92 74 151T46 292Q46 363 75 433T159 559T290 649T461 684Q503 684 543 673T619 639L674 707H720L649 619Q697 580 727 519T758 372Q758 301 729 231T645 106T513
16T341 -19Q297 -19 255 -7T175 31L114 -45H68ZM574 455Q574 486 568 518L243 115Q255 74 279 46T345 17Q397 17 439 55T512 156T558 297T574 455ZM230 213Q230 187 233 160L556 561Q543 597 519 622T457 647Q406 647 365 609T293 509T247 369T230 213ZM649 868V855L486
722H438L520 868H649Z" />
<glyph unicode="&#x1ff;" glyph-name="oslashacute" horiz-adv-x="550" d="M29 -50L87 26Q54 54 37 96T20 192Q21 248 42 304T103 405T202 478T337 506Q363 506 387 500T431 482L479 546H522L459 463Q493 434 512 392T530 300Q529 244 508 188T448 86T349 13T213
-16Q156 -16 115 7L72 -50H29ZM219 16Q247 16 273 49T321 133T356 241T374 350L176 87Q178 56 187 36T219 16ZM325 474Q307 474 290 459T258 419T229 360T205 290T187 216T177 146L373 406Q370 436 359 455T325 474ZM520 769V762L362 573H330L399 769H520Z" />
<glyph unicode="&#x218;" glyph-name="Scommaaccent" horiz-adv-x="560" d="M324 -229Q378 -209 400 -190T423 -147Q423 -128 408 -116T370 -100V-94Q379 -71 400 -57T453 -43Q491 -43 513 -66T536 -120Q536 -169 485 -201T332 -255L324 -229ZM77 248L113 60Q136
42 162 32T221 22Q276 22 309 56T342 139Q342 173 325 201T256 262L212 290Q181 310 160 329T125 368T106 412T100 465Q100 506 120 545T177 616T267 666T386 685Q437 685 481 672T560 641L512 448H484L462 611Q439 628 417 636T368 645Q341 645 319 637T282 613T258
578T250 536Q250 500 267 473T329 420L394 381Q454 346 480 309T507 218Q507 159 478 115T404 40T308 -5T209 -21Q176 -21 146 -16T91 -3T45 13T10 30L47 248H77Z" />
<glyph unicode="&#x219;" glyph-name="scommaaccent" horiz-adv-x="391" d="M222 -229Q276 -209 298 -190T321 -147Q321 -128 306 -116T268 -100V-94Q277 -71 298 -57T351 -43Q389 -43 411 -66T434 -120Q434 -169 383 -201T230 -255L222 -229ZM346 162Q346 130
327 98T277 40T205 -2T120 -18Q92 -18 68 -9T25 15T-3 50T-14 92Q-14 112 -4 133T28 178H31Q48 151 69 126T113 81T158 49T200 37Q214 37 224 46T235 71Q235 86 224 101T190 140L109 219Q92 236 81 249T63 275T54 299T52 323Q52 358 72 391T125 451T196 494T275
510Q299 510 320 503T356 483T381 454T391 418Q390 394 379 375T347 330H344Q327 354 307 375T267 413T228 438T192 447Q178 447 168 438T158 416Q158 401 169 388T209 346L276 281Q297 261 310 245T332 215T343 188T346 162Z" />
<glyph unicode="&#x21a;" glyph-name="uni021A" horiz-adv-x="686" d="M132 -229Q186 -209 208 -190T231 -147Q231 -128 216 -116T178 -100V-94Q187 -71 208 -57T261 -43Q299 -43 321 -66T344 -120Q344 -169 293 -201T140 -255L132 -229ZM634 664L723 666L678
457H649L620 619H495L384 54L470 34L464 0H112L119 35L213 54L324 619H203L109 457H79L119 666L207 664H634Z" />
<glyph unicode="&#x21b;" glyph-name="uni021B" horiz-adv-x="386" d="M206 -229Q260 -209 282 -190T305 -147Q305 -128 290 -116T252 -100V-94Q261 -71 282 -57T335 -43Q373 -43 395 -66T418 -120Q418 -169 367 -201T214 -255L206 -229ZM31 481L139 501L226 631H309L279
494H406L397 442H271L191 102H195Q215 115 235 134T274 173T308 212T333 246L361 226Q337 186 308 144T245 67T171 10T87 -13Q72 -13 60 -7T39 12T29 41T31 80L117 442H26L31 481Z" />
<glyph unicode="&#x237;" glyph-name="uni0237" horiz-adv-x="291" d="M111 402Q98 411 72 415T22 414L25 434Q39 447 57 460T97 484T143 501T193 508Q210 508 225 502T251 482T264 443T259 382L191 90Q173 12 140 -50T64 -155T-28 -222T-126 -245Q-143 -245 -158
-240T-186 -226T-207 -204T-215 -175Q-217 -142 -193 -121T-127 -88Q-107 -139 -94 -163T-61 -187Q-48 -187 -37 -167T-15 -111T6 -29T30 71L111 402Z" />
<glyph unicode="&#x2c6;" glyph-name="circumflex" horiz-adv-x="400" d="M119 573L249 769H322L377 573H341L269 685L156 573H119Z" />
<glyph unicode="&#x2c7;" glyph-name="caron" horiz-adv-x="400" d="M418 769L288 573H217L161 769H196L268 652L384 769H418Z" />
<glyph unicode="&#x2d8;" glyph-name="breve" horiz-adv-x="400" d="M246 577Q184 577 155 623T133 761H162Q167 704 191 681T253 658Q291 658 321 681T375 761H403Q390 680 351 629T246 577Z" />
<glyph unicode="&#x2d9;" glyph-name="dotaccent" horiz-adv-x="400" d="M175 663Q175 697 198 720T255 744Q288 744 311 721T335 663Q335 630 312 607T255 583Q221 583 198 606T175 663Z" />
<glyph unicode="&#x2da;" glyph-name="ring" horiz-adv-x="355" d="M147 670Q147 691 155 710T177 744T212 766T255 775Q303 775 333 745T363 672Q363 651 355 632T333 599T298 576T254 568Q206 568 177 597T147 670ZM188 672Q188 642 207 623T255 603Q283 603
302 622T321 670Q321 700 302 719T254 739Q226 739 207 720T188 672Z" />
<glyph unicode="&#x2db;" glyph-name="ogonek" horiz-adv-x="493" d="M379 24Q341 -11 318 -34T281 -73T264 -100T259 -123Q259 -139 269 -149T299 -159Q317 -159 335 -149T376 -116L395 -130Q366 -181 327 -214T240 -248Q200 -248 177 -226T154 -170Q154 -147
165 -127T200 -85T263 -37T359 24H379Z" />
<glyph unicode="&#x2dc;" glyph-name="tilde" horiz-adv-x="400" d="M66 588L74 604Q95 646 115 671T159 708T208 719T267 704L305 689Q345 673 376 681T440 733L461 724L450 703Q426 658 405 632T362 594T314 584T256 600L218 614Q191 624 172 627T139 626T112
610T86 579L66 588Z" />
<glyph unicode="&#x2dd;" glyph-name="hungarumlaut" horiz-adv-x="400" d="M299 769V760L166 573H134L188 769H299ZM460 769V760L328 573H296L350 769H460Z" />
</font>
</defs>
</svg>
