<?xml version="1.0" standalone="no"?> <!DOCTYPE svg PUBLIC "-//W3C//DTD SVG 1.0//EN" "http://www.w3.org/TR/2001/REC-SVG-20010904/DTD/svg10.dtd" > <svg xmlns="http://www.w3.org/2000/svg" width="100%" height="100%">
<defs >
<font horiz-adv-x="572" ><font-face
    font-family=""
    units-per-em="1000"
    panose-1="2 0 5 4 8 0 0 2 0 4"
    ascent="760"
    descent="-240"
    alphabetic="0" />
<missing-glyph horiz-adv-x="500" />
<glyph unicode=" " glyph-name="space" horiz-adv-x="177" />
<glyph unicode="!" glyph-name="exclam" horiz-adv-x="300" d="M225 695L176 204H122L75 695H225ZM149 -11Q120 -11 98 11T76 63Q76 93 98 114T149 136Q180 136 201 115T223 63Q223 33 202 11T149 -11Z" />
<glyph unicode="&quot;" glyph-name="quotedbl" horiz-adv-x="477" d="M63 788H203L152 485H109L63 788ZM274 788H414L363 485H320L274 788Z" />
<glyph unicode="#" glyph-name="numbersign" horiz-adv-x="593" d="M82 498H192L219 651H278L251 498H396L423 651H482L455 498H561V438H444L414 267H517V208H403L377 57H318L344 208H199L173 57H114L140 208H38V267H151L181 438H82V498ZM210 267H355L385 438H240L210
267Z" />
<glyph unicode="$" glyph-name="dollar" horiz-adv-x="600" d="M255 -11Q202 -8 155 7T74 41L58 232H103L170 82Q187 69 209 59T259 44L276 274L219 291Q144 313 109 358T74 470Q74 508 90 543T135 606T208 652T305 675L313 784H363L355 675Q396 673 434 662T506
637L513 458H472L412 596Q404 602 389 609T351 622L334 399L403 378Q482 354 514 310T546 212Q546 163 525 124T470 56T392 10T304 -11L296 -125H247L255 -11ZM417 154Q417 189 397 217T324 260L308 42Q356 47 386 76T417 154ZM195 518Q195 483 215 457T286 414L301
625Q253 620 224 591T195 518Z" />
<glyph unicode="%" glyph-name="percent" horiz-adv-x="900" d="M659 308Q627 308 612 277T597 201Q597 177 601 147T616 91T642 46T681 28Q713 28 728 61T743 142Q743 178 737 208T719 261T692 295T659 308ZM219 632Q187 632 172 601T157 525Q157 501 161 471T176
415T202 370T241 352Q273 352 288 385T303 466Q303 502 297 532T279 585T252 619T219 632ZM232 680Q271 680 302 666T356 627T390 569T402 498Q402 456 389 421T352 359T297 319T229 304Q189 304 157 318T103 357T70 415T58 487Q58 529 71 564T109 625T164 665T232
680ZM686 695H754L232 -50H164L686 695ZM672 356Q711 356 742 342T796 303T830 245T842 174Q842 132 829 97T792 35T736 -5T668 -20Q628 -20 597 -6T543 33T510 91T498 163Q498 205 511 240T549 301T604 341T672 356Z" />
<glyph unicode="&amp;" glyph-name="ampersand" horiz-adv-x="826" d="M710 421L587 212Q582 204 577 195T565 178Q607 133 640 107T705 78Q722 76 736 82T759 97Q770 106 777 118L800 95Q782 65 758 40Q737 19 707 2T637 -15Q593 -14 560 8T483 77Q439 35 385
8T264 -20Q211 -20 170 -7T100 31T56 88T41 161Q41 201 58 233T101 289T156 332T210 364Q186 388 169 407T142 443T127 477T123 518Q123 553 139 583T183 637T249 673T333 687Q378 687 411 677T466 650T498 609T509 559Q509 528 496 504T461 461T413 425T360 394Q397
358 449 305Q472 281 491 259T529 217Q537 230 544 243T560 272L637 421L561 437V483H794V439L710 421ZM344 229Q312 262 287 288T240 335Q211 314 189 284T167 207Q167 179 177 154T206 111T254 81T319 70Q392 70 447 116Q426 140 401 168T344 229ZM237 554Q237
537 241 524T256 497T285 466T331 422Q368 451 385 480T403 545Q403 590 379 614T320 638Q288 638 263 617T237 554Z" />
<glyph unicode="&apos;" glyph-name="quotesingle" horiz-adv-x="266" d="M63 788H203L152 485H109L63 788Z" />
<glyph unicode="(" glyph-name="parenleft" horiz-adv-x="332" d="M281 -140Q190 -51 138 65T86 313Q86 448 139 565T283 772H360Q319 721 288 670T235 564T203 447T192 313Q192 245 202 185T233 69T284 -37T356 -140H281Z" />
<glyph unicode=")" glyph-name="parenright" horiz-adv-x="332" d="M56 772Q147 683 197 567T247 319Q247 184 194 67T50 -140H-27Q14 -89 45 -38T98 68T130 185T141 319Q141 455 100 563T-23 772H56Z" />
<glyph unicode="*" glyph-name="asterisk" horiz-adv-x="410" d="M251 502L254 376L228 370L177 485L58 441L44 463L139 548L61 646L76 665L187 605L256 708L278 700L255 577L374 544L373 519L251 502Z" />
<glyph unicode="+" glyph-name="plus" horiz-adv-x="600" d="M334 275V70H266V275H63V339H266V544H334V339H537V275H334Z" />
<glyph unicode="," glyph-name="comma" horiz-adv-x="282" d="M27 -171Q85 -139 107 -101T130 -27Q130 44 57 70Q55 88 58 106T71 139T97 163T136 172Q177 172 206 141T235 45Q235 -36 187 -100T50 -206Q44 -197 39 -189Q34 -183 31 -178T27 -171Z" />
<glyph unicode="-" glyph-name="hyphen" horiz-adv-x="366" d="M51 325H315V226H51V325Z" />
<glyph unicode="." glyph-name="period" horiz-adv-x="274" d="M141 -10Q108 -10 84 14T60 71Q60 104 84 128T141 152Q174 152 198 128T222 71Q222 38 198 14T141 -10Z" />
<glyph unicode="/" glyph-name="slash" horiz-adv-x="519" d="M14 -180L417 745L473 720L70 -205L14 -180Z" />
<glyph unicode="0" glyph-name="zero" horiz-adv-x="600" d="M418 270Q418 343 408 408T380 521T338 598T284 626Q260 626 242 609T210 561T190 487T183 393Q183 330 192 267T219 152T262 69T318 37Q343 37 361 53T392 101T411 174T418 270ZM297 683Q358 683 407
655T490 578T542 467T561 333Q561 250 541 185T485 74T402 4T303 -20Q245 -20 197 6T114 80T60 191T40 330Q40 412 60 477T116 589T197 659T297 683Z" />
<glyph unicode="1" glyph-name="one" horiz-adv-x="600" d="M392 67L546 52V0H89V52L254 66V559L93 549L84 595L375 679H392V67Z" />
<glyph unicode="2" glyph-name="two" horiz-adv-x="600" d="M193 114H526V0H58V57L155 153Q210 208 249 251T314 330T351 397T363 461Q363 491 353 514T326 552T288 575T245 583Q207 583 175 562T106 501L70 530Q91 562 114 590T164 639T225 672T300 684Q348 684
386 671T451 633T492 577T507 506Q508 457 489 417T436 339T357 262T260 175L193 114Z" />
<glyph unicode="3" glyph-name="three" horiz-adv-x="600" d="M261 30Q314 30 349 61T384 148Q384 181 368 208T324 254T255 285T166 298V355Q206 369 240 386T300 424T340 467T355 514Q355 549 332 571T268 593Q230 593 195 574T114 518L85 553Q105 578 128 601T180
643T241 673T313 684Q398 684 440 645T482 547Q482 515 468 489T432 442T380 404T321 372V369Q362 364 398 350T460 314T502 262T517 194Q517 143 491 104T423 37T333 -5T238 -19Q154 -19 111 11T67 86Q67 113 88 133T148 153L210 42Q218 38 228 34T261 30Z" />
<glyph unicode="4" glyph-name="four" horiz-adv-x="600" d="M444 256H564V167H444V63L535 44V0H219V45L313 61V167H32V223L365 673L444 663V256ZM313 256V521L123 256H313Z" />
<glyph unicode="5" glyph-name="five" horiz-adv-x="600" d="M167 543L163 403Q192 414 223 420T285 426Q340 426 383 411T457 369T504 304T520 220Q520 163 494 119T428 44T339 -3T247 -19Q209 -19 177 -11T122 12T85 47T71 92Q71 118 89 136T148 156L215 41Q224
38 237 35T268 32Q321 32 356 66T392 164Q392 195 382 222T350 271T297 304T222 317Q187 317 157 308T114 290H102L113 664H482V543H167Z" />
<glyph unicode="6" glyph-name="six" horiz-adv-x="600" d="M524 664Q482 651 436 630T348 575T270 497T217 392Q244 412 277 425T356 439Q398 439 434 424T498 380T540 313T556 225Q556 166 534 120T476 43T396 -4T308 -20Q253 -20 208 -1T129 53T78 138T60 249Q60
326 81 388T137 498T219 583T316 644T419 685T517 707L524 664ZM284 372Q256 372 237 362T205 340Q203 325 202 309T200 276Q200 227 208 183T233 106T272 54T326 34Q350 34 367 45T395 76T412 119T418 169Q418 215 408 252T379 316T337 357T284 372Z" />
<glyph unicode="7" glyph-name="seven" horiz-adv-x="600" d="M137 0L436 538H85V664H551V642L242 0H137Z" />
<glyph unicode="8" glyph-name="eight" horiz-adv-x="600" d="M61 154Q61 191 77 218T116 265T167 298T216 321Q150 359 119 400T87 502Q87 535 102 568T148 626T222 668T324 684Q368 684 404 673T466 643T506 596T520 536Q520 503 507 477T473 430T428 395T382
368Q459 322 500 278T541 175Q541 129 521 93T466 31T387 -7T294 -21Q245 -21 203 -9T129 25T79 80T61 154ZM248 302Q221 279 205 248T188 169Q188 144 196 120T220 77T259 45T313 33Q365 33 390 63T415 132Q415 173 388 204T307 268L248 302ZM203 536Q203 498
224 474T283 427L346 389Q364 409 382 442T401 526Q401 577 373 604T302 632Q259 632 231 607T203 536Z" />
<glyph unicode="9" glyph-name="nine" horiz-adv-x="600" d="M85 5Q131 17 177 36T263 86T334 159T384 259Q329 222 262 222Q213 222 174 237T108 281T67 349T52 436Q52 499 73 545T130 622T210 668T300 683Q351 683 396 663T475 606T529 521T549 413Q549 334
528 271T471 160T388 76T291 18T189 -18T93 -35L85 5ZM324 286Q344 286 362 293T398 317Q404 353 404 395Q404 444 396 487T372 563T333 615T279 634Q255 633 238 621T210 587T194 539T188 481Q188 442 198 407T226 345T269 302T324 286Z" />
<glyph unicode=":" glyph-name="colon" horiz-adv-x="275" d="M145 -10Q112 -10 88 14T64 71Q64 104 88 128T145 152Q178 152 202 128T226 71Q226 38 202 14T145 -10ZM146 330Q113 330 89 354T65 411Q65 427 71 441T89 467T114 485T146 492Q162 492 177 486T203
468T220 442T227 411Q227 378 203 354T146 330Z" />
<glyph unicode=";" glyph-name="semicolon" horiz-adv-x="277" d="M151 330Q118 330 94 354T70 411Q70 427 76 441T94 467T119 485T151 492Q167 492 182 486T208 468T225 442T232 411Q232 378 208 354T151 330ZM31 -171Q89 -139 111 -101T134 -27Q134 44 62 70Q60
88 63 106T76 139T101 163T140 172Q181 172 210 141T239 45Q239 -36 191 -100T55 -206Q48 -197 43 -189Q38 -183 35 -178T31 -171Z" />
<glyph unicode="&lt;" glyph-name="less" horiz-adv-x="600" d="M141 305L536 127V56L64 276V335L536 555V485L141 305Z" />
<glyph unicode="=" glyph-name="equal" horiz-adv-x="600" d="M63 424H537V363H63V424ZM63 272H537V212H63V272Z" />
<glyph unicode="&gt;" glyph-name="greater" horiz-adv-x="600" d="M459 306L64 484V555L536 335V276L64 56V126L459 306Z" />
<glyph unicode="?" glyph-name="question" horiz-adv-x="406" d="M77 709L125 701Q175 693 221 671T302 616T359 541T380 451Q380 394 355 359T266 305L169 278L171 204H119L92 375L246 415Q291 427 307 442T323 476Q323 512 268 533T112 564L77 567V709ZM144
-11Q114 -11 92 11T70 63Q70 93 92 114T144 136Q175 136 196 115T218 63Q218 33 197 11T144 -11Z" />
<glyph unicode="@" glyph-name="at" horiz-adv-x="967" d="M546 200H541L517 163Q502 139 485 112T446 62T400 24T345 9Q305 9 286 34T264 98Q263 143 278 187T320 271T379 345T448 404T516 443T575 457Q604 457 627 447L634 475H728L637 146Q623 95 630 74T662
53Q685 53 715 70T774 122T822 207T844 326Q845 388 824 441T762 534T668 595T551 618Q473 618 403 587T278 498T190 363T155 190Q153 111 177 51T244 -51T348 -114T480 -135Q510 -135 536 -132T582 -124T617 -115T639 -109L638 -142Q609 -153 576 -161Q547 -168
511 -173T434 -179Q345 -179 275 -153T157 -79T83 32T60 172Q62 276 107 365T225 519T389 622T575 659Q659 659 724 633T834 563T901 460T922 339Q920 265 891 204T818 100T723 33T625 9Q561 9 537 48T534 160L546 200ZM407 100Q423 100 449 128T502 196T552 281T585
359L594 389Q569 408 547 408Q523 408 495 382T442 315T401 227T385 138Q385 100 407 100Z" />
<glyph unicode="A" glyph-name="A" horiz-adv-x="737" d="M5 43L68 65L305 661L361 666L421 682L660 61L733 45V0H418V46L503 63L449 215H205L155 75L256 46V0H5V43ZM230 284H424L328 555H327L230 284Z" />
<glyph unicode="B" glyph-name="B" horiz-adv-x="678" d="M37 45L124 63V600L40 619V664L322 666Q598 667 598 515Q598 476 581 449T534 403T467 374T388 359V356Q437 355 481 345T560 315T613 262T633 185Q633 136 611 101T547 42T447 9T316 -2L37 0V45ZM268
330V97Q273 71 298 57T358 42Q383 42 405 50T445 74T473 115T484 171Q484 238 444 278T337 330H268ZM268 372Q310 375 344 382T404 403T443 440T457 494Q457 554 410 587T268 621V372Z" />
<glyph unicode="C" glyph-name="C" horiz-adv-x="722" d="M401 -21Q304 -21 236 7T125 82T62 186T42 304Q42 386 73 455T158 575T285 654T444 683Q511 683 561 667T653 629L659 453H613L552 593Q532 605 505 615T440 625Q392 625 349 606T274 552T223 466T204
351Q204 276 223 219T275 121T353 61T449 40Q486 40 515 50T561 72L642 221H688L663 41Q603 12 540 -4T401 -21Z" />
<glyph unicode="D" glyph-name="D" horiz-adv-x="796" d="M269 97Q270 80 281 70T308 54T341 48T371 46Q424 47 465 69T534 129T577 215T592 318Q592 406 566 465T495 560T391 608T268 617L269 97ZM37 45L124 63V600L40 619V664L373 669Q463 670 533 647T652 581T727
480T753 352Q753 268 722 202T634 89T498 19T325 -4L37 0V45Z" />
<glyph unicode="E" glyph-name="E" horiz-adv-x="672" d="M273 313V59H500L586 199H631L597 0H40V45L126 63V600L43 619V664H501L595 670V482H551L498 610H273V368H396L423 451H464V236H421L396 313H273Z" />
<glyph unicode="F" glyph-name="F" horiz-adv-x="617" d="M273 311V63L385 48V0H37V45L126 63V600L43 619V664H495L590 670V476H546L492 610H273V366H391L418 449H459V234H415L391 311H273Z" />
<glyph unicode="G" glyph-name="G" horiz-adv-x="765" d="M406 -21Q309 -21 240 6T127 80T63 184T42 305Q42 384 74 453T161 573T292 653T454 683Q520 683 571 668T665 629L671 456H624L564 594Q546 605 516 615T442 625Q391 625 347 604T272 546T222 458T204
346Q204 270 224 213T279 118T359 60T455 40Q486 40 507 45T541 55V252L453 270V312H727V268L675 253V46L640 31Q602 15 544 -3T406 -21Z" />
<glyph unicode="H" glyph-name="H" horiz-adv-x="830" d="M476 45L560 63V304H270V63L355 45V0H37V45L124 63V600L40 619V664H351V619L270 600V369H560V600L480 619V664H790V619L707 600V63L793 45V0H476V45Z" />
<glyph unicode="I" glyph-name="I" horiz-adv-x="389" d="M37 45L124 63V600L40 619V664H353V619L270 600V63L356 45V0H37V45Z" />
<glyph unicode="J" glyph-name="J" horiz-adv-x="397" d="M280 83Q280 19 266 -35T220 -129T141 -192T26 -219L16 -175Q58 -165 81 -143T117 -90T131 -19T134 64V600L46 618V664H365V619L280 600V83Z" />
<glyph unicode="K" glyph-name="K" horiz-adv-x="743" d="M37 45L124 63V600L40 619V664H352V619L270 600V63L345 45V0H37V45ZM279 358V365L330 382L539 597L466 621V664H705V621L621 597L422 395L668 61L744 45V0H534L279 358Z" />
<glyph unicode="L" glyph-name="L" horiz-adv-x="624" d="M466 59L557 222H603L564 0H37V45L124 63V600L40 619V664H363V619L270 600V59H466Z" />
<glyph unicode="M" glyph-name="M" horiz-adv-x="976" d="M34 45L120 66L125 600L38 619V664H311L501 239L657 620L663 664H936V619L853 600L857 62L943 45V0H618V46L709 63L712 576L511 106L483 21H432L404 105L195 574L192 77L313 44V0H34V45Z" />
<glyph unicode="N" glyph-name="N" horiz-adv-x="807" d="M614 -5L196 499L199 76L324 43V0H42V45L128 66L129 587L37 620V664H248L627 206L625 586L500 621V664H779V619L695 596V95L698 -5H614Z" />
<glyph unicode="O" glyph-name="O" horiz-adv-x="787" d="M405 34Q448 34 482 56T538 116T573 205T585 313Q585 376 571 432T530 532T466 601T382 627Q337 627 304 606T248 547T214 459T202 352Q202 289 216 232T256 130T320 60T405 34ZM394 683Q476 683 541 657T651
584T719 475T743 340Q743 257 715 190T639 75T527 3T391 -23Q316 -23 253 1T143 70T70 178T44 320Q44 404 71 471T146 585T258 658T394 683Z" />
<glyph unicode="P" glyph-name="P" horiz-adv-x="637" d="M313 311Q384 318 427 356T471 463Q471 493 460 521T424 572T361 607T270 620V63L386 45V0H37V45L124 63V600L40 619V664L309 665Q458 667 538 619T619 481Q619 424 591 383T519 315T420 279T313 274V311V311Z" />
<glyph unicode="Q" glyph-name="Q" horiz-adv-x="788" d="M394 683Q476 683 541 657T651 585T720 478T744 344Q744 276 725 218T670 115T586 40T481 -4Q538 -56 587 -88T690 -121Q717 -121 739 -115T787 -94L806 -120Q791 -132 774 -146T736 -171T687 -189T626
-197Q581 -197 539 -183T453 -143T364 -79T263 7Q213 24 173 54T105 125T61 216T45 326Q45 407 72 473T147 585T258 657T394 683ZM383 627Q338 627 304 606T247 547T212 460T200 351Q200 292 213 235T252 134T316 62T406 35Q451 35 485 57T542 116T576 204T588
311Q588 370 574 427T534 528T469 600T383 627Z" />
<glyph unicode="R" glyph-name="R" horiz-adv-x="719" d="M37 45L124 63V601L40 619V664L315 666Q384 667 439 657T533 624T593 568T614 491Q614 428 574 388T470 322V321L652 60L734 44V0H534L391 206Q376 228 366 243T349 268Q342 279 338 286L270 283V63L345
45V0H37V45ZM270 330H331Q392 340 429 378T467 470Q467 503 455 531T418 579T356 610T270 620V330Z" />
<glyph unicode="S" glyph-name="S" horiz-adv-x="559" d="M35 229H80L151 74Q170 59 196 49T265 39Q315 39 347 66T380 145Q380 181 359 209T289 257L199 294Q125 324 88 366T51 479Q51 518 68 555T119 621T200 667T309 685Q360 685 403 673T484 641L490 462H446L387
602Q379 608 358 619T301 630Q248 630 218 601T187 530Q187 491 208 467T277 422L377 379Q419 361 447 342T492 300T516 253T523 200Q523 149 500 109T438 40T353 -4T260 -20Q195 -20 143 -4T49 39L35 229Z" />
<glyph unicode="T" glyph-name="T" horiz-adv-x="693" d="M570 664L655 671L663 476H618L561 610H419V63L519 45V0H173V45L273 63V610H132L75 476H30L37 671L122 664H570Z" />
<glyph unicode="U" glyph-name="U" horiz-adv-x="763" d="M389 -22Q310 -22 256 -4T167 51T118 140T102 262V600L18 619V664H331V619L249 600V265Q249 218 258 180T287 113T338 69T414 53Q594 53 591 275L588 589L467 621V664H748V619L665 596V275Q665 206 646
151T592 57T505 -1T389 -22Z" />
<glyph unicode="V" glyph-name="V" horiz-adv-x="714" d="M71 600L3 619V664H311V619L230 599L399 139L567 590L459 618V664H711V619L643 596L404 -11H311L71 600Z" />
<glyph unicode="W" glyph-name="W" horiz-adv-x="1058" d="M531 430L382 -9H277L74 600L3 619V664H312V619L231 600L372 139L500 521L472 601L393 619V664H705V618L626 599L777 142L908 589L815 618V664H1055V619L983 594L789 -9H685L531 430Z" />
<glyph unicode="X" glyph-name="X" horiz-adv-x="728" d="M12 46L82 63L298 325L112 601L43 619V664H365V619L287 601L407 415H409L542 594L448 618V664H702V619L632 600L440 365L643 62L716 45V0H385V46L467 63L330 277H328L175 66L262 45V0H12V46Z" />
<glyph unicode="Y" glyph-name="Y" horiz-adv-x="672" d="M410 280V63L503 45V0H170V45L263 63V251L70 602L6 619V664H320V620L239 601L376 322L521 594L431 619V664H666V620L593 597L410 280Z" />
<glyph unicode="Z" glyph-name="Z" horiz-adv-x="633" d="M26 47L412 606H156L91 461H47L64 671L152 664H610V653L201 59H472L562 222H606L569 -6L475 0H26V47Z" />
<glyph unicode="[" glyph-name="bracketleft" horiz-adv-x="332" d="M110 -141V773H314V723H214V-91H314V-141H110Z" />
<glyph unicode="\" glyph-name="backslash" horiz-adv-x="519" d="M449 -205L46 720L102 745L505 -180L449 -205Z" />
<glyph unicode="]" glyph-name="bracketright" horiz-adv-x="332" d="M220 773V-141H16V-91H116V723H16V773H220Z" />
<glyph unicode="^" glyph-name="asciicircum" horiz-adv-x="472" d="M41 468L198 756H272L431 468H374L231 672L92 468H41Z" />
<glyph unicode="_" glyph-name="underscore" horiz-adv-x="408" d="M4 -146H404V-216H4V-146Z" />
<glyph unicode="`" glyph-name="grave" horiz-adv-x="400" d="M119 746V764H227L281 565H227L119 746Z" />
<glyph unicode="a" glyph-name="a" horiz-adv-x="545" d="M177 -14Q151 -14 127 -5T83 20T53 61T41 115Q41 176 84 207T202 257L318 285V326Q318 380 296 412T230 444Q213 444 197 440T175 431L173 328Q166 325 149 322T114 318Q88 318 73 330T58 369Q58 389 76
412T124 454T195 485T280 498Q374 498 413 458T452 332V90Q452 68 459 62T489 56H532V21Q511 11 490 4Q472 -3 451 -8T410 -13Q364 -13 346 12T322 73H317Q302 56 288 40T258 12T223 -7T177 -14ZM248 71Q274 71 291 83T318 106V242L254 222Q211 208 193 191T174
145Q174 109 196 90T248 71Z" />
<glyph unicode="b" glyph-name="b" horiz-adv-x="588" d="M255 -15Q214 -15 175 -8T110 11L75 25V653L8 671V714L209 746V424Q218 435 231 447T263 471T305 489T356 497Q394 497 430 485T494 444T540 373T558 268Q558 207 533 155T465 66T368 7T255 -15ZM287 414Q261
414 241 405T209 386V72Q220 62 233 54Q244 47 260 42T296 37Q321 37 344 49T386 86T414 146T425 230Q425 314 388 364T287 414Z" />
<glyph unicode="c" glyph-name="c" horiz-adv-x="489" d="M261 -15Q211 -15 169 2T97 50T49 126T32 224Q32 288 55 339T116 426T202 481T301 500Q337 500 365 491T414 466T445 429T456 386Q456 356 438 338T387 320Q378 320 371 320T357 322Q350 323 345 324L331
435Q329 436 316 441T283 446Q253 446 230 432T192 395T168 344T159 285Q159 238 172 201T207 137T260 98T326 84Q351 84 372 92T409 110Q427 121 441 137L463 115Q451 98 435 76T395 33T338 -1T261 -15Z" />
<glyph unicode="d" glyph-name="d" horiz-adv-x="612" d="M277 722L514 746V72L590 55V11L424 -12L392 61Q378 46 363 32T330 8T290 -9T239 -15Q192 -15 154 3T88 53T47 128T32 223Q32 287 54 338T115 424T202 479T306 498Q329 498 347 495T380 487V656L277 678V722ZM315
71Q335 71 351 76T380 90V383Q368 401 344 421T283 441Q259 441 239 431T202 400T177 349T168 278Q168 233 177 195T205 130T251 87T315 71Z" />
<glyph unicode="e" glyph-name="e" horiz-adv-x="531" d="M267 -15Q204 -15 160 7T87 65T45 142T32 224Q32 287 53 338T111 425T193 480T289 500Q339 500 376 483T437 434T474 359T488 264H154Q157 219 172 185T210 129T265 95T331 84Q362 84 387 93T430 114Q451
127 468 145L491 124Q482 112 466 89T424 43T360 2T267 -15ZM263 444Q222 444 192 410T155 317H350Q350 341 346 364T331 405T304 433T263 444Z" />
<glyph unicode="f" glyph-name="f" horiz-adv-x="379" d="M25 45L91 62V426H21V473L90 495V518Q90 566 108 608T156 681T224 731T301 750Q363 750 397 726T432 663Q432 631 409 617T358 602H346Q343 602 341 603L298 701H293Q278 701 264 694T240 671T223 633T218
576L222 483H353V422H224V62L314 44V0H25V45Z" />
<glyph unicode="g" glyph-name="g" horiz-adv-x="554" d="M421 423L420 420Q437 404 452 377T467 311Q467 273 451 241T406 185T338 148T253 134Q205 134 163 148Q154 140 146 127T138 103Q138 74 190 72L365 63Q407 61 437 51T487 25T516 -14T526 -60Q526 -98
502 -135T436 -201T337 -249T213 -267Q167 -267 131 -258T69 -232T30 -194T16 -147Q16 -126 24 -109T45 -79T74 -55T108 -37L121 -31V-28L44 45Q54 77 73 109T122 169Q85 192 64 228T42 313Q42 355 59 389T105 447T172 484T255 498Q291 498 322 490T385 470L539
488V413L421 423ZM265 186Q285 186 300 195T324 219T339 253T344 292Q344 368 315 409T245 450Q207 450 187 422T166 347Q166 311 173 281T194 230T226 198T265 186ZM157 -43Q149 -53 143 -67T137 -102Q137 -138 174 -165T280 -193Q320 -193 349 -185T396 -165T424
-136T433 -105Q433 -59 370 -53L157 -43Z" />
<glyph unicode="h" glyph-name="h" horiz-adv-x="623" d="M350 46L405 61V303Q403 357 382 385T311 412Q282 412 258 400T222 379V61L282 45V0H23V45L89 62V656L20 677V718L222 746V415Q232 426 247 441T283 469T329 491T384 500Q461 500 499 461T538 332V61L605
45V0H350V46Z" />
<glyph unicode="i" glyph-name="i" horiz-adv-x="312" d="M23 46L90 62V397L26 414V460L223 500V62L290 46V0H23V46ZM154 594Q118 594 96 617T73 672Q73 704 96 727T154 750Q189 750 212 727T235 672Q235 640 212 617T154 594Z" />
<glyph unicode="j" glyph-name="j" horiz-adv-x="301" d="M-4 -205Q17 -196 34 -178T62 -131T80 -59T87 42V394L23 414V460L220 500V52Q220 -12 208 -60T175 -144Q155 -176 131 -195T84 -225T40 -241T10 -247L-4 -205ZM151 594Q116 594 93 617T70 672Q70 704 93
727T151 750Q187 750 209 727T232 672Q232 640 209 617T151 594Z" />
<glyph unicode="k" glyph-name="k" horiz-adv-x="591" d="M90 653L22 674V715L224 746V61L286 45V0H25V45L90 62V653ZM507 -18Q466 -19 440 -2T385 57L232 277V284L283 298L403 420L323 441V483H571V443L498 424L359 298L585 16Q580 6 569 -1Q560 -7 545 -12T507 -18Z" />
<glyph unicode="l" glyph-name="l" horiz-adv-x="316" d="M25 45L90 62V653L23 671V714L224 746V61L294 45V0H25V45Z" />
<glyph unicode="m" glyph-name="m" horiz-adv-x="940" d="M666 46L720 61V305Q719 356 700 384T632 412Q602 412 578 399T539 375V61L598 45V0H351V46L406 61V305Q404 356 385 384T317 412Q287 412 262 399T224 374V61L284 45V0H25V46L91 62V394L23 409V448L191
501H196L218 411H221Q230 423 244 438T280 467T327 490T387 500Q444 500 479 478T529 408H532Q541 420 555 436T591 466T640 490T703 500Q731 500 758 494T807 470T841 421T854 341V61L921 45V0H666V46Z" />
<glyph unicode="n" glyph-name="n" horiz-adv-x="625" d="M25 45L91 62V394L23 409V448L191 501H196L218 411H219Q228 421 243 436T280 466T328 490T386 500Q462 500 500 461T539 332V61L607 45V0H351V46L406 61V303Q404 357 383 385T313 412Q283 412 259 400T224
379V61L284 45V0H25V45Z" />
<glyph unicode="o" glyph-name="o" d="M172 277Q172 247 177 206T197 128T237 64T301 38Q325 38 343 50T374 85T393 139T400 206Q400 260 391 304T364 379T324 427T272 444Q223 444 198 397T172 277ZM286 -17Q223 -17 175 3T95 57T46 137T29 233Q29 289 49 337T103
422T185 478T286 499Q344 499 391 482T472 432T524 354T543 251Q543 195 524 146T470 61T389 4T286 -17Z" />
<glyph unicode="p" glyph-name="p" horiz-adv-x="593" d="M17 -195L83 -178V394L15 409V448L183 501H188L209 414Q217 425 231 439T264 466T309 488T365 497Q401 497 436 484T500 444T545 373T563 269Q563 207 541 155T479 66T388 7T278 -15Q261 -15 246 -13T216
-6V-177L323 -196V-240H17V-195ZM291 413Q266 413 247 404T216 387V76Q225 65 245 52T304 38Q328 38 351 50T391 85T419 144T430 225Q430 311 393 362T291 413Z" />
<glyph unicode="q" glyph-name="q" horiz-adv-x="591" d="M272 -197L380 -177V45Q355 20 322 3T242 -15Q196 -15 158 3T91 53T48 130T32 230Q32 293 56 342T118 426T206 479T305 498Q350 498 380 486T434 459L507 500H514V-177L581 -195V-240H272V-197ZM319 69Q338
69 353 74T380 86V393Q367 410 344 425T286 441Q234 441 203 396T171 275Q171 231 181 194T209 128T255 85T319 69Z" />
<glyph unicode="r" glyph-name="r" horiz-adv-x="423" d="M25 45L91 62V394L23 407V448L191 500H197L218 388H220L236 412Q262 452 288 476T350 500Q383 500 400 482T418 435Q418 419 413 405T400 379T384 359T372 347L268 393Q259 387 248 378T223 355V60L315
45V0H25V45Z" />
<glyph unicode="s" glyph-name="s" horiz-adv-x="463" d="M217 -19Q168 -19 132 -9T53 21L36 177H78L132 68Q147 52 167 42T220 32Q255 32 277 49T299 96Q299 122 280 143T212 186L158 210Q102 235 78 267T53 348Q53 380 68 407T109 455T171 488T248 500Q289 500
324 492T395 466L400 329H360L320 418Q310 429 292 439T246 449Q214 449 195 432T175 388Q175 365 190 347T249 310L303 287Q338 272 361 257T399 224T420 187T426 143Q426 109 410 80T365 28T299 -6T217 -19Z" />
<glyph unicode="t" glyph-name="t" horiz-adv-x="357" d="M189 -13Q124 -13 99 20T75 108L79 426H9V474L81 495L165 626H208V483H335V421H210V147Q210 121 216 106T232 82T256 72T283 70Q294 70 304 70T322 72Q332 73 341 74L350 33Q328 20 302 10Q280 1 251 -6T189 -13Z" />
<glyph unicode="u" glyph-name="u" horiz-adv-x="615" d="M401 71Q393 61 379 46T343 18T295 -6T234 -16Q204 -16 177 -7T128 23T95 74T82 151V413L14 429V473L216 495V183Q217 129 237 100T306 71Q340 71 362 83T394 106V413L317 428V472L528 494V74L602 57V13L441
-16L401 71Z" />
<glyph unicode="v" glyph-name="v" horiz-adv-x="549" d="M220 -13L51 424L2 438V483H265V437L193 424L296 133Q297 130 299 120Q300 116 301 111H303Q304 116 306 120Q307 124 308 127T310 133L418 416L350 437V483H545V437L494 424L320 -13H220Z" />
<glyph unicode="w" glyph-name="w" horiz-adv-x="822" d="M592 148Q594 143 595 138T598 129Q599 125 600 120H602L610 148L691 413L618 437V483H819V437L768 424L623 -12H525L424 271Q422 276 421 281T417 292Q415 297 413 303H412Q410 297 408 292L401 271L295
-12H190L52 424L4 438V483H270V437L195 424L268 148Q270 143 270 137T273 126Q274 120 276 114H278Q280 120 282 126Q284 131 285 137T289 148L410 487H480L592 148Z" />
<glyph unicode="x" glyph-name="x" horiz-adv-x="565" d="M281 0V45L336 59L248 195H246L160 61L210 45V0H14V45L74 59L214 244L84 426L33 438V483H293V438L242 429L320 305H322L401 427L352 438V483H536V440L481 427L355 258L493 60L554 45V0H281Z" />
<glyph unicode="y" glyph-name="y" horiz-adv-x="538" d="M352 438V483H535V437L491 423L277 -114Q261 -154 247 -181T217 -226T184 -251T143 -259Q110 -259 85 -238T60 -184Q60 -152 79 -135T127 -117Q151 -117 166 -130T193 -165H196L242 -57L47 424L3 438V483H263V437L194
424L304 107H308L421 418L352 438Z" />
<glyph unicode="z" glyph-name="z" horiz-adv-x="509" d="M29 0V45L299 430H143L85 315H46L53 490L146 483H475V462L187 55H363L429 178H470L451 -4L363 0H29Z" />
<glyph unicode="{" glyph-name="braceleft" horiz-adv-x="332" d="M140 315Q187 304 211 277T237 200L244 24Q246 -15 251 -38T266 -75T295 -93T341 -98V-141H326Q273 -141 237 -130T179 -96T146 -41T136 34L137 208Q137 247 122 265T78 284L40 285V347L78 348Q107
349 122 367T137 424L136 598Q136 640 145 673T177 728T236 761T326 773H341V730Q313 730 295 726T267 708T251 671T244 608L237 432Q235 382 211 355T140 317V315Z" />
<glyph unicode="|" glyph-name="bar" horiz-adv-x="244" d="M90 -201V734H154V-201H90Z" />
<glyph unicode="}" glyph-name="braceright" horiz-adv-x="332" d="M192 317Q146 328 122 355T96 432L88 608Q86 647 82 670T67 707T38 725T-8 730V773H7Q60 773 96 762T154 728T186 673T196 598V424Q196 385 210 367T254 348L292 347V285L254 284Q225 283 211
265T196 208V34Q196 -8 187 -41T155 -96T96 -129T7 -141H-8V-98Q20 -98 38 -94T66 -76T81 -39T88 24L96 200Q98 250 122 277T192 315V317Z" />
<glyph unicode="~" glyph-name="asciitilde" horiz-adv-x="471" d="M31 215L36 229Q52 274 72 299T116 333T167 341T225 327L269 311Q302 299 324 295T361 294T386 312T407 351L444 333L439 317Q424 269 404 243T359 207T304 201T239 218L195 234Q165 245 145
249T112 249T89 232T70 197L31 215Z" />
<glyph unicode="&#xa1;" glyph-name="exclamdown" horiz-adv-x="300" d="M75 -128L123 363H178L225 -128H75ZM151 578Q180 578 202 556T224 504Q224 474 202 453T151 431Q120 431 99 452T77 504Q77 534 98 556T151 578Z" />
<glyph unicode="&#xa2;" glyph-name="cent" horiz-adv-x="498" d="M231 -11Q189 -5 154 14T94 64T55 135T41 224Q41 284 62 333T117 417T196 473T288 499L302 618H348L334 499Q365 496 390 486T434 461T462 427T472 388Q472 361 456 345T414 329Q406 329 399 329T387
331Q381 332 376 333L365 436Q360 438 351 442T329 449L287 76Q304 72 327 72Q353 72 377 81T418 103Q438 117 455 135L477 112Q466 95 450 74T409 33T353 -1T277 -15L265 -125H219L231 -11ZM163 268Q163 202 184 159T243 93L283 450Q258 446 236 431T198 391T173
336T163 268Z" />
<glyph unicode="&#xa3;" glyph-name="sterling" horiz-adv-x="600" d="M86 317H205L225 450Q237 530 267 585T334 674T412 723T486 738Q508 738 529 730T568 707T595 673T606 631Q606 605 586 590T520 567Q509 620 489 651T443 683Q432 683 422 676T404 651T389
605T374 532L341 317H524V261H331Q314 181 275 127T190 40Q218 26 243 12T287 -14L323 -36Q357 -57 382 -72T425 -98T456 -114T480 -119Q495 -119 503 -106T513 -72T515 -28T511 16Q553 17 578 4T604 -38Q604 -59 590 -85T551 -133T491 -170T413 -185Q360 -185
301 -154T173 -57L116 -1Q92 -11 73 -15T40 -20Q10 -20 -6 -4T-22 34Q-22 62 -2 76T44 91Q62 91 87 84T139 64Q156 90 168 125T189 209L197 261H85L86 317Z" />
<glyph unicode="&#xa5;" glyph-name="yen" horiz-adv-x="600" d="M65 317H224L66 602L10 619V664H295V620L232 601L339 372H341L453 594L382 619V664H590V620L525 597L371 317H535V267H369V196H535V146H369V63L465 45V0H134V45L231 63V146H65V196H231V267H65V317Z" />
<glyph unicode="&#xa6;" glyph-name="brokenbar" horiz-adv-x="244" d="M90 313V734H154V313H90ZM90 -201V219H154V-201H90Z" />
<glyph unicode="&#xa7;" glyph-name="section" horiz-adv-x="591" d="M307 -106Q307 -85 302 -65T284 -23T255 25T214 81L142 177Q110 220 87 268T63 365Q63 407 81 446T130 518T198 579T277 625T355 655T423 666Q465 666 488 646T512 599Q512 577 497 561T457
544L363 597Q342 594 320 589T276 574Q275 568 275 562T275 552Q274 532 279 512T297 470T326 423T367 368L440 272Q473 228 496 180T519 83Q519 41 501 2T453 -70T385 -130T307 -177T228 -206T159 -217Q117 -217 94 -197T71 -151Q71 -129 85 -112T125 -95L219
-147Q262 -142 306 -124Q307 -119 307 -114T307 -106ZM152 405Q152 360 173 318T231 228L295 144Q333 94 352 58T372 -16Q372 -39 366 -57T352 -92H363Q392 -69 410 -36T429 44Q429 89 409 130T351 221L287 305Q249 355 229 391T210 465Q210 487 216 505T230 541H219Q190
518 171 485T152 405Z" />
<glyph unicode="&#xa8;" glyph-name="dieresis" horiz-adv-x="400" d="M92 594Q64 594 44 614T24 663Q24 691 44 711T92 732Q121 732 141 712T161 663Q161 634 141 614T92 594ZM307 594Q278 594 258 614T238 663Q238 691 258 711T307 732Q335 732 355 712T376
663Q376 634 356 614T307 594Z" />
<glyph unicode="&#xa9;" glyph-name="copyright" horiz-adv-x="811" d="M60 327Q60 399 87 462T161 571T271 644T406 671Q478 671 540 645T650 572T724 462T751 327Q751 255 724 192T650 83T540 9T405 -18Q333 -18 271 9T161 82T87 192T60 327ZM99 327Q99 262
123 206T188 107T286 41T405 17Q468 17 524 41T622 107T688 205T712 327Q712 391 688 447T622 546T524 612T405 637Q342 637 286 613T189 546T123 448T99 327ZM424 133Q367 133 328 149T263 192T227 253T215 323Q215 365 232 401T278 465T348 507T435 523Q472 523
500 515T550 499L554 391H525L488 462Q475 471 461 477T424 484Q381 484 351 449T320 339Q320 302 329 272T354 220T393 186T445 174Q468 174 490 184L535 268H565L553 158Q518 147 488 140T424 133Z" />
<glyph unicode="&#xaa;" glyph-name="ordfeminine" horiz-adv-x="445" d="M144 280Q123 280 104 287T70 307T46 339T37 382Q37 432 71 456T163 494L256 517V547Q255 588 239 614T187 641Q174 641 162 638T144 632L143 549Q137 545 125 542T97 539Q76 539 64 549T52
581Q52 598 66 616T104 650T160 675T228 685Q304 685 334 652T364 549V364Q364 346 370 342T394 337H426V308Q411 300 394 294Q380 289 363 285T330 281Q293 281 279 300T259 349H255Q244 335 234 323T210 301T181 286T144 280ZM201 349Q221 349 235 357T256 374V482L208
469Q173 459 159 444T145 408Q145 379 162 364T201 349Z" />
<glyph unicode="&#xab;" glyph-name="guillemotleft" horiz-adv-x="667" d="M320 442L168 241L320 39L286 9L54 224V252L286 471L320 442ZM576 442L424 241L576 39L542 9L310 224V252L542 471L576 442Z" />
<glyph unicode="&#xac;" glyph-name="logicalnot" horiz-adv-x="558" d="M516 266V60H454V208H42V266H516Z" />
<glyph unicode="&#xae;" glyph-name="registered" horiz-adv-x="456" d="M11 543Q11 588 28 627T75 694T145 739T230 756Q275 756 314 740T382 695T428 627T445 543Q445 498 428 460T381 393T311 348T226 331Q181 331 142 347T74 391T28 459T11 543ZM47 543Q47
505 61 472T99 414T156 375T227 361Q266 361 299 375T356 413T395 471T409 543Q409 581 395 614T357 671T299 710T227 724Q189 724 156 710T99 672T61 614T47 543ZM112 460L141 466V632L114 638V660L218 662Q275 662 302 646T329 600Q329 587 324 577T310 560T293
548T274 540V538L330 466L357 460V439H277L246 482Q241 488 236 495T226 508Q221 515 215 522H201V465L224 460V439H112V460ZM201 547H235Q246 552 256 562T266 591Q266 611 251 624T201 638V547Z" />
<glyph unicode="&#xaf;" glyph-name="macron" horiz-adv-x="400" d="M55 691H345V619H55V691Z" />
<glyph unicode="&#xb0;" glyph-name="degree" horiz-adv-x="303" d="M3 603Q3 634 14 661T46 707T94 738T152 750Q183 750 210 739T257 708T288 661T300 603Q300 571 289 544T257 498T210 467T152 455Q121 455 94 466T47 497T15 544T3 603ZM60 603Q60 561 86 533T152
505Q171 505 188 512T217 533T237 564T244 603Q244 624 237 641T218 672T188 693T152 701Q112 701 86 673T60 603Z" />
<glyph unicode="&#xb1;" glyph-name="plusminus" horiz-adv-x="600" d="M334 412V207H267V412H64V476H267V681H334V476H538V412H334ZM64 0V64H538V0H64Z" />
<glyph unicode="&#xb4;" glyph-name="acute" horiz-adv-x="400" d="M281 764V746L173 565H119L172 764H281Z" />
<glyph unicode="&#xb6;" glyph-name="paragraph" horiz-adv-x="573" d="M253 -204Q216 -204 185 -193T131 -163T95 -119T82 -64Q82 -26 103 -7T154 13Q180 13 198 -5T218 -53L187 -121V-129Q196 -140 216 -149T262 -159Q320 -159 352 -119T384 3V613H310V196H263Q215
196 172 214T98 264T48 338T29 430Q29 478 47 521T97 595T172 645T263 664H548V619L465 600V25Q465 -38 447 -82T398 -153T330 -192T253 -204Z" />
<glyph unicode="&#xb7;" glyph-name="periodcentered" horiz-adv-x="318" d="M159 191Q142 191 128 197T102 215T85 240T78 271Q78 305 102 329T159 353Q192 353 216 329T240 271Q240 255 234 241T216 215T190 198T159 191Z" />
<glyph unicode="&#xb8;" glyph-name="cedilla" horiz-adv-x="400" d="M108 -229Q123 -224 139 -218T168 -202T189 -181T198 -152Q198 -140 193 -131T182 -114T168 -102T154 -94L217 4H264L230 -56Q259 -62 280 -81T302 -133Q302 -165 284 -188T239 -226T179 -250T117
-264L108 -229Z" />
<glyph unicode="&#xba;" glyph-name="ordmasculine" horiz-adv-x="466" d="M145 508Q145 487 149 455T164 393T194 342T244 320Q281 320 300 356T320 450Q320 492 313 527T293 586T262 625T222 639Q184 639 165 603T145 508ZM233 274Q182 274 144 290T81 333T43
397T30 474Q30 518 45 557T88 624T152 669T233 686Q279 686 317 672T381 632T421 569T436 487Q436 442 421 404T378 336T314 291T233 274Z" />
<glyph unicode="&#xbb;" glyph-name="guillemotright" horiz-adv-x="666" d="M90 39L242 238L90 441L125 471L357 256V228L125 9L90 39ZM346 39L498 238L346 441L381 471L613 256V228L381 9L346 39Z" />
<glyph unicode="&#xbc;" glyph-name="onequarter" horiz-adv-x="947" d="M509 322L603 313V271H289V313L392 323V577H287L284 617L503 669H509V322ZM530 128L774 403L837 393V152H927V87H837V0H728V87H530V128ZM728 152V289L606 152H728ZM196 -53L735 726L783
696L244 -84L196 -53Z" />
<glyph unicode="&#xbd;" glyph-name="onehalf" horiz-adv-x="971" d="M509 322L603 313V271H289V313L392 323V577H287L284 617L503 669H509V322ZM591 36L669 101Q705 131 730 154T771 195T794 229T801 260Q801 287 782 307T728 327Q696 327 673 311T625 271L597
300Q614 322 632 341T672 375T718 397T775 405Q835 405 873 376T912 290Q912 265 902 245T871 204T821 161T755 111L719 84H932V0H591V36ZM190 -53L729 726L777 696L238 -84L190 -53Z" />
<glyph unicode="&#xbe;" glyph-name="threequarters" horiz-adv-x="959" d="M167 253Q99 253 65 276T30 333Q30 353 45 368T92 387L136 310Q146 305 157 303T188 300Q220 300 244 316T268 368Q268 401 236 422T140 442V483L157 488Q207 502 226 521T245 565Q245
583 231 595T189 608Q151 608 127 594T75 554L46 582Q85 630 127 653T229 676Q289 676 324 653T360 591Q360 558 331 535T261 498V494Q324 486 356 460T388 396Q388 363 370 337T322 292T251 263T167 253ZM542 128L786 403L849 393V152H939V87H849V0H740V87H542V128ZM740
152V289L618 152H740ZM212 -53L751 726L799 696L260 -84L212 -53Z" />
<glyph unicode="&#xbf;" glyph-name="questiondown" horiz-adv-x="406" d="M329 -143L281 -135Q231 -127 185 -105T104 -49T48 25T26 115Q26 172 51 207T140 262L237 288L235 362H287L314 191L160 151Q115 138 99 124T83 90Q83 54 138 32T294 2L329 -1V-143ZM262
577Q292 577 314 555T336 504Q336 474 314 452T262 430Q231 430 210 452T188 504Q188 533 209 555T262 577Z" />
<glyph unicode="&#xc0;" glyph-name="Agrave" horiz-adv-x="737" d="M5 43L68 65L305 661L361 666L421 682L660 61L733 45V0H418V46L503 63L449 215H205L155 75L256 46V0H5V43ZM230 284H424L328 555H327L230 284ZM333 875L406 736H337L212 854V875H333Z" />
<glyph unicode="&#xc1;" glyph-name="Aacute" horiz-adv-x="737" d="M5 43L68 65L305 661L361 666L421 682L660 61L733 45V0H418V46L503 63L449 215H205L155 75L256 46V0H5V43ZM230 284H424L328 555H327L230 284ZM521 875V854L396 736H327L400 875H521Z" />
<glyph unicode="&#xc2;" glyph-name="Acircumflex" horiz-adv-x="737" d="M5 43L68 65L305 661L361 666L421 682L660 61L733 45V0H418V46L503 63L449 215H205L155 75L256 46V0H5V43ZM230 284H424L328 555H327L230 284ZM211 736L317 871H420L528 736H465L367 803L270
736H211Z" />
<glyph unicode="&#xc3;" glyph-name="Atilde" horiz-adv-x="737" d="M5 43L68 65L305 661L361 666L421 682L660 61L733 45V0H418V46L503 63L449 215H205L155 75L256 46V0H5V43ZM230 284H424L328 555H327L230 284ZM343 767Q309 778 289 782T257 784T236 769T219
738L184 752L188 765Q201 807 218 830T256 863T302 869T356 856L394 843Q426 832 446 829T479 829T500 846T518 880L554 868L550 853Q538 809 522 784T483 750T434 742T376 756L343 767Z" />
<glyph unicode="&#xc4;" glyph-name="Adieresis" horiz-adv-x="737" d="M5 43L68 65L305 661L361 666L421 682L660 61L733 45V0H418V46L503 63L449 215H205L155 75L256 46V0H5V43ZM230 284H424L328 555H327L230 284ZM249 737Q221 737 201 757T181 805Q181 834
201 854T249 875Q277 875 297 855T318 805Q318 777 298 757T249 737ZM486 737Q458 737 438 757T417 805Q417 834 437 854T486 875Q514 875 534 855T555 805Q555 777 535 757T486 737Z" />
<glyph unicode="&#xc5;" glyph-name="Aring" horiz-adv-x="737" d="M5 43L68 65L305 661L361 666L421 682L660 61L733 45V0H418V46L503 63L449 215H205L155 75L256 46V0H5V43ZM230 284H424L328 555H327L230 284ZM249 828Q249 853 258 874T284 910T321 935T368
944Q419 944 453 912T487 828Q487 803 478 782T452 745T415 720T368 711Q343 711 321 719T283 744T258 781T249 828ZM302 828Q302 797 321 778T368 759Q395 759 414 778T434 828Q434 858 415 877T368 896Q341 896 322 877T302 828Z" />
<glyph unicode="&#xc6;" glyph-name="AE" horiz-adv-x="1018" d="M620 299V59H847L932 199H978L944 0H392V45L478 63V299H281L163 76L265 46V0H5V43L71 68L375 593L268 619V664H848L942 670V482H897L845 610H620V353H742L770 436H811V221H767L742 299H620ZM461
610L310 352H478V610H461Z" />
<glyph unicode="&#xc7;" glyph-name="Ccedilla" horiz-adv-x="722" d="M272 -238Q287 -233 303 -227T332 -211T353 -190T362 -161Q362 -149 357 -140T346 -123T332 -111T318 -103L371 -20Q282 -15 220 14T118 89T60 191T42 304Q42 386 73 455T158 575T285 654T444
683Q511 683 561 667T653 629L659 453H613L552 593Q532 605 505 615T440 625Q392 625 349 606T274 552T223 466T204 351Q204 276 223 219T275 121T353 61T449 40Q486 40 515 50T561 72L642 221H688L663 41Q606 14 547 -2T419 -21L394 -65Q424 -71 446 -90T468 -141Q468
-174 450 -196T404 -234T343 -259T281 -273L272 -238Z" />
<glyph unicode="&#xc8;" glyph-name="Egrave" horiz-adv-x="672" d="M319 875L392 736H323L198 854V875H319ZM273 313V59H500L586 199H631L597 0H40V45L126 63V600L43 619V664H501L595 670V482H551L498 610H273V368H396L423 451H464V236H421L396 313H273Z" />
<glyph unicode="&#xc9;" glyph-name="Eacute" horiz-adv-x="672" d="M506 875V854L381 736H312L385 875H506ZM273 313V59H500L586 199H631L597 0H40V45L126 63V600L43 619V664H501L595 670V482H551L498 610H273V368H396L423 451H464V236H421L396 313H273Z" />
<glyph unicode="&#xca;" glyph-name="Ecircumflex" horiz-adv-x="672" d="M197 736L303 871H406L514 736H451L353 803L256 736H197ZM273 313V59H500L586 199H631L597 0H40V45L126 63V600L43 619V664H501L595 670V482H551L498 610H273V368H396L423 451H464V236H421L396
313H273Z" />
<glyph unicode="&#xcb;" glyph-name="Edieresis" horiz-adv-x="672" d="M273 313V59H500L586 199H631L597 0H40V45L126 63V600L43 619V664H501L595 670V482H551L498 610H273V368H396L423 451H464V236H421L396 313H273ZM232 737Q204 737 184 757T164 805Q164 834
184 854T232 875Q260 875 280 855T301 805Q301 777 281 757T232 737ZM469 737Q441 737 421 757T400 805Q400 834 420 854T469 875Q497 875 517 855T538 805Q538 777 518 757T469 737Z" />
<glyph unicode="&#xcc;" glyph-name="Igrave" horiz-adv-x="389" d="M37 45L124 63V600L40 619V664H353V619L270 600V63L356 45V0H37V45ZM417 875L490 736H421L296 854V875H417Z" />
<glyph unicode="&#xcd;" glyph-name="Iacute" horiz-adv-x="389" d="M37 45L124 63V600L40 619V664H353V619L270 600V63L356 45V0H37V45ZM349 875V854L224 736H155L228 875H349Z" />
<glyph unicode="&#xce;" glyph-name="Icircumflex" horiz-adv-x="389" d="M37 45L124 63V600L40 619V664H353V619L270 600V63L356 45V0H37V45ZM295 736L401 871H504L612 736H549L451 803L354 736H295Z" />
<glyph unicode="&#xcf;" glyph-name="Idieresis" horiz-adv-x="389" d="M37 45L124 63V600L40 619V664H353V619L270 600V63L356 45V0H37V45ZM333 737Q305 737 285 757T265 805Q265 834 285 854T333 875Q361 875 381 855T402 805Q402 777 382 757T333 737ZM570
737Q542 737 522 757T501 805Q501 834 521 854T570 875Q598 875 618 855T639 805Q639 777 619 757T570 737Z" />
<glyph unicode="&#xd0;" glyph-name="Eth" horiz-adv-x="796" d="M37 45L124 63V306H27V362H124V600L40 619V664L373 669Q463 670 533 647T652 581T727 480T753 352Q753 268 722 202T634 89T498 19T325 -4L37 0V45ZM268 306L269 97Q270 80 281 70T308 54T341 48T371
46Q424 47 465 69T534 129T577 215T592 318Q592 406 566 465T495 560T391 608T268 617V362H416V306H268Z" />
<glyph unicode="&#xd1;" glyph-name="Ntilde" horiz-adv-x="807" d="M392 767Q358 778 338 782T306 784T285 769T268 738L233 752L237 765Q250 807 267 830T305 863T351 869T405 856L443 843Q475 832 495 829T528 829T549 846T567 880L603 868L599 853Q587 809
571 784T532 750T483 742T425 756L392 767ZM614 -5L196 499L199 76L324 43V0H42V45L128 66L129 587L37 620V664H248L627 206L625 586L500 621V664H779V619L695 596V95L698 -5H614Z" />
<glyph unicode="&#xd2;" glyph-name="Ograve" horiz-adv-x="787" d="M358 875L431 736H362L237 854V875H358ZM405 34Q448 34 482 56T538 116T573 205T585 313Q585 376 571 432T530 532T466 601T382 627Q337 627 304 606T248 547T214 459T202 352Q202 289 216 232T256
130T320 60T405 34ZM394 683Q476 683 541 657T651 584T719 475T743 340Q743 257 715 190T639 75T527 3T391 -23Q316 -23 253 1T143 70T70 178T44 320Q44 404 71 471T146 585T258 658T394 683Z" />
<glyph unicode="&#xd3;" glyph-name="Oacute" horiz-adv-x="787" d="M546 875V854L421 736H352L425 875H546ZM405 34Q448 34 482 56T538 116T573 205T585 313Q585 376 571 432T530 532T466 601T382 627Q337 627 304 606T248 547T214 459T202 352Q202 289 216 232T256
130T320 60T405 34ZM394 683Q476 683 541 657T651 584T719 475T743 340Q743 257 715 190T639 75T527 3T391 -23Q316 -23 253 1T143 70T70 178T44 320Q44 404 71 471T146 585T258 658T394 683Z" />
<glyph unicode="&#xd4;" glyph-name="Ocircumflex" horiz-adv-x="787" d="M237 736L343 871H446L554 736H491L393 803L296 736H237ZM405 34Q448 34 482 56T538 116T573 205T585 313Q585 376 571 432T530 532T466 601T382 627Q337 627 304 606T248 547T214 459T202
352Q202 289 216 232T256 130T320 60T405 34ZM394 683Q476 683 541 657T651 584T719 475T743 340Q743 257 715 190T639 75T527 3T391 -23Q316 -23 253 1T143 70T70 178T44 320Q44 404 71 471T146 585T258 658T394 683Z" />
<glyph unicode="&#xd5;" glyph-name="Otilde" horiz-adv-x="787" d="M368 767Q334 778 314 782T282 784T261 769T244 738L209 752L213 765Q226 807 243 830T281 863T327 869T381 856L419 843Q451 832 471 829T504 829T525 846T543 880L579 868L575 853Q563 809
547 784T508 750T459 742T401 756L368 767ZM405 34Q448 34 482 56T538 116T573 205T585 313Q585 376 571 432T530 532T466 601T382 627Q337 627 304 606T248 547T214 459T202 352Q202 289 216 232T256 130T320 60T405 34ZM394 683Q476 683 541 657T651 584T719
475T743 340Q743 257 715 190T639 75T527 3T391 -23Q316 -23 253 1T143 70T70 178T44 320Q44 404 71 471T146 585T258 658T394 683Z" />
<glyph unicode="&#xd6;" glyph-name="Odieresis" horiz-adv-x="787" d="M275 737Q247 737 227 757T207 805Q207 834 227 854T275 875Q303 875 323 855T344 805Q344 777 324 757T275 737ZM512 737Q484 737 464 757T443 805Q443 834 463 854T512 875Q540 875 560
855T581 805Q581 777 561 757T512 737ZM405 34Q448 34 482 56T538 116T573 205T585 313Q585 376 571 432T530 532T466 601T382 627Q337 627 304 606T248 547T214 459T202 352Q202 289 216 232T256 130T320 60T405 34ZM394 683Q476 683 541 657T651 584T719 475T743
340Q743 257 715 190T639 75T527 3T391 -23Q316 -23 253 1T143 70T70 178T44 320Q44 404 71 471T146 585T258 658T394 683Z" />
<glyph unicode="&#xd7;" glyph-name="multiply" horiz-adv-x="600" d="M296 262L119 80L74 125L256 307L74 488L121 535L301 353L482 540L526 495L345 311L526 128L478 79L296 262Z" />
<glyph unicode="&#xd8;" glyph-name="Oslash" horiz-adv-x="787" d="M137 78Q94 123 70 184T45 320Q45 403 72 470T147 584T258 657T394 683Q456 683 508 667T602 622L664 695H729L640 591Q690 543 716 479T742 340Q742 255 715 188T640 74T528 2T391 -23Q329
-23 274 -6T174 45L108 -33H42L137 78ZM589 316Q589 367 581 411T557 493L248 131Q273 86 312 59T407 32Q453 32 487 55T544 117T578 207T589 316ZM384 627Q338 627 304 605T246 543T212 452T200 339Q200 298 206 258T225 182L532 540Q505 582 468 604T384 627Z"
/>
<glyph unicode="&#xd9;" glyph-name="Ugrave" horiz-adv-x="763" d="M369 875L442 736H373L248 854V875H369ZM389 -22Q310 -22 256 -4T167 51T118 140T102 262V600L18 619V664H331V619L249 600V265Q249 218 258 180T287 113T338 69T414 53Q594 53 591 275L588
589L467 621V664H748V619L665 596V275Q665 206 646 151T592 57T505 -1T389 -22Z" />
<glyph unicode="&#xda;" glyph-name="Uacute" horiz-adv-x="763" d="M557 875V854L432 736H363L436 875H557ZM389 -22Q310 -22 256 -4T167 51T118 140T102 262V600L18 619V664H331V619L249 600V265Q249 218 258 180T287 113T338 69T414 53Q594 53 591 275L588
589L467 621V664H748V619L665 596V275Q665 206 646 151T592 57T505 -1T389 -22Z" />
<glyph unicode="&#xdb;" glyph-name="Ucircumflex" horiz-adv-x="763" d="M247 736L353 871H456L564 736H501L403 803L306 736H247ZM389 -22Q310 -22 256 -4T167 51T118 140T102 262V600L18 619V664H331V619L249 600V265Q249 218 258 180T287 113T338 69T414 53Q594
53 591 275L588 589L467 621V664H748V619L665 596V275Q665 206 646 151T592 57T505 -1T389 -22Z" />
<glyph unicode="&#xdc;" glyph-name="Udieresis" horiz-adv-x="763" d="M389 -22Q310 -22 256 -4T167 51T118 140T102 262V600L18 619V664H331V619L249 600V265Q249 218 258 180T287 113T338 69T414 53Q594 53 591 275L588 589L467 621V664H748V619L665 596V275Q665
206 646 151T592 57T505 -1T389 -22ZM285 737Q257 737 237 757T217 805Q217 834 237 854T285 875Q313 875 333 855T354 805Q354 777 334 757T285 737ZM522 737Q494 737 474 757T453 805Q453 834 473 854T522 875Q550 875 570 855T591 805Q591 777 571 757T522 737Z"
/>
<glyph unicode="&#xdd;" glyph-name="Yacute" horiz-adv-x="672" d="M410 280V63L503 45V0H170V45L263 63V251L70 602L6 619V664H320V620L239 601L376 322L521 594L431 619V664H666V620L593 597L410 280ZM527 875V854L402 736H333L406 875H527Z" />
<glyph unicode="&#xde;" glyph-name="Thorn" horiz-adv-x="648" d="M37 45L124 63V600L40 619V664H353V619L270 600V518H297Q458 520 541 474T624 343Q624 289 595 252T521 191T420 158T313 153V190Q347 194 376 204T428 231T463 272T476 329Q476 359 463 385T423
430T359 461T270 473V63L356 45V0H37V45Z" />
<glyph unicode="&#xdf;" glyph-name="germandbls" horiz-adv-x="665" d="M25 44L91 61V426H22V473L92 495Q100 549 122 595T179 674T264 727T377 746Q419 746 455 736T517 708T559 663T574 606Q574 580 565 560T541 524T507 494T468 466Q438 445 427 431T416 401Q416
381 431 366T480 330L532 299Q584 268 607 236T630 159Q630 123 613 91T567 34T498 -5T414 -19Q379 -19 348 -10T287 16L286 162H324L360 54Q365 51 381 41T429 31Q467 31 488 51T509 105Q509 137 492 157T440 198L383 232Q346 254 326 279T305 342Q305 360 311
376T328 406T350 432T373 453Q413 486 436 515T459 589Q459 615 450 634T427 667T393 687T352 694Q295 694 260 653T225 531L224 0H25V44Z" />
<glyph unicode="&#xe0;" glyph-name="agrave" horiz-adv-x="545" d="M177 -14Q151 -14 127 -5T83 20T53 61T41 115Q41 176 84 207T202 257L318 285V326Q318 380 296 412T230 444Q213 444 197 440T175 431L173 328Q166 325 149 322T114 318Q88 318 73 330T58 369Q58
389 76 412T124 454T195 485T280 498Q374 498 413 458T452 332V90Q452 68 459 62T489 56H532V21Q511 11 490 4Q472 -3 451 -8T410 -13Q364 -13 346 12T322 73H317Q302 56 288 40T258 12T223 -7T177 -14ZM248 71Q274 71 291 83T318 106V242L254 222Q211 208 193
191T174 145Q174 109 196 90T248 71ZM136 746V764H244L298 565H244L136 746Z" />
<glyph unicode="&#xe1;" glyph-name="aacute" horiz-adv-x="545" d="M177 -14Q151 -14 127 -5T83 20T53 61T41 115Q41 176 84 207T202 257L318 285V326Q318 380 296 412T230 444Q213 444 197 440T175 431L173 328Q166 325 149 322T114 318Q88 318 73 330T58 369Q58
389 76 412T124 454T195 485T280 498Q374 498 413 458T452 332V90Q452 68 459 62T489 56H532V21Q511 11 490 4Q472 -3 451 -8T410 -13Q364 -13 346 12T322 73H317Q302 56 288 40T258 12T223 -7T177 -14ZM248 71Q274 71 291 83T318 106V242L254 222Q211 208 193
191T174 145Q174 109 196 90T248 71ZM399 764V746L291 565H237L290 764H399Z" />
<glyph unicode="&#xe2;" glyph-name="acircumflex" horiz-adv-x="545" d="M177 -14Q151 -14 127 -5T83 20T53 61T41 115Q41 176 84 207T202 257L318 285V326Q318 380 296 412T230 444Q213 444 197 440T175 431L173 328Q166 325 149 322T114 318Q88 318 73 330T58
369Q58 389 76 412T124 454T195 485T280 498Q374 498 413 458T452 332V90Q452 68 459 62T489 56H532V21Q511 11 490 4Q472 -3 451 -8T410 -13Q364 -13 346 12T322 73H317Q302 56 288 40T258 12T223 -7T177 -14ZM248 71Q274 71 291 83T318 106V242L254 222Q211 208
193 191T174 145Q174 109 196 90T248 71ZM134 565L233 764H310L409 565H350L268 671L188 565H134Z" />
<glyph unicode="&#xe3;" glyph-name="atilde" horiz-adv-x="545" d="M177 -14Q151 -14 127 -5T83 20T53 61T41 115Q41 176 84 207T202 257L318 285V326Q318 380 296 412T230 444Q213 444 197 440T175 431L173 328Q166 325 149 322T114 318Q88 318 73 330T58 369Q58
389 76 412T124 454T195 485T280 498Q374 498 413 458T452 332V90Q452 68 459 62T489 56H532V21Q511 11 490 4Q472 -3 451 -8T410 -13Q364 -13 346 12T322 73H317Q302 56 288 40T258 12T223 -7T177 -14ZM248 71Q274 71 291 83T318 106V242L254 222Q211 208 193
191T174 145Q174 109 196 90T248 71ZM242 615Q214 627 195 633T162 637T138 622T119 586L84 603L89 616Q120 696 161 715T258 709L294 693Q321 681 340 676T373 675T398 692T419 732L453 715L448 701Q433 658 415 632T376 595T329 585T274 601L242 615Z" />
<glyph unicode="&#xe4;" glyph-name="adieresis" horiz-adv-x="545" d="M177 -14Q151 -14 127 -5T83 20T53 61T41 115Q41 176 84 207T202 257L318 285V326Q318 380 296 412T230 444Q213 444 197 440T175 431L173 328Q166 325 149 322T114 318Q88 318 73 330T58
369Q58 389 76 412T124 454T195 485T280 498Q374 498 413 458T452 332V90Q452 68 459 62T489 56H532V21Q511 11 490 4Q472 -3 451 -8T410 -13Q364 -13 346 12T322 73H317Q302 56 288 40T258 12T223 -7T177 -14ZM248 71Q274 71 291 83T318 106V242L254 222Q211 208
193 191T174 145Q174 109 196 90T248 71ZM161 594Q133 594 113 614T93 663Q93 691 113 711T161 732Q190 732 210 712T230 663Q230 634 210 614T161 594ZM376 594Q347 594 327 614T307 663Q307 691 327 711T376 732Q404 732 424 712T445 663Q445 634 425 614T376
594Z" />
<glyph unicode="&#xe5;" glyph-name="aring" horiz-adv-x="545" d="M177 -14Q151 -14 127 -5T83 20T53 61T41 115Q41 176 84 207T202 257L318 285V326Q318 380 296 412T230 444Q213 444 197 440T175 431L173 328Q166 325 149 322T114 318Q88 318 73 330T58 369Q58
389 76 412T124 454T195 485T280 498Q374 498 413 458T452 332V90Q452 68 459 62T489 56H532V21Q511 11 490 4Q472 -3 451 -8T410 -13Q364 -13 346 12T322 73H317Q302 56 288 40T258 12T223 -7T177 -14ZM248 71Q274 71 291 83T318 106V242L254 222Q211 208 193
191T174 145Q174 109 196 90T248 71ZM150 674Q150 699 159 720T185 756T222 781T269 790Q320 790 354 758T388 674Q388 649 379 628T353 592T316 567T269 558Q218 558 184 590T150 674ZM203 674Q203 644 222 625T269 606Q296 606 315 625T335 674Q335 704 316 723T269
742Q242 742 223 723T203 674Z" />
<glyph unicode="&#xe6;" glyph-name="ae" horiz-adv-x="797" d="M177 -14Q149 -14 124 -5T81 22T52 62T41 114Q41 176 81 207T200 255L322 281V326Q321 385 296 414T231 444Q211 444 196 439T175 431L173 328Q166 325 150 322T115 318Q89 318 74 330T58 368Q58
389 76 412T126 454T196 485T276 498Q333 498 366 479T419 426Q443 458 482 479T571 500Q616 500 649 484T704 441T739 377T753 299Q750 298 732 296T687 289T627 281T560 273T496 264T445 257V228Q456 161 497 123T603 84Q632 84 656 93T698 114Q718 127 734 145L756
124Q748 112 733 89T693 43T629 2T539 -15Q469 -15 423 15T352 91Q334 71 316 53T276 19T231 -5T177 -14ZM249 71Q266 71 280 76T305 90T324 107T337 125Q329 147 326 169T322 214V239L261 225Q219 214 197 196T174 145Q174 110 196 91T249 71ZM542 444Q524 444
507 434T477 406T455 360T445 300L620 326Q619 379 599 411T542 444Z" />
<glyph unicode="&#xe7;" glyph-name="ccedilla" horiz-adv-x="489" d="M128 -232Q143 -227 159 -221T188 -205T209 -184T218 -155Q218 -143 213 -134T202 -117T188 -105T174 -97L228 -13Q197 -9 169 2Q127 19 97 50T49 126T32 224Q32 288 55 339T116 426T202 481T301
500Q337 500 365 491T414 466T445 429T456 386Q456 356 438 338T387 320Q378 320 371 320T357 322Q350 323 345 324L331 435Q329 436 316 441T283 446Q253 446 230 432T192 395T168 344T159 285Q159 238 172 201T207 137T260 98T326 84Q351 84 372 92T409 110Q427
121 441 137L463 115Q451 98 435 76T395 33T338 -1Q310 -12 275 -15L250 -59Q279 -65 300 -84T322 -136Q322 -168 304 -191T259 -229T199 -253T137 -267L128 -232Z" />
<glyph unicode="&#xe8;" glyph-name="egrave" horiz-adv-x="531" d="M267 -15Q204 -15 160 7T87 65T45 142T32 224Q32 287 53 338T111 425T193 480T289 500Q339 500 376 483T437 434T474 359T488 264H154Q157 219 172 185T210 129T265 95T331 84Q362 84 387 93T430
114Q451 127 468 145L491 124Q482 112 466 89T424 43T360 2T267 -15ZM263 444Q222 444 192 410T155 317H350Q350 341 346 364T331 405T304 433T263 444ZM144 746V764H252L306 565H252L144 746Z" />
<glyph unicode="&#xe9;" glyph-name="eacute" horiz-adv-x="531" d="M409 764V746L301 565H247L300 764H409ZM267 -15Q204 -15 160 7T87 65T45 142T32 224Q32 287 53 338T111 425T193 480T289 500Q339 500 376 483T437 434T474 359T488 264H154Q157 219 172 185T210
129T265 95T331 84Q362 84 387 93T430 114Q451 127 468 145L491 124Q482 112 466 89T424 43T360 2T267 -15ZM263 444Q222 444 192 410T155 317H350Q350 341 346 364T331 405T304 433T263 444Z" />
<glyph unicode="&#xea;" glyph-name="ecircumflex" horiz-adv-x="531" d="M139 565L238 764H315L414 565H355L273 671L193 565H139ZM267 -15Q204 -15 160 7T87 65T45 142T32 224Q32 287 53 338T111 425T193 480T289 500Q339 500 376 483T437 434T474 359T488 264H154Q157
219 172 185T210 129T265 95T331 84Q362 84 387 93T430 114Q451 127 468 145L491 124Q482 112 466 89T424 43T360 2T267 -15ZM263 444Q222 444 192 410T155 317H350Q350 341 346 364T331 405T304 433T263 444Z" />
<glyph unicode="&#xeb;" glyph-name="edieresis" horiz-adv-x="531" d="M171 594Q143 594 123 614T103 663Q103 691 123 711T171 732Q200 732 220 712T240 663Q240 634 220 614T171 594ZM386 594Q357 594 337 614T317 663Q317 691 337 711T386 732Q414 732 434
712T455 663Q455 634 435 614T386 594ZM267 -15Q204 -15 160 7T87 65T45 142T32 224Q32 287 53 338T111 425T193 480T289 500Q339 500 376 483T437 434T474 359T488 264H154Q157 219 172 185T210 129T265 95T331 84Q362 84 387 93T430 114Q451 127 468 145L491
124Q482 112 466 89T424 43T360 2T267 -15ZM263 444Q222 444 192 410T155 317H350Q350 341 346 364T331 405T304 433T263 444Z" />
<glyph unicode="&#xec;" glyph-name="igrave" horiz-adv-x="315" d="M23 46L90 62V397L26 414V460L223 500V62L290 46V0H23V46ZM278 754V772H386L440 573H386L278 754Z" />
<glyph unicode="&#xed;" glyph-name="iacute" horiz-adv-x="315" d="M289 772V754L181 573H127L180 772H289ZM23 46L90 62V397L26 414V460L223 500V62L290 46V0H23V46Z" />
<glyph unicode="&#xee;" glyph-name="icircumflex" horiz-adv-x="315" d="M277 573L376 772H453L552 573H493L411 679L331 573H277ZM23 46L90 62V397L26 414V460L223 500V62L290 46V0H23V46Z" />
<glyph unicode="&#xef;" glyph-name="idieresis" horiz-adv-x="315" d="M62 596Q34 596 15 615T-5 663Q-5 691 14 711T62 731Q90 731 110 711T130 663Q130 635 110 616T62 596ZM251 596Q223 596 203 615T183 663Q183 691 203 711T251 731Q279 731 299 711T319
663Q319 635 299 616T251 596ZM23 46L90 62V397L26 414V460L223 500V62L290 46V0H23V46Z" />
<glyph unicode="&#xf0;" glyph-name="eth" horiz-adv-x="581" d="M82 578L206 639Q177 664 146 686T82 730L101 761Q203 724 282 677L417 743L438 703L326 648Q439 570 492 474T545 270Q545 202 525 149T469 58T388 2T288 -17Q226 -17 178 2T98 56T49 135T32 233Q32
293 54 340T111 421T189 472T277 490Q314 490 344 476Q324 513 298 545T242 607L102 538L82 578ZM406 228Q406 276 399 319T378 401Q372 405 363 413T342 428T316 440T284 446Q261 446 241 437T206 409T182 358T173 284Q173 234 182 190T207 112T248 58T304 38Q332
38 351 52T383 92T400 153T406 228Z" />
<glyph unicode="&#xf1;" glyph-name="ntilde" horiz-adv-x="625" d="M25 45L91 62V394L23 409V448L191 501H196L218 411H219Q228 421 243 436T280 466T328 490T386 500Q462 500 500 461T539 332V61L607 45V0H351V46L406 61V303Q404 357 383 385T313 412Q283 412
259 400T224 379V61L284 45V0H25V45ZM281 615Q253 627 234 633T201 637T177 622T158 586L123 603L128 616Q159 696 200 715T297 709L333 693Q360 681 379 676T412 675T437 692T458 732L492 715L487 701Q472 658 454 632T415 595T368 585T313 601L281 615Z" />
<glyph unicode="&#xf2;" glyph-name="ograve" d="M172 277Q172 247 177 206T197 128T237 64T301 38Q325 38 343 50T374 85T393 139T400 206Q400 260 391 304T364 379T324 427T272 444Q223 444 198 397T172 277ZM286 -17Q223 -17 175 3T95 57T46 137T29 233Q29
289 49 337T103 422T185 478T286 499Q344 499 391 482T472 432T524 354T543 251Q543 195 524 146T470 61T389 4T286 -17ZM151 746V764H259L313 565H259L151 746Z" />
<glyph unicode="&#xf3;" glyph-name="oacute" d="M418 764V746L310 565H256L309 764H418ZM172 277Q172 247 177 206T197 128T237 64T301 38Q325 38 343 50T374 85T393 139T400 206Q400 260 391 304T364 379T324 427T272 444Q223 444 198 397T172 277ZM286 -17Q223
-17 175 3T95 57T46 137T29 233Q29 289 49 337T103 422T185 478T286 499Q344 499 391 482T472 432T524 354T543 251Q543 195 524 146T470 61T389 4T286 -17Z" />
<glyph unicode="&#xf4;" glyph-name="ocircumflex" d="M150 565L249 764H326L425 565H366L284 671L204 565H150ZM172 277Q172 247 177 206T197 128T237 64T301 38Q325 38 343 50T374 85T393 139T400 206Q400 260 391 304T364 379T324 427T272 444Q223 444 198
397T172 277ZM286 -17Q223 -17 175 3T95 57T46 137T29 233Q29 289 49 337T103 422T185 478T286 499Q344 499 391 482T472 432T524 354T543 251Q543 195 524 146T470 61T389 4T286 -17Z" />
<glyph unicode="&#xf5;" glyph-name="otilde" d="M172 277Q172 247 177 206T197 128T237 64T301 38Q325 38 343 50T374 85T393 139T400 206Q400 260 391 304T364 379T324 427T272 444Q223 444 198 397T172 277ZM286 -17Q223 -17 175 3T95 57T46 137T29 233Q29
289 49 337T103 422T185 478T286 499Q344 499 391 482T472 432T524 354T543 251Q543 195 524 146T470 61T389 4T286 -17ZM265 615Q237 627 218 633T185 637T161 622T142 586L107 603L112 616Q143 696 184 715T281 709L317 693Q344 681 363 676T396 675T421 692T442
732L476 715L471 701Q456 658 438 632T399 595T352 585T297 601L265 615Z" />
<glyph unicode="&#xf6;" glyph-name="odieresis" d="M177 594Q149 594 129 614T109 663Q109 691 129 711T177 732Q206 732 226 712T246 663Q246 634 226 614T177 594ZM392 594Q363 594 343 614T323 663Q323 691 343 711T392 732Q420 732 440 712T461 663Q461 634
441 614T392 594ZM172 277Q172 247 177 206T197 128T237 64T301 38Q325 38 343 50T374 85T393 139T400 206Q400 260 391 304T364 379T324 427T272 444Q223 444 198 397T172 277ZM286 -17Q223 -17 175 3T95 57T46 137T29 233Q29 289 49 337T103 422T185 478T286
499Q344 499 391 482T472 432T524 354T543 251Q543 195 524 146T470 61T389 4T286 -17Z" />
<glyph unicode="&#xf7;" glyph-name="divide" horiz-adv-x="600" d="M63 276V338H537V276H63ZM299 64Q284 64 270 70T246 86T229 111T222 142Q222 157 228 170T245 194T270 211T299 218Q315 218 329 212T353 195T370 171T377 142Q377 126 371 112T354 87T329 70T299
64ZM300 395Q285 395 271 401T247 417T230 442T223 473Q223 488 229 501T246 525T271 542T300 549Q316 549 330 543T354 526T371 502T378 473Q378 457 372 443T355 418T330 401T300 395Z" />
<glyph unicode="&#xf8;" glyph-name="oslash" d="M24 -42L101 52Q66 87 48 133T29 233Q29 289 49 337T103 422T185 478T286 499Q372 499 435 459L490 526H549L471 431Q505 398 524 353T543 251Q543 195 524 146T470 61T389 4T286 -17Q241 -17 204 -6T137 24L83
-42H24ZM166 263Q166 232 169 203T180 148L372 381Q337 445 273 445Q223 445 195 396T166 263ZM299 37Q327 37 347 53T380 95T399 153T405 218Q405 283 391 333L199 100Q216 71 240 54T299 37Z" />
<glyph unicode="&#xf9;" glyph-name="ugrave" horiz-adv-x="615" d="M401 71Q393 61 379 46T343 18T295 -6T234 -16Q204 -16 177 -7T128 23T95 74T82 151V413L14 429V473L216 495V183Q217 129 237 100T306 71Q340 71 362 83T394 106V413L317 428V472L528 494V74L602
57V13L441 -16L401 71ZM181 746V764H289L343 565H289L181 746Z" />
<glyph unicode="&#xfa;" glyph-name="uacute" horiz-adv-x="615" d="M439 764V746L331 565H277L330 764H439ZM401 71Q393 61 379 46T343 18T295 -6T234 -16Q204 -16 177 -7T128 23T95 74T82 151V413L14 429V473L216 495V183Q217 129 237 100T306 71Q340 71 362
83T394 106V413L317 428V472L528 494V74L602 57V13L441 -16L401 71Z" />
<glyph unicode="&#xfb;" glyph-name="ucircumflex" horiz-adv-x="615" d="M169 565L268 764H345L444 565H385L303 671L223 565H169ZM401 71Q393 61 379 46T343 18T295 -6T234 -16Q204 -16 177 -7T128 23T95 74T82 151V413L14 429V473L216 495V183Q217 129 237
100T306 71Q340 71 362 83T394 106V413L317 428V472L528 494V74L602 57V13L441 -16L401 71Z" />
<glyph unicode="&#xfc;" glyph-name="udieresis" horiz-adv-x="615" d="M197 594Q169 594 149 614T129 663Q129 691 149 711T197 732Q226 732 246 712T266 663Q266 634 246 614T197 594ZM412 594Q383 594 363 614T343 663Q343 691 363 711T412 732Q440 732 460
712T481 663Q481 634 461 614T412 594ZM401 71Q393 61 379 46T343 18T295 -6T234 -16Q204 -16 177 -7T128 23T95 74T82 151V413L14 429V473L216 495V183Q217 129 237 100T306 71Q340 71 362 83T394 106V413L317 428V472L528 494V74L602 57V13L441 -16L401 71Z"
/>
<glyph unicode="&#xfd;" glyph-name="yacute" horiz-adv-x="538" d="M352 438V483H535V437L491 423L277 -114Q261 -154 247 -181T217 -226T184 -251T143 -259Q110 -259 85 -238T60 -184Q60 -152 79 -135T127 -117Q151 -117 166 -130T193 -165H196L242 -57L47 424L3
438V483H263V437L194 424L304 107H308L421 418L352 438ZM438 764V746L330 565H276L329 764H438Z" />
<glyph unicode="&#xfe;" glyph-name="thorn" horiz-adv-x="582" d="M71 653L4 671V714L205 746V422Q215 433 229 446T262 470T303 489T353 497Q390 497 425 484T489 444T534 373T552 269Q552 207 530 155T468 66T377 7T266 -15Q249 -15 234 -13T205 -6V-177L311
-196V-240H6V-195L71 -178V653ZM278 412Q255 412 236 404T205 388V76Q213 65 233 52T292 38Q317 38 339 50T379 85T407 143T418 224Q418 310 381 361T278 412Z" />
<glyph unicode="&#xff;" glyph-name="ydieresis" horiz-adv-x="538" d="M352 438V483H535V437L491 423L277 -114Q261 -154 247 -181T217 -226T184 -251T143 -259Q110 -259 85 -238T60 -184Q60 -152 79 -135T127 -117Q151 -117 166 -130T193 -165H196L242 -57L47
424L3 438V483H263V437L194 424L304 107H308L421 418L352 438ZM201 594Q173 594 153 614T133 663Q133 691 153 711T201 732Q230 732 250 712T270 663Q270 634 250 614T201 594ZM416 594Q387 594 367 614T347 663Q347 691 367 711T416 732Q444 732 464 712T485 663Q485
634 465 614T416 594Z" />
<glyph unicode="&#x100;" glyph-name="Amacron" horiz-adv-x="737" d="M223 841H513V770H223V841ZM5 43L68 65L305 661L361 666L421 682L660 61L733 45V0H418V46L503 63L449 215H205L155 75L256 46V0H5V43ZM230 284H424L328 555H327L230 284Z" />
<glyph unicode="&#x101;" glyph-name="amacron" horiz-adv-x="545" d="M124 691H414V619H124V691ZM177 -14Q151 -14 127 -5T83 20T53 61T41 115Q41 176 84 207T202 257L318 285V326Q318 380 296 412T230 444Q213 444 197 440T175 431L173 328Q166 325 149 322T114
318Q88 318 73 330T58 369Q58 389 76 412T124 454T195 485T280 498Q374 498 413 458T452 332V90Q452 68 459 62T489 56H532V21Q511 11 490 4Q472 -3 451 -8T410 -13Q364 -13 346 12T322 73H317Q302 56 288 40T258 12T223 -7T177 -14ZM248 71Q274 71 291 83T318
106V242L254 222Q211 208 193 191T174 145Q174 109 196 90T248 71Z" />
<glyph unicode="&#x102;" glyph-name="Abreve" horiz-adv-x="737" d="M5 43L68 65L305 661L361 666L421 682L660 61L733 45V0H418V46L503 63L449 215H205L155 75L256 46V0H5V43ZM230 284H424L328 555H327L230 284ZM363 728Q324 728 297 740T253 773T229 819T221
872H264Q273 844 297 826T369 807Q417 807 441 826T473 872H515Q515 845 507 820T480 774T432 741T363 728Z" />
<glyph unicode="&#x103;" glyph-name="abreve" horiz-adv-x="545" d="M177 -14Q151 -14 127 -5T83 20T53 61T41 115Q41 176 84 207T202 257L318 285V326Q318 380 296 412T230 444Q213 444 197 440T175 431L173 328Q166 325 149 322T114 318Q88 318 73 330T58 369Q58
389 76 412T124 454T195 485T280 498Q374 498 413 458T452 332V90Q452 68 459 62T489 56H532V21Q511 11 490 4Q472 -3 451 -8T410 -13Q364 -13 346 12T322 73H317Q302 56 288 40T258 12T223 -7T177 -14ZM248 71Q274 71 291 83T318 106V242L254 222Q211 208 193
191T174 145Q174 109 196 90T248 71ZM265 566Q230 566 206 579T166 614T143 665T135 729H181Q188 691 209 667T272 642Q310 642 331 666T360 729H405Q404 695 396 665T372 613T329 579T265 566Z" />
<glyph unicode="&#x104;" glyph-name="Aogonek" horiz-adv-x="737" d="M5 43L68 65L305 661L361 666L421 682L660 61L733 45V0H560Q528 -17 508 -33T477 -65T461 -95T456 -121Q456 -149 472 -163T512 -178Q537 -178 555 -168T600 -132L621 -152Q609 -171 595 -191T563
-227T522 -254T469 -265Q420 -265 391 -238T362 -168Q362 -145 371 -125T399 -82T446 -32T514 31L448 215H205L155 75L256 46V0H5V43ZM230 284H424L328 555H327L230 284Z" />
<glyph unicode="&#x105;" glyph-name="aogonek" horiz-adv-x="545" d="M532 23Q480 -4 448 -24T397 -62T371 -93T364 -121Q364 -144 377 -158T415 -173Q439 -173 459 -163T505 -126L526 -147Q514 -166 500 -186T468 -222T427 -248T373 -259Q324 -259 295 -232T266
-163Q266 -141 274 -122T300 -85T342 -50T403 -14V-10Q361 -8 344 13T322 73H317Q302 56 288 40T258 12T223 -7T177 -14Q151 -14 127 -5T83 20T53 61T41 115Q41 176 84 207T202 257L318 285V326Q318 380 296 412T230 444Q213 444 197 440T175 431L173 328Q166 325
149 322T114 318Q88 318 73 330T58 369Q58 389 76 412T125 454T196 485T280 498Q374 498 413 458T452 332V90Q452 68 459 62T489 56H532V23ZM248 71Q274 71 291 83T318 106V242L254 222Q211 208 193 191T174 145Q174 109 196 90T248 71Z" />
<glyph unicode="&#x106;" glyph-name="Cacute" horiz-adv-x="722" d="M581 875V854L456 736H387L460 875H581ZM401 -21Q304 -21 236 7T125 82T62 186T42 304Q42 386 73 455T158 575T285 654T444 683Q511 683 561 667T653 629L659 453H613L552 593Q532 605 505
615T440 625Q392 625 349 606T274 552T223 466T204 351Q204 276 223 219T275 121T353 61T449 40Q486 40 515 50T561 72L642 221H688L663 41Q603 12 540 -4T401 -21Z" />
<glyph unicode="&#x107;" glyph-name="cacute" horiz-adv-x="489" d="M261 -15Q211 -15 169 2T97 50T49 126T32 224Q32 288 55 339T116 426T202 481T301 500Q337 500 365 491T414 466T445 429T456 386Q456 356 438 338T387 320Q378 320 371 320T357 322Q350 323
345 324L331 435Q329 436 316 441T283 446Q253 446 230 432T192 395T168 344T159 285Q159 238 172 201T207 137T260 98T326 84Q351 84 372 92T409 110Q427 121 441 137L463 115Q451 98 435 76T395 33T338 -1T261 -15ZM405 764V746L297 565H243L296 764H405Z" />
<glyph unicode="&#x108;" glyph-name="Ccircumflex" horiz-adv-x="722" d="M271 736L377 871H480L588 736H525L427 803L330 736H271ZM401 -21Q304 -21 236 7T125 82T62 186T42 304Q42 386 73 455T158 575T285 654T444 683Q511 683 561 667T653 629L659 453H613L552
593Q532 605 505 615T440 625Q392 625 349 606T274 552T223 466T204 351Q204 276 223 219T275 121T353 61T449 40Q486 40 515 50T561 72L642 221H688L663 41Q603 12 540 -4T401 -21Z" />
<glyph unicode="&#x109;" glyph-name="ccircumflex" horiz-adv-x="489" d="M140 565L239 764H316L415 565H356L274 671L194 565H140ZM261 -15Q211 -15 169 2T97 50T49 126T32 224Q32 288 55 339T116 426T202 481T301 500Q337 500 365 491T414 466T445 429T456
386Q456 356 438 338T387 320Q378 320 371 320T357 322Q350 323 345 324L331 435Q329 436 316 441T283 446Q253 446 230 432T192 395T168 344T159 285Q159 238 172 201T207 137T260 98T326 84Q351 84 372 92T409 110Q427 121 441 137L463 115Q451 98 435 76T395
33T338 -1T261 -15Z" />
<glyph unicode="&#x10a;" glyph-name="Cdotaccent" horiz-adv-x="722" d="M428 744Q392 744 370 767T347 823Q347 855 370 878T428 901Q465 901 487 878T510 823Q510 791 487 768T428 744ZM401 -21Q304 -21 236 7T125 82T62 186T42 304Q42 386 73 455T158 575T285
654T444 683Q511 683 561 667T653 629L659 453H613L552 593Q532 605 505 615T440 625Q392 625 349 606T274 552T223 466T204 351Q204 276 223 219T275 121T353 61T449 40Q486 40 515 50T561 72L642 221H688L663 41Q603 12 540 -4T401 -21Z" />
<glyph unicode="&#x10b;" glyph-name="cdotaccent" horiz-adv-x="489" d="M275 578Q239 578 217 601T194 657Q194 689 217 712T275 735Q311 735 333 712T356 657Q356 625 333 602T275 578ZM261 -15Q211 -15 169 2T97 50T49 126T32 224Q32 288 55 339T116 426T202
481T301 500Q337 500 365 491T414 466T445 429T456 386Q456 356 438 338T387 320Q378 320 371 320T357 322Q350 323 345 324L331 435Q329 436 316 441T283 446Q253 446 230 432T192 395T168 344T159 285Q159 238 172 201T207 137T260 98T326 84Q351 84 372 92T409
110Q427 121 441 137L463 115Q451 98 435 76T395 33T338 -1T261 -15Z" />
<glyph unicode="&#x10c;" glyph-name="Ccaron" horiz-adv-x="722" d="M401 -21Q304 -21 236 7T125 82T62 186T42 304Q42 386 73 455T158 575T285 654T444 683Q511 683 561 667T653 629L659 453H613L552 593Q532 605 505 615T440 625Q392 625 349 606T274 552T223
466T204 351Q204 276 223 219T275 121T353 61T449 40Q486 40 515 50T561 72L642 221H688L663 41Q603 12 540 -4T401 -21ZM583 871L477 736H374L268 871H328L427 803L525 871H583Z" />
<glyph unicode="&#x10d;" glyph-name="ccaron" horiz-adv-x="489" d="M411 764L312 565H235L136 764H195L276 658L357 764H411ZM261 -15Q211 -15 169 2T97 50T49 126T32 224Q32 288 55 339T116 426T202 481T301 500Q337 500 365 491T414 466T445 429T456 386Q456
356 438 338T387 320Q378 320 371 320T357 322Q350 323 345 324L331 435Q329 436 316 441T283 446Q253 446 230 432T192 395T168 344T159 285Q159 238 172 201T207 137T260 98T326 84Q351 84 372 92T409 110Q427 121 441 137L463 115Q451 98 435 76T395 33T338
-1T261 -15Z" />
<glyph unicode="&#x10e;" glyph-name="Dcaron" horiz-adv-x="796" d="M531 871L425 736H322L216 871H276L375 803L473 871H531ZM269 97Q270 80 281 70T308 54T341 48T371 46Q424 47 465 69T534 129T577 215T592 318Q592 406 566 465T495 560T391 608T268 617L269
97ZM37 45L124 63V600L40 619V664L373 669Q463 670 533 647T652 581T727 480T753 352Q753 268 722 202T634 89T498 19T325 -4L37 0V45Z" />
<glyph unicode="&#x10f;" glyph-name="dcaron" horiz-adv-x="612" d="M277 722L514 746V72L590 55V11L424 -12L392 61Q378 46 363 32T330 8T290 -9T239 -15Q192 -15 154 3T88 53T47 128T32 223Q32 287 54 338T115 424T202 479T306 498Q329 498 347 495T380 487V656L277
678V722ZM315 71Q335 71 351 76T380 90V383Q368 401 344 421T283 441Q259 441 239 431T202 400T177 349T168 278Q168 233 177 195T205 130T251 87T315 71ZM577 535L597 746H701V725L613 535H577Z" />
<glyph unicode="&#x110;" glyph-name="Dcroat" horiz-adv-x="796" d="M37 45L124 63V306H27V362H124V600L40 619V664L373 669Q463 670 533 647T652 581T727 480T753 352Q753 268 722 202T634 89T498 19T325 -4L37 0V45ZM268 306L269 97Q270 80 281 70T308 54T341
48T371 46Q424 47 465 69T534 129T577 215T592 318Q592 406 566 465T495 560T391 608T268 617V362H416V306H268Z" />
<glyph unicode="&#x111;" glyph-name="dcroat" horiz-adv-x="612" d="M277 722L514 746V601H593V552H514V72L590 55V11L424 -12L392 61Q378 46 363 32T330 8T290 -9T239 -15Q192 -15 154 3T88 53T47 128T32 223Q32 287 54 337T115 423T202 478T306 497Q328 497
346 494T380 487V552H195V601H380V662L277 678V722ZM315 71Q335 71 351 76T380 90V383Q368 401 344 421T283 441Q259 441 239 431T202 400T177 349T168 278Q168 233 177 195T205 130T251 87T315 71Z" />
<glyph unicode="&#x112;" glyph-name="Emacron" horiz-adv-x="672" d="M273 313V59H500L586 199H631L597 0H40V45L126 63V600L43 619V664H501L595 670V482H551L498 610H273V368H396L423 451H464V236H421L396 313H273ZM209 841H499V770H209V841Z" />
<glyph unicode="&#x113;" glyph-name="emacron" horiz-adv-x="531" d="M135 691H425V619H135V691ZM267 -15Q204 -15 160 7T87 65T45 142T32 224Q32 287 53 338T111 425T193 480T289 500Q339 500 376 483T437 434T474 359T488 264H154Q157 219 172 185T210 129T265
95T331 84Q362 84 387 93T430 114Q451 127 468 145L491 124Q482 112 466 89T424 43T360 2T267 -15ZM263 444Q222 444 192 410T155 317H350Q350 341 346 364T331 405T304 433T263 444Z" />
<glyph unicode="&#x114;" glyph-name="Ebreve" horiz-adv-x="672" d="M349 728Q310 728 283 740T239 773T215 819T207 872H250Q259 844 283 826T355 807Q403 807 427 826T459 872H501Q501 845 493 820T466 774T418 741T349 728ZM273 313V59H500L586 199H631L597
0H40V45L126 63V600L43 619V664H501L595 670V482H551L498 610H273V368H396L423 451H464V236H421L396 313H273Z" />
<glyph unicode="&#x115;" glyph-name="ebreve" horiz-adv-x="531" d="M275 566Q240 566 216 579T176 614T153 665T145 729H191Q198 691 219 667T282 642Q320 642 341 666T370 729H415Q414 695 406 665T382 613T339 579T275 566ZM267 -15Q204 -15 160 7T87 65T45
142T32 224Q32 287 53 338T111 425T193 480T289 500Q339 500 376 483T437 434T474 359T488 264H154Q157 219 172 185T210 129T265 95T331 84Q362 84 387 93T430 114Q451 127 468 145L491 124Q482 112 466 89T424 43T360 2T267 -15ZM263 444Q222 444 192 410T155
317H350Q350 341 346 364T331 405T304 433T263 444Z" />
<glyph unicode="&#x116;" glyph-name="Edotaccent" horiz-adv-x="672" d="M353 744Q317 744 295 767T272 823Q272 855 295 878T353 901Q390 901 412 878T435 823Q435 791 412 768T353 744ZM273 313V59H500L586 199H631L597 0H40V45L126 63V600L43 619V664H501L595
670V482H551L498 610H273V368H396L423 451H464V236H421L396 313H273Z" />
<glyph unicode="&#x117;" glyph-name="edotaccent" horiz-adv-x="531" d="M280 578Q244 578 222 601T199 657Q199 689 222 712T280 735Q316 735 338 712T361 657Q361 625 338 602T280 578ZM267 -15Q204 -15 160 7T87 65T45 142T32 224Q32 287 53 338T111 425T193
480T289 500Q339 500 376 483T437 434T474 359T488 264H154Q157 219 172 185T210 129T265 95T331 84Q362 84 387 93T430 114Q451 127 468 145L491 124Q482 112 466 89T424 43T360 2T267 -15ZM263 444Q222 444 192 410T155 317H350Q350 341 346 364T331 405T304
433T263 444Z" />
<glyph unicode="&#x118;" glyph-name="Eogonek" horiz-adv-x="672" d="M273 313V59H500L586 199H631L597 0H497Q473 -24 457 -42T431 -76T417 -103T412 -128Q412 -151 425 -165T464 -179Q489 -179 508 -169T553 -132L574 -153Q562 -172 548 -192T516 -228T475
-254T421 -265Q372 -265 343 -238T314 -170Q314 -149 321 -130T345 -90T385 -48T445 0H40V45L126 63V600L43 619V664H501L595 670V482H551L498 610H273V368H396L423 451H464V236H421L396 313H273Z" />
<glyph unicode="&#x119;" glyph-name="eogonek" horiz-adv-x="531" d="M267 -15Q204 -15 160 7T87 65T45 142T32 224Q32 287 53 338T111 425T193 480T289 500Q339 500 376 483T437 434T474 359T488 264H154Q157 219 172 185T210 129T265 95T331 84Q362 84 387
93T430 114Q451 127 468 145L491 124Q483 113 466 89T419 37Q387 7 364 -15T325 -55T303 -88T296 -119Q296 -143 309 -158T348 -173Q373 -173 392 -162T437 -126L458 -147Q446 -166 432 -186T400 -222T359 -248T306 -259Q256 -259 228 -232T199 -164Q199 -144 205
-127T226 -91T262 -54T315 -11Q295 -15 267 -15ZM263 444Q222 444 192 410T155 317H350Q350 341 346 364T331 405T304 433T263 444Z" />
<glyph unicode="&#x11a;" glyph-name="Ecaron" horiz-adv-x="672" d="M509 871L403 736H300L194 871H254L353 803L451 871H509ZM273 313V59H500L586 199H631L597 0H40V45L126 63V600L43 619V664H501L595 670V482H551L498 610H273V368H396L423 451H464V236H421L396
313H273Z" />
<glyph unicode="&#x11b;" glyph-name="ecaron" horiz-adv-x="531" d="M416 764L317 565H240L141 764H200L281 658L362 764H416ZM267 -15Q204 -15 160 7T87 65T45 142T32 224Q32 287 53 338T111 425T193 480T289 500Q339 500 376 483T437 434T474 359T488 264H154Q157
219 172 185T210 129T265 95T331 84Q362 84 387 93T430 114Q451 127 468 145L491 124Q482 112 466 89T424 43T360 2T267 -15ZM263 444Q222 444 192 410T155 317H350Q350 341 346 364T331 405T304 433T263 444Z" />
<glyph unicode="&#x11c;" glyph-name="Gcircumflex" horiz-adv-x="765" d="M279 736L385 871H488L596 736H533L435 803L338 736H279ZM406 -21Q309 -21 240 6T127 80T63 184T42 305Q42 384 74 453T161 573T292 653T454 683Q520 683 571 668T665 629L671 456H624L564
594Q546 605 516 615T442 625Q391 625 347 604T272 546T222 458T204 346Q204 270 224 213T279 118T359 60T455 40Q486 40 507 45T541 55V252L453 270V312H727V268L675 253V46L640 31Q602 15 544 -3T406 -21Z" />
<glyph unicode="&#x11d;" glyph-name="gcircumflex" horiz-adv-x="554" d="M127 565L226 764H303L402 565H343L261 671L181 565H127ZM421 423L420 420Q437 404 452 377T467 311Q467 273 451 241T406 185T338 148T253 134Q205 134 163 148Q154 140 146 127T138
103Q138 74 190 72L365 63Q407 61 437 51T487 25T516 -14T526 -60Q526 -98 502 -135T436 -201T337 -249T213 -267Q167 -267 131 -258T69 -232T30 -194T16 -147Q16 -126 24 -109T45 -79T74 -55T108 -37L121 -31V-28L44 45Q54 77 73 109T122 169Q85 192 64 228T42
313Q42 355 59 389T105 447T172 484T255 498Q291 498 322 490T385 470L539 488V413L421 423ZM265 186Q285 186 300 195T324 219T339 253T344 292Q344 368 315 409T245 450Q207 450 187 422T166 347Q166 311 173 281T194 230T226 198T265 186ZM157 -43Q149 -53 143
-67T137 -102Q137 -138 174 -165T280 -193Q320 -193 349 -185T396 -165T424 -136T433 -105Q433 -59 370 -53L157 -43Z" />
<glyph unicode="&#x11e;" glyph-name="Gbreve" horiz-adv-x="765" d="M406 -21Q309 -21 240 6T127 80T63 184T42 305Q42 384 74 453T161 573T292 653T454 683Q520 683 571 668T665 629L671 456H624L564 594Q546 605 516 615T442 625Q391 625 347 604T272 546T222
458T204 346Q204 270 224 213T279 118T359 60T455 40Q486 40 507 45T541 55V252L453 270V312H727V268L675 253V46L640 31Q602 15 544 -3T406 -21ZM431 728Q392 728 365 740T321 773T297 819T289 872H332Q341 844 365 826T437 807Q485 807 509 826T541 872H583Q583
845 575 820T548 774T500 741T431 728Z" />
<glyph unicode="&#x11f;" glyph-name="gbreve" horiz-adv-x="554" d="M421 423L420 420Q437 404 452 377T467 311Q467 273 451 241T406 185T338 148T253 134Q205 134 163 148Q154 140 146 127T138 103Q138 74 190 72L365 63Q407 61 437 51T487 25T516 -14T526
-60Q526 -98 502 -135T436 -201T337 -249T213 -267Q167 -267 131 -258T69 -232T30 -194T16 -147Q16 -126 24 -109T45 -79T74 -55T108 -37L121 -31V-28L44 45Q54 77 73 109T122 169Q85 192 64 228T42 313Q42 355 59 389T105 447T172 484T255 498Q291 498 322 490T385
470L539 488V413L421 423ZM265 186Q285 186 300 195T324 219T339 253T344 292Q344 368 315 409T245 450Q207 450 187 422T166 347Q166 311 173 281T194 230T226 198T265 186ZM157 -43Q149 -53 143 -67T137 -102Q137 -138 174 -165T280 -193Q320 -193 349 -185T396
-165T424 -136T433 -105Q433 -59 370 -53L157 -43ZM258 566Q223 566 199 579T159 614T136 665T128 729H174Q181 691 202 667T265 642Q303 642 324 666T353 729H398Q397 695 389 665T365 613T322 579T258 566Z" />
<glyph unicode="&#x120;" glyph-name="Gdotaccent" horiz-adv-x="765" d="M436 744Q400 744 378 767T355 823Q355 855 378 878T436 901Q473 901 495 878T518 823Q518 791 495 768T436 744ZM406 -21Q309 -21 240 6T127 80T63 184T42 305Q42 384 74 453T161 573T292
653T454 683Q520 683 571 668T665 629L671 456H624L564 594Q546 605 516 615T442 625Q391 625 347 604T272 546T222 458T204 346Q204 270 224 213T279 118T359 60T455 40Q486 40 507 45T541 55V252L453 270V312H727V268L675 253V46L640 31Q602 15 544 -3T406 -21Z"
/>
<glyph unicode="&#x121;" glyph-name="gdotaccent" horiz-adv-x="554" d="M262 578Q226 578 204 601T181 657Q181 689 204 712T262 735Q298 735 320 712T343 657Q343 625 320 602T262 578ZM421 423L420 420Q437 404 452 377T467 311Q467 273 451 241T406 185T338
148T253 134Q205 134 163 148Q154 140 146 127T138 103Q138 74 190 72L365 63Q407 61 437 51T487 25T516 -14T526 -60Q526 -98 502 -135T436 -201T337 -249T213 -267Q167 -267 131 -258T69 -232T30 -194T16 -147Q16 -126 24 -109T45 -79T74 -55T108 -37L121 -31V-28L44
45Q54 77 73 109T122 169Q85 192 64 228T42 313Q42 355 59 389T105 447T172 484T255 498Q291 498 322 490T385 470L539 488V413L421 423ZM265 186Q285 186 300 195T324 219T339 253T344 292Q344 368 315 409T245 450Q207 450 187 422T166 347Q166 311 173 281T194
230T226 198T265 186ZM157 -43Q149 -53 143 -67T137 -102Q137 -138 174 -165T280 -193Q320 -193 349 -185T396 -165T424 -136T433 -105Q433 -59 370 -53L157 -43Z" />
<glyph unicode="&#x122;" glyph-name="Gcommaaccent" horiz-adv-x="765" d="M406 -21Q309 -21 240 6T127 80T63 184T42 305Q42 384 74 453T161 573T292 653T454 683Q520 683 571 668T665 629L671 456H624L564 594Q546 605 516 615T442 625Q391 625 347 604T272
546T222 458T204 346Q204 270 224 213T279 118T359 60T455 40Q486 40 507 45T541 55V252L453 270V312H727V268L675 253V46L640 31Q602 15 544 -3T406 -21ZM302 -245Q351 -228 371 -210T391 -170Q391 -147 371 -137T328 -124V-117Q334 -85 355 -72T405 -59Q443 -59
465 -80T487 -137Q487 -184 446 -220T313 -278L302 -245Z" />
<glyph unicode="&#x123;" glyph-name="gcommaaccent" horiz-adv-x="554" d="M356 770Q306 753 287 735T267 695Q267 672 286 662T329 649V642Q324 610 302 597T252 584Q214 584 192 605T170 662Q170 709 211 745T344 803L356 770ZM421 423L420 420Q437 404 452
377T467 311Q467 273 451 241T406 185T338 148T253 134Q205 134 163 148Q154 140 146 127T138 103Q138 74 190 72L365 63Q407 61 437 51T487 25T516 -14T526 -60Q526 -98 502 -135T436 -201T337 -249T213 -267Q167 -267 131 -258T69 -232T30 -194T16 -147Q16 -126
24 -109T45 -79T74 -55T108 -37L121 -31V-28L44 45Q54 77 73 109T122 169Q85 192 64 228T42 313Q42 355 59 389T105 447T172 484T255 498Q291 498 322 490T385 470L539 488V413L421 423ZM265 186Q285 186 300 195T324 219T339 253T344 292Q344 368 315 409T245
450Q207 450 187 422T166 347Q166 311 173 281T194 230T226 198T265 186ZM157 -43Q149 -53 143 -67T137 -102Q137 -138 174 -165T280 -193Q320 -193 349 -185T396 -165T424 -136T433 -105Q433 -59 370 -53L157 -43Z" />
<glyph unicode="&#x124;" glyph-name="Hcircumflex" horiz-adv-x="830" d="M476 45L560 63V304H270V63L355 45V0H37V45L124 63V600L40 619V664H351V619L270 600V369H560V600L480 619V664H790V619L707 600V63L793 45V0H476V45ZM258 736L364 871H467L575 736H512L414
803L317 736H258Z" />
<glyph unicode="&#x125;" glyph-name="hcircumflex" horiz-adv-x="623" d="M350 46L405 61V303Q403 357 382 385T311 412Q282 412 258 400T222 379V61L282 45V0H23V45L89 62V656L20 677V718L222 746V415Q232 426 247 441T283 469T329 491T384 500Q461 500 499
461T538 332V61L605 45V0H350V46ZM158 797L264 932H367L475 797H412L314 864L217 797H158Z" />
<glyph unicode="&#x126;" glyph-name="Hbar" horiz-adv-x="830" d="M476 45L560 63V304H270V63L355 45V0H37V45L124 63V463H26V519H124V600L40 619V664H351V619L270 600V519H560V600L480 619V664H790V619L707 600V519H805V463H707V63L793 45V0H476V45ZM270 369H560V463H270V369Z"
/>
<glyph unicode="&#x127;" glyph-name="hbar" horiz-adv-x="623" d="M10 601H89V659L20 677V718L222 746V601H408V552H222V415Q232 426 247 441T283 469T329 491T384 500Q461 500 499 461T538 332V61L605 45V0H350V46L405 61V303Q403 357 382 385T311 412Q282 412
258 400T222 379V61L282 45V0H23V45L89 62V552H10V601Z" />
<glyph unicode="&#x128;" glyph-name="Itilde" horiz-adv-x="389" d="M174 764Q146 774 128 778T98 781T76 768T58 738L24 752L28 765Q41 807 57 830T94 863T137 870T187 858L226 844Q252 835 269 831T300 831T322 847T342 880L377 868L373 853Q361 809 345 784T307
749T261 740T208 752L174 764ZM37 45L124 63V600L40 619V664H353V619L270 600V63L356 45V0H37V45Z" />
<glyph unicode="&#x129;" glyph-name="itilde" horiz-adv-x="312" d="M132 612Q106 622 89 626T58 629T36 617T19 586L-16 603L-11 616Q3 653 19 675T56 707T101 715T156 702L172 696Q196 687 213 683T244 682T267 697T286 732L320 715L315 701Q301 661 285 637T249
602T203 592T145 607L132 612ZM23 46L90 62V397L26 414V460L223 500V62L290 46V0H23V46Z" />
<glyph unicode="&#x12a;" glyph-name="Imacron" horiz-adv-x="389" d="M307 841H597V770H307V841ZM37 45L124 63V600L40 619V664H353V619L270 600V63L356 45V0H37V45Z" />
<glyph unicode="&#x12b;" glyph-name="imacron" horiz-adv-x="312" d="M17 683H278V611H17V683ZM23 46L90 62V397L26 414V460L223 500V62L290 46V0H23V46Z" />
<glyph unicode="&#x12c;" glyph-name="Ibreve" horiz-adv-x="389" d="M448 728Q409 728 382 740T338 773T314 819T306 872H349Q358 844 382 826T454 807Q502 807 526 826T558 872H600Q600 845 592 820T565 774T517 741T448 728ZM37 45L124 63V600L40 619V664H353V619L270
600V63L356 45V0H37V45Z" />
<glyph unicode="&#x12d;" glyph-name="ibreve" horiz-adv-x="312" d="M23 46L90 62V397L26 414V460L223 500V62L290 46V0H23V46ZM408 574Q373 574 349 587T309 622T286 673T278 737H324Q331 699 352 675T415 650Q453 650 474 674T503 737H548Q547 703 539 673T515
621T472 587T408 574Z" />
<glyph unicode="&#x12e;" glyph-name="Iogonek" horiz-adv-x="389" d="M37 45L124 63V600L40 619V664H353V619L270 600V63L356 45V0H222Q204 -24 193 -42T175 -75T166 -102T163 -127Q163 -150 177 -164T215 -178Q239 -178 258 -168T303 -132L325 -152Q313 -171
299 -191T266 -227T225 -254T172 -265Q123 -265 94 -238T65 -170Q65 -150 71 -131T90 -91T122 -49T168 0H37V45Z" />
<glyph unicode="&#x12f;" glyph-name="iogonek" horiz-adv-x="312" d="M23 46L90 62V397L26 414V460L223 500V62L290 46V0H185Q167 -24 155 -42T136 -75T125 -102T121 -127Q121 -150 135 -164T173 -178Q198 -178 216 -168T260 -132L281 -152Q269 -171 256 -191T224
-227T183 -254T130 -265Q81 -265 52 -238T23 -170Q23 -128 51 -88T126 0H23V46ZM154 594Q118 594 96 617T73 672Q73 704 96 727T154 750Q189 750 212 727T235 672Q235 640 212 617T154 594Z" />
<glyph unicode="&#x130;" glyph-name="Idotaccent" horiz-adv-x="389" d="M37 45L124 63V600L40 619V664H353V619L270 600V63L356 45V0H37V45ZM452 744Q416 744 394 767T371 823Q371 855 394 878T452 901Q489 901 511 878T534 823Q534 791 511 768T452 744Z" />
<glyph unicode="&#x131;" glyph-name="dotlessi" horiz-adv-x="312" d="M23 46L90 62V397L26 414V460L223 500V62L290 46V0H23V46Z" />
<glyph unicode="&#x132;" glyph-name="IJ" horiz-adv-x="778" d="M37 45L124 63V600L40 619V664H353V619L270 600V63L356 45V0H37V45ZM656 83Q656 19 642 -35T596 -129T517 -192T402 -219L392 -175Q434 -165 457 -143T493 -90T507 -19T510 64V600L422 618V664H741V619L656
600V83Z" />
<glyph unicode="&#x133;" glyph-name="ij" horiz-adv-x="610" d="M23 46L90 62V397L26 414V460L223 500V62L290 46V0H23V46ZM154 594Q118 594 96 617T73 672Q73 704 96 727T154 750Q189 750 212 727T235 672Q235 640 212 617T154 594ZM305 -205Q326 -196 343 -178T371
-131T389 -59T396 42V394L332 414V460L529 500V52Q529 -12 517 -60T484 -144Q464 -176 440 -195T393 -225T349 -241T319 -247L305 -205ZM460 594Q425 594 402 617T379 672Q379 704 402 727T460 750Q496 750 518 727T541 672Q541 640 518 617T460 594Z" />
<glyph unicode="&#x134;" glyph-name="Jcircumflex" horiz-adv-x="397" d="M280 83Q280 19 266 -35T220 -129T141 -192T26 -219L16 -175Q58 -165 81 -143T117 -90T131 -19T134 64V600L46 618V664H365V619L280 600V83ZM51 736L157 871H260L368 736H305L207 803L110
736H51Z" />
<glyph unicode="&#x135;" glyph-name="jcircumflex" horiz-adv-x="301" d="M-4 -205Q17 -196 34 -178T62 -131T80 -59T87 42V394L23 414V460L220 500V52Q220 -12 208 -60T175 -144Q155 -176 131 -195T84 -225T40 -241T10 -247L-4 -205ZM273 573L372 772H449L548
573H489L407 679L327 573H273Z" />
<glyph unicode="&#x136;" glyph-name="Kcommaaccent" horiz-adv-x="743" d="M37 45L124 63V600L40 619V664H352V619L270 600V63L345 45V0H37V45ZM279 358V365L330 382L539 597L466 621V664H705V621L621 597L422 395L668 61L744 45V0H534L279 358ZM309 -245Q358
-228 378 -210T398 -170Q398 -147 378 -137T335 -124V-117Q341 -85 362 -72T412 -59Q450 -59 472 -80T494 -137Q494 -184 453 -220T320 -278L309 -245Z" />
<glyph unicode="&#x137;" glyph-name="kcommaaccent" horiz-adv-x="591" d="M90 653L22 674V715L224 746V61L286 45V0H25V45L90 62V653ZM507 -18Q466 -19 440 -2T385 57L232 277V284L283 298L403 420L323 441V483H571V443L498 424L359 298L585 16Q580 6 569 -1Q560
-7 545 -12T507 -18ZM221 11Q270 28 290 46T310 86Q310 109 290 119T247 132V139Q253 171 274 184T324 197Q362 197 384 176T406 119Q406 72 365 36T232 -22L221 11Z" />
<glyph unicode="&#x138;" glyph-name="kgreenlandic" horiz-adv-x="592" d="M91 394L23 409V449L218 501H224V61L287 45V0H25V45L91 62V394ZM506 -18Q465 -19 439 -2T385 55L231 270V277L282 290L402 420L323 441V483H570V443L497 424L358 290L585 16Q579 6 568
-1Q559 -7 544 -12T506 -18Z" />
<glyph unicode="&#x139;" glyph-name="Lacute" horiz-adv-x="624" d="M466 59L557 222H603L564 0H37V45L124 63V600L40 619V664H363V619L270 600V59H466ZM360 875V854L235 736H166L239 875H360Z" />
<glyph unicode="&#x13a;" glyph-name="lacute" horiz-adv-x="316" d="M25 45L90 62V653L23 671V714L224 746V61L294 45V0H25V45ZM311 929V908L186 790H117L190 929H311Z" />
<glyph unicode="&#x13b;" glyph-name="Lcommaaccent" horiz-adv-x="624" d="M466 59L557 222H603L564 0H37V45L124 63V600L40 619V664H363V619L270 600V59H466ZM224 11Q273 28 293 46T313 86Q313 109 293 119T250 132V139Q256 171 277 184T327 197Q365 197 387
176T409 119Q409 72 368 36T235 -22L224 11Z" />
<glyph unicode="&#x13c;" glyph-name="lcommaaccent" horiz-adv-x="316" d="M25 45L90 62V653L23 671V714L224 746V61L294 45V0H25V45ZM310 11Q359 28 379 46T399 86Q399 109 379 119T336 132V139Q342 171 363 184T413 197Q451 197 473 176T495 119Q495 72 454
36T321 -22L310 11Z" />
<glyph unicode="&#x13d;" glyph-name="Lcaron" horiz-adv-x="624" d="M466 59L557 222H603L564 0H37V45L124 63V600L40 619V664H363V619L270 600V59H466ZM431 475L451 686H555V665L467 475H431Z" />
<glyph unicode="&#x13e;" glyph-name="lcaron" horiz-adv-x="316" d="M25 45L90 62V653L23 671V714L224 746V61L294 45V0H25V45ZM287 535L307 746H411V725L323 535H287Z" />
<glyph unicode="&#x13f;" glyph-name="Ldot" horiz-adv-x="624" d="M466 59L557 211H603L564 0H37V45L124 63V600L40 619V664H363V619L270 600V59H466ZM513 309Q482 309 460 331T437 385Q437 417 459 439T513 462Q545 462 567 440T590 385Q590 354 568 332T513 309Z" />
<glyph unicode="&#x140;" glyph-name="ldot" horiz-adv-x="413" d="M365 297Q334 297 312 319T289 373Q289 405 311 427T365 450Q397 450 419 428T442 373Q442 342 420 320T365 297ZM25 45L90 62V653L23 671V714L224 746V61L294 45V0H25V45Z" />
<glyph unicode="&#x141;" glyph-name="Lslash" horiz-adv-x="624" d="M38 304L124 326V600L40 619V664H363V619L270 600V364L474 418V366L270 312V59H466L557 222H603L564 0H37V45L124 63V274L38 252V304Z" />
<glyph unicode="&#x142;" glyph-name="lslash" horiz-adv-x="316" d="M8 333L90 372V653L23 671V714L224 746V437L315 481V419L224 375V61L294 45V0H25V45L90 62V310L8 270V333Z" />
<glyph unicode="&#x143;" glyph-name="Nacute" horiz-adv-x="807" d="M614 -5L196 499L199 76L324 43V0H42V45L128 66L129 587L37 620V664H248L627 206L625 586L500 621V664H779V619L695 596V95L698 -5H614ZM564 875V854L439 736H370L443 875H564Z" />
<glyph unicode="&#x144;" glyph-name="nacute" horiz-adv-x="625" d="M25 45L91 62V394L23 409V448L191 501H196L218 411H219Q228 421 243 436T280 466T328 490T386 500Q462 500 500 461T539 332V61L607 45V0H351V46L406 61V303Q404 357 383 385T313 412Q283 412
259 400T224 379V61L284 45V0H25V45ZM449 764V746L341 565H287L340 764H449Z" />
<glyph unicode="&#x145;" glyph-name="Ncommaaccent" horiz-adv-x="807" d="M614 -5L196 499L199 76L324 43V0H42V45L128 66L129 587L37 620V664H248L627 206L625 586L500 621V664H779V619L695 596V95L698 -5H614ZM314 -245Q363 -228 383 -210T403 -170Q403 -147
383 -137T340 -124V-117Q346 -85 367 -72T417 -59Q455 -59 477 -80T499 -137Q499 -184 458 -220T325 -278L314 -245Z" />
<glyph unicode="&#x146;" glyph-name="ncommaaccent" horiz-adv-x="625" d="M25 45L91 62V394L23 409V448L191 501H196L218 411H219Q228 421 243 436T280 466T328 490T386 500Q462 500 500 461T539 332V61L607 45V0H351V46L406 61V303Q404 357 383 385T313 412Q283
412 259 400T224 379V61L284 45V0H25V45ZM219 11Q268 28 288 46T308 86Q308 109 288 119T245 132V139Q251 171 272 184T322 197Q360 197 382 176T404 119Q404 72 363 36T230 -22L219 11Z" />
<glyph unicode="&#x147;" glyph-name="Ncaron" horiz-adv-x="807" d="M614 -5L196 499L199 76L324 43V0H42V45L128 66L129 587L37 620V664H248L627 206L625 586L500 621V664H779V619L695 596V95L698 -5H614ZM572 871L466 736H363L257 871H317L416 803L514 871H572Z" />
<glyph unicode="&#x148;" glyph-name="ncaron" horiz-adv-x="625" d="M454 764L355 565H278L179 764H238L319 658L400 764H454ZM25 45L91 62V394L23 409V448L191 501H196L218 411H219Q228 421 243 436T280 466T328 490T386 500Q462 500 500 461T539 332V61L607
45V0H351V46L406 61V303Q404 357 383 385T313 412Q283 412 259 400T224 379V61L284 45V0H25V45Z" />
<glyph unicode="&#x149;" glyph-name="napostrophe" horiz-adv-x="625" d="M-19 572Q30 589 50 607T70 647Q70 670 50 680T7 693V700Q13 732 34 745T84 758Q122 758 144 737T166 680Q166 633 125 597T-8 539L-19 572ZM25 45L91 62V394L23 409V448L191 501H196L218
411H219Q228 421 243 436T280 466T328 490T386 500Q462 500 500 461T539 332V61L607 45V0H351V46L406 61V303Q404 357 383 385T313 412Q283 412 259 400T224 379V61L284 45V0H25V45Z" />
<glyph unicode="&#x14a;" glyph-name="Eng" horiz-adv-x="806" d="M695 65Q695 1 681 -53T637 -147T560 -212T445 -239L434 -196Q482 -187 512 -168T559 -121T582 -62T591 7L196 515L199 76L319 43V0H42V45L128 66L129 587L37 620V664H261L627 188L625 586L504
621V664H779V619L695 596V65Z" />
<glyph unicode="&#x14b;" glyph-name="eng" horiz-adv-x="614" d="M406 303Q405 357 384 385T313 412Q283 412 259 400T224 379V61L284 45V0H25V45L91 62V394L23 409V448L191 501H196L218 411H219Q228 421 243 436T280 466T328 490T386 500Q462 500 500 461T539
332V52Q539 -12 527 -60T494 -144Q475 -176 451 -195T403 -225T360 -241T330 -247L315 -205Q336 -196 353 -178T381 -131T399 -59T406 42V303Z" />
<glyph unicode="&#x14c;" glyph-name="Omacron" horiz-adv-x="787" d="M249 841H539V770H249V841ZM405 34Q448 34 482 56T538 116T573 205T585 313Q585 376 571 432T530 532T466 601T382 627Q337 627 304 606T248 547T214 459T202 352Q202 289 216 232T256 130T320
60T405 34ZM394 683Q476 683 541 657T651 584T719 475T743 340Q743 257 715 190T639 75T527 3T391 -23Q316 -23 253 1T143 70T70 178T44 320Q44 404 71 471T146 585T258 658T394 683Z" />
<glyph unicode="&#x14d;" glyph-name="omacron" d="M141 691H431V619H141V691ZM172 277Q172 247 177 206T197 128T237 64T301 38Q325 38 343 50T374 85T393 139T400 206Q400 260 391 304T364 379T324 427T272 444Q223 444 198 397T172 277ZM286 -17Q223 -17 175
3T95 57T46 137T29 233Q29 289 49 337T103 422T185 478T286 499Q344 499 391 482T472 432T524 354T543 251Q543 195 524 146T470 61T389 4T286 -17Z" />
<glyph unicode="&#x14e;" glyph-name="Obreve" horiz-adv-x="787" d="M389 728Q350 728 323 740T279 773T255 819T247 872H290Q299 844 323 826T395 807Q443 807 467 826T499 872H541Q541 845 533 820T506 774T458 741T389 728ZM405 34Q448 34 482 56T538 116T573
205T585 313Q585 376 571 432T530 532T466 601T382 627Q337 627 304 606T248 547T214 459T202 352Q202 289 216 232T256 130T320 60T405 34ZM394 683Q476 683 541 657T651 584T719 475T743 340Q743 257 715 190T639 75T527 3T391 -23Q316 -23 253 1T143 70T70 178T44
320Q44 404 71 471T146 585T258 658T394 683Z" />
<glyph unicode="&#x14f;" glyph-name="obreve" d="M282 566Q247 566 223 579T183 614T160 665T152 729H198Q205 691 226 667T289 642Q327 642 348 666T377 729H422Q421 695 413 665T389 613T346 579T282 566ZM172 277Q172 247 177 206T197 128T237 64T301 38Q325
38 343 50T374 85T393 139T400 206Q400 260 391 304T364 379T324 427T272 444Q223 444 198 397T172 277ZM286 -17Q223 -17 175 3T95 57T46 137T29 233Q29 289 49 337T103 422T185 478T286 499Q344 499 391 482T472 432T524 354T543 251Q543 195 524 146T470 61T389
4T286 -17Z" />
<glyph unicode="&#x150;" glyph-name="Ohungarumlaut" horiz-adv-x="787" d="M444 875V856L336 736H275L341 875H444ZM595 875V856L487 736H426L492 875H595ZM405 34Q448 34 482 56T538 116T573 205T585 313Q585 376 571 432T530 532T466 601T382 627Q337 627
304 606T248 547T214 459T202 352Q202 289 216 232T256 130T320 60T405 34ZM394 683Q476 683 541 657T651 584T719 475T743 340Q743 257 715 190T639 75T527 3T391 -23Q316 -23 253 1T143 70T70 178T44 320Q44 404 71 471T146 585T258 658T394 683Z" />
<glyph unicode="&#x151;" glyph-name="ohungarumlaut" d="M327 764V746L226 565H178L229 764H327ZM484 764V746L383 565H335L386 764H484ZM172 277Q172 247 177 206T197 128T237 64T301 38Q325 38 343 50T374 85T393 139T400 206Q400 260 391 304T364 379T324
427T272 444Q223 444 198 397T172 277ZM286 -17Q223 -17 175 3T95 57T46 137T29 233Q29 289 49 337T103 422T185 478T286 499Q344 499 391 482T472 432T524 354T543 251Q543 195 524 146T470 61T389 4T286 -17Z" />
<glyph unicode="&#x152;" glyph-name="OE" horiz-adv-x="1071" d="M719 0Q662 0 619 -1T538 -4T469 -7T403 -8Q323 -8 257 14T144 79T71 182T45 321Q45 400 74 465T153 576T269 647T411 672Q444 672 473 671T541 668T631 665T762 664H901L995 670V482H950L897
610H672V368H795L822 451H863V236H820L795 313H672V59H900L985 199H1030L997 0H719ZM531 602Q517 607 483 612T415 618Q312 618 254 548T196 347Q196 288 209 234T249 138T317 72T417 47Q477 47 504 75T531 173V602Z" />
<glyph unicode="&#x153;" glyph-name="oe" horiz-adv-x="906" d="M642 -15Q575 -15 533 11T468 80Q439 35 393 9T286 -17Q223 -17 175 3T95 57T46 137T29 233Q29 289 49 337T103 422T185 478T286 499Q355 499 404 473T481 398Q513 447 560 473T664 500Q714 500
751 483T812 434T849 359T862 264H529Q532 219 547 185T585 129T640 95T706 84Q737 84 762 93T805 114Q826 127 843 145L865 124Q856 112 841 89T799 43T735 2T642 -15ZM305 38Q327 38 345 51T375 86T393 139T400 206Q400 258 391 301T364 376T323 426T272 444Q248
444 230 432T199 398T180 346T173 280Q173 233 181 190T205 113T247 59T305 38ZM637 444Q596 444 567 410T529 317H725Q725 341 720 364T705 405T678 433T637 444Z" />
<glyph unicode="&#x154;" glyph-name="Racute" horiz-adv-x="719" d="M37 45L124 63V601L40 619V664L315 666Q384 667 439 657T533 624T593 568T614 491Q614 428 574 388T470 322V321L652 60L734 44V0H534L391 206Q376 228 366 243T349 268Q342 279 338 286L270
283V63L345 45V0H37V45ZM270 330H331Q392 340 429 378T467 470Q467 503 455 531T418 579T356 610T270 620V330ZM500 875V854L375 736H306L379 875H500Z" />
<glyph unicode="&#x155;" glyph-name="racute" horiz-adv-x="423" d="M25 45L91 62V394L23 407V448L191 500H197L218 388H220L236 412Q262 452 288 476T350 500Q383 500 400 482T418 435Q418 419 413 405T400 379T384 359T372 347L268 393Q259 387 248 378T223
355V60L315 45V0H25V45ZM375 764V746L267 565H213L266 764H375Z" />
<glyph unicode="&#x156;" glyph-name="Rcommaaccent" horiz-adv-x="719" d="M37 45L124 63V601L40 619V664L315 666Q384 667 439 657T533 624T593 568T614 491Q614 428 574 388T470 322V321L652 60L734 44V0H534L391 206Q376 228 366 243T349 268Q342 279 338
286L270 283V63L345 45V0H37V45ZM270 330H331Q392 340 429 378T467 470Q467 503 455 531T418 579T356 610T270 620V330ZM307 -245Q356 -228 376 -210T396 -170Q396 -147 376 -137T333 -124V-117Q339 -85 360 -72T410 -59Q448 -59 470 -80T492 -137Q492 -184 451
-220T318 -278L307 -245Z" />
<glyph unicode="&#x157;" glyph-name="rcommaaccent" horiz-adv-x="423" d="M25 45L91 62V394L23 407V448L191 500H197L218 388H220L236 412Q262 452 288 476T350 500Q383 500 400 482T418 435Q418 419 413 405T400 379T384 359T372 347L268 393Q259 387 248 378T223
355V60L315 45V0H25V45ZM308 11Q357 28 377 46T397 86Q397 109 377 119T334 132V139Q340 171 361 184T411 197Q449 197 471 176T493 119Q493 72 452 36T319 -22L308 11Z" />
<glyph unicode="&#x158;" glyph-name="Rcaron" horiz-adv-x="719" d="M502 871L396 736H293L187 871H247L346 803L444 871H502ZM37 45L124 63V601L40 619V664L315 666Q384 667 439 657T533 624T593 568T614 491Q614 428 574 388T470 322V321L652 60L734 44V0H534L391
206Q376 228 366 243T349 268Q342 279 338 286L270 283V63L345 45V0H37V45ZM270 330H331Q392 340 429 378T467 470Q467 503 455 531T418 579T356 610T270 620V330Z" />
<glyph unicode="&#x159;" glyph-name="rcaron" horiz-adv-x="423" d="M381 764L282 565H205L106 764H165L246 658L327 764H381ZM25 45L91 62V394L23 407V448L191 500H197L218 388H220L236 412Q262 452 288 476T350 500Q383 500 400 482T418 435Q418 419 413 405T400
379T384 359T372 347L268 393Q259 387 248 378T223 355V60L315 45V0H25V45Z" />
<glyph unicode="&#x15a;" glyph-name="Sacute" horiz-adv-x="559" d="M35 229H80L151 74Q170 59 196 49T265 39Q315 39 347 66T380 145Q380 181 359 209T289 257L199 294Q125 324 88 366T51 479Q51 518 68 555T119 621T200 667T309 685Q360 685 403 673T484 641L490
462H446L387 602Q379 608 358 619T301 630Q248 630 218 601T187 530Q187 491 208 467T277 422L377 379Q419 361 447 342T492 300T516 253T523 200Q523 149 500 109T438 40T353 -4T260 -20Q195 -20 143 -4T49 39L35 229ZM445 875V854L320 736H251L324 875H445Z"
/>
<glyph unicode="&#x15b;" glyph-name="sacute" horiz-adv-x="463" d="M364 764V746L256 565H202L255 764H364ZM217 -19Q168 -19 132 -9T53 21L36 177H78L132 68Q147 52 167 42T220 32Q255 32 277 49T299 96Q299 122 280 143T212 186L158 210Q102 235 78 267T53
348Q53 380 68 407T109 455T171 488T248 500Q289 500 324 492T395 466L400 329H360L320 418Q310 429 292 439T246 449Q214 449 195 432T175 388Q175 365 190 347T249 310L303 287Q338 272 361 257T399 224T420 187T426 143Q426 109 410 80T365 28T299 -6T217 -19Z"
/>
<glyph unicode="&#x15c;" glyph-name="Scircumflex" horiz-adv-x="559" d="M150 736L256 871H359L467 736H404L306 803L209 736H150ZM35 229H80L151 74Q170 59 196 49T265 39Q315 39 347 66T380 145Q380 181 359 209T289 257L199 294Q125 324 88 366T51 479Q51
518 68 555T119 621T200 667T309 685Q360 685 403 673T484 641L490 462H446L387 602Q379 608 358 619T301 630Q248 630 218 601T187 530Q187 491 208 467T277 422L377 379Q419 361 447 342T492 300T516 253T523 200Q523 149 500 109T438 40T353 -4T260 -20Q195
-20 143 -4T49 39L35 229Z" />
<glyph unicode="&#x15d;" glyph-name="scircumflex" horiz-adv-x="463" d="M99 565L198 764H275L374 565H315L233 671L153 565H99ZM217 -19Q168 -19 132 -9T53 21L36 177H78L132 68Q147 52 167 42T220 32Q255 32 277 49T299 96Q299 122 280 143T212 186L158 210Q102
235 78 267T53 348Q53 380 68 407T109 455T171 488T248 500Q289 500 324 492T395 466L400 329H360L320 418Q310 429 292 439T246 449Q214 449 195 432T175 388Q175 365 190 347T249 310L303 287Q338 272 361 257T399 224T420 187T426 143Q426 109 410 80T365 28T299
-6T217 -19Z" />
<glyph unicode="&#x15e;" glyph-name="Scedilla" horiz-adv-x="559" d="M150 -235Q165 -230 181 -224T210 -208T231 -187T240 -158Q240 -146 235 -137T224 -120T210 -108T196 -100L247 -20Q187 -18 138 -3T49 39L35 229H80L151 74Q170 59 196 49T265 39Q315 39
347 66T380 145Q380 181 359 209T289 257L199 294Q125 324 88 366T51 479Q51 518 68 555T119 621T200 667T309 685Q360 685 403 673T484 641L490 462H446L387 602Q379 608 358 619T301 630Q248 630 218 601T187 530Q187 491 208 467T277 422L377 379Q419 361 447
342T492 300T516 253T523 200Q523 154 504 117T453 52T380 7T297 -17L272 -62Q301 -68 322 -87T344 -139Q344 -171 326 -194T281 -232T221 -256T159 -270L150 -235Z" />
<glyph unicode="&#x15f;" glyph-name="scedilla" horiz-adv-x="463" d="M108 -232Q123 -227 139 -221T168 -205T189 -184T198 -155Q198 -143 193 -134T182 -117T168 -105T154 -97L204 -19Q160 -17 126 -7T53 21L36 177H78L132 68Q147 52 167 42T220 32Q255 32
277 49T299 96Q299 122 280 143T212 186L158 210Q102 235 78 267T53 348Q53 380 68 407T109 455T171 488T248 500Q289 500 324 492T395 466L400 329H360L320 418Q310 429 292 439T246 449Q214 449 195 432T175 388Q175 365 190 347T249 310L303 287Q338 272 361
257T399 224T420 187T426 143Q426 113 413 86T377 38T323 3T254 -16L230 -59Q259 -65 280 -84T302 -136Q302 -168 284 -191T239 -229T179 -253T117 -267L108 -232Z" />
<glyph unicode="&#x160;" glyph-name="Scaron" horiz-adv-x="559" d="M462 871L356 736H253L147 871H207L306 803L404 871H462ZM35 229H80L151 74Q170 59 196 49T265 39Q315 39 347 66T380 145Q380 181 359 209T289 257L199 294Q125 324 88 366T51 479Q51 518
68 555T119 621T200 667T309 685Q360 685 403 673T484 641L490 462H446L387 602Q379 608 358 619T301 630Q248 630 218 601T187 530Q187 491 208 467T277 422L377 379Q419 361 447 342T492 300T516 253T523 200Q523 149 500 109T438 40T353 -4T260 -20Q195 -20
143 -4T49 39L35 229Z" />
<glyph unicode="&#x161;" glyph-name="scaron" horiz-adv-x="463" d="M370 764L271 565H194L95 764H154L235 658L316 764H370ZM217 -19Q168 -19 132 -9T53 21L36 177H78L132 68Q147 52 167 42T220 32Q255 32 277 49T299 96Q299 122 280 143T212 186L158 210Q102
235 78 267T53 348Q53 380 68 407T109 455T171 488T248 500Q289 500 324 492T395 466L400 329H360L320 418Q310 429 292 439T246 449Q214 449 195 432T175 388Q175 365 190 347T249 310L303 287Q338 272 361 257T399 224T420 187T426 143Q426 109 410 80T365 28T299
-6T217 -19Z" />
<glyph unicode="&#x162;" glyph-name="Tcommaaccent" horiz-adv-x="693" d="M570 664L655 671L663 476H618L561 610H419V63L519 45V0H173V45L273 63V610H132L75 476H30L37 671L122 664H570ZM242 -245Q291 -228 311 -210T331 -170Q331 -147 311 -137T268 -124V-117Q274
-85 295 -72T345 -59Q383 -59 405 -80T427 -137Q427 -184 386 -220T253 -278L242 -245Z" />
<glyph unicode="&#x163;" glyph-name="tcommaaccent" horiz-adv-x="357" d="M189 -13Q124 -13 99 20T75 108L79 426H9V474L81 495L165 626H208V483H335V421H210V147Q210 121 216 106T232 82T256 72T283 70Q294 70 304 70T322 72Q332 73 341 74L350 33Q328 20 302
10Q280 1 251 -6T189 -13ZM339 11Q388 28 408 46T428 86Q428 109 408 119T365 132V139Q371 171 392 184T442 197Q480 197 502 176T524 119Q524 72 483 36T350 -22L339 11Z" />
<glyph unicode="&#x164;" glyph-name="Tcaron" horiz-adv-x="693" d="M570 664L655 671L663 476H618L561 610H419V63L519 45V0H173V45L273 63V610H132L75 476H30L37 671L122 664H570ZM501 871L395 736H292L186 871H246L345 803L443 871H501Z" />
<glyph unicode="&#x165;" glyph-name="tcaron" horiz-adv-x="357" d="M288 554L308 748H410V729L323 554H288ZM189 -13Q124 -13 99 20T75 108L79 426H9V474L81 495L165 626H208V483H335V421H210V147Q210 121 216 106T232 82T256 72T283 70Q294 70 304 70T322 72Q332
73 341 74L350 33Q328 20 302 10Q280 1 251 -6T189 -13Z" />
<glyph unicode="&#x166;" glyph-name="Tbar" horiz-adv-x="693" d="M124 389H273V610H132L75 476H30L37 671L122 664H570L655 671L663 476H618L561 610H419V389H567V336H419V63L519 45V0H173V45L273 63V336H124V389Z" />
<glyph unicode="&#x167;" glyph-name="tbar" horiz-adv-x="357" d="M9 339H78L79 426H9V474L81 495L165 626H208V483H335V421H210V339H335V279H210V147Q210 121 216 106T232 82T256 72T283 70Q294 70 304 70T322 72Q332 73 341 74L350 33Q328 20 302 10Q280 1
251 -6T189 -13Q124 -13 99 20T75 108L77 279H9V339Z" />
<glyph unicode="&#x168;" glyph-name="Utilde" horiz-adv-x="763" d="M389 -22Q310 -22 256 -4T167 51T118 140T102 262V600L18 619V664H331V619L249 600V265Q249 218 258 180T287 113T338 69T414 53Q594 53 591 275L588 589L467 621V664H748V619L665 596V275Q665
206 646 151T592 57T505 -1T389 -22ZM378 767Q344 778 324 782T292 784T271 769T254 738L219 752L223 765Q236 807 253 830T291 863T337 869T391 856L429 843Q461 832 481 829T514 829T535 846T553 880L589 868L585 853Q573 809 557 784T518 750T469 742T411 756L378
767Z" />
<glyph unicode="&#x169;" glyph-name="utilde" horiz-adv-x="615" d="M401 71Q393 61 379 46T343 18T295 -6T234 -16Q204 -16 177 -7T128 23T95 74T82 151V413L14 429V473L216 495V183Q217 129 237 100T306 71Q340 71 362 83T394 106V413L317 428V472L528 494V74L602
57V13L441 -16L401 71ZM280 615Q252 627 233 633T200 637T176 622T157 586L122 603L127 616Q158 696 199 715T296 709L332 693Q359 681 378 676T411 675T436 692T457 732L491 715L486 701Q471 658 453 632T414 595T367 585T312 601L280 615Z" />
<glyph unicode="&#x16a;" glyph-name="Umacron" horiz-adv-x="763" d="M389 -22Q310 -22 256 -4T167 51T118 140T102 262V600L18 619V664H331V619L249 600V265Q249 218 258 180T287 113T338 69T414 53Q594 53 591 275L588 589L467 621V664H748V619L665 596V275Q665
206 646 151T592 57T505 -1T389 -22ZM259 841H549V770H259V841Z" />
<glyph unicode="&#x16b;" glyph-name="umacron" horiz-adv-x="615" d="M162 691H452V619H162V691ZM401 71Q393 61 379 46T343 18T295 -6T234 -16Q204 -16 177 -7T128 23T95 74T82 151V413L14 429V473L216 495V183Q217 129 237 100T306 71Q340 71 362 83T394 106V413L317
428V472L528 494V74L602 57V13L441 -16L401 71Z" />
<glyph unicode="&#x16c;" glyph-name="Ubreve" horiz-adv-x="763" d="M399 728Q360 728 333 740T289 773T265 819T257 872H300Q309 844 333 826T405 807Q453 807 477 826T509 872H551Q551 845 543 820T516 774T468 741T399 728ZM389 -22Q310 -22 256 -4T167 51T118
140T102 262V600L18 619V664H331V619L249 600V265Q249 218 258 180T287 113T338 69T414 53Q594 53 591 275L588 589L467 621V664H748V619L665 596V275Q665 206 646 151T592 57T505 -1T389 -22Z" />
<glyph unicode="&#x16d;" glyph-name="ubreve" horiz-adv-x="615" d="M303 566Q268 566 244 579T204 614T181 665T173 729H219Q226 691 247 667T310 642Q348 642 369 666T398 729H443Q442 695 434 665T410 613T367 579T303 566ZM401 71Q393 61 379 46T343 18T295
-6T234 -16Q204 -16 177 -7T128 23T95 74T82 151V413L14 429V473L216 495V183Q217 129 237 100T306 71Q340 71 362 83T394 106V413L317 428V472L528 494V74L602 57V13L441 -16L401 71Z" />
<glyph unicode="&#x16e;" glyph-name="Uring" horiz-adv-x="763" d="M285 823Q285 848 294 869T320 905T357 930T404 939Q455 939 489 907T523 823Q523 798 514 777T488 740T451 715T404 706Q379 706 357 714T319 739T294 776T285 823ZM338 823Q338 792 357 773T404
754Q431 754 450 773T470 823Q470 853 451 872T404 891Q377 891 358 872T338 823ZM389 -22Q310 -22 256 -4T167 51T118 140T102 262V600L18 619V664H331V619L249 600V265Q249 218 258 180T287 113T338 69T414 53Q594 53 591 275L588 589L467 621V664H748V619L665
596V275Q665 206 646 151T592 57T505 -1T389 -22Z" />
<glyph unicode="&#x16f;" glyph-name="uring" horiz-adv-x="615" d="M188 674Q188 699 197 720T223 756T260 781T307 790Q358 790 392 758T426 674Q426 649 417 628T391 592T354 567T307 558Q256 558 222 590T188 674ZM241 674Q241 644 260 625T307 606Q334 606
353 625T373 674Q373 704 354 723T307 742Q280 742 261 723T241 674ZM401 71Q393 61 379 46T343 18T295 -6T234 -16Q204 -16 177 -7T128 23T95 74T82 151V413L14 429V473L216 495V183Q217 129 237 100T306 71Q340 71 362 83T394 106V413L317 428V472L528 494V74L602
57V13L441 -16L401 71Z" />
<glyph unicode="&#x170;" glyph-name="Uhungarumlaut" horiz-adv-x="763" d="M389 -22Q310 -22 256 -4T167 51T118 140T102 262V600L18 619V664H331V619L249 600V265Q249 218 258 180T287 113T338 69T414 53Q594 53 591 275L588 589L467 621V664H748V619L665 596V275Q665
206 646 151T592 57T505 -1T389 -22ZM454 875V856L346 736H285L351 875H454ZM605 875V856L497 736H436L502 875H605Z" />
<glyph unicode="&#x171;" glyph-name="uhungarumlaut" horiz-adv-x="615" d="M348 764V746L247 565H199L250 764H348ZM505 764V746L404 565H356L407 764H505ZM401 71Q393 61 379 46T343 18T295 -6T234 -16Q204 -16 177 -7T128 23T95 74T82 151V413L14 429V473L216
495V183Q217 129 237 100T306 71Q340 71 362 83T394 106V413L317 428V472L528 494V74L602 57V13L441 -16L401 71Z" />
<glyph unicode="&#x172;" glyph-name="Uogonek" horiz-adv-x="763" d="M278 -170Q278 -132 302 -99T381 -22Q304 -21 251 -2T165 53T117 141T102 262V600L18 619V664H331V619L249 600V265Q249 218 258 180T287 113T338 69T414 53Q594 53 591 275L588 589L467 621V664H748V619L665
596V275Q664 150 606 74T443 -18Q405 -57 391 -81T376 -128Q376 -151 389 -165T428 -179Q453 -179 472 -169T517 -132L538 -153Q526 -172 512 -192T480 -228T439 -254T385 -265Q336 -265 307 -238T278 -170Z" />
<glyph unicode="&#x173;" glyph-name="uogonek" horiz-adv-x="615" d="M319 -170Q319 -150 326 -132T347 -94T384 -54T438 -9L401 71Q393 61 379 46T343 18T295 -6T234 -16Q204 -16 177 -7T128 23T95 74T82 151V413L14 429V473L216 495V183Q217 129 237 100T306
71Q340 71 362 83T394 106V413L317 428V472L528 494V74L602 57V13L496 -6Q452 -50 435 -77T417 -128Q417 -151 430 -165T469 -179Q494 -179 513 -169T558 -132L579 -153Q567 -172 553 -192T521 -228T480 -254T426 -265Q377 -265 348 -238T319 -170Z" />
<glyph unicode="&#x174;" glyph-name="Wcircumflex" horiz-adv-x="1058" d="M531 430L382 -9H277L74 600L3 619V664H312V619L231 600L372 139L500 521L472 601L393 619V664H705V618L626 599L777 142L908 589L815 618V664H1055V619L983 594L789 -9H685L531 430ZM398
736L504 871H607L715 736H652L554 803L457 736H398Z" />
<glyph unicode="&#x175;" glyph-name="wcircumflex" horiz-adv-x="822" d="M309 565L408 764H485L584 565H525L443 671L363 565H309ZM592 148Q594 143 595 138T598 129Q599 125 600 120H602L610 148L691 413L618 437V483H819V437L768 424L623 -12H525L424 271Q422
276 421 281T417 292Q415 297 413 303H412Q410 297 408 292L401 271L295 -12H190L52 424L4 438V483H270V437L195 424L268 148Q270 143 270 137T273 126Q274 120 276 114H278Q280 120 282 126Q284 131 285 137T289 148L410 487H480L592 148Z" />
<glyph unicode="&#x176;" glyph-name="Ycircumflex" horiz-adv-x="672" d="M218 736L324 871H427L535 736H472L374 803L277 736H218ZM410 280V63L503 45V0H170V45L263 63V251L70 602L6 619V664H320V620L239 601L376 322L521 594L431 619V664H666V620L593 597L410 280Z" />
<glyph unicode="&#x177;" glyph-name="ycircumflex" horiz-adv-x="538" d="M174 565L273 764H350L449 565H390L308 671L228 565H174ZM352 438V483H535V437L491 423L277 -114Q261 -154 247 -181T217 -226T184 -251T143 -259Q110 -259 85 -238T60 -184Q60 -152 79
-135T127 -117Q151 -117 166 -130T193 -165H196L242 -57L47 424L3 438V483H263V437L194 424L304 107H308L421 418L352 438Z" />
<glyph unicode="&#x178;" glyph-name="Ydieresis" horiz-adv-x="672" d="M410 280V63L503 45V0H170V45L263 63V251L70 602L6 619V664H320V620L239 601L376 322L521 594L431 619V664H666V620L593 597L410 280ZM256 737Q228 737 208 757T188 805Q188 834 208 854T256
875Q284 875 304 855T325 805Q325 777 305 757T256 737ZM493 737Q465 737 445 757T424 805Q424 834 444 854T493 875Q521 875 541 855T562 805Q562 777 542 757T493 737Z" />
<glyph unicode="&#x179;" glyph-name="Zacute" horiz-adv-x="633" d="M481 875V854L356 736H287L360 875H481ZM26 47L412 606H156L91 461H47L64 671L152 664H610V653L201 59H472L562 222H606L569 -6L475 0H26V47Z" />
<glyph unicode="&#x17a;" glyph-name="zacute" horiz-adv-x="509" d="M29 0V45L299 430H143L85 315H46L53 490L146 483H475V462L187 55H363L429 178H470L451 -4L363 0H29ZM387 764V746L279 565H225L278 764H387Z" />
<glyph unicode="&#x17b;" glyph-name="Zdotaccent" horiz-adv-x="633" d="M328 744Q292 744 270 767T247 823Q247 855 270 878T328 901Q365 901 387 878T410 823Q410 791 387 768T328 744ZM26 47L412 606H156L91 461H47L64 671L152 664H610V653L201 59H472L562
222H606L569 -6L475 0H26V47Z" />
<glyph unicode="&#x17c;" glyph-name="zdotaccent" horiz-adv-x="509" d="M257 578Q221 578 199 601T176 657Q176 689 199 712T257 735Q293 735 315 712T338 657Q338 625 315 602T257 578ZM29 0V45L299 430H143L85 315H46L53 490L146 483H475V462L187 55H363L429
178H470L451 -4L363 0H29Z" />
<glyph unicode="&#x17d;" glyph-name="Zcaron" horiz-adv-x="633" d="M483 871L377 736H274L168 871H228L327 803L425 871H483ZM26 47L412 606H156L91 461H47L64 671L152 664H610V653L201 59H472L562 222H606L569 -6L475 0H26V47Z" />
<glyph unicode="&#x17e;" glyph-name="zcaron" horiz-adv-x="509" d="M393 764L294 565H217L118 764H177L258 658L339 764H393ZM29 0V45L299 430H143L85 315H46L53 490L146 483H475V462L187 55H363L429 178H470L451 -4L363 0H29Z" />
<glyph unicode="&#x192;" glyph-name="florin" horiz-adv-x="600" d="M69 322H206L212 359Q225 436 260 496T339 597T428 661T508 683Q552 683 569 663T586 618Q586 590 566 567T524 533Q508 568 491 592T450 617Q435 617 422 607T395 569T369 492T342 363L335
322H500L490 266H326L299 99Q282 -12 245 -81T166 -191T83 -245T18 -260Q-15 -260 -39 -240T-64 -189Q-64 -163 -46 -145T-1 -118Q16 -152 33 -176T73 -200Q96 -200 113 -167T142 -61L196 266H60L69 322Z" />
<glyph unicode="&#x1fa;" glyph-name="Aringacute" horiz-adv-x="737" d="M5 43L68 65L305 661L361 666L421 682L660 61L733 45V0H418V46L503 63L449 215H205L155 75L256 46V0H5V43ZM230 284H424L328 555H327L230 284ZM249 823Q249 848 258 869T284 905T321 930T368
939Q419 939 453 907T487 823Q487 798 478 777T452 740T415 715T368 706Q343 706 321 714T283 739T258 776T249 823ZM302 823Q302 792 321 773T368 754Q395 754 414 773T434 823Q434 853 415 872T368 891Q341 891 322 872T302 823ZM527 1108V1087L402 969H333L406
1108H527Z" />
<glyph unicode="&#x1fb;" glyph-name="aringacute" horiz-adv-x="545" d="M177 -14Q151 -14 127 -5T83 20T53 61T41 115Q41 176 84 207T202 257L318 285V326Q318 380 296 412T230 444Q213 444 197 440T175 431L173 328Q166 325 149 322T114 318Q88 318 73 330T58
369Q58 389 76 412T124 454T195 485T280 498Q374 498 413 458T452 332V90Q452 68 459 62T489 56H532V21Q511 11 490 4Q472 -3 451 -8T410 -13Q364 -13 346 12T322 73H317Q302 56 288 40T258 12T223 -7T177 -14ZM248 71Q274 71 291 83T318 106V242L254 222Q211 208
193 191T174 145Q174 109 196 90T248 71ZM150 914Q150 939 159 960T185 996T222 1021T269 1030Q320 1030 354 998T388 914Q388 889 379 868T353 832T316 807T269 798Q218 798 184 830T150 914ZM203 914Q203 884 222 865T269 846Q296 846 315 865T335 914Q335 944
316 963T269 982Q242 982 223 963T203 914ZM428 959V938L303 820H234L307 959H428Z" />
<glyph unicode="&#x1fc;" glyph-name="AEacute" horiz-adv-x="1018" d="M620 299V59H847L932 199H978L944 0H392V45L478 63V299H281L163 76L265 46V0H5V43L71 68L375 593L268 619V664H848L942 670V482H897L845 610H620V353H742L770 436H811V221H767L742 299H620ZM461
610L310 352H478V610H461ZM721 875V854L596 736H527L600 875H721Z" />
<glyph unicode="&#x1fd;" glyph-name="aeacute" horiz-adv-x="797" d="M177 -14Q149 -14 124 -5T81 22T52 62T41 114Q41 176 81 207T200 255L322 281V326Q321 385 296 414T231 444Q211 444 196 439T175 431L173 328Q166 325 150 322T115 318Q89 318 74 330T58
368Q58 389 76 412T126 454T196 485T276 498Q333 498 366 479T419 426Q443 458 482 479T571 500Q616 500 649 484T704 441T739 377T753 299Q750 298 732 296T687 289T627 281T560 273T496 264T445 257V228Q456 161 497 123T603 84Q632 84 656 93T698 114Q718 127
734 145L756 124Q748 112 733 89T693 43T629 2T539 -15Q469 -15 423 15T352 91Q334 71 316 53T276 19T231 -5T177 -14ZM249 71Q266 71 280 76T305 90T324 107T337 125Q329 147 326 169T322 214V239L261 225Q219 214 197 196T174 145Q174 110 196 91T249 71ZM542
444Q524 444 507 434T477 406T455 360T445 300L620 326Q619 379 599 411T542 444ZM551 764V746L443 565H389L442 764H551Z" />
<glyph unicode="&#x1fe;" glyph-name="Oslashacute" horiz-adv-x="787" d="M137 78Q94 123 70 184T45 320Q45 403 72 470T147 584T258 657T394 683Q456 683 508 667T602 622L664 695H729L640 591Q690 543 716 479T742 340Q742 255 715 188T640 74T528 2T391 -23Q329
-23 274 -6T174 45L108 -33H42L137 78ZM589 316Q589 367 581 411T557 493L248 131Q273 86 312 59T407 32Q453 32 487 55T544 117T578 207T589 316ZM384 627Q338 627 304 605T246 543T212 452T200 339Q200 298 206 258T225 182L532 540Q505 582 468 604T384 627ZM543
875V854L418 736H349L422 875H543Z" />
<glyph unicode="&#x1ff;" glyph-name="oslashacute" d="M24 -42L101 52Q66 87 48 133T29 233Q29 289 49 337T103 422T185 478T286 499Q372 499 435 459L490 526H549L471 431Q505 398 524 353T543 251Q543 195 524 146T470 61T389 4T286 -17Q241 -17 204 -6T137
24L83 -42H24ZM166 263Q166 232 169 203T180 148L372 381Q337 445 273 445Q223 445 195 396T166 263ZM299 37Q327 37 347 53T380 95T399 153T405 218Q405 283 391 333L199 100Q216 71 240 54T299 37ZM416 764V746L308 565H254L307 764H416Z" />
<glyph unicode="&#x218;" glyph-name="Scommaaccent" horiz-adv-x="559" d="M35 229H80L151 74Q170 59 196 49T265 39Q315 39 347 66T380 145Q380 181 359 209T289 257L199 294Q125 324 88 366T51 479Q51 518 68 555T119 621T200 667T309 685Q360 685 403 673T484
641L490 462H446L387 602Q379 608 358 619T301 630Q248 630 218 601T187 530Q187 491 208 467T277 422L377 379Q419 361 447 342T492 300T516 253T523 200Q523 149 500 109T438 40T353 -4T260 -20Q195 -20 143 -4T49 39L35 229ZM172 11Q221 28 241 46T261 86Q261
109 241 119T198 132V139Q204 171 225 184T275 197Q313 197 335 176T357 119Q357 72 316 36T183 -22L172 11Z" />
<glyph unicode="&#x219;" glyph-name="scommaaccent" horiz-adv-x="463" d="M217 -19Q168 -19 132 -9T53 21L36 177H78L132 68Q147 52 167 42T220 32Q255 32 277 49T299 96Q299 122 280 143T212 186L158 210Q102 235 78 267T53 348Q53 380 68 407T109 455T171
488T248 500Q289 500 324 492T395 466L400 329H360L320 418Q310 429 292 439T246 449Q214 449 195 432T175 388Q175 365 190 347T249 310L303 287Q338 272 361 257T399 224T420 187T426 143Q426 109 410 80T365 28T299 -6T217 -19ZM128 11Q177 28 197 46T217 86Q217
109 197 119T154 132V139Q160 171 181 184T231 197Q269 197 291 176T313 119Q313 72 272 36T139 -22L128 11Z" />
<glyph unicode="&#x21a;" glyph-name="uni021A" horiz-adv-x="693" d="M570 664L655 671L663 476H618L561 610H419V63L519 45V0H173V45L273 63V610H132L75 476H30L37 671L122 664H570ZM242 -245Q291 -228 311 -210T331 -170Q331 -147 311 -137T268 -124V-117Q274
-85 295 -72T345 -59Q383 -59 405 -80T427 -137Q427 -184 386 -220T253 -278L242 -245Z" />
<glyph unicode="&#x21b;" glyph-name="uni021B" horiz-adv-x="357" d="M189 -13Q124 -13 99 20T75 108L79 426H9V474L81 495L165 626H208V483H335V421H210V147Q210 121 216 106T232 82T256 72T283 70Q294 70 304 70T322 72Q332 73 341 74L350 33Q328 20 302 10Q280
1 251 -6T189 -13ZM339 11Q388 28 408 46T428 86Q428 109 408 119T365 132V139Q371 171 392 184T442 197Q480 197 502 176T524 119Q524 72 483 36T350 -22L339 11Z" />
<glyph unicode="&#x237;" glyph-name="uni0237" horiz-adv-x="301" d="M-4 -205Q17 -196 34 -178T62 -131T80 -59T87 42V394L23 414V460L220 500V52Q220 -12 208 -60T175 -144Q155 -176 131 -195T84 -225T40 -241T10 -247L-4 -205Z" />
<glyph unicode="&#x2c6;" glyph-name="circumflex" horiz-adv-x="400" d="M62 565L161 764H238L337 565H278L196 671L116 565H62Z" />
<glyph unicode="&#x2c7;" glyph-name="caron" horiz-adv-x="400" d="M337 764L238 565H161L62 764H121L202 658L283 764H337Z" />
<glyph unicode="&#x2d8;" glyph-name="breve" horiz-adv-x="400" d="M195 566Q160 566 136 579T96 614T73 665T65 729H111Q118 691 139 667T202 642Q240 642 261 666T290 729H335Q334 695 326 665T302 613T259 579T195 566Z" />
<glyph unicode="&#x2d9;" glyph-name="dotaccent" horiz-adv-x="400" d="M200 578Q164 578 142 601T119 657Q119 689 142 712T200 735Q236 735 258 712T281 657Q281 625 258 602T200 578Z" />
<glyph unicode="&#x2da;" glyph-name="ring" horiz-adv-x="400" d="M81 674Q81 699 90 720T116 756T153 781T200 790Q251 790 285 758T319 674Q319 649 310 628T284 592T247 567T200 558Q149 558 115 590T81 674ZM134 674Q134 644 153 625T200 606Q227 606 246
625T266 674Q266 704 247 723T200 742Q173 742 154 723T134 674Z" />
<glyph unicode="&#x2db;" glyph-name="ogonek" horiz-adv-x="400" d="M277 30Q245 0 224 -22T191 -62T173 -94T167 -122Q167 -145 180 -159T219 -173Q244 -173 263 -163T308 -126L329 -147Q317 -166 303 -186T271 -222T230 -248T176 -259Q127 -259 98 -232T69
-164Q69 -140 78 -119T107 -76T158 -28T232 30H277Z" />
<glyph unicode="&#x2dc;" glyph-name="tilde" horiz-adv-x="400" d="M173 615Q145 627 126 633T93 637T69 622T50 586L15 603L20 616Q51 696 92 715T189 709L225 693Q252 681 271 676T304 675T329 692T350 732L384 715L379 701Q364 658 346 632T307 595T260 585T205
601L173 615Z" />
<glyph unicode="&#x2dd;" glyph-name="hungarumlaut" horiz-adv-x="400" d="M198 764V746L97 565H49L100 764H198ZM355 764V746L254 565H206L257 764H355Z" />
</font>
</defs>
</svg>
